G04 #@! TF.GenerationSoftware,KiCad,Pcbnew,(5.1.0-43-gfdfe5ea)*
G04 #@! TF.CreationDate,2019-03-25T11:45:27-07:00*
G04 #@! TF.ProjectId,lofive,6c6f6669-7665-42e6-9b69-6361645f7063,0*
G04 #@! TF.SameCoordinates,Original*
G04 #@! TF.FileFunction,Soldermask,Top*
G04 #@! TF.FilePolarity,Negative*
%FSLAX46Y46*%
G04 Gerber Fmt 4.6, Leading zero omitted, Abs format (unit mm)*
G04 Created by KiCad (PCBNEW (5.1.0-43-gfdfe5ea)) date 2019-03-25 11:45:27*
%MOMM*%
%LPD*%
G04 APERTURE LIST*
%ADD10C,0.100000*%
G04 APERTURE END LIST*
D10*
G36*
X134750000Y-123208665D02*
G01*
X134752402Y-123233051D01*
X134759515Y-123256500D01*
X134771066Y-123278111D01*
X134786611Y-123297053D01*
X134805553Y-123312598D01*
X134827164Y-123324149D01*
X134850613Y-123331262D01*
X134874999Y-123333664D01*
X134899385Y-123331262D01*
X134922834Y-123324149D01*
X134944445Y-123312598D01*
X134963387Y-123297053D01*
X134978932Y-123278111D01*
X134990481Y-123256504D01*
X135003811Y-123224322D01*
X135113249Y-123060537D01*
X135252537Y-122921249D01*
X135416322Y-122811811D01*
X135598311Y-122736429D01*
X135673209Y-122721531D01*
X135791507Y-122698000D01*
X135988493Y-122698000D01*
X136106791Y-122721531D01*
X136181689Y-122736429D01*
X136363678Y-122811811D01*
X136527463Y-122921249D01*
X136666751Y-123060537D01*
X136776189Y-123224322D01*
X136848379Y-123398605D01*
X136851571Y-123406312D01*
X136890000Y-123599507D01*
X136890000Y-123796493D01*
X136869597Y-123899066D01*
X136851571Y-123989689D01*
X136776189Y-124171678D01*
X136666751Y-124335463D01*
X136527463Y-124474751D01*
X136363678Y-124584189D01*
X136200051Y-124651965D01*
X136178449Y-124663512D01*
X136159507Y-124679057D01*
X136143961Y-124697999D01*
X136132410Y-124719610D01*
X136125297Y-124743059D01*
X136122895Y-124767445D01*
X136125297Y-124791831D01*
X136132410Y-124815280D01*
X136143961Y-124836890D01*
X136159506Y-124855832D01*
X136178448Y-124871378D01*
X136211607Y-124887061D01*
X136236082Y-124894486D01*
X136392431Y-124978056D01*
X136529475Y-125090525D01*
X136641944Y-125227569D01*
X136725512Y-125383914D01*
X136776978Y-125553573D01*
X136794354Y-125730000D01*
X136776978Y-125906427D01*
X136725513Y-126076084D01*
X136700768Y-126122379D01*
X136691391Y-126145017D01*
X136686611Y-126169051D01*
X136686611Y-126193555D01*
X136691392Y-126217588D01*
X136700769Y-126240227D01*
X136714382Y-126260600D01*
X136724192Y-126272554D01*
X136759943Y-126339439D01*
X136781961Y-126412022D01*
X136790000Y-126493641D01*
X136790000Y-127506359D01*
X136781961Y-127587978D01*
X136759943Y-127660561D01*
X136724192Y-127727446D01*
X136676077Y-127786077D01*
X136617446Y-127834192D01*
X136550561Y-127869943D01*
X136477978Y-127891961D01*
X136396359Y-127900000D01*
X135383641Y-127900000D01*
X135302022Y-127891961D01*
X135229439Y-127869943D01*
X135162554Y-127834192D01*
X135103923Y-127786077D01*
X135055808Y-127727446D01*
X135020057Y-127660561D01*
X134998039Y-127587978D01*
X134990000Y-127506359D01*
X134990000Y-126493641D01*
X134998039Y-126412022D01*
X135020057Y-126339439D01*
X135055808Y-126272554D01*
X135065618Y-126260600D01*
X135079232Y-126240226D01*
X135088609Y-126217587D01*
X135093389Y-126193554D01*
X135093389Y-126169049D01*
X135088608Y-126145016D01*
X135079232Y-126122379D01*
X135054487Y-126076084D01*
X135003022Y-125906427D01*
X134985646Y-125730000D01*
X135003022Y-125553573D01*
X135054488Y-125383914D01*
X135138056Y-125227569D01*
X135250525Y-125090525D01*
X135387569Y-124978056D01*
X135543918Y-124894486D01*
X135568393Y-124887061D01*
X135591031Y-124877684D01*
X135611406Y-124864070D01*
X135628732Y-124846742D01*
X135642346Y-124826368D01*
X135651723Y-124803729D01*
X135656503Y-124779696D01*
X135656503Y-124755191D01*
X135651722Y-124731158D01*
X135642345Y-124708520D01*
X135628731Y-124688145D01*
X135611403Y-124670819D01*
X135579946Y-124651964D01*
X135416322Y-124584189D01*
X135252537Y-124474751D01*
X135113249Y-124335463D01*
X135003811Y-124171678D01*
X134928429Y-123989689D01*
X134926226Y-123978612D01*
X134919113Y-123955164D01*
X134907562Y-123933553D01*
X134892017Y-123914611D01*
X134873075Y-123899066D01*
X134851464Y-123887515D01*
X134828015Y-123880402D01*
X134803629Y-123878000D01*
X133950000Y-123878000D01*
X133950000Y-122328000D01*
X134750000Y-122328000D01*
X134750000Y-123208665D01*
X134750000Y-123208665D01*
G37*
G36*
X133526427Y-124843022D02*
G01*
X133526430Y-124843023D01*
X133526431Y-124843023D01*
X133696081Y-124894486D01*
X133696083Y-124894487D01*
X133696086Y-124894488D01*
X133852431Y-124978056D01*
X133989475Y-125090525D01*
X134101944Y-125227569D01*
X134185512Y-125383914D01*
X134236978Y-125553573D01*
X134254354Y-125730000D01*
X134236978Y-125906427D01*
X134185513Y-126076084D01*
X134160768Y-126122379D01*
X134151391Y-126145017D01*
X134146611Y-126169051D01*
X134146611Y-126193555D01*
X134151392Y-126217588D01*
X134160769Y-126240227D01*
X134174382Y-126260600D01*
X134184192Y-126272554D01*
X134219943Y-126339439D01*
X134241961Y-126412022D01*
X134250000Y-126493641D01*
X134250000Y-127506359D01*
X134241961Y-127587978D01*
X134219943Y-127660561D01*
X134184192Y-127727446D01*
X134136077Y-127786077D01*
X134077446Y-127834192D01*
X134010561Y-127869943D01*
X133937978Y-127891961D01*
X133856359Y-127900000D01*
X132843641Y-127900000D01*
X132762022Y-127891961D01*
X132689439Y-127869943D01*
X132622554Y-127834192D01*
X132563923Y-127786077D01*
X132515808Y-127727446D01*
X132480057Y-127660561D01*
X132458039Y-127587978D01*
X132450000Y-127506359D01*
X132450000Y-126493641D01*
X132458039Y-126412022D01*
X132480057Y-126339439D01*
X132515808Y-126272554D01*
X132525618Y-126260600D01*
X132539232Y-126240226D01*
X132548609Y-126217587D01*
X132553389Y-126193554D01*
X132553389Y-126169049D01*
X132548608Y-126145016D01*
X132539232Y-126122379D01*
X132514487Y-126076084D01*
X132463022Y-125906427D01*
X132445646Y-125730000D01*
X132463022Y-125553573D01*
X132514488Y-125383914D01*
X132598056Y-125227569D01*
X132710525Y-125090525D01*
X132847569Y-124978056D01*
X133003914Y-124894488D01*
X133003917Y-124894487D01*
X133003919Y-124894486D01*
X133173569Y-124843023D01*
X133173570Y-124843023D01*
X133173573Y-124843022D01*
X133305789Y-124830000D01*
X133394211Y-124830000D01*
X133526427Y-124843022D01*
X133526427Y-124843022D01*
G37*
G36*
X125906427Y-124843022D02*
G01*
X125906430Y-124843023D01*
X125906431Y-124843023D01*
X126076081Y-124894486D01*
X126076083Y-124894487D01*
X126076086Y-124894488D01*
X126232431Y-124978056D01*
X126369475Y-125090525D01*
X126481944Y-125227569D01*
X126565512Y-125383914D01*
X126616978Y-125553573D01*
X126634354Y-125730000D01*
X126616978Y-125906427D01*
X126565513Y-126076084D01*
X126540768Y-126122379D01*
X126531391Y-126145017D01*
X126526611Y-126169051D01*
X126526611Y-126193555D01*
X126531392Y-126217588D01*
X126540769Y-126240227D01*
X126554382Y-126260600D01*
X126564192Y-126272554D01*
X126599943Y-126339439D01*
X126621961Y-126412022D01*
X126630000Y-126493641D01*
X126630000Y-127506359D01*
X126621961Y-127587978D01*
X126599943Y-127660561D01*
X126564192Y-127727446D01*
X126516077Y-127786077D01*
X126457446Y-127834192D01*
X126390561Y-127869943D01*
X126317978Y-127891961D01*
X126236359Y-127900000D01*
X125223641Y-127900000D01*
X125142022Y-127891961D01*
X125069439Y-127869943D01*
X125002554Y-127834192D01*
X124943923Y-127786077D01*
X124895808Y-127727446D01*
X124860057Y-127660561D01*
X124838039Y-127587978D01*
X124830000Y-127506359D01*
X124830000Y-126493641D01*
X124838039Y-126412022D01*
X124860057Y-126339439D01*
X124895808Y-126272554D01*
X124905618Y-126260600D01*
X124919232Y-126240226D01*
X124928609Y-126217587D01*
X124933389Y-126193554D01*
X124933389Y-126169049D01*
X124928608Y-126145016D01*
X124919232Y-126122379D01*
X124894487Y-126076084D01*
X124843022Y-125906427D01*
X124825646Y-125730000D01*
X124843022Y-125553573D01*
X124894488Y-125383914D01*
X124978056Y-125227569D01*
X125090525Y-125090525D01*
X125227569Y-124978056D01*
X125383914Y-124894488D01*
X125383917Y-124894487D01*
X125383919Y-124894486D01*
X125553569Y-124843023D01*
X125553570Y-124843023D01*
X125553573Y-124843022D01*
X125685789Y-124830000D01*
X125774211Y-124830000D01*
X125906427Y-124843022D01*
X125906427Y-124843022D01*
G37*
G36*
X108126427Y-124843022D02*
G01*
X108126430Y-124843023D01*
X108126431Y-124843023D01*
X108296081Y-124894486D01*
X108296083Y-124894487D01*
X108296086Y-124894488D01*
X108452431Y-124978056D01*
X108589475Y-125090525D01*
X108701944Y-125227569D01*
X108785512Y-125383914D01*
X108836978Y-125553573D01*
X108854354Y-125730000D01*
X108836978Y-125906427D01*
X108785513Y-126076084D01*
X108760768Y-126122379D01*
X108751391Y-126145017D01*
X108746611Y-126169051D01*
X108746611Y-126193555D01*
X108751392Y-126217588D01*
X108760769Y-126240227D01*
X108774382Y-126260600D01*
X108784192Y-126272554D01*
X108819943Y-126339439D01*
X108841961Y-126412022D01*
X108850000Y-126493641D01*
X108850000Y-127506359D01*
X108841961Y-127587978D01*
X108819943Y-127660561D01*
X108784192Y-127727446D01*
X108736077Y-127786077D01*
X108677446Y-127834192D01*
X108610561Y-127869943D01*
X108537978Y-127891961D01*
X108456359Y-127900000D01*
X107443641Y-127900000D01*
X107362022Y-127891961D01*
X107289439Y-127869943D01*
X107222554Y-127834192D01*
X107163923Y-127786077D01*
X107115808Y-127727446D01*
X107080057Y-127660561D01*
X107058039Y-127587978D01*
X107050000Y-127506359D01*
X107050000Y-126493641D01*
X107058039Y-126412022D01*
X107080057Y-126339439D01*
X107115808Y-126272554D01*
X107125618Y-126260600D01*
X107139232Y-126240226D01*
X107148609Y-126217587D01*
X107153389Y-126193554D01*
X107153389Y-126169049D01*
X107148608Y-126145016D01*
X107139232Y-126122379D01*
X107114487Y-126076084D01*
X107063022Y-125906427D01*
X107045646Y-125730000D01*
X107063022Y-125553573D01*
X107114488Y-125383914D01*
X107198056Y-125227569D01*
X107310525Y-125090525D01*
X107447569Y-124978056D01*
X107603914Y-124894488D01*
X107603917Y-124894487D01*
X107603919Y-124894486D01*
X107773569Y-124843023D01*
X107773570Y-124843023D01*
X107773573Y-124843022D01*
X107905789Y-124830000D01*
X107994211Y-124830000D01*
X108126427Y-124843022D01*
X108126427Y-124843022D01*
G37*
G36*
X105586427Y-124843022D02*
G01*
X105586430Y-124843023D01*
X105586431Y-124843023D01*
X105756081Y-124894486D01*
X105756083Y-124894487D01*
X105756086Y-124894488D01*
X105912431Y-124978056D01*
X106049475Y-125090525D01*
X106161944Y-125227569D01*
X106245512Y-125383914D01*
X106296978Y-125553573D01*
X106314354Y-125730000D01*
X106296978Y-125906427D01*
X106245513Y-126076084D01*
X106220768Y-126122379D01*
X106211391Y-126145017D01*
X106206611Y-126169051D01*
X106206611Y-126193555D01*
X106211392Y-126217588D01*
X106220769Y-126240227D01*
X106234382Y-126260600D01*
X106244192Y-126272554D01*
X106279943Y-126339439D01*
X106301961Y-126412022D01*
X106310000Y-126493641D01*
X106310000Y-127506359D01*
X106301961Y-127587978D01*
X106279943Y-127660561D01*
X106244192Y-127727446D01*
X106196077Y-127786077D01*
X106137446Y-127834192D01*
X106070561Y-127869943D01*
X105997978Y-127891961D01*
X105916359Y-127900000D01*
X104903641Y-127900000D01*
X104822022Y-127891961D01*
X104749439Y-127869943D01*
X104682554Y-127834192D01*
X104623923Y-127786077D01*
X104575808Y-127727446D01*
X104540057Y-127660561D01*
X104518039Y-127587978D01*
X104510000Y-127506359D01*
X104510000Y-126493641D01*
X104518039Y-126412022D01*
X104540057Y-126339439D01*
X104575808Y-126272554D01*
X104585618Y-126260600D01*
X104599232Y-126240226D01*
X104608609Y-126217587D01*
X104613389Y-126193554D01*
X104613389Y-126169049D01*
X104608608Y-126145016D01*
X104599232Y-126122379D01*
X104574487Y-126076084D01*
X104523022Y-125906427D01*
X104505646Y-125730000D01*
X104523022Y-125553573D01*
X104574488Y-125383914D01*
X104658056Y-125227569D01*
X104770525Y-125090525D01*
X104907569Y-124978056D01*
X105063914Y-124894488D01*
X105063917Y-124894487D01*
X105063919Y-124894486D01*
X105233569Y-124843023D01*
X105233570Y-124843023D01*
X105233573Y-124843022D01*
X105365789Y-124830000D01*
X105454211Y-124830000D01*
X105586427Y-124843022D01*
X105586427Y-124843022D01*
G37*
G36*
X110666427Y-124843022D02*
G01*
X110666430Y-124843023D01*
X110666431Y-124843023D01*
X110836081Y-124894486D01*
X110836083Y-124894487D01*
X110836086Y-124894488D01*
X110992431Y-124978056D01*
X111129475Y-125090525D01*
X111241944Y-125227569D01*
X111325512Y-125383914D01*
X111376978Y-125553573D01*
X111394354Y-125730000D01*
X111376978Y-125906427D01*
X111325513Y-126076084D01*
X111300768Y-126122379D01*
X111291391Y-126145017D01*
X111286611Y-126169051D01*
X111286611Y-126193555D01*
X111291392Y-126217588D01*
X111300769Y-126240227D01*
X111314382Y-126260600D01*
X111324192Y-126272554D01*
X111359943Y-126339439D01*
X111381961Y-126412022D01*
X111390000Y-126493641D01*
X111390000Y-127506359D01*
X111381961Y-127587978D01*
X111359943Y-127660561D01*
X111324192Y-127727446D01*
X111276077Y-127786077D01*
X111217446Y-127834192D01*
X111150561Y-127869943D01*
X111077978Y-127891961D01*
X110996359Y-127900000D01*
X109983641Y-127900000D01*
X109902022Y-127891961D01*
X109829439Y-127869943D01*
X109762554Y-127834192D01*
X109703923Y-127786077D01*
X109655808Y-127727446D01*
X109620057Y-127660561D01*
X109598039Y-127587978D01*
X109590000Y-127506359D01*
X109590000Y-126493641D01*
X109598039Y-126412022D01*
X109620057Y-126339439D01*
X109655808Y-126272554D01*
X109665618Y-126260600D01*
X109679232Y-126240226D01*
X109688609Y-126217587D01*
X109693389Y-126193554D01*
X109693389Y-126169049D01*
X109688608Y-126145016D01*
X109679232Y-126122379D01*
X109654487Y-126076084D01*
X109603022Y-125906427D01*
X109585646Y-125730000D01*
X109603022Y-125553573D01*
X109654488Y-125383914D01*
X109738056Y-125227569D01*
X109850525Y-125090525D01*
X109987569Y-124978056D01*
X110143914Y-124894488D01*
X110143917Y-124894487D01*
X110143919Y-124894486D01*
X110313569Y-124843023D01*
X110313570Y-124843023D01*
X110313573Y-124843022D01*
X110445789Y-124830000D01*
X110534211Y-124830000D01*
X110666427Y-124843022D01*
X110666427Y-124843022D01*
G37*
G36*
X120826427Y-124843022D02*
G01*
X120826430Y-124843023D01*
X120826431Y-124843023D01*
X120996081Y-124894486D01*
X120996083Y-124894487D01*
X120996086Y-124894488D01*
X121152431Y-124978056D01*
X121289475Y-125090525D01*
X121401944Y-125227569D01*
X121485512Y-125383914D01*
X121536978Y-125553573D01*
X121554354Y-125730000D01*
X121536978Y-125906427D01*
X121485513Y-126076084D01*
X121460768Y-126122379D01*
X121451391Y-126145017D01*
X121446611Y-126169051D01*
X121446611Y-126193555D01*
X121451392Y-126217588D01*
X121460769Y-126240227D01*
X121474382Y-126260600D01*
X121484192Y-126272554D01*
X121519943Y-126339439D01*
X121541961Y-126412022D01*
X121550000Y-126493641D01*
X121550000Y-127506359D01*
X121541961Y-127587978D01*
X121519943Y-127660561D01*
X121484192Y-127727446D01*
X121436077Y-127786077D01*
X121377446Y-127834192D01*
X121310561Y-127869943D01*
X121237978Y-127891961D01*
X121156359Y-127900000D01*
X120143641Y-127900000D01*
X120062022Y-127891961D01*
X119989439Y-127869943D01*
X119922554Y-127834192D01*
X119863923Y-127786077D01*
X119815808Y-127727446D01*
X119780057Y-127660561D01*
X119758039Y-127587978D01*
X119750000Y-127506359D01*
X119750000Y-126493641D01*
X119758039Y-126412022D01*
X119780057Y-126339439D01*
X119815808Y-126272554D01*
X119825618Y-126260600D01*
X119839232Y-126240226D01*
X119848609Y-126217587D01*
X119853389Y-126193554D01*
X119853389Y-126169049D01*
X119848608Y-126145016D01*
X119839232Y-126122379D01*
X119814487Y-126076084D01*
X119763022Y-125906427D01*
X119745646Y-125730000D01*
X119763022Y-125553573D01*
X119814488Y-125383914D01*
X119898056Y-125227569D01*
X120010525Y-125090525D01*
X120147569Y-124978056D01*
X120303914Y-124894488D01*
X120303917Y-124894487D01*
X120303919Y-124894486D01*
X120473569Y-124843023D01*
X120473570Y-124843023D01*
X120473573Y-124843022D01*
X120605789Y-124830000D01*
X120694211Y-124830000D01*
X120826427Y-124843022D01*
X120826427Y-124843022D01*
G37*
G36*
X128446427Y-124843022D02*
G01*
X128446430Y-124843023D01*
X128446431Y-124843023D01*
X128616081Y-124894486D01*
X128616083Y-124894487D01*
X128616086Y-124894488D01*
X128772431Y-124978056D01*
X128909475Y-125090525D01*
X129021944Y-125227569D01*
X129105512Y-125383914D01*
X129156978Y-125553573D01*
X129174354Y-125730000D01*
X129156978Y-125906427D01*
X129105513Y-126076084D01*
X129080768Y-126122379D01*
X129071391Y-126145017D01*
X129066611Y-126169051D01*
X129066611Y-126193555D01*
X129071392Y-126217588D01*
X129080769Y-126240227D01*
X129094382Y-126260600D01*
X129104192Y-126272554D01*
X129139943Y-126339439D01*
X129161961Y-126412022D01*
X129170000Y-126493641D01*
X129170000Y-127506359D01*
X129161961Y-127587978D01*
X129139943Y-127660561D01*
X129104192Y-127727446D01*
X129056077Y-127786077D01*
X128997446Y-127834192D01*
X128930561Y-127869943D01*
X128857978Y-127891961D01*
X128776359Y-127900000D01*
X127763641Y-127900000D01*
X127682022Y-127891961D01*
X127609439Y-127869943D01*
X127542554Y-127834192D01*
X127483923Y-127786077D01*
X127435808Y-127727446D01*
X127400057Y-127660561D01*
X127378039Y-127587978D01*
X127370000Y-127506359D01*
X127370000Y-126493641D01*
X127378039Y-126412022D01*
X127400057Y-126339439D01*
X127435808Y-126272554D01*
X127445618Y-126260600D01*
X127459232Y-126240226D01*
X127468609Y-126217587D01*
X127473389Y-126193554D01*
X127473389Y-126169049D01*
X127468608Y-126145016D01*
X127459232Y-126122379D01*
X127434487Y-126076084D01*
X127383022Y-125906427D01*
X127365646Y-125730000D01*
X127383022Y-125553573D01*
X127434488Y-125383914D01*
X127518056Y-125227569D01*
X127630525Y-125090525D01*
X127767569Y-124978056D01*
X127923914Y-124894488D01*
X127923917Y-124894487D01*
X127923919Y-124894486D01*
X128093569Y-124843023D01*
X128093570Y-124843023D01*
X128093573Y-124843022D01*
X128225789Y-124830000D01*
X128314211Y-124830000D01*
X128446427Y-124843022D01*
X128446427Y-124843022D01*
G37*
G36*
X123366427Y-124843022D02*
G01*
X123366430Y-124843023D01*
X123366431Y-124843023D01*
X123536081Y-124894486D01*
X123536083Y-124894487D01*
X123536086Y-124894488D01*
X123692431Y-124978056D01*
X123829475Y-125090525D01*
X123941944Y-125227569D01*
X124025512Y-125383914D01*
X124076978Y-125553573D01*
X124094354Y-125730000D01*
X124076978Y-125906427D01*
X124025513Y-126076084D01*
X124000768Y-126122379D01*
X123991391Y-126145017D01*
X123986611Y-126169051D01*
X123986611Y-126193555D01*
X123991392Y-126217588D01*
X124000769Y-126240227D01*
X124014382Y-126260600D01*
X124024192Y-126272554D01*
X124059943Y-126339439D01*
X124081961Y-126412022D01*
X124090000Y-126493641D01*
X124090000Y-127506359D01*
X124081961Y-127587978D01*
X124059943Y-127660561D01*
X124024192Y-127727446D01*
X123976077Y-127786077D01*
X123917446Y-127834192D01*
X123850561Y-127869943D01*
X123777978Y-127891961D01*
X123696359Y-127900000D01*
X122683641Y-127900000D01*
X122602022Y-127891961D01*
X122529439Y-127869943D01*
X122462554Y-127834192D01*
X122403923Y-127786077D01*
X122355808Y-127727446D01*
X122320057Y-127660561D01*
X122298039Y-127587978D01*
X122290000Y-127506359D01*
X122290000Y-126493641D01*
X122298039Y-126412022D01*
X122320057Y-126339439D01*
X122355808Y-126272554D01*
X122365618Y-126260600D01*
X122379232Y-126240226D01*
X122388609Y-126217587D01*
X122393389Y-126193554D01*
X122393389Y-126169049D01*
X122388608Y-126145016D01*
X122379232Y-126122379D01*
X122354487Y-126076084D01*
X122303022Y-125906427D01*
X122285646Y-125730000D01*
X122303022Y-125553573D01*
X122354488Y-125383914D01*
X122438056Y-125227569D01*
X122550525Y-125090525D01*
X122687569Y-124978056D01*
X122843914Y-124894488D01*
X122843917Y-124894487D01*
X122843919Y-124894486D01*
X123013569Y-124843023D01*
X123013570Y-124843023D01*
X123013573Y-124843022D01*
X123145789Y-124830000D01*
X123234211Y-124830000D01*
X123366427Y-124843022D01*
X123366427Y-124843022D01*
G37*
G36*
X113206427Y-124843022D02*
G01*
X113206430Y-124843023D01*
X113206431Y-124843023D01*
X113376081Y-124894486D01*
X113376083Y-124894487D01*
X113376086Y-124894488D01*
X113532431Y-124978056D01*
X113669475Y-125090525D01*
X113781944Y-125227569D01*
X113865512Y-125383914D01*
X113916978Y-125553573D01*
X113934354Y-125730000D01*
X113916978Y-125906427D01*
X113865513Y-126076084D01*
X113840768Y-126122379D01*
X113831391Y-126145017D01*
X113826611Y-126169051D01*
X113826611Y-126193555D01*
X113831392Y-126217588D01*
X113840769Y-126240227D01*
X113854382Y-126260600D01*
X113864192Y-126272554D01*
X113899943Y-126339439D01*
X113921961Y-126412022D01*
X113930000Y-126493641D01*
X113930000Y-127506359D01*
X113921961Y-127587978D01*
X113899943Y-127660561D01*
X113864192Y-127727446D01*
X113816077Y-127786077D01*
X113757446Y-127834192D01*
X113690561Y-127869943D01*
X113617978Y-127891961D01*
X113536359Y-127900000D01*
X112523641Y-127900000D01*
X112442022Y-127891961D01*
X112369439Y-127869943D01*
X112302554Y-127834192D01*
X112243923Y-127786077D01*
X112195808Y-127727446D01*
X112160057Y-127660561D01*
X112138039Y-127587978D01*
X112130000Y-127506359D01*
X112130000Y-126493641D01*
X112138039Y-126412022D01*
X112160057Y-126339439D01*
X112195808Y-126272554D01*
X112205618Y-126260600D01*
X112219232Y-126240226D01*
X112228609Y-126217587D01*
X112233389Y-126193554D01*
X112233389Y-126169049D01*
X112228608Y-126145016D01*
X112219232Y-126122379D01*
X112194487Y-126076084D01*
X112143022Y-125906427D01*
X112125646Y-125730000D01*
X112143022Y-125553573D01*
X112194488Y-125383914D01*
X112278056Y-125227569D01*
X112390525Y-125090525D01*
X112527569Y-124978056D01*
X112683914Y-124894488D01*
X112683917Y-124894487D01*
X112683919Y-124894486D01*
X112853569Y-124843023D01*
X112853570Y-124843023D01*
X112853573Y-124843022D01*
X112985789Y-124830000D01*
X113074211Y-124830000D01*
X113206427Y-124843022D01*
X113206427Y-124843022D01*
G37*
G36*
X103770000Y-127506359D02*
G01*
X103761961Y-127587978D01*
X103739943Y-127660561D01*
X103704192Y-127727446D01*
X103656077Y-127786077D01*
X103597446Y-127834192D01*
X103530561Y-127869943D01*
X103457978Y-127891961D01*
X103376359Y-127900000D01*
X102363641Y-127900000D01*
X102282022Y-127891961D01*
X102209439Y-127869943D01*
X102142554Y-127834192D01*
X102083923Y-127786077D01*
X102035808Y-127727446D01*
X102000057Y-127660561D01*
X101978039Y-127587978D01*
X101970000Y-127506359D01*
X101970000Y-124830000D01*
X103770000Y-124830000D01*
X103770000Y-127506359D01*
X103770000Y-127506359D01*
G37*
G36*
X115746427Y-124843022D02*
G01*
X115746430Y-124843023D01*
X115746431Y-124843023D01*
X115916081Y-124894486D01*
X115916083Y-124894487D01*
X115916086Y-124894488D01*
X116072431Y-124978056D01*
X116209475Y-125090525D01*
X116321944Y-125227569D01*
X116405512Y-125383914D01*
X116456978Y-125553573D01*
X116474354Y-125730000D01*
X116456978Y-125906427D01*
X116405513Y-126076084D01*
X116380768Y-126122379D01*
X116371391Y-126145017D01*
X116366611Y-126169051D01*
X116366611Y-126193555D01*
X116371392Y-126217588D01*
X116380769Y-126240227D01*
X116394382Y-126260600D01*
X116404192Y-126272554D01*
X116439943Y-126339439D01*
X116461961Y-126412022D01*
X116470000Y-126493641D01*
X116470000Y-127506359D01*
X116461961Y-127587978D01*
X116439943Y-127660561D01*
X116404192Y-127727446D01*
X116356077Y-127786077D01*
X116297446Y-127834192D01*
X116230561Y-127869943D01*
X116157978Y-127891961D01*
X116076359Y-127900000D01*
X115063641Y-127900000D01*
X114982022Y-127891961D01*
X114909439Y-127869943D01*
X114842554Y-127834192D01*
X114783923Y-127786077D01*
X114735808Y-127727446D01*
X114700057Y-127660561D01*
X114678039Y-127587978D01*
X114670000Y-127506359D01*
X114670000Y-126493641D01*
X114678039Y-126412022D01*
X114700057Y-126339439D01*
X114735808Y-126272554D01*
X114745618Y-126260600D01*
X114759232Y-126240226D01*
X114768609Y-126217587D01*
X114773389Y-126193554D01*
X114773389Y-126169049D01*
X114768608Y-126145016D01*
X114759232Y-126122379D01*
X114734487Y-126076084D01*
X114683022Y-125906427D01*
X114665646Y-125730000D01*
X114683022Y-125553573D01*
X114734488Y-125383914D01*
X114818056Y-125227569D01*
X114930525Y-125090525D01*
X115067569Y-124978056D01*
X115223914Y-124894488D01*
X115223917Y-124894487D01*
X115223919Y-124894486D01*
X115393569Y-124843023D01*
X115393570Y-124843023D01*
X115393573Y-124843022D01*
X115525789Y-124830000D01*
X115614211Y-124830000D01*
X115746427Y-124843022D01*
X115746427Y-124843022D01*
G37*
G36*
X130986427Y-124843022D02*
G01*
X130986430Y-124843023D01*
X130986431Y-124843023D01*
X131156081Y-124894486D01*
X131156083Y-124894487D01*
X131156086Y-124894488D01*
X131312431Y-124978056D01*
X131449475Y-125090525D01*
X131561944Y-125227569D01*
X131645512Y-125383914D01*
X131696978Y-125553573D01*
X131714354Y-125730000D01*
X131696978Y-125906427D01*
X131645513Y-126076084D01*
X131620768Y-126122379D01*
X131611391Y-126145017D01*
X131606611Y-126169051D01*
X131606611Y-126193555D01*
X131611392Y-126217588D01*
X131620769Y-126240227D01*
X131634382Y-126260600D01*
X131644192Y-126272554D01*
X131679943Y-126339439D01*
X131701961Y-126412022D01*
X131710000Y-126493641D01*
X131710000Y-127506359D01*
X131701961Y-127587978D01*
X131679943Y-127660561D01*
X131644192Y-127727446D01*
X131596077Y-127786077D01*
X131537446Y-127834192D01*
X131470561Y-127869943D01*
X131397978Y-127891961D01*
X131316359Y-127900000D01*
X130303641Y-127900000D01*
X130222022Y-127891961D01*
X130149439Y-127869943D01*
X130082554Y-127834192D01*
X130023923Y-127786077D01*
X129975808Y-127727446D01*
X129940057Y-127660561D01*
X129918039Y-127587978D01*
X129910000Y-127506359D01*
X129910000Y-126493641D01*
X129918039Y-126412022D01*
X129940057Y-126339439D01*
X129975808Y-126272554D01*
X129985618Y-126260600D01*
X129999232Y-126240226D01*
X130008609Y-126217587D01*
X130013389Y-126193554D01*
X130013389Y-126169049D01*
X130008608Y-126145016D01*
X129999232Y-126122379D01*
X129974487Y-126076084D01*
X129923022Y-125906427D01*
X129905646Y-125730000D01*
X129923022Y-125553573D01*
X129974488Y-125383914D01*
X130058056Y-125227569D01*
X130170525Y-125090525D01*
X130307569Y-124978056D01*
X130463914Y-124894488D01*
X130463917Y-124894487D01*
X130463919Y-124894486D01*
X130633569Y-124843023D01*
X130633570Y-124843023D01*
X130633573Y-124843022D01*
X130765789Y-124830000D01*
X130854211Y-124830000D01*
X130986427Y-124843022D01*
X130986427Y-124843022D01*
G37*
G36*
X118286427Y-124843022D02*
G01*
X118286430Y-124843023D01*
X118286431Y-124843023D01*
X118456081Y-124894486D01*
X118456083Y-124894487D01*
X118456086Y-124894488D01*
X118612431Y-124978056D01*
X118749475Y-125090525D01*
X118861944Y-125227569D01*
X118945512Y-125383914D01*
X118996978Y-125553573D01*
X119014354Y-125730000D01*
X118996978Y-125906427D01*
X118945513Y-126076084D01*
X118920768Y-126122379D01*
X118911391Y-126145017D01*
X118906611Y-126169051D01*
X118906611Y-126193555D01*
X118911392Y-126217588D01*
X118920769Y-126240227D01*
X118934382Y-126260600D01*
X118944192Y-126272554D01*
X118979943Y-126339439D01*
X119001961Y-126412022D01*
X119010000Y-126493641D01*
X119010000Y-127506359D01*
X119001961Y-127587978D01*
X118979943Y-127660561D01*
X118944192Y-127727446D01*
X118896077Y-127786077D01*
X118837446Y-127834192D01*
X118770561Y-127869943D01*
X118697978Y-127891961D01*
X118616359Y-127900000D01*
X117603641Y-127900000D01*
X117522022Y-127891961D01*
X117449439Y-127869943D01*
X117382554Y-127834192D01*
X117323923Y-127786077D01*
X117275808Y-127727446D01*
X117240057Y-127660561D01*
X117218039Y-127587978D01*
X117210000Y-127506359D01*
X117210000Y-126493641D01*
X117218039Y-126412022D01*
X117240057Y-126339439D01*
X117275808Y-126272554D01*
X117285618Y-126260600D01*
X117299232Y-126240226D01*
X117308609Y-126217587D01*
X117313389Y-126193554D01*
X117313389Y-126169049D01*
X117308608Y-126145016D01*
X117299232Y-126122379D01*
X117274487Y-126076084D01*
X117223022Y-125906427D01*
X117205646Y-125730000D01*
X117223022Y-125553573D01*
X117274488Y-125383914D01*
X117358056Y-125227569D01*
X117470525Y-125090525D01*
X117607569Y-124978056D01*
X117763914Y-124894488D01*
X117763917Y-124894487D01*
X117763919Y-124894486D01*
X117933569Y-124843023D01*
X117933570Y-124843023D01*
X117933573Y-124843022D01*
X118065789Y-124830000D01*
X118154211Y-124830000D01*
X118286427Y-124843022D01*
X118286427Y-124843022D01*
G37*
G36*
X132750000Y-123878000D02*
G01*
X131950000Y-123878000D01*
X131950000Y-122328000D01*
X132750000Y-122328000D01*
X132750000Y-123878000D01*
X132750000Y-123878000D01*
G37*
G36*
X103680203Y-122964946D02*
G01*
X103700723Y-122971171D01*
X103719636Y-122981280D01*
X103736214Y-122994886D01*
X103749820Y-123011464D01*
X103759929Y-123030377D01*
X103766154Y-123050897D01*
X103768860Y-123078378D01*
X103768860Y-123586102D01*
X103766154Y-123613583D01*
X103759929Y-123634103D01*
X103749820Y-123653016D01*
X103736214Y-123669594D01*
X103719636Y-123683200D01*
X103700723Y-123693309D01*
X103680203Y-123699534D01*
X103652722Y-123702240D01*
X103194998Y-123702240D01*
X103167517Y-123699534D01*
X103146997Y-123693309D01*
X103128084Y-123683200D01*
X103111506Y-123669594D01*
X103097900Y-123653016D01*
X103087791Y-123634103D01*
X103081566Y-123613583D01*
X103078860Y-123586102D01*
X103078860Y-123078378D01*
X103081566Y-123050897D01*
X103087791Y-123030377D01*
X103097900Y-123011464D01*
X103111506Y-122994886D01*
X103128084Y-122981280D01*
X103146997Y-122971171D01*
X103167517Y-122964946D01*
X103194998Y-122962240D01*
X103652722Y-122962240D01*
X103680203Y-122964946D01*
X103680203Y-122964946D01*
G37*
G36*
X104650203Y-122964946D02*
G01*
X104670723Y-122971171D01*
X104689636Y-122981280D01*
X104706214Y-122994886D01*
X104719820Y-123011464D01*
X104729929Y-123030377D01*
X104736154Y-123050897D01*
X104738860Y-123078378D01*
X104738860Y-123586102D01*
X104736154Y-123613583D01*
X104729929Y-123634103D01*
X104719820Y-123653016D01*
X104706214Y-123669594D01*
X104689636Y-123683200D01*
X104670723Y-123693309D01*
X104650203Y-123699534D01*
X104622722Y-123702240D01*
X104164998Y-123702240D01*
X104137517Y-123699534D01*
X104116997Y-123693309D01*
X104098084Y-123683200D01*
X104081506Y-123669594D01*
X104067900Y-123653016D01*
X104057791Y-123634103D01*
X104051566Y-123613583D01*
X104048860Y-123586102D01*
X104048860Y-123078378D01*
X104051566Y-123050897D01*
X104057791Y-123030377D01*
X104067900Y-123011464D01*
X104081506Y-122994886D01*
X104098084Y-122981280D01*
X104116997Y-122971171D01*
X104137517Y-122964946D01*
X104164998Y-122962240D01*
X104622722Y-122962240D01*
X104650203Y-122964946D01*
X104650203Y-122964946D01*
G37*
G36*
X117837880Y-123620140D02*
G01*
X116537880Y-123620140D01*
X116537880Y-122120140D01*
X117837880Y-122120140D01*
X117837880Y-123620140D01*
X117837880Y-123620140D01*
G37*
G36*
X116237880Y-123620140D02*
G01*
X114937880Y-123620140D01*
X114937880Y-122120140D01*
X116237880Y-122120140D01*
X116237880Y-123620140D01*
X116237880Y-123620140D01*
G37*
G36*
X120080023Y-122664626D02*
G01*
X120100543Y-122670851D01*
X120119456Y-122680960D01*
X120136034Y-122694566D01*
X120149640Y-122711144D01*
X120159749Y-122730057D01*
X120165974Y-122750577D01*
X120168680Y-122778058D01*
X120168680Y-123285782D01*
X120165974Y-123313263D01*
X120159749Y-123333783D01*
X120149640Y-123352696D01*
X120136034Y-123369274D01*
X120119456Y-123382880D01*
X120100543Y-123392989D01*
X120080023Y-123399214D01*
X120052542Y-123401920D01*
X119594818Y-123401920D01*
X119567337Y-123399214D01*
X119546817Y-123392989D01*
X119527904Y-123382880D01*
X119511326Y-123369274D01*
X119497720Y-123352696D01*
X119487611Y-123333783D01*
X119481386Y-123313263D01*
X119478680Y-123285782D01*
X119478680Y-122778058D01*
X119481386Y-122750577D01*
X119487611Y-122730057D01*
X119497720Y-122711144D01*
X119511326Y-122694566D01*
X119527904Y-122680960D01*
X119546817Y-122670851D01*
X119567337Y-122664626D01*
X119594818Y-122661920D01*
X120052542Y-122661920D01*
X120080023Y-122664626D01*
X120080023Y-122664626D01*
G37*
G36*
X119110023Y-122664626D02*
G01*
X119130543Y-122670851D01*
X119149456Y-122680960D01*
X119166034Y-122694566D01*
X119179640Y-122711144D01*
X119189749Y-122730057D01*
X119195974Y-122750577D01*
X119198680Y-122778058D01*
X119198680Y-123285782D01*
X119195974Y-123313263D01*
X119189749Y-123333783D01*
X119179640Y-123352696D01*
X119166034Y-123369274D01*
X119149456Y-123382880D01*
X119130543Y-123392989D01*
X119110023Y-123399214D01*
X119082542Y-123401920D01*
X118624818Y-123401920D01*
X118597337Y-123399214D01*
X118576817Y-123392989D01*
X118557904Y-123382880D01*
X118541326Y-123369274D01*
X118527720Y-123352696D01*
X118517611Y-123333783D01*
X118511386Y-123313263D01*
X118508680Y-123285782D01*
X118508680Y-122778058D01*
X118511386Y-122750577D01*
X118517611Y-122730057D01*
X118527720Y-122711144D01*
X118541326Y-122694566D01*
X118557904Y-122680960D01*
X118576817Y-122670851D01*
X118597337Y-122664626D01*
X118624818Y-122661920D01*
X119082542Y-122661920D01*
X119110023Y-122664626D01*
X119110023Y-122664626D01*
G37*
G36*
X123976803Y-122695166D02*
G01*
X123997323Y-122701391D01*
X124016236Y-122711500D01*
X124032814Y-122725106D01*
X124046420Y-122741684D01*
X124056529Y-122760597D01*
X124062754Y-122781117D01*
X124065460Y-122808598D01*
X124065460Y-123266322D01*
X124062754Y-123293803D01*
X124056529Y-123314323D01*
X124046420Y-123333236D01*
X124032814Y-123349814D01*
X124016236Y-123363420D01*
X123997323Y-123373529D01*
X123976803Y-123379754D01*
X123949322Y-123382460D01*
X123441598Y-123382460D01*
X123414117Y-123379754D01*
X123393597Y-123373529D01*
X123374684Y-123363420D01*
X123358106Y-123349814D01*
X123344500Y-123333236D01*
X123334391Y-123314323D01*
X123328166Y-123293803D01*
X123325460Y-123266322D01*
X123325460Y-122808598D01*
X123328166Y-122781117D01*
X123334391Y-122760597D01*
X123344500Y-122741684D01*
X123358106Y-122725106D01*
X123374684Y-122711500D01*
X123393597Y-122701391D01*
X123414117Y-122695166D01*
X123441598Y-122692460D01*
X123949322Y-122692460D01*
X123976803Y-122695166D01*
X123976803Y-122695166D01*
G37*
G36*
X126900343Y-122677386D02*
G01*
X126920863Y-122683611D01*
X126939776Y-122693720D01*
X126956354Y-122707326D01*
X126969960Y-122723904D01*
X126980069Y-122742817D01*
X126986294Y-122763337D01*
X126989000Y-122790818D01*
X126989000Y-123248542D01*
X126986294Y-123276023D01*
X126980069Y-123296543D01*
X126969960Y-123315456D01*
X126956354Y-123332034D01*
X126939776Y-123345640D01*
X126920863Y-123355749D01*
X126900343Y-123361974D01*
X126872862Y-123364680D01*
X126365138Y-123364680D01*
X126337657Y-123361974D01*
X126317137Y-123355749D01*
X126298224Y-123345640D01*
X126281646Y-123332034D01*
X126268040Y-123315456D01*
X126257931Y-123296543D01*
X126251706Y-123276023D01*
X126249000Y-123248542D01*
X126249000Y-122790818D01*
X126251706Y-122763337D01*
X126257931Y-122742817D01*
X126268040Y-122723904D01*
X126281646Y-122707326D01*
X126298224Y-122693720D01*
X126317137Y-122683611D01*
X126337657Y-122677386D01*
X126365138Y-122674680D01*
X126872862Y-122674680D01*
X126900343Y-122677386D01*
X126900343Y-122677386D01*
G37*
G36*
X109341000Y-123322660D02*
G01*
X108591000Y-123322660D01*
X108591000Y-121522660D01*
X109341000Y-121522660D01*
X109341000Y-123322660D01*
X109341000Y-123322660D01*
G37*
G36*
X110611000Y-123322660D02*
G01*
X109861000Y-123322660D01*
X109861000Y-121522660D01*
X110611000Y-121522660D01*
X110611000Y-123322660D01*
X110611000Y-123322660D01*
G37*
G36*
X111881000Y-123322660D02*
G01*
X111131000Y-123322660D01*
X111131000Y-121522660D01*
X111881000Y-121522660D01*
X111881000Y-123322660D01*
X111881000Y-123322660D01*
G37*
G36*
X113151000Y-123322660D02*
G01*
X112401000Y-123322660D01*
X112401000Y-121522660D01*
X113151000Y-121522660D01*
X113151000Y-123322660D01*
X113151000Y-123322660D01*
G37*
G36*
X104650203Y-121951486D02*
G01*
X104670723Y-121957711D01*
X104689636Y-121967820D01*
X104706214Y-121981426D01*
X104719820Y-121998004D01*
X104729929Y-122016917D01*
X104736154Y-122037437D01*
X104738860Y-122064918D01*
X104738860Y-122572642D01*
X104736154Y-122600123D01*
X104729929Y-122620643D01*
X104719820Y-122639556D01*
X104706214Y-122656134D01*
X104689636Y-122669740D01*
X104670723Y-122679849D01*
X104650203Y-122686074D01*
X104622722Y-122688780D01*
X104164998Y-122688780D01*
X104137517Y-122686074D01*
X104116997Y-122679849D01*
X104098084Y-122669740D01*
X104081506Y-122656134D01*
X104067900Y-122639556D01*
X104057791Y-122620643D01*
X104051566Y-122600123D01*
X104048860Y-122572642D01*
X104048860Y-122064918D01*
X104051566Y-122037437D01*
X104057791Y-122016917D01*
X104067900Y-121998004D01*
X104081506Y-121981426D01*
X104098084Y-121967820D01*
X104116997Y-121957711D01*
X104137517Y-121951486D01*
X104164998Y-121948780D01*
X104622722Y-121948780D01*
X104650203Y-121951486D01*
X104650203Y-121951486D01*
G37*
G36*
X103680203Y-121951486D02*
G01*
X103700723Y-121957711D01*
X103719636Y-121967820D01*
X103736214Y-121981426D01*
X103749820Y-121998004D01*
X103759929Y-122016917D01*
X103766154Y-122037437D01*
X103768860Y-122064918D01*
X103768860Y-122572642D01*
X103766154Y-122600123D01*
X103759929Y-122620643D01*
X103749820Y-122639556D01*
X103736214Y-122656134D01*
X103719636Y-122669740D01*
X103700723Y-122679849D01*
X103680203Y-122686074D01*
X103652722Y-122688780D01*
X103194998Y-122688780D01*
X103167517Y-122686074D01*
X103146997Y-122679849D01*
X103128084Y-122669740D01*
X103111506Y-122656134D01*
X103097900Y-122639556D01*
X103087791Y-122620643D01*
X103081566Y-122600123D01*
X103078860Y-122572642D01*
X103078860Y-122064918D01*
X103081566Y-122037437D01*
X103087791Y-122016917D01*
X103097900Y-121998004D01*
X103111506Y-121981426D01*
X103128084Y-121967820D01*
X103146997Y-121957711D01*
X103167517Y-121951486D01*
X103194998Y-121948780D01*
X103652722Y-121948780D01*
X103680203Y-121951486D01*
X103680203Y-121951486D01*
G37*
G36*
X123976803Y-121725166D02*
G01*
X123997323Y-121731391D01*
X124016236Y-121741500D01*
X124032814Y-121755106D01*
X124046420Y-121771684D01*
X124056529Y-121790597D01*
X124062754Y-121811117D01*
X124065460Y-121838598D01*
X124065460Y-122296322D01*
X124062754Y-122323803D01*
X124056529Y-122344323D01*
X124046420Y-122363236D01*
X124032814Y-122379814D01*
X124016236Y-122393420D01*
X123997323Y-122403529D01*
X123976803Y-122409754D01*
X123949322Y-122412460D01*
X123441598Y-122412460D01*
X123414117Y-122409754D01*
X123393597Y-122403529D01*
X123374684Y-122393420D01*
X123358106Y-122379814D01*
X123344500Y-122363236D01*
X123334391Y-122344323D01*
X123328166Y-122323803D01*
X123325460Y-122296322D01*
X123325460Y-121838598D01*
X123328166Y-121811117D01*
X123334391Y-121790597D01*
X123344500Y-121771684D01*
X123358106Y-121755106D01*
X123374684Y-121741500D01*
X123393597Y-121731391D01*
X123414117Y-121725166D01*
X123441598Y-121722460D01*
X123949322Y-121722460D01*
X123976803Y-121725166D01*
X123976803Y-121725166D01*
G37*
G36*
X126900343Y-121707386D02*
G01*
X126920863Y-121713611D01*
X126939776Y-121723720D01*
X126956354Y-121737326D01*
X126969960Y-121753904D01*
X126980069Y-121772817D01*
X126986294Y-121793337D01*
X126989000Y-121820818D01*
X126989000Y-122278542D01*
X126986294Y-122306023D01*
X126980069Y-122326543D01*
X126969960Y-122345456D01*
X126956354Y-122362034D01*
X126939776Y-122375640D01*
X126920863Y-122385749D01*
X126900343Y-122391974D01*
X126872862Y-122394680D01*
X126365138Y-122394680D01*
X126337657Y-122391974D01*
X126317137Y-122385749D01*
X126298224Y-122375640D01*
X126281646Y-122362034D01*
X126268040Y-122345456D01*
X126257931Y-122326543D01*
X126251706Y-122306023D01*
X126249000Y-122278542D01*
X126249000Y-121820818D01*
X126251706Y-121793337D01*
X126257931Y-121772817D01*
X126268040Y-121753904D01*
X126281646Y-121737326D01*
X126298224Y-121723720D01*
X126317137Y-121713611D01*
X126337657Y-121707386D01*
X126365138Y-121704680D01*
X126872862Y-121704680D01*
X126900343Y-121707386D01*
X126900343Y-121707386D01*
G37*
G36*
X116237880Y-121420140D02*
G01*
X114937880Y-121420140D01*
X114937880Y-119920140D01*
X116237880Y-119920140D01*
X116237880Y-121420140D01*
X116237880Y-121420140D01*
G37*
G36*
X117837880Y-121420140D02*
G01*
X116537880Y-121420140D01*
X116537880Y-119920140D01*
X117837880Y-119920140D01*
X117837880Y-121420140D01*
X117837880Y-121420140D01*
G37*
G36*
X105802220Y-121416200D02*
G01*
X104642220Y-121416200D01*
X104642220Y-120666200D01*
X105802220Y-120666200D01*
X105802220Y-121416200D01*
X105802220Y-121416200D01*
G37*
G36*
X103602220Y-121416200D02*
G01*
X102442220Y-121416200D01*
X102442220Y-118766200D01*
X103602220Y-118766200D01*
X103602220Y-121416200D01*
X103602220Y-121416200D01*
G37*
G36*
X122239803Y-114535573D02*
G01*
X122243092Y-114536571D01*
X122263690Y-114545104D01*
X122287723Y-114549886D01*
X122312227Y-114549887D01*
X122336261Y-114545107D01*
X122356867Y-114536571D01*
X122360157Y-114535573D01*
X122368620Y-114534740D01*
X122631340Y-114534740D01*
X122639803Y-114535573D01*
X122643092Y-114536571D01*
X122663690Y-114545104D01*
X122687723Y-114549886D01*
X122712227Y-114549887D01*
X122736261Y-114545107D01*
X122756867Y-114536571D01*
X122760157Y-114535573D01*
X122768620Y-114534740D01*
X123031340Y-114534740D01*
X123039803Y-114535573D01*
X123043092Y-114536571D01*
X123063690Y-114545104D01*
X123087723Y-114549886D01*
X123112227Y-114549887D01*
X123136261Y-114545107D01*
X123156867Y-114536571D01*
X123160157Y-114535573D01*
X123168620Y-114534740D01*
X123431340Y-114534740D01*
X123439803Y-114535573D01*
X123443092Y-114536571D01*
X123463690Y-114545104D01*
X123487723Y-114549886D01*
X123512227Y-114549887D01*
X123536261Y-114545107D01*
X123556867Y-114536571D01*
X123560157Y-114535573D01*
X123568620Y-114534740D01*
X123831340Y-114534740D01*
X123839803Y-114535573D01*
X123843092Y-114536571D01*
X123863690Y-114545104D01*
X123887723Y-114549886D01*
X123912227Y-114549887D01*
X123936261Y-114545107D01*
X123956867Y-114536571D01*
X123960157Y-114535573D01*
X123968620Y-114534740D01*
X124231340Y-114534740D01*
X124239803Y-114535573D01*
X124243092Y-114536571D01*
X124263690Y-114545104D01*
X124287723Y-114549886D01*
X124312227Y-114549887D01*
X124336261Y-114545107D01*
X124356867Y-114536571D01*
X124360157Y-114535573D01*
X124368620Y-114534740D01*
X124631340Y-114534740D01*
X124639803Y-114535573D01*
X124643092Y-114536571D01*
X124663690Y-114545104D01*
X124687723Y-114549886D01*
X124712227Y-114549887D01*
X124736261Y-114545107D01*
X124756867Y-114536571D01*
X124760157Y-114535573D01*
X124768620Y-114534740D01*
X125031340Y-114534740D01*
X125039803Y-114535573D01*
X125043092Y-114536571D01*
X125063690Y-114545104D01*
X125087723Y-114549886D01*
X125112227Y-114549887D01*
X125136261Y-114545107D01*
X125156867Y-114536571D01*
X125160157Y-114535573D01*
X125168620Y-114534740D01*
X125431340Y-114534740D01*
X125439803Y-114535573D01*
X125443092Y-114536571D01*
X125463690Y-114545104D01*
X125487723Y-114549886D01*
X125512227Y-114549887D01*
X125536261Y-114545107D01*
X125556867Y-114536571D01*
X125560157Y-114535573D01*
X125568620Y-114534740D01*
X125831340Y-114534740D01*
X125839803Y-114535573D01*
X125843092Y-114536571D01*
X125863690Y-114545104D01*
X125887723Y-114549886D01*
X125912227Y-114549887D01*
X125936261Y-114545107D01*
X125956867Y-114536571D01*
X125960157Y-114535573D01*
X125968620Y-114534740D01*
X126231340Y-114534740D01*
X126239803Y-114535573D01*
X126243092Y-114536571D01*
X126263690Y-114545104D01*
X126287723Y-114549886D01*
X126312227Y-114549887D01*
X126336261Y-114545107D01*
X126356867Y-114536571D01*
X126360157Y-114535573D01*
X126368620Y-114534740D01*
X126631340Y-114534740D01*
X126639803Y-114535573D01*
X126642031Y-114536249D01*
X126644086Y-114537348D01*
X126645891Y-114538829D01*
X126647372Y-114540634D01*
X126648471Y-114542689D01*
X126649147Y-114544917D01*
X126649980Y-114553380D01*
X126649980Y-115441097D01*
X126649216Y-115448853D01*
X126649216Y-115458976D01*
X126639093Y-115458976D01*
X126631337Y-115459740D01*
X126585680Y-115459740D01*
X126561294Y-115462142D01*
X126537845Y-115469255D01*
X126516234Y-115480806D01*
X126497292Y-115496351D01*
X126481747Y-115515293D01*
X126470196Y-115536904D01*
X126463083Y-115560353D01*
X126460681Y-115584739D01*
X126463083Y-115609125D01*
X126470196Y-115632574D01*
X126481747Y-115654185D01*
X126506381Y-115681364D01*
X126532182Y-115702538D01*
X126553356Y-115728339D01*
X126570683Y-115745666D01*
X126591057Y-115759279D01*
X126613696Y-115768657D01*
X126637729Y-115773437D01*
X126662233Y-115773437D01*
X126686266Y-115768657D01*
X126708905Y-115759279D01*
X126729280Y-115745665D01*
X126746607Y-115728338D01*
X126760220Y-115707964D01*
X126769598Y-115685325D01*
X126774980Y-115649040D01*
X126774980Y-115603383D01*
X126775744Y-115595627D01*
X126775744Y-115585504D01*
X126785867Y-115585504D01*
X126793623Y-115584740D01*
X127681340Y-115584740D01*
X127689803Y-115585573D01*
X127692031Y-115586249D01*
X127694086Y-115587348D01*
X127695891Y-115588829D01*
X127697372Y-115590634D01*
X127698471Y-115592689D01*
X127699147Y-115594917D01*
X127699980Y-115603380D01*
X127699980Y-115866100D01*
X127699147Y-115874563D01*
X127698149Y-115877852D01*
X127689616Y-115898450D01*
X127684834Y-115922483D01*
X127684833Y-115946987D01*
X127689613Y-115971021D01*
X127698149Y-115991627D01*
X127699147Y-115994917D01*
X127699980Y-116003380D01*
X127699980Y-116266100D01*
X127699147Y-116274563D01*
X127698149Y-116277852D01*
X127689616Y-116298450D01*
X127684834Y-116322483D01*
X127684833Y-116346987D01*
X127689613Y-116371021D01*
X127698149Y-116391627D01*
X127699147Y-116394917D01*
X127699980Y-116403380D01*
X127699980Y-116666100D01*
X127699147Y-116674563D01*
X127698149Y-116677852D01*
X127689616Y-116698450D01*
X127684834Y-116722483D01*
X127684833Y-116746987D01*
X127689613Y-116771021D01*
X127698149Y-116791627D01*
X127699147Y-116794917D01*
X127699980Y-116803380D01*
X127699980Y-117066100D01*
X127699147Y-117074563D01*
X127698149Y-117077852D01*
X127689616Y-117098450D01*
X127684834Y-117122483D01*
X127684833Y-117146987D01*
X127689613Y-117171021D01*
X127698149Y-117191627D01*
X127699147Y-117194917D01*
X127699980Y-117203380D01*
X127699980Y-117466100D01*
X127699147Y-117474563D01*
X127698149Y-117477852D01*
X127689616Y-117498450D01*
X127684834Y-117522483D01*
X127684833Y-117546987D01*
X127689613Y-117571021D01*
X127698149Y-117591627D01*
X127699147Y-117594917D01*
X127699980Y-117603380D01*
X127699980Y-117866100D01*
X127699147Y-117874563D01*
X127698149Y-117877852D01*
X127689616Y-117898450D01*
X127684834Y-117922483D01*
X127684833Y-117946987D01*
X127689613Y-117971021D01*
X127698149Y-117991627D01*
X127699147Y-117994917D01*
X127699980Y-118003380D01*
X127699980Y-118266100D01*
X127699147Y-118274563D01*
X127698149Y-118277852D01*
X127689616Y-118298450D01*
X127684834Y-118322483D01*
X127684833Y-118346987D01*
X127689613Y-118371021D01*
X127698149Y-118391627D01*
X127699147Y-118394917D01*
X127699980Y-118403380D01*
X127699980Y-118666100D01*
X127699147Y-118674563D01*
X127698149Y-118677852D01*
X127689616Y-118698450D01*
X127684834Y-118722483D01*
X127684833Y-118746987D01*
X127689613Y-118771021D01*
X127698149Y-118791627D01*
X127699147Y-118794917D01*
X127699980Y-118803380D01*
X127699980Y-119066100D01*
X127699147Y-119074563D01*
X127698149Y-119077852D01*
X127689616Y-119098450D01*
X127684834Y-119122483D01*
X127684833Y-119146987D01*
X127689613Y-119171021D01*
X127698149Y-119191627D01*
X127699147Y-119194917D01*
X127699980Y-119203380D01*
X127699980Y-119466100D01*
X127699147Y-119474563D01*
X127698149Y-119477852D01*
X127689616Y-119498450D01*
X127684834Y-119522483D01*
X127684833Y-119546987D01*
X127689613Y-119571021D01*
X127698149Y-119591627D01*
X127699147Y-119594917D01*
X127699980Y-119603380D01*
X127699980Y-119866100D01*
X127699147Y-119874563D01*
X127698149Y-119877852D01*
X127689616Y-119898450D01*
X127684834Y-119922483D01*
X127684833Y-119946987D01*
X127689613Y-119971021D01*
X127698149Y-119991627D01*
X127699147Y-119994917D01*
X127699980Y-120003380D01*
X127699980Y-120266100D01*
X127699147Y-120274563D01*
X127698471Y-120276791D01*
X127697372Y-120278846D01*
X127695891Y-120280651D01*
X127694086Y-120282132D01*
X127692031Y-120283231D01*
X127689803Y-120283907D01*
X127681340Y-120284740D01*
X126793623Y-120284740D01*
X126785867Y-120283976D01*
X126775744Y-120283976D01*
X126775744Y-120273853D01*
X126774980Y-120266097D01*
X126774980Y-120220440D01*
X126772578Y-120196054D01*
X126765465Y-120172605D01*
X126753914Y-120150994D01*
X126738369Y-120132052D01*
X126719427Y-120116507D01*
X126697816Y-120104956D01*
X126674367Y-120097843D01*
X126649981Y-120095441D01*
X126625595Y-120097843D01*
X126602146Y-120104956D01*
X126580535Y-120116507D01*
X126553356Y-120141141D01*
X126532182Y-120166942D01*
X126506381Y-120188116D01*
X126489054Y-120205443D01*
X126475441Y-120225817D01*
X126466063Y-120248456D01*
X126461283Y-120272489D01*
X126461283Y-120296993D01*
X126466063Y-120321026D01*
X126475441Y-120343665D01*
X126489055Y-120364040D01*
X126506382Y-120381367D01*
X126526756Y-120394980D01*
X126549395Y-120404358D01*
X126585680Y-120409740D01*
X126631337Y-120409740D01*
X126639093Y-120410504D01*
X126649216Y-120410504D01*
X126649216Y-120420627D01*
X126649980Y-120428383D01*
X126649980Y-121316100D01*
X126649147Y-121324563D01*
X126648471Y-121326791D01*
X126647372Y-121328846D01*
X126645891Y-121330651D01*
X126644086Y-121332132D01*
X126642031Y-121333231D01*
X126639803Y-121333907D01*
X126631340Y-121334740D01*
X126368620Y-121334740D01*
X126360157Y-121333907D01*
X126356868Y-121332909D01*
X126336270Y-121324376D01*
X126312237Y-121319594D01*
X126287733Y-121319593D01*
X126263699Y-121324373D01*
X126243093Y-121332909D01*
X126239803Y-121333907D01*
X126231340Y-121334740D01*
X125968620Y-121334740D01*
X125960157Y-121333907D01*
X125956868Y-121332909D01*
X125936270Y-121324376D01*
X125912237Y-121319594D01*
X125887733Y-121319593D01*
X125863699Y-121324373D01*
X125843093Y-121332909D01*
X125839803Y-121333907D01*
X125831340Y-121334740D01*
X125568620Y-121334740D01*
X125560157Y-121333907D01*
X125556868Y-121332909D01*
X125536270Y-121324376D01*
X125512237Y-121319594D01*
X125487733Y-121319593D01*
X125463699Y-121324373D01*
X125443093Y-121332909D01*
X125439803Y-121333907D01*
X125431340Y-121334740D01*
X125168620Y-121334740D01*
X125160157Y-121333907D01*
X125156868Y-121332909D01*
X125136270Y-121324376D01*
X125112237Y-121319594D01*
X125087733Y-121319593D01*
X125063699Y-121324373D01*
X125043093Y-121332909D01*
X125039803Y-121333907D01*
X125031340Y-121334740D01*
X124768620Y-121334740D01*
X124760157Y-121333907D01*
X124756868Y-121332909D01*
X124736270Y-121324376D01*
X124712237Y-121319594D01*
X124687733Y-121319593D01*
X124663699Y-121324373D01*
X124643093Y-121332909D01*
X124639803Y-121333907D01*
X124631340Y-121334740D01*
X124368620Y-121334740D01*
X124360157Y-121333907D01*
X124356868Y-121332909D01*
X124336270Y-121324376D01*
X124312237Y-121319594D01*
X124287733Y-121319593D01*
X124263699Y-121324373D01*
X124243093Y-121332909D01*
X124239803Y-121333907D01*
X124231340Y-121334740D01*
X123968620Y-121334740D01*
X123960157Y-121333907D01*
X123956868Y-121332909D01*
X123936270Y-121324376D01*
X123912237Y-121319594D01*
X123887733Y-121319593D01*
X123863699Y-121324373D01*
X123843093Y-121332909D01*
X123839803Y-121333907D01*
X123831340Y-121334740D01*
X123568620Y-121334740D01*
X123560157Y-121333907D01*
X123556868Y-121332909D01*
X123536270Y-121324376D01*
X123512237Y-121319594D01*
X123487733Y-121319593D01*
X123463699Y-121324373D01*
X123443093Y-121332909D01*
X123439803Y-121333907D01*
X123431340Y-121334740D01*
X123168620Y-121334740D01*
X123160157Y-121333907D01*
X123156868Y-121332909D01*
X123136270Y-121324376D01*
X123112237Y-121319594D01*
X123087733Y-121319593D01*
X123063699Y-121324373D01*
X123043093Y-121332909D01*
X123039803Y-121333907D01*
X123031340Y-121334740D01*
X122768620Y-121334740D01*
X122760157Y-121333907D01*
X122756868Y-121332909D01*
X122736270Y-121324376D01*
X122712237Y-121319594D01*
X122687733Y-121319593D01*
X122663699Y-121324373D01*
X122643093Y-121332909D01*
X122639803Y-121333907D01*
X122631340Y-121334740D01*
X122368620Y-121334740D01*
X122360157Y-121333907D01*
X122356868Y-121332909D01*
X122336270Y-121324376D01*
X122312237Y-121319594D01*
X122287733Y-121319593D01*
X122263699Y-121324373D01*
X122243093Y-121332909D01*
X122239803Y-121333907D01*
X122231340Y-121334740D01*
X121968620Y-121334740D01*
X121960157Y-121333907D01*
X121957929Y-121333231D01*
X121955874Y-121332132D01*
X121954069Y-121330651D01*
X121952588Y-121328846D01*
X121951489Y-121326791D01*
X121950813Y-121324563D01*
X121949980Y-121316100D01*
X121949980Y-120428383D01*
X121950744Y-120420627D01*
X121950744Y-120410504D01*
X121960867Y-120410504D01*
X121968623Y-120409740D01*
X122014280Y-120409740D01*
X122038666Y-120407338D01*
X122062115Y-120400225D01*
X122083726Y-120388674D01*
X122102668Y-120373129D01*
X122118213Y-120354187D01*
X122129764Y-120332576D01*
X122136877Y-120309127D01*
X122139279Y-120284741D01*
X122136877Y-120260355D01*
X122129764Y-120236906D01*
X122118213Y-120215295D01*
X122093579Y-120188116D01*
X122067778Y-120166942D01*
X122046604Y-120141141D01*
X122029277Y-120123814D01*
X122008903Y-120110201D01*
X121986264Y-120100823D01*
X121962231Y-120096043D01*
X121937727Y-120096043D01*
X121913694Y-120100823D01*
X121891055Y-120110201D01*
X121870680Y-120123815D01*
X121853353Y-120141142D01*
X121839740Y-120161516D01*
X121830362Y-120184155D01*
X121824980Y-120220440D01*
X121824980Y-120266097D01*
X121824216Y-120273853D01*
X121824216Y-120283976D01*
X121814093Y-120283976D01*
X121806337Y-120284740D01*
X120918620Y-120284740D01*
X120910157Y-120283907D01*
X120907929Y-120283231D01*
X120905874Y-120282132D01*
X120904069Y-120280651D01*
X120902588Y-120278846D01*
X120901489Y-120276791D01*
X120900813Y-120274563D01*
X120899980Y-120266100D01*
X120899980Y-120003380D01*
X120900813Y-119994917D01*
X120901811Y-119991628D01*
X120910344Y-119971030D01*
X120915126Y-119946997D01*
X120915127Y-119922493D01*
X120910347Y-119898459D01*
X120901811Y-119877853D01*
X120900813Y-119874563D01*
X120899980Y-119866100D01*
X120899980Y-119603380D01*
X120900813Y-119594917D01*
X120901811Y-119591628D01*
X120910344Y-119571030D01*
X120915126Y-119546997D01*
X120915127Y-119522493D01*
X120910347Y-119498459D01*
X120901811Y-119477853D01*
X120900813Y-119474563D01*
X120899980Y-119466100D01*
X120899980Y-119203380D01*
X120900813Y-119194917D01*
X120901811Y-119191628D01*
X120910344Y-119171030D01*
X120915126Y-119146997D01*
X120915127Y-119122493D01*
X120910347Y-119098459D01*
X120901811Y-119077853D01*
X120900813Y-119074563D01*
X120899980Y-119066100D01*
X120899980Y-118803380D01*
X120900813Y-118794917D01*
X120901811Y-118791628D01*
X120910344Y-118771030D01*
X120915126Y-118746997D01*
X120915127Y-118722493D01*
X120910347Y-118698459D01*
X120901811Y-118677853D01*
X120900813Y-118674563D01*
X120899980Y-118666100D01*
X120899980Y-118403380D01*
X120900813Y-118394917D01*
X120901811Y-118391628D01*
X120910344Y-118371030D01*
X120915126Y-118346997D01*
X120915127Y-118322493D01*
X120910347Y-118298459D01*
X120901811Y-118277853D01*
X120900813Y-118274563D01*
X120899980Y-118266100D01*
X120899980Y-118003380D01*
X120900813Y-117994917D01*
X120901811Y-117991628D01*
X120910344Y-117971030D01*
X120915126Y-117946997D01*
X120915127Y-117922493D01*
X120910347Y-117898459D01*
X120901811Y-117877853D01*
X120900813Y-117874563D01*
X120899980Y-117866100D01*
X120899980Y-117603380D01*
X120900813Y-117594917D01*
X120901811Y-117591628D01*
X120910344Y-117571030D01*
X120915126Y-117546997D01*
X120915127Y-117522493D01*
X120910347Y-117498459D01*
X120901811Y-117477853D01*
X120900813Y-117474563D01*
X120899980Y-117466100D01*
X120899980Y-117203380D01*
X120900813Y-117194917D01*
X120901811Y-117191628D01*
X120910344Y-117171030D01*
X120915126Y-117146997D01*
X120915127Y-117122493D01*
X120910347Y-117098459D01*
X120901811Y-117077853D01*
X120900813Y-117074563D01*
X120899980Y-117066100D01*
X120899980Y-116803380D01*
X120900813Y-116794917D01*
X120901811Y-116791628D01*
X120910344Y-116771030D01*
X120915126Y-116746997D01*
X120915127Y-116722493D01*
X120910347Y-116698459D01*
X120901811Y-116677853D01*
X120900813Y-116674563D01*
X120899980Y-116666100D01*
X120899980Y-116403380D01*
X120900813Y-116394917D01*
X120901811Y-116391628D01*
X120910344Y-116371030D01*
X120915126Y-116346997D01*
X120915127Y-116322493D01*
X120910347Y-116298459D01*
X120901811Y-116277853D01*
X120900813Y-116274563D01*
X120899980Y-116266100D01*
X120899980Y-116003380D01*
X120900813Y-115994917D01*
X120901811Y-115991628D01*
X120910344Y-115971030D01*
X120915126Y-115946997D01*
X120915127Y-115922493D01*
X120910347Y-115898459D01*
X120901811Y-115877853D01*
X120900813Y-115874563D01*
X120899980Y-115866100D01*
X120899980Y-115603380D01*
X120900813Y-115594917D01*
X120901489Y-115592689D01*
X120902588Y-115590634D01*
X120904069Y-115588829D01*
X120905874Y-115587348D01*
X120907929Y-115586249D01*
X120910157Y-115585573D01*
X120918620Y-115584740D01*
X121806337Y-115584740D01*
X121814093Y-115585504D01*
X121824216Y-115585504D01*
X121824216Y-115595627D01*
X121824980Y-115603383D01*
X121824980Y-115649040D01*
X121827382Y-115673426D01*
X121834495Y-115696875D01*
X121846046Y-115718486D01*
X121861591Y-115737428D01*
X121880533Y-115752973D01*
X121902144Y-115764524D01*
X121925593Y-115771637D01*
X121949979Y-115774039D01*
X121974365Y-115771637D01*
X121997814Y-115764524D01*
X122019425Y-115752973D01*
X122046604Y-115728339D01*
X122067778Y-115702538D01*
X122093579Y-115681364D01*
X122110906Y-115664037D01*
X122124519Y-115643663D01*
X122133897Y-115621024D01*
X122138677Y-115596991D01*
X122138677Y-115572487D01*
X122133897Y-115548454D01*
X122124519Y-115525815D01*
X122110905Y-115505440D01*
X122093578Y-115488113D01*
X122073204Y-115474500D01*
X122050565Y-115465122D01*
X122014280Y-115459740D01*
X121968623Y-115459740D01*
X121960867Y-115458976D01*
X121950744Y-115458976D01*
X121950744Y-115448853D01*
X121949980Y-115441097D01*
X121949980Y-114553380D01*
X121950813Y-114544917D01*
X121951489Y-114542689D01*
X121952588Y-114540634D01*
X121954069Y-114538829D01*
X121955874Y-114537348D01*
X121957929Y-114536249D01*
X121960157Y-114535573D01*
X121968620Y-114534740D01*
X122231340Y-114534740D01*
X122239803Y-114535573D01*
X122239803Y-114535573D01*
G37*
G36*
X120068003Y-120480826D02*
G01*
X120088523Y-120487051D01*
X120107436Y-120497160D01*
X120124014Y-120510766D01*
X120137620Y-120527344D01*
X120147729Y-120546257D01*
X120153954Y-120566777D01*
X120156660Y-120594258D01*
X120156660Y-121101982D01*
X120153954Y-121129463D01*
X120147729Y-121149983D01*
X120137620Y-121168896D01*
X120124014Y-121185474D01*
X120107436Y-121199080D01*
X120088523Y-121209189D01*
X120068003Y-121215414D01*
X120040522Y-121218120D01*
X119582798Y-121218120D01*
X119555317Y-121215414D01*
X119534797Y-121209189D01*
X119515884Y-121199080D01*
X119499306Y-121185474D01*
X119485700Y-121168896D01*
X119475591Y-121149983D01*
X119469366Y-121129463D01*
X119466660Y-121101982D01*
X119466660Y-120594258D01*
X119469366Y-120566777D01*
X119475591Y-120546257D01*
X119485700Y-120527344D01*
X119499306Y-120510766D01*
X119515884Y-120497160D01*
X119534797Y-120487051D01*
X119555317Y-120480826D01*
X119582798Y-120478120D01*
X120040522Y-120478120D01*
X120068003Y-120480826D01*
X120068003Y-120480826D01*
G37*
G36*
X119098003Y-120480826D02*
G01*
X119118523Y-120487051D01*
X119137436Y-120497160D01*
X119154014Y-120510766D01*
X119167620Y-120527344D01*
X119177729Y-120546257D01*
X119183954Y-120566777D01*
X119186660Y-120594258D01*
X119186660Y-121101982D01*
X119183954Y-121129463D01*
X119177729Y-121149983D01*
X119167620Y-121168896D01*
X119154014Y-121185474D01*
X119137436Y-121199080D01*
X119118523Y-121209189D01*
X119098003Y-121215414D01*
X119070522Y-121218120D01*
X118612798Y-121218120D01*
X118585317Y-121215414D01*
X118564797Y-121209189D01*
X118545884Y-121199080D01*
X118529306Y-121185474D01*
X118515700Y-121168896D01*
X118505591Y-121149983D01*
X118499366Y-121129463D01*
X118496660Y-121101982D01*
X118496660Y-120594258D01*
X118499366Y-120566777D01*
X118505591Y-120546257D01*
X118515700Y-120527344D01*
X118529306Y-120510766D01*
X118545884Y-120497160D01*
X118564797Y-120487051D01*
X118585317Y-120480826D01*
X118612798Y-120478120D01*
X119070522Y-120478120D01*
X119098003Y-120480826D01*
X119098003Y-120480826D01*
G37*
G36*
X107070563Y-120106906D02*
G01*
X107091083Y-120113131D01*
X107109996Y-120123240D01*
X107126574Y-120136846D01*
X107140180Y-120153424D01*
X107150289Y-120172337D01*
X107156514Y-120192857D01*
X107159220Y-120220338D01*
X107159220Y-120678062D01*
X107156514Y-120705543D01*
X107150289Y-120726063D01*
X107140180Y-120744976D01*
X107126574Y-120761554D01*
X107109996Y-120775160D01*
X107091083Y-120785269D01*
X107070563Y-120791494D01*
X107043082Y-120794200D01*
X106535358Y-120794200D01*
X106507877Y-120791494D01*
X106487357Y-120785269D01*
X106468444Y-120775160D01*
X106451866Y-120761554D01*
X106438260Y-120744976D01*
X106428151Y-120726063D01*
X106421926Y-120705543D01*
X106419220Y-120678062D01*
X106419220Y-120220338D01*
X106421926Y-120192857D01*
X106428151Y-120172337D01*
X106438260Y-120153424D01*
X106451866Y-120136846D01*
X106468444Y-120123240D01*
X106487357Y-120113131D01*
X106507877Y-120106906D01*
X106535358Y-120104200D01*
X107043082Y-120104200D01*
X107070563Y-120106906D01*
X107070563Y-120106906D01*
G37*
G36*
X136311043Y-119709306D02*
G01*
X136331563Y-119715531D01*
X136350476Y-119725640D01*
X136367054Y-119739246D01*
X136380660Y-119755824D01*
X136390769Y-119774737D01*
X136396994Y-119795257D01*
X136399700Y-119822738D01*
X136399700Y-120280462D01*
X136396994Y-120307943D01*
X136390769Y-120328463D01*
X136380660Y-120347376D01*
X136367054Y-120363954D01*
X136350476Y-120377560D01*
X136331563Y-120387669D01*
X136311043Y-120393894D01*
X136283562Y-120396600D01*
X135775838Y-120396600D01*
X135748357Y-120393894D01*
X135727837Y-120387669D01*
X135708924Y-120377560D01*
X135692346Y-120363954D01*
X135678740Y-120347376D01*
X135668631Y-120328463D01*
X135662406Y-120307943D01*
X135659700Y-120280462D01*
X135659700Y-119822738D01*
X135662406Y-119795257D01*
X135668631Y-119774737D01*
X135678740Y-119755824D01*
X135692346Y-119739246D01*
X135708924Y-119725640D01*
X135727837Y-119715531D01*
X135748357Y-119709306D01*
X135775838Y-119706600D01*
X136283562Y-119706600D01*
X136311043Y-119709306D01*
X136311043Y-119709306D01*
G37*
G36*
X107070563Y-119136906D02*
G01*
X107091083Y-119143131D01*
X107109996Y-119153240D01*
X107126574Y-119166846D01*
X107140180Y-119183424D01*
X107150289Y-119202337D01*
X107156514Y-119222857D01*
X107159220Y-119250338D01*
X107159220Y-119708062D01*
X107156514Y-119735543D01*
X107150289Y-119756063D01*
X107140180Y-119774976D01*
X107126574Y-119791554D01*
X107109996Y-119805160D01*
X107091083Y-119815269D01*
X107070563Y-119821494D01*
X107043082Y-119824200D01*
X106535358Y-119824200D01*
X106507877Y-119821494D01*
X106487357Y-119815269D01*
X106468444Y-119805160D01*
X106451866Y-119791554D01*
X106438260Y-119774976D01*
X106428151Y-119756063D01*
X106421926Y-119735543D01*
X106419220Y-119708062D01*
X106419220Y-119250338D01*
X106421926Y-119222857D01*
X106428151Y-119202337D01*
X106438260Y-119183424D01*
X106451866Y-119166846D01*
X106468444Y-119153240D01*
X106487357Y-119143131D01*
X106507877Y-119136906D01*
X106535358Y-119134200D01*
X107043082Y-119134200D01*
X107070563Y-119136906D01*
X107070563Y-119136906D01*
G37*
G36*
X105802220Y-119516200D02*
G01*
X104642220Y-119516200D01*
X104642220Y-118766200D01*
X105802220Y-118766200D01*
X105802220Y-119516200D01*
X105802220Y-119516200D01*
G37*
G36*
X117172143Y-118760706D02*
G01*
X117192663Y-118766931D01*
X117211576Y-118777040D01*
X117228154Y-118790646D01*
X117241760Y-118807224D01*
X117251869Y-118826137D01*
X117258094Y-118846657D01*
X117260800Y-118874138D01*
X117260800Y-119331862D01*
X117258094Y-119359343D01*
X117251869Y-119379863D01*
X117241760Y-119398776D01*
X117228154Y-119415354D01*
X117211576Y-119428960D01*
X117192663Y-119439069D01*
X117172143Y-119445294D01*
X117144662Y-119448000D01*
X116636938Y-119448000D01*
X116609457Y-119445294D01*
X116588937Y-119439069D01*
X116570024Y-119428960D01*
X116553446Y-119415354D01*
X116539840Y-119398776D01*
X116529731Y-119379863D01*
X116523506Y-119359343D01*
X116520800Y-119331862D01*
X116520800Y-118874138D01*
X116523506Y-118846657D01*
X116529731Y-118826137D01*
X116539840Y-118807224D01*
X116553446Y-118790646D01*
X116570024Y-118777040D01*
X116588937Y-118766931D01*
X116609457Y-118760706D01*
X116636938Y-118758000D01*
X117144662Y-118758000D01*
X117172143Y-118760706D01*
X117172143Y-118760706D01*
G37*
G36*
X115828483Y-118742926D02*
G01*
X115849003Y-118749151D01*
X115867916Y-118759260D01*
X115884494Y-118772866D01*
X115898100Y-118789444D01*
X115908209Y-118808357D01*
X115914434Y-118828877D01*
X115917140Y-118856358D01*
X115917140Y-119314082D01*
X115914434Y-119341563D01*
X115908209Y-119362083D01*
X115898100Y-119380996D01*
X115884494Y-119397574D01*
X115867916Y-119411180D01*
X115849003Y-119421289D01*
X115828483Y-119427514D01*
X115801002Y-119430220D01*
X115293278Y-119430220D01*
X115265797Y-119427514D01*
X115245277Y-119421289D01*
X115226364Y-119411180D01*
X115209786Y-119397574D01*
X115196180Y-119380996D01*
X115186071Y-119362083D01*
X115179846Y-119341563D01*
X115177140Y-119314082D01*
X115177140Y-118856358D01*
X115179846Y-118828877D01*
X115186071Y-118808357D01*
X115196180Y-118789444D01*
X115209786Y-118772866D01*
X115226364Y-118759260D01*
X115245277Y-118749151D01*
X115265797Y-118742926D01*
X115293278Y-118740220D01*
X115801002Y-118740220D01*
X115828483Y-118742926D01*
X115828483Y-118742926D01*
G37*
G36*
X136311043Y-118739306D02*
G01*
X136331563Y-118745531D01*
X136350476Y-118755640D01*
X136367054Y-118769246D01*
X136380660Y-118785824D01*
X136390769Y-118804737D01*
X136396994Y-118825257D01*
X136399700Y-118852738D01*
X136399700Y-119310462D01*
X136396994Y-119337943D01*
X136390769Y-119358463D01*
X136380660Y-119377376D01*
X136367054Y-119393954D01*
X136350476Y-119407560D01*
X136331563Y-119417669D01*
X136311043Y-119423894D01*
X136283562Y-119426600D01*
X135775838Y-119426600D01*
X135748357Y-119423894D01*
X135727837Y-119417669D01*
X135708924Y-119407560D01*
X135692346Y-119393954D01*
X135678740Y-119377376D01*
X135668631Y-119358463D01*
X135662406Y-119337943D01*
X135659700Y-119310462D01*
X135659700Y-118852738D01*
X135662406Y-118825257D01*
X135668631Y-118804737D01*
X135678740Y-118785824D01*
X135692346Y-118769246D01*
X135708924Y-118755640D01*
X135727837Y-118745531D01*
X135748357Y-118739306D01*
X135775838Y-118736600D01*
X136283562Y-118736600D01*
X136311043Y-118739306D01*
X136311043Y-118739306D01*
G37*
G36*
X119821363Y-118737846D02*
G01*
X119841883Y-118744071D01*
X119860796Y-118754180D01*
X119877374Y-118767786D01*
X119890980Y-118784364D01*
X119901089Y-118803277D01*
X119907314Y-118823797D01*
X119910020Y-118851278D01*
X119910020Y-119309002D01*
X119907314Y-119336483D01*
X119901089Y-119357003D01*
X119890980Y-119375916D01*
X119877374Y-119392494D01*
X119860796Y-119406100D01*
X119841883Y-119416209D01*
X119821363Y-119422434D01*
X119793882Y-119425140D01*
X119286158Y-119425140D01*
X119258677Y-119422434D01*
X119238157Y-119416209D01*
X119219244Y-119406100D01*
X119202666Y-119392494D01*
X119189060Y-119375916D01*
X119178951Y-119357003D01*
X119172726Y-119336483D01*
X119170020Y-119309002D01*
X119170020Y-118851278D01*
X119172726Y-118823797D01*
X119178951Y-118803277D01*
X119189060Y-118784364D01*
X119202666Y-118767786D01*
X119219244Y-118754180D01*
X119238157Y-118744071D01*
X119258677Y-118737846D01*
X119286158Y-118735140D01*
X119793882Y-118735140D01*
X119821363Y-118737846D01*
X119821363Y-118737846D01*
G37*
G36*
X118556443Y-118737846D02*
G01*
X118576963Y-118744071D01*
X118595876Y-118754180D01*
X118612454Y-118767786D01*
X118626060Y-118784364D01*
X118636169Y-118803277D01*
X118642394Y-118823797D01*
X118645100Y-118851278D01*
X118645100Y-119309002D01*
X118642394Y-119336483D01*
X118636169Y-119357003D01*
X118626060Y-119375916D01*
X118612454Y-119392494D01*
X118595876Y-119406100D01*
X118576963Y-119416209D01*
X118556443Y-119422434D01*
X118528962Y-119425140D01*
X118021238Y-119425140D01*
X117993757Y-119422434D01*
X117973237Y-119416209D01*
X117954324Y-119406100D01*
X117937746Y-119392494D01*
X117924140Y-119375916D01*
X117914031Y-119357003D01*
X117907806Y-119336483D01*
X117905100Y-119309002D01*
X117905100Y-118851278D01*
X117907806Y-118823797D01*
X117914031Y-118803277D01*
X117924140Y-118784364D01*
X117937746Y-118767786D01*
X117954324Y-118754180D01*
X117973237Y-118744071D01*
X117993757Y-118737846D01*
X118021238Y-118735140D01*
X118528962Y-118735140D01*
X118556443Y-118737846D01*
X118556443Y-118737846D01*
G37*
G36*
X134750000Y-118718000D02*
G01*
X133950000Y-118718000D01*
X133950000Y-117168000D01*
X134750000Y-117168000D01*
X134750000Y-118718000D01*
X134750000Y-118718000D01*
G37*
G36*
X132750000Y-118718000D02*
G01*
X131950000Y-118718000D01*
X131950000Y-117168000D01*
X132750000Y-117168000D01*
X132750000Y-118718000D01*
X132750000Y-118718000D01*
G37*
G36*
X129385103Y-117972266D02*
G01*
X129405623Y-117978491D01*
X129424536Y-117988600D01*
X129441114Y-118002206D01*
X129454720Y-118018784D01*
X129464829Y-118037697D01*
X129471054Y-118058217D01*
X129473760Y-118085698D01*
X129473760Y-118593422D01*
X129471054Y-118620903D01*
X129464829Y-118641423D01*
X129454720Y-118660336D01*
X129441114Y-118676914D01*
X129424536Y-118690520D01*
X129405623Y-118700629D01*
X129385103Y-118706854D01*
X129357622Y-118709560D01*
X128899898Y-118709560D01*
X128872417Y-118706854D01*
X128851897Y-118700629D01*
X128832984Y-118690520D01*
X128816406Y-118676914D01*
X128802800Y-118660336D01*
X128792691Y-118641423D01*
X128786466Y-118620903D01*
X128783760Y-118593422D01*
X128783760Y-118085698D01*
X128786466Y-118058217D01*
X128792691Y-118037697D01*
X128802800Y-118018784D01*
X128816406Y-118002206D01*
X128832984Y-117988600D01*
X128851897Y-117978491D01*
X128872417Y-117972266D01*
X128899898Y-117969560D01*
X129357622Y-117969560D01*
X129385103Y-117972266D01*
X129385103Y-117972266D01*
G37*
G36*
X130355103Y-117972266D02*
G01*
X130375623Y-117978491D01*
X130394536Y-117988600D01*
X130411114Y-118002206D01*
X130424720Y-118018784D01*
X130434829Y-118037697D01*
X130441054Y-118058217D01*
X130443760Y-118085698D01*
X130443760Y-118593422D01*
X130441054Y-118620903D01*
X130434829Y-118641423D01*
X130424720Y-118660336D01*
X130411114Y-118676914D01*
X130394536Y-118690520D01*
X130375623Y-118700629D01*
X130355103Y-118706854D01*
X130327622Y-118709560D01*
X129869898Y-118709560D01*
X129842417Y-118706854D01*
X129821897Y-118700629D01*
X129802984Y-118690520D01*
X129786406Y-118676914D01*
X129772800Y-118660336D01*
X129762691Y-118641423D01*
X129756466Y-118620903D01*
X129753760Y-118593422D01*
X129753760Y-118085698D01*
X129756466Y-118058217D01*
X129762691Y-118037697D01*
X129772800Y-118018784D01*
X129786406Y-118002206D01*
X129802984Y-117988600D01*
X129821897Y-117978491D01*
X129842417Y-117972266D01*
X129869898Y-117969560D01*
X130327622Y-117969560D01*
X130355103Y-117972266D01*
X130355103Y-117972266D01*
G37*
G36*
X117172143Y-117790706D02*
G01*
X117192663Y-117796931D01*
X117211576Y-117807040D01*
X117228154Y-117820646D01*
X117241760Y-117837224D01*
X117251869Y-117856137D01*
X117258094Y-117876657D01*
X117260800Y-117904138D01*
X117260800Y-118361862D01*
X117258094Y-118389343D01*
X117251869Y-118409863D01*
X117241760Y-118428776D01*
X117228154Y-118445354D01*
X117211576Y-118458960D01*
X117192663Y-118469069D01*
X117172143Y-118475294D01*
X117144662Y-118478000D01*
X116636938Y-118478000D01*
X116609457Y-118475294D01*
X116588937Y-118469069D01*
X116570024Y-118458960D01*
X116553446Y-118445354D01*
X116539840Y-118428776D01*
X116529731Y-118409863D01*
X116523506Y-118389343D01*
X116520800Y-118361862D01*
X116520800Y-117904138D01*
X116523506Y-117876657D01*
X116529731Y-117856137D01*
X116539840Y-117837224D01*
X116553446Y-117820646D01*
X116570024Y-117807040D01*
X116588937Y-117796931D01*
X116609457Y-117790706D01*
X116636938Y-117788000D01*
X117144662Y-117788000D01*
X117172143Y-117790706D01*
X117172143Y-117790706D01*
G37*
G36*
X115828483Y-117772926D02*
G01*
X115849003Y-117779151D01*
X115867916Y-117789260D01*
X115884494Y-117802866D01*
X115898100Y-117819444D01*
X115908209Y-117838357D01*
X115914434Y-117858877D01*
X115917140Y-117886358D01*
X115917140Y-118344082D01*
X115914434Y-118371563D01*
X115908209Y-118392083D01*
X115898100Y-118410996D01*
X115884494Y-118427574D01*
X115867916Y-118441180D01*
X115849003Y-118451289D01*
X115828483Y-118457514D01*
X115801002Y-118460220D01*
X115293278Y-118460220D01*
X115265797Y-118457514D01*
X115245277Y-118451289D01*
X115226364Y-118441180D01*
X115209786Y-118427574D01*
X115196180Y-118410996D01*
X115186071Y-118392083D01*
X115179846Y-118371563D01*
X115177140Y-118344082D01*
X115177140Y-117886358D01*
X115179846Y-117858877D01*
X115186071Y-117838357D01*
X115196180Y-117819444D01*
X115209786Y-117802866D01*
X115226364Y-117789260D01*
X115245277Y-117779151D01*
X115265797Y-117772926D01*
X115293278Y-117770220D01*
X115801002Y-117770220D01*
X115828483Y-117772926D01*
X115828483Y-117772926D01*
G37*
G36*
X118556443Y-117767846D02*
G01*
X118576963Y-117774071D01*
X118595876Y-117784180D01*
X118612454Y-117797786D01*
X118626060Y-117814364D01*
X118636169Y-117833277D01*
X118642394Y-117853797D01*
X118645100Y-117881278D01*
X118645100Y-118339002D01*
X118642394Y-118366483D01*
X118636169Y-118387003D01*
X118626060Y-118405916D01*
X118612454Y-118422494D01*
X118595876Y-118436100D01*
X118576963Y-118446209D01*
X118556443Y-118452434D01*
X118528962Y-118455140D01*
X118021238Y-118455140D01*
X117993757Y-118452434D01*
X117973237Y-118446209D01*
X117954324Y-118436100D01*
X117937746Y-118422494D01*
X117924140Y-118405916D01*
X117914031Y-118387003D01*
X117907806Y-118366483D01*
X117905100Y-118339002D01*
X117905100Y-117881278D01*
X117907806Y-117853797D01*
X117914031Y-117833277D01*
X117924140Y-117814364D01*
X117937746Y-117797786D01*
X117954324Y-117784180D01*
X117973237Y-117774071D01*
X117993757Y-117767846D01*
X118021238Y-117765140D01*
X118528962Y-117765140D01*
X118556443Y-117767846D01*
X118556443Y-117767846D01*
G37*
G36*
X119821363Y-117767846D02*
G01*
X119841883Y-117774071D01*
X119860796Y-117784180D01*
X119877374Y-117797786D01*
X119890980Y-117814364D01*
X119901089Y-117833277D01*
X119907314Y-117853797D01*
X119910020Y-117881278D01*
X119910020Y-118339002D01*
X119907314Y-118366483D01*
X119901089Y-118387003D01*
X119890980Y-118405916D01*
X119877374Y-118422494D01*
X119860796Y-118436100D01*
X119841883Y-118446209D01*
X119821363Y-118452434D01*
X119793882Y-118455140D01*
X119286158Y-118455140D01*
X119258677Y-118452434D01*
X119238157Y-118446209D01*
X119219244Y-118436100D01*
X119202666Y-118422494D01*
X119189060Y-118405916D01*
X119178951Y-118387003D01*
X119172726Y-118366483D01*
X119170020Y-118339002D01*
X119170020Y-117881278D01*
X119172726Y-117853797D01*
X119178951Y-117833277D01*
X119189060Y-117814364D01*
X119202666Y-117797786D01*
X119219244Y-117784180D01*
X119238157Y-117774071D01*
X119258677Y-117767846D01*
X119286158Y-117765140D01*
X119793882Y-117765140D01*
X119821363Y-117767846D01*
X119821363Y-117767846D01*
G37*
G36*
X136298343Y-117617706D02*
G01*
X136318863Y-117623931D01*
X136337776Y-117634040D01*
X136354354Y-117647646D01*
X136367960Y-117664224D01*
X136378069Y-117683137D01*
X136384294Y-117703657D01*
X136387000Y-117731138D01*
X136387000Y-118188862D01*
X136384294Y-118216343D01*
X136378069Y-118236863D01*
X136367960Y-118255776D01*
X136354354Y-118272354D01*
X136337776Y-118285960D01*
X136318863Y-118296069D01*
X136298343Y-118302294D01*
X136270862Y-118305000D01*
X135763138Y-118305000D01*
X135735657Y-118302294D01*
X135715137Y-118296069D01*
X135696224Y-118285960D01*
X135679646Y-118272354D01*
X135666040Y-118255776D01*
X135655931Y-118236863D01*
X135649706Y-118216343D01*
X135647000Y-118188862D01*
X135647000Y-117731138D01*
X135649706Y-117703657D01*
X135655931Y-117683137D01*
X135666040Y-117664224D01*
X135679646Y-117647646D01*
X135696224Y-117634040D01*
X135715137Y-117623931D01*
X135735657Y-117617706D01*
X135763138Y-117615000D01*
X136270862Y-117615000D01*
X136298343Y-117617706D01*
X136298343Y-117617706D01*
G37*
G36*
X130355103Y-116712266D02*
G01*
X130375623Y-116718491D01*
X130394536Y-116728600D01*
X130411114Y-116742206D01*
X130424720Y-116758784D01*
X130434829Y-116777697D01*
X130441054Y-116798217D01*
X130443760Y-116825698D01*
X130443760Y-117333422D01*
X130441054Y-117360903D01*
X130434829Y-117381423D01*
X130424720Y-117400336D01*
X130411114Y-117416914D01*
X130394536Y-117430520D01*
X130375623Y-117440629D01*
X130355103Y-117446854D01*
X130327622Y-117449560D01*
X129869898Y-117449560D01*
X129842417Y-117446854D01*
X129821897Y-117440629D01*
X129802984Y-117430520D01*
X129786406Y-117416914D01*
X129772800Y-117400336D01*
X129762691Y-117381423D01*
X129756466Y-117360903D01*
X129753760Y-117333422D01*
X129753760Y-116825698D01*
X129756466Y-116798217D01*
X129762691Y-116777697D01*
X129772800Y-116758784D01*
X129786406Y-116742206D01*
X129802984Y-116728600D01*
X129821897Y-116718491D01*
X129842417Y-116712266D01*
X129869898Y-116709560D01*
X130327622Y-116709560D01*
X130355103Y-116712266D01*
X130355103Y-116712266D01*
G37*
G36*
X129385103Y-116712266D02*
G01*
X129405623Y-116718491D01*
X129424536Y-116728600D01*
X129441114Y-116742206D01*
X129454720Y-116758784D01*
X129464829Y-116777697D01*
X129471054Y-116798217D01*
X129473760Y-116825698D01*
X129473760Y-117333422D01*
X129471054Y-117360903D01*
X129464829Y-117381423D01*
X129454720Y-117400336D01*
X129441114Y-117416914D01*
X129424536Y-117430520D01*
X129405623Y-117440629D01*
X129385103Y-117446854D01*
X129357622Y-117449560D01*
X128899898Y-117449560D01*
X128872417Y-117446854D01*
X128851897Y-117440629D01*
X128832984Y-117430520D01*
X128816406Y-117416914D01*
X128802800Y-117400336D01*
X128792691Y-117381423D01*
X128786466Y-117360903D01*
X128783760Y-117333422D01*
X128783760Y-116825698D01*
X128786466Y-116798217D01*
X128792691Y-116777697D01*
X128802800Y-116758784D01*
X128816406Y-116742206D01*
X128832984Y-116728600D01*
X128851897Y-116718491D01*
X128872417Y-116712266D01*
X128899898Y-116709560D01*
X129357622Y-116709560D01*
X129385103Y-116712266D01*
X129385103Y-116712266D01*
G37*
G36*
X136298343Y-116647706D02*
G01*
X136318863Y-116653931D01*
X136337776Y-116664040D01*
X136354354Y-116677646D01*
X136367960Y-116694224D01*
X136378069Y-116713137D01*
X136384294Y-116733657D01*
X136387000Y-116761138D01*
X136387000Y-117218862D01*
X136384294Y-117246343D01*
X136378069Y-117266863D01*
X136367960Y-117285776D01*
X136354354Y-117302354D01*
X136337776Y-117315960D01*
X136318863Y-117326069D01*
X136298343Y-117332294D01*
X136270862Y-117335000D01*
X135763138Y-117335000D01*
X135735657Y-117332294D01*
X135715137Y-117326069D01*
X135696224Y-117315960D01*
X135679646Y-117302354D01*
X135666040Y-117285776D01*
X135655931Y-117266863D01*
X135649706Y-117246343D01*
X135647000Y-117218862D01*
X135647000Y-116761138D01*
X135649706Y-116733657D01*
X135655931Y-116713137D01*
X135666040Y-116694224D01*
X135679646Y-116677646D01*
X135696224Y-116664040D01*
X135715137Y-116653931D01*
X135735657Y-116647706D01*
X135763138Y-116645000D01*
X136270862Y-116645000D01*
X136298343Y-116647706D01*
X136298343Y-116647706D01*
G37*
G36*
X105820000Y-117022000D02*
G01*
X104660000Y-117022000D01*
X104660000Y-116272000D01*
X105820000Y-116272000D01*
X105820000Y-117022000D01*
X105820000Y-117022000D01*
G37*
G36*
X103620000Y-117022000D02*
G01*
X102460000Y-117022000D01*
X102460000Y-114372000D01*
X103620000Y-114372000D01*
X103620000Y-117022000D01*
X103620000Y-117022000D01*
G37*
G36*
X132796800Y-116681600D02*
G01*
X131636800Y-116681600D01*
X131636800Y-114031600D01*
X132796800Y-114031600D01*
X132796800Y-116681600D01*
X132796800Y-116681600D01*
G37*
G36*
X134996800Y-116681600D02*
G01*
X133836800Y-116681600D01*
X133836800Y-115931600D01*
X134996800Y-115931600D01*
X134996800Y-116681600D01*
X134996800Y-116681600D01*
G37*
G36*
X107088343Y-115839706D02*
G01*
X107108863Y-115845931D01*
X107127776Y-115856040D01*
X107144354Y-115869646D01*
X107157960Y-115886224D01*
X107168069Y-115905137D01*
X107174294Y-115925657D01*
X107177000Y-115953138D01*
X107177000Y-116410862D01*
X107174294Y-116438343D01*
X107168069Y-116458863D01*
X107157960Y-116477776D01*
X107144354Y-116494354D01*
X107127776Y-116507960D01*
X107108863Y-116518069D01*
X107088343Y-116524294D01*
X107060862Y-116527000D01*
X106553138Y-116527000D01*
X106525657Y-116524294D01*
X106505137Y-116518069D01*
X106486224Y-116507960D01*
X106469646Y-116494354D01*
X106456040Y-116477776D01*
X106445931Y-116458863D01*
X106439706Y-116438343D01*
X106437000Y-116410862D01*
X106437000Y-115953138D01*
X106439706Y-115925657D01*
X106445931Y-115905137D01*
X106456040Y-115886224D01*
X106469646Y-115869646D01*
X106486224Y-115856040D01*
X106505137Y-115845931D01*
X106525657Y-115839706D01*
X106553138Y-115837000D01*
X107060862Y-115837000D01*
X107088343Y-115839706D01*
X107088343Y-115839706D01*
G37*
G36*
X110611000Y-116022660D02*
G01*
X109861000Y-116022660D01*
X109861000Y-114222660D01*
X110611000Y-114222660D01*
X110611000Y-116022660D01*
X110611000Y-116022660D01*
G37*
G36*
X113151000Y-116022660D02*
G01*
X112401000Y-116022660D01*
X112401000Y-114222660D01*
X113151000Y-114222660D01*
X113151000Y-116022660D01*
X113151000Y-116022660D01*
G37*
G36*
X111881000Y-116022660D02*
G01*
X111131000Y-116022660D01*
X111131000Y-114222660D01*
X111881000Y-114222660D01*
X111881000Y-116022660D01*
X111881000Y-116022660D01*
G37*
G36*
X109341000Y-116022660D02*
G01*
X108591000Y-116022660D01*
X108591000Y-114222660D01*
X109341000Y-114222660D01*
X109341000Y-116022660D01*
X109341000Y-116022660D01*
G37*
G36*
X107088343Y-114869706D02*
G01*
X107108863Y-114875931D01*
X107127776Y-114886040D01*
X107144354Y-114899646D01*
X107157960Y-114916224D01*
X107168069Y-114935137D01*
X107174294Y-114955657D01*
X107177000Y-114983138D01*
X107177000Y-115440862D01*
X107174294Y-115468343D01*
X107168069Y-115488863D01*
X107157960Y-115507776D01*
X107144354Y-115524354D01*
X107127776Y-115537960D01*
X107108863Y-115548069D01*
X107088343Y-115554294D01*
X107060862Y-115557000D01*
X106553138Y-115557000D01*
X106525657Y-115554294D01*
X106505137Y-115548069D01*
X106486224Y-115537960D01*
X106469646Y-115524354D01*
X106456040Y-115507776D01*
X106445931Y-115488863D01*
X106439706Y-115468343D01*
X106437000Y-115440862D01*
X106437000Y-114983138D01*
X106439706Y-114955657D01*
X106445931Y-114935137D01*
X106456040Y-114916224D01*
X106469646Y-114899646D01*
X106486224Y-114886040D01*
X106505137Y-114875931D01*
X106525657Y-114869706D01*
X106553138Y-114867000D01*
X107060862Y-114867000D01*
X107088343Y-114869706D01*
X107088343Y-114869706D01*
G37*
G36*
X120200083Y-114549926D02*
G01*
X120220603Y-114556151D01*
X120239516Y-114566260D01*
X120256094Y-114579866D01*
X120269700Y-114596444D01*
X120279809Y-114615357D01*
X120286034Y-114635877D01*
X120288740Y-114663358D01*
X120288740Y-115171082D01*
X120286034Y-115198563D01*
X120279809Y-115219083D01*
X120269700Y-115237996D01*
X120256094Y-115254574D01*
X120239516Y-115268180D01*
X120220603Y-115278289D01*
X120200083Y-115284514D01*
X120172602Y-115287220D01*
X119714878Y-115287220D01*
X119687397Y-115284514D01*
X119666877Y-115278289D01*
X119647964Y-115268180D01*
X119631386Y-115254574D01*
X119617780Y-115237996D01*
X119607671Y-115219083D01*
X119601446Y-115198563D01*
X119598740Y-115171082D01*
X119598740Y-114663358D01*
X119601446Y-114635877D01*
X119607671Y-114615357D01*
X119617780Y-114596444D01*
X119631386Y-114579866D01*
X119647964Y-114566260D01*
X119666877Y-114556151D01*
X119687397Y-114549926D01*
X119714878Y-114547220D01*
X120172602Y-114547220D01*
X120200083Y-114549926D01*
X120200083Y-114549926D01*
G37*
G36*
X119230083Y-114549926D02*
G01*
X119250603Y-114556151D01*
X119269516Y-114566260D01*
X119286094Y-114579866D01*
X119299700Y-114596444D01*
X119309809Y-114615357D01*
X119316034Y-114635877D01*
X119318740Y-114663358D01*
X119318740Y-115171082D01*
X119316034Y-115198563D01*
X119309809Y-115219083D01*
X119299700Y-115237996D01*
X119286094Y-115254574D01*
X119269516Y-115268180D01*
X119250603Y-115278289D01*
X119230083Y-115284514D01*
X119202602Y-115287220D01*
X118744878Y-115287220D01*
X118717397Y-115284514D01*
X118696877Y-115278289D01*
X118677964Y-115268180D01*
X118661386Y-115254574D01*
X118647780Y-115237996D01*
X118637671Y-115219083D01*
X118631446Y-115198563D01*
X118628740Y-115171082D01*
X118628740Y-114663358D01*
X118631446Y-114635877D01*
X118637671Y-114615357D01*
X118647780Y-114596444D01*
X118661386Y-114579866D01*
X118677964Y-114566260D01*
X118696877Y-114556151D01*
X118717397Y-114549926D01*
X118744878Y-114547220D01*
X119202602Y-114547220D01*
X119230083Y-114549926D01*
X119230083Y-114549926D01*
G37*
G36*
X116923223Y-114465566D02*
G01*
X116943743Y-114471791D01*
X116962656Y-114481900D01*
X116979234Y-114495506D01*
X116992840Y-114512084D01*
X117002949Y-114530997D01*
X117009174Y-114551517D01*
X117011880Y-114578998D01*
X117011880Y-115036722D01*
X117009174Y-115064203D01*
X117002949Y-115084723D01*
X116992840Y-115103636D01*
X116979234Y-115120214D01*
X116962656Y-115133820D01*
X116943743Y-115143929D01*
X116923223Y-115150154D01*
X116895742Y-115152860D01*
X116388018Y-115152860D01*
X116360537Y-115150154D01*
X116340017Y-115143929D01*
X116321104Y-115133820D01*
X116304526Y-115120214D01*
X116290920Y-115103636D01*
X116280811Y-115084723D01*
X116274586Y-115064203D01*
X116271880Y-115036722D01*
X116271880Y-114578998D01*
X116274586Y-114551517D01*
X116280811Y-114530997D01*
X116290920Y-114512084D01*
X116304526Y-114495506D01*
X116321104Y-114481900D01*
X116340017Y-114471791D01*
X116360537Y-114465566D01*
X116388018Y-114462860D01*
X116895742Y-114462860D01*
X116923223Y-114465566D01*
X116923223Y-114465566D01*
G37*
G36*
X105820000Y-115122000D02*
G01*
X104660000Y-115122000D01*
X104660000Y-114372000D01*
X105820000Y-114372000D01*
X105820000Y-115122000D01*
X105820000Y-115122000D01*
G37*
G36*
X134996800Y-114781600D02*
G01*
X133836800Y-114781600D01*
X133836800Y-114031600D01*
X134996800Y-114031600D01*
X134996800Y-114781600D01*
X134996800Y-114781600D01*
G37*
G36*
X119235163Y-113462806D02*
G01*
X119255683Y-113469031D01*
X119274596Y-113479140D01*
X119291174Y-113492746D01*
X119304780Y-113509324D01*
X119314889Y-113528237D01*
X119321114Y-113548757D01*
X119323820Y-113576238D01*
X119323820Y-114083962D01*
X119321114Y-114111443D01*
X119314889Y-114131963D01*
X119304780Y-114150876D01*
X119291174Y-114167454D01*
X119274596Y-114181060D01*
X119255683Y-114191169D01*
X119235163Y-114197394D01*
X119207682Y-114200100D01*
X118749958Y-114200100D01*
X118722477Y-114197394D01*
X118701957Y-114191169D01*
X118683044Y-114181060D01*
X118666466Y-114167454D01*
X118652860Y-114150876D01*
X118642751Y-114131963D01*
X118636526Y-114111443D01*
X118633820Y-114083962D01*
X118633820Y-113576238D01*
X118636526Y-113548757D01*
X118642751Y-113528237D01*
X118652860Y-113509324D01*
X118666466Y-113492746D01*
X118683044Y-113479140D01*
X118701957Y-113469031D01*
X118722477Y-113462806D01*
X118749958Y-113460100D01*
X119207682Y-113460100D01*
X119235163Y-113462806D01*
X119235163Y-113462806D01*
G37*
G36*
X120205163Y-113462806D02*
G01*
X120225683Y-113469031D01*
X120244596Y-113479140D01*
X120261174Y-113492746D01*
X120274780Y-113509324D01*
X120284889Y-113528237D01*
X120291114Y-113548757D01*
X120293820Y-113576238D01*
X120293820Y-114083962D01*
X120291114Y-114111443D01*
X120284889Y-114131963D01*
X120274780Y-114150876D01*
X120261174Y-114167454D01*
X120244596Y-114181060D01*
X120225683Y-114191169D01*
X120205163Y-114197394D01*
X120177682Y-114200100D01*
X119719958Y-114200100D01*
X119692477Y-114197394D01*
X119671957Y-114191169D01*
X119653044Y-114181060D01*
X119636466Y-114167454D01*
X119622860Y-114150876D01*
X119612751Y-114131963D01*
X119606526Y-114111443D01*
X119603820Y-114083962D01*
X119603820Y-113576238D01*
X119606526Y-113548757D01*
X119612751Y-113528237D01*
X119622860Y-113509324D01*
X119636466Y-113492746D01*
X119653044Y-113479140D01*
X119671957Y-113469031D01*
X119692477Y-113462806D01*
X119719958Y-113460100D01*
X120177682Y-113460100D01*
X120205163Y-113462806D01*
X120205163Y-113462806D01*
G37*
G36*
X116923223Y-113495566D02*
G01*
X116943743Y-113501791D01*
X116962656Y-113511900D01*
X116979234Y-113525506D01*
X116992840Y-113542084D01*
X117002949Y-113560997D01*
X117009174Y-113581517D01*
X117011880Y-113608998D01*
X117011880Y-114066722D01*
X117009174Y-114094203D01*
X117002949Y-114114723D01*
X116992840Y-114133636D01*
X116979234Y-114150214D01*
X116962656Y-114163820D01*
X116943743Y-114173929D01*
X116923223Y-114180154D01*
X116895742Y-114182860D01*
X116388018Y-114182860D01*
X116360537Y-114180154D01*
X116340017Y-114173929D01*
X116321104Y-114163820D01*
X116304526Y-114150214D01*
X116290920Y-114133636D01*
X116280811Y-114114723D01*
X116274586Y-114094203D01*
X116271880Y-114066722D01*
X116271880Y-113608998D01*
X116274586Y-113581517D01*
X116280811Y-113560997D01*
X116290920Y-113542084D01*
X116304526Y-113525506D01*
X116321104Y-113511900D01*
X116340017Y-113501791D01*
X116360537Y-113495566D01*
X116388018Y-113492860D01*
X116895742Y-113492860D01*
X116923223Y-113495566D01*
X116923223Y-113495566D01*
G37*
G36*
X103092210Y-112009899D02*
G01*
X103156609Y-112022709D01*
X103338598Y-112098091D01*
X103502383Y-112207529D01*
X103641671Y-112346817D01*
X103751109Y-112510602D01*
X103826491Y-112692591D01*
X103826491Y-112692592D01*
X103848699Y-112804237D01*
X103864920Y-112885789D01*
X103864920Y-113082771D01*
X103826491Y-113275969D01*
X103751109Y-113457958D01*
X103641671Y-113621743D01*
X103502383Y-113761031D01*
X103338598Y-113870469D01*
X103156609Y-113945851D01*
X103092210Y-113958661D01*
X102963413Y-113984280D01*
X102766427Y-113984280D01*
X102637630Y-113958661D01*
X102573231Y-113945851D01*
X102391242Y-113870469D01*
X102227457Y-113761031D01*
X102088169Y-113621743D01*
X101978731Y-113457958D01*
X101903349Y-113275969D01*
X101864920Y-113082771D01*
X101864920Y-112885789D01*
X101881142Y-112804237D01*
X101903349Y-112692592D01*
X101903349Y-112692591D01*
X101978731Y-112510602D01*
X102088169Y-112346817D01*
X102227457Y-112207529D01*
X102391242Y-112098091D01*
X102573231Y-112022709D01*
X102637630Y-112009899D01*
X102766427Y-111984280D01*
X102963413Y-111984280D01*
X103092210Y-112009899D01*
X103092210Y-112009899D01*
G37*
G36*
X110595403Y-112718286D02*
G01*
X110615923Y-112724511D01*
X110634836Y-112734620D01*
X110651414Y-112748226D01*
X110665020Y-112764804D01*
X110675129Y-112783717D01*
X110681354Y-112804237D01*
X110684060Y-112831718D01*
X110684060Y-113339442D01*
X110681354Y-113366923D01*
X110675129Y-113387443D01*
X110665020Y-113406356D01*
X110651414Y-113422934D01*
X110634836Y-113436540D01*
X110615923Y-113446649D01*
X110595403Y-113452874D01*
X110567922Y-113455580D01*
X110110198Y-113455580D01*
X110082717Y-113452874D01*
X110062197Y-113446649D01*
X110043284Y-113436540D01*
X110026706Y-113422934D01*
X110013100Y-113406356D01*
X110002991Y-113387443D01*
X109996766Y-113366923D01*
X109994060Y-113339442D01*
X109994060Y-112831718D01*
X109996766Y-112804237D01*
X110002991Y-112783717D01*
X110013100Y-112764804D01*
X110026706Y-112748226D01*
X110043284Y-112734620D01*
X110062197Y-112724511D01*
X110082717Y-112718286D01*
X110110198Y-112715580D01*
X110567922Y-112715580D01*
X110595403Y-112718286D01*
X110595403Y-112718286D01*
G37*
G36*
X109625403Y-112718286D02*
G01*
X109645923Y-112724511D01*
X109664836Y-112734620D01*
X109681414Y-112748226D01*
X109695020Y-112764804D01*
X109705129Y-112783717D01*
X109711354Y-112804237D01*
X109714060Y-112831718D01*
X109714060Y-113339442D01*
X109711354Y-113366923D01*
X109705129Y-113387443D01*
X109695020Y-113406356D01*
X109681414Y-113422934D01*
X109664836Y-113436540D01*
X109645923Y-113446649D01*
X109625403Y-113452874D01*
X109597922Y-113455580D01*
X109140198Y-113455580D01*
X109112717Y-113452874D01*
X109092197Y-113446649D01*
X109073284Y-113436540D01*
X109056706Y-113422934D01*
X109043100Y-113406356D01*
X109032991Y-113387443D01*
X109026766Y-113366923D01*
X109024060Y-113339442D01*
X109024060Y-112831718D01*
X109026766Y-112804237D01*
X109032991Y-112783717D01*
X109043100Y-112764804D01*
X109056706Y-112748226D01*
X109073284Y-112734620D01*
X109092197Y-112724511D01*
X109112717Y-112718286D01*
X109140198Y-112715580D01*
X109597922Y-112715580D01*
X109625403Y-112718286D01*
X109625403Y-112718286D01*
G37*
G36*
X133883343Y-112535706D02*
G01*
X133903863Y-112541931D01*
X133922776Y-112552040D01*
X133939354Y-112565646D01*
X133952960Y-112582224D01*
X133963069Y-112601137D01*
X133969294Y-112621657D01*
X133972000Y-112649138D01*
X133972000Y-113156862D01*
X133969294Y-113184343D01*
X133963069Y-113204863D01*
X133952960Y-113223776D01*
X133939354Y-113240354D01*
X133922776Y-113253960D01*
X133903863Y-113264069D01*
X133883343Y-113270294D01*
X133855862Y-113273000D01*
X133398138Y-113273000D01*
X133370657Y-113270294D01*
X133350137Y-113264069D01*
X133331224Y-113253960D01*
X133314646Y-113240354D01*
X133301040Y-113223776D01*
X133290931Y-113204863D01*
X133284706Y-113184343D01*
X133282000Y-113156862D01*
X133282000Y-112649138D01*
X133284706Y-112621657D01*
X133290931Y-112601137D01*
X133301040Y-112582224D01*
X133314646Y-112565646D01*
X133331224Y-112552040D01*
X133350137Y-112541931D01*
X133370657Y-112535706D01*
X133398138Y-112533000D01*
X133855862Y-112533000D01*
X133883343Y-112535706D01*
X133883343Y-112535706D01*
G37*
G36*
X134853343Y-112535706D02*
G01*
X134873863Y-112541931D01*
X134892776Y-112552040D01*
X134909354Y-112565646D01*
X134922960Y-112582224D01*
X134933069Y-112601137D01*
X134939294Y-112621657D01*
X134942000Y-112649138D01*
X134942000Y-113156862D01*
X134939294Y-113184343D01*
X134933069Y-113204863D01*
X134922960Y-113223776D01*
X134909354Y-113240354D01*
X134892776Y-113253960D01*
X134873863Y-113264069D01*
X134853343Y-113270294D01*
X134825862Y-113273000D01*
X134368138Y-113273000D01*
X134340657Y-113270294D01*
X134320137Y-113264069D01*
X134301224Y-113253960D01*
X134284646Y-113240354D01*
X134271040Y-113223776D01*
X134260931Y-113204863D01*
X134254706Y-113184343D01*
X134252000Y-113156862D01*
X134252000Y-112649138D01*
X134254706Y-112621657D01*
X134260931Y-112601137D01*
X134271040Y-112582224D01*
X134284646Y-112565646D01*
X134301224Y-112552040D01*
X134320137Y-112541931D01*
X134340657Y-112535706D01*
X134368138Y-112533000D01*
X134825862Y-112533000D01*
X134853343Y-112535706D01*
X134853343Y-112535706D01*
G37*
G36*
X111077978Y-108328039D02*
G01*
X111150561Y-108350057D01*
X111217446Y-108385808D01*
X111276077Y-108433923D01*
X111324192Y-108492554D01*
X111359943Y-108559439D01*
X111381961Y-108632022D01*
X111390000Y-108713641D01*
X111390000Y-109726359D01*
X111381961Y-109807978D01*
X111359943Y-109880561D01*
X111324192Y-109947446D01*
X111314382Y-109959400D01*
X111300768Y-109979774D01*
X111291391Y-110002413D01*
X111286611Y-110026446D01*
X111286611Y-110050951D01*
X111291392Y-110074984D01*
X111300768Y-110097621D01*
X111325513Y-110143916D01*
X111376978Y-110313573D01*
X111394354Y-110490000D01*
X111376978Y-110666427D01*
X111325512Y-110836086D01*
X111241944Y-110992431D01*
X111129475Y-111129475D01*
X110992431Y-111241944D01*
X110836086Y-111325512D01*
X110836083Y-111325513D01*
X110836081Y-111325514D01*
X110666431Y-111376977D01*
X110666430Y-111376977D01*
X110666427Y-111376978D01*
X110534211Y-111390000D01*
X110445789Y-111390000D01*
X110313573Y-111376978D01*
X110313570Y-111376977D01*
X110313569Y-111376977D01*
X110143919Y-111325514D01*
X110143917Y-111325513D01*
X110143914Y-111325512D01*
X109987569Y-111241944D01*
X109850525Y-111129475D01*
X109738056Y-110992431D01*
X109654488Y-110836086D01*
X109603022Y-110666427D01*
X109585646Y-110490000D01*
X109603022Y-110313573D01*
X109654487Y-110143916D01*
X109679232Y-110097621D01*
X109688609Y-110074983D01*
X109693389Y-110050949D01*
X109693389Y-110026445D01*
X109688608Y-110002412D01*
X109679231Y-109979773D01*
X109665618Y-109959400D01*
X109655808Y-109947446D01*
X109620057Y-109880561D01*
X109598039Y-109807978D01*
X109590000Y-109726359D01*
X109590000Y-108713641D01*
X109598039Y-108632022D01*
X109620057Y-108559439D01*
X109655808Y-108492554D01*
X109703923Y-108433923D01*
X109762554Y-108385808D01*
X109829439Y-108350057D01*
X109902022Y-108328039D01*
X109983641Y-108320000D01*
X110996359Y-108320000D01*
X111077978Y-108328039D01*
X111077978Y-108328039D01*
G37*
G36*
X136477978Y-108328039D02*
G01*
X136550561Y-108350057D01*
X136617446Y-108385808D01*
X136676077Y-108433923D01*
X136724192Y-108492554D01*
X136759943Y-108559439D01*
X136781961Y-108632022D01*
X136790000Y-108713641D01*
X136790000Y-109726359D01*
X136781961Y-109807978D01*
X136759943Y-109880561D01*
X136724192Y-109947446D01*
X136714382Y-109959400D01*
X136700768Y-109979774D01*
X136691391Y-110002413D01*
X136686611Y-110026446D01*
X136686611Y-110050951D01*
X136691392Y-110074984D01*
X136700768Y-110097621D01*
X136725513Y-110143916D01*
X136776978Y-110313573D01*
X136794354Y-110490000D01*
X136776978Y-110666427D01*
X136725512Y-110836086D01*
X136641944Y-110992431D01*
X136529475Y-111129475D01*
X136392431Y-111241944D01*
X136236086Y-111325512D01*
X136236083Y-111325513D01*
X136236081Y-111325514D01*
X136066431Y-111376977D01*
X136066430Y-111376977D01*
X136066427Y-111376978D01*
X135934211Y-111390000D01*
X135845789Y-111390000D01*
X135713573Y-111376978D01*
X135713570Y-111376977D01*
X135713569Y-111376977D01*
X135543919Y-111325514D01*
X135543917Y-111325513D01*
X135543914Y-111325512D01*
X135387569Y-111241944D01*
X135250525Y-111129475D01*
X135138056Y-110992431D01*
X135054488Y-110836086D01*
X135003022Y-110666427D01*
X134985646Y-110490000D01*
X135003022Y-110313573D01*
X135054487Y-110143916D01*
X135079232Y-110097621D01*
X135088609Y-110074983D01*
X135093389Y-110050949D01*
X135093389Y-110026445D01*
X135088608Y-110002412D01*
X135079231Y-109979773D01*
X135065618Y-109959400D01*
X135055808Y-109947446D01*
X135020057Y-109880561D01*
X134998039Y-109807978D01*
X134990000Y-109726359D01*
X134990000Y-108713641D01*
X134998039Y-108632022D01*
X135020057Y-108559439D01*
X135055808Y-108492554D01*
X135103923Y-108433923D01*
X135162554Y-108385808D01*
X135229439Y-108350057D01*
X135302022Y-108328039D01*
X135383641Y-108320000D01*
X136396359Y-108320000D01*
X136477978Y-108328039D01*
X136477978Y-108328039D01*
G37*
G36*
X113617978Y-108328039D02*
G01*
X113690561Y-108350057D01*
X113757446Y-108385808D01*
X113816077Y-108433923D01*
X113864192Y-108492554D01*
X113899943Y-108559439D01*
X113921961Y-108632022D01*
X113930000Y-108713641D01*
X113930000Y-109726359D01*
X113921961Y-109807978D01*
X113899943Y-109880561D01*
X113864192Y-109947446D01*
X113854382Y-109959400D01*
X113840768Y-109979774D01*
X113831391Y-110002413D01*
X113826611Y-110026446D01*
X113826611Y-110050951D01*
X113831392Y-110074984D01*
X113840768Y-110097621D01*
X113865513Y-110143916D01*
X113916978Y-110313573D01*
X113934354Y-110490000D01*
X113916978Y-110666427D01*
X113865512Y-110836086D01*
X113781944Y-110992431D01*
X113669475Y-111129475D01*
X113532431Y-111241944D01*
X113376086Y-111325512D01*
X113376083Y-111325513D01*
X113376081Y-111325514D01*
X113206431Y-111376977D01*
X113206430Y-111376977D01*
X113206427Y-111376978D01*
X113074211Y-111390000D01*
X112985789Y-111390000D01*
X112853573Y-111376978D01*
X112853570Y-111376977D01*
X112853569Y-111376977D01*
X112683919Y-111325514D01*
X112683917Y-111325513D01*
X112683914Y-111325512D01*
X112527569Y-111241944D01*
X112390525Y-111129475D01*
X112278056Y-110992431D01*
X112194488Y-110836086D01*
X112143022Y-110666427D01*
X112125646Y-110490000D01*
X112143022Y-110313573D01*
X112194487Y-110143916D01*
X112219232Y-110097621D01*
X112228609Y-110074983D01*
X112233389Y-110050949D01*
X112233389Y-110026445D01*
X112228608Y-110002412D01*
X112219231Y-109979773D01*
X112205618Y-109959400D01*
X112195808Y-109947446D01*
X112160057Y-109880561D01*
X112138039Y-109807978D01*
X112130000Y-109726359D01*
X112130000Y-108713641D01*
X112138039Y-108632022D01*
X112160057Y-108559439D01*
X112195808Y-108492554D01*
X112243923Y-108433923D01*
X112302554Y-108385808D01*
X112369439Y-108350057D01*
X112442022Y-108328039D01*
X112523641Y-108320000D01*
X113536359Y-108320000D01*
X113617978Y-108328039D01*
X113617978Y-108328039D01*
G37*
G36*
X116157978Y-108328039D02*
G01*
X116230561Y-108350057D01*
X116297446Y-108385808D01*
X116356077Y-108433923D01*
X116404192Y-108492554D01*
X116439943Y-108559439D01*
X116461961Y-108632022D01*
X116470000Y-108713641D01*
X116470000Y-109726359D01*
X116461961Y-109807978D01*
X116439943Y-109880561D01*
X116404192Y-109947446D01*
X116394382Y-109959400D01*
X116380768Y-109979774D01*
X116371391Y-110002413D01*
X116366611Y-110026446D01*
X116366611Y-110050951D01*
X116371392Y-110074984D01*
X116380768Y-110097621D01*
X116405513Y-110143916D01*
X116456978Y-110313573D01*
X116474354Y-110490000D01*
X116456978Y-110666427D01*
X116405512Y-110836086D01*
X116321944Y-110992431D01*
X116209475Y-111129475D01*
X116072431Y-111241944D01*
X115916086Y-111325512D01*
X115916083Y-111325513D01*
X115916081Y-111325514D01*
X115746431Y-111376977D01*
X115746430Y-111376977D01*
X115746427Y-111376978D01*
X115614211Y-111390000D01*
X115525789Y-111390000D01*
X115393573Y-111376978D01*
X115393570Y-111376977D01*
X115393569Y-111376977D01*
X115223919Y-111325514D01*
X115223917Y-111325513D01*
X115223914Y-111325512D01*
X115067569Y-111241944D01*
X114930525Y-111129475D01*
X114818056Y-110992431D01*
X114734488Y-110836086D01*
X114683022Y-110666427D01*
X114665646Y-110490000D01*
X114683022Y-110313573D01*
X114734487Y-110143916D01*
X114759232Y-110097621D01*
X114768609Y-110074983D01*
X114773389Y-110050949D01*
X114773389Y-110026445D01*
X114768608Y-110002412D01*
X114759231Y-109979773D01*
X114745618Y-109959400D01*
X114735808Y-109947446D01*
X114700057Y-109880561D01*
X114678039Y-109807978D01*
X114670000Y-109726359D01*
X114670000Y-108713641D01*
X114678039Y-108632022D01*
X114700057Y-108559439D01*
X114735808Y-108492554D01*
X114783923Y-108433923D01*
X114842554Y-108385808D01*
X114909439Y-108350057D01*
X114982022Y-108328039D01*
X115063641Y-108320000D01*
X116076359Y-108320000D01*
X116157978Y-108328039D01*
X116157978Y-108328039D01*
G37*
G36*
X118697978Y-108328039D02*
G01*
X118770561Y-108350057D01*
X118837446Y-108385808D01*
X118896077Y-108433923D01*
X118944192Y-108492554D01*
X118979943Y-108559439D01*
X119001961Y-108632022D01*
X119010000Y-108713641D01*
X119010000Y-109726359D01*
X119001961Y-109807978D01*
X118979943Y-109880561D01*
X118944192Y-109947446D01*
X118934382Y-109959400D01*
X118920768Y-109979774D01*
X118911391Y-110002413D01*
X118906611Y-110026446D01*
X118906611Y-110050951D01*
X118911392Y-110074984D01*
X118920768Y-110097621D01*
X118945513Y-110143916D01*
X118996978Y-110313573D01*
X119014354Y-110490000D01*
X118996978Y-110666427D01*
X118945512Y-110836086D01*
X118861944Y-110992431D01*
X118749475Y-111129475D01*
X118612431Y-111241944D01*
X118456086Y-111325512D01*
X118456083Y-111325513D01*
X118456081Y-111325514D01*
X118286431Y-111376977D01*
X118286430Y-111376977D01*
X118286427Y-111376978D01*
X118154211Y-111390000D01*
X118065789Y-111390000D01*
X117933573Y-111376978D01*
X117933570Y-111376977D01*
X117933569Y-111376977D01*
X117763919Y-111325514D01*
X117763917Y-111325513D01*
X117763914Y-111325512D01*
X117607569Y-111241944D01*
X117470525Y-111129475D01*
X117358056Y-110992431D01*
X117274488Y-110836086D01*
X117223022Y-110666427D01*
X117205646Y-110490000D01*
X117223022Y-110313573D01*
X117274487Y-110143916D01*
X117299232Y-110097621D01*
X117308609Y-110074983D01*
X117313389Y-110050949D01*
X117313389Y-110026445D01*
X117308608Y-110002412D01*
X117299231Y-109979773D01*
X117285618Y-109959400D01*
X117275808Y-109947446D01*
X117240057Y-109880561D01*
X117218039Y-109807978D01*
X117210000Y-109726359D01*
X117210000Y-108713641D01*
X117218039Y-108632022D01*
X117240057Y-108559439D01*
X117275808Y-108492554D01*
X117323923Y-108433923D01*
X117382554Y-108385808D01*
X117449439Y-108350057D01*
X117522022Y-108328039D01*
X117603641Y-108320000D01*
X118616359Y-108320000D01*
X118697978Y-108328039D01*
X118697978Y-108328039D01*
G37*
G36*
X121237978Y-108328039D02*
G01*
X121310561Y-108350057D01*
X121377446Y-108385808D01*
X121436077Y-108433923D01*
X121484192Y-108492554D01*
X121519943Y-108559439D01*
X121541961Y-108632022D01*
X121550000Y-108713641D01*
X121550000Y-109726359D01*
X121541961Y-109807978D01*
X121519943Y-109880561D01*
X121484192Y-109947446D01*
X121474382Y-109959400D01*
X121460768Y-109979774D01*
X121451391Y-110002413D01*
X121446611Y-110026446D01*
X121446611Y-110050951D01*
X121451392Y-110074984D01*
X121460768Y-110097621D01*
X121485513Y-110143916D01*
X121536978Y-110313573D01*
X121554354Y-110490000D01*
X121536978Y-110666427D01*
X121485512Y-110836086D01*
X121401944Y-110992431D01*
X121289475Y-111129475D01*
X121152431Y-111241944D01*
X120996086Y-111325512D01*
X120996083Y-111325513D01*
X120996081Y-111325514D01*
X120826431Y-111376977D01*
X120826430Y-111376977D01*
X120826427Y-111376978D01*
X120694211Y-111390000D01*
X120605789Y-111390000D01*
X120473573Y-111376978D01*
X120473570Y-111376977D01*
X120473569Y-111376977D01*
X120303919Y-111325514D01*
X120303917Y-111325513D01*
X120303914Y-111325512D01*
X120147569Y-111241944D01*
X120010525Y-111129475D01*
X119898056Y-110992431D01*
X119814488Y-110836086D01*
X119763022Y-110666427D01*
X119745646Y-110490000D01*
X119763022Y-110313573D01*
X119814487Y-110143916D01*
X119839232Y-110097621D01*
X119848609Y-110074983D01*
X119853389Y-110050949D01*
X119853389Y-110026445D01*
X119848608Y-110002412D01*
X119839231Y-109979773D01*
X119825618Y-109959400D01*
X119815808Y-109947446D01*
X119780057Y-109880561D01*
X119758039Y-109807978D01*
X119750000Y-109726359D01*
X119750000Y-108713641D01*
X119758039Y-108632022D01*
X119780057Y-108559439D01*
X119815808Y-108492554D01*
X119863923Y-108433923D01*
X119922554Y-108385808D01*
X119989439Y-108350057D01*
X120062022Y-108328039D01*
X120143641Y-108320000D01*
X121156359Y-108320000D01*
X121237978Y-108328039D01*
X121237978Y-108328039D01*
G37*
G36*
X123777978Y-108328039D02*
G01*
X123850561Y-108350057D01*
X123917446Y-108385808D01*
X123976077Y-108433923D01*
X124024192Y-108492554D01*
X124059943Y-108559439D01*
X124081961Y-108632022D01*
X124090000Y-108713641D01*
X124090000Y-109726359D01*
X124081961Y-109807978D01*
X124059943Y-109880561D01*
X124024192Y-109947446D01*
X124014382Y-109959400D01*
X124000768Y-109979774D01*
X123991391Y-110002413D01*
X123986611Y-110026446D01*
X123986611Y-110050951D01*
X123991392Y-110074984D01*
X124000768Y-110097621D01*
X124025513Y-110143916D01*
X124076978Y-110313573D01*
X124094354Y-110490000D01*
X124076978Y-110666427D01*
X124025512Y-110836086D01*
X123941944Y-110992431D01*
X123829475Y-111129475D01*
X123692431Y-111241944D01*
X123536086Y-111325512D01*
X123536083Y-111325513D01*
X123536081Y-111325514D01*
X123366431Y-111376977D01*
X123366430Y-111376977D01*
X123366427Y-111376978D01*
X123234211Y-111390000D01*
X123145789Y-111390000D01*
X123013573Y-111376978D01*
X123013570Y-111376977D01*
X123013569Y-111376977D01*
X122843919Y-111325514D01*
X122843917Y-111325513D01*
X122843914Y-111325512D01*
X122687569Y-111241944D01*
X122550525Y-111129475D01*
X122438056Y-110992431D01*
X122354488Y-110836086D01*
X122303022Y-110666427D01*
X122285646Y-110490000D01*
X122303022Y-110313573D01*
X122354487Y-110143916D01*
X122379232Y-110097621D01*
X122388609Y-110074983D01*
X122393389Y-110050949D01*
X122393389Y-110026445D01*
X122388608Y-110002412D01*
X122379231Y-109979773D01*
X122365618Y-109959400D01*
X122355808Y-109947446D01*
X122320057Y-109880561D01*
X122298039Y-109807978D01*
X122290000Y-109726359D01*
X122290000Y-108713641D01*
X122298039Y-108632022D01*
X122320057Y-108559439D01*
X122355808Y-108492554D01*
X122403923Y-108433923D01*
X122462554Y-108385808D01*
X122529439Y-108350057D01*
X122602022Y-108328039D01*
X122683641Y-108320000D01*
X123696359Y-108320000D01*
X123777978Y-108328039D01*
X123777978Y-108328039D01*
G37*
G36*
X103457978Y-108328039D02*
G01*
X103530561Y-108350057D01*
X103597446Y-108385808D01*
X103656077Y-108433923D01*
X103704192Y-108492554D01*
X103739943Y-108559439D01*
X103761961Y-108632022D01*
X103770000Y-108713641D01*
X103770000Y-111390000D01*
X101970000Y-111390000D01*
X101970000Y-108713641D01*
X101978039Y-108632022D01*
X102000057Y-108559439D01*
X102035808Y-108492554D01*
X102083923Y-108433923D01*
X102142554Y-108385808D01*
X102209439Y-108350057D01*
X102282022Y-108328039D01*
X102363641Y-108320000D01*
X103376359Y-108320000D01*
X103457978Y-108328039D01*
X103457978Y-108328039D01*
G37*
G36*
X133937978Y-108328039D02*
G01*
X134010561Y-108350057D01*
X134077446Y-108385808D01*
X134136077Y-108433923D01*
X134184192Y-108492554D01*
X134219943Y-108559439D01*
X134241961Y-108632022D01*
X134250000Y-108713641D01*
X134250000Y-109726359D01*
X134241961Y-109807978D01*
X134219943Y-109880561D01*
X134184192Y-109947446D01*
X134174382Y-109959400D01*
X134160768Y-109979774D01*
X134151391Y-110002413D01*
X134146611Y-110026446D01*
X134146611Y-110050951D01*
X134151392Y-110074984D01*
X134160768Y-110097621D01*
X134185513Y-110143916D01*
X134236978Y-110313573D01*
X134254354Y-110490000D01*
X134236978Y-110666427D01*
X134185512Y-110836086D01*
X134101944Y-110992431D01*
X133989475Y-111129475D01*
X133852431Y-111241944D01*
X133696086Y-111325512D01*
X133696083Y-111325513D01*
X133696081Y-111325514D01*
X133526431Y-111376977D01*
X133526430Y-111376977D01*
X133526427Y-111376978D01*
X133394211Y-111390000D01*
X133305789Y-111390000D01*
X133173573Y-111376978D01*
X133173570Y-111376977D01*
X133173569Y-111376977D01*
X133003919Y-111325514D01*
X133003917Y-111325513D01*
X133003914Y-111325512D01*
X132847569Y-111241944D01*
X132710525Y-111129475D01*
X132598056Y-110992431D01*
X132514488Y-110836086D01*
X132463022Y-110666427D01*
X132445646Y-110490000D01*
X132463022Y-110313573D01*
X132514487Y-110143916D01*
X132539232Y-110097621D01*
X132548609Y-110074983D01*
X132553389Y-110050949D01*
X132553389Y-110026445D01*
X132548608Y-110002412D01*
X132539231Y-109979773D01*
X132525618Y-109959400D01*
X132515808Y-109947446D01*
X132480057Y-109880561D01*
X132458039Y-109807978D01*
X132450000Y-109726359D01*
X132450000Y-108713641D01*
X132458039Y-108632022D01*
X132480057Y-108559439D01*
X132515808Y-108492554D01*
X132563923Y-108433923D01*
X132622554Y-108385808D01*
X132689439Y-108350057D01*
X132762022Y-108328039D01*
X132843641Y-108320000D01*
X133856359Y-108320000D01*
X133937978Y-108328039D01*
X133937978Y-108328039D01*
G37*
G36*
X105997978Y-108328039D02*
G01*
X106070561Y-108350057D01*
X106137446Y-108385808D01*
X106196077Y-108433923D01*
X106244192Y-108492554D01*
X106279943Y-108559439D01*
X106301961Y-108632022D01*
X106310000Y-108713641D01*
X106310000Y-109726359D01*
X106301961Y-109807978D01*
X106279943Y-109880561D01*
X106244192Y-109947446D01*
X106234382Y-109959400D01*
X106220768Y-109979774D01*
X106211391Y-110002413D01*
X106206611Y-110026446D01*
X106206611Y-110050951D01*
X106211392Y-110074984D01*
X106220768Y-110097621D01*
X106245513Y-110143916D01*
X106296978Y-110313573D01*
X106314354Y-110490000D01*
X106296978Y-110666427D01*
X106245512Y-110836086D01*
X106161944Y-110992431D01*
X106049475Y-111129475D01*
X105912431Y-111241944D01*
X105756086Y-111325512D01*
X105756083Y-111325513D01*
X105756081Y-111325514D01*
X105586431Y-111376977D01*
X105586430Y-111376977D01*
X105586427Y-111376978D01*
X105454211Y-111390000D01*
X105365789Y-111390000D01*
X105233573Y-111376978D01*
X105233570Y-111376977D01*
X105233569Y-111376977D01*
X105063919Y-111325514D01*
X105063917Y-111325513D01*
X105063914Y-111325512D01*
X104907569Y-111241944D01*
X104770525Y-111129475D01*
X104658056Y-110992431D01*
X104574488Y-110836086D01*
X104523022Y-110666427D01*
X104505646Y-110490000D01*
X104523022Y-110313573D01*
X104574487Y-110143916D01*
X104599232Y-110097621D01*
X104608609Y-110074983D01*
X104613389Y-110050949D01*
X104613389Y-110026445D01*
X104608608Y-110002412D01*
X104599231Y-109979773D01*
X104585618Y-109959400D01*
X104575808Y-109947446D01*
X104540057Y-109880561D01*
X104518039Y-109807978D01*
X104510000Y-109726359D01*
X104510000Y-108713641D01*
X104518039Y-108632022D01*
X104540057Y-108559439D01*
X104575808Y-108492554D01*
X104623923Y-108433923D01*
X104682554Y-108385808D01*
X104749439Y-108350057D01*
X104822022Y-108328039D01*
X104903641Y-108320000D01*
X105916359Y-108320000D01*
X105997978Y-108328039D01*
X105997978Y-108328039D01*
G37*
G36*
X128857978Y-108328039D02*
G01*
X128930561Y-108350057D01*
X128997446Y-108385808D01*
X129056077Y-108433923D01*
X129104192Y-108492554D01*
X129139943Y-108559439D01*
X129161961Y-108632022D01*
X129170000Y-108713641D01*
X129170000Y-109726359D01*
X129161961Y-109807978D01*
X129139943Y-109880561D01*
X129104192Y-109947446D01*
X129094382Y-109959400D01*
X129080768Y-109979774D01*
X129071391Y-110002413D01*
X129066611Y-110026446D01*
X129066611Y-110050951D01*
X129071392Y-110074984D01*
X129080768Y-110097621D01*
X129105513Y-110143916D01*
X129156978Y-110313573D01*
X129174354Y-110490000D01*
X129156978Y-110666427D01*
X129105512Y-110836086D01*
X129021944Y-110992431D01*
X128909475Y-111129475D01*
X128772431Y-111241944D01*
X128616086Y-111325512D01*
X128616083Y-111325513D01*
X128616081Y-111325514D01*
X128446431Y-111376977D01*
X128446430Y-111376977D01*
X128446427Y-111376978D01*
X128314211Y-111390000D01*
X128225789Y-111390000D01*
X128093573Y-111376978D01*
X128093570Y-111376977D01*
X128093569Y-111376977D01*
X127923919Y-111325514D01*
X127923917Y-111325513D01*
X127923914Y-111325512D01*
X127767569Y-111241944D01*
X127630525Y-111129475D01*
X127518056Y-110992431D01*
X127434488Y-110836086D01*
X127383022Y-110666427D01*
X127365646Y-110490000D01*
X127383022Y-110313573D01*
X127434487Y-110143916D01*
X127459232Y-110097621D01*
X127468609Y-110074983D01*
X127473389Y-110050949D01*
X127473389Y-110026445D01*
X127468608Y-110002412D01*
X127459231Y-109979773D01*
X127445618Y-109959400D01*
X127435808Y-109947446D01*
X127400057Y-109880561D01*
X127378039Y-109807978D01*
X127370000Y-109726359D01*
X127370000Y-108713641D01*
X127378039Y-108632022D01*
X127400057Y-108559439D01*
X127435808Y-108492554D01*
X127483923Y-108433923D01*
X127542554Y-108385808D01*
X127609439Y-108350057D01*
X127682022Y-108328039D01*
X127763641Y-108320000D01*
X128776359Y-108320000D01*
X128857978Y-108328039D01*
X128857978Y-108328039D01*
G37*
G36*
X108537978Y-108328039D02*
G01*
X108610561Y-108350057D01*
X108677446Y-108385808D01*
X108736077Y-108433923D01*
X108784192Y-108492554D01*
X108819943Y-108559439D01*
X108841961Y-108632022D01*
X108850000Y-108713641D01*
X108850000Y-109726359D01*
X108841961Y-109807978D01*
X108819943Y-109880561D01*
X108784192Y-109947446D01*
X108774382Y-109959400D01*
X108760768Y-109979774D01*
X108751391Y-110002413D01*
X108746611Y-110026446D01*
X108746611Y-110050951D01*
X108751392Y-110074984D01*
X108760768Y-110097621D01*
X108785513Y-110143916D01*
X108836978Y-110313573D01*
X108854354Y-110490000D01*
X108836978Y-110666427D01*
X108785512Y-110836086D01*
X108701944Y-110992431D01*
X108589475Y-111129475D01*
X108452431Y-111241944D01*
X108296086Y-111325512D01*
X108296083Y-111325513D01*
X108296081Y-111325514D01*
X108126431Y-111376977D01*
X108126430Y-111376977D01*
X108126427Y-111376978D01*
X107994211Y-111390000D01*
X107905789Y-111390000D01*
X107773573Y-111376978D01*
X107773570Y-111376977D01*
X107773569Y-111376977D01*
X107603919Y-111325514D01*
X107603917Y-111325513D01*
X107603914Y-111325512D01*
X107447569Y-111241944D01*
X107310525Y-111129475D01*
X107198056Y-110992431D01*
X107114488Y-110836086D01*
X107063022Y-110666427D01*
X107045646Y-110490000D01*
X107063022Y-110313573D01*
X107114487Y-110143916D01*
X107139232Y-110097621D01*
X107148609Y-110074983D01*
X107153389Y-110050949D01*
X107153389Y-110026445D01*
X107148608Y-110002412D01*
X107139231Y-109979773D01*
X107125618Y-109959400D01*
X107115808Y-109947446D01*
X107080057Y-109880561D01*
X107058039Y-109807978D01*
X107050000Y-109726359D01*
X107050000Y-108713641D01*
X107058039Y-108632022D01*
X107080057Y-108559439D01*
X107115808Y-108492554D01*
X107163923Y-108433923D01*
X107222554Y-108385808D01*
X107289439Y-108350057D01*
X107362022Y-108328039D01*
X107443641Y-108320000D01*
X108456359Y-108320000D01*
X108537978Y-108328039D01*
X108537978Y-108328039D01*
G37*
G36*
X131397978Y-108328039D02*
G01*
X131470561Y-108350057D01*
X131537446Y-108385808D01*
X131596077Y-108433923D01*
X131644192Y-108492554D01*
X131679943Y-108559439D01*
X131701961Y-108632022D01*
X131710000Y-108713641D01*
X131710000Y-109726359D01*
X131701961Y-109807978D01*
X131679943Y-109880561D01*
X131644192Y-109947446D01*
X131634382Y-109959400D01*
X131620768Y-109979774D01*
X131611391Y-110002413D01*
X131606611Y-110026446D01*
X131606611Y-110050951D01*
X131611392Y-110074984D01*
X131620768Y-110097621D01*
X131645513Y-110143916D01*
X131696978Y-110313573D01*
X131714354Y-110490000D01*
X131696978Y-110666427D01*
X131645512Y-110836086D01*
X131561944Y-110992431D01*
X131449475Y-111129475D01*
X131312431Y-111241944D01*
X131156086Y-111325512D01*
X131156083Y-111325513D01*
X131156081Y-111325514D01*
X130986431Y-111376977D01*
X130986430Y-111376977D01*
X130986427Y-111376978D01*
X130854211Y-111390000D01*
X130765789Y-111390000D01*
X130633573Y-111376978D01*
X130633570Y-111376977D01*
X130633569Y-111376977D01*
X130463919Y-111325514D01*
X130463917Y-111325513D01*
X130463914Y-111325512D01*
X130307569Y-111241944D01*
X130170525Y-111129475D01*
X130058056Y-110992431D01*
X129974488Y-110836086D01*
X129923022Y-110666427D01*
X129905646Y-110490000D01*
X129923022Y-110313573D01*
X129974487Y-110143916D01*
X129999232Y-110097621D01*
X130008609Y-110074983D01*
X130013389Y-110050949D01*
X130013389Y-110026445D01*
X130008608Y-110002412D01*
X129999231Y-109979773D01*
X129985618Y-109959400D01*
X129975808Y-109947446D01*
X129940057Y-109880561D01*
X129918039Y-109807978D01*
X129910000Y-109726359D01*
X129910000Y-108713641D01*
X129918039Y-108632022D01*
X129940057Y-108559439D01*
X129975808Y-108492554D01*
X130023923Y-108433923D01*
X130082554Y-108385808D01*
X130149439Y-108350057D01*
X130222022Y-108328039D01*
X130303641Y-108320000D01*
X131316359Y-108320000D01*
X131397978Y-108328039D01*
X131397978Y-108328039D01*
G37*
G36*
X126317978Y-108328039D02*
G01*
X126390561Y-108350057D01*
X126457446Y-108385808D01*
X126516077Y-108433923D01*
X126564192Y-108492554D01*
X126599943Y-108559439D01*
X126621961Y-108632022D01*
X126630000Y-108713641D01*
X126630000Y-109726359D01*
X126621961Y-109807978D01*
X126599943Y-109880561D01*
X126564192Y-109947446D01*
X126554382Y-109959400D01*
X126540768Y-109979774D01*
X126531391Y-110002413D01*
X126526611Y-110026446D01*
X126526611Y-110050951D01*
X126531392Y-110074984D01*
X126540768Y-110097621D01*
X126565513Y-110143916D01*
X126616978Y-110313573D01*
X126634354Y-110490000D01*
X126616978Y-110666427D01*
X126565512Y-110836086D01*
X126481944Y-110992431D01*
X126369475Y-111129475D01*
X126232431Y-111241944D01*
X126076086Y-111325512D01*
X126076083Y-111325513D01*
X126076081Y-111325514D01*
X125906431Y-111376977D01*
X125906430Y-111376977D01*
X125906427Y-111376978D01*
X125774211Y-111390000D01*
X125685789Y-111390000D01*
X125553573Y-111376978D01*
X125553570Y-111376977D01*
X125553569Y-111376977D01*
X125383919Y-111325514D01*
X125383917Y-111325513D01*
X125383914Y-111325512D01*
X125227569Y-111241944D01*
X125090525Y-111129475D01*
X124978056Y-110992431D01*
X124894488Y-110836086D01*
X124843022Y-110666427D01*
X124825646Y-110490000D01*
X124843022Y-110313573D01*
X124894487Y-110143916D01*
X124919232Y-110097621D01*
X124928609Y-110074983D01*
X124933389Y-110050949D01*
X124933389Y-110026445D01*
X124928608Y-110002412D01*
X124919231Y-109979773D01*
X124905618Y-109959400D01*
X124895808Y-109947446D01*
X124860057Y-109880561D01*
X124838039Y-109807978D01*
X124830000Y-109726359D01*
X124830000Y-108713641D01*
X124838039Y-108632022D01*
X124860057Y-108559439D01*
X124895808Y-108492554D01*
X124943923Y-108433923D01*
X125002554Y-108385808D01*
X125069439Y-108350057D01*
X125142022Y-108328039D01*
X125223641Y-108320000D01*
X126236359Y-108320000D01*
X126317978Y-108328039D01*
X126317978Y-108328039D01*
G37*
M02*
