G04 #@! TF.GenerationSoftware,KiCad,Pcbnew,(2017-08-02 revision 9760937)-master*
G04 #@! TF.CreationDate,2017-09-04T14:54:41-05:00*
G04 #@! TF.ProjectId,lofive,6C6F666976652E6B696361645F706362,0*
G04 #@! TF.SameCoordinates,Original*
G04 #@! TF.FileFunction,Legend,Top*
G04 #@! TF.FilePolarity,Positive*
%FSLAX46Y46*%
G04 Gerber Fmt 4.6, Leading zero omitted, Abs format (unit mm)*
G04 Created by KiCad (PCBNEW (2017-08-02 revision 9760937)-master) date Mon Sep  4 14:54:41 2017*
%MOMM*%
%LPD*%
G01*
G04 APERTURE LIST*
%ADD10C,0.187500*%
%ADD11C,0.300000*%
%ADD12C,0.150000*%
%ADD13C,0.125000*%
G04 APERTURE END LIST*
D10*
X109437342Y-124306525D02*
X109187342Y-123949382D01*
X109008771Y-124306525D02*
X109008771Y-123556525D01*
X109294485Y-123556525D01*
X109365914Y-123592240D01*
X109401628Y-123627954D01*
X109437342Y-123699382D01*
X109437342Y-123806525D01*
X109401628Y-123877954D01*
X109365914Y-123913668D01*
X109294485Y-123949382D01*
X109008771Y-123949382D01*
X109901628Y-123556525D02*
X109973057Y-123556525D01*
X110044485Y-123592240D01*
X110080200Y-123627954D01*
X110115914Y-123699382D01*
X110151628Y-123842240D01*
X110151628Y-124020811D01*
X110115914Y-124163668D01*
X110080200Y-124235097D01*
X110044485Y-124270811D01*
X109973057Y-124306525D01*
X109901628Y-124306525D01*
X109830200Y-124270811D01*
X109794485Y-124235097D01*
X109758771Y-124163668D01*
X109723057Y-124020811D01*
X109723057Y-123842240D01*
X109758771Y-123699382D01*
X109794485Y-123627954D01*
X109830200Y-123592240D01*
X109901628Y-123556525D01*
X110473057Y-124020811D02*
X111044485Y-124020811D01*
X111365914Y-123627954D02*
X111401628Y-123592240D01*
X111473057Y-123556525D01*
X111651628Y-123556525D01*
X111723057Y-123592240D01*
X111758771Y-123627954D01*
X111794485Y-123699382D01*
X111794485Y-123770811D01*
X111758771Y-123877954D01*
X111330200Y-124306525D01*
X111794485Y-124306525D01*
X112258771Y-123556525D02*
X112330200Y-123556525D01*
X112401628Y-123592240D01*
X112437342Y-123627954D01*
X112473057Y-123699382D01*
X112508771Y-123842240D01*
X112508771Y-124020811D01*
X112473057Y-124163668D01*
X112437342Y-124235097D01*
X112401628Y-124270811D01*
X112330200Y-124306525D01*
X112258771Y-124306525D01*
X112187342Y-124270811D01*
X112151628Y-124235097D01*
X112115914Y-124163668D01*
X112080200Y-124020811D01*
X112080200Y-123842240D01*
X112115914Y-123699382D01*
X112151628Y-123627954D01*
X112187342Y-123592240D01*
X112258771Y-123556525D01*
X113223057Y-124306525D02*
X112794485Y-124306525D01*
X113008771Y-124306525D02*
X113008771Y-123556525D01*
X112937342Y-123663668D01*
X112865914Y-123735097D01*
X112794485Y-123770811D01*
X113473057Y-123556525D02*
X113973057Y-123556525D01*
X113651628Y-124306525D01*
X136203885Y-114464340D02*
X135703885Y-114464340D01*
X135775314Y-114464340D02*
X135739600Y-114428625D01*
X135703885Y-114357197D01*
X135703885Y-114250054D01*
X135739600Y-114178625D01*
X135811028Y-114142911D01*
X136203885Y-114142911D01*
X135811028Y-114142911D02*
X135739600Y-114107197D01*
X135703885Y-114035768D01*
X135703885Y-113928625D01*
X135739600Y-113857197D01*
X135811028Y-113821482D01*
X136203885Y-113821482D01*
X136275314Y-113642911D02*
X136275314Y-113071482D01*
X135703885Y-112964340D02*
X136203885Y-112821482D01*
X135846742Y-112678625D01*
X136203885Y-112535768D01*
X135703885Y-112392911D01*
D11*
X103094090Y-124232996D02*
X102498852Y-124232996D01*
X102498852Y-122982996D01*
X103689328Y-124232996D02*
X103570280Y-124173472D01*
X103510757Y-124113948D01*
X103451233Y-123994900D01*
X103451233Y-123637758D01*
X103510757Y-123518710D01*
X103570280Y-123459186D01*
X103689328Y-123399662D01*
X103867900Y-123399662D01*
X103986947Y-123459186D01*
X104046471Y-123518710D01*
X104105995Y-123637758D01*
X104105995Y-123994900D01*
X104046471Y-124113948D01*
X103986947Y-124173472D01*
X103867900Y-124232996D01*
X103689328Y-124232996D01*
X105058376Y-123578234D02*
X104641709Y-123578234D01*
X104641709Y-124232996D02*
X104641709Y-122982996D01*
X105236947Y-122982996D01*
X105713138Y-124232996D02*
X105713138Y-123399662D01*
X105713138Y-122982996D02*
X105653614Y-123042520D01*
X105713138Y-123102043D01*
X105772661Y-123042520D01*
X105713138Y-122982996D01*
X105713138Y-123102043D01*
X106189328Y-123399662D02*
X106486947Y-124232996D01*
X106784566Y-123399662D01*
X107736947Y-124173472D02*
X107617900Y-124232996D01*
X107379804Y-124232996D01*
X107260757Y-124173472D01*
X107201233Y-124054424D01*
X107201233Y-123578234D01*
X107260757Y-123459186D01*
X107379804Y-123399662D01*
X107617900Y-123399662D01*
X107736947Y-123459186D01*
X107796471Y-123578234D01*
X107796471Y-123697281D01*
X107201233Y-123816329D01*
D12*
X125707160Y-122784680D02*
X125707160Y-122284680D01*
X124757160Y-122284680D02*
X124757160Y-122784680D01*
X131600000Y-118173000D02*
X131700000Y-118173000D01*
X135100000Y-118173000D02*
X135000000Y-118173000D01*
X135000000Y-122873000D02*
X135100000Y-122873000D01*
X131600000Y-122873000D02*
X131700000Y-122873000D01*
X133000000Y-122873000D02*
X133700000Y-122873000D01*
X133000000Y-118173000D02*
X133700000Y-118173000D01*
X131600000Y-118173000D02*
X131600000Y-122873000D01*
X135100000Y-122873000D02*
X135100000Y-118173000D01*
X134250000Y-120523000D02*
G75*
G03X134250000Y-120523000I-900000J0D01*
G01*
X134362000Y-112428000D02*
X133862000Y-112428000D01*
X133862000Y-113378000D02*
X134362000Y-113378000D01*
X136492000Y-120096000D02*
X136492000Y-119596000D01*
X135542000Y-119596000D02*
X135542000Y-120096000D01*
X133116800Y-113656600D02*
G75*
G03X133116800Y-113656600I-100000J0D01*
G01*
X133566800Y-113906600D02*
X133066800Y-113906600D01*
X133566800Y-116806600D02*
X133566800Y-113906600D01*
X133066800Y-116806600D02*
X133566800Y-116806600D01*
X133066800Y-113906600D02*
X133066800Y-116806600D01*
X124220460Y-122802460D02*
X124220460Y-122302460D01*
X123170460Y-122302460D02*
X123170460Y-122802460D01*
X135492000Y-117225000D02*
X135492000Y-117725000D01*
X136542000Y-117725000D02*
X136542000Y-117225000D01*
X106332000Y-120146000D02*
X106332000Y-120646000D01*
X107282000Y-120646000D02*
X107282000Y-120146000D01*
X107282000Y-115947000D02*
X107282000Y-115447000D01*
X106332000Y-115447000D02*
X106332000Y-115947000D01*
X103890000Y-114247000D02*
X103890000Y-117147000D01*
X103890000Y-117147000D02*
X104390000Y-117147000D01*
X104390000Y-117147000D02*
X104390000Y-114247000D01*
X104390000Y-114247000D02*
X103890000Y-114247000D01*
X103940000Y-113997000D02*
G75*
G03X103940000Y-113997000I-100000J0D01*
G01*
X103940000Y-118823000D02*
G75*
G03X103940000Y-118823000I-100000J0D01*
G01*
X104390000Y-119073000D02*
X103890000Y-119073000D01*
X104390000Y-121973000D02*
X104390000Y-119073000D01*
X103890000Y-121973000D02*
X104390000Y-121973000D01*
X103890000Y-119073000D02*
X103890000Y-121973000D01*
X110104060Y-112610580D02*
X109604060Y-112610580D01*
X109604060Y-113560580D02*
X110104060Y-113560580D01*
X108116000Y-121522660D02*
X108416000Y-121522660D01*
X108116000Y-116022660D02*
X108416000Y-116022660D01*
X113626000Y-116022660D02*
X113326000Y-116022660D01*
X113626000Y-121522660D02*
X113326000Y-121522660D01*
X108116000Y-121522660D02*
X108116000Y-116022660D01*
X113626000Y-121522660D02*
X113626000Y-116022660D01*
X108416000Y-121522660D02*
X108416000Y-123272660D01*
X118750100Y-118845140D02*
X118750100Y-118345140D01*
X117800100Y-118345140D02*
X117800100Y-118845140D01*
X126144000Y-122284680D02*
X126144000Y-122784680D01*
X127094000Y-122784680D02*
X127094000Y-122284680D01*
X129863760Y-116604560D02*
X129363760Y-116604560D01*
X129363760Y-117554560D02*
X129863760Y-117554560D01*
X119065020Y-118345140D02*
X119065020Y-118845140D01*
X120015020Y-118845140D02*
X120015020Y-118345140D01*
X129863760Y-117864560D02*
X129363760Y-117864560D01*
X129363760Y-118814560D02*
X129863760Y-118814560D01*
X119713820Y-114602240D02*
X119213820Y-114602240D01*
X119213820Y-115552240D02*
X119713820Y-115552240D01*
X119213820Y-114305100D02*
X119713820Y-114305100D01*
X119713820Y-113355100D02*
X119213820Y-113355100D01*
X119576660Y-120373120D02*
X119076660Y-120373120D01*
X119076660Y-121323120D02*
X119576660Y-121323120D01*
X117415800Y-118868000D02*
X117415800Y-118368000D01*
X116365800Y-118368000D02*
X116365800Y-118868000D01*
X117687880Y-120170140D02*
X117687880Y-123370140D01*
X117687880Y-123370140D02*
X115087880Y-123370140D01*
X115087880Y-123370140D02*
X115087880Y-120170140D01*
X115087880Y-120170140D02*
X117687880Y-120170140D01*
X119088680Y-123506920D02*
X119588680Y-123506920D01*
X119588680Y-122556920D02*
X119088680Y-122556920D01*
X115072140Y-118350220D02*
X115072140Y-118850220D01*
X116022140Y-118850220D02*
X116022140Y-118350220D01*
X127424980Y-114809740D02*
X127424980Y-115409740D01*
X121174980Y-121059740D02*
X121174980Y-120459740D01*
X127424980Y-121059740D02*
X127424980Y-120459740D01*
X121174980Y-114809740D02*
X121774980Y-114809740D01*
X121174980Y-121059740D02*
X121774980Y-121059740D01*
X127424980Y-121059740D02*
X126824980Y-121059740D01*
X127424980Y-114809740D02*
X126824980Y-114809740D01*
D13*
X125130020Y-124285897D02*
X125094305Y-124321611D01*
X124987162Y-124357325D01*
X124915734Y-124357325D01*
X124808591Y-124321611D01*
X124737162Y-124250182D01*
X124701448Y-124178754D01*
X124665734Y-124035897D01*
X124665734Y-123928754D01*
X124701448Y-123785897D01*
X124737162Y-123714468D01*
X124808591Y-123643040D01*
X124915734Y-123607325D01*
X124987162Y-123607325D01*
X125094305Y-123643040D01*
X125130020Y-123678754D01*
X125380020Y-123607325D02*
X125844305Y-123607325D01*
X125594305Y-123893040D01*
X125701448Y-123893040D01*
X125772877Y-123928754D01*
X125808591Y-123964468D01*
X125844305Y-124035897D01*
X125844305Y-124214468D01*
X125808591Y-124285897D01*
X125772877Y-124321611D01*
X125701448Y-124357325D01*
X125487162Y-124357325D01*
X125415734Y-124321611D01*
X125380020Y-124285897D01*
X129276600Y-121870511D02*
X129383742Y-121906225D01*
X129562314Y-121906225D01*
X129633742Y-121870511D01*
X129669457Y-121834797D01*
X129705171Y-121763368D01*
X129705171Y-121691940D01*
X129669457Y-121620511D01*
X129633742Y-121584797D01*
X129562314Y-121549082D01*
X129419457Y-121513368D01*
X129348028Y-121477654D01*
X129312314Y-121441940D01*
X129276600Y-121370511D01*
X129276600Y-121299082D01*
X129312314Y-121227654D01*
X129348028Y-121191940D01*
X129419457Y-121156225D01*
X129598028Y-121156225D01*
X129705171Y-121191940D01*
X129955171Y-121156225D02*
X130133742Y-121906225D01*
X130276600Y-121370511D01*
X130419457Y-121906225D01*
X130598028Y-121156225D01*
X131276600Y-121906225D02*
X130848028Y-121906225D01*
X131062314Y-121906225D02*
X131062314Y-121156225D01*
X130990885Y-121263368D01*
X130919457Y-121334797D01*
X130848028Y-121370511D01*
X131623257Y-113069257D02*
X131587542Y-113104971D01*
X131480400Y-113140685D01*
X131408971Y-113140685D01*
X131301828Y-113104971D01*
X131230400Y-113033542D01*
X131194685Y-112962114D01*
X131158971Y-112819257D01*
X131158971Y-112712114D01*
X131194685Y-112569257D01*
X131230400Y-112497828D01*
X131301828Y-112426400D01*
X131408971Y-112390685D01*
X131480400Y-112390685D01*
X131587542Y-112426400D01*
X131623257Y-112462114D01*
X132337542Y-113140685D02*
X131908971Y-113140685D01*
X132123257Y-113140685D02*
X132123257Y-112390685D01*
X132051828Y-112497828D01*
X131980400Y-112569257D01*
X131908971Y-112604971D01*
X133016114Y-112390685D02*
X132658971Y-112390685D01*
X132623257Y-112747828D01*
X132658971Y-112712114D01*
X132730400Y-112676400D01*
X132908971Y-112676400D01*
X132980400Y-112712114D01*
X133016114Y-112747828D01*
X133051828Y-112819257D01*
X133051828Y-112997828D01*
X133016114Y-113069257D01*
X132980400Y-113104971D01*
X132908971Y-113140685D01*
X132730400Y-113140685D01*
X132658971Y-113104971D01*
X132623257Y-113069257D01*
X136249142Y-122185457D02*
X136280095Y-122216409D01*
X136311047Y-122309266D01*
X136311047Y-122371171D01*
X136280095Y-122464028D01*
X136218190Y-122525933D01*
X136156285Y-122556885D01*
X136032476Y-122587838D01*
X135939619Y-122587838D01*
X135815809Y-122556885D01*
X135753904Y-122525933D01*
X135692000Y-122464028D01*
X135661047Y-122371171D01*
X135661047Y-122309266D01*
X135692000Y-122216409D01*
X135722952Y-122185457D01*
X136311047Y-121566409D02*
X136311047Y-121937838D01*
X136311047Y-121752123D02*
X135661047Y-121752123D01*
X135753904Y-121814028D01*
X135815809Y-121875933D01*
X135846761Y-121937838D01*
X135661047Y-121009266D02*
X135661047Y-121133076D01*
X135692000Y-121194980D01*
X135722952Y-121225933D01*
X135815809Y-121287838D01*
X135939619Y-121318790D01*
X136187238Y-121318790D01*
X136249142Y-121287838D01*
X136280095Y-121256885D01*
X136311047Y-121194980D01*
X136311047Y-121071171D01*
X136280095Y-121009266D01*
X136249142Y-120978314D01*
X136187238Y-120947361D01*
X136032476Y-120947361D01*
X135970571Y-120978314D01*
X135939619Y-121009266D01*
X135908666Y-121071171D01*
X135908666Y-121194980D01*
X135939619Y-121256885D01*
X135970571Y-121287838D01*
X136032476Y-121318790D01*
X130653285Y-115989028D02*
X131260428Y-115989028D01*
X131331857Y-115953314D01*
X131367571Y-115917600D01*
X131403285Y-115846171D01*
X131403285Y-115703314D01*
X131367571Y-115631885D01*
X131331857Y-115596171D01*
X131260428Y-115560457D01*
X130653285Y-115560457D01*
X130653285Y-114846171D02*
X130653285Y-115203314D01*
X131010428Y-115239028D01*
X130974714Y-115203314D01*
X130939000Y-115131885D01*
X130939000Y-114953314D01*
X130974714Y-114881885D01*
X131010428Y-114846171D01*
X131081857Y-114810457D01*
X131260428Y-114810457D01*
X131331857Y-114846171D01*
X131367571Y-114881885D01*
X131403285Y-114953314D01*
X131403285Y-115131885D01*
X131367571Y-115203314D01*
X131331857Y-115239028D01*
X122894285Y-122784140D02*
X122537142Y-123034140D01*
X122894285Y-123212711D02*
X122144285Y-123212711D01*
X122144285Y-122926997D01*
X122180000Y-122855568D01*
X122215714Y-122819854D01*
X122287142Y-122784140D01*
X122394285Y-122784140D01*
X122465714Y-122819854D01*
X122501428Y-122855568D01*
X122537142Y-122926997D01*
X122537142Y-123212711D01*
X122144285Y-122534140D02*
X122144285Y-122069854D01*
X122430000Y-122319854D01*
X122430000Y-122212711D01*
X122465714Y-122141282D01*
X122501428Y-122105568D01*
X122572857Y-122069854D01*
X122751428Y-122069854D01*
X122822857Y-122105568D01*
X122858571Y-122141282D01*
X122894285Y-122212711D01*
X122894285Y-122426997D01*
X122858571Y-122498425D01*
X122822857Y-122534140D01*
X136336447Y-115678333D02*
X136026923Y-115895000D01*
X136336447Y-116049761D02*
X135686447Y-116049761D01*
X135686447Y-115802142D01*
X135717400Y-115740238D01*
X135748352Y-115709285D01*
X135810257Y-115678333D01*
X135903114Y-115678333D01*
X135965019Y-115709285D01*
X135995971Y-115740238D01*
X136026923Y-115802142D01*
X136026923Y-116049761D01*
X135748352Y-115430714D02*
X135717400Y-115399761D01*
X135686447Y-115337857D01*
X135686447Y-115183095D01*
X135717400Y-115121190D01*
X135748352Y-115090238D01*
X135810257Y-115059285D01*
X135872161Y-115059285D01*
X135965019Y-115090238D01*
X136336447Y-115461666D01*
X136336447Y-115059285D01*
X107074857Y-118719142D02*
X107110571Y-118754857D01*
X107146285Y-118862000D01*
X107146285Y-118933428D01*
X107110571Y-119040571D01*
X107039142Y-119112000D01*
X106967714Y-119147714D01*
X106824857Y-119183428D01*
X106717714Y-119183428D01*
X106574857Y-119147714D01*
X106503428Y-119112000D01*
X106432000Y-119040571D01*
X106396285Y-118933428D01*
X106396285Y-118862000D01*
X106432000Y-118754857D01*
X106467714Y-118719142D01*
X107146285Y-118004857D02*
X107146285Y-118433428D01*
X107146285Y-118219142D02*
X106396285Y-118219142D01*
X106503428Y-118290571D01*
X106574857Y-118362000D01*
X106610571Y-118433428D01*
X106646285Y-117362000D02*
X107146285Y-117362000D01*
X106360571Y-117540571D02*
X106896285Y-117719142D01*
X106896285Y-117254857D01*
X107074857Y-114020142D02*
X107110571Y-114055857D01*
X107146285Y-114163000D01*
X107146285Y-114234428D01*
X107110571Y-114341571D01*
X107039142Y-114413000D01*
X106967714Y-114448714D01*
X106824857Y-114484428D01*
X106717714Y-114484428D01*
X106574857Y-114448714D01*
X106503428Y-114413000D01*
X106432000Y-114341571D01*
X106396285Y-114234428D01*
X106396285Y-114163000D01*
X106432000Y-114055857D01*
X106467714Y-114020142D01*
X107146285Y-113305857D02*
X107146285Y-113734428D01*
X107146285Y-113520142D02*
X106396285Y-113520142D01*
X106503428Y-113591571D01*
X106574857Y-113663000D01*
X106610571Y-113734428D01*
X106396285Y-113055857D02*
X106396285Y-112591571D01*
X106682000Y-112841571D01*
X106682000Y-112734428D01*
X106717714Y-112663000D01*
X106753428Y-112627285D01*
X106824857Y-112591571D01*
X107003428Y-112591571D01*
X107074857Y-112627285D01*
X107110571Y-112663000D01*
X107146285Y-112734428D01*
X107146285Y-112948714D01*
X107110571Y-113020142D01*
X107074857Y-113055857D01*
X104330571Y-113254285D02*
X104330571Y-113861428D01*
X104366285Y-113932857D01*
X104402000Y-113968571D01*
X104473428Y-114004285D01*
X104616285Y-114004285D01*
X104687714Y-113968571D01*
X104723428Y-113932857D01*
X104759142Y-113861428D01*
X104759142Y-113254285D01*
X105044857Y-113254285D02*
X105509142Y-113254285D01*
X105259142Y-113540000D01*
X105366285Y-113540000D01*
X105437714Y-113575714D01*
X105473428Y-113611428D01*
X105509142Y-113682857D01*
X105509142Y-113861428D01*
X105473428Y-113932857D01*
X105437714Y-113968571D01*
X105366285Y-114004285D01*
X105152000Y-114004285D01*
X105080571Y-113968571D01*
X105044857Y-113932857D01*
X104330571Y-117953285D02*
X104330571Y-118560428D01*
X104366285Y-118631857D01*
X104402000Y-118667571D01*
X104473428Y-118703285D01*
X104616285Y-118703285D01*
X104687714Y-118667571D01*
X104723428Y-118631857D01*
X104759142Y-118560428D01*
X104759142Y-117953285D01*
X105437714Y-118203285D02*
X105437714Y-118703285D01*
X105259142Y-117917571D02*
X105080571Y-118453285D01*
X105544857Y-118453285D01*
X111404857Y-113399457D02*
X111369142Y-113435171D01*
X111262000Y-113470885D01*
X111190571Y-113470885D01*
X111083428Y-113435171D01*
X111012000Y-113363742D01*
X110976285Y-113292314D01*
X110940571Y-113149457D01*
X110940571Y-113042314D01*
X110976285Y-112899457D01*
X111012000Y-112828028D01*
X111083428Y-112756600D01*
X111190571Y-112720885D01*
X111262000Y-112720885D01*
X111369142Y-112756600D01*
X111404857Y-112792314D01*
X112119142Y-113470885D02*
X111690571Y-113470885D01*
X111904857Y-113470885D02*
X111904857Y-112720885D01*
X111833428Y-112828028D01*
X111762000Y-112899457D01*
X111690571Y-112935171D01*
X112404857Y-112792314D02*
X112440571Y-112756600D01*
X112512000Y-112720885D01*
X112690571Y-112720885D01*
X112762000Y-112756600D01*
X112797714Y-112792314D01*
X112833428Y-112863742D01*
X112833428Y-112935171D01*
X112797714Y-113042314D01*
X112369142Y-113470885D01*
X112833428Y-113470885D01*
X106804531Y-122070625D02*
X106804531Y-122677768D01*
X106840245Y-122749197D01*
X106875960Y-122784911D01*
X106947388Y-122820625D01*
X107090245Y-122820625D01*
X107161674Y-122784911D01*
X107197388Y-122749197D01*
X107233102Y-122677768D01*
X107233102Y-122070625D01*
X107554531Y-122142054D02*
X107590245Y-122106340D01*
X107661674Y-122070625D01*
X107840245Y-122070625D01*
X107911674Y-122106340D01*
X107947388Y-122142054D01*
X107983102Y-122213482D01*
X107983102Y-122284911D01*
X107947388Y-122392054D01*
X107518817Y-122820625D01*
X107983102Y-122820625D01*
X118572957Y-116977282D02*
X118608671Y-117012997D01*
X118644385Y-117120140D01*
X118644385Y-117191568D01*
X118608671Y-117298711D01*
X118537242Y-117370140D01*
X118465814Y-117405854D01*
X118322957Y-117441568D01*
X118215814Y-117441568D01*
X118072957Y-117405854D01*
X118001528Y-117370140D01*
X117930100Y-117298711D01*
X117894385Y-117191568D01*
X117894385Y-117120140D01*
X117930100Y-117012997D01*
X117965814Y-116977282D01*
X118644385Y-116262997D02*
X118644385Y-116691568D01*
X118644385Y-116477282D02*
X117894385Y-116477282D01*
X118001528Y-116548711D01*
X118072957Y-116620140D01*
X118108671Y-116691568D01*
X118644385Y-115548711D02*
X118644385Y-115977282D01*
X118644385Y-115762997D02*
X117894385Y-115762997D01*
X118001528Y-115834425D01*
X118072957Y-115905854D01*
X118108671Y-115977282D01*
X128095897Y-123209862D02*
X128131611Y-123245577D01*
X128167325Y-123352720D01*
X128167325Y-123424148D01*
X128131611Y-123531291D01*
X128060182Y-123602720D01*
X127988754Y-123638434D01*
X127845897Y-123674148D01*
X127738754Y-123674148D01*
X127595897Y-123638434D01*
X127524468Y-123602720D01*
X127453040Y-123531291D01*
X127417325Y-123424148D01*
X127417325Y-123352720D01*
X127453040Y-123245577D01*
X127488754Y-123209862D01*
X128167325Y-122495577D02*
X128167325Y-122924148D01*
X128167325Y-122709862D02*
X127417325Y-122709862D01*
X127524468Y-122781291D01*
X127595897Y-122852720D01*
X127631611Y-122924148D01*
X127417325Y-122031291D02*
X127417325Y-121959862D01*
X127453040Y-121888434D01*
X127488754Y-121852720D01*
X127560182Y-121817005D01*
X127703040Y-121781291D01*
X127881611Y-121781291D01*
X128024468Y-121817005D01*
X128095897Y-121852720D01*
X128131611Y-121888434D01*
X128167325Y-121959862D01*
X128167325Y-122031291D01*
X128131611Y-122102720D01*
X128095897Y-122138434D01*
X128024468Y-122174148D01*
X127881611Y-122209862D01*
X127703040Y-122209862D01*
X127560182Y-122174148D01*
X127488754Y-122138434D01*
X127453040Y-122102720D01*
X127417325Y-122031291D01*
X129440400Y-116015657D02*
X129404685Y-116051371D01*
X129297542Y-116087085D01*
X129226114Y-116087085D01*
X129118971Y-116051371D01*
X129047542Y-115979942D01*
X129011828Y-115908514D01*
X128976114Y-115765657D01*
X128976114Y-115658514D01*
X129011828Y-115515657D01*
X129047542Y-115444228D01*
X129118971Y-115372800D01*
X129226114Y-115337085D01*
X129297542Y-115337085D01*
X129404685Y-115372800D01*
X129440400Y-115408514D01*
X129797542Y-116087085D02*
X129940400Y-116087085D01*
X130011828Y-116051371D01*
X130047542Y-116015657D01*
X130118971Y-115908514D01*
X130154685Y-115765657D01*
X130154685Y-115479942D01*
X130118971Y-115408514D01*
X130083257Y-115372800D01*
X130011828Y-115337085D01*
X129868971Y-115337085D01*
X129797542Y-115372800D01*
X129761828Y-115408514D01*
X129726114Y-115479942D01*
X129726114Y-115658514D01*
X129761828Y-115729942D01*
X129797542Y-115765657D01*
X129868971Y-115801371D01*
X130011828Y-115801371D01*
X130083257Y-115765657D01*
X130118971Y-115729942D01*
X130154685Y-115658514D01*
X119847877Y-116960140D02*
X119883591Y-116995854D01*
X119919305Y-117102997D01*
X119919305Y-117174425D01*
X119883591Y-117281568D01*
X119812162Y-117352997D01*
X119740734Y-117388711D01*
X119597877Y-117424425D01*
X119490734Y-117424425D01*
X119347877Y-117388711D01*
X119276448Y-117352997D01*
X119205020Y-117281568D01*
X119169305Y-117174425D01*
X119169305Y-117102997D01*
X119205020Y-116995854D01*
X119240734Y-116960140D01*
X119490734Y-116531568D02*
X119455020Y-116602997D01*
X119419305Y-116638711D01*
X119347877Y-116674425D01*
X119312162Y-116674425D01*
X119240734Y-116638711D01*
X119205020Y-116602997D01*
X119169305Y-116531568D01*
X119169305Y-116388711D01*
X119205020Y-116317282D01*
X119240734Y-116281568D01*
X119312162Y-116245854D01*
X119347877Y-116245854D01*
X119419305Y-116281568D01*
X119455020Y-116317282D01*
X119490734Y-116388711D01*
X119490734Y-116531568D01*
X119526448Y-116602997D01*
X119562162Y-116638711D01*
X119633591Y-116674425D01*
X119776448Y-116674425D01*
X119847877Y-116638711D01*
X119883591Y-116602997D01*
X119919305Y-116531568D01*
X119919305Y-116388711D01*
X119883591Y-116317282D01*
X119847877Y-116281568D01*
X119776448Y-116245854D01*
X119633591Y-116245854D01*
X119562162Y-116281568D01*
X119526448Y-116317282D01*
X119490734Y-116388711D01*
X129491200Y-120028857D02*
X129455485Y-120064571D01*
X129348342Y-120100285D01*
X129276914Y-120100285D01*
X129169771Y-120064571D01*
X129098342Y-119993142D01*
X129062628Y-119921714D01*
X129026914Y-119778857D01*
X129026914Y-119671714D01*
X129062628Y-119528857D01*
X129098342Y-119457428D01*
X129169771Y-119386000D01*
X129276914Y-119350285D01*
X129348342Y-119350285D01*
X129455485Y-119386000D01*
X129491200Y-119421714D01*
X129741200Y-119350285D02*
X130241200Y-119350285D01*
X129919771Y-120100285D01*
X117731000Y-115228257D02*
X117695285Y-115263971D01*
X117588142Y-115299685D01*
X117516714Y-115299685D01*
X117409571Y-115263971D01*
X117338142Y-115192542D01*
X117302428Y-115121114D01*
X117266714Y-114978257D01*
X117266714Y-114871114D01*
X117302428Y-114728257D01*
X117338142Y-114656828D01*
X117409571Y-114585400D01*
X117516714Y-114549685D01*
X117588142Y-114549685D01*
X117695285Y-114585400D01*
X117731000Y-114621114D01*
X118373857Y-114549685D02*
X118231000Y-114549685D01*
X118159571Y-114585400D01*
X118123857Y-114621114D01*
X118052428Y-114728257D01*
X118016714Y-114871114D01*
X118016714Y-115156828D01*
X118052428Y-115228257D01*
X118088142Y-115263971D01*
X118159571Y-115299685D01*
X118302428Y-115299685D01*
X118373857Y-115263971D01*
X118409571Y-115228257D01*
X118445285Y-115156828D01*
X118445285Y-114978257D01*
X118409571Y-114906828D01*
X118373857Y-114871114D01*
X118302428Y-114835400D01*
X118159571Y-114835400D01*
X118088142Y-114871114D01*
X118052428Y-114906828D01*
X118016714Y-114978257D01*
X117731000Y-113983657D02*
X117695285Y-114019371D01*
X117588142Y-114055085D01*
X117516714Y-114055085D01*
X117409571Y-114019371D01*
X117338142Y-113947942D01*
X117302428Y-113876514D01*
X117266714Y-113733657D01*
X117266714Y-113626514D01*
X117302428Y-113483657D01*
X117338142Y-113412228D01*
X117409571Y-113340800D01*
X117516714Y-113305085D01*
X117588142Y-113305085D01*
X117695285Y-113340800D01*
X117731000Y-113376514D01*
X118409571Y-113305085D02*
X118052428Y-113305085D01*
X118016714Y-113662228D01*
X118052428Y-113626514D01*
X118123857Y-113590800D01*
X118302428Y-113590800D01*
X118373857Y-113626514D01*
X118409571Y-113662228D01*
X118445285Y-113733657D01*
X118445285Y-113912228D01*
X118409571Y-113983657D01*
X118373857Y-114019371D01*
X118302428Y-114055085D01*
X118123857Y-114055085D01*
X118052428Y-114019371D01*
X118016714Y-113983657D01*
X119432800Y-122187857D02*
X119397085Y-122223571D01*
X119289942Y-122259285D01*
X119218514Y-122259285D01*
X119111371Y-122223571D01*
X119039942Y-122152142D01*
X119004228Y-122080714D01*
X118968514Y-121937857D01*
X118968514Y-121830714D01*
X119004228Y-121687857D01*
X119039942Y-121616428D01*
X119111371Y-121545000D01*
X119218514Y-121509285D01*
X119289942Y-121509285D01*
X119397085Y-121545000D01*
X119432800Y-121580714D01*
X120075657Y-121759285D02*
X120075657Y-122259285D01*
X119897085Y-121473571D02*
X119718514Y-122009285D01*
X120182800Y-122009285D01*
X117230085Y-117050280D02*
X116872942Y-117300280D01*
X117230085Y-117478851D02*
X116480085Y-117478851D01*
X116480085Y-117193137D01*
X116515800Y-117121708D01*
X116551514Y-117085994D01*
X116622942Y-117050280D01*
X116730085Y-117050280D01*
X116801514Y-117085994D01*
X116837228Y-117121708D01*
X116872942Y-117193137D01*
X116872942Y-117478851D01*
X117230085Y-116335994D02*
X117230085Y-116764565D01*
X117230085Y-116550280D02*
X116480085Y-116550280D01*
X116587228Y-116621708D01*
X116658657Y-116693137D01*
X116694371Y-116764565D01*
X116117097Y-124157662D02*
X116117097Y-124514805D01*
X115867097Y-123764805D02*
X116117097Y-124157662D01*
X116367097Y-123764805D01*
X117009954Y-124514805D02*
X116581382Y-124514805D01*
X116795668Y-124514805D02*
X116795668Y-123764805D01*
X116724240Y-123871948D01*
X116652811Y-123943377D01*
X116581382Y-123979091D01*
X119356600Y-124372257D02*
X119320885Y-124407971D01*
X119213742Y-124443685D01*
X119142314Y-124443685D01*
X119035171Y-124407971D01*
X118963742Y-124336542D01*
X118928028Y-124265114D01*
X118892314Y-124122257D01*
X118892314Y-124015114D01*
X118928028Y-123872257D01*
X118963742Y-123800828D01*
X119035171Y-123729400D01*
X119142314Y-123693685D01*
X119213742Y-123693685D01*
X119320885Y-123729400D01*
X119356600Y-123765114D01*
X119642314Y-123765114D02*
X119678028Y-123729400D01*
X119749457Y-123693685D01*
X119928028Y-123693685D01*
X119999457Y-123729400D01*
X120035171Y-123765114D01*
X120070885Y-123836542D01*
X120070885Y-123907971D01*
X120035171Y-124015114D01*
X119606600Y-124443685D01*
X120070885Y-124443685D01*
X115884997Y-117015220D02*
X115920711Y-117050934D01*
X115956425Y-117158077D01*
X115956425Y-117229505D01*
X115920711Y-117336648D01*
X115849282Y-117408077D01*
X115777854Y-117443791D01*
X115634997Y-117479505D01*
X115527854Y-117479505D01*
X115384997Y-117443791D01*
X115313568Y-117408077D01*
X115242140Y-117336648D01*
X115206425Y-117229505D01*
X115206425Y-117158077D01*
X115242140Y-117050934D01*
X115277854Y-117015220D01*
X115956425Y-116300934D02*
X115956425Y-116729505D01*
X115956425Y-116515220D02*
X115206425Y-116515220D01*
X115313568Y-116586648D01*
X115384997Y-116658077D01*
X115420711Y-116729505D01*
X121655911Y-113416845D02*
X121655911Y-114023988D01*
X121691625Y-114095417D01*
X121727340Y-114131131D01*
X121798768Y-114166845D01*
X121941625Y-114166845D01*
X122013054Y-114131131D01*
X122048768Y-114095417D01*
X122084482Y-114023988D01*
X122084482Y-113416845D01*
X122834482Y-114166845D02*
X122405911Y-114166845D01*
X122620197Y-114166845D02*
X122620197Y-113416845D01*
X122548768Y-113523988D01*
X122477340Y-113595417D01*
X122405911Y-113631131D01*
M02*
