G04 #@! TF.GenerationSoftware,KiCad,Pcbnew,(5.1.0-43-gfdfe5ea)*
G04 #@! TF.CreationDate,2019-03-25T11:45:27-07:00*
G04 #@! TF.ProjectId,lofive,6c6f6669-7665-42e6-9b69-6361645f7063,0*
G04 #@! TF.SameCoordinates,Original*
G04 #@! TF.FileFunction,Soldermask,Bot*
G04 #@! TF.FilePolarity,Negative*
%FSLAX46Y46*%
G04 Gerber Fmt 4.6, Leading zero omitted, Abs format (unit mm)*
G04 Created by KiCad (PCBNEW (5.1.0-43-gfdfe5ea)) date 2019-03-25 11:45:27*
%MOMM*%
%LPD*%
G04 APERTURE LIST*
%ADD10C,0.100000*%
G04 APERTURE END LIST*
D10*
G36*
X125906427Y-124843022D02*
G01*
X125906430Y-124843023D01*
X125906431Y-124843023D01*
X126076081Y-124894486D01*
X126076083Y-124894487D01*
X126076086Y-124894488D01*
X126232431Y-124978056D01*
X126369475Y-125090525D01*
X126481944Y-125227569D01*
X126565512Y-125383914D01*
X126616978Y-125553573D01*
X126634354Y-125730000D01*
X126616978Y-125906427D01*
X126565513Y-126076084D01*
X126540768Y-126122379D01*
X126531391Y-126145017D01*
X126526611Y-126169051D01*
X126526611Y-126193555D01*
X126531392Y-126217588D01*
X126540769Y-126240227D01*
X126554382Y-126260600D01*
X126564192Y-126272554D01*
X126599943Y-126339439D01*
X126621961Y-126412022D01*
X126630000Y-126493641D01*
X126630000Y-127506359D01*
X126621961Y-127587978D01*
X126599943Y-127660561D01*
X126564192Y-127727446D01*
X126516077Y-127786077D01*
X126457446Y-127834192D01*
X126390561Y-127869943D01*
X126317978Y-127891961D01*
X126236359Y-127900000D01*
X125223641Y-127900000D01*
X125142022Y-127891961D01*
X125069439Y-127869943D01*
X125002554Y-127834192D01*
X124943923Y-127786077D01*
X124895808Y-127727446D01*
X124860057Y-127660561D01*
X124838039Y-127587978D01*
X124830000Y-127506359D01*
X124830000Y-126493641D01*
X124838039Y-126412022D01*
X124860057Y-126339439D01*
X124895808Y-126272554D01*
X124905618Y-126260600D01*
X124919232Y-126240226D01*
X124928609Y-126217587D01*
X124933389Y-126193554D01*
X124933389Y-126169049D01*
X124928608Y-126145016D01*
X124919232Y-126122379D01*
X124894487Y-126076084D01*
X124843022Y-125906427D01*
X124825646Y-125730000D01*
X124843022Y-125553573D01*
X124894488Y-125383914D01*
X124978056Y-125227569D01*
X125090525Y-125090525D01*
X125227569Y-124978056D01*
X125383914Y-124894488D01*
X125383917Y-124894487D01*
X125383919Y-124894486D01*
X125553569Y-124843023D01*
X125553570Y-124843023D01*
X125553573Y-124843022D01*
X125685789Y-124830000D01*
X125774211Y-124830000D01*
X125906427Y-124843022D01*
X125906427Y-124843022D01*
G37*
G36*
X133526427Y-124843022D02*
G01*
X133526430Y-124843023D01*
X133526431Y-124843023D01*
X133696081Y-124894486D01*
X133696083Y-124894487D01*
X133696086Y-124894488D01*
X133852431Y-124978056D01*
X133989475Y-125090525D01*
X134101944Y-125227569D01*
X134185512Y-125383914D01*
X134236978Y-125553573D01*
X134254354Y-125730000D01*
X134236978Y-125906427D01*
X134185513Y-126076084D01*
X134160768Y-126122379D01*
X134151391Y-126145017D01*
X134146611Y-126169051D01*
X134146611Y-126193555D01*
X134151392Y-126217588D01*
X134160769Y-126240227D01*
X134174382Y-126260600D01*
X134184192Y-126272554D01*
X134219943Y-126339439D01*
X134241961Y-126412022D01*
X134250000Y-126493641D01*
X134250000Y-127506359D01*
X134241961Y-127587978D01*
X134219943Y-127660561D01*
X134184192Y-127727446D01*
X134136077Y-127786077D01*
X134077446Y-127834192D01*
X134010561Y-127869943D01*
X133937978Y-127891961D01*
X133856359Y-127900000D01*
X132843641Y-127900000D01*
X132762022Y-127891961D01*
X132689439Y-127869943D01*
X132622554Y-127834192D01*
X132563923Y-127786077D01*
X132515808Y-127727446D01*
X132480057Y-127660561D01*
X132458039Y-127587978D01*
X132450000Y-127506359D01*
X132450000Y-126493641D01*
X132458039Y-126412022D01*
X132480057Y-126339439D01*
X132515808Y-126272554D01*
X132525618Y-126260600D01*
X132539232Y-126240226D01*
X132548609Y-126217587D01*
X132553389Y-126193554D01*
X132553389Y-126169049D01*
X132548608Y-126145016D01*
X132539232Y-126122379D01*
X132514487Y-126076084D01*
X132463022Y-125906427D01*
X132445646Y-125730000D01*
X132463022Y-125553573D01*
X132514488Y-125383914D01*
X132598056Y-125227569D01*
X132710525Y-125090525D01*
X132847569Y-124978056D01*
X133003914Y-124894488D01*
X133003917Y-124894487D01*
X133003919Y-124894486D01*
X133173569Y-124843023D01*
X133173570Y-124843023D01*
X133173573Y-124843022D01*
X133305789Y-124830000D01*
X133394211Y-124830000D01*
X133526427Y-124843022D01*
X133526427Y-124843022D01*
G37*
G36*
X118286427Y-124843022D02*
G01*
X118286430Y-124843023D01*
X118286431Y-124843023D01*
X118456081Y-124894486D01*
X118456083Y-124894487D01*
X118456086Y-124894488D01*
X118612431Y-124978056D01*
X118749475Y-125090525D01*
X118861944Y-125227569D01*
X118945512Y-125383914D01*
X118996978Y-125553573D01*
X119014354Y-125730000D01*
X118996978Y-125906427D01*
X118945513Y-126076084D01*
X118920768Y-126122379D01*
X118911391Y-126145017D01*
X118906611Y-126169051D01*
X118906611Y-126193555D01*
X118911392Y-126217588D01*
X118920769Y-126240227D01*
X118934382Y-126260600D01*
X118944192Y-126272554D01*
X118979943Y-126339439D01*
X119001961Y-126412022D01*
X119010000Y-126493641D01*
X119010000Y-127506359D01*
X119001961Y-127587978D01*
X118979943Y-127660561D01*
X118944192Y-127727446D01*
X118896077Y-127786077D01*
X118837446Y-127834192D01*
X118770561Y-127869943D01*
X118697978Y-127891961D01*
X118616359Y-127900000D01*
X117603641Y-127900000D01*
X117522022Y-127891961D01*
X117449439Y-127869943D01*
X117382554Y-127834192D01*
X117323923Y-127786077D01*
X117275808Y-127727446D01*
X117240057Y-127660561D01*
X117218039Y-127587978D01*
X117210000Y-127506359D01*
X117210000Y-126493641D01*
X117218039Y-126412022D01*
X117240057Y-126339439D01*
X117275808Y-126272554D01*
X117285618Y-126260600D01*
X117299232Y-126240226D01*
X117308609Y-126217587D01*
X117313389Y-126193554D01*
X117313389Y-126169049D01*
X117308608Y-126145016D01*
X117299232Y-126122379D01*
X117274487Y-126076084D01*
X117223022Y-125906427D01*
X117205646Y-125730000D01*
X117223022Y-125553573D01*
X117274488Y-125383914D01*
X117358056Y-125227569D01*
X117470525Y-125090525D01*
X117607569Y-124978056D01*
X117763914Y-124894488D01*
X117763917Y-124894487D01*
X117763919Y-124894486D01*
X117933569Y-124843023D01*
X117933570Y-124843023D01*
X117933573Y-124843022D01*
X118065789Y-124830000D01*
X118154211Y-124830000D01*
X118286427Y-124843022D01*
X118286427Y-124843022D01*
G37*
G36*
X130986427Y-124843022D02*
G01*
X130986430Y-124843023D01*
X130986431Y-124843023D01*
X131156081Y-124894486D01*
X131156083Y-124894487D01*
X131156086Y-124894488D01*
X131312431Y-124978056D01*
X131449475Y-125090525D01*
X131561944Y-125227569D01*
X131645512Y-125383914D01*
X131696978Y-125553573D01*
X131714354Y-125730000D01*
X131696978Y-125906427D01*
X131645513Y-126076084D01*
X131620768Y-126122379D01*
X131611391Y-126145017D01*
X131606611Y-126169051D01*
X131606611Y-126193555D01*
X131611392Y-126217588D01*
X131620769Y-126240227D01*
X131634382Y-126260600D01*
X131644192Y-126272554D01*
X131679943Y-126339439D01*
X131701961Y-126412022D01*
X131710000Y-126493641D01*
X131710000Y-127506359D01*
X131701961Y-127587978D01*
X131679943Y-127660561D01*
X131644192Y-127727446D01*
X131596077Y-127786077D01*
X131537446Y-127834192D01*
X131470561Y-127869943D01*
X131397978Y-127891961D01*
X131316359Y-127900000D01*
X130303641Y-127900000D01*
X130222022Y-127891961D01*
X130149439Y-127869943D01*
X130082554Y-127834192D01*
X130023923Y-127786077D01*
X129975808Y-127727446D01*
X129940057Y-127660561D01*
X129918039Y-127587978D01*
X129910000Y-127506359D01*
X129910000Y-126493641D01*
X129918039Y-126412022D01*
X129940057Y-126339439D01*
X129975808Y-126272554D01*
X129985618Y-126260600D01*
X129999232Y-126240226D01*
X130008609Y-126217587D01*
X130013389Y-126193554D01*
X130013389Y-126169049D01*
X130008608Y-126145016D01*
X129999232Y-126122379D01*
X129974487Y-126076084D01*
X129923022Y-125906427D01*
X129905646Y-125730000D01*
X129923022Y-125553573D01*
X129974488Y-125383914D01*
X130058056Y-125227569D01*
X130170525Y-125090525D01*
X130307569Y-124978056D01*
X130463914Y-124894488D01*
X130463917Y-124894487D01*
X130463919Y-124894486D01*
X130633569Y-124843023D01*
X130633570Y-124843023D01*
X130633573Y-124843022D01*
X130765789Y-124830000D01*
X130854211Y-124830000D01*
X130986427Y-124843022D01*
X130986427Y-124843022D01*
G37*
G36*
X115746427Y-124843022D02*
G01*
X115746430Y-124843023D01*
X115746431Y-124843023D01*
X115916081Y-124894486D01*
X115916083Y-124894487D01*
X115916086Y-124894488D01*
X116072431Y-124978056D01*
X116209475Y-125090525D01*
X116321944Y-125227569D01*
X116405512Y-125383914D01*
X116456978Y-125553573D01*
X116474354Y-125730000D01*
X116456978Y-125906427D01*
X116405513Y-126076084D01*
X116380768Y-126122379D01*
X116371391Y-126145017D01*
X116366611Y-126169051D01*
X116366611Y-126193555D01*
X116371392Y-126217588D01*
X116380769Y-126240227D01*
X116394382Y-126260600D01*
X116404192Y-126272554D01*
X116439943Y-126339439D01*
X116461961Y-126412022D01*
X116470000Y-126493641D01*
X116470000Y-127506359D01*
X116461961Y-127587978D01*
X116439943Y-127660561D01*
X116404192Y-127727446D01*
X116356077Y-127786077D01*
X116297446Y-127834192D01*
X116230561Y-127869943D01*
X116157978Y-127891961D01*
X116076359Y-127900000D01*
X115063641Y-127900000D01*
X114982022Y-127891961D01*
X114909439Y-127869943D01*
X114842554Y-127834192D01*
X114783923Y-127786077D01*
X114735808Y-127727446D01*
X114700057Y-127660561D01*
X114678039Y-127587978D01*
X114670000Y-127506359D01*
X114670000Y-126493641D01*
X114678039Y-126412022D01*
X114700057Y-126339439D01*
X114735808Y-126272554D01*
X114745618Y-126260600D01*
X114759232Y-126240226D01*
X114768609Y-126217587D01*
X114773389Y-126193554D01*
X114773389Y-126169049D01*
X114768608Y-126145016D01*
X114759232Y-126122379D01*
X114734487Y-126076084D01*
X114683022Y-125906427D01*
X114665646Y-125730000D01*
X114683022Y-125553573D01*
X114734488Y-125383914D01*
X114818056Y-125227569D01*
X114930525Y-125090525D01*
X115067569Y-124978056D01*
X115223914Y-124894488D01*
X115223917Y-124894487D01*
X115223919Y-124894486D01*
X115393569Y-124843023D01*
X115393570Y-124843023D01*
X115393573Y-124843022D01*
X115525789Y-124830000D01*
X115614211Y-124830000D01*
X115746427Y-124843022D01*
X115746427Y-124843022D01*
G37*
G36*
X103770000Y-127506359D02*
G01*
X103761961Y-127587978D01*
X103739943Y-127660561D01*
X103704192Y-127727446D01*
X103656077Y-127786077D01*
X103597446Y-127834192D01*
X103530561Y-127869943D01*
X103457978Y-127891961D01*
X103376359Y-127900000D01*
X102363641Y-127900000D01*
X102282022Y-127891961D01*
X102209439Y-127869943D01*
X102142554Y-127834192D01*
X102083923Y-127786077D01*
X102035808Y-127727446D01*
X102000057Y-127660561D01*
X101978039Y-127587978D01*
X101970000Y-127506359D01*
X101970000Y-124830000D01*
X103770000Y-124830000D01*
X103770000Y-127506359D01*
X103770000Y-127506359D01*
G37*
G36*
X113206427Y-124843022D02*
G01*
X113206430Y-124843023D01*
X113206431Y-124843023D01*
X113376081Y-124894486D01*
X113376083Y-124894487D01*
X113376086Y-124894488D01*
X113532431Y-124978056D01*
X113669475Y-125090525D01*
X113781944Y-125227569D01*
X113865512Y-125383914D01*
X113916978Y-125553573D01*
X113934354Y-125730000D01*
X113916978Y-125906427D01*
X113865513Y-126076084D01*
X113840768Y-126122379D01*
X113831391Y-126145017D01*
X113826611Y-126169051D01*
X113826611Y-126193555D01*
X113831392Y-126217588D01*
X113840769Y-126240227D01*
X113854382Y-126260600D01*
X113864192Y-126272554D01*
X113899943Y-126339439D01*
X113921961Y-126412022D01*
X113930000Y-126493641D01*
X113930000Y-127506359D01*
X113921961Y-127587978D01*
X113899943Y-127660561D01*
X113864192Y-127727446D01*
X113816077Y-127786077D01*
X113757446Y-127834192D01*
X113690561Y-127869943D01*
X113617978Y-127891961D01*
X113536359Y-127900000D01*
X112523641Y-127900000D01*
X112442022Y-127891961D01*
X112369439Y-127869943D01*
X112302554Y-127834192D01*
X112243923Y-127786077D01*
X112195808Y-127727446D01*
X112160057Y-127660561D01*
X112138039Y-127587978D01*
X112130000Y-127506359D01*
X112130000Y-126493641D01*
X112138039Y-126412022D01*
X112160057Y-126339439D01*
X112195808Y-126272554D01*
X112205618Y-126260600D01*
X112219232Y-126240226D01*
X112228609Y-126217587D01*
X112233389Y-126193554D01*
X112233389Y-126169049D01*
X112228608Y-126145016D01*
X112219232Y-126122379D01*
X112194487Y-126076084D01*
X112143022Y-125906427D01*
X112125646Y-125730000D01*
X112143022Y-125553573D01*
X112194488Y-125383914D01*
X112278056Y-125227569D01*
X112390525Y-125090525D01*
X112527569Y-124978056D01*
X112683914Y-124894488D01*
X112683917Y-124894487D01*
X112683919Y-124894486D01*
X112853569Y-124843023D01*
X112853570Y-124843023D01*
X112853573Y-124843022D01*
X112985789Y-124830000D01*
X113074211Y-124830000D01*
X113206427Y-124843022D01*
X113206427Y-124843022D01*
G37*
G36*
X123366427Y-124843022D02*
G01*
X123366430Y-124843023D01*
X123366431Y-124843023D01*
X123536081Y-124894486D01*
X123536083Y-124894487D01*
X123536086Y-124894488D01*
X123692431Y-124978056D01*
X123829475Y-125090525D01*
X123941944Y-125227569D01*
X124025512Y-125383914D01*
X124076978Y-125553573D01*
X124094354Y-125730000D01*
X124076978Y-125906427D01*
X124025513Y-126076084D01*
X124000768Y-126122379D01*
X123991391Y-126145017D01*
X123986611Y-126169051D01*
X123986611Y-126193555D01*
X123991392Y-126217588D01*
X124000769Y-126240227D01*
X124014382Y-126260600D01*
X124024192Y-126272554D01*
X124059943Y-126339439D01*
X124081961Y-126412022D01*
X124090000Y-126493641D01*
X124090000Y-127506359D01*
X124081961Y-127587978D01*
X124059943Y-127660561D01*
X124024192Y-127727446D01*
X123976077Y-127786077D01*
X123917446Y-127834192D01*
X123850561Y-127869943D01*
X123777978Y-127891961D01*
X123696359Y-127900000D01*
X122683641Y-127900000D01*
X122602022Y-127891961D01*
X122529439Y-127869943D01*
X122462554Y-127834192D01*
X122403923Y-127786077D01*
X122355808Y-127727446D01*
X122320057Y-127660561D01*
X122298039Y-127587978D01*
X122290000Y-127506359D01*
X122290000Y-126493641D01*
X122298039Y-126412022D01*
X122320057Y-126339439D01*
X122355808Y-126272554D01*
X122365618Y-126260600D01*
X122379232Y-126240226D01*
X122388609Y-126217587D01*
X122393389Y-126193554D01*
X122393389Y-126169049D01*
X122388608Y-126145016D01*
X122379232Y-126122379D01*
X122354487Y-126076084D01*
X122303022Y-125906427D01*
X122285646Y-125730000D01*
X122303022Y-125553573D01*
X122354488Y-125383914D01*
X122438056Y-125227569D01*
X122550525Y-125090525D01*
X122687569Y-124978056D01*
X122843914Y-124894488D01*
X122843917Y-124894487D01*
X122843919Y-124894486D01*
X123013569Y-124843023D01*
X123013570Y-124843023D01*
X123013573Y-124843022D01*
X123145789Y-124830000D01*
X123234211Y-124830000D01*
X123366427Y-124843022D01*
X123366427Y-124843022D01*
G37*
G36*
X128446427Y-124843022D02*
G01*
X128446430Y-124843023D01*
X128446431Y-124843023D01*
X128616081Y-124894486D01*
X128616083Y-124894487D01*
X128616086Y-124894488D01*
X128772431Y-124978056D01*
X128909475Y-125090525D01*
X129021944Y-125227569D01*
X129105512Y-125383914D01*
X129156978Y-125553573D01*
X129174354Y-125730000D01*
X129156978Y-125906427D01*
X129105513Y-126076084D01*
X129080768Y-126122379D01*
X129071391Y-126145017D01*
X129066611Y-126169051D01*
X129066611Y-126193555D01*
X129071392Y-126217588D01*
X129080769Y-126240227D01*
X129094382Y-126260600D01*
X129104192Y-126272554D01*
X129139943Y-126339439D01*
X129161961Y-126412022D01*
X129170000Y-126493641D01*
X129170000Y-127506359D01*
X129161961Y-127587978D01*
X129139943Y-127660561D01*
X129104192Y-127727446D01*
X129056077Y-127786077D01*
X128997446Y-127834192D01*
X128930561Y-127869943D01*
X128857978Y-127891961D01*
X128776359Y-127900000D01*
X127763641Y-127900000D01*
X127682022Y-127891961D01*
X127609439Y-127869943D01*
X127542554Y-127834192D01*
X127483923Y-127786077D01*
X127435808Y-127727446D01*
X127400057Y-127660561D01*
X127378039Y-127587978D01*
X127370000Y-127506359D01*
X127370000Y-126493641D01*
X127378039Y-126412022D01*
X127400057Y-126339439D01*
X127435808Y-126272554D01*
X127445618Y-126260600D01*
X127459232Y-126240226D01*
X127468609Y-126217587D01*
X127473389Y-126193554D01*
X127473389Y-126169049D01*
X127468608Y-126145016D01*
X127459232Y-126122379D01*
X127434487Y-126076084D01*
X127383022Y-125906427D01*
X127365646Y-125730000D01*
X127383022Y-125553573D01*
X127434488Y-125383914D01*
X127518056Y-125227569D01*
X127630525Y-125090525D01*
X127767569Y-124978056D01*
X127923914Y-124894488D01*
X127923917Y-124894487D01*
X127923919Y-124894486D01*
X128093569Y-124843023D01*
X128093570Y-124843023D01*
X128093573Y-124843022D01*
X128225789Y-124830000D01*
X128314211Y-124830000D01*
X128446427Y-124843022D01*
X128446427Y-124843022D01*
G37*
G36*
X120826427Y-124843022D02*
G01*
X120826430Y-124843023D01*
X120826431Y-124843023D01*
X120996081Y-124894486D01*
X120996083Y-124894487D01*
X120996086Y-124894488D01*
X121152431Y-124978056D01*
X121289475Y-125090525D01*
X121401944Y-125227569D01*
X121485512Y-125383914D01*
X121536978Y-125553573D01*
X121554354Y-125730000D01*
X121536978Y-125906427D01*
X121485513Y-126076084D01*
X121460768Y-126122379D01*
X121451391Y-126145017D01*
X121446611Y-126169051D01*
X121446611Y-126193555D01*
X121451392Y-126217588D01*
X121460769Y-126240227D01*
X121474382Y-126260600D01*
X121484192Y-126272554D01*
X121519943Y-126339439D01*
X121541961Y-126412022D01*
X121550000Y-126493641D01*
X121550000Y-127506359D01*
X121541961Y-127587978D01*
X121519943Y-127660561D01*
X121484192Y-127727446D01*
X121436077Y-127786077D01*
X121377446Y-127834192D01*
X121310561Y-127869943D01*
X121237978Y-127891961D01*
X121156359Y-127900000D01*
X120143641Y-127900000D01*
X120062022Y-127891961D01*
X119989439Y-127869943D01*
X119922554Y-127834192D01*
X119863923Y-127786077D01*
X119815808Y-127727446D01*
X119780057Y-127660561D01*
X119758039Y-127587978D01*
X119750000Y-127506359D01*
X119750000Y-126493641D01*
X119758039Y-126412022D01*
X119780057Y-126339439D01*
X119815808Y-126272554D01*
X119825618Y-126260600D01*
X119839232Y-126240226D01*
X119848609Y-126217587D01*
X119853389Y-126193554D01*
X119853389Y-126169049D01*
X119848608Y-126145016D01*
X119839232Y-126122379D01*
X119814487Y-126076084D01*
X119763022Y-125906427D01*
X119745646Y-125730000D01*
X119763022Y-125553573D01*
X119814488Y-125383914D01*
X119898056Y-125227569D01*
X120010525Y-125090525D01*
X120147569Y-124978056D01*
X120303914Y-124894488D01*
X120303917Y-124894487D01*
X120303919Y-124894486D01*
X120473569Y-124843023D01*
X120473570Y-124843023D01*
X120473573Y-124843022D01*
X120605789Y-124830000D01*
X120694211Y-124830000D01*
X120826427Y-124843022D01*
X120826427Y-124843022D01*
G37*
G36*
X136066427Y-124843022D02*
G01*
X136066430Y-124843023D01*
X136066431Y-124843023D01*
X136236081Y-124894486D01*
X136236083Y-124894487D01*
X136236086Y-124894488D01*
X136392431Y-124978056D01*
X136529475Y-125090525D01*
X136641944Y-125227569D01*
X136725512Y-125383914D01*
X136776978Y-125553573D01*
X136794354Y-125730000D01*
X136776978Y-125906427D01*
X136725513Y-126076084D01*
X136700768Y-126122379D01*
X136691391Y-126145017D01*
X136686611Y-126169051D01*
X136686611Y-126193555D01*
X136691392Y-126217588D01*
X136700769Y-126240227D01*
X136714382Y-126260600D01*
X136724192Y-126272554D01*
X136759943Y-126339439D01*
X136781961Y-126412022D01*
X136790000Y-126493641D01*
X136790000Y-127506359D01*
X136781961Y-127587978D01*
X136759943Y-127660561D01*
X136724192Y-127727446D01*
X136676077Y-127786077D01*
X136617446Y-127834192D01*
X136550561Y-127869943D01*
X136477978Y-127891961D01*
X136396359Y-127900000D01*
X135383641Y-127900000D01*
X135302022Y-127891961D01*
X135229439Y-127869943D01*
X135162554Y-127834192D01*
X135103923Y-127786077D01*
X135055808Y-127727446D01*
X135020057Y-127660561D01*
X134998039Y-127587978D01*
X134990000Y-127506359D01*
X134990000Y-126493641D01*
X134998039Y-126412022D01*
X135020057Y-126339439D01*
X135055808Y-126272554D01*
X135065618Y-126260600D01*
X135079232Y-126240226D01*
X135088609Y-126217587D01*
X135093389Y-126193554D01*
X135093389Y-126169049D01*
X135088608Y-126145016D01*
X135079232Y-126122379D01*
X135054487Y-126076084D01*
X135003022Y-125906427D01*
X134985646Y-125730000D01*
X135003022Y-125553573D01*
X135054488Y-125383914D01*
X135138056Y-125227569D01*
X135250525Y-125090525D01*
X135387569Y-124978056D01*
X135543914Y-124894488D01*
X135543917Y-124894487D01*
X135543919Y-124894486D01*
X135713569Y-124843023D01*
X135713570Y-124843023D01*
X135713573Y-124843022D01*
X135845789Y-124830000D01*
X135934211Y-124830000D01*
X136066427Y-124843022D01*
X136066427Y-124843022D01*
G37*
G36*
X110666427Y-124843022D02*
G01*
X110666430Y-124843023D01*
X110666431Y-124843023D01*
X110836081Y-124894486D01*
X110836083Y-124894487D01*
X110836086Y-124894488D01*
X110992431Y-124978056D01*
X111129475Y-125090525D01*
X111241944Y-125227569D01*
X111325512Y-125383914D01*
X111376978Y-125553573D01*
X111394354Y-125730000D01*
X111376978Y-125906427D01*
X111325513Y-126076084D01*
X111300768Y-126122379D01*
X111291391Y-126145017D01*
X111286611Y-126169051D01*
X111286611Y-126193555D01*
X111291392Y-126217588D01*
X111300769Y-126240227D01*
X111314382Y-126260600D01*
X111324192Y-126272554D01*
X111359943Y-126339439D01*
X111381961Y-126412022D01*
X111390000Y-126493641D01*
X111390000Y-127506359D01*
X111381961Y-127587978D01*
X111359943Y-127660561D01*
X111324192Y-127727446D01*
X111276077Y-127786077D01*
X111217446Y-127834192D01*
X111150561Y-127869943D01*
X111077978Y-127891961D01*
X110996359Y-127900000D01*
X109983641Y-127900000D01*
X109902022Y-127891961D01*
X109829439Y-127869943D01*
X109762554Y-127834192D01*
X109703923Y-127786077D01*
X109655808Y-127727446D01*
X109620057Y-127660561D01*
X109598039Y-127587978D01*
X109590000Y-127506359D01*
X109590000Y-126493641D01*
X109598039Y-126412022D01*
X109620057Y-126339439D01*
X109655808Y-126272554D01*
X109665618Y-126260600D01*
X109679232Y-126240226D01*
X109688609Y-126217587D01*
X109693389Y-126193554D01*
X109693389Y-126169049D01*
X109688608Y-126145016D01*
X109679232Y-126122379D01*
X109654487Y-126076084D01*
X109603022Y-125906427D01*
X109585646Y-125730000D01*
X109603022Y-125553573D01*
X109654488Y-125383914D01*
X109738056Y-125227569D01*
X109850525Y-125090525D01*
X109987569Y-124978056D01*
X110143914Y-124894488D01*
X110143917Y-124894487D01*
X110143919Y-124894486D01*
X110313569Y-124843023D01*
X110313570Y-124843023D01*
X110313573Y-124843022D01*
X110445789Y-124830000D01*
X110534211Y-124830000D01*
X110666427Y-124843022D01*
X110666427Y-124843022D01*
G37*
G36*
X105586427Y-124843022D02*
G01*
X105586430Y-124843023D01*
X105586431Y-124843023D01*
X105756081Y-124894486D01*
X105756083Y-124894487D01*
X105756086Y-124894488D01*
X105912431Y-124978056D01*
X106049475Y-125090525D01*
X106161944Y-125227569D01*
X106245512Y-125383914D01*
X106296978Y-125553573D01*
X106314354Y-125730000D01*
X106296978Y-125906427D01*
X106245513Y-126076084D01*
X106220768Y-126122379D01*
X106211391Y-126145017D01*
X106206611Y-126169051D01*
X106206611Y-126193555D01*
X106211392Y-126217588D01*
X106220769Y-126240227D01*
X106234382Y-126260600D01*
X106244192Y-126272554D01*
X106279943Y-126339439D01*
X106301961Y-126412022D01*
X106310000Y-126493641D01*
X106310000Y-127506359D01*
X106301961Y-127587978D01*
X106279943Y-127660561D01*
X106244192Y-127727446D01*
X106196077Y-127786077D01*
X106137446Y-127834192D01*
X106070561Y-127869943D01*
X105997978Y-127891961D01*
X105916359Y-127900000D01*
X104903641Y-127900000D01*
X104822022Y-127891961D01*
X104749439Y-127869943D01*
X104682554Y-127834192D01*
X104623923Y-127786077D01*
X104575808Y-127727446D01*
X104540057Y-127660561D01*
X104518039Y-127587978D01*
X104510000Y-127506359D01*
X104510000Y-126493641D01*
X104518039Y-126412022D01*
X104540057Y-126339439D01*
X104575808Y-126272554D01*
X104585618Y-126260600D01*
X104599232Y-126240226D01*
X104608609Y-126217587D01*
X104613389Y-126193554D01*
X104613389Y-126169049D01*
X104608608Y-126145016D01*
X104599232Y-126122379D01*
X104574487Y-126076084D01*
X104523022Y-125906427D01*
X104505646Y-125730000D01*
X104523022Y-125553573D01*
X104574488Y-125383914D01*
X104658056Y-125227569D01*
X104770525Y-125090525D01*
X104907569Y-124978056D01*
X105063914Y-124894488D01*
X105063917Y-124894487D01*
X105063919Y-124894486D01*
X105233569Y-124843023D01*
X105233570Y-124843023D01*
X105233573Y-124843022D01*
X105365789Y-124830000D01*
X105454211Y-124830000D01*
X105586427Y-124843022D01*
X105586427Y-124843022D01*
G37*
G36*
X108126427Y-124843022D02*
G01*
X108126430Y-124843023D01*
X108126431Y-124843023D01*
X108296081Y-124894486D01*
X108296083Y-124894487D01*
X108296086Y-124894488D01*
X108452431Y-124978056D01*
X108589475Y-125090525D01*
X108701944Y-125227569D01*
X108785512Y-125383914D01*
X108836978Y-125553573D01*
X108854354Y-125730000D01*
X108836978Y-125906427D01*
X108785513Y-126076084D01*
X108760768Y-126122379D01*
X108751391Y-126145017D01*
X108746611Y-126169051D01*
X108746611Y-126193555D01*
X108751392Y-126217588D01*
X108760769Y-126240227D01*
X108774382Y-126260600D01*
X108784192Y-126272554D01*
X108819943Y-126339439D01*
X108841961Y-126412022D01*
X108850000Y-126493641D01*
X108850000Y-127506359D01*
X108841961Y-127587978D01*
X108819943Y-127660561D01*
X108784192Y-127727446D01*
X108736077Y-127786077D01*
X108677446Y-127834192D01*
X108610561Y-127869943D01*
X108537978Y-127891961D01*
X108456359Y-127900000D01*
X107443641Y-127900000D01*
X107362022Y-127891961D01*
X107289439Y-127869943D01*
X107222554Y-127834192D01*
X107163923Y-127786077D01*
X107115808Y-127727446D01*
X107080057Y-127660561D01*
X107058039Y-127587978D01*
X107050000Y-127506359D01*
X107050000Y-126493641D01*
X107058039Y-126412022D01*
X107080057Y-126339439D01*
X107115808Y-126272554D01*
X107125618Y-126260600D01*
X107139232Y-126240226D01*
X107148609Y-126217587D01*
X107153389Y-126193554D01*
X107153389Y-126169049D01*
X107148608Y-126145016D01*
X107139232Y-126122379D01*
X107114487Y-126076084D01*
X107063022Y-125906427D01*
X107045646Y-125730000D01*
X107063022Y-125553573D01*
X107114488Y-125383914D01*
X107198056Y-125227569D01*
X107310525Y-125090525D01*
X107447569Y-124978056D01*
X107603914Y-124894488D01*
X107603917Y-124894487D01*
X107603919Y-124894486D01*
X107773569Y-124843023D01*
X107773570Y-124843023D01*
X107773573Y-124843022D01*
X107905789Y-124830000D01*
X107994211Y-124830000D01*
X108126427Y-124843022D01*
X108126427Y-124843022D01*
G37*
G36*
X116157978Y-108328039D02*
G01*
X116230561Y-108350057D01*
X116297446Y-108385808D01*
X116356077Y-108433923D01*
X116404192Y-108492554D01*
X116439943Y-108559439D01*
X116461961Y-108632022D01*
X116470000Y-108713641D01*
X116470000Y-109726359D01*
X116461961Y-109807978D01*
X116439943Y-109880561D01*
X116404192Y-109947446D01*
X116394382Y-109959400D01*
X116380768Y-109979774D01*
X116371391Y-110002413D01*
X116366611Y-110026446D01*
X116366611Y-110050951D01*
X116371392Y-110074984D01*
X116380768Y-110097621D01*
X116405513Y-110143916D01*
X116456978Y-110313573D01*
X116474354Y-110490000D01*
X116456978Y-110666427D01*
X116405512Y-110836086D01*
X116321944Y-110992431D01*
X116209475Y-111129475D01*
X116072431Y-111241944D01*
X115916086Y-111325512D01*
X115916083Y-111325513D01*
X115916081Y-111325514D01*
X115746431Y-111376977D01*
X115746430Y-111376977D01*
X115746427Y-111376978D01*
X115614211Y-111390000D01*
X115525789Y-111390000D01*
X115393573Y-111376978D01*
X115393570Y-111376977D01*
X115393569Y-111376977D01*
X115223919Y-111325514D01*
X115223917Y-111325513D01*
X115223914Y-111325512D01*
X115067569Y-111241944D01*
X114930525Y-111129475D01*
X114818056Y-110992431D01*
X114734488Y-110836086D01*
X114683022Y-110666427D01*
X114665646Y-110490000D01*
X114683022Y-110313573D01*
X114734487Y-110143916D01*
X114759232Y-110097621D01*
X114768609Y-110074983D01*
X114773389Y-110050949D01*
X114773389Y-110026445D01*
X114768608Y-110002412D01*
X114759231Y-109979773D01*
X114745618Y-109959400D01*
X114735808Y-109947446D01*
X114700057Y-109880561D01*
X114678039Y-109807978D01*
X114670000Y-109726359D01*
X114670000Y-108713641D01*
X114678039Y-108632022D01*
X114700057Y-108559439D01*
X114735808Y-108492554D01*
X114783923Y-108433923D01*
X114842554Y-108385808D01*
X114909439Y-108350057D01*
X114982022Y-108328039D01*
X115063641Y-108320000D01*
X116076359Y-108320000D01*
X116157978Y-108328039D01*
X116157978Y-108328039D01*
G37*
G36*
X113617978Y-108328039D02*
G01*
X113690561Y-108350057D01*
X113757446Y-108385808D01*
X113816077Y-108433923D01*
X113864192Y-108492554D01*
X113899943Y-108559439D01*
X113921961Y-108632022D01*
X113930000Y-108713641D01*
X113930000Y-109726359D01*
X113921961Y-109807978D01*
X113899943Y-109880561D01*
X113864192Y-109947446D01*
X113854382Y-109959400D01*
X113840768Y-109979774D01*
X113831391Y-110002413D01*
X113826611Y-110026446D01*
X113826611Y-110050951D01*
X113831392Y-110074984D01*
X113840768Y-110097621D01*
X113865513Y-110143916D01*
X113916978Y-110313573D01*
X113934354Y-110490000D01*
X113916978Y-110666427D01*
X113865512Y-110836086D01*
X113781944Y-110992431D01*
X113669475Y-111129475D01*
X113532431Y-111241944D01*
X113376086Y-111325512D01*
X113376083Y-111325513D01*
X113376081Y-111325514D01*
X113206431Y-111376977D01*
X113206430Y-111376977D01*
X113206427Y-111376978D01*
X113074211Y-111390000D01*
X112985789Y-111390000D01*
X112853573Y-111376978D01*
X112853570Y-111376977D01*
X112853569Y-111376977D01*
X112683919Y-111325514D01*
X112683917Y-111325513D01*
X112683914Y-111325512D01*
X112527569Y-111241944D01*
X112390525Y-111129475D01*
X112278056Y-110992431D01*
X112194488Y-110836086D01*
X112143022Y-110666427D01*
X112125646Y-110490000D01*
X112143022Y-110313573D01*
X112194487Y-110143916D01*
X112219232Y-110097621D01*
X112228609Y-110074983D01*
X112233389Y-110050949D01*
X112233389Y-110026445D01*
X112228608Y-110002412D01*
X112219231Y-109979773D01*
X112205618Y-109959400D01*
X112195808Y-109947446D01*
X112160057Y-109880561D01*
X112138039Y-109807978D01*
X112130000Y-109726359D01*
X112130000Y-108713641D01*
X112138039Y-108632022D01*
X112160057Y-108559439D01*
X112195808Y-108492554D01*
X112243923Y-108433923D01*
X112302554Y-108385808D01*
X112369439Y-108350057D01*
X112442022Y-108328039D01*
X112523641Y-108320000D01*
X113536359Y-108320000D01*
X113617978Y-108328039D01*
X113617978Y-108328039D01*
G37*
G36*
X111077978Y-108328039D02*
G01*
X111150561Y-108350057D01*
X111217446Y-108385808D01*
X111276077Y-108433923D01*
X111324192Y-108492554D01*
X111359943Y-108559439D01*
X111381961Y-108632022D01*
X111390000Y-108713641D01*
X111390000Y-109726359D01*
X111381961Y-109807978D01*
X111359943Y-109880561D01*
X111324192Y-109947446D01*
X111314382Y-109959400D01*
X111300768Y-109979774D01*
X111291391Y-110002413D01*
X111286611Y-110026446D01*
X111286611Y-110050951D01*
X111291392Y-110074984D01*
X111300768Y-110097621D01*
X111325513Y-110143916D01*
X111376978Y-110313573D01*
X111394354Y-110490000D01*
X111376978Y-110666427D01*
X111325512Y-110836086D01*
X111241944Y-110992431D01*
X111129475Y-111129475D01*
X110992431Y-111241944D01*
X110836086Y-111325512D01*
X110836083Y-111325513D01*
X110836081Y-111325514D01*
X110666431Y-111376977D01*
X110666430Y-111376977D01*
X110666427Y-111376978D01*
X110534211Y-111390000D01*
X110445789Y-111390000D01*
X110313573Y-111376978D01*
X110313570Y-111376977D01*
X110313569Y-111376977D01*
X110143919Y-111325514D01*
X110143917Y-111325513D01*
X110143914Y-111325512D01*
X109987569Y-111241944D01*
X109850525Y-111129475D01*
X109738056Y-110992431D01*
X109654488Y-110836086D01*
X109603022Y-110666427D01*
X109585646Y-110490000D01*
X109603022Y-110313573D01*
X109654487Y-110143916D01*
X109679232Y-110097621D01*
X109688609Y-110074983D01*
X109693389Y-110050949D01*
X109693389Y-110026445D01*
X109688608Y-110002412D01*
X109679231Y-109979773D01*
X109665618Y-109959400D01*
X109655808Y-109947446D01*
X109620057Y-109880561D01*
X109598039Y-109807978D01*
X109590000Y-109726359D01*
X109590000Y-108713641D01*
X109598039Y-108632022D01*
X109620057Y-108559439D01*
X109655808Y-108492554D01*
X109703923Y-108433923D01*
X109762554Y-108385808D01*
X109829439Y-108350057D01*
X109902022Y-108328039D01*
X109983641Y-108320000D01*
X110996359Y-108320000D01*
X111077978Y-108328039D01*
X111077978Y-108328039D01*
G37*
G36*
X118697978Y-108328039D02*
G01*
X118770561Y-108350057D01*
X118837446Y-108385808D01*
X118896077Y-108433923D01*
X118944192Y-108492554D01*
X118979943Y-108559439D01*
X119001961Y-108632022D01*
X119010000Y-108713641D01*
X119010000Y-109726359D01*
X119001961Y-109807978D01*
X118979943Y-109880561D01*
X118944192Y-109947446D01*
X118934382Y-109959400D01*
X118920768Y-109979774D01*
X118911391Y-110002413D01*
X118906611Y-110026446D01*
X118906611Y-110050951D01*
X118911392Y-110074984D01*
X118920768Y-110097621D01*
X118945513Y-110143916D01*
X118996978Y-110313573D01*
X119014354Y-110490000D01*
X118996978Y-110666427D01*
X118945512Y-110836086D01*
X118861944Y-110992431D01*
X118749475Y-111129475D01*
X118612431Y-111241944D01*
X118456086Y-111325512D01*
X118456083Y-111325513D01*
X118456081Y-111325514D01*
X118286431Y-111376977D01*
X118286430Y-111376977D01*
X118286427Y-111376978D01*
X118154211Y-111390000D01*
X118065789Y-111390000D01*
X117933573Y-111376978D01*
X117933570Y-111376977D01*
X117933569Y-111376977D01*
X117763919Y-111325514D01*
X117763917Y-111325513D01*
X117763914Y-111325512D01*
X117607569Y-111241944D01*
X117470525Y-111129475D01*
X117358056Y-110992431D01*
X117274488Y-110836086D01*
X117223022Y-110666427D01*
X117205646Y-110490000D01*
X117223022Y-110313573D01*
X117274487Y-110143916D01*
X117299232Y-110097621D01*
X117308609Y-110074983D01*
X117313389Y-110050949D01*
X117313389Y-110026445D01*
X117308608Y-110002412D01*
X117299231Y-109979773D01*
X117285618Y-109959400D01*
X117275808Y-109947446D01*
X117240057Y-109880561D01*
X117218039Y-109807978D01*
X117210000Y-109726359D01*
X117210000Y-108713641D01*
X117218039Y-108632022D01*
X117240057Y-108559439D01*
X117275808Y-108492554D01*
X117323923Y-108433923D01*
X117382554Y-108385808D01*
X117449439Y-108350057D01*
X117522022Y-108328039D01*
X117603641Y-108320000D01*
X118616359Y-108320000D01*
X118697978Y-108328039D01*
X118697978Y-108328039D01*
G37*
G36*
X105997978Y-108328039D02*
G01*
X106070561Y-108350057D01*
X106137446Y-108385808D01*
X106196077Y-108433923D01*
X106244192Y-108492554D01*
X106279943Y-108559439D01*
X106301961Y-108632022D01*
X106310000Y-108713641D01*
X106310000Y-109726359D01*
X106301961Y-109807978D01*
X106279943Y-109880561D01*
X106244192Y-109947446D01*
X106234382Y-109959400D01*
X106220768Y-109979774D01*
X106211391Y-110002413D01*
X106206611Y-110026446D01*
X106206611Y-110050951D01*
X106211392Y-110074984D01*
X106220768Y-110097621D01*
X106245513Y-110143916D01*
X106296978Y-110313573D01*
X106314354Y-110490000D01*
X106296978Y-110666427D01*
X106245512Y-110836086D01*
X106161944Y-110992431D01*
X106049475Y-111129475D01*
X105912431Y-111241944D01*
X105756086Y-111325512D01*
X105756083Y-111325513D01*
X105756081Y-111325514D01*
X105586431Y-111376977D01*
X105586430Y-111376977D01*
X105586427Y-111376978D01*
X105454211Y-111390000D01*
X105365789Y-111390000D01*
X105233573Y-111376978D01*
X105233570Y-111376977D01*
X105233569Y-111376977D01*
X105063919Y-111325514D01*
X105063917Y-111325513D01*
X105063914Y-111325512D01*
X104907569Y-111241944D01*
X104770525Y-111129475D01*
X104658056Y-110992431D01*
X104574488Y-110836086D01*
X104523022Y-110666427D01*
X104505646Y-110490000D01*
X104523022Y-110313573D01*
X104574487Y-110143916D01*
X104599232Y-110097621D01*
X104608609Y-110074983D01*
X104613389Y-110050949D01*
X104613389Y-110026445D01*
X104608608Y-110002412D01*
X104599231Y-109979773D01*
X104585618Y-109959400D01*
X104575808Y-109947446D01*
X104540057Y-109880561D01*
X104518039Y-109807978D01*
X104510000Y-109726359D01*
X104510000Y-108713641D01*
X104518039Y-108632022D01*
X104540057Y-108559439D01*
X104575808Y-108492554D01*
X104623923Y-108433923D01*
X104682554Y-108385808D01*
X104749439Y-108350057D01*
X104822022Y-108328039D01*
X104903641Y-108320000D01*
X105916359Y-108320000D01*
X105997978Y-108328039D01*
X105997978Y-108328039D01*
G37*
G36*
X103457978Y-108328039D02*
G01*
X103530561Y-108350057D01*
X103597446Y-108385808D01*
X103656077Y-108433923D01*
X103704192Y-108492554D01*
X103739943Y-108559439D01*
X103761961Y-108632022D01*
X103770000Y-108713641D01*
X103770000Y-111390000D01*
X101970000Y-111390000D01*
X101970000Y-108713641D01*
X101978039Y-108632022D01*
X102000057Y-108559439D01*
X102035808Y-108492554D01*
X102083923Y-108433923D01*
X102142554Y-108385808D01*
X102209439Y-108350057D01*
X102282022Y-108328039D01*
X102363641Y-108320000D01*
X103376359Y-108320000D01*
X103457978Y-108328039D01*
X103457978Y-108328039D01*
G37*
G36*
X133937978Y-108328039D02*
G01*
X134010561Y-108350057D01*
X134077446Y-108385808D01*
X134136077Y-108433923D01*
X134184192Y-108492554D01*
X134219943Y-108559439D01*
X134241961Y-108632022D01*
X134250000Y-108713641D01*
X134250000Y-109726359D01*
X134241961Y-109807978D01*
X134219943Y-109880561D01*
X134184192Y-109947446D01*
X134174382Y-109959400D01*
X134160768Y-109979774D01*
X134151391Y-110002413D01*
X134146611Y-110026446D01*
X134146611Y-110050951D01*
X134151392Y-110074984D01*
X134160768Y-110097621D01*
X134185513Y-110143916D01*
X134236978Y-110313573D01*
X134254354Y-110490000D01*
X134236978Y-110666427D01*
X134185512Y-110836086D01*
X134101944Y-110992431D01*
X133989475Y-111129475D01*
X133852431Y-111241944D01*
X133696086Y-111325512D01*
X133696083Y-111325513D01*
X133696081Y-111325514D01*
X133526431Y-111376977D01*
X133526430Y-111376977D01*
X133526427Y-111376978D01*
X133394211Y-111390000D01*
X133305789Y-111390000D01*
X133173573Y-111376978D01*
X133173570Y-111376977D01*
X133173569Y-111376977D01*
X133003919Y-111325514D01*
X133003917Y-111325513D01*
X133003914Y-111325512D01*
X132847569Y-111241944D01*
X132710525Y-111129475D01*
X132598056Y-110992431D01*
X132514488Y-110836086D01*
X132463022Y-110666427D01*
X132445646Y-110490000D01*
X132463022Y-110313573D01*
X132514487Y-110143916D01*
X132539232Y-110097621D01*
X132548609Y-110074983D01*
X132553389Y-110050949D01*
X132553389Y-110026445D01*
X132548608Y-110002412D01*
X132539231Y-109979773D01*
X132525618Y-109959400D01*
X132515808Y-109947446D01*
X132480057Y-109880561D01*
X132458039Y-109807978D01*
X132450000Y-109726359D01*
X132450000Y-108713641D01*
X132458039Y-108632022D01*
X132480057Y-108559439D01*
X132515808Y-108492554D01*
X132563923Y-108433923D01*
X132622554Y-108385808D01*
X132689439Y-108350057D01*
X132762022Y-108328039D01*
X132843641Y-108320000D01*
X133856359Y-108320000D01*
X133937978Y-108328039D01*
X133937978Y-108328039D01*
G37*
G36*
X128857978Y-108328039D02*
G01*
X128930561Y-108350057D01*
X128997446Y-108385808D01*
X129056077Y-108433923D01*
X129104192Y-108492554D01*
X129139943Y-108559439D01*
X129161961Y-108632022D01*
X129170000Y-108713641D01*
X129170000Y-109726359D01*
X129161961Y-109807978D01*
X129139943Y-109880561D01*
X129104192Y-109947446D01*
X129094382Y-109959400D01*
X129080768Y-109979774D01*
X129071391Y-110002413D01*
X129066611Y-110026446D01*
X129066611Y-110050951D01*
X129071392Y-110074984D01*
X129080768Y-110097621D01*
X129105513Y-110143916D01*
X129156978Y-110313573D01*
X129174354Y-110490000D01*
X129156978Y-110666427D01*
X129105512Y-110836086D01*
X129021944Y-110992431D01*
X128909475Y-111129475D01*
X128772431Y-111241944D01*
X128616086Y-111325512D01*
X128616083Y-111325513D01*
X128616081Y-111325514D01*
X128446431Y-111376977D01*
X128446430Y-111376977D01*
X128446427Y-111376978D01*
X128314211Y-111390000D01*
X128225789Y-111390000D01*
X128093573Y-111376978D01*
X128093570Y-111376977D01*
X128093569Y-111376977D01*
X127923919Y-111325514D01*
X127923917Y-111325513D01*
X127923914Y-111325512D01*
X127767569Y-111241944D01*
X127630525Y-111129475D01*
X127518056Y-110992431D01*
X127434488Y-110836086D01*
X127383022Y-110666427D01*
X127365646Y-110490000D01*
X127383022Y-110313573D01*
X127434487Y-110143916D01*
X127459232Y-110097621D01*
X127468609Y-110074983D01*
X127473389Y-110050949D01*
X127473389Y-110026445D01*
X127468608Y-110002412D01*
X127459231Y-109979773D01*
X127445618Y-109959400D01*
X127435808Y-109947446D01*
X127400057Y-109880561D01*
X127378039Y-109807978D01*
X127370000Y-109726359D01*
X127370000Y-108713641D01*
X127378039Y-108632022D01*
X127400057Y-108559439D01*
X127435808Y-108492554D01*
X127483923Y-108433923D01*
X127542554Y-108385808D01*
X127609439Y-108350057D01*
X127682022Y-108328039D01*
X127763641Y-108320000D01*
X128776359Y-108320000D01*
X128857978Y-108328039D01*
X128857978Y-108328039D01*
G37*
G36*
X126317978Y-108328039D02*
G01*
X126390561Y-108350057D01*
X126457446Y-108385808D01*
X126516077Y-108433923D01*
X126564192Y-108492554D01*
X126599943Y-108559439D01*
X126621961Y-108632022D01*
X126630000Y-108713641D01*
X126630000Y-109726359D01*
X126621961Y-109807978D01*
X126599943Y-109880561D01*
X126564192Y-109947446D01*
X126554382Y-109959400D01*
X126540768Y-109979774D01*
X126531391Y-110002413D01*
X126526611Y-110026446D01*
X126526611Y-110050951D01*
X126531392Y-110074984D01*
X126540768Y-110097621D01*
X126565513Y-110143916D01*
X126616978Y-110313573D01*
X126634354Y-110490000D01*
X126616978Y-110666427D01*
X126565512Y-110836086D01*
X126481944Y-110992431D01*
X126369475Y-111129475D01*
X126232431Y-111241944D01*
X126076086Y-111325512D01*
X126076083Y-111325513D01*
X126076081Y-111325514D01*
X125906431Y-111376977D01*
X125906430Y-111376977D01*
X125906427Y-111376978D01*
X125774211Y-111390000D01*
X125685789Y-111390000D01*
X125553573Y-111376978D01*
X125553570Y-111376977D01*
X125553569Y-111376977D01*
X125383919Y-111325514D01*
X125383917Y-111325513D01*
X125383914Y-111325512D01*
X125227569Y-111241944D01*
X125090525Y-111129475D01*
X124978056Y-110992431D01*
X124894488Y-110836086D01*
X124843022Y-110666427D01*
X124825646Y-110490000D01*
X124843022Y-110313573D01*
X124894487Y-110143916D01*
X124919232Y-110097621D01*
X124928609Y-110074983D01*
X124933389Y-110050949D01*
X124933389Y-110026445D01*
X124928608Y-110002412D01*
X124919231Y-109979773D01*
X124905618Y-109959400D01*
X124895808Y-109947446D01*
X124860057Y-109880561D01*
X124838039Y-109807978D01*
X124830000Y-109726359D01*
X124830000Y-108713641D01*
X124838039Y-108632022D01*
X124860057Y-108559439D01*
X124895808Y-108492554D01*
X124943923Y-108433923D01*
X125002554Y-108385808D01*
X125069439Y-108350057D01*
X125142022Y-108328039D01*
X125223641Y-108320000D01*
X126236359Y-108320000D01*
X126317978Y-108328039D01*
X126317978Y-108328039D01*
G37*
G36*
X123777978Y-108328039D02*
G01*
X123850561Y-108350057D01*
X123917446Y-108385808D01*
X123976077Y-108433923D01*
X124024192Y-108492554D01*
X124059943Y-108559439D01*
X124081961Y-108632022D01*
X124090000Y-108713641D01*
X124090000Y-109726359D01*
X124081961Y-109807978D01*
X124059943Y-109880561D01*
X124024192Y-109947446D01*
X124014382Y-109959400D01*
X124000768Y-109979774D01*
X123991391Y-110002413D01*
X123986611Y-110026446D01*
X123986611Y-110050951D01*
X123991392Y-110074984D01*
X124000768Y-110097621D01*
X124025513Y-110143916D01*
X124076978Y-110313573D01*
X124094354Y-110490000D01*
X124076978Y-110666427D01*
X124025512Y-110836086D01*
X123941944Y-110992431D01*
X123829475Y-111129475D01*
X123692431Y-111241944D01*
X123536086Y-111325512D01*
X123536083Y-111325513D01*
X123536081Y-111325514D01*
X123366431Y-111376977D01*
X123366430Y-111376977D01*
X123366427Y-111376978D01*
X123234211Y-111390000D01*
X123145789Y-111390000D01*
X123013573Y-111376978D01*
X123013570Y-111376977D01*
X123013569Y-111376977D01*
X122843919Y-111325514D01*
X122843917Y-111325513D01*
X122843914Y-111325512D01*
X122687569Y-111241944D01*
X122550525Y-111129475D01*
X122438056Y-110992431D01*
X122354488Y-110836086D01*
X122303022Y-110666427D01*
X122285646Y-110490000D01*
X122303022Y-110313573D01*
X122354487Y-110143916D01*
X122379232Y-110097621D01*
X122388609Y-110074983D01*
X122393389Y-110050949D01*
X122393389Y-110026445D01*
X122388608Y-110002412D01*
X122379231Y-109979773D01*
X122365618Y-109959400D01*
X122355808Y-109947446D01*
X122320057Y-109880561D01*
X122298039Y-109807978D01*
X122290000Y-109726359D01*
X122290000Y-108713641D01*
X122298039Y-108632022D01*
X122320057Y-108559439D01*
X122355808Y-108492554D01*
X122403923Y-108433923D01*
X122462554Y-108385808D01*
X122529439Y-108350057D01*
X122602022Y-108328039D01*
X122683641Y-108320000D01*
X123696359Y-108320000D01*
X123777978Y-108328039D01*
X123777978Y-108328039D01*
G37*
G36*
X121237978Y-108328039D02*
G01*
X121310561Y-108350057D01*
X121377446Y-108385808D01*
X121436077Y-108433923D01*
X121484192Y-108492554D01*
X121519943Y-108559439D01*
X121541961Y-108632022D01*
X121550000Y-108713641D01*
X121550000Y-109726359D01*
X121541961Y-109807978D01*
X121519943Y-109880561D01*
X121484192Y-109947446D01*
X121474382Y-109959400D01*
X121460768Y-109979774D01*
X121451391Y-110002413D01*
X121446611Y-110026446D01*
X121446611Y-110050951D01*
X121451392Y-110074984D01*
X121460768Y-110097621D01*
X121485513Y-110143916D01*
X121536978Y-110313573D01*
X121554354Y-110490000D01*
X121536978Y-110666427D01*
X121485512Y-110836086D01*
X121401944Y-110992431D01*
X121289475Y-111129475D01*
X121152431Y-111241944D01*
X120996086Y-111325512D01*
X120996083Y-111325513D01*
X120996081Y-111325514D01*
X120826431Y-111376977D01*
X120826430Y-111376977D01*
X120826427Y-111376978D01*
X120694211Y-111390000D01*
X120605789Y-111390000D01*
X120473573Y-111376978D01*
X120473570Y-111376977D01*
X120473569Y-111376977D01*
X120303919Y-111325514D01*
X120303917Y-111325513D01*
X120303914Y-111325512D01*
X120147569Y-111241944D01*
X120010525Y-111129475D01*
X119898056Y-110992431D01*
X119814488Y-110836086D01*
X119763022Y-110666427D01*
X119745646Y-110490000D01*
X119763022Y-110313573D01*
X119814487Y-110143916D01*
X119839232Y-110097621D01*
X119848609Y-110074983D01*
X119853389Y-110050949D01*
X119853389Y-110026445D01*
X119848608Y-110002412D01*
X119839231Y-109979773D01*
X119825618Y-109959400D01*
X119815808Y-109947446D01*
X119780057Y-109880561D01*
X119758039Y-109807978D01*
X119750000Y-109726359D01*
X119750000Y-108713641D01*
X119758039Y-108632022D01*
X119780057Y-108559439D01*
X119815808Y-108492554D01*
X119863923Y-108433923D01*
X119922554Y-108385808D01*
X119989439Y-108350057D01*
X120062022Y-108328039D01*
X120143641Y-108320000D01*
X121156359Y-108320000D01*
X121237978Y-108328039D01*
X121237978Y-108328039D01*
G37*
G36*
X108537978Y-108328039D02*
G01*
X108610561Y-108350057D01*
X108677446Y-108385808D01*
X108736077Y-108433923D01*
X108784192Y-108492554D01*
X108819943Y-108559439D01*
X108841961Y-108632022D01*
X108850000Y-108713641D01*
X108850000Y-109726359D01*
X108841961Y-109807978D01*
X108819943Y-109880561D01*
X108784192Y-109947446D01*
X108774382Y-109959400D01*
X108760768Y-109979774D01*
X108751391Y-110002413D01*
X108746611Y-110026446D01*
X108746611Y-110050951D01*
X108751392Y-110074984D01*
X108760768Y-110097621D01*
X108785513Y-110143916D01*
X108836978Y-110313573D01*
X108854354Y-110490000D01*
X108836978Y-110666427D01*
X108785512Y-110836086D01*
X108701944Y-110992431D01*
X108589475Y-111129475D01*
X108452431Y-111241944D01*
X108296086Y-111325512D01*
X108296083Y-111325513D01*
X108296081Y-111325514D01*
X108126431Y-111376977D01*
X108126430Y-111376977D01*
X108126427Y-111376978D01*
X107994211Y-111390000D01*
X107905789Y-111390000D01*
X107773573Y-111376978D01*
X107773570Y-111376977D01*
X107773569Y-111376977D01*
X107603919Y-111325514D01*
X107603917Y-111325513D01*
X107603914Y-111325512D01*
X107447569Y-111241944D01*
X107310525Y-111129475D01*
X107198056Y-110992431D01*
X107114488Y-110836086D01*
X107063022Y-110666427D01*
X107045646Y-110490000D01*
X107063022Y-110313573D01*
X107114487Y-110143916D01*
X107139232Y-110097621D01*
X107148609Y-110074983D01*
X107153389Y-110050949D01*
X107153389Y-110026445D01*
X107148608Y-110002412D01*
X107139231Y-109979773D01*
X107125618Y-109959400D01*
X107115808Y-109947446D01*
X107080057Y-109880561D01*
X107058039Y-109807978D01*
X107050000Y-109726359D01*
X107050000Y-108713641D01*
X107058039Y-108632022D01*
X107080057Y-108559439D01*
X107115808Y-108492554D01*
X107163923Y-108433923D01*
X107222554Y-108385808D01*
X107289439Y-108350057D01*
X107362022Y-108328039D01*
X107443641Y-108320000D01*
X108456359Y-108320000D01*
X108537978Y-108328039D01*
X108537978Y-108328039D01*
G37*
G36*
X131397978Y-108328039D02*
G01*
X131470561Y-108350057D01*
X131537446Y-108385808D01*
X131596077Y-108433923D01*
X131644192Y-108492554D01*
X131679943Y-108559439D01*
X131701961Y-108632022D01*
X131710000Y-108713641D01*
X131710000Y-109726359D01*
X131701961Y-109807978D01*
X131679943Y-109880561D01*
X131644192Y-109947446D01*
X131634382Y-109959400D01*
X131620768Y-109979774D01*
X131611391Y-110002413D01*
X131606611Y-110026446D01*
X131606611Y-110050951D01*
X131611392Y-110074984D01*
X131620768Y-110097621D01*
X131645513Y-110143916D01*
X131696978Y-110313573D01*
X131714354Y-110490000D01*
X131696978Y-110666427D01*
X131645512Y-110836086D01*
X131561944Y-110992431D01*
X131449475Y-111129475D01*
X131312431Y-111241944D01*
X131156086Y-111325512D01*
X131156083Y-111325513D01*
X131156081Y-111325514D01*
X130986431Y-111376977D01*
X130986430Y-111376977D01*
X130986427Y-111376978D01*
X130854211Y-111390000D01*
X130765789Y-111390000D01*
X130633573Y-111376978D01*
X130633570Y-111376977D01*
X130633569Y-111376977D01*
X130463919Y-111325514D01*
X130463917Y-111325513D01*
X130463914Y-111325512D01*
X130307569Y-111241944D01*
X130170525Y-111129475D01*
X130058056Y-110992431D01*
X129974488Y-110836086D01*
X129923022Y-110666427D01*
X129905646Y-110490000D01*
X129923022Y-110313573D01*
X129974487Y-110143916D01*
X129999232Y-110097621D01*
X130008609Y-110074983D01*
X130013389Y-110050949D01*
X130013389Y-110026445D01*
X130008608Y-110002412D01*
X129999231Y-109979773D01*
X129985618Y-109959400D01*
X129975808Y-109947446D01*
X129940057Y-109880561D01*
X129918039Y-109807978D01*
X129910000Y-109726359D01*
X129910000Y-108713641D01*
X129918039Y-108632022D01*
X129940057Y-108559439D01*
X129975808Y-108492554D01*
X130023923Y-108433923D01*
X130082554Y-108385808D01*
X130149439Y-108350057D01*
X130222022Y-108328039D01*
X130303641Y-108320000D01*
X131316359Y-108320000D01*
X131397978Y-108328039D01*
X131397978Y-108328039D01*
G37*
G36*
X136477978Y-108328039D02*
G01*
X136550561Y-108350057D01*
X136617446Y-108385808D01*
X136676077Y-108433923D01*
X136724192Y-108492554D01*
X136759943Y-108559439D01*
X136781961Y-108632022D01*
X136790000Y-108713641D01*
X136790000Y-109726359D01*
X136781961Y-109807978D01*
X136759943Y-109880561D01*
X136724192Y-109947446D01*
X136714382Y-109959400D01*
X136700768Y-109979774D01*
X136691391Y-110002413D01*
X136686611Y-110026446D01*
X136686611Y-110050951D01*
X136691392Y-110074984D01*
X136700768Y-110097621D01*
X136725513Y-110143916D01*
X136776978Y-110313573D01*
X136794354Y-110490000D01*
X136776978Y-110666427D01*
X136725512Y-110836086D01*
X136641944Y-110992431D01*
X136529475Y-111129475D01*
X136392431Y-111241944D01*
X136236086Y-111325512D01*
X136236083Y-111325513D01*
X136236081Y-111325514D01*
X136066431Y-111376977D01*
X136066430Y-111376977D01*
X136066427Y-111376978D01*
X135934211Y-111390000D01*
X135845789Y-111390000D01*
X135713573Y-111376978D01*
X135713570Y-111376977D01*
X135713569Y-111376977D01*
X135543919Y-111325514D01*
X135543917Y-111325513D01*
X135543914Y-111325512D01*
X135387569Y-111241944D01*
X135250525Y-111129475D01*
X135138056Y-110992431D01*
X135054488Y-110836086D01*
X135003022Y-110666427D01*
X134985646Y-110490000D01*
X135003022Y-110313573D01*
X135054487Y-110143916D01*
X135079232Y-110097621D01*
X135088609Y-110074983D01*
X135093389Y-110050949D01*
X135093389Y-110026445D01*
X135088608Y-110002412D01*
X135079231Y-109979773D01*
X135065618Y-109959400D01*
X135055808Y-109947446D01*
X135020057Y-109880561D01*
X134998039Y-109807978D01*
X134990000Y-109726359D01*
X134990000Y-108713641D01*
X134998039Y-108632022D01*
X135020057Y-108559439D01*
X135055808Y-108492554D01*
X135103923Y-108433923D01*
X135162554Y-108385808D01*
X135229439Y-108350057D01*
X135302022Y-108328039D01*
X135383641Y-108320000D01*
X136396359Y-108320000D01*
X136477978Y-108328039D01*
X136477978Y-108328039D01*
G37*
M02*
