G04 #@! TF.GenerationSoftware,KiCad,Pcbnew,(5.1.0-43-gfdfe5ea)*
G04 #@! TF.CreationDate,2019-03-25T11:45:27-07:00*
G04 #@! TF.ProjectId,lofive,6c6f6669-7665-42e6-9b69-6361645f7063,0*
G04 #@! TF.SameCoordinates,Original*
G04 #@! TF.FileFunction,Legend,Bot*
G04 #@! TF.FilePolarity,Positive*
%FSLAX46Y46*%
G04 Gerber Fmt 4.6, Leading zero omitted, Abs format (unit mm)*
G04 Created by KiCad (PCBNEW (5.1.0-43-gfdfe5ea)) date 2019-03-25 11:45:27*
%MOMM*%
%LPD*%
G04 APERTURE LIST*
%ADD10C,0.125000*%
%ADD11C,0.120000*%
G04 APERTURE END LIST*
D10*
X136193571Y-112619107D02*
X136229285Y-112726250D01*
X136229285Y-112904821D01*
X136193571Y-112976250D01*
X136157857Y-113011964D01*
X136086428Y-113047678D01*
X136015000Y-113047678D01*
X135943571Y-113011964D01*
X135907857Y-112976250D01*
X135872142Y-112904821D01*
X135836428Y-112761964D01*
X135800714Y-112690535D01*
X135765000Y-112654821D01*
X135693571Y-112619107D01*
X135622142Y-112619107D01*
X135550714Y-112654821D01*
X135515000Y-112690535D01*
X135479285Y-112761964D01*
X135479285Y-112940535D01*
X135515000Y-113047678D01*
X136229285Y-113369107D02*
X135479285Y-113369107D01*
X135479285Y-113654821D01*
X135515000Y-113726250D01*
X135550714Y-113761964D01*
X135622142Y-113797678D01*
X135729285Y-113797678D01*
X135800714Y-113761964D01*
X135836428Y-113726250D01*
X135872142Y-113654821D01*
X135872142Y-113369107D01*
X136229285Y-114119107D02*
X135479285Y-114119107D01*
X136229285Y-114869107D02*
X136229285Y-114440535D01*
X136229285Y-114654821D02*
X135479285Y-114654821D01*
X135586428Y-114583392D01*
X135657857Y-114511964D01*
X135693571Y-114440535D01*
X136157857Y-115190535D02*
X136193571Y-115226250D01*
X136229285Y-115190535D01*
X136193571Y-115154821D01*
X136157857Y-115190535D01*
X136229285Y-115190535D01*
X136193571Y-115511964D02*
X136229285Y-115619107D01*
X136229285Y-115797678D01*
X136193571Y-115869107D01*
X136157857Y-115904821D01*
X136086428Y-115940535D01*
X136015000Y-115940535D01*
X135943571Y-115904821D01*
X135907857Y-115869107D01*
X135872142Y-115797678D01*
X135836428Y-115654821D01*
X135800714Y-115583392D01*
X135765000Y-115547678D01*
X135693571Y-115511964D01*
X135622142Y-115511964D01*
X135550714Y-115547678D01*
X135515000Y-115583392D01*
X135479285Y-115654821D01*
X135479285Y-115833392D01*
X135515000Y-115940535D01*
X136193571Y-116226250D02*
X136229285Y-116333392D01*
X136229285Y-116511964D01*
X136193571Y-116583392D01*
X136157857Y-116619107D01*
X136086428Y-116654821D01*
X136015000Y-116654821D01*
X135943571Y-116619107D01*
X135907857Y-116583392D01*
X135872142Y-116511964D01*
X135836428Y-116369107D01*
X135800714Y-116297678D01*
X135765000Y-116261964D01*
X135693571Y-116226250D01*
X135622142Y-116226250D01*
X135550714Y-116261964D01*
X135515000Y-116297678D01*
X135479285Y-116369107D01*
X135479285Y-116547678D01*
X135515000Y-116654821D01*
X135550714Y-116940535D02*
X135515000Y-116976250D01*
X135479285Y-117047678D01*
X135479285Y-117226250D01*
X135515000Y-117297678D01*
X135550714Y-117333392D01*
X135622142Y-117369107D01*
X135693571Y-117369107D01*
X135800714Y-117333392D01*
X136229285Y-116904821D01*
X136229285Y-117369107D01*
X133653571Y-112619107D02*
X133689285Y-112726250D01*
X133689285Y-112904821D01*
X133653571Y-112976250D01*
X133617857Y-113011964D01*
X133546428Y-113047678D01*
X133475000Y-113047678D01*
X133403571Y-113011964D01*
X133367857Y-112976250D01*
X133332142Y-112904821D01*
X133296428Y-112761964D01*
X133260714Y-112690535D01*
X133225000Y-112654821D01*
X133153571Y-112619107D01*
X133082142Y-112619107D01*
X133010714Y-112654821D01*
X132975000Y-112690535D01*
X132939285Y-112761964D01*
X132939285Y-112940535D01*
X132975000Y-113047678D01*
X133689285Y-113369107D02*
X132939285Y-113369107D01*
X132939285Y-113654821D01*
X132975000Y-113726250D01*
X133010714Y-113761964D01*
X133082142Y-113797678D01*
X133189285Y-113797678D01*
X133260714Y-113761964D01*
X133296428Y-113726250D01*
X133332142Y-113654821D01*
X133332142Y-113369107D01*
X133689285Y-114119107D02*
X132939285Y-114119107D01*
X133689285Y-114869107D02*
X133689285Y-114440535D01*
X133689285Y-114654821D02*
X132939285Y-114654821D01*
X133046428Y-114583392D01*
X133117857Y-114511964D01*
X133153571Y-114440535D01*
X133617857Y-115190535D02*
X133653571Y-115226250D01*
X133689285Y-115190535D01*
X133653571Y-115154821D01*
X133617857Y-115190535D01*
X133689285Y-115190535D01*
X133653571Y-115511964D02*
X133689285Y-115619107D01*
X133689285Y-115797678D01*
X133653571Y-115869107D01*
X133617857Y-115904821D01*
X133546428Y-115940535D01*
X133475000Y-115940535D01*
X133403571Y-115904821D01*
X133367857Y-115869107D01*
X133332142Y-115797678D01*
X133296428Y-115654821D01*
X133260714Y-115583392D01*
X133225000Y-115547678D01*
X133153571Y-115511964D01*
X133082142Y-115511964D01*
X133010714Y-115547678D01*
X132975000Y-115583392D01*
X132939285Y-115654821D01*
X132939285Y-115833392D01*
X132975000Y-115940535D01*
X133653571Y-116226250D02*
X133689285Y-116333392D01*
X133689285Y-116511964D01*
X133653571Y-116583392D01*
X133617857Y-116619107D01*
X133546428Y-116654821D01*
X133475000Y-116654821D01*
X133403571Y-116619107D01*
X133367857Y-116583392D01*
X133332142Y-116511964D01*
X133296428Y-116369107D01*
X133260714Y-116297678D01*
X133225000Y-116261964D01*
X133153571Y-116226250D01*
X133082142Y-116226250D01*
X133010714Y-116261964D01*
X132975000Y-116297678D01*
X132939285Y-116369107D01*
X132939285Y-116547678D01*
X132975000Y-116654821D01*
X132939285Y-116904821D02*
X132939285Y-117369107D01*
X133225000Y-117119107D01*
X133225000Y-117226250D01*
X133260714Y-117297678D01*
X133296428Y-117333392D01*
X133367857Y-117369107D01*
X133546428Y-117369107D01*
X133617857Y-117333392D01*
X133653571Y-117297678D01*
X133689285Y-117226250D01*
X133689285Y-117011964D01*
X133653571Y-116940535D01*
X133617857Y-116904821D01*
X131149285Y-112654821D02*
X130399285Y-112654821D01*
X130399285Y-112940535D01*
X130435000Y-113011964D01*
X130470714Y-113047678D01*
X130542142Y-113083392D01*
X130649285Y-113083392D01*
X130720714Y-113047678D01*
X130756428Y-113011964D01*
X130792142Y-112940535D01*
X130792142Y-112654821D01*
X130399285Y-113333392D02*
X131149285Y-113511964D01*
X130613571Y-113654821D01*
X131149285Y-113797678D01*
X130399285Y-113976250D01*
X131149285Y-114261964D02*
X130399285Y-114261964D01*
X130935000Y-114511964D01*
X130399285Y-114761964D01*
X131149285Y-114761964D01*
X130470714Y-115083392D02*
X130435000Y-115119107D01*
X130399285Y-115190535D01*
X130399285Y-115369107D01*
X130435000Y-115440535D01*
X130470714Y-115476250D01*
X130542142Y-115511964D01*
X130613571Y-115511964D01*
X130720714Y-115476250D01*
X131149285Y-115047678D01*
X131149285Y-115511964D01*
X131077857Y-115833392D02*
X131113571Y-115869107D01*
X131149285Y-115833392D01*
X131113571Y-115797678D01*
X131077857Y-115833392D01*
X131149285Y-115833392D01*
X131149285Y-116583392D02*
X131149285Y-116154821D01*
X131149285Y-116369107D02*
X130399285Y-116369107D01*
X130506428Y-116297678D01*
X130577857Y-116226250D01*
X130613571Y-116154821D01*
X128609285Y-112654821D02*
X127859285Y-112654821D01*
X127859285Y-112940535D01*
X127895000Y-113011964D01*
X127930714Y-113047678D01*
X128002142Y-113083392D01*
X128109285Y-113083392D01*
X128180714Y-113047678D01*
X128216428Y-113011964D01*
X128252142Y-112940535D01*
X128252142Y-112654821D01*
X127859285Y-113333392D02*
X128609285Y-113511964D01*
X128073571Y-113654821D01*
X128609285Y-113797678D01*
X127859285Y-113976250D01*
X128609285Y-114261964D02*
X127859285Y-114261964D01*
X128395000Y-114511964D01*
X127859285Y-114761964D01*
X128609285Y-114761964D01*
X127930714Y-115083392D02*
X127895000Y-115119107D01*
X127859285Y-115190535D01*
X127859285Y-115369107D01*
X127895000Y-115440535D01*
X127930714Y-115476250D01*
X128002142Y-115511964D01*
X128073571Y-115511964D01*
X128180714Y-115476250D01*
X128609285Y-115047678D01*
X128609285Y-115511964D01*
X128537857Y-115833392D02*
X128573571Y-115869107D01*
X128609285Y-115833392D01*
X128573571Y-115797678D01*
X128537857Y-115833392D01*
X128609285Y-115833392D01*
X127930714Y-116154821D02*
X127895000Y-116190535D01*
X127859285Y-116261964D01*
X127859285Y-116440535D01*
X127895000Y-116511964D01*
X127930714Y-116547678D01*
X128002142Y-116583392D01*
X128073571Y-116583392D01*
X128180714Y-116547678D01*
X128609285Y-116119107D01*
X128609285Y-116583392D01*
X126069285Y-112654821D02*
X125319285Y-112654821D01*
X125319285Y-112940535D01*
X125355000Y-113011964D01*
X125390714Y-113047678D01*
X125462142Y-113083392D01*
X125569285Y-113083392D01*
X125640714Y-113047678D01*
X125676428Y-113011964D01*
X125712142Y-112940535D01*
X125712142Y-112654821D01*
X125319285Y-113333392D02*
X126069285Y-113511964D01*
X125533571Y-113654821D01*
X126069285Y-113797678D01*
X125319285Y-113976250D01*
X126069285Y-114261964D02*
X125319285Y-114261964D01*
X125855000Y-114511964D01*
X125319285Y-114761964D01*
X126069285Y-114761964D01*
X125390714Y-115083392D02*
X125355000Y-115119107D01*
X125319285Y-115190535D01*
X125319285Y-115369107D01*
X125355000Y-115440535D01*
X125390714Y-115476250D01*
X125462142Y-115511964D01*
X125533571Y-115511964D01*
X125640714Y-115476250D01*
X126069285Y-115047678D01*
X126069285Y-115511964D01*
X125997857Y-115833392D02*
X126033571Y-115869107D01*
X126069285Y-115833392D01*
X126033571Y-115797678D01*
X125997857Y-115833392D01*
X126069285Y-115833392D01*
X125319285Y-116119107D02*
X125319285Y-116583392D01*
X125605000Y-116333392D01*
X125605000Y-116440535D01*
X125640714Y-116511964D01*
X125676428Y-116547678D01*
X125747857Y-116583392D01*
X125926428Y-116583392D01*
X125997857Y-116547678D01*
X126033571Y-116511964D01*
X126069285Y-116440535D01*
X126069285Y-116226250D01*
X126033571Y-116154821D01*
X125997857Y-116119107D01*
X122779285Y-112654821D02*
X123386428Y-112654821D01*
X123457857Y-112690535D01*
X123493571Y-112726250D01*
X123529285Y-112797678D01*
X123529285Y-112940535D01*
X123493571Y-113011964D01*
X123457857Y-113047678D01*
X123386428Y-113083392D01*
X122779285Y-113083392D01*
X123315000Y-113404821D02*
X123315000Y-113761964D01*
X123529285Y-113333392D02*
X122779285Y-113583392D01*
X123529285Y-113833392D01*
X123529285Y-114511964D02*
X123172142Y-114261964D01*
X123529285Y-114083392D02*
X122779285Y-114083392D01*
X122779285Y-114369107D01*
X122815000Y-114440535D01*
X122850714Y-114476250D01*
X122922142Y-114511964D01*
X123029285Y-114511964D01*
X123100714Y-114476250D01*
X123136428Y-114440535D01*
X123172142Y-114369107D01*
X123172142Y-114083392D01*
X122779285Y-114726250D02*
X122779285Y-115154821D01*
X123529285Y-114940535D02*
X122779285Y-114940535D01*
X122779285Y-115547678D02*
X122779285Y-115619107D01*
X122815000Y-115690535D01*
X122850714Y-115726250D01*
X122922142Y-115761964D01*
X123065000Y-115797678D01*
X123243571Y-115797678D01*
X123386428Y-115761964D01*
X123457857Y-115726250D01*
X123493571Y-115690535D01*
X123529285Y-115619107D01*
X123529285Y-115547678D01*
X123493571Y-115476250D01*
X123457857Y-115440535D01*
X123386428Y-115404821D01*
X123243571Y-115369107D01*
X123065000Y-115369107D01*
X122922142Y-115404821D01*
X122850714Y-115440535D01*
X122815000Y-115476250D01*
X122779285Y-115547678D01*
X123457857Y-116119107D02*
X123493571Y-116154821D01*
X123529285Y-116119107D01*
X123493571Y-116083392D01*
X123457857Y-116119107D01*
X123529285Y-116119107D01*
X123529285Y-116904821D02*
X123172142Y-116654821D01*
X123529285Y-116476250D02*
X122779285Y-116476250D01*
X122779285Y-116761964D01*
X122815000Y-116833392D01*
X122850714Y-116869107D01*
X122922142Y-116904821D01*
X123029285Y-116904821D01*
X123100714Y-116869107D01*
X123136428Y-116833392D01*
X123172142Y-116761964D01*
X123172142Y-116476250D01*
X122779285Y-117154821D02*
X123529285Y-117654821D01*
X122779285Y-117654821D02*
X123529285Y-117154821D01*
X120239285Y-112654821D02*
X120846428Y-112654821D01*
X120917857Y-112690535D01*
X120953571Y-112726250D01*
X120989285Y-112797678D01*
X120989285Y-112940535D01*
X120953571Y-113011964D01*
X120917857Y-113047678D01*
X120846428Y-113083392D01*
X120239285Y-113083392D01*
X120775000Y-113404821D02*
X120775000Y-113761964D01*
X120989285Y-113333392D02*
X120239285Y-113583392D01*
X120989285Y-113833392D01*
X120989285Y-114511964D02*
X120632142Y-114261964D01*
X120989285Y-114083392D02*
X120239285Y-114083392D01*
X120239285Y-114369107D01*
X120275000Y-114440535D01*
X120310714Y-114476250D01*
X120382142Y-114511964D01*
X120489285Y-114511964D01*
X120560714Y-114476250D01*
X120596428Y-114440535D01*
X120632142Y-114369107D01*
X120632142Y-114083392D01*
X120239285Y-114726250D02*
X120239285Y-115154821D01*
X120989285Y-114940535D02*
X120239285Y-114940535D01*
X120239285Y-115547678D02*
X120239285Y-115619107D01*
X120275000Y-115690535D01*
X120310714Y-115726250D01*
X120382142Y-115761964D01*
X120525000Y-115797678D01*
X120703571Y-115797678D01*
X120846428Y-115761964D01*
X120917857Y-115726250D01*
X120953571Y-115690535D01*
X120989285Y-115619107D01*
X120989285Y-115547678D01*
X120953571Y-115476250D01*
X120917857Y-115440535D01*
X120846428Y-115404821D01*
X120703571Y-115369107D01*
X120525000Y-115369107D01*
X120382142Y-115404821D01*
X120310714Y-115440535D01*
X120275000Y-115476250D01*
X120239285Y-115547678D01*
X120917857Y-116119107D02*
X120953571Y-116154821D01*
X120989285Y-116119107D01*
X120953571Y-116083392D01*
X120917857Y-116119107D01*
X120989285Y-116119107D01*
X120239285Y-116369107D02*
X120239285Y-116797678D01*
X120989285Y-116583392D02*
X120239285Y-116583392D01*
X120239285Y-116976250D02*
X120989285Y-117476250D01*
X120239285Y-117476250D02*
X120989285Y-116976250D01*
X117735000Y-113047678D02*
X117699285Y-112976250D01*
X117699285Y-112869107D01*
X117735000Y-112761964D01*
X117806428Y-112690535D01*
X117877857Y-112654821D01*
X118020714Y-112619107D01*
X118127857Y-112619107D01*
X118270714Y-112654821D01*
X118342142Y-112690535D01*
X118413571Y-112761964D01*
X118449285Y-112869107D01*
X118449285Y-112940535D01*
X118413571Y-113047678D01*
X118377857Y-113083392D01*
X118127857Y-113083392D01*
X118127857Y-112940535D01*
X118449285Y-113404821D02*
X117699285Y-113404821D01*
X117699285Y-113690535D01*
X117735000Y-113761964D01*
X117770714Y-113797678D01*
X117842142Y-113833392D01*
X117949285Y-113833392D01*
X118020714Y-113797678D01*
X118056428Y-113761964D01*
X118092142Y-113690535D01*
X118092142Y-113404821D01*
X118449285Y-114154821D02*
X117699285Y-114154821D01*
X117699285Y-114654821D02*
X117699285Y-114797678D01*
X117735000Y-114869107D01*
X117806428Y-114940535D01*
X117949285Y-114976250D01*
X118199285Y-114976250D01*
X118342142Y-114940535D01*
X118413571Y-114869107D01*
X118449285Y-114797678D01*
X118449285Y-114654821D01*
X118413571Y-114583392D01*
X118342142Y-114511964D01*
X118199285Y-114476250D01*
X117949285Y-114476250D01*
X117806428Y-114511964D01*
X117735000Y-114583392D01*
X117699285Y-114654821D01*
X118520714Y-115119107D02*
X118520714Y-115690535D01*
X118449285Y-116261964D02*
X118449285Y-115833392D01*
X118449285Y-116047678D02*
X117699285Y-116047678D01*
X117806428Y-115976250D01*
X117877857Y-115904821D01*
X117913571Y-115833392D01*
X118020714Y-116690535D02*
X117985000Y-116619107D01*
X117949285Y-116583392D01*
X117877857Y-116547678D01*
X117842142Y-116547678D01*
X117770714Y-116583392D01*
X117735000Y-116619107D01*
X117699285Y-116690535D01*
X117699285Y-116833392D01*
X117735000Y-116904821D01*
X117770714Y-116940535D01*
X117842142Y-116976250D01*
X117877857Y-116976250D01*
X117949285Y-116940535D01*
X117985000Y-116904821D01*
X118020714Y-116833392D01*
X118020714Y-116690535D01*
X118056428Y-116619107D01*
X118092142Y-116583392D01*
X118163571Y-116547678D01*
X118306428Y-116547678D01*
X118377857Y-116583392D01*
X118413571Y-116619107D01*
X118449285Y-116690535D01*
X118449285Y-116833392D01*
X118413571Y-116904821D01*
X118377857Y-116940535D01*
X118306428Y-116976250D01*
X118163571Y-116976250D01*
X118092142Y-116940535D01*
X118056428Y-116904821D01*
X118020714Y-116833392D01*
X115909285Y-112654821D02*
X115159285Y-112654821D01*
X115159285Y-112940535D01*
X115195000Y-113011964D01*
X115230714Y-113047678D01*
X115302142Y-113083392D01*
X115409285Y-113083392D01*
X115480714Y-113047678D01*
X115516428Y-113011964D01*
X115552142Y-112940535D01*
X115552142Y-112654821D01*
X115159285Y-113333392D02*
X115909285Y-113511964D01*
X115373571Y-113654821D01*
X115909285Y-113797678D01*
X115159285Y-113976250D01*
X115909285Y-114261964D02*
X115159285Y-114261964D01*
X115695000Y-114511964D01*
X115159285Y-114761964D01*
X115909285Y-114761964D01*
X115909285Y-115511964D02*
X115909285Y-115083392D01*
X115909285Y-115297678D02*
X115159285Y-115297678D01*
X115266428Y-115226250D01*
X115337857Y-115154821D01*
X115373571Y-115083392D01*
X115837857Y-115833392D02*
X115873571Y-115869107D01*
X115909285Y-115833392D01*
X115873571Y-115797678D01*
X115837857Y-115833392D01*
X115909285Y-115833392D01*
X115909285Y-116583392D02*
X115909285Y-116154821D01*
X115909285Y-116369107D02*
X115159285Y-116369107D01*
X115266428Y-116297678D01*
X115337857Y-116226250D01*
X115373571Y-116154821D01*
X113369285Y-112654821D02*
X112619285Y-112654821D01*
X112619285Y-112940535D01*
X112655000Y-113011964D01*
X112690714Y-113047678D01*
X112762142Y-113083392D01*
X112869285Y-113083392D01*
X112940714Y-113047678D01*
X112976428Y-113011964D01*
X113012142Y-112940535D01*
X113012142Y-112654821D01*
X112619285Y-113333392D02*
X113369285Y-113511964D01*
X112833571Y-113654821D01*
X113369285Y-113797678D01*
X112619285Y-113976250D01*
X113369285Y-114261964D02*
X112619285Y-114261964D01*
X113155000Y-114511964D01*
X112619285Y-114761964D01*
X113369285Y-114761964D01*
X113369285Y-115511964D02*
X113369285Y-115083392D01*
X113369285Y-115297678D02*
X112619285Y-115297678D01*
X112726428Y-115226250D01*
X112797857Y-115154821D01*
X112833571Y-115083392D01*
X113297857Y-115833392D02*
X113333571Y-115869107D01*
X113369285Y-115833392D01*
X113333571Y-115797678D01*
X113297857Y-115833392D01*
X113369285Y-115833392D01*
X112619285Y-116333392D02*
X112619285Y-116404821D01*
X112655000Y-116476250D01*
X112690714Y-116511964D01*
X112762142Y-116547678D01*
X112905000Y-116583392D01*
X113083571Y-116583392D01*
X113226428Y-116547678D01*
X113297857Y-116511964D01*
X113333571Y-116476250D01*
X113369285Y-116404821D01*
X113369285Y-116333392D01*
X113333571Y-116261964D01*
X113297857Y-116226250D01*
X113226428Y-116190535D01*
X113083571Y-116154821D01*
X112905000Y-116154821D01*
X112762142Y-116190535D01*
X112690714Y-116226250D01*
X112655000Y-116261964D01*
X112619285Y-116333392D01*
X110829285Y-112654821D02*
X110079285Y-112654821D01*
X110079285Y-112940535D01*
X110115000Y-113011964D01*
X110150714Y-113047678D01*
X110222142Y-113083392D01*
X110329285Y-113083392D01*
X110400714Y-113047678D01*
X110436428Y-113011964D01*
X110472142Y-112940535D01*
X110472142Y-112654821D01*
X110079285Y-113333392D02*
X110829285Y-113511964D01*
X110293571Y-113654821D01*
X110829285Y-113797678D01*
X110079285Y-113976250D01*
X110829285Y-114261964D02*
X110079285Y-114261964D01*
X110615000Y-114511964D01*
X110079285Y-114761964D01*
X110829285Y-114761964D01*
X110829285Y-115511964D02*
X110829285Y-115083392D01*
X110829285Y-115297678D02*
X110079285Y-115297678D01*
X110186428Y-115226250D01*
X110257857Y-115154821D01*
X110293571Y-115083392D01*
X110757857Y-115833392D02*
X110793571Y-115869107D01*
X110829285Y-115833392D01*
X110793571Y-115797678D01*
X110757857Y-115833392D01*
X110829285Y-115833392D01*
X110150714Y-116154821D02*
X110115000Y-116190535D01*
X110079285Y-116261964D01*
X110079285Y-116440535D01*
X110115000Y-116511964D01*
X110150714Y-116547678D01*
X110222142Y-116583392D01*
X110293571Y-116583392D01*
X110400714Y-116547678D01*
X110829285Y-116119107D01*
X110829285Y-116583392D01*
X108289285Y-112654821D02*
X107539285Y-112654821D01*
X107539285Y-112940535D01*
X107575000Y-113011964D01*
X107610714Y-113047678D01*
X107682142Y-113083392D01*
X107789285Y-113083392D01*
X107860714Y-113047678D01*
X107896428Y-113011964D01*
X107932142Y-112940535D01*
X107932142Y-112654821D01*
X107539285Y-113333392D02*
X108289285Y-113511964D01*
X107753571Y-113654821D01*
X108289285Y-113797678D01*
X107539285Y-113976250D01*
X108289285Y-114261964D02*
X107539285Y-114261964D01*
X108075000Y-114511964D01*
X107539285Y-114761964D01*
X108289285Y-114761964D01*
X108289285Y-115511964D02*
X108289285Y-115083392D01*
X108289285Y-115297678D02*
X107539285Y-115297678D01*
X107646428Y-115226250D01*
X107717857Y-115154821D01*
X107753571Y-115083392D01*
X108217857Y-115833392D02*
X108253571Y-115869107D01*
X108289285Y-115833392D01*
X108253571Y-115797678D01*
X108217857Y-115833392D01*
X108289285Y-115833392D01*
X107539285Y-116119107D02*
X107539285Y-116583392D01*
X107825000Y-116333392D01*
X107825000Y-116440535D01*
X107860714Y-116511964D01*
X107896428Y-116547678D01*
X107967857Y-116583392D01*
X108146428Y-116583392D01*
X108217857Y-116547678D01*
X108253571Y-116511964D01*
X108289285Y-116440535D01*
X108289285Y-116226250D01*
X108253571Y-116154821D01*
X108217857Y-116119107D01*
X105035000Y-113047678D02*
X104999285Y-112976250D01*
X104999285Y-112869107D01*
X105035000Y-112761964D01*
X105106428Y-112690535D01*
X105177857Y-112654821D01*
X105320714Y-112619107D01*
X105427857Y-112619107D01*
X105570714Y-112654821D01*
X105642142Y-112690535D01*
X105713571Y-112761964D01*
X105749285Y-112869107D01*
X105749285Y-112940535D01*
X105713571Y-113047678D01*
X105677857Y-113083392D01*
X105427857Y-113083392D01*
X105427857Y-112940535D01*
X105749285Y-113404821D02*
X104999285Y-113404821D01*
X104999285Y-113690535D01*
X105035000Y-113761964D01*
X105070714Y-113797678D01*
X105142142Y-113833392D01*
X105249285Y-113833392D01*
X105320714Y-113797678D01*
X105356428Y-113761964D01*
X105392142Y-113690535D01*
X105392142Y-113404821D01*
X105749285Y-114154821D02*
X104999285Y-114154821D01*
X104999285Y-114654821D02*
X104999285Y-114797678D01*
X105035000Y-114869107D01*
X105106428Y-114940535D01*
X105249285Y-114976250D01*
X105499285Y-114976250D01*
X105642142Y-114940535D01*
X105713571Y-114869107D01*
X105749285Y-114797678D01*
X105749285Y-114654821D01*
X105713571Y-114583392D01*
X105642142Y-114511964D01*
X105499285Y-114476250D01*
X105249285Y-114476250D01*
X105106428Y-114511964D01*
X105035000Y-114583392D01*
X104999285Y-114654821D01*
X105820714Y-115119107D02*
X105820714Y-115690535D01*
X105070714Y-115833392D02*
X105035000Y-115869107D01*
X104999285Y-115940535D01*
X104999285Y-116119107D01*
X105035000Y-116190535D01*
X105070714Y-116226250D01*
X105142142Y-116261964D01*
X105213571Y-116261964D01*
X105320714Y-116226250D01*
X105749285Y-115797678D01*
X105749285Y-116261964D01*
X104999285Y-116511964D02*
X104999285Y-116976250D01*
X105285000Y-116726250D01*
X105285000Y-116833392D01*
X105320714Y-116904821D01*
X105356428Y-116940535D01*
X105427857Y-116976250D01*
X105606428Y-116976250D01*
X105677857Y-116940535D01*
X105713571Y-116904821D01*
X105749285Y-116833392D01*
X105749285Y-116619107D01*
X105713571Y-116547678D01*
X105677857Y-116511964D01*
X102495000Y-113047678D02*
X102459285Y-112976250D01*
X102459285Y-112869107D01*
X102495000Y-112761964D01*
X102566428Y-112690535D01*
X102637857Y-112654821D01*
X102780714Y-112619107D01*
X102887857Y-112619107D01*
X103030714Y-112654821D01*
X103102142Y-112690535D01*
X103173571Y-112761964D01*
X103209285Y-112869107D01*
X103209285Y-112940535D01*
X103173571Y-113047678D01*
X103137857Y-113083392D01*
X102887857Y-113083392D01*
X102887857Y-112940535D01*
X103209285Y-113404821D02*
X102459285Y-113404821D01*
X103209285Y-113833392D01*
X102459285Y-113833392D01*
X103209285Y-114190535D02*
X102459285Y-114190535D01*
X102459285Y-114369107D01*
X102495000Y-114476250D01*
X102566428Y-114547678D01*
X102637857Y-114583392D01*
X102780714Y-114619107D01*
X102887857Y-114619107D01*
X103030714Y-114583392D01*
X103102142Y-114547678D01*
X103173571Y-114476250D01*
X103209285Y-114369107D01*
X103209285Y-114190535D01*
X136193571Y-118779464D02*
X136229285Y-118886607D01*
X136229285Y-119065178D01*
X136193571Y-119136607D01*
X136157857Y-119172321D01*
X136086428Y-119208035D01*
X136015000Y-119208035D01*
X135943571Y-119172321D01*
X135907857Y-119136607D01*
X135872142Y-119065178D01*
X135836428Y-118922321D01*
X135800714Y-118850892D01*
X135765000Y-118815178D01*
X135693571Y-118779464D01*
X135622142Y-118779464D01*
X135550714Y-118815178D01*
X135515000Y-118850892D01*
X135479285Y-118922321D01*
X135479285Y-119100892D01*
X135515000Y-119208035D01*
X136229285Y-119529464D02*
X135479285Y-119529464D01*
X135479285Y-119815178D01*
X135515000Y-119886607D01*
X135550714Y-119922321D01*
X135622142Y-119958035D01*
X135729285Y-119958035D01*
X135800714Y-119922321D01*
X135836428Y-119886607D01*
X135872142Y-119815178D01*
X135872142Y-119529464D01*
X136229285Y-120279464D02*
X135479285Y-120279464D01*
X136229285Y-121029464D02*
X136229285Y-120600892D01*
X136229285Y-120815178D02*
X135479285Y-120815178D01*
X135586428Y-120743750D01*
X135657857Y-120672321D01*
X135693571Y-120600892D01*
X136157857Y-121350892D02*
X136193571Y-121386607D01*
X136229285Y-121350892D01*
X136193571Y-121315178D01*
X136157857Y-121350892D01*
X136229285Y-121350892D01*
X136193571Y-121672321D02*
X136229285Y-121779464D01*
X136229285Y-121958035D01*
X136193571Y-122029464D01*
X136157857Y-122065178D01*
X136086428Y-122100892D01*
X136015000Y-122100892D01*
X135943571Y-122065178D01*
X135907857Y-122029464D01*
X135872142Y-121958035D01*
X135836428Y-121815178D01*
X135800714Y-121743750D01*
X135765000Y-121708035D01*
X135693571Y-121672321D01*
X135622142Y-121672321D01*
X135550714Y-121708035D01*
X135515000Y-121743750D01*
X135479285Y-121815178D01*
X135479285Y-121993750D01*
X135515000Y-122100892D01*
X136157857Y-122850892D02*
X136193571Y-122815178D01*
X136229285Y-122708035D01*
X136229285Y-122636607D01*
X136193571Y-122529464D01*
X136122142Y-122458035D01*
X136050714Y-122422321D01*
X135907857Y-122386607D01*
X135800714Y-122386607D01*
X135657857Y-122422321D01*
X135586428Y-122458035D01*
X135515000Y-122529464D01*
X135479285Y-122636607D01*
X135479285Y-122708035D01*
X135515000Y-122815178D01*
X135550714Y-122850892D01*
X136229285Y-123172321D02*
X135479285Y-123172321D01*
X136229285Y-123600892D02*
X135800714Y-123279464D01*
X135479285Y-123600892D02*
X135907857Y-123172321D01*
X133653571Y-118279464D02*
X133689285Y-118386607D01*
X133689285Y-118565178D01*
X133653571Y-118636607D01*
X133617857Y-118672321D01*
X133546428Y-118708035D01*
X133475000Y-118708035D01*
X133403571Y-118672321D01*
X133367857Y-118636607D01*
X133332142Y-118565178D01*
X133296428Y-118422321D01*
X133260714Y-118350892D01*
X133225000Y-118315178D01*
X133153571Y-118279464D01*
X133082142Y-118279464D01*
X133010714Y-118315178D01*
X132975000Y-118350892D01*
X132939285Y-118422321D01*
X132939285Y-118600892D01*
X132975000Y-118708035D01*
X133689285Y-119029464D02*
X132939285Y-119029464D01*
X132939285Y-119315178D01*
X132975000Y-119386607D01*
X133010714Y-119422321D01*
X133082142Y-119458035D01*
X133189285Y-119458035D01*
X133260714Y-119422321D01*
X133296428Y-119386607D01*
X133332142Y-119315178D01*
X133332142Y-119029464D01*
X133689285Y-119779464D02*
X132939285Y-119779464D01*
X133689285Y-120529464D02*
X133689285Y-120100892D01*
X133689285Y-120315178D02*
X132939285Y-120315178D01*
X133046428Y-120243750D01*
X133117857Y-120172321D01*
X133153571Y-120100892D01*
X133617857Y-120850892D02*
X133653571Y-120886607D01*
X133689285Y-120850892D01*
X133653571Y-120815178D01*
X133617857Y-120850892D01*
X133689285Y-120850892D01*
X133689285Y-121208035D02*
X132939285Y-121208035D01*
X133475000Y-121458035D01*
X132939285Y-121708035D01*
X133689285Y-121708035D01*
X133689285Y-122065178D02*
X132939285Y-122065178D01*
X133653571Y-122386607D02*
X133689285Y-122493750D01*
X133689285Y-122672321D01*
X133653571Y-122743750D01*
X133617857Y-122779464D01*
X133546428Y-122815178D01*
X133475000Y-122815178D01*
X133403571Y-122779464D01*
X133367857Y-122743750D01*
X133332142Y-122672321D01*
X133296428Y-122529464D01*
X133260714Y-122458035D01*
X133225000Y-122422321D01*
X133153571Y-122386607D01*
X133082142Y-122386607D01*
X133010714Y-122422321D01*
X132975000Y-122458035D01*
X132939285Y-122529464D01*
X132939285Y-122708035D01*
X132975000Y-122815178D01*
X132939285Y-123279464D02*
X132939285Y-123422321D01*
X132975000Y-123493750D01*
X133046428Y-123565178D01*
X133189285Y-123600892D01*
X133439285Y-123600892D01*
X133582142Y-123565178D01*
X133653571Y-123493750D01*
X133689285Y-123422321D01*
X133689285Y-123279464D01*
X133653571Y-123208035D01*
X133582142Y-123136607D01*
X133439285Y-123100892D01*
X133189285Y-123100892D01*
X133046428Y-123136607D01*
X132975000Y-123208035D01*
X132939285Y-123279464D01*
X131113571Y-118279464D02*
X131149285Y-118386607D01*
X131149285Y-118565178D01*
X131113571Y-118636607D01*
X131077857Y-118672321D01*
X131006428Y-118708035D01*
X130935000Y-118708035D01*
X130863571Y-118672321D01*
X130827857Y-118636607D01*
X130792142Y-118565178D01*
X130756428Y-118422321D01*
X130720714Y-118350892D01*
X130685000Y-118315178D01*
X130613571Y-118279464D01*
X130542142Y-118279464D01*
X130470714Y-118315178D01*
X130435000Y-118350892D01*
X130399285Y-118422321D01*
X130399285Y-118600892D01*
X130435000Y-118708035D01*
X131149285Y-119029464D02*
X130399285Y-119029464D01*
X130399285Y-119315178D01*
X130435000Y-119386607D01*
X130470714Y-119422321D01*
X130542142Y-119458035D01*
X130649285Y-119458035D01*
X130720714Y-119422321D01*
X130756428Y-119386607D01*
X130792142Y-119315178D01*
X130792142Y-119029464D01*
X131149285Y-119779464D02*
X130399285Y-119779464D01*
X131149285Y-120529464D02*
X131149285Y-120100892D01*
X131149285Y-120315178D02*
X130399285Y-120315178D01*
X130506428Y-120243750D01*
X130577857Y-120172321D01*
X130613571Y-120100892D01*
X131077857Y-120850892D02*
X131113571Y-120886607D01*
X131149285Y-120850892D01*
X131113571Y-120815178D01*
X131077857Y-120850892D01*
X131149285Y-120850892D01*
X131149285Y-121208035D02*
X130399285Y-121208035D01*
X130935000Y-121458035D01*
X130399285Y-121708035D01*
X131149285Y-121708035D01*
X130399285Y-122208035D02*
X130399285Y-122350892D01*
X130435000Y-122422321D01*
X130506428Y-122493750D01*
X130649285Y-122529464D01*
X130899285Y-122529464D01*
X131042142Y-122493750D01*
X131113571Y-122422321D01*
X131149285Y-122350892D01*
X131149285Y-122208035D01*
X131113571Y-122136607D01*
X131042142Y-122065178D01*
X130899285Y-122029464D01*
X130649285Y-122029464D01*
X130506428Y-122065178D01*
X130435000Y-122136607D01*
X130399285Y-122208035D01*
X131113571Y-122815178D02*
X131149285Y-122922321D01*
X131149285Y-123100892D01*
X131113571Y-123172321D01*
X131077857Y-123208035D01*
X131006428Y-123243750D01*
X130935000Y-123243750D01*
X130863571Y-123208035D01*
X130827857Y-123172321D01*
X130792142Y-123100892D01*
X130756428Y-122958035D01*
X130720714Y-122886607D01*
X130685000Y-122850892D01*
X130613571Y-122815178D01*
X130542142Y-122815178D01*
X130470714Y-122850892D01*
X130435000Y-122886607D01*
X130399285Y-122958035D01*
X130399285Y-123136607D01*
X130435000Y-123243750D01*
X131149285Y-123565178D02*
X130399285Y-123565178D01*
X128573571Y-118850892D02*
X128609285Y-118958035D01*
X128609285Y-119136607D01*
X128573571Y-119208035D01*
X128537857Y-119243750D01*
X128466428Y-119279464D01*
X128395000Y-119279464D01*
X128323571Y-119243750D01*
X128287857Y-119208035D01*
X128252142Y-119136607D01*
X128216428Y-118993750D01*
X128180714Y-118922321D01*
X128145000Y-118886607D01*
X128073571Y-118850892D01*
X128002142Y-118850892D01*
X127930714Y-118886607D01*
X127895000Y-118922321D01*
X127859285Y-118993750D01*
X127859285Y-119172321D01*
X127895000Y-119279464D01*
X128609285Y-119600892D02*
X127859285Y-119600892D01*
X127859285Y-119886607D01*
X127895000Y-119958035D01*
X127930714Y-119993750D01*
X128002142Y-120029464D01*
X128109285Y-120029464D01*
X128180714Y-119993750D01*
X128216428Y-119958035D01*
X128252142Y-119886607D01*
X128252142Y-119600892D01*
X128609285Y-120350892D02*
X127859285Y-120350892D01*
X128609285Y-121100892D02*
X128609285Y-120672321D01*
X128609285Y-120886607D02*
X127859285Y-120886607D01*
X127966428Y-120815178D01*
X128037857Y-120743750D01*
X128073571Y-120672321D01*
X128537857Y-121422321D02*
X128573571Y-121458035D01*
X128609285Y-121422321D01*
X128573571Y-121386607D01*
X128537857Y-121422321D01*
X128609285Y-121422321D01*
X128573571Y-121743750D02*
X128609285Y-121850892D01*
X128609285Y-122029464D01*
X128573571Y-122100892D01*
X128537857Y-122136607D01*
X128466428Y-122172321D01*
X128395000Y-122172321D01*
X128323571Y-122136607D01*
X128287857Y-122100892D01*
X128252142Y-122029464D01*
X128216428Y-121886607D01*
X128180714Y-121815178D01*
X128145000Y-121779464D01*
X128073571Y-121743750D01*
X128002142Y-121743750D01*
X127930714Y-121779464D01*
X127895000Y-121815178D01*
X127859285Y-121886607D01*
X127859285Y-122065178D01*
X127895000Y-122172321D01*
X128573571Y-122458035D02*
X128609285Y-122565178D01*
X128609285Y-122743750D01*
X128573571Y-122815178D01*
X128537857Y-122850892D01*
X128466428Y-122886607D01*
X128395000Y-122886607D01*
X128323571Y-122850892D01*
X128287857Y-122815178D01*
X128252142Y-122743750D01*
X128216428Y-122600892D01*
X128180714Y-122529464D01*
X128145000Y-122493750D01*
X128073571Y-122458035D01*
X128002142Y-122458035D01*
X127930714Y-122493750D01*
X127895000Y-122529464D01*
X127859285Y-122600892D01*
X127859285Y-122779464D01*
X127895000Y-122886607D01*
X127859285Y-123350892D02*
X127859285Y-123422321D01*
X127895000Y-123493750D01*
X127930714Y-123529464D01*
X128002142Y-123565178D01*
X128145000Y-123600892D01*
X128323571Y-123600892D01*
X128466428Y-123565178D01*
X128537857Y-123529464D01*
X128573571Y-123493750D01*
X128609285Y-123422321D01*
X128609285Y-123350892D01*
X128573571Y-123279464D01*
X128537857Y-123243750D01*
X128466428Y-123208035D01*
X128323571Y-123172321D01*
X128145000Y-123172321D01*
X128002142Y-123208035D01*
X127930714Y-123243750D01*
X127895000Y-123279464D01*
X127859285Y-123350892D01*
X126069285Y-119672321D02*
X125319285Y-119672321D01*
X125319285Y-119958035D01*
X125355000Y-120029464D01*
X125390714Y-120065178D01*
X125462142Y-120100892D01*
X125569285Y-120100892D01*
X125640714Y-120065178D01*
X125676428Y-120029464D01*
X125712142Y-119958035D01*
X125712142Y-119672321D01*
X125319285Y-120350892D02*
X126069285Y-120529464D01*
X125533571Y-120672321D01*
X126069285Y-120815178D01*
X125319285Y-120993750D01*
X126069285Y-121279464D02*
X125319285Y-121279464D01*
X125855000Y-121529464D01*
X125319285Y-121779464D01*
X126069285Y-121779464D01*
X125319285Y-122279464D02*
X125319285Y-122350892D01*
X125355000Y-122422321D01*
X125390714Y-122458035D01*
X125462142Y-122493750D01*
X125605000Y-122529464D01*
X125783571Y-122529464D01*
X125926428Y-122493750D01*
X125997857Y-122458035D01*
X126033571Y-122422321D01*
X126069285Y-122350892D01*
X126069285Y-122279464D01*
X126033571Y-122208035D01*
X125997857Y-122172321D01*
X125926428Y-122136607D01*
X125783571Y-122100892D01*
X125605000Y-122100892D01*
X125462142Y-122136607D01*
X125390714Y-122172321D01*
X125355000Y-122208035D01*
X125319285Y-122279464D01*
X125997857Y-122850892D02*
X126033571Y-122886607D01*
X126069285Y-122850892D01*
X126033571Y-122815178D01*
X125997857Y-122850892D01*
X126069285Y-122850892D01*
X126069285Y-123600892D02*
X126069285Y-123172321D01*
X126069285Y-123386607D02*
X125319285Y-123386607D01*
X125426428Y-123315178D01*
X125497857Y-123243750D01*
X125533571Y-123172321D01*
X123529285Y-119672321D02*
X122779285Y-119672321D01*
X122779285Y-119958035D01*
X122815000Y-120029464D01*
X122850714Y-120065178D01*
X122922142Y-120100892D01*
X123029285Y-120100892D01*
X123100714Y-120065178D01*
X123136428Y-120029464D01*
X123172142Y-119958035D01*
X123172142Y-119672321D01*
X122779285Y-120350892D02*
X123529285Y-120529464D01*
X122993571Y-120672321D01*
X123529285Y-120815178D01*
X122779285Y-120993750D01*
X123529285Y-121279464D02*
X122779285Y-121279464D01*
X123315000Y-121529464D01*
X122779285Y-121779464D01*
X123529285Y-121779464D01*
X122779285Y-122279464D02*
X122779285Y-122350892D01*
X122815000Y-122422321D01*
X122850714Y-122458035D01*
X122922142Y-122493750D01*
X123065000Y-122529464D01*
X123243571Y-122529464D01*
X123386428Y-122493750D01*
X123457857Y-122458035D01*
X123493571Y-122422321D01*
X123529285Y-122350892D01*
X123529285Y-122279464D01*
X123493571Y-122208035D01*
X123457857Y-122172321D01*
X123386428Y-122136607D01*
X123243571Y-122100892D01*
X123065000Y-122100892D01*
X122922142Y-122136607D01*
X122850714Y-122172321D01*
X122815000Y-122208035D01*
X122779285Y-122279464D01*
X123457857Y-122850892D02*
X123493571Y-122886607D01*
X123529285Y-122850892D01*
X123493571Y-122815178D01*
X123457857Y-122850892D01*
X123529285Y-122850892D01*
X122779285Y-123350892D02*
X122779285Y-123422321D01*
X122815000Y-123493750D01*
X122850714Y-123529464D01*
X122922142Y-123565178D01*
X123065000Y-123600892D01*
X123243571Y-123600892D01*
X123386428Y-123565178D01*
X123457857Y-123529464D01*
X123493571Y-123493750D01*
X123529285Y-123422321D01*
X123529285Y-123350892D01*
X123493571Y-123279464D01*
X123457857Y-123243750D01*
X123386428Y-123208035D01*
X123243571Y-123172321D01*
X123065000Y-123172321D01*
X122922142Y-123208035D01*
X122850714Y-123243750D01*
X122815000Y-123279464D01*
X122779285Y-123350892D01*
X120239285Y-122136607D02*
X120239285Y-122565178D01*
X120989285Y-122350892D02*
X120239285Y-122350892D01*
X120989285Y-122815178D02*
X120239285Y-122815178D01*
X120239285Y-122993750D01*
X120275000Y-123100892D01*
X120346428Y-123172321D01*
X120417857Y-123208035D01*
X120560714Y-123243750D01*
X120667857Y-123243750D01*
X120810714Y-123208035D01*
X120882142Y-123172321D01*
X120953571Y-123100892D01*
X120989285Y-122993750D01*
X120989285Y-122815178D01*
X120989285Y-123565178D02*
X120239285Y-123565178D01*
X117699285Y-121672321D02*
X117699285Y-122100892D01*
X118449285Y-121886607D02*
X117699285Y-121886607D01*
X118449285Y-122350892D02*
X117699285Y-122350892D01*
X118235000Y-122600892D01*
X117699285Y-122850892D01*
X118449285Y-122850892D01*
X118413571Y-123172321D02*
X118449285Y-123279464D01*
X118449285Y-123458035D01*
X118413571Y-123529464D01*
X118377857Y-123565178D01*
X118306428Y-123600892D01*
X118235000Y-123600892D01*
X118163571Y-123565178D01*
X118127857Y-123529464D01*
X118092142Y-123458035D01*
X118056428Y-123315178D01*
X118020714Y-123243750D01*
X117985000Y-123208035D01*
X117913571Y-123172321D01*
X117842142Y-123172321D01*
X117770714Y-123208035D01*
X117735000Y-123243750D01*
X117699285Y-123315178D01*
X117699285Y-123493750D01*
X117735000Y-123600892D01*
X115159285Y-121708035D02*
X115159285Y-122136607D01*
X115909285Y-121922321D02*
X115159285Y-121922321D01*
X115909285Y-122386607D02*
X115159285Y-122386607D01*
X115159285Y-122565178D01*
X115195000Y-122672321D01*
X115266428Y-122743750D01*
X115337857Y-122779464D01*
X115480714Y-122815178D01*
X115587857Y-122815178D01*
X115730714Y-122779464D01*
X115802142Y-122743750D01*
X115873571Y-122672321D01*
X115909285Y-122565178D01*
X115909285Y-122386607D01*
X115159285Y-123279464D02*
X115159285Y-123422321D01*
X115195000Y-123493750D01*
X115266428Y-123565178D01*
X115409285Y-123600892D01*
X115659285Y-123600892D01*
X115802142Y-123565178D01*
X115873571Y-123493750D01*
X115909285Y-123422321D01*
X115909285Y-123279464D01*
X115873571Y-123208035D01*
X115802142Y-123136607D01*
X115659285Y-123100892D01*
X115409285Y-123100892D01*
X115266428Y-123136607D01*
X115195000Y-123208035D01*
X115159285Y-123279464D01*
X112619285Y-121743750D02*
X112619285Y-122172321D01*
X113369285Y-121958035D02*
X112619285Y-121958035D01*
X113297857Y-122850892D02*
X113333571Y-122815178D01*
X113369285Y-122708035D01*
X113369285Y-122636607D01*
X113333571Y-122529464D01*
X113262142Y-122458035D01*
X113190714Y-122422321D01*
X113047857Y-122386607D01*
X112940714Y-122386607D01*
X112797857Y-122422321D01*
X112726428Y-122458035D01*
X112655000Y-122529464D01*
X112619285Y-122636607D01*
X112619285Y-122708035D01*
X112655000Y-122815178D01*
X112690714Y-122850892D01*
X113369285Y-123172321D02*
X112619285Y-123172321D01*
X113369285Y-123600892D02*
X112940714Y-123279464D01*
X112619285Y-123600892D02*
X113047857Y-123172321D01*
X110079285Y-120422321D02*
X110079285Y-120850892D01*
X110829285Y-120636607D02*
X110079285Y-120636607D01*
X110829285Y-121529464D02*
X110472142Y-121279464D01*
X110829285Y-121100892D02*
X110079285Y-121100892D01*
X110079285Y-121386607D01*
X110115000Y-121458035D01*
X110150714Y-121493750D01*
X110222142Y-121529464D01*
X110329285Y-121529464D01*
X110400714Y-121493750D01*
X110436428Y-121458035D01*
X110472142Y-121386607D01*
X110472142Y-121100892D01*
X110793571Y-121815178D02*
X110829285Y-121922321D01*
X110829285Y-122100892D01*
X110793571Y-122172321D01*
X110757857Y-122208035D01*
X110686428Y-122243750D01*
X110615000Y-122243750D01*
X110543571Y-122208035D01*
X110507857Y-122172321D01*
X110472142Y-122100892D01*
X110436428Y-121958035D01*
X110400714Y-121886607D01*
X110365000Y-121850892D01*
X110293571Y-121815178D01*
X110222142Y-121815178D01*
X110150714Y-121850892D01*
X110115000Y-121886607D01*
X110079285Y-121958035D01*
X110079285Y-122136607D01*
X110115000Y-122243750D01*
X110079285Y-122458035D02*
X110079285Y-122886607D01*
X110829285Y-122672321D02*
X110079285Y-122672321D01*
X110829285Y-123136607D02*
X110079285Y-123136607D01*
X110829285Y-123565178D01*
X110079285Y-123565178D01*
X108003571Y-118779464D02*
X108003571Y-119350892D01*
X108289285Y-119065178D02*
X107717857Y-119065178D01*
X107539285Y-119636607D02*
X107539285Y-120100892D01*
X107825000Y-119850892D01*
X107825000Y-119958035D01*
X107860714Y-120029464D01*
X107896428Y-120065178D01*
X107967857Y-120100892D01*
X108146428Y-120100892D01*
X108217857Y-120065178D01*
X108253571Y-120029464D01*
X108289285Y-119958035D01*
X108289285Y-119743750D01*
X108253571Y-119672321D01*
X108217857Y-119636607D01*
X108217857Y-120422321D02*
X108253571Y-120458035D01*
X108289285Y-120422321D01*
X108253571Y-120386607D01*
X108217857Y-120422321D01*
X108289285Y-120422321D01*
X107539285Y-120708035D02*
X107539285Y-121172321D01*
X107825000Y-120922321D01*
X107825000Y-121029464D01*
X107860714Y-121100892D01*
X107896428Y-121136607D01*
X107967857Y-121172321D01*
X108146428Y-121172321D01*
X108217857Y-121136607D01*
X108253571Y-121100892D01*
X108289285Y-121029464D01*
X108289285Y-120815178D01*
X108253571Y-120743750D01*
X108217857Y-120708035D01*
X107539285Y-121386607D02*
X108289285Y-121636607D01*
X107539285Y-121886607D01*
X108289285Y-122243750D02*
X108253571Y-122172321D01*
X108217857Y-122136607D01*
X108146428Y-122100892D01*
X107932142Y-122100892D01*
X107860714Y-122136607D01*
X107825000Y-122172321D01*
X107789285Y-122243750D01*
X107789285Y-122350892D01*
X107825000Y-122422321D01*
X107860714Y-122458035D01*
X107932142Y-122493750D01*
X108146428Y-122493750D01*
X108217857Y-122458035D01*
X108253571Y-122422321D01*
X108289285Y-122350892D01*
X108289285Y-122243750D01*
X107789285Y-123136607D02*
X108289285Y-123136607D01*
X107789285Y-122815178D02*
X108182142Y-122815178D01*
X108253571Y-122850892D01*
X108289285Y-122922321D01*
X108289285Y-123029464D01*
X108253571Y-123100892D01*
X108217857Y-123136607D01*
X107789285Y-123386607D02*
X107789285Y-123672321D01*
X107539285Y-123493750D02*
X108182142Y-123493750D01*
X108253571Y-123529464D01*
X108289285Y-123600892D01*
X108289285Y-123672321D01*
X105035000Y-122029464D02*
X104999285Y-121958035D01*
X104999285Y-121850892D01*
X105035000Y-121743750D01*
X105106428Y-121672321D01*
X105177857Y-121636607D01*
X105320714Y-121600892D01*
X105427857Y-121600892D01*
X105570714Y-121636607D01*
X105642142Y-121672321D01*
X105713571Y-121743750D01*
X105749285Y-121850892D01*
X105749285Y-121922321D01*
X105713571Y-122029464D01*
X105677857Y-122065178D01*
X105427857Y-122065178D01*
X105427857Y-121922321D01*
X105749285Y-122386607D02*
X104999285Y-122386607D01*
X105749285Y-122815178D01*
X104999285Y-122815178D01*
X105749285Y-123172321D02*
X104999285Y-123172321D01*
X104999285Y-123350892D01*
X105035000Y-123458035D01*
X105106428Y-123529464D01*
X105177857Y-123565178D01*
X105320714Y-123600892D01*
X105427857Y-123600892D01*
X105570714Y-123565178D01*
X105642142Y-123529464D01*
X105713571Y-123458035D01*
X105749285Y-123350892D01*
X105749285Y-123172321D01*
X102923571Y-120600892D02*
X102923571Y-121172321D01*
X103209285Y-120886607D02*
X102637857Y-120886607D01*
X102459285Y-121886607D02*
X102459285Y-121529464D01*
X102816428Y-121493750D01*
X102780714Y-121529464D01*
X102745000Y-121600892D01*
X102745000Y-121779464D01*
X102780714Y-121850892D01*
X102816428Y-121886607D01*
X102887857Y-121922321D01*
X103066428Y-121922321D01*
X103137857Y-121886607D01*
X103173571Y-121850892D01*
X103209285Y-121779464D01*
X103209285Y-121600892D01*
X103173571Y-121529464D01*
X103137857Y-121493750D01*
X102459285Y-122136607D02*
X103209285Y-122386607D01*
X102459285Y-122636607D01*
X103209285Y-122886607D02*
X102709285Y-122886607D01*
X102459285Y-122886607D02*
X102495000Y-122850892D01*
X102530714Y-122886607D01*
X102495000Y-122922321D01*
X102459285Y-122886607D01*
X102530714Y-122886607D01*
X102709285Y-123243750D02*
X103209285Y-123243750D01*
X102780714Y-123243750D02*
X102745000Y-123279464D01*
X102709285Y-123350892D01*
X102709285Y-123458035D01*
X102745000Y-123529464D01*
X102816428Y-123565178D01*
X103209285Y-123565178D01*
D11*
X101540000Y-109160000D02*
X101540000Y-110490000D01*
X102870000Y-109160000D02*
X101540000Y-109160000D01*
X104140000Y-109160000D02*
X104140000Y-111820000D01*
X104140000Y-111820000D02*
X137220000Y-111820000D01*
X104140000Y-109160000D02*
X137220000Y-109160000D01*
X137220000Y-109160000D02*
X137220000Y-111820000D01*
X101540000Y-124400000D02*
X101540000Y-125730000D01*
X102870000Y-124400000D02*
X101540000Y-124400000D01*
X104140000Y-124400000D02*
X104140000Y-127060000D01*
X104140000Y-127060000D02*
X137220000Y-127060000D01*
X104140000Y-124400000D02*
X137220000Y-124400000D01*
X137220000Y-124400000D02*
X137220000Y-127060000D01*
M02*
