G04 #@! TF.GenerationSoftware,KiCad,Pcbnew,(2017-08-02 revision 9760937)-master*
G04 #@! TF.CreationDate,2017-09-04T14:54:41-05:00*
G04 #@! TF.ProjectId,lofive,6C6F666976652E6B696361645F706362,0*
G04 #@! TF.SameCoordinates,Original*
G04 #@! TF.FileFunction,Copper,L4,Bot,Signal*
G04 #@! TF.FilePolarity,Positive*
%FSLAX46Y46*%
G04 Gerber Fmt 4.6, Leading zero omitted, Abs format (unit mm)*
G04 Created by KiCad (PCBNEW (2017-08-02 revision 9760937)-master) date Mon Sep  4 14:54:41 2017*
%MOMM*%
%LPD*%
G01*
G04 APERTURE LIST*
%ADD10O,1.727200X1.727200*%
%ADD11R,1.727200X1.727200*%
%ADD12C,0.508000*%
%ADD13C,0.152400*%
%ADD14C,0.508000*%
%ADD15C,0.254000*%
G04 APERTURE END LIST*
D10*
X135890000Y-110490000D03*
X133350000Y-110490000D03*
X130810000Y-110490000D03*
X128270000Y-110490000D03*
X125730000Y-110490000D03*
X123190000Y-110490000D03*
X120650000Y-110490000D03*
X118110000Y-110490000D03*
X115570000Y-110490000D03*
X113030000Y-110490000D03*
X110490000Y-110490000D03*
X107950000Y-110490000D03*
X105410000Y-110490000D03*
D11*
X102870000Y-110490000D03*
X102870000Y-125730000D03*
D10*
X105410000Y-125730000D03*
X107950000Y-125730000D03*
X110490000Y-125730000D03*
X113030000Y-125730000D03*
X115570000Y-125730000D03*
X118110000Y-125730000D03*
X120650000Y-125730000D03*
X123190000Y-125730000D03*
X125730000Y-125730000D03*
X128270000Y-125730000D03*
X130810000Y-125730000D03*
X133350000Y-125730000D03*
X135890000Y-125730000D03*
D12*
X114331510Y-117113523D03*
X112758220Y-113903760D03*
X121920000Y-126365000D03*
X106680000Y-126365000D03*
X109220000Y-126365000D03*
X111760000Y-126365000D03*
X106680000Y-109855000D03*
X109220000Y-109855000D03*
X111760000Y-109855000D03*
X114300000Y-109855000D03*
X116840000Y-109855000D03*
X119380000Y-109855000D03*
X121920000Y-109855000D03*
X124460000Y-109855000D03*
X127000000Y-109855000D03*
X129540000Y-109855000D03*
X132080000Y-109855000D03*
X134620000Y-109855000D03*
X134620000Y-126365000D03*
X132080000Y-126365000D03*
X129540000Y-126365000D03*
X127000000Y-126365000D03*
X124460000Y-126365000D03*
X119380000Y-126365000D03*
X116840000Y-126365000D03*
X114300000Y-126365000D03*
X114823240Y-121752360D03*
X114782600Y-118054120D03*
X125960000Y-116260000D03*
X124850000Y-116260000D03*
X123740000Y-116270000D03*
X122630000Y-116270000D03*
X122630000Y-117370000D03*
X125960000Y-117380000D03*
X124850000Y-117370000D03*
X123740000Y-117370000D03*
X122620000Y-118490000D03*
X125960000Y-118490000D03*
X124850000Y-118490000D03*
X123740000Y-118490000D03*
X122630000Y-119600000D03*
X123740000Y-119600000D03*
X125970000Y-119600000D03*
X124860000Y-119600000D03*
X103949500Y-120535700D03*
X103969820Y-115722400D03*
X106809540Y-121749820D03*
X106809540Y-116951760D03*
X111201200Y-113096040D03*
X118221760Y-115069620D03*
X118214140Y-113814860D03*
X112776000Y-121135140D03*
X120566180Y-123032520D03*
X118778020Y-121483120D03*
X132831840Y-112905540D03*
X130164842Y-116380260D03*
X131272280Y-116319300D03*
X132341620Y-119029480D03*
X135356600Y-120396000D03*
X132351780Y-122029220D03*
X130164840Y-119039640D03*
X127302260Y-123085860D03*
X125917960Y-123085860D03*
X120454420Y-117729000D03*
X136019540Y-116359940D03*
X134416800Y-113687860D03*
X117599460Y-119100600D03*
X129413000Y-119052340D03*
X120705880Y-113830100D03*
X106144060Y-119562880D03*
X125933200Y-121973340D03*
X124508680Y-121980960D03*
X120586500Y-120590680D03*
X129378507Y-116381327D03*
X121104660Y-114416840D03*
X108960920Y-113845340D03*
X106156760Y-114759740D03*
X127701040Y-121343420D03*
X134350000Y-122047000D03*
X131330700Y-122519440D03*
D13*
X112758220Y-113903760D02*
X113482120Y-113903760D01*
X113482120Y-113903760D02*
X114077511Y-114499151D01*
X114077511Y-114499151D02*
X114077511Y-116859524D01*
X114077511Y-116859524D02*
X114331510Y-117113523D01*
D14*
X120586500Y-120590680D02*
X120902360Y-120590680D01*
X120902360Y-120590680D02*
X121114821Y-120378219D01*
X121114821Y-120378219D02*
X121114821Y-114786211D01*
X121114821Y-114786211D02*
X121104660Y-114776050D01*
X121104660Y-114776050D02*
X121104660Y-114416840D01*
X121104660Y-114416840D02*
X121358659Y-114670839D01*
X121358659Y-114670839D02*
X128813559Y-114670839D01*
X128813559Y-114670839D02*
X129378507Y-115235787D01*
X129378507Y-115235787D02*
X129378507Y-116381327D01*
X107950000Y-125730000D02*
X107950000Y-120746520D01*
X107950000Y-120746520D02*
X107950000Y-114856260D01*
X120586500Y-120590680D02*
X120297840Y-120302020D01*
X120297840Y-120302020D02*
X108394500Y-120302020D01*
X108394500Y-120302020D02*
X107950000Y-120746520D01*
X106156760Y-114759740D02*
X108046520Y-114759740D01*
X108046520Y-114759740D02*
X108960920Y-113845340D01*
X107950000Y-114856260D02*
X108960920Y-113845340D01*
D13*
X134350000Y-122047000D02*
X134350000Y-121650000D01*
X134350000Y-121650000D02*
X134043420Y-121343420D01*
X134043420Y-121343420D02*
X128060250Y-121343420D01*
X128060250Y-121343420D02*
X127701040Y-121343420D01*
X110490000Y-125730000D02*
X110490000Y-123398280D01*
X110490000Y-123398280D02*
X111368840Y-122519440D01*
X111368840Y-122519440D02*
X130971490Y-122519440D01*
X130971490Y-122519440D02*
X131330700Y-122519440D01*
D15*
G36*
X104601777Y-109659384D02*
X104354006Y-110030200D01*
X104267000Y-110467607D01*
X104267000Y-110512393D01*
X104354006Y-110949800D01*
X104601777Y-111320616D01*
X104972593Y-111568387D01*
X105410000Y-111655393D01*
X105847407Y-111568387D01*
X106218223Y-111320616D01*
X106465994Y-110949800D01*
X106553000Y-110512393D01*
X106553000Y-110467607D01*
X106465994Y-110030200D01*
X106218223Y-109659384D01*
X106091035Y-109574400D01*
X107268965Y-109574400D01*
X107141777Y-109659384D01*
X106894006Y-110030200D01*
X106807000Y-110467607D01*
X106807000Y-110512393D01*
X106894006Y-110949800D01*
X107141777Y-111320616D01*
X107512593Y-111568387D01*
X107950000Y-111655393D01*
X108387407Y-111568387D01*
X108758223Y-111320616D01*
X109005994Y-110949800D01*
X109093000Y-110512393D01*
X109093000Y-110467607D01*
X109005994Y-110030200D01*
X108758223Y-109659384D01*
X108631035Y-109574400D01*
X109808965Y-109574400D01*
X109681777Y-109659384D01*
X109434006Y-110030200D01*
X109347000Y-110467607D01*
X109347000Y-110512393D01*
X109434006Y-110949800D01*
X109681777Y-111320616D01*
X110052593Y-111568387D01*
X110490000Y-111655393D01*
X110927407Y-111568387D01*
X111298223Y-111320616D01*
X111545994Y-110949800D01*
X111633000Y-110512393D01*
X111633000Y-110467607D01*
X111545994Y-110030200D01*
X111298223Y-109659384D01*
X111171035Y-109574400D01*
X112348965Y-109574400D01*
X112221777Y-109659384D01*
X111974006Y-110030200D01*
X111887000Y-110467607D01*
X111887000Y-110512393D01*
X111974006Y-110949800D01*
X112221777Y-111320616D01*
X112592593Y-111568387D01*
X113030000Y-111655393D01*
X113467407Y-111568387D01*
X113838223Y-111320616D01*
X114085994Y-110949800D01*
X114173000Y-110512393D01*
X114173000Y-110467607D01*
X114085994Y-110030200D01*
X113838223Y-109659384D01*
X113711035Y-109574400D01*
X114888965Y-109574400D01*
X114761777Y-109659384D01*
X114514006Y-110030200D01*
X114427000Y-110467607D01*
X114427000Y-110512393D01*
X114514006Y-110949800D01*
X114761777Y-111320616D01*
X115132593Y-111568387D01*
X115570000Y-111655393D01*
X116007407Y-111568387D01*
X116378223Y-111320616D01*
X116625994Y-110949800D01*
X116713000Y-110512393D01*
X116713000Y-110467607D01*
X116625994Y-110030200D01*
X116378223Y-109659384D01*
X116251035Y-109574400D01*
X117428965Y-109574400D01*
X117301777Y-109659384D01*
X117054006Y-110030200D01*
X116967000Y-110467607D01*
X116967000Y-110512393D01*
X117054006Y-110949800D01*
X117301777Y-111320616D01*
X117672593Y-111568387D01*
X118110000Y-111655393D01*
X118547407Y-111568387D01*
X118918223Y-111320616D01*
X119165994Y-110949800D01*
X119253000Y-110512393D01*
X119253000Y-110467607D01*
X119165994Y-110030200D01*
X118918223Y-109659384D01*
X118791035Y-109574400D01*
X119968965Y-109574400D01*
X119841777Y-109659384D01*
X119594006Y-110030200D01*
X119507000Y-110467607D01*
X119507000Y-110512393D01*
X119594006Y-110949800D01*
X119841777Y-111320616D01*
X120212593Y-111568387D01*
X120650000Y-111655393D01*
X121087407Y-111568387D01*
X121458223Y-111320616D01*
X121705994Y-110949800D01*
X121793000Y-110512393D01*
X121793000Y-110467607D01*
X121705994Y-110030200D01*
X121458223Y-109659384D01*
X121331035Y-109574400D01*
X122508965Y-109574400D01*
X122381777Y-109659384D01*
X122134006Y-110030200D01*
X122047000Y-110467607D01*
X122047000Y-110512393D01*
X122134006Y-110949800D01*
X122381777Y-111320616D01*
X122752593Y-111568387D01*
X123190000Y-111655393D01*
X123627407Y-111568387D01*
X123998223Y-111320616D01*
X124245994Y-110949800D01*
X124333000Y-110512393D01*
X124333000Y-110467607D01*
X124245994Y-110030200D01*
X123998223Y-109659384D01*
X123871035Y-109574400D01*
X125048965Y-109574400D01*
X124921777Y-109659384D01*
X124674006Y-110030200D01*
X124587000Y-110467607D01*
X124587000Y-110512393D01*
X124674006Y-110949800D01*
X124921777Y-111320616D01*
X125292593Y-111568387D01*
X125730000Y-111655393D01*
X126167407Y-111568387D01*
X126538223Y-111320616D01*
X126785994Y-110949800D01*
X126873000Y-110512393D01*
X126873000Y-110467607D01*
X126785994Y-110030200D01*
X126538223Y-109659384D01*
X126411035Y-109574400D01*
X127588965Y-109574400D01*
X127461777Y-109659384D01*
X127214006Y-110030200D01*
X127127000Y-110467607D01*
X127127000Y-110512393D01*
X127214006Y-110949800D01*
X127461777Y-111320616D01*
X127832593Y-111568387D01*
X128270000Y-111655393D01*
X128707407Y-111568387D01*
X129078223Y-111320616D01*
X129325994Y-110949800D01*
X129413000Y-110512393D01*
X129413000Y-110467607D01*
X129325994Y-110030200D01*
X129078223Y-109659384D01*
X128951035Y-109574400D01*
X130128965Y-109574400D01*
X130001777Y-109659384D01*
X129754006Y-110030200D01*
X129667000Y-110467607D01*
X129667000Y-110512393D01*
X129754006Y-110949800D01*
X130001777Y-111320616D01*
X130372593Y-111568387D01*
X130810000Y-111655393D01*
X131247407Y-111568387D01*
X131618223Y-111320616D01*
X131865994Y-110949800D01*
X131953000Y-110512393D01*
X131953000Y-110467607D01*
X131865994Y-110030200D01*
X131618223Y-109659384D01*
X131491035Y-109574400D01*
X132668965Y-109574400D01*
X132541777Y-109659384D01*
X132294006Y-110030200D01*
X132207000Y-110467607D01*
X132207000Y-110512393D01*
X132294006Y-110949800D01*
X132541777Y-111320616D01*
X132912593Y-111568387D01*
X133350000Y-111655393D01*
X133787407Y-111568387D01*
X134158223Y-111320616D01*
X134405994Y-110949800D01*
X134493000Y-110512393D01*
X134493000Y-110467607D01*
X134405994Y-110030200D01*
X134158223Y-109659384D01*
X134031035Y-109574400D01*
X135208965Y-109574400D01*
X135081777Y-109659384D01*
X134834006Y-110030200D01*
X134747000Y-110467607D01*
X134747000Y-110512393D01*
X134834006Y-110949800D01*
X135081777Y-111320616D01*
X135452593Y-111568387D01*
X135890000Y-111655393D01*
X136327407Y-111568387D01*
X136698223Y-111320616D01*
X136805600Y-111159915D01*
X136805600Y-125060085D01*
X136698223Y-124899384D01*
X136327407Y-124651613D01*
X135890000Y-124564607D01*
X135452593Y-124651613D01*
X135081777Y-124899384D01*
X134834006Y-125270200D01*
X134747000Y-125707607D01*
X134747000Y-125752393D01*
X134834006Y-126189800D01*
X135081777Y-126560616D01*
X135208965Y-126645600D01*
X134031035Y-126645600D01*
X134158223Y-126560616D01*
X134405994Y-126189800D01*
X134493000Y-125752393D01*
X134493000Y-125707607D01*
X134405994Y-125270200D01*
X134158223Y-124899384D01*
X133787407Y-124651613D01*
X133350000Y-124564607D01*
X132912593Y-124651613D01*
X132541777Y-124899384D01*
X132294006Y-125270200D01*
X132207000Y-125707607D01*
X132207000Y-125752393D01*
X132294006Y-126189800D01*
X132541777Y-126560616D01*
X132668965Y-126645600D01*
X131491035Y-126645600D01*
X131618223Y-126560616D01*
X131865994Y-126189800D01*
X131953000Y-125752393D01*
X131953000Y-125707607D01*
X131865994Y-125270200D01*
X131618223Y-124899384D01*
X131247407Y-124651613D01*
X130810000Y-124564607D01*
X130372593Y-124651613D01*
X130001777Y-124899384D01*
X129754006Y-125270200D01*
X129667000Y-125707607D01*
X129667000Y-125752393D01*
X129754006Y-126189800D01*
X130001777Y-126560616D01*
X130128965Y-126645600D01*
X128951035Y-126645600D01*
X129078223Y-126560616D01*
X129325994Y-126189800D01*
X129413000Y-125752393D01*
X129413000Y-125707607D01*
X129325994Y-125270200D01*
X129078223Y-124899384D01*
X128707407Y-124651613D01*
X128270000Y-124564607D01*
X127832593Y-124651613D01*
X127461777Y-124899384D01*
X127214006Y-125270200D01*
X127127000Y-125707607D01*
X127127000Y-125752393D01*
X127214006Y-126189800D01*
X127461777Y-126560616D01*
X127588965Y-126645600D01*
X126411035Y-126645600D01*
X126538223Y-126560616D01*
X126785994Y-126189800D01*
X126873000Y-125752393D01*
X126873000Y-125707607D01*
X126785994Y-125270200D01*
X126538223Y-124899384D01*
X126167407Y-124651613D01*
X125730000Y-124564607D01*
X125292593Y-124651613D01*
X124921777Y-124899384D01*
X124674006Y-125270200D01*
X124587000Y-125707607D01*
X124587000Y-125752393D01*
X124674006Y-126189800D01*
X124921777Y-126560616D01*
X125048965Y-126645600D01*
X123871035Y-126645600D01*
X123998223Y-126560616D01*
X124245994Y-126189800D01*
X124333000Y-125752393D01*
X124333000Y-125707607D01*
X124245994Y-125270200D01*
X123998223Y-124899384D01*
X123627407Y-124651613D01*
X123190000Y-124564607D01*
X122752593Y-124651613D01*
X122381777Y-124899384D01*
X122134006Y-125270200D01*
X122047000Y-125707607D01*
X122047000Y-125752393D01*
X122134006Y-126189800D01*
X122381777Y-126560616D01*
X122508965Y-126645600D01*
X121331035Y-126645600D01*
X121458223Y-126560616D01*
X121705994Y-126189800D01*
X121793000Y-125752393D01*
X121793000Y-125707607D01*
X121705994Y-125270200D01*
X121458223Y-124899384D01*
X121087407Y-124651613D01*
X120650000Y-124564607D01*
X120212593Y-124651613D01*
X119841777Y-124899384D01*
X119594006Y-125270200D01*
X119507000Y-125707607D01*
X119507000Y-125752393D01*
X119594006Y-126189800D01*
X119841777Y-126560616D01*
X119968965Y-126645600D01*
X118791035Y-126645600D01*
X118918223Y-126560616D01*
X119165994Y-126189800D01*
X119253000Y-125752393D01*
X119253000Y-125707607D01*
X119165994Y-125270200D01*
X118918223Y-124899384D01*
X118547407Y-124651613D01*
X118110000Y-124564607D01*
X117672593Y-124651613D01*
X117301777Y-124899384D01*
X117054006Y-125270200D01*
X116967000Y-125707607D01*
X116967000Y-125752393D01*
X117054006Y-126189800D01*
X117301777Y-126560616D01*
X117428965Y-126645600D01*
X116251035Y-126645600D01*
X116378223Y-126560616D01*
X116625994Y-126189800D01*
X116713000Y-125752393D01*
X116713000Y-125707607D01*
X116625994Y-125270200D01*
X116378223Y-124899384D01*
X116007407Y-124651613D01*
X115570000Y-124564607D01*
X115132593Y-124651613D01*
X114761777Y-124899384D01*
X114514006Y-125270200D01*
X114427000Y-125707607D01*
X114427000Y-125752393D01*
X114514006Y-126189800D01*
X114761777Y-126560616D01*
X114888965Y-126645600D01*
X113711035Y-126645600D01*
X113838223Y-126560616D01*
X114085994Y-126189800D01*
X114173000Y-125752393D01*
X114173000Y-125707607D01*
X114085994Y-125270200D01*
X113838223Y-124899384D01*
X113467407Y-124651613D01*
X113030000Y-124564607D01*
X112592593Y-124651613D01*
X112221777Y-124899384D01*
X111974006Y-125270200D01*
X111887000Y-125707607D01*
X111887000Y-125752393D01*
X111974006Y-126189800D01*
X112221777Y-126560616D01*
X112348965Y-126645600D01*
X111171035Y-126645600D01*
X111298223Y-126560616D01*
X111545994Y-126189800D01*
X111633000Y-125752393D01*
X111633000Y-125707607D01*
X111545994Y-125270200D01*
X111298223Y-124899384D01*
X110927407Y-124651613D01*
X110845600Y-124635341D01*
X110845600Y-123545574D01*
X111516134Y-122875040D01*
X130931996Y-122875040D01*
X131028159Y-122971371D01*
X131224135Y-123052747D01*
X131436334Y-123052932D01*
X131632452Y-122971898D01*
X131782631Y-122821981D01*
X131864007Y-122626005D01*
X131864192Y-122413806D01*
X131783158Y-122217688D01*
X131633241Y-122067509D01*
X131437265Y-121986133D01*
X131225066Y-121985948D01*
X131028948Y-122066982D01*
X130931921Y-122163840D01*
X126431654Y-122163840D01*
X126466507Y-122079905D01*
X126466692Y-121867706D01*
X126385658Y-121671588D01*
X126235741Y-121521409D01*
X126061491Y-121449054D01*
X127167548Y-121449054D01*
X127248582Y-121645172D01*
X127398499Y-121795351D01*
X127594475Y-121876727D01*
X127806674Y-121876912D01*
X128002792Y-121795878D01*
X128099819Y-121699020D01*
X133896126Y-121699020D01*
X133919836Y-121722730D01*
X133898069Y-121744459D01*
X133816693Y-121940435D01*
X133816508Y-122152634D01*
X133897542Y-122348752D01*
X134047459Y-122498931D01*
X134243435Y-122580307D01*
X134455634Y-122580492D01*
X134651752Y-122499458D01*
X134801931Y-122349541D01*
X134883307Y-122153565D01*
X134883492Y-121941366D01*
X134802458Y-121745248D01*
X134705158Y-121647778D01*
X134678532Y-121513918D01*
X134601447Y-121398553D01*
X134294867Y-121091973D01*
X134179503Y-121014888D01*
X134043420Y-120987820D01*
X128099744Y-120987820D01*
X128003581Y-120891489D01*
X127807605Y-120810113D01*
X127595406Y-120809928D01*
X127399288Y-120890962D01*
X127249109Y-121040879D01*
X127167733Y-121236855D01*
X127167548Y-121449054D01*
X126061491Y-121449054D01*
X126039765Y-121440033D01*
X125827566Y-121439848D01*
X125631448Y-121520882D01*
X125481269Y-121670799D01*
X125399893Y-121866775D01*
X125399708Y-122078974D01*
X125434774Y-122163840D01*
X125010298Y-122163840D01*
X125041987Y-122087525D01*
X125042172Y-121875326D01*
X124961138Y-121679208D01*
X124811221Y-121529029D01*
X124615245Y-121447653D01*
X124403046Y-121447468D01*
X124206928Y-121528502D01*
X124056749Y-121678419D01*
X123975373Y-121874395D01*
X123975188Y-122086594D01*
X124007105Y-122163840D01*
X111368840Y-122163840D01*
X111232758Y-122190908D01*
X111117393Y-122267993D01*
X110238553Y-123146833D01*
X110161468Y-123262197D01*
X110161468Y-123262198D01*
X110134400Y-123398280D01*
X110134400Y-124635341D01*
X110052593Y-124651613D01*
X109681777Y-124899384D01*
X109434006Y-125270200D01*
X109347000Y-125707607D01*
X109347000Y-125752393D01*
X109434006Y-126189800D01*
X109681777Y-126560616D01*
X109808965Y-126645600D01*
X108631035Y-126645600D01*
X108758223Y-126560616D01*
X109005994Y-126189800D01*
X109093000Y-125752393D01*
X109093000Y-125707607D01*
X109005994Y-125270200D01*
X108758223Y-124899384D01*
X108483400Y-124715753D01*
X108483400Y-120967462D01*
X108615442Y-120835420D01*
X120076898Y-120835420D01*
X120209329Y-120967851D01*
X120283959Y-121042611D01*
X120479935Y-121123987D01*
X120586500Y-121124080D01*
X120586608Y-121124080D01*
X120692134Y-121124172D01*
X120692357Y-121124080D01*
X120902360Y-121124080D01*
X121106483Y-121083477D01*
X121279531Y-120967851D01*
X121491992Y-120755390D01*
X121607618Y-120582343D01*
X121648221Y-120378219D01*
X121648221Y-119157974D01*
X128879508Y-119157974D01*
X128960542Y-119354092D01*
X129110459Y-119504271D01*
X129306435Y-119585647D01*
X129518634Y-119585832D01*
X129714752Y-119504798D01*
X129864931Y-119354881D01*
X129946307Y-119158905D01*
X129946492Y-118946706D01*
X129865458Y-118750588D01*
X129715541Y-118600409D01*
X129519565Y-118519033D01*
X129307366Y-118518848D01*
X129111248Y-118599882D01*
X128961069Y-118749799D01*
X128879693Y-118945775D01*
X128879508Y-119157974D01*
X121648221Y-119157974D01*
X121648221Y-115204239D01*
X128592617Y-115204239D01*
X128845107Y-115456729D01*
X128845107Y-116381327D01*
X128845015Y-116486961D01*
X128926049Y-116683079D01*
X129075966Y-116833258D01*
X129271942Y-116914634D01*
X129378507Y-116914727D01*
X129484141Y-116914819D01*
X129680259Y-116833785D01*
X129830438Y-116683868D01*
X129911814Y-116487892D01*
X129911833Y-116465574D01*
X135486048Y-116465574D01*
X135567082Y-116661692D01*
X135716999Y-116811871D01*
X135912975Y-116893247D01*
X136125174Y-116893432D01*
X136321292Y-116812398D01*
X136471471Y-116662481D01*
X136552847Y-116466505D01*
X136553032Y-116254306D01*
X136471998Y-116058188D01*
X136322081Y-115908009D01*
X136126105Y-115826633D01*
X135913906Y-115826448D01*
X135717788Y-115907482D01*
X135567609Y-116057399D01*
X135486233Y-116253375D01*
X135486048Y-116465574D01*
X129911833Y-116465574D01*
X129911999Y-116275693D01*
X129911907Y-116275470D01*
X129911907Y-115235787D01*
X129871304Y-115031664D01*
X129755678Y-114858616D01*
X129190730Y-114293668D01*
X129017682Y-114178042D01*
X128813559Y-114137439D01*
X121579601Y-114137439D01*
X121481830Y-114039668D01*
X121407201Y-113964909D01*
X121239223Y-113895159D01*
X121239311Y-113793494D01*
X133883308Y-113793494D01*
X133964342Y-113989612D01*
X134114259Y-114139791D01*
X134310235Y-114221167D01*
X134522434Y-114221352D01*
X134718552Y-114140318D01*
X134868731Y-113990401D01*
X134950107Y-113794425D01*
X134950292Y-113582226D01*
X134869258Y-113386108D01*
X134719341Y-113235929D01*
X134523365Y-113154553D01*
X134311166Y-113154368D01*
X134115048Y-113235402D01*
X133964869Y-113385319D01*
X133883493Y-113581295D01*
X133883308Y-113793494D01*
X121239311Y-113793494D01*
X121239372Y-113724466D01*
X121158338Y-113528348D01*
X121008421Y-113378169D01*
X120812445Y-113296793D01*
X120600246Y-113296608D01*
X120404128Y-113377642D01*
X120253949Y-113527559D01*
X120172573Y-113723535D01*
X120172388Y-113935734D01*
X120253422Y-114131852D01*
X120403339Y-114282031D01*
X120571317Y-114351781D01*
X120571168Y-114522474D01*
X120571260Y-114522697D01*
X120571260Y-114776050D01*
X120581421Y-114827132D01*
X120581421Y-117204179D01*
X120560985Y-117195693D01*
X120348786Y-117195508D01*
X120152668Y-117276542D01*
X120002489Y-117426459D01*
X119921113Y-117622435D01*
X119920928Y-117834634D01*
X120001962Y-118030752D01*
X120151879Y-118180931D01*
X120347855Y-118262307D01*
X120560054Y-118262492D01*
X120581421Y-118253663D01*
X120581421Y-119862315D01*
X120501963Y-119809223D01*
X120297840Y-119768620D01*
X108483400Y-119768620D01*
X108483400Y-119206234D01*
X117065968Y-119206234D01*
X117147002Y-119402352D01*
X117296919Y-119552531D01*
X117492895Y-119633907D01*
X117705094Y-119634092D01*
X117901212Y-119553058D01*
X118051391Y-119403141D01*
X118132767Y-119207165D01*
X118132952Y-118994966D01*
X118051918Y-118798848D01*
X117902001Y-118648669D01*
X117706025Y-118567293D01*
X117493826Y-118567108D01*
X117297708Y-118648142D01*
X117147529Y-118798059D01*
X117066153Y-118994035D01*
X117065968Y-119206234D01*
X108483400Y-119206234D01*
X108483400Y-115077202D01*
X109338092Y-114222510D01*
X109412851Y-114147881D01*
X109470355Y-114009394D01*
X112224728Y-114009394D01*
X112305762Y-114205512D01*
X112455679Y-114355691D01*
X112651655Y-114437067D01*
X112863854Y-114437252D01*
X113059972Y-114356218D01*
X113156999Y-114259360D01*
X113334826Y-114259360D01*
X113721911Y-114646445D01*
X113721911Y-116859524D01*
X113748979Y-116995607D01*
X113798149Y-117069194D01*
X113798018Y-117219157D01*
X113879052Y-117415275D01*
X114028969Y-117565454D01*
X114224945Y-117646830D01*
X114437144Y-117647015D01*
X114633262Y-117565981D01*
X114783441Y-117416064D01*
X114864817Y-117220088D01*
X114865002Y-117007889D01*
X114783968Y-116811771D01*
X114634051Y-116661592D01*
X114438075Y-116580216D01*
X114433111Y-116580212D01*
X114433111Y-114499151D01*
X114406043Y-114363068D01*
X114328958Y-114247704D01*
X113733567Y-113652313D01*
X113618203Y-113575228D01*
X113482120Y-113548160D01*
X113156924Y-113548160D01*
X113060761Y-113451829D01*
X112864785Y-113370453D01*
X112652586Y-113370268D01*
X112456468Y-113451302D01*
X112306289Y-113601219D01*
X112224913Y-113797195D01*
X112224728Y-114009394D01*
X109470355Y-114009394D01*
X109494227Y-113951905D01*
X109494320Y-113845346D01*
X109494321Y-113845340D01*
X109494320Y-113845335D01*
X109494412Y-113739706D01*
X109413378Y-113543588D01*
X109263461Y-113393409D01*
X109067485Y-113312033D01*
X108960926Y-113311940D01*
X108960920Y-113311939D01*
X108960915Y-113311940D01*
X108855286Y-113311848D01*
X108659168Y-113392882D01*
X108508989Y-113542799D01*
X108508897Y-113543021D01*
X107825578Y-114226340D01*
X106156760Y-114226340D01*
X106051126Y-114226248D01*
X105855008Y-114307282D01*
X105704829Y-114457199D01*
X105623453Y-114653175D01*
X105623268Y-114865374D01*
X105704302Y-115061492D01*
X105854219Y-115211671D01*
X106050195Y-115293047D01*
X106156760Y-115293140D01*
X106156868Y-115293140D01*
X106262394Y-115293232D01*
X106262617Y-115293140D01*
X107416600Y-115293140D01*
X107416600Y-124715753D01*
X107141777Y-124899384D01*
X106894006Y-125270200D01*
X106807000Y-125707607D01*
X106807000Y-125752393D01*
X106894006Y-126189800D01*
X107141777Y-126560616D01*
X107268965Y-126645600D01*
X106065126Y-126645600D01*
X106312187Y-126431810D01*
X106512083Y-126033136D01*
X106476085Y-125857000D01*
X105537000Y-125857000D01*
X105537000Y-125877000D01*
X105283000Y-125877000D01*
X105283000Y-125857000D01*
X104343915Y-125857000D01*
X104307917Y-126033136D01*
X104507813Y-126431810D01*
X104754874Y-126645600D01*
X104008129Y-126645600D01*
X104018473Y-126593600D01*
X104018473Y-125426864D01*
X104307917Y-125426864D01*
X104343915Y-125603000D01*
X105283000Y-125603000D01*
X105283000Y-124664391D01*
X105537000Y-124664391D01*
X105537000Y-125603000D01*
X106476085Y-125603000D01*
X106512083Y-125426864D01*
X106312187Y-125028190D01*
X105974941Y-124736360D01*
X105713134Y-124627929D01*
X105537000Y-124664391D01*
X105283000Y-124664391D01*
X105106866Y-124627929D01*
X104845059Y-124736360D01*
X104507813Y-125028190D01*
X104307917Y-125426864D01*
X104018473Y-125426864D01*
X104018473Y-124866400D01*
X103996788Y-124757384D01*
X103935036Y-124664964D01*
X103842616Y-124603212D01*
X103733600Y-124581527D01*
X102006400Y-124581527D01*
X101954400Y-124591871D01*
X101954400Y-119668514D01*
X105610568Y-119668514D01*
X105691602Y-119864632D01*
X105841519Y-120014811D01*
X106037495Y-120096187D01*
X106249694Y-120096372D01*
X106445812Y-120015338D01*
X106595991Y-119865421D01*
X106677367Y-119669445D01*
X106677552Y-119457246D01*
X106596518Y-119261128D01*
X106446601Y-119110949D01*
X106250625Y-119029573D01*
X106038426Y-119029388D01*
X105842308Y-119110422D01*
X105692129Y-119260339D01*
X105610753Y-119456315D01*
X105610568Y-119668514D01*
X101954400Y-119668514D01*
X101954400Y-111633000D01*
X102673150Y-111633000D01*
X102743000Y-111563150D01*
X102743000Y-110617000D01*
X102997000Y-110617000D01*
X102997000Y-111563150D01*
X103066850Y-111633000D01*
X103789176Y-111633000D01*
X103891867Y-111590464D01*
X103970464Y-111511867D01*
X104013000Y-111409176D01*
X104013000Y-110686850D01*
X103943150Y-110617000D01*
X102997000Y-110617000D01*
X102743000Y-110617000D01*
X102723000Y-110617000D01*
X102723000Y-110363000D01*
X102743000Y-110363000D01*
X102743000Y-110343000D01*
X102997000Y-110343000D01*
X102997000Y-110363000D01*
X103943150Y-110363000D01*
X104013000Y-110293150D01*
X104013000Y-109574400D01*
X104728965Y-109574400D01*
X104601777Y-109659384D01*
X104601777Y-109659384D01*
G37*
X104601777Y-109659384D02*
X104354006Y-110030200D01*
X104267000Y-110467607D01*
X104267000Y-110512393D01*
X104354006Y-110949800D01*
X104601777Y-111320616D01*
X104972593Y-111568387D01*
X105410000Y-111655393D01*
X105847407Y-111568387D01*
X106218223Y-111320616D01*
X106465994Y-110949800D01*
X106553000Y-110512393D01*
X106553000Y-110467607D01*
X106465994Y-110030200D01*
X106218223Y-109659384D01*
X106091035Y-109574400D01*
X107268965Y-109574400D01*
X107141777Y-109659384D01*
X106894006Y-110030200D01*
X106807000Y-110467607D01*
X106807000Y-110512393D01*
X106894006Y-110949800D01*
X107141777Y-111320616D01*
X107512593Y-111568387D01*
X107950000Y-111655393D01*
X108387407Y-111568387D01*
X108758223Y-111320616D01*
X109005994Y-110949800D01*
X109093000Y-110512393D01*
X109093000Y-110467607D01*
X109005994Y-110030200D01*
X108758223Y-109659384D01*
X108631035Y-109574400D01*
X109808965Y-109574400D01*
X109681777Y-109659384D01*
X109434006Y-110030200D01*
X109347000Y-110467607D01*
X109347000Y-110512393D01*
X109434006Y-110949800D01*
X109681777Y-111320616D01*
X110052593Y-111568387D01*
X110490000Y-111655393D01*
X110927407Y-111568387D01*
X111298223Y-111320616D01*
X111545994Y-110949800D01*
X111633000Y-110512393D01*
X111633000Y-110467607D01*
X111545994Y-110030200D01*
X111298223Y-109659384D01*
X111171035Y-109574400D01*
X112348965Y-109574400D01*
X112221777Y-109659384D01*
X111974006Y-110030200D01*
X111887000Y-110467607D01*
X111887000Y-110512393D01*
X111974006Y-110949800D01*
X112221777Y-111320616D01*
X112592593Y-111568387D01*
X113030000Y-111655393D01*
X113467407Y-111568387D01*
X113838223Y-111320616D01*
X114085994Y-110949800D01*
X114173000Y-110512393D01*
X114173000Y-110467607D01*
X114085994Y-110030200D01*
X113838223Y-109659384D01*
X113711035Y-109574400D01*
X114888965Y-109574400D01*
X114761777Y-109659384D01*
X114514006Y-110030200D01*
X114427000Y-110467607D01*
X114427000Y-110512393D01*
X114514006Y-110949800D01*
X114761777Y-111320616D01*
X115132593Y-111568387D01*
X115570000Y-111655393D01*
X116007407Y-111568387D01*
X116378223Y-111320616D01*
X116625994Y-110949800D01*
X116713000Y-110512393D01*
X116713000Y-110467607D01*
X116625994Y-110030200D01*
X116378223Y-109659384D01*
X116251035Y-109574400D01*
X117428965Y-109574400D01*
X117301777Y-109659384D01*
X117054006Y-110030200D01*
X116967000Y-110467607D01*
X116967000Y-110512393D01*
X117054006Y-110949800D01*
X117301777Y-111320616D01*
X117672593Y-111568387D01*
X118110000Y-111655393D01*
X118547407Y-111568387D01*
X118918223Y-111320616D01*
X119165994Y-110949800D01*
X119253000Y-110512393D01*
X119253000Y-110467607D01*
X119165994Y-110030200D01*
X118918223Y-109659384D01*
X118791035Y-109574400D01*
X119968965Y-109574400D01*
X119841777Y-109659384D01*
X119594006Y-110030200D01*
X119507000Y-110467607D01*
X119507000Y-110512393D01*
X119594006Y-110949800D01*
X119841777Y-111320616D01*
X120212593Y-111568387D01*
X120650000Y-111655393D01*
X121087407Y-111568387D01*
X121458223Y-111320616D01*
X121705994Y-110949800D01*
X121793000Y-110512393D01*
X121793000Y-110467607D01*
X121705994Y-110030200D01*
X121458223Y-109659384D01*
X121331035Y-109574400D01*
X122508965Y-109574400D01*
X122381777Y-109659384D01*
X122134006Y-110030200D01*
X122047000Y-110467607D01*
X122047000Y-110512393D01*
X122134006Y-110949800D01*
X122381777Y-111320616D01*
X122752593Y-111568387D01*
X123190000Y-111655393D01*
X123627407Y-111568387D01*
X123998223Y-111320616D01*
X124245994Y-110949800D01*
X124333000Y-110512393D01*
X124333000Y-110467607D01*
X124245994Y-110030200D01*
X123998223Y-109659384D01*
X123871035Y-109574400D01*
X125048965Y-109574400D01*
X124921777Y-109659384D01*
X124674006Y-110030200D01*
X124587000Y-110467607D01*
X124587000Y-110512393D01*
X124674006Y-110949800D01*
X124921777Y-111320616D01*
X125292593Y-111568387D01*
X125730000Y-111655393D01*
X126167407Y-111568387D01*
X126538223Y-111320616D01*
X126785994Y-110949800D01*
X126873000Y-110512393D01*
X126873000Y-110467607D01*
X126785994Y-110030200D01*
X126538223Y-109659384D01*
X126411035Y-109574400D01*
X127588965Y-109574400D01*
X127461777Y-109659384D01*
X127214006Y-110030200D01*
X127127000Y-110467607D01*
X127127000Y-110512393D01*
X127214006Y-110949800D01*
X127461777Y-111320616D01*
X127832593Y-111568387D01*
X128270000Y-111655393D01*
X128707407Y-111568387D01*
X129078223Y-111320616D01*
X129325994Y-110949800D01*
X129413000Y-110512393D01*
X129413000Y-110467607D01*
X129325994Y-110030200D01*
X129078223Y-109659384D01*
X128951035Y-109574400D01*
X130128965Y-109574400D01*
X130001777Y-109659384D01*
X129754006Y-110030200D01*
X129667000Y-110467607D01*
X129667000Y-110512393D01*
X129754006Y-110949800D01*
X130001777Y-111320616D01*
X130372593Y-111568387D01*
X130810000Y-111655393D01*
X131247407Y-111568387D01*
X131618223Y-111320616D01*
X131865994Y-110949800D01*
X131953000Y-110512393D01*
X131953000Y-110467607D01*
X131865994Y-110030200D01*
X131618223Y-109659384D01*
X131491035Y-109574400D01*
X132668965Y-109574400D01*
X132541777Y-109659384D01*
X132294006Y-110030200D01*
X132207000Y-110467607D01*
X132207000Y-110512393D01*
X132294006Y-110949800D01*
X132541777Y-111320616D01*
X132912593Y-111568387D01*
X133350000Y-111655393D01*
X133787407Y-111568387D01*
X134158223Y-111320616D01*
X134405994Y-110949800D01*
X134493000Y-110512393D01*
X134493000Y-110467607D01*
X134405994Y-110030200D01*
X134158223Y-109659384D01*
X134031035Y-109574400D01*
X135208965Y-109574400D01*
X135081777Y-109659384D01*
X134834006Y-110030200D01*
X134747000Y-110467607D01*
X134747000Y-110512393D01*
X134834006Y-110949800D01*
X135081777Y-111320616D01*
X135452593Y-111568387D01*
X135890000Y-111655393D01*
X136327407Y-111568387D01*
X136698223Y-111320616D01*
X136805600Y-111159915D01*
X136805600Y-125060085D01*
X136698223Y-124899384D01*
X136327407Y-124651613D01*
X135890000Y-124564607D01*
X135452593Y-124651613D01*
X135081777Y-124899384D01*
X134834006Y-125270200D01*
X134747000Y-125707607D01*
X134747000Y-125752393D01*
X134834006Y-126189800D01*
X135081777Y-126560616D01*
X135208965Y-126645600D01*
X134031035Y-126645600D01*
X134158223Y-126560616D01*
X134405994Y-126189800D01*
X134493000Y-125752393D01*
X134493000Y-125707607D01*
X134405994Y-125270200D01*
X134158223Y-124899384D01*
X133787407Y-124651613D01*
X133350000Y-124564607D01*
X132912593Y-124651613D01*
X132541777Y-124899384D01*
X132294006Y-125270200D01*
X132207000Y-125707607D01*
X132207000Y-125752393D01*
X132294006Y-126189800D01*
X132541777Y-126560616D01*
X132668965Y-126645600D01*
X131491035Y-126645600D01*
X131618223Y-126560616D01*
X131865994Y-126189800D01*
X131953000Y-125752393D01*
X131953000Y-125707607D01*
X131865994Y-125270200D01*
X131618223Y-124899384D01*
X131247407Y-124651613D01*
X130810000Y-124564607D01*
X130372593Y-124651613D01*
X130001777Y-124899384D01*
X129754006Y-125270200D01*
X129667000Y-125707607D01*
X129667000Y-125752393D01*
X129754006Y-126189800D01*
X130001777Y-126560616D01*
X130128965Y-126645600D01*
X128951035Y-126645600D01*
X129078223Y-126560616D01*
X129325994Y-126189800D01*
X129413000Y-125752393D01*
X129413000Y-125707607D01*
X129325994Y-125270200D01*
X129078223Y-124899384D01*
X128707407Y-124651613D01*
X128270000Y-124564607D01*
X127832593Y-124651613D01*
X127461777Y-124899384D01*
X127214006Y-125270200D01*
X127127000Y-125707607D01*
X127127000Y-125752393D01*
X127214006Y-126189800D01*
X127461777Y-126560616D01*
X127588965Y-126645600D01*
X126411035Y-126645600D01*
X126538223Y-126560616D01*
X126785994Y-126189800D01*
X126873000Y-125752393D01*
X126873000Y-125707607D01*
X126785994Y-125270200D01*
X126538223Y-124899384D01*
X126167407Y-124651613D01*
X125730000Y-124564607D01*
X125292593Y-124651613D01*
X124921777Y-124899384D01*
X124674006Y-125270200D01*
X124587000Y-125707607D01*
X124587000Y-125752393D01*
X124674006Y-126189800D01*
X124921777Y-126560616D01*
X125048965Y-126645600D01*
X123871035Y-126645600D01*
X123998223Y-126560616D01*
X124245994Y-126189800D01*
X124333000Y-125752393D01*
X124333000Y-125707607D01*
X124245994Y-125270200D01*
X123998223Y-124899384D01*
X123627407Y-124651613D01*
X123190000Y-124564607D01*
X122752593Y-124651613D01*
X122381777Y-124899384D01*
X122134006Y-125270200D01*
X122047000Y-125707607D01*
X122047000Y-125752393D01*
X122134006Y-126189800D01*
X122381777Y-126560616D01*
X122508965Y-126645600D01*
X121331035Y-126645600D01*
X121458223Y-126560616D01*
X121705994Y-126189800D01*
X121793000Y-125752393D01*
X121793000Y-125707607D01*
X121705994Y-125270200D01*
X121458223Y-124899384D01*
X121087407Y-124651613D01*
X120650000Y-124564607D01*
X120212593Y-124651613D01*
X119841777Y-124899384D01*
X119594006Y-125270200D01*
X119507000Y-125707607D01*
X119507000Y-125752393D01*
X119594006Y-126189800D01*
X119841777Y-126560616D01*
X119968965Y-126645600D01*
X118791035Y-126645600D01*
X118918223Y-126560616D01*
X119165994Y-126189800D01*
X119253000Y-125752393D01*
X119253000Y-125707607D01*
X119165994Y-125270200D01*
X118918223Y-124899384D01*
X118547407Y-124651613D01*
X118110000Y-124564607D01*
X117672593Y-124651613D01*
X117301777Y-124899384D01*
X117054006Y-125270200D01*
X116967000Y-125707607D01*
X116967000Y-125752393D01*
X117054006Y-126189800D01*
X117301777Y-126560616D01*
X117428965Y-126645600D01*
X116251035Y-126645600D01*
X116378223Y-126560616D01*
X116625994Y-126189800D01*
X116713000Y-125752393D01*
X116713000Y-125707607D01*
X116625994Y-125270200D01*
X116378223Y-124899384D01*
X116007407Y-124651613D01*
X115570000Y-124564607D01*
X115132593Y-124651613D01*
X114761777Y-124899384D01*
X114514006Y-125270200D01*
X114427000Y-125707607D01*
X114427000Y-125752393D01*
X114514006Y-126189800D01*
X114761777Y-126560616D01*
X114888965Y-126645600D01*
X113711035Y-126645600D01*
X113838223Y-126560616D01*
X114085994Y-126189800D01*
X114173000Y-125752393D01*
X114173000Y-125707607D01*
X114085994Y-125270200D01*
X113838223Y-124899384D01*
X113467407Y-124651613D01*
X113030000Y-124564607D01*
X112592593Y-124651613D01*
X112221777Y-124899384D01*
X111974006Y-125270200D01*
X111887000Y-125707607D01*
X111887000Y-125752393D01*
X111974006Y-126189800D01*
X112221777Y-126560616D01*
X112348965Y-126645600D01*
X111171035Y-126645600D01*
X111298223Y-126560616D01*
X111545994Y-126189800D01*
X111633000Y-125752393D01*
X111633000Y-125707607D01*
X111545994Y-125270200D01*
X111298223Y-124899384D01*
X110927407Y-124651613D01*
X110845600Y-124635341D01*
X110845600Y-123545574D01*
X111516134Y-122875040D01*
X130931996Y-122875040D01*
X131028159Y-122971371D01*
X131224135Y-123052747D01*
X131436334Y-123052932D01*
X131632452Y-122971898D01*
X131782631Y-122821981D01*
X131864007Y-122626005D01*
X131864192Y-122413806D01*
X131783158Y-122217688D01*
X131633241Y-122067509D01*
X131437265Y-121986133D01*
X131225066Y-121985948D01*
X131028948Y-122066982D01*
X130931921Y-122163840D01*
X126431654Y-122163840D01*
X126466507Y-122079905D01*
X126466692Y-121867706D01*
X126385658Y-121671588D01*
X126235741Y-121521409D01*
X126061491Y-121449054D01*
X127167548Y-121449054D01*
X127248582Y-121645172D01*
X127398499Y-121795351D01*
X127594475Y-121876727D01*
X127806674Y-121876912D01*
X128002792Y-121795878D01*
X128099819Y-121699020D01*
X133896126Y-121699020D01*
X133919836Y-121722730D01*
X133898069Y-121744459D01*
X133816693Y-121940435D01*
X133816508Y-122152634D01*
X133897542Y-122348752D01*
X134047459Y-122498931D01*
X134243435Y-122580307D01*
X134455634Y-122580492D01*
X134651752Y-122499458D01*
X134801931Y-122349541D01*
X134883307Y-122153565D01*
X134883492Y-121941366D01*
X134802458Y-121745248D01*
X134705158Y-121647778D01*
X134678532Y-121513918D01*
X134601447Y-121398553D01*
X134294867Y-121091973D01*
X134179503Y-121014888D01*
X134043420Y-120987820D01*
X128099744Y-120987820D01*
X128003581Y-120891489D01*
X127807605Y-120810113D01*
X127595406Y-120809928D01*
X127399288Y-120890962D01*
X127249109Y-121040879D01*
X127167733Y-121236855D01*
X127167548Y-121449054D01*
X126061491Y-121449054D01*
X126039765Y-121440033D01*
X125827566Y-121439848D01*
X125631448Y-121520882D01*
X125481269Y-121670799D01*
X125399893Y-121866775D01*
X125399708Y-122078974D01*
X125434774Y-122163840D01*
X125010298Y-122163840D01*
X125041987Y-122087525D01*
X125042172Y-121875326D01*
X124961138Y-121679208D01*
X124811221Y-121529029D01*
X124615245Y-121447653D01*
X124403046Y-121447468D01*
X124206928Y-121528502D01*
X124056749Y-121678419D01*
X123975373Y-121874395D01*
X123975188Y-122086594D01*
X124007105Y-122163840D01*
X111368840Y-122163840D01*
X111232758Y-122190908D01*
X111117393Y-122267993D01*
X110238553Y-123146833D01*
X110161468Y-123262197D01*
X110161468Y-123262198D01*
X110134400Y-123398280D01*
X110134400Y-124635341D01*
X110052593Y-124651613D01*
X109681777Y-124899384D01*
X109434006Y-125270200D01*
X109347000Y-125707607D01*
X109347000Y-125752393D01*
X109434006Y-126189800D01*
X109681777Y-126560616D01*
X109808965Y-126645600D01*
X108631035Y-126645600D01*
X108758223Y-126560616D01*
X109005994Y-126189800D01*
X109093000Y-125752393D01*
X109093000Y-125707607D01*
X109005994Y-125270200D01*
X108758223Y-124899384D01*
X108483400Y-124715753D01*
X108483400Y-120967462D01*
X108615442Y-120835420D01*
X120076898Y-120835420D01*
X120209329Y-120967851D01*
X120283959Y-121042611D01*
X120479935Y-121123987D01*
X120586500Y-121124080D01*
X120586608Y-121124080D01*
X120692134Y-121124172D01*
X120692357Y-121124080D01*
X120902360Y-121124080D01*
X121106483Y-121083477D01*
X121279531Y-120967851D01*
X121491992Y-120755390D01*
X121607618Y-120582343D01*
X121648221Y-120378219D01*
X121648221Y-119157974D01*
X128879508Y-119157974D01*
X128960542Y-119354092D01*
X129110459Y-119504271D01*
X129306435Y-119585647D01*
X129518634Y-119585832D01*
X129714752Y-119504798D01*
X129864931Y-119354881D01*
X129946307Y-119158905D01*
X129946492Y-118946706D01*
X129865458Y-118750588D01*
X129715541Y-118600409D01*
X129519565Y-118519033D01*
X129307366Y-118518848D01*
X129111248Y-118599882D01*
X128961069Y-118749799D01*
X128879693Y-118945775D01*
X128879508Y-119157974D01*
X121648221Y-119157974D01*
X121648221Y-115204239D01*
X128592617Y-115204239D01*
X128845107Y-115456729D01*
X128845107Y-116381327D01*
X128845015Y-116486961D01*
X128926049Y-116683079D01*
X129075966Y-116833258D01*
X129271942Y-116914634D01*
X129378507Y-116914727D01*
X129484141Y-116914819D01*
X129680259Y-116833785D01*
X129830438Y-116683868D01*
X129911814Y-116487892D01*
X129911833Y-116465574D01*
X135486048Y-116465574D01*
X135567082Y-116661692D01*
X135716999Y-116811871D01*
X135912975Y-116893247D01*
X136125174Y-116893432D01*
X136321292Y-116812398D01*
X136471471Y-116662481D01*
X136552847Y-116466505D01*
X136553032Y-116254306D01*
X136471998Y-116058188D01*
X136322081Y-115908009D01*
X136126105Y-115826633D01*
X135913906Y-115826448D01*
X135717788Y-115907482D01*
X135567609Y-116057399D01*
X135486233Y-116253375D01*
X135486048Y-116465574D01*
X129911833Y-116465574D01*
X129911999Y-116275693D01*
X129911907Y-116275470D01*
X129911907Y-115235787D01*
X129871304Y-115031664D01*
X129755678Y-114858616D01*
X129190730Y-114293668D01*
X129017682Y-114178042D01*
X128813559Y-114137439D01*
X121579601Y-114137439D01*
X121481830Y-114039668D01*
X121407201Y-113964909D01*
X121239223Y-113895159D01*
X121239311Y-113793494D01*
X133883308Y-113793494D01*
X133964342Y-113989612D01*
X134114259Y-114139791D01*
X134310235Y-114221167D01*
X134522434Y-114221352D01*
X134718552Y-114140318D01*
X134868731Y-113990401D01*
X134950107Y-113794425D01*
X134950292Y-113582226D01*
X134869258Y-113386108D01*
X134719341Y-113235929D01*
X134523365Y-113154553D01*
X134311166Y-113154368D01*
X134115048Y-113235402D01*
X133964869Y-113385319D01*
X133883493Y-113581295D01*
X133883308Y-113793494D01*
X121239311Y-113793494D01*
X121239372Y-113724466D01*
X121158338Y-113528348D01*
X121008421Y-113378169D01*
X120812445Y-113296793D01*
X120600246Y-113296608D01*
X120404128Y-113377642D01*
X120253949Y-113527559D01*
X120172573Y-113723535D01*
X120172388Y-113935734D01*
X120253422Y-114131852D01*
X120403339Y-114282031D01*
X120571317Y-114351781D01*
X120571168Y-114522474D01*
X120571260Y-114522697D01*
X120571260Y-114776050D01*
X120581421Y-114827132D01*
X120581421Y-117204179D01*
X120560985Y-117195693D01*
X120348786Y-117195508D01*
X120152668Y-117276542D01*
X120002489Y-117426459D01*
X119921113Y-117622435D01*
X119920928Y-117834634D01*
X120001962Y-118030752D01*
X120151879Y-118180931D01*
X120347855Y-118262307D01*
X120560054Y-118262492D01*
X120581421Y-118253663D01*
X120581421Y-119862315D01*
X120501963Y-119809223D01*
X120297840Y-119768620D01*
X108483400Y-119768620D01*
X108483400Y-119206234D01*
X117065968Y-119206234D01*
X117147002Y-119402352D01*
X117296919Y-119552531D01*
X117492895Y-119633907D01*
X117705094Y-119634092D01*
X117901212Y-119553058D01*
X118051391Y-119403141D01*
X118132767Y-119207165D01*
X118132952Y-118994966D01*
X118051918Y-118798848D01*
X117902001Y-118648669D01*
X117706025Y-118567293D01*
X117493826Y-118567108D01*
X117297708Y-118648142D01*
X117147529Y-118798059D01*
X117066153Y-118994035D01*
X117065968Y-119206234D01*
X108483400Y-119206234D01*
X108483400Y-115077202D01*
X109338092Y-114222510D01*
X109412851Y-114147881D01*
X109470355Y-114009394D01*
X112224728Y-114009394D01*
X112305762Y-114205512D01*
X112455679Y-114355691D01*
X112651655Y-114437067D01*
X112863854Y-114437252D01*
X113059972Y-114356218D01*
X113156999Y-114259360D01*
X113334826Y-114259360D01*
X113721911Y-114646445D01*
X113721911Y-116859524D01*
X113748979Y-116995607D01*
X113798149Y-117069194D01*
X113798018Y-117219157D01*
X113879052Y-117415275D01*
X114028969Y-117565454D01*
X114224945Y-117646830D01*
X114437144Y-117647015D01*
X114633262Y-117565981D01*
X114783441Y-117416064D01*
X114864817Y-117220088D01*
X114865002Y-117007889D01*
X114783968Y-116811771D01*
X114634051Y-116661592D01*
X114438075Y-116580216D01*
X114433111Y-116580212D01*
X114433111Y-114499151D01*
X114406043Y-114363068D01*
X114328958Y-114247704D01*
X113733567Y-113652313D01*
X113618203Y-113575228D01*
X113482120Y-113548160D01*
X113156924Y-113548160D01*
X113060761Y-113451829D01*
X112864785Y-113370453D01*
X112652586Y-113370268D01*
X112456468Y-113451302D01*
X112306289Y-113601219D01*
X112224913Y-113797195D01*
X112224728Y-114009394D01*
X109470355Y-114009394D01*
X109494227Y-113951905D01*
X109494320Y-113845346D01*
X109494321Y-113845340D01*
X109494320Y-113845335D01*
X109494412Y-113739706D01*
X109413378Y-113543588D01*
X109263461Y-113393409D01*
X109067485Y-113312033D01*
X108960926Y-113311940D01*
X108960920Y-113311939D01*
X108960915Y-113311940D01*
X108855286Y-113311848D01*
X108659168Y-113392882D01*
X108508989Y-113542799D01*
X108508897Y-113543021D01*
X107825578Y-114226340D01*
X106156760Y-114226340D01*
X106051126Y-114226248D01*
X105855008Y-114307282D01*
X105704829Y-114457199D01*
X105623453Y-114653175D01*
X105623268Y-114865374D01*
X105704302Y-115061492D01*
X105854219Y-115211671D01*
X106050195Y-115293047D01*
X106156760Y-115293140D01*
X106156868Y-115293140D01*
X106262394Y-115293232D01*
X106262617Y-115293140D01*
X107416600Y-115293140D01*
X107416600Y-124715753D01*
X107141777Y-124899384D01*
X106894006Y-125270200D01*
X106807000Y-125707607D01*
X106807000Y-125752393D01*
X106894006Y-126189800D01*
X107141777Y-126560616D01*
X107268965Y-126645600D01*
X106065126Y-126645600D01*
X106312187Y-126431810D01*
X106512083Y-126033136D01*
X106476085Y-125857000D01*
X105537000Y-125857000D01*
X105537000Y-125877000D01*
X105283000Y-125877000D01*
X105283000Y-125857000D01*
X104343915Y-125857000D01*
X104307917Y-126033136D01*
X104507813Y-126431810D01*
X104754874Y-126645600D01*
X104008129Y-126645600D01*
X104018473Y-126593600D01*
X104018473Y-125426864D01*
X104307917Y-125426864D01*
X104343915Y-125603000D01*
X105283000Y-125603000D01*
X105283000Y-124664391D01*
X105537000Y-124664391D01*
X105537000Y-125603000D01*
X106476085Y-125603000D01*
X106512083Y-125426864D01*
X106312187Y-125028190D01*
X105974941Y-124736360D01*
X105713134Y-124627929D01*
X105537000Y-124664391D01*
X105283000Y-124664391D01*
X105106866Y-124627929D01*
X104845059Y-124736360D01*
X104507813Y-125028190D01*
X104307917Y-125426864D01*
X104018473Y-125426864D01*
X104018473Y-124866400D01*
X103996788Y-124757384D01*
X103935036Y-124664964D01*
X103842616Y-124603212D01*
X103733600Y-124581527D01*
X102006400Y-124581527D01*
X101954400Y-124591871D01*
X101954400Y-119668514D01*
X105610568Y-119668514D01*
X105691602Y-119864632D01*
X105841519Y-120014811D01*
X106037495Y-120096187D01*
X106249694Y-120096372D01*
X106445812Y-120015338D01*
X106595991Y-119865421D01*
X106677367Y-119669445D01*
X106677552Y-119457246D01*
X106596518Y-119261128D01*
X106446601Y-119110949D01*
X106250625Y-119029573D01*
X106038426Y-119029388D01*
X105842308Y-119110422D01*
X105692129Y-119260339D01*
X105610753Y-119456315D01*
X105610568Y-119668514D01*
X101954400Y-119668514D01*
X101954400Y-111633000D01*
X102673150Y-111633000D01*
X102743000Y-111563150D01*
X102743000Y-110617000D01*
X102997000Y-110617000D01*
X102997000Y-111563150D01*
X103066850Y-111633000D01*
X103789176Y-111633000D01*
X103891867Y-111590464D01*
X103970464Y-111511867D01*
X104013000Y-111409176D01*
X104013000Y-110686850D01*
X103943150Y-110617000D01*
X102997000Y-110617000D01*
X102743000Y-110617000D01*
X102723000Y-110617000D01*
X102723000Y-110363000D01*
X102743000Y-110363000D01*
X102743000Y-110343000D01*
X102997000Y-110343000D01*
X102997000Y-110363000D01*
X103943150Y-110363000D01*
X104013000Y-110293150D01*
X104013000Y-109574400D01*
X104728965Y-109574400D01*
X104601777Y-109659384D01*
M02*
