G04 #@! TF.GenerationSoftware,KiCad,Pcbnew,(5.1.0-43-gfdfe5ea)*
G04 #@! TF.CreationDate,2019-03-25T11:45:27-07:00*
G04 #@! TF.ProjectId,lofive,6c6f6669-7665-42e6-9b69-6361645f7063,0*
G04 #@! TF.SameCoordinates,Original*
G04 #@! TF.FileFunction,Copper,L3,Inr*
G04 #@! TF.FilePolarity,Positive*
%FSLAX46Y46*%
G04 Gerber Fmt 4.6, Leading zero omitted, Abs format (unit mm)*
G04 Created by KiCad (PCBNEW (5.1.0-43-gfdfe5ea)) date 2019-03-25 11:45:27*
%MOMM*%
%LPD*%
G04 APERTURE LIST*
%ADD10O,1.700000X1.700000*%
%ADD11R,1.700000X1.700000*%
%ADD12C,0.100000*%
%ADD13C,1.700000*%
%ADD14C,0.850000*%
%ADD15C,0.508000*%
%ADD16C,0.254000*%
G04 APERTURE END LIST*
D10*
X135890000Y-110490000D03*
X133350000Y-110490000D03*
X130810000Y-110490000D03*
X128270000Y-110490000D03*
X125730000Y-110490000D03*
X123190000Y-110490000D03*
X120650000Y-110490000D03*
X118110000Y-110490000D03*
X115570000Y-110490000D03*
X113030000Y-110490000D03*
X110490000Y-110490000D03*
X107950000Y-110490000D03*
X105410000Y-110490000D03*
D11*
X102870000Y-110490000D03*
D12*
G36*
X118576657Y-108372046D02*
G01*
X118617913Y-108378166D01*
X118658371Y-108388300D01*
X118697640Y-108402351D01*
X118735344Y-108420183D01*
X118771117Y-108441625D01*
X118804617Y-108466471D01*
X118835520Y-108494480D01*
X118863529Y-108525383D01*
X118888375Y-108558883D01*
X118909817Y-108594656D01*
X118927649Y-108632360D01*
X118941700Y-108671629D01*
X118951834Y-108712087D01*
X118957954Y-108753343D01*
X118960000Y-108795000D01*
X118960000Y-109645000D01*
X118957954Y-109686657D01*
X118951834Y-109727913D01*
X118941700Y-109768371D01*
X118927649Y-109807640D01*
X118909817Y-109845344D01*
X118888375Y-109881117D01*
X118863529Y-109914617D01*
X118835520Y-109945520D01*
X118804617Y-109973529D01*
X118771117Y-109998375D01*
X118735344Y-110019817D01*
X118697640Y-110037649D01*
X118658371Y-110051700D01*
X118617913Y-110061834D01*
X118576657Y-110067954D01*
X118535000Y-110070000D01*
X117685000Y-110070000D01*
X117643343Y-110067954D01*
X117602087Y-110061834D01*
X117561629Y-110051700D01*
X117522360Y-110037649D01*
X117484656Y-110019817D01*
X117448883Y-109998375D01*
X117415383Y-109973529D01*
X117384480Y-109945520D01*
X117356471Y-109914617D01*
X117331625Y-109881117D01*
X117310183Y-109845344D01*
X117292351Y-109807640D01*
X117278300Y-109768371D01*
X117268166Y-109727913D01*
X117262046Y-109686657D01*
X117260000Y-109645000D01*
X117260000Y-108795000D01*
X117262046Y-108753343D01*
X117268166Y-108712087D01*
X117278300Y-108671629D01*
X117292351Y-108632360D01*
X117310183Y-108594656D01*
X117331625Y-108558883D01*
X117356471Y-108525383D01*
X117384480Y-108494480D01*
X117415383Y-108466471D01*
X117448883Y-108441625D01*
X117484656Y-108420183D01*
X117522360Y-108402351D01*
X117561629Y-108388300D01*
X117602087Y-108378166D01*
X117643343Y-108372046D01*
X117685000Y-108370000D01*
X118535000Y-108370000D01*
X118576657Y-108372046D01*
X118576657Y-108372046D01*
G37*
D13*
X118110000Y-109220000D03*
D12*
G36*
X131276657Y-108372046D02*
G01*
X131317913Y-108378166D01*
X131358371Y-108388300D01*
X131397640Y-108402351D01*
X131435344Y-108420183D01*
X131471117Y-108441625D01*
X131504617Y-108466471D01*
X131535520Y-108494480D01*
X131563529Y-108525383D01*
X131588375Y-108558883D01*
X131609817Y-108594656D01*
X131627649Y-108632360D01*
X131641700Y-108671629D01*
X131651834Y-108712087D01*
X131657954Y-108753343D01*
X131660000Y-108795000D01*
X131660000Y-109645000D01*
X131657954Y-109686657D01*
X131651834Y-109727913D01*
X131641700Y-109768371D01*
X131627649Y-109807640D01*
X131609817Y-109845344D01*
X131588375Y-109881117D01*
X131563529Y-109914617D01*
X131535520Y-109945520D01*
X131504617Y-109973529D01*
X131471117Y-109998375D01*
X131435344Y-110019817D01*
X131397640Y-110037649D01*
X131358371Y-110051700D01*
X131317913Y-110061834D01*
X131276657Y-110067954D01*
X131235000Y-110070000D01*
X130385000Y-110070000D01*
X130343343Y-110067954D01*
X130302087Y-110061834D01*
X130261629Y-110051700D01*
X130222360Y-110037649D01*
X130184656Y-110019817D01*
X130148883Y-109998375D01*
X130115383Y-109973529D01*
X130084480Y-109945520D01*
X130056471Y-109914617D01*
X130031625Y-109881117D01*
X130010183Y-109845344D01*
X129992351Y-109807640D01*
X129978300Y-109768371D01*
X129968166Y-109727913D01*
X129962046Y-109686657D01*
X129960000Y-109645000D01*
X129960000Y-108795000D01*
X129962046Y-108753343D01*
X129968166Y-108712087D01*
X129978300Y-108671629D01*
X129992351Y-108632360D01*
X130010183Y-108594656D01*
X130031625Y-108558883D01*
X130056471Y-108525383D01*
X130084480Y-108494480D01*
X130115383Y-108466471D01*
X130148883Y-108441625D01*
X130184656Y-108420183D01*
X130222360Y-108402351D01*
X130261629Y-108388300D01*
X130302087Y-108378166D01*
X130343343Y-108372046D01*
X130385000Y-108370000D01*
X131235000Y-108370000D01*
X131276657Y-108372046D01*
X131276657Y-108372046D01*
G37*
D13*
X130810000Y-109220000D03*
D12*
G36*
X116036657Y-108372046D02*
G01*
X116077913Y-108378166D01*
X116118371Y-108388300D01*
X116157640Y-108402351D01*
X116195344Y-108420183D01*
X116231117Y-108441625D01*
X116264617Y-108466471D01*
X116295520Y-108494480D01*
X116323529Y-108525383D01*
X116348375Y-108558883D01*
X116369817Y-108594656D01*
X116387649Y-108632360D01*
X116401700Y-108671629D01*
X116411834Y-108712087D01*
X116417954Y-108753343D01*
X116420000Y-108795000D01*
X116420000Y-109645000D01*
X116417954Y-109686657D01*
X116411834Y-109727913D01*
X116401700Y-109768371D01*
X116387649Y-109807640D01*
X116369817Y-109845344D01*
X116348375Y-109881117D01*
X116323529Y-109914617D01*
X116295520Y-109945520D01*
X116264617Y-109973529D01*
X116231117Y-109998375D01*
X116195344Y-110019817D01*
X116157640Y-110037649D01*
X116118371Y-110051700D01*
X116077913Y-110061834D01*
X116036657Y-110067954D01*
X115995000Y-110070000D01*
X115145000Y-110070000D01*
X115103343Y-110067954D01*
X115062087Y-110061834D01*
X115021629Y-110051700D01*
X114982360Y-110037649D01*
X114944656Y-110019817D01*
X114908883Y-109998375D01*
X114875383Y-109973529D01*
X114844480Y-109945520D01*
X114816471Y-109914617D01*
X114791625Y-109881117D01*
X114770183Y-109845344D01*
X114752351Y-109807640D01*
X114738300Y-109768371D01*
X114728166Y-109727913D01*
X114722046Y-109686657D01*
X114720000Y-109645000D01*
X114720000Y-108795000D01*
X114722046Y-108753343D01*
X114728166Y-108712087D01*
X114738300Y-108671629D01*
X114752351Y-108632360D01*
X114770183Y-108594656D01*
X114791625Y-108558883D01*
X114816471Y-108525383D01*
X114844480Y-108494480D01*
X114875383Y-108466471D01*
X114908883Y-108441625D01*
X114944656Y-108420183D01*
X114982360Y-108402351D01*
X115021629Y-108388300D01*
X115062087Y-108378166D01*
X115103343Y-108372046D01*
X115145000Y-108370000D01*
X115995000Y-108370000D01*
X116036657Y-108372046D01*
X116036657Y-108372046D01*
G37*
D13*
X115570000Y-109220000D03*
D12*
G36*
X103336657Y-108372046D02*
G01*
X103377913Y-108378166D01*
X103418371Y-108388300D01*
X103457640Y-108402351D01*
X103495344Y-108420183D01*
X103531117Y-108441625D01*
X103564617Y-108466471D01*
X103595520Y-108494480D01*
X103623529Y-108525383D01*
X103648375Y-108558883D01*
X103669817Y-108594656D01*
X103687649Y-108632360D01*
X103701700Y-108671629D01*
X103711834Y-108712087D01*
X103717954Y-108753343D01*
X103720000Y-108795000D01*
X103720000Y-109645000D01*
X103717954Y-109686657D01*
X103711834Y-109727913D01*
X103701700Y-109768371D01*
X103687649Y-109807640D01*
X103669817Y-109845344D01*
X103648375Y-109881117D01*
X103623529Y-109914617D01*
X103595520Y-109945520D01*
X103564617Y-109973529D01*
X103531117Y-109998375D01*
X103495344Y-110019817D01*
X103457640Y-110037649D01*
X103418371Y-110051700D01*
X103377913Y-110061834D01*
X103336657Y-110067954D01*
X103295000Y-110070000D01*
X102445000Y-110070000D01*
X102403343Y-110067954D01*
X102362087Y-110061834D01*
X102321629Y-110051700D01*
X102282360Y-110037649D01*
X102244656Y-110019817D01*
X102208883Y-109998375D01*
X102175383Y-109973529D01*
X102144480Y-109945520D01*
X102116471Y-109914617D01*
X102091625Y-109881117D01*
X102070183Y-109845344D01*
X102052351Y-109807640D01*
X102038300Y-109768371D01*
X102028166Y-109727913D01*
X102022046Y-109686657D01*
X102020000Y-109645000D01*
X102020000Y-108795000D01*
X102022046Y-108753343D01*
X102028166Y-108712087D01*
X102038300Y-108671629D01*
X102052351Y-108632360D01*
X102070183Y-108594656D01*
X102091625Y-108558883D01*
X102116471Y-108525383D01*
X102144480Y-108494480D01*
X102175383Y-108466471D01*
X102208883Y-108441625D01*
X102244656Y-108420183D01*
X102282360Y-108402351D01*
X102321629Y-108388300D01*
X102362087Y-108378166D01*
X102403343Y-108372046D01*
X102445000Y-108370000D01*
X103295000Y-108370000D01*
X103336657Y-108372046D01*
X103336657Y-108372046D01*
G37*
D13*
X102870000Y-109220000D03*
D12*
G36*
X113496657Y-108372046D02*
G01*
X113537913Y-108378166D01*
X113578371Y-108388300D01*
X113617640Y-108402351D01*
X113655344Y-108420183D01*
X113691117Y-108441625D01*
X113724617Y-108466471D01*
X113755520Y-108494480D01*
X113783529Y-108525383D01*
X113808375Y-108558883D01*
X113829817Y-108594656D01*
X113847649Y-108632360D01*
X113861700Y-108671629D01*
X113871834Y-108712087D01*
X113877954Y-108753343D01*
X113880000Y-108795000D01*
X113880000Y-109645000D01*
X113877954Y-109686657D01*
X113871834Y-109727913D01*
X113861700Y-109768371D01*
X113847649Y-109807640D01*
X113829817Y-109845344D01*
X113808375Y-109881117D01*
X113783529Y-109914617D01*
X113755520Y-109945520D01*
X113724617Y-109973529D01*
X113691117Y-109998375D01*
X113655344Y-110019817D01*
X113617640Y-110037649D01*
X113578371Y-110051700D01*
X113537913Y-110061834D01*
X113496657Y-110067954D01*
X113455000Y-110070000D01*
X112605000Y-110070000D01*
X112563343Y-110067954D01*
X112522087Y-110061834D01*
X112481629Y-110051700D01*
X112442360Y-110037649D01*
X112404656Y-110019817D01*
X112368883Y-109998375D01*
X112335383Y-109973529D01*
X112304480Y-109945520D01*
X112276471Y-109914617D01*
X112251625Y-109881117D01*
X112230183Y-109845344D01*
X112212351Y-109807640D01*
X112198300Y-109768371D01*
X112188166Y-109727913D01*
X112182046Y-109686657D01*
X112180000Y-109645000D01*
X112180000Y-108795000D01*
X112182046Y-108753343D01*
X112188166Y-108712087D01*
X112198300Y-108671629D01*
X112212351Y-108632360D01*
X112230183Y-108594656D01*
X112251625Y-108558883D01*
X112276471Y-108525383D01*
X112304480Y-108494480D01*
X112335383Y-108466471D01*
X112368883Y-108441625D01*
X112404656Y-108420183D01*
X112442360Y-108402351D01*
X112481629Y-108388300D01*
X112522087Y-108378166D01*
X112563343Y-108372046D01*
X112605000Y-108370000D01*
X113455000Y-108370000D01*
X113496657Y-108372046D01*
X113496657Y-108372046D01*
G37*
D13*
X113030000Y-109220000D03*
D12*
G36*
X123656657Y-108372046D02*
G01*
X123697913Y-108378166D01*
X123738371Y-108388300D01*
X123777640Y-108402351D01*
X123815344Y-108420183D01*
X123851117Y-108441625D01*
X123884617Y-108466471D01*
X123915520Y-108494480D01*
X123943529Y-108525383D01*
X123968375Y-108558883D01*
X123989817Y-108594656D01*
X124007649Y-108632360D01*
X124021700Y-108671629D01*
X124031834Y-108712087D01*
X124037954Y-108753343D01*
X124040000Y-108795000D01*
X124040000Y-109645000D01*
X124037954Y-109686657D01*
X124031834Y-109727913D01*
X124021700Y-109768371D01*
X124007649Y-109807640D01*
X123989817Y-109845344D01*
X123968375Y-109881117D01*
X123943529Y-109914617D01*
X123915520Y-109945520D01*
X123884617Y-109973529D01*
X123851117Y-109998375D01*
X123815344Y-110019817D01*
X123777640Y-110037649D01*
X123738371Y-110051700D01*
X123697913Y-110061834D01*
X123656657Y-110067954D01*
X123615000Y-110070000D01*
X122765000Y-110070000D01*
X122723343Y-110067954D01*
X122682087Y-110061834D01*
X122641629Y-110051700D01*
X122602360Y-110037649D01*
X122564656Y-110019817D01*
X122528883Y-109998375D01*
X122495383Y-109973529D01*
X122464480Y-109945520D01*
X122436471Y-109914617D01*
X122411625Y-109881117D01*
X122390183Y-109845344D01*
X122372351Y-109807640D01*
X122358300Y-109768371D01*
X122348166Y-109727913D01*
X122342046Y-109686657D01*
X122340000Y-109645000D01*
X122340000Y-108795000D01*
X122342046Y-108753343D01*
X122348166Y-108712087D01*
X122358300Y-108671629D01*
X122372351Y-108632360D01*
X122390183Y-108594656D01*
X122411625Y-108558883D01*
X122436471Y-108525383D01*
X122464480Y-108494480D01*
X122495383Y-108466471D01*
X122528883Y-108441625D01*
X122564656Y-108420183D01*
X122602360Y-108402351D01*
X122641629Y-108388300D01*
X122682087Y-108378166D01*
X122723343Y-108372046D01*
X122765000Y-108370000D01*
X123615000Y-108370000D01*
X123656657Y-108372046D01*
X123656657Y-108372046D01*
G37*
D13*
X123190000Y-109220000D03*
D12*
G36*
X128736657Y-108372046D02*
G01*
X128777913Y-108378166D01*
X128818371Y-108388300D01*
X128857640Y-108402351D01*
X128895344Y-108420183D01*
X128931117Y-108441625D01*
X128964617Y-108466471D01*
X128995520Y-108494480D01*
X129023529Y-108525383D01*
X129048375Y-108558883D01*
X129069817Y-108594656D01*
X129087649Y-108632360D01*
X129101700Y-108671629D01*
X129111834Y-108712087D01*
X129117954Y-108753343D01*
X129120000Y-108795000D01*
X129120000Y-109645000D01*
X129117954Y-109686657D01*
X129111834Y-109727913D01*
X129101700Y-109768371D01*
X129087649Y-109807640D01*
X129069817Y-109845344D01*
X129048375Y-109881117D01*
X129023529Y-109914617D01*
X128995520Y-109945520D01*
X128964617Y-109973529D01*
X128931117Y-109998375D01*
X128895344Y-110019817D01*
X128857640Y-110037649D01*
X128818371Y-110051700D01*
X128777913Y-110061834D01*
X128736657Y-110067954D01*
X128695000Y-110070000D01*
X127845000Y-110070000D01*
X127803343Y-110067954D01*
X127762087Y-110061834D01*
X127721629Y-110051700D01*
X127682360Y-110037649D01*
X127644656Y-110019817D01*
X127608883Y-109998375D01*
X127575383Y-109973529D01*
X127544480Y-109945520D01*
X127516471Y-109914617D01*
X127491625Y-109881117D01*
X127470183Y-109845344D01*
X127452351Y-109807640D01*
X127438300Y-109768371D01*
X127428166Y-109727913D01*
X127422046Y-109686657D01*
X127420000Y-109645000D01*
X127420000Y-108795000D01*
X127422046Y-108753343D01*
X127428166Y-108712087D01*
X127438300Y-108671629D01*
X127452351Y-108632360D01*
X127470183Y-108594656D01*
X127491625Y-108558883D01*
X127516471Y-108525383D01*
X127544480Y-108494480D01*
X127575383Y-108466471D01*
X127608883Y-108441625D01*
X127644656Y-108420183D01*
X127682360Y-108402351D01*
X127721629Y-108388300D01*
X127762087Y-108378166D01*
X127803343Y-108372046D01*
X127845000Y-108370000D01*
X128695000Y-108370000D01*
X128736657Y-108372046D01*
X128736657Y-108372046D01*
G37*
D13*
X128270000Y-109220000D03*
D12*
G36*
X121116657Y-108372046D02*
G01*
X121157913Y-108378166D01*
X121198371Y-108388300D01*
X121237640Y-108402351D01*
X121275344Y-108420183D01*
X121311117Y-108441625D01*
X121344617Y-108466471D01*
X121375520Y-108494480D01*
X121403529Y-108525383D01*
X121428375Y-108558883D01*
X121449817Y-108594656D01*
X121467649Y-108632360D01*
X121481700Y-108671629D01*
X121491834Y-108712087D01*
X121497954Y-108753343D01*
X121500000Y-108795000D01*
X121500000Y-109645000D01*
X121497954Y-109686657D01*
X121491834Y-109727913D01*
X121481700Y-109768371D01*
X121467649Y-109807640D01*
X121449817Y-109845344D01*
X121428375Y-109881117D01*
X121403529Y-109914617D01*
X121375520Y-109945520D01*
X121344617Y-109973529D01*
X121311117Y-109998375D01*
X121275344Y-110019817D01*
X121237640Y-110037649D01*
X121198371Y-110051700D01*
X121157913Y-110061834D01*
X121116657Y-110067954D01*
X121075000Y-110070000D01*
X120225000Y-110070000D01*
X120183343Y-110067954D01*
X120142087Y-110061834D01*
X120101629Y-110051700D01*
X120062360Y-110037649D01*
X120024656Y-110019817D01*
X119988883Y-109998375D01*
X119955383Y-109973529D01*
X119924480Y-109945520D01*
X119896471Y-109914617D01*
X119871625Y-109881117D01*
X119850183Y-109845344D01*
X119832351Y-109807640D01*
X119818300Y-109768371D01*
X119808166Y-109727913D01*
X119802046Y-109686657D01*
X119800000Y-109645000D01*
X119800000Y-108795000D01*
X119802046Y-108753343D01*
X119808166Y-108712087D01*
X119818300Y-108671629D01*
X119832351Y-108632360D01*
X119850183Y-108594656D01*
X119871625Y-108558883D01*
X119896471Y-108525383D01*
X119924480Y-108494480D01*
X119955383Y-108466471D01*
X119988883Y-108441625D01*
X120024656Y-108420183D01*
X120062360Y-108402351D01*
X120101629Y-108388300D01*
X120142087Y-108378166D01*
X120183343Y-108372046D01*
X120225000Y-108370000D01*
X121075000Y-108370000D01*
X121116657Y-108372046D01*
X121116657Y-108372046D01*
G37*
D13*
X120650000Y-109220000D03*
D12*
G36*
X136356657Y-108372046D02*
G01*
X136397913Y-108378166D01*
X136438371Y-108388300D01*
X136477640Y-108402351D01*
X136515344Y-108420183D01*
X136551117Y-108441625D01*
X136584617Y-108466471D01*
X136615520Y-108494480D01*
X136643529Y-108525383D01*
X136668375Y-108558883D01*
X136689817Y-108594656D01*
X136707649Y-108632360D01*
X136721700Y-108671629D01*
X136731834Y-108712087D01*
X136737954Y-108753343D01*
X136740000Y-108795000D01*
X136740000Y-109645000D01*
X136737954Y-109686657D01*
X136731834Y-109727913D01*
X136721700Y-109768371D01*
X136707649Y-109807640D01*
X136689817Y-109845344D01*
X136668375Y-109881117D01*
X136643529Y-109914617D01*
X136615520Y-109945520D01*
X136584617Y-109973529D01*
X136551117Y-109998375D01*
X136515344Y-110019817D01*
X136477640Y-110037649D01*
X136438371Y-110051700D01*
X136397913Y-110061834D01*
X136356657Y-110067954D01*
X136315000Y-110070000D01*
X135465000Y-110070000D01*
X135423343Y-110067954D01*
X135382087Y-110061834D01*
X135341629Y-110051700D01*
X135302360Y-110037649D01*
X135264656Y-110019817D01*
X135228883Y-109998375D01*
X135195383Y-109973529D01*
X135164480Y-109945520D01*
X135136471Y-109914617D01*
X135111625Y-109881117D01*
X135090183Y-109845344D01*
X135072351Y-109807640D01*
X135058300Y-109768371D01*
X135048166Y-109727913D01*
X135042046Y-109686657D01*
X135040000Y-109645000D01*
X135040000Y-108795000D01*
X135042046Y-108753343D01*
X135048166Y-108712087D01*
X135058300Y-108671629D01*
X135072351Y-108632360D01*
X135090183Y-108594656D01*
X135111625Y-108558883D01*
X135136471Y-108525383D01*
X135164480Y-108494480D01*
X135195383Y-108466471D01*
X135228883Y-108441625D01*
X135264656Y-108420183D01*
X135302360Y-108402351D01*
X135341629Y-108388300D01*
X135382087Y-108378166D01*
X135423343Y-108372046D01*
X135465000Y-108370000D01*
X136315000Y-108370000D01*
X136356657Y-108372046D01*
X136356657Y-108372046D01*
G37*
D13*
X135890000Y-109220000D03*
D12*
G36*
X110956657Y-108372046D02*
G01*
X110997913Y-108378166D01*
X111038371Y-108388300D01*
X111077640Y-108402351D01*
X111115344Y-108420183D01*
X111151117Y-108441625D01*
X111184617Y-108466471D01*
X111215520Y-108494480D01*
X111243529Y-108525383D01*
X111268375Y-108558883D01*
X111289817Y-108594656D01*
X111307649Y-108632360D01*
X111321700Y-108671629D01*
X111331834Y-108712087D01*
X111337954Y-108753343D01*
X111340000Y-108795000D01*
X111340000Y-109645000D01*
X111337954Y-109686657D01*
X111331834Y-109727913D01*
X111321700Y-109768371D01*
X111307649Y-109807640D01*
X111289817Y-109845344D01*
X111268375Y-109881117D01*
X111243529Y-109914617D01*
X111215520Y-109945520D01*
X111184617Y-109973529D01*
X111151117Y-109998375D01*
X111115344Y-110019817D01*
X111077640Y-110037649D01*
X111038371Y-110051700D01*
X110997913Y-110061834D01*
X110956657Y-110067954D01*
X110915000Y-110070000D01*
X110065000Y-110070000D01*
X110023343Y-110067954D01*
X109982087Y-110061834D01*
X109941629Y-110051700D01*
X109902360Y-110037649D01*
X109864656Y-110019817D01*
X109828883Y-109998375D01*
X109795383Y-109973529D01*
X109764480Y-109945520D01*
X109736471Y-109914617D01*
X109711625Y-109881117D01*
X109690183Y-109845344D01*
X109672351Y-109807640D01*
X109658300Y-109768371D01*
X109648166Y-109727913D01*
X109642046Y-109686657D01*
X109640000Y-109645000D01*
X109640000Y-108795000D01*
X109642046Y-108753343D01*
X109648166Y-108712087D01*
X109658300Y-108671629D01*
X109672351Y-108632360D01*
X109690183Y-108594656D01*
X109711625Y-108558883D01*
X109736471Y-108525383D01*
X109764480Y-108494480D01*
X109795383Y-108466471D01*
X109828883Y-108441625D01*
X109864656Y-108420183D01*
X109902360Y-108402351D01*
X109941629Y-108388300D01*
X109982087Y-108378166D01*
X110023343Y-108372046D01*
X110065000Y-108370000D01*
X110915000Y-108370000D01*
X110956657Y-108372046D01*
X110956657Y-108372046D01*
G37*
D13*
X110490000Y-109220000D03*
D12*
G36*
X105876657Y-108372046D02*
G01*
X105917913Y-108378166D01*
X105958371Y-108388300D01*
X105997640Y-108402351D01*
X106035344Y-108420183D01*
X106071117Y-108441625D01*
X106104617Y-108466471D01*
X106135520Y-108494480D01*
X106163529Y-108525383D01*
X106188375Y-108558883D01*
X106209817Y-108594656D01*
X106227649Y-108632360D01*
X106241700Y-108671629D01*
X106251834Y-108712087D01*
X106257954Y-108753343D01*
X106260000Y-108795000D01*
X106260000Y-109645000D01*
X106257954Y-109686657D01*
X106251834Y-109727913D01*
X106241700Y-109768371D01*
X106227649Y-109807640D01*
X106209817Y-109845344D01*
X106188375Y-109881117D01*
X106163529Y-109914617D01*
X106135520Y-109945520D01*
X106104617Y-109973529D01*
X106071117Y-109998375D01*
X106035344Y-110019817D01*
X105997640Y-110037649D01*
X105958371Y-110051700D01*
X105917913Y-110061834D01*
X105876657Y-110067954D01*
X105835000Y-110070000D01*
X104985000Y-110070000D01*
X104943343Y-110067954D01*
X104902087Y-110061834D01*
X104861629Y-110051700D01*
X104822360Y-110037649D01*
X104784656Y-110019817D01*
X104748883Y-109998375D01*
X104715383Y-109973529D01*
X104684480Y-109945520D01*
X104656471Y-109914617D01*
X104631625Y-109881117D01*
X104610183Y-109845344D01*
X104592351Y-109807640D01*
X104578300Y-109768371D01*
X104568166Y-109727913D01*
X104562046Y-109686657D01*
X104560000Y-109645000D01*
X104560000Y-108795000D01*
X104562046Y-108753343D01*
X104568166Y-108712087D01*
X104578300Y-108671629D01*
X104592351Y-108632360D01*
X104610183Y-108594656D01*
X104631625Y-108558883D01*
X104656471Y-108525383D01*
X104684480Y-108494480D01*
X104715383Y-108466471D01*
X104748883Y-108441625D01*
X104784656Y-108420183D01*
X104822360Y-108402351D01*
X104861629Y-108388300D01*
X104902087Y-108378166D01*
X104943343Y-108372046D01*
X104985000Y-108370000D01*
X105835000Y-108370000D01*
X105876657Y-108372046D01*
X105876657Y-108372046D01*
G37*
D13*
X105410000Y-109220000D03*
D12*
G36*
X108416657Y-108372046D02*
G01*
X108457913Y-108378166D01*
X108498371Y-108388300D01*
X108537640Y-108402351D01*
X108575344Y-108420183D01*
X108611117Y-108441625D01*
X108644617Y-108466471D01*
X108675520Y-108494480D01*
X108703529Y-108525383D01*
X108728375Y-108558883D01*
X108749817Y-108594656D01*
X108767649Y-108632360D01*
X108781700Y-108671629D01*
X108791834Y-108712087D01*
X108797954Y-108753343D01*
X108800000Y-108795000D01*
X108800000Y-109645000D01*
X108797954Y-109686657D01*
X108791834Y-109727913D01*
X108781700Y-109768371D01*
X108767649Y-109807640D01*
X108749817Y-109845344D01*
X108728375Y-109881117D01*
X108703529Y-109914617D01*
X108675520Y-109945520D01*
X108644617Y-109973529D01*
X108611117Y-109998375D01*
X108575344Y-110019817D01*
X108537640Y-110037649D01*
X108498371Y-110051700D01*
X108457913Y-110061834D01*
X108416657Y-110067954D01*
X108375000Y-110070000D01*
X107525000Y-110070000D01*
X107483343Y-110067954D01*
X107442087Y-110061834D01*
X107401629Y-110051700D01*
X107362360Y-110037649D01*
X107324656Y-110019817D01*
X107288883Y-109998375D01*
X107255383Y-109973529D01*
X107224480Y-109945520D01*
X107196471Y-109914617D01*
X107171625Y-109881117D01*
X107150183Y-109845344D01*
X107132351Y-109807640D01*
X107118300Y-109768371D01*
X107108166Y-109727913D01*
X107102046Y-109686657D01*
X107100000Y-109645000D01*
X107100000Y-108795000D01*
X107102046Y-108753343D01*
X107108166Y-108712087D01*
X107118300Y-108671629D01*
X107132351Y-108632360D01*
X107150183Y-108594656D01*
X107171625Y-108558883D01*
X107196471Y-108525383D01*
X107224480Y-108494480D01*
X107255383Y-108466471D01*
X107288883Y-108441625D01*
X107324656Y-108420183D01*
X107362360Y-108402351D01*
X107401629Y-108388300D01*
X107442087Y-108378166D01*
X107483343Y-108372046D01*
X107525000Y-108370000D01*
X108375000Y-108370000D01*
X108416657Y-108372046D01*
X108416657Y-108372046D01*
G37*
D13*
X107950000Y-109220000D03*
D12*
G36*
X126196657Y-108372046D02*
G01*
X126237913Y-108378166D01*
X126278371Y-108388300D01*
X126317640Y-108402351D01*
X126355344Y-108420183D01*
X126391117Y-108441625D01*
X126424617Y-108466471D01*
X126455520Y-108494480D01*
X126483529Y-108525383D01*
X126508375Y-108558883D01*
X126529817Y-108594656D01*
X126547649Y-108632360D01*
X126561700Y-108671629D01*
X126571834Y-108712087D01*
X126577954Y-108753343D01*
X126580000Y-108795000D01*
X126580000Y-109645000D01*
X126577954Y-109686657D01*
X126571834Y-109727913D01*
X126561700Y-109768371D01*
X126547649Y-109807640D01*
X126529817Y-109845344D01*
X126508375Y-109881117D01*
X126483529Y-109914617D01*
X126455520Y-109945520D01*
X126424617Y-109973529D01*
X126391117Y-109998375D01*
X126355344Y-110019817D01*
X126317640Y-110037649D01*
X126278371Y-110051700D01*
X126237913Y-110061834D01*
X126196657Y-110067954D01*
X126155000Y-110070000D01*
X125305000Y-110070000D01*
X125263343Y-110067954D01*
X125222087Y-110061834D01*
X125181629Y-110051700D01*
X125142360Y-110037649D01*
X125104656Y-110019817D01*
X125068883Y-109998375D01*
X125035383Y-109973529D01*
X125004480Y-109945520D01*
X124976471Y-109914617D01*
X124951625Y-109881117D01*
X124930183Y-109845344D01*
X124912351Y-109807640D01*
X124898300Y-109768371D01*
X124888166Y-109727913D01*
X124882046Y-109686657D01*
X124880000Y-109645000D01*
X124880000Y-108795000D01*
X124882046Y-108753343D01*
X124888166Y-108712087D01*
X124898300Y-108671629D01*
X124912351Y-108632360D01*
X124930183Y-108594656D01*
X124951625Y-108558883D01*
X124976471Y-108525383D01*
X125004480Y-108494480D01*
X125035383Y-108466471D01*
X125068883Y-108441625D01*
X125104656Y-108420183D01*
X125142360Y-108402351D01*
X125181629Y-108388300D01*
X125222087Y-108378166D01*
X125263343Y-108372046D01*
X125305000Y-108370000D01*
X126155000Y-108370000D01*
X126196657Y-108372046D01*
X126196657Y-108372046D01*
G37*
D13*
X125730000Y-109220000D03*
D12*
G36*
X133816657Y-108372046D02*
G01*
X133857913Y-108378166D01*
X133898371Y-108388300D01*
X133937640Y-108402351D01*
X133975344Y-108420183D01*
X134011117Y-108441625D01*
X134044617Y-108466471D01*
X134075520Y-108494480D01*
X134103529Y-108525383D01*
X134128375Y-108558883D01*
X134149817Y-108594656D01*
X134167649Y-108632360D01*
X134181700Y-108671629D01*
X134191834Y-108712087D01*
X134197954Y-108753343D01*
X134200000Y-108795000D01*
X134200000Y-109645000D01*
X134197954Y-109686657D01*
X134191834Y-109727913D01*
X134181700Y-109768371D01*
X134167649Y-109807640D01*
X134149817Y-109845344D01*
X134128375Y-109881117D01*
X134103529Y-109914617D01*
X134075520Y-109945520D01*
X134044617Y-109973529D01*
X134011117Y-109998375D01*
X133975344Y-110019817D01*
X133937640Y-110037649D01*
X133898371Y-110051700D01*
X133857913Y-110061834D01*
X133816657Y-110067954D01*
X133775000Y-110070000D01*
X132925000Y-110070000D01*
X132883343Y-110067954D01*
X132842087Y-110061834D01*
X132801629Y-110051700D01*
X132762360Y-110037649D01*
X132724656Y-110019817D01*
X132688883Y-109998375D01*
X132655383Y-109973529D01*
X132624480Y-109945520D01*
X132596471Y-109914617D01*
X132571625Y-109881117D01*
X132550183Y-109845344D01*
X132532351Y-109807640D01*
X132518300Y-109768371D01*
X132508166Y-109727913D01*
X132502046Y-109686657D01*
X132500000Y-109645000D01*
X132500000Y-108795000D01*
X132502046Y-108753343D01*
X132508166Y-108712087D01*
X132518300Y-108671629D01*
X132532351Y-108632360D01*
X132550183Y-108594656D01*
X132571625Y-108558883D01*
X132596471Y-108525383D01*
X132624480Y-108494480D01*
X132655383Y-108466471D01*
X132688883Y-108441625D01*
X132724656Y-108420183D01*
X132762360Y-108402351D01*
X132801629Y-108388300D01*
X132842087Y-108378166D01*
X132883343Y-108372046D01*
X132925000Y-108370000D01*
X133775000Y-108370000D01*
X133816657Y-108372046D01*
X133816657Y-108372046D01*
G37*
D13*
X133350000Y-109220000D03*
D10*
X135890000Y-125730000D03*
X133350000Y-125730000D03*
X130810000Y-125730000D03*
X128270000Y-125730000D03*
X125730000Y-125730000D03*
X123190000Y-125730000D03*
X120650000Y-125730000D03*
X118110000Y-125730000D03*
X115570000Y-125730000D03*
X113030000Y-125730000D03*
X110490000Y-125730000D03*
X107950000Y-125730000D03*
X105410000Y-125730000D03*
D11*
X102870000Y-125730000D03*
D12*
G36*
X118576657Y-126152046D02*
G01*
X118617913Y-126158166D01*
X118658371Y-126168300D01*
X118697640Y-126182351D01*
X118735344Y-126200183D01*
X118771117Y-126221625D01*
X118804617Y-126246471D01*
X118835520Y-126274480D01*
X118863529Y-126305383D01*
X118888375Y-126338883D01*
X118909817Y-126374656D01*
X118927649Y-126412360D01*
X118941700Y-126451629D01*
X118951834Y-126492087D01*
X118957954Y-126533343D01*
X118960000Y-126575000D01*
X118960000Y-127425000D01*
X118957954Y-127466657D01*
X118951834Y-127507913D01*
X118941700Y-127548371D01*
X118927649Y-127587640D01*
X118909817Y-127625344D01*
X118888375Y-127661117D01*
X118863529Y-127694617D01*
X118835520Y-127725520D01*
X118804617Y-127753529D01*
X118771117Y-127778375D01*
X118735344Y-127799817D01*
X118697640Y-127817649D01*
X118658371Y-127831700D01*
X118617913Y-127841834D01*
X118576657Y-127847954D01*
X118535000Y-127850000D01*
X117685000Y-127850000D01*
X117643343Y-127847954D01*
X117602087Y-127841834D01*
X117561629Y-127831700D01*
X117522360Y-127817649D01*
X117484656Y-127799817D01*
X117448883Y-127778375D01*
X117415383Y-127753529D01*
X117384480Y-127725520D01*
X117356471Y-127694617D01*
X117331625Y-127661117D01*
X117310183Y-127625344D01*
X117292351Y-127587640D01*
X117278300Y-127548371D01*
X117268166Y-127507913D01*
X117262046Y-127466657D01*
X117260000Y-127425000D01*
X117260000Y-126575000D01*
X117262046Y-126533343D01*
X117268166Y-126492087D01*
X117278300Y-126451629D01*
X117292351Y-126412360D01*
X117310183Y-126374656D01*
X117331625Y-126338883D01*
X117356471Y-126305383D01*
X117384480Y-126274480D01*
X117415383Y-126246471D01*
X117448883Y-126221625D01*
X117484656Y-126200183D01*
X117522360Y-126182351D01*
X117561629Y-126168300D01*
X117602087Y-126158166D01*
X117643343Y-126152046D01*
X117685000Y-126150000D01*
X118535000Y-126150000D01*
X118576657Y-126152046D01*
X118576657Y-126152046D01*
G37*
D13*
X118110000Y-127000000D03*
D12*
G36*
X131276657Y-126152046D02*
G01*
X131317913Y-126158166D01*
X131358371Y-126168300D01*
X131397640Y-126182351D01*
X131435344Y-126200183D01*
X131471117Y-126221625D01*
X131504617Y-126246471D01*
X131535520Y-126274480D01*
X131563529Y-126305383D01*
X131588375Y-126338883D01*
X131609817Y-126374656D01*
X131627649Y-126412360D01*
X131641700Y-126451629D01*
X131651834Y-126492087D01*
X131657954Y-126533343D01*
X131660000Y-126575000D01*
X131660000Y-127425000D01*
X131657954Y-127466657D01*
X131651834Y-127507913D01*
X131641700Y-127548371D01*
X131627649Y-127587640D01*
X131609817Y-127625344D01*
X131588375Y-127661117D01*
X131563529Y-127694617D01*
X131535520Y-127725520D01*
X131504617Y-127753529D01*
X131471117Y-127778375D01*
X131435344Y-127799817D01*
X131397640Y-127817649D01*
X131358371Y-127831700D01*
X131317913Y-127841834D01*
X131276657Y-127847954D01*
X131235000Y-127850000D01*
X130385000Y-127850000D01*
X130343343Y-127847954D01*
X130302087Y-127841834D01*
X130261629Y-127831700D01*
X130222360Y-127817649D01*
X130184656Y-127799817D01*
X130148883Y-127778375D01*
X130115383Y-127753529D01*
X130084480Y-127725520D01*
X130056471Y-127694617D01*
X130031625Y-127661117D01*
X130010183Y-127625344D01*
X129992351Y-127587640D01*
X129978300Y-127548371D01*
X129968166Y-127507913D01*
X129962046Y-127466657D01*
X129960000Y-127425000D01*
X129960000Y-126575000D01*
X129962046Y-126533343D01*
X129968166Y-126492087D01*
X129978300Y-126451629D01*
X129992351Y-126412360D01*
X130010183Y-126374656D01*
X130031625Y-126338883D01*
X130056471Y-126305383D01*
X130084480Y-126274480D01*
X130115383Y-126246471D01*
X130148883Y-126221625D01*
X130184656Y-126200183D01*
X130222360Y-126182351D01*
X130261629Y-126168300D01*
X130302087Y-126158166D01*
X130343343Y-126152046D01*
X130385000Y-126150000D01*
X131235000Y-126150000D01*
X131276657Y-126152046D01*
X131276657Y-126152046D01*
G37*
D13*
X130810000Y-127000000D03*
D12*
G36*
X116036657Y-126152046D02*
G01*
X116077913Y-126158166D01*
X116118371Y-126168300D01*
X116157640Y-126182351D01*
X116195344Y-126200183D01*
X116231117Y-126221625D01*
X116264617Y-126246471D01*
X116295520Y-126274480D01*
X116323529Y-126305383D01*
X116348375Y-126338883D01*
X116369817Y-126374656D01*
X116387649Y-126412360D01*
X116401700Y-126451629D01*
X116411834Y-126492087D01*
X116417954Y-126533343D01*
X116420000Y-126575000D01*
X116420000Y-127425000D01*
X116417954Y-127466657D01*
X116411834Y-127507913D01*
X116401700Y-127548371D01*
X116387649Y-127587640D01*
X116369817Y-127625344D01*
X116348375Y-127661117D01*
X116323529Y-127694617D01*
X116295520Y-127725520D01*
X116264617Y-127753529D01*
X116231117Y-127778375D01*
X116195344Y-127799817D01*
X116157640Y-127817649D01*
X116118371Y-127831700D01*
X116077913Y-127841834D01*
X116036657Y-127847954D01*
X115995000Y-127850000D01*
X115145000Y-127850000D01*
X115103343Y-127847954D01*
X115062087Y-127841834D01*
X115021629Y-127831700D01*
X114982360Y-127817649D01*
X114944656Y-127799817D01*
X114908883Y-127778375D01*
X114875383Y-127753529D01*
X114844480Y-127725520D01*
X114816471Y-127694617D01*
X114791625Y-127661117D01*
X114770183Y-127625344D01*
X114752351Y-127587640D01*
X114738300Y-127548371D01*
X114728166Y-127507913D01*
X114722046Y-127466657D01*
X114720000Y-127425000D01*
X114720000Y-126575000D01*
X114722046Y-126533343D01*
X114728166Y-126492087D01*
X114738300Y-126451629D01*
X114752351Y-126412360D01*
X114770183Y-126374656D01*
X114791625Y-126338883D01*
X114816471Y-126305383D01*
X114844480Y-126274480D01*
X114875383Y-126246471D01*
X114908883Y-126221625D01*
X114944656Y-126200183D01*
X114982360Y-126182351D01*
X115021629Y-126168300D01*
X115062087Y-126158166D01*
X115103343Y-126152046D01*
X115145000Y-126150000D01*
X115995000Y-126150000D01*
X116036657Y-126152046D01*
X116036657Y-126152046D01*
G37*
D13*
X115570000Y-127000000D03*
D12*
G36*
X103336657Y-126152046D02*
G01*
X103377913Y-126158166D01*
X103418371Y-126168300D01*
X103457640Y-126182351D01*
X103495344Y-126200183D01*
X103531117Y-126221625D01*
X103564617Y-126246471D01*
X103595520Y-126274480D01*
X103623529Y-126305383D01*
X103648375Y-126338883D01*
X103669817Y-126374656D01*
X103687649Y-126412360D01*
X103701700Y-126451629D01*
X103711834Y-126492087D01*
X103717954Y-126533343D01*
X103720000Y-126575000D01*
X103720000Y-127425000D01*
X103717954Y-127466657D01*
X103711834Y-127507913D01*
X103701700Y-127548371D01*
X103687649Y-127587640D01*
X103669817Y-127625344D01*
X103648375Y-127661117D01*
X103623529Y-127694617D01*
X103595520Y-127725520D01*
X103564617Y-127753529D01*
X103531117Y-127778375D01*
X103495344Y-127799817D01*
X103457640Y-127817649D01*
X103418371Y-127831700D01*
X103377913Y-127841834D01*
X103336657Y-127847954D01*
X103295000Y-127850000D01*
X102445000Y-127850000D01*
X102403343Y-127847954D01*
X102362087Y-127841834D01*
X102321629Y-127831700D01*
X102282360Y-127817649D01*
X102244656Y-127799817D01*
X102208883Y-127778375D01*
X102175383Y-127753529D01*
X102144480Y-127725520D01*
X102116471Y-127694617D01*
X102091625Y-127661117D01*
X102070183Y-127625344D01*
X102052351Y-127587640D01*
X102038300Y-127548371D01*
X102028166Y-127507913D01*
X102022046Y-127466657D01*
X102020000Y-127425000D01*
X102020000Y-126575000D01*
X102022046Y-126533343D01*
X102028166Y-126492087D01*
X102038300Y-126451629D01*
X102052351Y-126412360D01*
X102070183Y-126374656D01*
X102091625Y-126338883D01*
X102116471Y-126305383D01*
X102144480Y-126274480D01*
X102175383Y-126246471D01*
X102208883Y-126221625D01*
X102244656Y-126200183D01*
X102282360Y-126182351D01*
X102321629Y-126168300D01*
X102362087Y-126158166D01*
X102403343Y-126152046D01*
X102445000Y-126150000D01*
X103295000Y-126150000D01*
X103336657Y-126152046D01*
X103336657Y-126152046D01*
G37*
D13*
X102870000Y-127000000D03*
D12*
G36*
X113496657Y-126152046D02*
G01*
X113537913Y-126158166D01*
X113578371Y-126168300D01*
X113617640Y-126182351D01*
X113655344Y-126200183D01*
X113691117Y-126221625D01*
X113724617Y-126246471D01*
X113755520Y-126274480D01*
X113783529Y-126305383D01*
X113808375Y-126338883D01*
X113829817Y-126374656D01*
X113847649Y-126412360D01*
X113861700Y-126451629D01*
X113871834Y-126492087D01*
X113877954Y-126533343D01*
X113880000Y-126575000D01*
X113880000Y-127425000D01*
X113877954Y-127466657D01*
X113871834Y-127507913D01*
X113861700Y-127548371D01*
X113847649Y-127587640D01*
X113829817Y-127625344D01*
X113808375Y-127661117D01*
X113783529Y-127694617D01*
X113755520Y-127725520D01*
X113724617Y-127753529D01*
X113691117Y-127778375D01*
X113655344Y-127799817D01*
X113617640Y-127817649D01*
X113578371Y-127831700D01*
X113537913Y-127841834D01*
X113496657Y-127847954D01*
X113455000Y-127850000D01*
X112605000Y-127850000D01*
X112563343Y-127847954D01*
X112522087Y-127841834D01*
X112481629Y-127831700D01*
X112442360Y-127817649D01*
X112404656Y-127799817D01*
X112368883Y-127778375D01*
X112335383Y-127753529D01*
X112304480Y-127725520D01*
X112276471Y-127694617D01*
X112251625Y-127661117D01*
X112230183Y-127625344D01*
X112212351Y-127587640D01*
X112198300Y-127548371D01*
X112188166Y-127507913D01*
X112182046Y-127466657D01*
X112180000Y-127425000D01*
X112180000Y-126575000D01*
X112182046Y-126533343D01*
X112188166Y-126492087D01*
X112198300Y-126451629D01*
X112212351Y-126412360D01*
X112230183Y-126374656D01*
X112251625Y-126338883D01*
X112276471Y-126305383D01*
X112304480Y-126274480D01*
X112335383Y-126246471D01*
X112368883Y-126221625D01*
X112404656Y-126200183D01*
X112442360Y-126182351D01*
X112481629Y-126168300D01*
X112522087Y-126158166D01*
X112563343Y-126152046D01*
X112605000Y-126150000D01*
X113455000Y-126150000D01*
X113496657Y-126152046D01*
X113496657Y-126152046D01*
G37*
D13*
X113030000Y-127000000D03*
D14*
X123190000Y-127000000D03*
D12*
G36*
X123656657Y-126152046D02*
G01*
X123697913Y-126158166D01*
X123738371Y-126168300D01*
X123777640Y-126182351D01*
X123815344Y-126200183D01*
X123851117Y-126221625D01*
X123884617Y-126246471D01*
X123915520Y-126274480D01*
X123943529Y-126305383D01*
X123968375Y-126338883D01*
X123989817Y-126374656D01*
X124007649Y-126412360D01*
X124021700Y-126451629D01*
X124031834Y-126492087D01*
X124037954Y-126533343D01*
X124040000Y-126575000D01*
X124040000Y-127425000D01*
X124037954Y-127466657D01*
X124031834Y-127507913D01*
X124021700Y-127548371D01*
X124007649Y-127587640D01*
X123989817Y-127625344D01*
X123968375Y-127661117D01*
X123943529Y-127694617D01*
X123915520Y-127725520D01*
X123884617Y-127753529D01*
X123851117Y-127778375D01*
X123815344Y-127799817D01*
X123777640Y-127817649D01*
X123738371Y-127831700D01*
X123697913Y-127841834D01*
X123656657Y-127847954D01*
X123615000Y-127850000D01*
X122765000Y-127850000D01*
X122723343Y-127847954D01*
X122682087Y-127841834D01*
X122641629Y-127831700D01*
X122602360Y-127817649D01*
X122564656Y-127799817D01*
X122528883Y-127778375D01*
X122495383Y-127753529D01*
X122464480Y-127725520D01*
X122436471Y-127694617D01*
X122411625Y-127661117D01*
X122390183Y-127625344D01*
X122372351Y-127587640D01*
X122358300Y-127548371D01*
X122348166Y-127507913D01*
X122342046Y-127466657D01*
X122340000Y-127425000D01*
X122340000Y-126575000D01*
X122342046Y-126533343D01*
X122348166Y-126492087D01*
X122358300Y-126451629D01*
X122372351Y-126412360D01*
X122390183Y-126374656D01*
X122411625Y-126338883D01*
X122436471Y-126305383D01*
X122464480Y-126274480D01*
X122495383Y-126246471D01*
X122528883Y-126221625D01*
X122564656Y-126200183D01*
X122602360Y-126182351D01*
X122641629Y-126168300D01*
X122682087Y-126158166D01*
X122723343Y-126152046D01*
X122765000Y-126150000D01*
X123615000Y-126150000D01*
X123656657Y-126152046D01*
X123656657Y-126152046D01*
G37*
G36*
X128736657Y-126152046D02*
G01*
X128777913Y-126158166D01*
X128818371Y-126168300D01*
X128857640Y-126182351D01*
X128895344Y-126200183D01*
X128931117Y-126221625D01*
X128964617Y-126246471D01*
X128995520Y-126274480D01*
X129023529Y-126305383D01*
X129048375Y-126338883D01*
X129069817Y-126374656D01*
X129087649Y-126412360D01*
X129101700Y-126451629D01*
X129111834Y-126492087D01*
X129117954Y-126533343D01*
X129120000Y-126575000D01*
X129120000Y-127425000D01*
X129117954Y-127466657D01*
X129111834Y-127507913D01*
X129101700Y-127548371D01*
X129087649Y-127587640D01*
X129069817Y-127625344D01*
X129048375Y-127661117D01*
X129023529Y-127694617D01*
X128995520Y-127725520D01*
X128964617Y-127753529D01*
X128931117Y-127778375D01*
X128895344Y-127799817D01*
X128857640Y-127817649D01*
X128818371Y-127831700D01*
X128777913Y-127841834D01*
X128736657Y-127847954D01*
X128695000Y-127850000D01*
X127845000Y-127850000D01*
X127803343Y-127847954D01*
X127762087Y-127841834D01*
X127721629Y-127831700D01*
X127682360Y-127817649D01*
X127644656Y-127799817D01*
X127608883Y-127778375D01*
X127575383Y-127753529D01*
X127544480Y-127725520D01*
X127516471Y-127694617D01*
X127491625Y-127661117D01*
X127470183Y-127625344D01*
X127452351Y-127587640D01*
X127438300Y-127548371D01*
X127428166Y-127507913D01*
X127422046Y-127466657D01*
X127420000Y-127425000D01*
X127420000Y-126575000D01*
X127422046Y-126533343D01*
X127428166Y-126492087D01*
X127438300Y-126451629D01*
X127452351Y-126412360D01*
X127470183Y-126374656D01*
X127491625Y-126338883D01*
X127516471Y-126305383D01*
X127544480Y-126274480D01*
X127575383Y-126246471D01*
X127608883Y-126221625D01*
X127644656Y-126200183D01*
X127682360Y-126182351D01*
X127721629Y-126168300D01*
X127762087Y-126158166D01*
X127803343Y-126152046D01*
X127845000Y-126150000D01*
X128695000Y-126150000D01*
X128736657Y-126152046D01*
X128736657Y-126152046D01*
G37*
D13*
X128270000Y-127000000D03*
D12*
G36*
X121116657Y-126152046D02*
G01*
X121157913Y-126158166D01*
X121198371Y-126168300D01*
X121237640Y-126182351D01*
X121275344Y-126200183D01*
X121311117Y-126221625D01*
X121344617Y-126246471D01*
X121375520Y-126274480D01*
X121403529Y-126305383D01*
X121428375Y-126338883D01*
X121449817Y-126374656D01*
X121467649Y-126412360D01*
X121481700Y-126451629D01*
X121491834Y-126492087D01*
X121497954Y-126533343D01*
X121500000Y-126575000D01*
X121500000Y-127425000D01*
X121497954Y-127466657D01*
X121491834Y-127507913D01*
X121481700Y-127548371D01*
X121467649Y-127587640D01*
X121449817Y-127625344D01*
X121428375Y-127661117D01*
X121403529Y-127694617D01*
X121375520Y-127725520D01*
X121344617Y-127753529D01*
X121311117Y-127778375D01*
X121275344Y-127799817D01*
X121237640Y-127817649D01*
X121198371Y-127831700D01*
X121157913Y-127841834D01*
X121116657Y-127847954D01*
X121075000Y-127850000D01*
X120225000Y-127850000D01*
X120183343Y-127847954D01*
X120142087Y-127841834D01*
X120101629Y-127831700D01*
X120062360Y-127817649D01*
X120024656Y-127799817D01*
X119988883Y-127778375D01*
X119955383Y-127753529D01*
X119924480Y-127725520D01*
X119896471Y-127694617D01*
X119871625Y-127661117D01*
X119850183Y-127625344D01*
X119832351Y-127587640D01*
X119818300Y-127548371D01*
X119808166Y-127507913D01*
X119802046Y-127466657D01*
X119800000Y-127425000D01*
X119800000Y-126575000D01*
X119802046Y-126533343D01*
X119808166Y-126492087D01*
X119818300Y-126451629D01*
X119832351Y-126412360D01*
X119850183Y-126374656D01*
X119871625Y-126338883D01*
X119896471Y-126305383D01*
X119924480Y-126274480D01*
X119955383Y-126246471D01*
X119988883Y-126221625D01*
X120024656Y-126200183D01*
X120062360Y-126182351D01*
X120101629Y-126168300D01*
X120142087Y-126158166D01*
X120183343Y-126152046D01*
X120225000Y-126150000D01*
X121075000Y-126150000D01*
X121116657Y-126152046D01*
X121116657Y-126152046D01*
G37*
D13*
X120650000Y-127000000D03*
D12*
G36*
X136356657Y-126152046D02*
G01*
X136397913Y-126158166D01*
X136438371Y-126168300D01*
X136477640Y-126182351D01*
X136515344Y-126200183D01*
X136551117Y-126221625D01*
X136584617Y-126246471D01*
X136615520Y-126274480D01*
X136643529Y-126305383D01*
X136668375Y-126338883D01*
X136689817Y-126374656D01*
X136707649Y-126412360D01*
X136721700Y-126451629D01*
X136731834Y-126492087D01*
X136737954Y-126533343D01*
X136740000Y-126575000D01*
X136740000Y-127425000D01*
X136737954Y-127466657D01*
X136731834Y-127507913D01*
X136721700Y-127548371D01*
X136707649Y-127587640D01*
X136689817Y-127625344D01*
X136668375Y-127661117D01*
X136643529Y-127694617D01*
X136615520Y-127725520D01*
X136584617Y-127753529D01*
X136551117Y-127778375D01*
X136515344Y-127799817D01*
X136477640Y-127817649D01*
X136438371Y-127831700D01*
X136397913Y-127841834D01*
X136356657Y-127847954D01*
X136315000Y-127850000D01*
X135465000Y-127850000D01*
X135423343Y-127847954D01*
X135382087Y-127841834D01*
X135341629Y-127831700D01*
X135302360Y-127817649D01*
X135264656Y-127799817D01*
X135228883Y-127778375D01*
X135195383Y-127753529D01*
X135164480Y-127725520D01*
X135136471Y-127694617D01*
X135111625Y-127661117D01*
X135090183Y-127625344D01*
X135072351Y-127587640D01*
X135058300Y-127548371D01*
X135048166Y-127507913D01*
X135042046Y-127466657D01*
X135040000Y-127425000D01*
X135040000Y-126575000D01*
X135042046Y-126533343D01*
X135048166Y-126492087D01*
X135058300Y-126451629D01*
X135072351Y-126412360D01*
X135090183Y-126374656D01*
X135111625Y-126338883D01*
X135136471Y-126305383D01*
X135164480Y-126274480D01*
X135195383Y-126246471D01*
X135228883Y-126221625D01*
X135264656Y-126200183D01*
X135302360Y-126182351D01*
X135341629Y-126168300D01*
X135382087Y-126158166D01*
X135423343Y-126152046D01*
X135465000Y-126150000D01*
X136315000Y-126150000D01*
X136356657Y-126152046D01*
X136356657Y-126152046D01*
G37*
D13*
X135890000Y-127000000D03*
D12*
G36*
X110956657Y-126152046D02*
G01*
X110997913Y-126158166D01*
X111038371Y-126168300D01*
X111077640Y-126182351D01*
X111115344Y-126200183D01*
X111151117Y-126221625D01*
X111184617Y-126246471D01*
X111215520Y-126274480D01*
X111243529Y-126305383D01*
X111268375Y-126338883D01*
X111289817Y-126374656D01*
X111307649Y-126412360D01*
X111321700Y-126451629D01*
X111331834Y-126492087D01*
X111337954Y-126533343D01*
X111340000Y-126575000D01*
X111340000Y-127425000D01*
X111337954Y-127466657D01*
X111331834Y-127507913D01*
X111321700Y-127548371D01*
X111307649Y-127587640D01*
X111289817Y-127625344D01*
X111268375Y-127661117D01*
X111243529Y-127694617D01*
X111215520Y-127725520D01*
X111184617Y-127753529D01*
X111151117Y-127778375D01*
X111115344Y-127799817D01*
X111077640Y-127817649D01*
X111038371Y-127831700D01*
X110997913Y-127841834D01*
X110956657Y-127847954D01*
X110915000Y-127850000D01*
X110065000Y-127850000D01*
X110023343Y-127847954D01*
X109982087Y-127841834D01*
X109941629Y-127831700D01*
X109902360Y-127817649D01*
X109864656Y-127799817D01*
X109828883Y-127778375D01*
X109795383Y-127753529D01*
X109764480Y-127725520D01*
X109736471Y-127694617D01*
X109711625Y-127661117D01*
X109690183Y-127625344D01*
X109672351Y-127587640D01*
X109658300Y-127548371D01*
X109648166Y-127507913D01*
X109642046Y-127466657D01*
X109640000Y-127425000D01*
X109640000Y-126575000D01*
X109642046Y-126533343D01*
X109648166Y-126492087D01*
X109658300Y-126451629D01*
X109672351Y-126412360D01*
X109690183Y-126374656D01*
X109711625Y-126338883D01*
X109736471Y-126305383D01*
X109764480Y-126274480D01*
X109795383Y-126246471D01*
X109828883Y-126221625D01*
X109864656Y-126200183D01*
X109902360Y-126182351D01*
X109941629Y-126168300D01*
X109982087Y-126158166D01*
X110023343Y-126152046D01*
X110065000Y-126150000D01*
X110915000Y-126150000D01*
X110956657Y-126152046D01*
X110956657Y-126152046D01*
G37*
D13*
X110490000Y-127000000D03*
D12*
G36*
X105876657Y-126152046D02*
G01*
X105917913Y-126158166D01*
X105958371Y-126168300D01*
X105997640Y-126182351D01*
X106035344Y-126200183D01*
X106071117Y-126221625D01*
X106104617Y-126246471D01*
X106135520Y-126274480D01*
X106163529Y-126305383D01*
X106188375Y-126338883D01*
X106209817Y-126374656D01*
X106227649Y-126412360D01*
X106241700Y-126451629D01*
X106251834Y-126492087D01*
X106257954Y-126533343D01*
X106260000Y-126575000D01*
X106260000Y-127425000D01*
X106257954Y-127466657D01*
X106251834Y-127507913D01*
X106241700Y-127548371D01*
X106227649Y-127587640D01*
X106209817Y-127625344D01*
X106188375Y-127661117D01*
X106163529Y-127694617D01*
X106135520Y-127725520D01*
X106104617Y-127753529D01*
X106071117Y-127778375D01*
X106035344Y-127799817D01*
X105997640Y-127817649D01*
X105958371Y-127831700D01*
X105917913Y-127841834D01*
X105876657Y-127847954D01*
X105835000Y-127850000D01*
X104985000Y-127850000D01*
X104943343Y-127847954D01*
X104902087Y-127841834D01*
X104861629Y-127831700D01*
X104822360Y-127817649D01*
X104784656Y-127799817D01*
X104748883Y-127778375D01*
X104715383Y-127753529D01*
X104684480Y-127725520D01*
X104656471Y-127694617D01*
X104631625Y-127661117D01*
X104610183Y-127625344D01*
X104592351Y-127587640D01*
X104578300Y-127548371D01*
X104568166Y-127507913D01*
X104562046Y-127466657D01*
X104560000Y-127425000D01*
X104560000Y-126575000D01*
X104562046Y-126533343D01*
X104568166Y-126492087D01*
X104578300Y-126451629D01*
X104592351Y-126412360D01*
X104610183Y-126374656D01*
X104631625Y-126338883D01*
X104656471Y-126305383D01*
X104684480Y-126274480D01*
X104715383Y-126246471D01*
X104748883Y-126221625D01*
X104784656Y-126200183D01*
X104822360Y-126182351D01*
X104861629Y-126168300D01*
X104902087Y-126158166D01*
X104943343Y-126152046D01*
X104985000Y-126150000D01*
X105835000Y-126150000D01*
X105876657Y-126152046D01*
X105876657Y-126152046D01*
G37*
D13*
X105410000Y-127000000D03*
D12*
G36*
X108416657Y-126152046D02*
G01*
X108457913Y-126158166D01*
X108498371Y-126168300D01*
X108537640Y-126182351D01*
X108575344Y-126200183D01*
X108611117Y-126221625D01*
X108644617Y-126246471D01*
X108675520Y-126274480D01*
X108703529Y-126305383D01*
X108728375Y-126338883D01*
X108749817Y-126374656D01*
X108767649Y-126412360D01*
X108781700Y-126451629D01*
X108791834Y-126492087D01*
X108797954Y-126533343D01*
X108800000Y-126575000D01*
X108800000Y-127425000D01*
X108797954Y-127466657D01*
X108791834Y-127507913D01*
X108781700Y-127548371D01*
X108767649Y-127587640D01*
X108749817Y-127625344D01*
X108728375Y-127661117D01*
X108703529Y-127694617D01*
X108675520Y-127725520D01*
X108644617Y-127753529D01*
X108611117Y-127778375D01*
X108575344Y-127799817D01*
X108537640Y-127817649D01*
X108498371Y-127831700D01*
X108457913Y-127841834D01*
X108416657Y-127847954D01*
X108375000Y-127850000D01*
X107525000Y-127850000D01*
X107483343Y-127847954D01*
X107442087Y-127841834D01*
X107401629Y-127831700D01*
X107362360Y-127817649D01*
X107324656Y-127799817D01*
X107288883Y-127778375D01*
X107255383Y-127753529D01*
X107224480Y-127725520D01*
X107196471Y-127694617D01*
X107171625Y-127661117D01*
X107150183Y-127625344D01*
X107132351Y-127587640D01*
X107118300Y-127548371D01*
X107108166Y-127507913D01*
X107102046Y-127466657D01*
X107100000Y-127425000D01*
X107100000Y-126575000D01*
X107102046Y-126533343D01*
X107108166Y-126492087D01*
X107118300Y-126451629D01*
X107132351Y-126412360D01*
X107150183Y-126374656D01*
X107171625Y-126338883D01*
X107196471Y-126305383D01*
X107224480Y-126274480D01*
X107255383Y-126246471D01*
X107288883Y-126221625D01*
X107324656Y-126200183D01*
X107362360Y-126182351D01*
X107401629Y-126168300D01*
X107442087Y-126158166D01*
X107483343Y-126152046D01*
X107525000Y-126150000D01*
X108375000Y-126150000D01*
X108416657Y-126152046D01*
X108416657Y-126152046D01*
G37*
D13*
X107950000Y-127000000D03*
D12*
G36*
X126196657Y-126152046D02*
G01*
X126237913Y-126158166D01*
X126278371Y-126168300D01*
X126317640Y-126182351D01*
X126355344Y-126200183D01*
X126391117Y-126221625D01*
X126424617Y-126246471D01*
X126455520Y-126274480D01*
X126483529Y-126305383D01*
X126508375Y-126338883D01*
X126529817Y-126374656D01*
X126547649Y-126412360D01*
X126561700Y-126451629D01*
X126571834Y-126492087D01*
X126577954Y-126533343D01*
X126580000Y-126575000D01*
X126580000Y-127425000D01*
X126577954Y-127466657D01*
X126571834Y-127507913D01*
X126561700Y-127548371D01*
X126547649Y-127587640D01*
X126529817Y-127625344D01*
X126508375Y-127661117D01*
X126483529Y-127694617D01*
X126455520Y-127725520D01*
X126424617Y-127753529D01*
X126391117Y-127778375D01*
X126355344Y-127799817D01*
X126317640Y-127817649D01*
X126278371Y-127831700D01*
X126237913Y-127841834D01*
X126196657Y-127847954D01*
X126155000Y-127850000D01*
X125305000Y-127850000D01*
X125263343Y-127847954D01*
X125222087Y-127841834D01*
X125181629Y-127831700D01*
X125142360Y-127817649D01*
X125104656Y-127799817D01*
X125068883Y-127778375D01*
X125035383Y-127753529D01*
X125004480Y-127725520D01*
X124976471Y-127694617D01*
X124951625Y-127661117D01*
X124930183Y-127625344D01*
X124912351Y-127587640D01*
X124898300Y-127548371D01*
X124888166Y-127507913D01*
X124882046Y-127466657D01*
X124880000Y-127425000D01*
X124880000Y-126575000D01*
X124882046Y-126533343D01*
X124888166Y-126492087D01*
X124898300Y-126451629D01*
X124912351Y-126412360D01*
X124930183Y-126374656D01*
X124951625Y-126338883D01*
X124976471Y-126305383D01*
X125004480Y-126274480D01*
X125035383Y-126246471D01*
X125068883Y-126221625D01*
X125104656Y-126200183D01*
X125142360Y-126182351D01*
X125181629Y-126168300D01*
X125222087Y-126158166D01*
X125263343Y-126152046D01*
X125305000Y-126150000D01*
X126155000Y-126150000D01*
X126196657Y-126152046D01*
X126196657Y-126152046D01*
G37*
D13*
X125730000Y-127000000D03*
D12*
G36*
X133816657Y-126152046D02*
G01*
X133857913Y-126158166D01*
X133898371Y-126168300D01*
X133937640Y-126182351D01*
X133975344Y-126200183D01*
X134011117Y-126221625D01*
X134044617Y-126246471D01*
X134075520Y-126274480D01*
X134103529Y-126305383D01*
X134128375Y-126338883D01*
X134149817Y-126374656D01*
X134167649Y-126412360D01*
X134181700Y-126451629D01*
X134191834Y-126492087D01*
X134197954Y-126533343D01*
X134200000Y-126575000D01*
X134200000Y-127425000D01*
X134197954Y-127466657D01*
X134191834Y-127507913D01*
X134181700Y-127548371D01*
X134167649Y-127587640D01*
X134149817Y-127625344D01*
X134128375Y-127661117D01*
X134103529Y-127694617D01*
X134075520Y-127725520D01*
X134044617Y-127753529D01*
X134011117Y-127778375D01*
X133975344Y-127799817D01*
X133937640Y-127817649D01*
X133898371Y-127831700D01*
X133857913Y-127841834D01*
X133816657Y-127847954D01*
X133775000Y-127850000D01*
X132925000Y-127850000D01*
X132883343Y-127847954D01*
X132842087Y-127841834D01*
X132801629Y-127831700D01*
X132762360Y-127817649D01*
X132724656Y-127799817D01*
X132688883Y-127778375D01*
X132655383Y-127753529D01*
X132624480Y-127725520D01*
X132596471Y-127694617D01*
X132571625Y-127661117D01*
X132550183Y-127625344D01*
X132532351Y-127587640D01*
X132518300Y-127548371D01*
X132508166Y-127507913D01*
X132502046Y-127466657D01*
X132500000Y-127425000D01*
X132500000Y-126575000D01*
X132502046Y-126533343D01*
X132508166Y-126492087D01*
X132518300Y-126451629D01*
X132532351Y-126412360D01*
X132550183Y-126374656D01*
X132571625Y-126338883D01*
X132596471Y-126305383D01*
X132624480Y-126274480D01*
X132655383Y-126246471D01*
X132688883Y-126221625D01*
X132724656Y-126200183D01*
X132762360Y-126182351D01*
X132801629Y-126168300D01*
X132842087Y-126158166D01*
X132883343Y-126152046D01*
X132925000Y-126150000D01*
X133775000Y-126150000D01*
X133816657Y-126152046D01*
X133816657Y-126152046D01*
G37*
D13*
X133350000Y-127000000D03*
D15*
X114331510Y-117113523D03*
X112758220Y-113903760D03*
X121920000Y-126365000D03*
X106680000Y-126365000D03*
X109220000Y-126365000D03*
X111760000Y-126365000D03*
X106680000Y-109855000D03*
X109220000Y-109855000D03*
X111760000Y-109855000D03*
X114300000Y-109855000D03*
X116840000Y-109855000D03*
X119380000Y-109855000D03*
X121920000Y-109855000D03*
X124460000Y-109855000D03*
X127000000Y-109855000D03*
X129540000Y-109855000D03*
X132080000Y-109855000D03*
X134620000Y-109855000D03*
X134620000Y-126365000D03*
X132080000Y-126365000D03*
X129540000Y-126365000D03*
X127000000Y-126365000D03*
X124460000Y-126365000D03*
X119380000Y-126365000D03*
X116840000Y-126365000D03*
X114300000Y-126365000D03*
X114823240Y-121752360D03*
X114782600Y-118054120D03*
X125960000Y-116260000D03*
X124850000Y-116260000D03*
X123740000Y-116270000D03*
X122630000Y-116270000D03*
X122630000Y-117370000D03*
X125960000Y-117380000D03*
X124850000Y-117370000D03*
X123740000Y-117370000D03*
X122620000Y-118490000D03*
X125960000Y-118490000D03*
X124850000Y-118490000D03*
X123740000Y-118490000D03*
X122630000Y-119600000D03*
X123740000Y-119600000D03*
X125970000Y-119600000D03*
X124860000Y-119600000D03*
X103931720Y-120103900D03*
X103969820Y-115722400D03*
X106791760Y-121318020D03*
X106809540Y-116951760D03*
X111201200Y-113096040D03*
X118216680Y-114909600D03*
X118214140Y-113814860D03*
X112776000Y-121135140D03*
X120566180Y-123032520D03*
X118778020Y-121483120D03*
X132831840Y-112905540D03*
X130164842Y-116380260D03*
X131272280Y-116319300D03*
X132341620Y-119029480D03*
X135369300Y-120116600D03*
X132351780Y-122029220D03*
X130164840Y-119039640D03*
X127302260Y-123085860D03*
X120454420Y-117729000D03*
X117599460Y-119100600D03*
X129413000Y-119052340D03*
X120705880Y-113830100D03*
X106126280Y-119131080D03*
X117581680Y-114874040D03*
X136019540Y-116359940D03*
X134416800Y-113687860D03*
X129378507Y-116381327D03*
X106156760Y-114759740D03*
X108960920Y-113845340D03*
X120586500Y-120590680D03*
X124513340Y-121975880D03*
X127307340Y-121986040D03*
X121104660Y-114416840D03*
X127701040Y-121343420D03*
X134350000Y-122047000D03*
X131330700Y-122519440D03*
X105092500Y-123350020D03*
X125694440Y-121980960D03*
D16*
G36*
X104279249Y-109645000D02*
G01*
X104292810Y-109782685D01*
X104332971Y-109915079D01*
X104384830Y-110012100D01*
X104361522Y-110055706D01*
X104296942Y-110268599D01*
X104275136Y-110490000D01*
X104296942Y-110711401D01*
X104361522Y-110924294D01*
X104466395Y-111120497D01*
X104607530Y-111292470D01*
X104779503Y-111433605D01*
X104975706Y-111538478D01*
X105188599Y-111603058D01*
X105354523Y-111619400D01*
X105465477Y-111619400D01*
X105631401Y-111603058D01*
X105844294Y-111538478D01*
X106040497Y-111433605D01*
X106212470Y-111292470D01*
X106353605Y-111120497D01*
X106458478Y-110924294D01*
X106523058Y-110711401D01*
X106544864Y-110490000D01*
X106533007Y-110369611D01*
X106627465Y-110388400D01*
X106732535Y-110388400D01*
X106826993Y-110369611D01*
X106815136Y-110490000D01*
X106836942Y-110711401D01*
X106901522Y-110924294D01*
X107006395Y-111120497D01*
X107147530Y-111292470D01*
X107319503Y-111433605D01*
X107515706Y-111538478D01*
X107728599Y-111603058D01*
X107894523Y-111619400D01*
X108005477Y-111619400D01*
X108171401Y-111603058D01*
X108384294Y-111538478D01*
X108580497Y-111433605D01*
X108752470Y-111292470D01*
X108893605Y-111120497D01*
X108998478Y-110924294D01*
X109063058Y-110711401D01*
X109084864Y-110490000D01*
X109073007Y-110369611D01*
X109167465Y-110388400D01*
X109272535Y-110388400D01*
X109366993Y-110369611D01*
X109355136Y-110490000D01*
X109376942Y-110711401D01*
X109441522Y-110924294D01*
X109546395Y-111120497D01*
X109687530Y-111292470D01*
X109859503Y-111433605D01*
X110055706Y-111538478D01*
X110268599Y-111603058D01*
X110434523Y-111619400D01*
X110545477Y-111619400D01*
X110711401Y-111603058D01*
X110924294Y-111538478D01*
X111120497Y-111433605D01*
X111292470Y-111292470D01*
X111433605Y-111120497D01*
X111538478Y-110924294D01*
X111603058Y-110711401D01*
X111624864Y-110490000D01*
X111613007Y-110369611D01*
X111707465Y-110388400D01*
X111812535Y-110388400D01*
X111906993Y-110369611D01*
X111895136Y-110490000D01*
X111916942Y-110711401D01*
X111981522Y-110924294D01*
X112086395Y-111120497D01*
X112227530Y-111292470D01*
X112399503Y-111433605D01*
X112595706Y-111538478D01*
X112808599Y-111603058D01*
X112974523Y-111619400D01*
X113085477Y-111619400D01*
X113251401Y-111603058D01*
X113464294Y-111538478D01*
X113660497Y-111433605D01*
X113832470Y-111292470D01*
X113973605Y-111120497D01*
X114078478Y-110924294D01*
X114143058Y-110711401D01*
X114164864Y-110490000D01*
X114153007Y-110369611D01*
X114247465Y-110388400D01*
X114352535Y-110388400D01*
X114446993Y-110369611D01*
X114435136Y-110490000D01*
X114456942Y-110711401D01*
X114521522Y-110924294D01*
X114626395Y-111120497D01*
X114767530Y-111292470D01*
X114939503Y-111433605D01*
X115135706Y-111538478D01*
X115348599Y-111603058D01*
X115514523Y-111619400D01*
X115625477Y-111619400D01*
X115791401Y-111603058D01*
X116004294Y-111538478D01*
X116200497Y-111433605D01*
X116372470Y-111292470D01*
X116513605Y-111120497D01*
X116618478Y-110924294D01*
X116683058Y-110711401D01*
X116704864Y-110490000D01*
X116693007Y-110369611D01*
X116787465Y-110388400D01*
X116892535Y-110388400D01*
X116986993Y-110369611D01*
X116975136Y-110490000D01*
X116996942Y-110711401D01*
X117061522Y-110924294D01*
X117166395Y-111120497D01*
X117307530Y-111292470D01*
X117479503Y-111433605D01*
X117675706Y-111538478D01*
X117888599Y-111603058D01*
X118054523Y-111619400D01*
X118165477Y-111619400D01*
X118331401Y-111603058D01*
X118544294Y-111538478D01*
X118740497Y-111433605D01*
X118912470Y-111292470D01*
X119053605Y-111120497D01*
X119158478Y-110924294D01*
X119223058Y-110711401D01*
X119244864Y-110490000D01*
X119233007Y-110369611D01*
X119327465Y-110388400D01*
X119432535Y-110388400D01*
X119526993Y-110369611D01*
X119515136Y-110490000D01*
X119536942Y-110711401D01*
X119601522Y-110924294D01*
X119706395Y-111120497D01*
X119847530Y-111292470D01*
X120019503Y-111433605D01*
X120215706Y-111538478D01*
X120428599Y-111603058D01*
X120594523Y-111619400D01*
X120705477Y-111619400D01*
X120871401Y-111603058D01*
X121084294Y-111538478D01*
X121280497Y-111433605D01*
X121452470Y-111292470D01*
X121593605Y-111120497D01*
X121698478Y-110924294D01*
X121763058Y-110711401D01*
X121784864Y-110490000D01*
X121773007Y-110369611D01*
X121867465Y-110388400D01*
X121972535Y-110388400D01*
X122066993Y-110369611D01*
X122055136Y-110490000D01*
X122076942Y-110711401D01*
X122141522Y-110924294D01*
X122246395Y-111120497D01*
X122387530Y-111292470D01*
X122559503Y-111433605D01*
X122755706Y-111538478D01*
X122968599Y-111603058D01*
X123134523Y-111619400D01*
X123245477Y-111619400D01*
X123411401Y-111603058D01*
X123624294Y-111538478D01*
X123820497Y-111433605D01*
X123992470Y-111292470D01*
X124133605Y-111120497D01*
X124238478Y-110924294D01*
X124303058Y-110711401D01*
X124324864Y-110490000D01*
X124313007Y-110369611D01*
X124407465Y-110388400D01*
X124512535Y-110388400D01*
X124606993Y-110369611D01*
X124595136Y-110490000D01*
X124616942Y-110711401D01*
X124681522Y-110924294D01*
X124786395Y-111120497D01*
X124927530Y-111292470D01*
X125099503Y-111433605D01*
X125295706Y-111538478D01*
X125508599Y-111603058D01*
X125674523Y-111619400D01*
X125785477Y-111619400D01*
X125951401Y-111603058D01*
X126164294Y-111538478D01*
X126360497Y-111433605D01*
X126532470Y-111292470D01*
X126673605Y-111120497D01*
X126778478Y-110924294D01*
X126843058Y-110711401D01*
X126864864Y-110490000D01*
X126853007Y-110369611D01*
X126947465Y-110388400D01*
X127052535Y-110388400D01*
X127146993Y-110369611D01*
X127135136Y-110490000D01*
X127156942Y-110711401D01*
X127221522Y-110924294D01*
X127326395Y-111120497D01*
X127467530Y-111292470D01*
X127639503Y-111433605D01*
X127835706Y-111538478D01*
X128048599Y-111603058D01*
X128214523Y-111619400D01*
X128325477Y-111619400D01*
X128491401Y-111603058D01*
X128704294Y-111538478D01*
X128900497Y-111433605D01*
X129072470Y-111292470D01*
X129213605Y-111120497D01*
X129318478Y-110924294D01*
X129383058Y-110711401D01*
X129404864Y-110490000D01*
X129393007Y-110369611D01*
X129487465Y-110388400D01*
X129592535Y-110388400D01*
X129686993Y-110369611D01*
X129675136Y-110490000D01*
X129696942Y-110711401D01*
X129761522Y-110924294D01*
X129866395Y-111120497D01*
X130007530Y-111292470D01*
X130179503Y-111433605D01*
X130375706Y-111538478D01*
X130588599Y-111603058D01*
X130754523Y-111619400D01*
X130865477Y-111619400D01*
X131031401Y-111603058D01*
X131244294Y-111538478D01*
X131440497Y-111433605D01*
X131612470Y-111292470D01*
X131753605Y-111120497D01*
X131858478Y-110924294D01*
X131923058Y-110711401D01*
X131944864Y-110490000D01*
X131933007Y-110369611D01*
X132027465Y-110388400D01*
X132132535Y-110388400D01*
X132226993Y-110369611D01*
X132215136Y-110490000D01*
X132236942Y-110711401D01*
X132301522Y-110924294D01*
X132406395Y-111120497D01*
X132547530Y-111292470D01*
X132719503Y-111433605D01*
X132915706Y-111538478D01*
X133128599Y-111603058D01*
X133294523Y-111619400D01*
X133405477Y-111619400D01*
X133571401Y-111603058D01*
X133784294Y-111538478D01*
X133980497Y-111433605D01*
X134152470Y-111292470D01*
X134293605Y-111120497D01*
X134398478Y-110924294D01*
X134463058Y-110711401D01*
X134484864Y-110490000D01*
X134473007Y-110369611D01*
X134567465Y-110388400D01*
X134672535Y-110388400D01*
X134766993Y-110369611D01*
X134755136Y-110490000D01*
X134776942Y-110711401D01*
X134841522Y-110924294D01*
X134946395Y-111120497D01*
X135087530Y-111292470D01*
X135259503Y-111433605D01*
X135455706Y-111538478D01*
X135668599Y-111603058D01*
X135834523Y-111619400D01*
X135945477Y-111619400D01*
X136111401Y-111603058D01*
X136324294Y-111538478D01*
X136520497Y-111433605D01*
X136692470Y-111292470D01*
X136805601Y-111154620D01*
X136805600Y-125065379D01*
X136692470Y-124927530D01*
X136520497Y-124786395D01*
X136324294Y-124681522D01*
X136111401Y-124616942D01*
X135945477Y-124600600D01*
X135834523Y-124600600D01*
X135668599Y-124616942D01*
X135455706Y-124681522D01*
X135259503Y-124786395D01*
X135087530Y-124927530D01*
X134946395Y-125099503D01*
X134841522Y-125295706D01*
X134776942Y-125508599D01*
X134755136Y-125730000D01*
X134766993Y-125850389D01*
X134672535Y-125831600D01*
X134567465Y-125831600D01*
X134473007Y-125850389D01*
X134484864Y-125730000D01*
X134463058Y-125508599D01*
X134398478Y-125295706D01*
X134293605Y-125099503D01*
X134152470Y-124927530D01*
X133980497Y-124786395D01*
X133784294Y-124681522D01*
X133571401Y-124616942D01*
X133405477Y-124600600D01*
X133294523Y-124600600D01*
X133128599Y-124616942D01*
X132915706Y-124681522D01*
X132719503Y-124786395D01*
X132547530Y-124927530D01*
X132406395Y-125099503D01*
X132301522Y-125295706D01*
X132236942Y-125508599D01*
X132215136Y-125730000D01*
X132226993Y-125850389D01*
X132132535Y-125831600D01*
X132027465Y-125831600D01*
X131933007Y-125850389D01*
X131944864Y-125730000D01*
X131923058Y-125508599D01*
X131858478Y-125295706D01*
X131753605Y-125099503D01*
X131612470Y-124927530D01*
X131440497Y-124786395D01*
X131244294Y-124681522D01*
X131031401Y-124616942D01*
X130865477Y-124600600D01*
X130754523Y-124600600D01*
X130588599Y-124616942D01*
X130375706Y-124681522D01*
X130179503Y-124786395D01*
X130007530Y-124927530D01*
X129866395Y-125099503D01*
X129761522Y-125295706D01*
X129696942Y-125508599D01*
X129675136Y-125730000D01*
X129686993Y-125850389D01*
X129592535Y-125831600D01*
X129487465Y-125831600D01*
X129393007Y-125850389D01*
X129404864Y-125730000D01*
X129383058Y-125508599D01*
X129318478Y-125295706D01*
X129213605Y-125099503D01*
X129072470Y-124927530D01*
X128900497Y-124786395D01*
X128704294Y-124681522D01*
X128491401Y-124616942D01*
X128325477Y-124600600D01*
X128214523Y-124600600D01*
X128048599Y-124616942D01*
X127835706Y-124681522D01*
X127639503Y-124786395D01*
X127467530Y-124927530D01*
X127326395Y-125099503D01*
X127221522Y-125295706D01*
X127156942Y-125508599D01*
X127135136Y-125730000D01*
X127146993Y-125850389D01*
X127052535Y-125831600D01*
X126947465Y-125831600D01*
X126853007Y-125850389D01*
X126864864Y-125730000D01*
X126843058Y-125508599D01*
X126778478Y-125295706D01*
X126673605Y-125099503D01*
X126532470Y-124927530D01*
X126360497Y-124786395D01*
X126164294Y-124681522D01*
X125951401Y-124616942D01*
X125785477Y-124600600D01*
X125674523Y-124600600D01*
X125508599Y-124616942D01*
X125295706Y-124681522D01*
X125099503Y-124786395D01*
X124927530Y-124927530D01*
X124786395Y-125099503D01*
X124681522Y-125295706D01*
X124616942Y-125508599D01*
X124595136Y-125730000D01*
X124606993Y-125850389D01*
X124512535Y-125831600D01*
X124407465Y-125831600D01*
X124313007Y-125850389D01*
X124324864Y-125730000D01*
X124303058Y-125508599D01*
X124238478Y-125295706D01*
X124133605Y-125099503D01*
X123992470Y-124927530D01*
X123820497Y-124786395D01*
X123624294Y-124681522D01*
X123411401Y-124616942D01*
X123245477Y-124600600D01*
X123134523Y-124600600D01*
X122968599Y-124616942D01*
X122755706Y-124681522D01*
X122559503Y-124786395D01*
X122387530Y-124927530D01*
X122246395Y-125099503D01*
X122141522Y-125295706D01*
X122076942Y-125508599D01*
X122055136Y-125730000D01*
X122066993Y-125850389D01*
X121972535Y-125831600D01*
X121867465Y-125831600D01*
X121773007Y-125850389D01*
X121784864Y-125730000D01*
X121763058Y-125508599D01*
X121698478Y-125295706D01*
X121593605Y-125099503D01*
X121452470Y-124927530D01*
X121280497Y-124786395D01*
X121084294Y-124681522D01*
X120871401Y-124616942D01*
X120705477Y-124600600D01*
X120594523Y-124600600D01*
X120428599Y-124616942D01*
X120215706Y-124681522D01*
X120019503Y-124786395D01*
X119847530Y-124927530D01*
X119706395Y-125099503D01*
X119601522Y-125295706D01*
X119536942Y-125508599D01*
X119515136Y-125730000D01*
X119526993Y-125850389D01*
X119432535Y-125831600D01*
X119327465Y-125831600D01*
X119233007Y-125850389D01*
X119244864Y-125730000D01*
X119223058Y-125508599D01*
X119158478Y-125295706D01*
X119053605Y-125099503D01*
X118912470Y-124927530D01*
X118740497Y-124786395D01*
X118544294Y-124681522D01*
X118331401Y-124616942D01*
X118165477Y-124600600D01*
X118054523Y-124600600D01*
X117888599Y-124616942D01*
X117675706Y-124681522D01*
X117479503Y-124786395D01*
X117307530Y-124927530D01*
X117166395Y-125099503D01*
X117061522Y-125295706D01*
X116996942Y-125508599D01*
X116975136Y-125730000D01*
X116986993Y-125850389D01*
X116892535Y-125831600D01*
X116787465Y-125831600D01*
X116693007Y-125850389D01*
X116704864Y-125730000D01*
X116683058Y-125508599D01*
X116618478Y-125295706D01*
X116513605Y-125099503D01*
X116372470Y-124927530D01*
X116200497Y-124786395D01*
X116004294Y-124681522D01*
X115791401Y-124616942D01*
X115625477Y-124600600D01*
X115514523Y-124600600D01*
X115348599Y-124616942D01*
X115135706Y-124681522D01*
X114939503Y-124786395D01*
X114767530Y-124927530D01*
X114626395Y-125099503D01*
X114521522Y-125295706D01*
X114456942Y-125508599D01*
X114435136Y-125730000D01*
X114446993Y-125850389D01*
X114352535Y-125831600D01*
X114247465Y-125831600D01*
X114153007Y-125850389D01*
X114164864Y-125730000D01*
X114143058Y-125508599D01*
X114078478Y-125295706D01*
X113973605Y-125099503D01*
X113832470Y-124927530D01*
X113660497Y-124786395D01*
X113464294Y-124681522D01*
X113251401Y-124616942D01*
X113085477Y-124600600D01*
X112974523Y-124600600D01*
X112808599Y-124616942D01*
X112595706Y-124681522D01*
X112399503Y-124786395D01*
X112227530Y-124927530D01*
X112086395Y-125099503D01*
X111981522Y-125295706D01*
X111916942Y-125508599D01*
X111895136Y-125730000D01*
X111906993Y-125850389D01*
X111812535Y-125831600D01*
X111707465Y-125831600D01*
X111613007Y-125850389D01*
X111624864Y-125730000D01*
X111603058Y-125508599D01*
X111538478Y-125295706D01*
X111433605Y-125099503D01*
X111292470Y-124927530D01*
X111120497Y-124786395D01*
X110924294Y-124681522D01*
X110711401Y-124616942D01*
X110545477Y-124600600D01*
X110434523Y-124600600D01*
X110268599Y-124616942D01*
X110055706Y-124681522D01*
X109859503Y-124786395D01*
X109687530Y-124927530D01*
X109546395Y-125099503D01*
X109441522Y-125295706D01*
X109376942Y-125508599D01*
X109355136Y-125730000D01*
X109366993Y-125850389D01*
X109272535Y-125831600D01*
X109167465Y-125831600D01*
X109064413Y-125852098D01*
X109006371Y-125876140D01*
X109002393Y-125857000D01*
X108077000Y-125857000D01*
X108077000Y-125877000D01*
X107823000Y-125877000D01*
X107823000Y-125857000D01*
X106897607Y-125857000D01*
X106893629Y-125876140D01*
X106835587Y-125852098D01*
X106732535Y-125831600D01*
X106627465Y-125831600D01*
X106533007Y-125850389D01*
X106544864Y-125730000D01*
X106523058Y-125508599D01*
X106498914Y-125429006D01*
X106861441Y-125429006D01*
X106897607Y-125603000D01*
X107823000Y-125603000D01*
X107823000Y-124678089D01*
X108077000Y-124678089D01*
X108077000Y-125603000D01*
X109002393Y-125603000D01*
X109038559Y-125429006D01*
X108958922Y-125222422D01*
X108840512Y-125035344D01*
X108687880Y-124874961D01*
X108506892Y-124747437D01*
X108304503Y-124657672D01*
X108250993Y-124641447D01*
X108077000Y-124678089D01*
X107823000Y-124678089D01*
X107649007Y-124641447D01*
X107595497Y-124657672D01*
X107393108Y-124747437D01*
X107212120Y-124874961D01*
X107059488Y-125035344D01*
X106941078Y-125222422D01*
X106861441Y-125429006D01*
X106498914Y-125429006D01*
X106458478Y-125295706D01*
X106353605Y-125099503D01*
X106212470Y-124927530D01*
X106040497Y-124786395D01*
X105844294Y-124681522D01*
X105631401Y-124616942D01*
X105465477Y-124600600D01*
X105354523Y-124600600D01*
X105188599Y-124616942D01*
X104975706Y-124681522D01*
X104779503Y-124786395D01*
X104607530Y-124927530D01*
X104466395Y-125099503D01*
X104361522Y-125295706D01*
X104296942Y-125508599D01*
X104275136Y-125730000D01*
X104296942Y-125951401D01*
X104361522Y-126164294D01*
X104384830Y-126207900D01*
X104332971Y-126304921D01*
X104292810Y-126437315D01*
X104279249Y-126575000D01*
X104279249Y-126645600D01*
X104000751Y-126645600D01*
X104000751Y-124880000D01*
X103995356Y-124825228D01*
X103979380Y-124772561D01*
X103953436Y-124724023D01*
X103918521Y-124681479D01*
X103875977Y-124646564D01*
X103827439Y-124620620D01*
X103774772Y-124604644D01*
X103720000Y-124599249D01*
X102020000Y-124599249D01*
X101965228Y-124604644D01*
X101954400Y-124607929D01*
X101954400Y-123297485D01*
X104559100Y-123297485D01*
X104559100Y-123402555D01*
X104579598Y-123505607D01*
X104619807Y-123602680D01*
X104678181Y-123690043D01*
X104752477Y-123764339D01*
X104839840Y-123822713D01*
X104936913Y-123862922D01*
X105039965Y-123883420D01*
X105145035Y-123883420D01*
X105248087Y-123862922D01*
X105345160Y-123822713D01*
X105432523Y-123764339D01*
X105506819Y-123690043D01*
X105565193Y-123602680D01*
X105605402Y-123505607D01*
X105625900Y-123402555D01*
X105625900Y-123297485D01*
X105605402Y-123194433D01*
X105565193Y-123097360D01*
X105506819Y-123009997D01*
X105476807Y-122979985D01*
X120032780Y-122979985D01*
X120032780Y-123085055D01*
X120053278Y-123188107D01*
X120093487Y-123285180D01*
X120151861Y-123372543D01*
X120226157Y-123446839D01*
X120313520Y-123505213D01*
X120410593Y-123545422D01*
X120513645Y-123565920D01*
X120618715Y-123565920D01*
X120721767Y-123545422D01*
X120818840Y-123505213D01*
X120906203Y-123446839D01*
X120980499Y-123372543D01*
X121038873Y-123285180D01*
X121079082Y-123188107D01*
X121099580Y-123085055D01*
X121099580Y-123033325D01*
X126768860Y-123033325D01*
X126768860Y-123138395D01*
X126789358Y-123241447D01*
X126829567Y-123338520D01*
X126887941Y-123425883D01*
X126962237Y-123500179D01*
X127049600Y-123558553D01*
X127146673Y-123598762D01*
X127249725Y-123619260D01*
X127354795Y-123619260D01*
X127457847Y-123598762D01*
X127554920Y-123558553D01*
X127642283Y-123500179D01*
X127716579Y-123425883D01*
X127774953Y-123338520D01*
X127815162Y-123241447D01*
X127835660Y-123138395D01*
X127835660Y-123033325D01*
X127815162Y-122930273D01*
X127774953Y-122833200D01*
X127716579Y-122745837D01*
X127642283Y-122671541D01*
X127554920Y-122613167D01*
X127457847Y-122572958D01*
X127354795Y-122552460D01*
X127249725Y-122552460D01*
X127146673Y-122572958D01*
X127049600Y-122613167D01*
X126962237Y-122671541D01*
X126887941Y-122745837D01*
X126829567Y-122833200D01*
X126789358Y-122930273D01*
X126768860Y-123033325D01*
X121099580Y-123033325D01*
X121099580Y-122979985D01*
X121079082Y-122876933D01*
X121038873Y-122779860D01*
X120980499Y-122692497D01*
X120906203Y-122618201D01*
X120818840Y-122559827D01*
X120721767Y-122519618D01*
X120618715Y-122499120D01*
X120513645Y-122499120D01*
X120410593Y-122519618D01*
X120313520Y-122559827D01*
X120226157Y-122618201D01*
X120151861Y-122692497D01*
X120093487Y-122779860D01*
X120053278Y-122876933D01*
X120032780Y-122979985D01*
X105476807Y-122979985D01*
X105432523Y-122935701D01*
X105345160Y-122877327D01*
X105248087Y-122837118D01*
X105145035Y-122816620D01*
X105039965Y-122816620D01*
X104936913Y-122837118D01*
X104839840Y-122877327D01*
X104752477Y-122935701D01*
X104678181Y-123009997D01*
X104619807Y-123097360D01*
X104579598Y-123194433D01*
X104559100Y-123297485D01*
X101954400Y-123297485D01*
X101954400Y-121265485D01*
X106258360Y-121265485D01*
X106258360Y-121370555D01*
X106278858Y-121473607D01*
X106319067Y-121570680D01*
X106377441Y-121658043D01*
X106451737Y-121732339D01*
X106539100Y-121790713D01*
X106636173Y-121830922D01*
X106739225Y-121851420D01*
X106844295Y-121851420D01*
X106947347Y-121830922D01*
X107044420Y-121790713D01*
X107131783Y-121732339D01*
X107164297Y-121699825D01*
X114289840Y-121699825D01*
X114289840Y-121804895D01*
X114310338Y-121907947D01*
X114350547Y-122005020D01*
X114408921Y-122092383D01*
X114483217Y-122166679D01*
X114570580Y-122225053D01*
X114667653Y-122265262D01*
X114770705Y-122285760D01*
X114875775Y-122285760D01*
X114978827Y-122265262D01*
X115075900Y-122225053D01*
X115163263Y-122166679D01*
X115237559Y-122092383D01*
X115295933Y-122005020D01*
X115336142Y-121907947D01*
X115356640Y-121804895D01*
X115356640Y-121699825D01*
X115336142Y-121596773D01*
X115295933Y-121499700D01*
X115249752Y-121430585D01*
X118244620Y-121430585D01*
X118244620Y-121535655D01*
X118265118Y-121638707D01*
X118305327Y-121735780D01*
X118363701Y-121823143D01*
X118437997Y-121897439D01*
X118525360Y-121955813D01*
X118622433Y-121996022D01*
X118725485Y-122016520D01*
X118830555Y-122016520D01*
X118933607Y-121996022D01*
X119030680Y-121955813D01*
X119071669Y-121928425D01*
X125161040Y-121928425D01*
X125161040Y-122033495D01*
X125181538Y-122136547D01*
X125221747Y-122233620D01*
X125280121Y-122320983D01*
X125354417Y-122395279D01*
X125441780Y-122453653D01*
X125538853Y-122493862D01*
X125641905Y-122514360D01*
X125746975Y-122514360D01*
X125850027Y-122493862D01*
X125915106Y-122466905D01*
X130797300Y-122466905D01*
X130797300Y-122571975D01*
X130817798Y-122675027D01*
X130858007Y-122772100D01*
X130916381Y-122859463D01*
X130990677Y-122933759D01*
X131078040Y-122992133D01*
X131175113Y-123032342D01*
X131278165Y-123052840D01*
X131383235Y-123052840D01*
X131486287Y-123032342D01*
X131583360Y-122992133D01*
X131670723Y-122933759D01*
X131745019Y-122859463D01*
X131803393Y-122772100D01*
X131843602Y-122675027D01*
X131864100Y-122571975D01*
X131864100Y-122466905D01*
X131843602Y-122363853D01*
X131803393Y-122266780D01*
X131745019Y-122179417D01*
X131670723Y-122105121D01*
X131583360Y-122046747D01*
X131486287Y-122006538D01*
X131383235Y-121986040D01*
X131278165Y-121986040D01*
X131175113Y-122006538D01*
X131078040Y-122046747D01*
X130990677Y-122105121D01*
X130916381Y-122179417D01*
X130858007Y-122266780D01*
X130817798Y-122363853D01*
X130797300Y-122466905D01*
X125915106Y-122466905D01*
X125947100Y-122453653D01*
X126034463Y-122395279D01*
X126108759Y-122320983D01*
X126167133Y-122233620D01*
X126207342Y-122136547D01*
X126227840Y-122033495D01*
X126227840Y-121976685D01*
X131818380Y-121976685D01*
X131818380Y-122081755D01*
X131838878Y-122184807D01*
X131879087Y-122281880D01*
X131937461Y-122369243D01*
X132011757Y-122443539D01*
X132099120Y-122501913D01*
X132196193Y-122542122D01*
X132299245Y-122562620D01*
X132404315Y-122562620D01*
X132507367Y-122542122D01*
X132604440Y-122501913D01*
X132691803Y-122443539D01*
X132766099Y-122369243D01*
X132824473Y-122281880D01*
X132864682Y-122184807D01*
X132885180Y-122081755D01*
X132885180Y-121994465D01*
X133816600Y-121994465D01*
X133816600Y-122099535D01*
X133837098Y-122202587D01*
X133877307Y-122299660D01*
X133935681Y-122387023D01*
X134009977Y-122461319D01*
X134097340Y-122519693D01*
X134194413Y-122559902D01*
X134297465Y-122580400D01*
X134402535Y-122580400D01*
X134505587Y-122559902D01*
X134602660Y-122519693D01*
X134690023Y-122461319D01*
X134764319Y-122387023D01*
X134822693Y-122299660D01*
X134862902Y-122202587D01*
X134883400Y-122099535D01*
X134883400Y-121994465D01*
X134862902Y-121891413D01*
X134822693Y-121794340D01*
X134764319Y-121706977D01*
X134690023Y-121632681D01*
X134602660Y-121574307D01*
X134505587Y-121534098D01*
X134402535Y-121513600D01*
X134297465Y-121513600D01*
X134194413Y-121534098D01*
X134097340Y-121574307D01*
X134009977Y-121632681D01*
X133935681Y-121706977D01*
X133877307Y-121794340D01*
X133837098Y-121891413D01*
X133816600Y-121994465D01*
X132885180Y-121994465D01*
X132885180Y-121976685D01*
X132864682Y-121873633D01*
X132824473Y-121776560D01*
X132766099Y-121689197D01*
X132691803Y-121614901D01*
X132604440Y-121556527D01*
X132507367Y-121516318D01*
X132404315Y-121495820D01*
X132299245Y-121495820D01*
X132196193Y-121516318D01*
X132099120Y-121556527D01*
X132011757Y-121614901D01*
X131937461Y-121689197D01*
X131879087Y-121776560D01*
X131838878Y-121873633D01*
X131818380Y-121976685D01*
X126227840Y-121976685D01*
X126227840Y-121928425D01*
X126207342Y-121825373D01*
X126167133Y-121728300D01*
X126108759Y-121640937D01*
X126034463Y-121566641D01*
X125947100Y-121508267D01*
X125850027Y-121468058D01*
X125746975Y-121447560D01*
X125641905Y-121447560D01*
X125538853Y-121468058D01*
X125441780Y-121508267D01*
X125354417Y-121566641D01*
X125280121Y-121640937D01*
X125221747Y-121728300D01*
X125181538Y-121825373D01*
X125161040Y-121928425D01*
X119071669Y-121928425D01*
X119118043Y-121897439D01*
X119192339Y-121823143D01*
X119250713Y-121735780D01*
X119290922Y-121638707D01*
X119311420Y-121535655D01*
X119311420Y-121430585D01*
X119290922Y-121327533D01*
X119275742Y-121290885D01*
X127167640Y-121290885D01*
X127167640Y-121395955D01*
X127188138Y-121499007D01*
X127228347Y-121596080D01*
X127286721Y-121683443D01*
X127361017Y-121757739D01*
X127448380Y-121816113D01*
X127545453Y-121856322D01*
X127648505Y-121876820D01*
X127753575Y-121876820D01*
X127856627Y-121856322D01*
X127953700Y-121816113D01*
X128041063Y-121757739D01*
X128115359Y-121683443D01*
X128173733Y-121596080D01*
X128213942Y-121499007D01*
X128234440Y-121395955D01*
X128234440Y-121290885D01*
X128213942Y-121187833D01*
X128173733Y-121090760D01*
X128115359Y-121003397D01*
X128041063Y-120929101D01*
X127953700Y-120870727D01*
X127856627Y-120830518D01*
X127753575Y-120810020D01*
X127648505Y-120810020D01*
X127545453Y-120830518D01*
X127448380Y-120870727D01*
X127361017Y-120929101D01*
X127286721Y-121003397D01*
X127228347Y-121090760D01*
X127188138Y-121187833D01*
X127167640Y-121290885D01*
X119275742Y-121290885D01*
X119250713Y-121230460D01*
X119192339Y-121143097D01*
X119118043Y-121068801D01*
X119030680Y-121010427D01*
X118933607Y-120970218D01*
X118830555Y-120949720D01*
X118725485Y-120949720D01*
X118622433Y-120970218D01*
X118525360Y-121010427D01*
X118437997Y-121068801D01*
X118363701Y-121143097D01*
X118305327Y-121230460D01*
X118265118Y-121327533D01*
X118244620Y-121430585D01*
X115249752Y-121430585D01*
X115237559Y-121412337D01*
X115163263Y-121338041D01*
X115075900Y-121279667D01*
X114978827Y-121239458D01*
X114875775Y-121218960D01*
X114770705Y-121218960D01*
X114667653Y-121239458D01*
X114570580Y-121279667D01*
X114483217Y-121338041D01*
X114408921Y-121412337D01*
X114350547Y-121499700D01*
X114310338Y-121596773D01*
X114289840Y-121699825D01*
X107164297Y-121699825D01*
X107206079Y-121658043D01*
X107264453Y-121570680D01*
X107304662Y-121473607D01*
X107325160Y-121370555D01*
X107325160Y-121265485D01*
X107304662Y-121162433D01*
X107271597Y-121082605D01*
X112242600Y-121082605D01*
X112242600Y-121187675D01*
X112263098Y-121290727D01*
X112303307Y-121387800D01*
X112361681Y-121475163D01*
X112435977Y-121549459D01*
X112523340Y-121607833D01*
X112620413Y-121648042D01*
X112723465Y-121668540D01*
X112828535Y-121668540D01*
X112931587Y-121648042D01*
X113028660Y-121607833D01*
X113116023Y-121549459D01*
X113190319Y-121475163D01*
X113248693Y-121387800D01*
X113288902Y-121290727D01*
X113309400Y-121187675D01*
X113309400Y-121082605D01*
X113288902Y-120979553D01*
X113248693Y-120882480D01*
X113190319Y-120795117D01*
X113116023Y-120720821D01*
X113028660Y-120662447D01*
X112931587Y-120622238D01*
X112828535Y-120601740D01*
X112723465Y-120601740D01*
X112620413Y-120622238D01*
X112523340Y-120662447D01*
X112435977Y-120720821D01*
X112361681Y-120795117D01*
X112303307Y-120882480D01*
X112263098Y-120979553D01*
X112242600Y-121082605D01*
X107271597Y-121082605D01*
X107264453Y-121065360D01*
X107206079Y-120977997D01*
X107131783Y-120903701D01*
X107044420Y-120845327D01*
X106947347Y-120805118D01*
X106844295Y-120784620D01*
X106739225Y-120784620D01*
X106636173Y-120805118D01*
X106539100Y-120845327D01*
X106451737Y-120903701D01*
X106377441Y-120977997D01*
X106319067Y-121065360D01*
X106278858Y-121162433D01*
X106258360Y-121265485D01*
X101954400Y-121265485D01*
X101954400Y-120051365D01*
X103398320Y-120051365D01*
X103398320Y-120156435D01*
X103418818Y-120259487D01*
X103459027Y-120356560D01*
X103517401Y-120443923D01*
X103591697Y-120518219D01*
X103679060Y-120576593D01*
X103776133Y-120616802D01*
X103879185Y-120637300D01*
X103984255Y-120637300D01*
X104087307Y-120616802D01*
X104184380Y-120576593D01*
X104271743Y-120518219D01*
X104346039Y-120443923D01*
X104404413Y-120356560D01*
X104444622Y-120259487D01*
X104465120Y-120156435D01*
X104465120Y-120051365D01*
X104444622Y-119948313D01*
X104404413Y-119851240D01*
X104346039Y-119763877D01*
X104271743Y-119689581D01*
X104184380Y-119631207D01*
X104087307Y-119590998D01*
X103984255Y-119570500D01*
X103879185Y-119570500D01*
X103776133Y-119590998D01*
X103679060Y-119631207D01*
X103591697Y-119689581D01*
X103517401Y-119763877D01*
X103459027Y-119851240D01*
X103418818Y-119948313D01*
X103398320Y-120051365D01*
X101954400Y-120051365D01*
X101954400Y-119078545D01*
X105592880Y-119078545D01*
X105592880Y-119183615D01*
X105613378Y-119286667D01*
X105653587Y-119383740D01*
X105711961Y-119471103D01*
X105786257Y-119545399D01*
X105873620Y-119603773D01*
X105970693Y-119643982D01*
X106073745Y-119664480D01*
X106178815Y-119664480D01*
X106281867Y-119643982D01*
X106378940Y-119603773D01*
X106466303Y-119545399D01*
X106540599Y-119471103D01*
X106598973Y-119383740D01*
X106639182Y-119286667D01*
X106659680Y-119183615D01*
X106659680Y-119078545D01*
X106653618Y-119048065D01*
X117066060Y-119048065D01*
X117066060Y-119153135D01*
X117086558Y-119256187D01*
X117126767Y-119353260D01*
X117185141Y-119440623D01*
X117259437Y-119514919D01*
X117346800Y-119573293D01*
X117443873Y-119613502D01*
X117546925Y-119634000D01*
X117651995Y-119634000D01*
X117755047Y-119613502D01*
X117852120Y-119573293D01*
X117890774Y-119547465D01*
X122096600Y-119547465D01*
X122096600Y-119652535D01*
X122117098Y-119755587D01*
X122157307Y-119852660D01*
X122215681Y-119940023D01*
X122289977Y-120014319D01*
X122377340Y-120072693D01*
X122474413Y-120112902D01*
X122577465Y-120133400D01*
X122682535Y-120133400D01*
X122785587Y-120112902D01*
X122882660Y-120072693D01*
X122970023Y-120014319D01*
X123044319Y-119940023D01*
X123102693Y-119852660D01*
X123142902Y-119755587D01*
X123163400Y-119652535D01*
X123163400Y-119547465D01*
X123206600Y-119547465D01*
X123206600Y-119652535D01*
X123227098Y-119755587D01*
X123267307Y-119852660D01*
X123325681Y-119940023D01*
X123399977Y-120014319D01*
X123487340Y-120072693D01*
X123584413Y-120112902D01*
X123687465Y-120133400D01*
X123792535Y-120133400D01*
X123895587Y-120112902D01*
X123992660Y-120072693D01*
X124080023Y-120014319D01*
X124154319Y-119940023D01*
X124212693Y-119852660D01*
X124252902Y-119755587D01*
X124273400Y-119652535D01*
X124273400Y-119547465D01*
X124326600Y-119547465D01*
X124326600Y-119652535D01*
X124347098Y-119755587D01*
X124387307Y-119852660D01*
X124445681Y-119940023D01*
X124519977Y-120014319D01*
X124607340Y-120072693D01*
X124704413Y-120112902D01*
X124807465Y-120133400D01*
X124912535Y-120133400D01*
X125015587Y-120112902D01*
X125112660Y-120072693D01*
X125200023Y-120014319D01*
X125274319Y-119940023D01*
X125332693Y-119852660D01*
X125372902Y-119755587D01*
X125393400Y-119652535D01*
X125393400Y-119547465D01*
X125436600Y-119547465D01*
X125436600Y-119652535D01*
X125457098Y-119755587D01*
X125497307Y-119852660D01*
X125555681Y-119940023D01*
X125629977Y-120014319D01*
X125717340Y-120072693D01*
X125814413Y-120112902D01*
X125917465Y-120133400D01*
X126022535Y-120133400D01*
X126125587Y-120112902D01*
X126222660Y-120072693D01*
X126235572Y-120064065D01*
X134835900Y-120064065D01*
X134835900Y-120169135D01*
X134856398Y-120272187D01*
X134896607Y-120369260D01*
X134954981Y-120456623D01*
X135029277Y-120530919D01*
X135116640Y-120589293D01*
X135213713Y-120629502D01*
X135316765Y-120650000D01*
X135421835Y-120650000D01*
X135524887Y-120629502D01*
X135621960Y-120589293D01*
X135709323Y-120530919D01*
X135783619Y-120456623D01*
X135841993Y-120369260D01*
X135882202Y-120272187D01*
X135902700Y-120169135D01*
X135902700Y-120064065D01*
X135882202Y-119961013D01*
X135841993Y-119863940D01*
X135783619Y-119776577D01*
X135709323Y-119702281D01*
X135621960Y-119643907D01*
X135524887Y-119603698D01*
X135421835Y-119583200D01*
X135316765Y-119583200D01*
X135213713Y-119603698D01*
X135116640Y-119643907D01*
X135029277Y-119702281D01*
X134954981Y-119776577D01*
X134896607Y-119863940D01*
X134856398Y-119961013D01*
X134835900Y-120064065D01*
X126235572Y-120064065D01*
X126310023Y-120014319D01*
X126384319Y-119940023D01*
X126442693Y-119852660D01*
X126482902Y-119755587D01*
X126503400Y-119652535D01*
X126503400Y-119547465D01*
X126482902Y-119444413D01*
X126442693Y-119347340D01*
X126384319Y-119259977D01*
X126310023Y-119185681D01*
X126222660Y-119127307D01*
X126125587Y-119087098D01*
X126022535Y-119066600D01*
X125917465Y-119066600D01*
X125814413Y-119087098D01*
X125717340Y-119127307D01*
X125629977Y-119185681D01*
X125555681Y-119259977D01*
X125497307Y-119347340D01*
X125457098Y-119444413D01*
X125436600Y-119547465D01*
X125393400Y-119547465D01*
X125372902Y-119444413D01*
X125332693Y-119347340D01*
X125274319Y-119259977D01*
X125200023Y-119185681D01*
X125112660Y-119127307D01*
X125015587Y-119087098D01*
X124912535Y-119066600D01*
X124807465Y-119066600D01*
X124704413Y-119087098D01*
X124607340Y-119127307D01*
X124519977Y-119185681D01*
X124445681Y-119259977D01*
X124387307Y-119347340D01*
X124347098Y-119444413D01*
X124326600Y-119547465D01*
X124273400Y-119547465D01*
X124252902Y-119444413D01*
X124212693Y-119347340D01*
X124154319Y-119259977D01*
X124080023Y-119185681D01*
X123992660Y-119127307D01*
X123895587Y-119087098D01*
X123792535Y-119066600D01*
X123687465Y-119066600D01*
X123584413Y-119087098D01*
X123487340Y-119127307D01*
X123399977Y-119185681D01*
X123325681Y-119259977D01*
X123267307Y-119347340D01*
X123227098Y-119444413D01*
X123206600Y-119547465D01*
X123163400Y-119547465D01*
X123142902Y-119444413D01*
X123102693Y-119347340D01*
X123044319Y-119259977D01*
X122970023Y-119185681D01*
X122882660Y-119127307D01*
X122785587Y-119087098D01*
X122682535Y-119066600D01*
X122577465Y-119066600D01*
X122474413Y-119087098D01*
X122377340Y-119127307D01*
X122289977Y-119185681D01*
X122215681Y-119259977D01*
X122157307Y-119347340D01*
X122117098Y-119444413D01*
X122096600Y-119547465D01*
X117890774Y-119547465D01*
X117939483Y-119514919D01*
X118013779Y-119440623D01*
X118072153Y-119353260D01*
X118112362Y-119256187D01*
X118132860Y-119153135D01*
X118132860Y-119048065D01*
X118112362Y-118945013D01*
X118072153Y-118847940D01*
X118013779Y-118760577D01*
X117939483Y-118686281D01*
X117852120Y-118627907D01*
X117755047Y-118587698D01*
X117651995Y-118567200D01*
X117546925Y-118567200D01*
X117443873Y-118587698D01*
X117346800Y-118627907D01*
X117259437Y-118686281D01*
X117185141Y-118760577D01*
X117126767Y-118847940D01*
X117086558Y-118945013D01*
X117066060Y-119048065D01*
X106653618Y-119048065D01*
X106639182Y-118975493D01*
X106598973Y-118878420D01*
X106540599Y-118791057D01*
X106466303Y-118716761D01*
X106378940Y-118658387D01*
X106281867Y-118618178D01*
X106178815Y-118597680D01*
X106073745Y-118597680D01*
X105970693Y-118618178D01*
X105873620Y-118658387D01*
X105786257Y-118716761D01*
X105711961Y-118791057D01*
X105653587Y-118878420D01*
X105613378Y-118975493D01*
X105592880Y-119078545D01*
X101954400Y-119078545D01*
X101954400Y-116899225D01*
X106276140Y-116899225D01*
X106276140Y-117004295D01*
X106296638Y-117107347D01*
X106336847Y-117204420D01*
X106395221Y-117291783D01*
X106469517Y-117366079D01*
X106556880Y-117424453D01*
X106653953Y-117464662D01*
X106757005Y-117485160D01*
X106862075Y-117485160D01*
X106965127Y-117464662D01*
X107062200Y-117424453D01*
X107149563Y-117366079D01*
X107223859Y-117291783D01*
X107282233Y-117204420D01*
X107322442Y-117107347D01*
X107331663Y-117060988D01*
X113798110Y-117060988D01*
X113798110Y-117166058D01*
X113818608Y-117269110D01*
X113858817Y-117366183D01*
X113917191Y-117453546D01*
X113991487Y-117527842D01*
X114078850Y-117586216D01*
X114175923Y-117626425D01*
X114278975Y-117646923D01*
X114384045Y-117646923D01*
X114452210Y-117633364D01*
X114442577Y-117639801D01*
X114368281Y-117714097D01*
X114309907Y-117801460D01*
X114269698Y-117898533D01*
X114249200Y-118001585D01*
X114249200Y-118106655D01*
X114269698Y-118209707D01*
X114309907Y-118306780D01*
X114368281Y-118394143D01*
X114442577Y-118468439D01*
X114529940Y-118526813D01*
X114627013Y-118567022D01*
X114730065Y-118587520D01*
X114835135Y-118587520D01*
X114938187Y-118567022D01*
X115035260Y-118526813D01*
X115122623Y-118468439D01*
X115153597Y-118437465D01*
X122086600Y-118437465D01*
X122086600Y-118542535D01*
X122107098Y-118645587D01*
X122147307Y-118742660D01*
X122205681Y-118830023D01*
X122279977Y-118904319D01*
X122367340Y-118962693D01*
X122464413Y-119002902D01*
X122567465Y-119023400D01*
X122672535Y-119023400D01*
X122775587Y-119002902D01*
X122872660Y-118962693D01*
X122960023Y-118904319D01*
X123034319Y-118830023D01*
X123092693Y-118742660D01*
X123132902Y-118645587D01*
X123153400Y-118542535D01*
X123153400Y-118437465D01*
X123206600Y-118437465D01*
X123206600Y-118542535D01*
X123227098Y-118645587D01*
X123267307Y-118742660D01*
X123325681Y-118830023D01*
X123399977Y-118904319D01*
X123487340Y-118962693D01*
X123584413Y-119002902D01*
X123687465Y-119023400D01*
X123792535Y-119023400D01*
X123895587Y-119002902D01*
X123992660Y-118962693D01*
X124080023Y-118904319D01*
X124154319Y-118830023D01*
X124212693Y-118742660D01*
X124252902Y-118645587D01*
X124273400Y-118542535D01*
X124273400Y-118437465D01*
X124316600Y-118437465D01*
X124316600Y-118542535D01*
X124337098Y-118645587D01*
X124377307Y-118742660D01*
X124435681Y-118830023D01*
X124509977Y-118904319D01*
X124597340Y-118962693D01*
X124694413Y-119002902D01*
X124797465Y-119023400D01*
X124902535Y-119023400D01*
X125005587Y-119002902D01*
X125102660Y-118962693D01*
X125190023Y-118904319D01*
X125264319Y-118830023D01*
X125322693Y-118742660D01*
X125362902Y-118645587D01*
X125383400Y-118542535D01*
X125383400Y-118437465D01*
X125426600Y-118437465D01*
X125426600Y-118542535D01*
X125447098Y-118645587D01*
X125487307Y-118742660D01*
X125545681Y-118830023D01*
X125619977Y-118904319D01*
X125707340Y-118962693D01*
X125804413Y-119002902D01*
X125907465Y-119023400D01*
X126012535Y-119023400D01*
X126115587Y-119002902D01*
X126123063Y-118999805D01*
X128879600Y-118999805D01*
X128879600Y-119104875D01*
X128900098Y-119207927D01*
X128940307Y-119305000D01*
X128998681Y-119392363D01*
X129072977Y-119466659D01*
X129160340Y-119525033D01*
X129257413Y-119565242D01*
X129360465Y-119585740D01*
X129465535Y-119585740D01*
X129568587Y-119565242D01*
X129665660Y-119525033D01*
X129753023Y-119466659D01*
X129795270Y-119424412D01*
X129824817Y-119453959D01*
X129912180Y-119512333D01*
X130009253Y-119552542D01*
X130112305Y-119573040D01*
X130217375Y-119573040D01*
X130320427Y-119552542D01*
X130417500Y-119512333D01*
X130504863Y-119453959D01*
X130579159Y-119379663D01*
X130637533Y-119292300D01*
X130677742Y-119195227D01*
X130698240Y-119092175D01*
X130698240Y-118987105D01*
X130696220Y-118976945D01*
X131808220Y-118976945D01*
X131808220Y-119082015D01*
X131828718Y-119185067D01*
X131868927Y-119282140D01*
X131927301Y-119369503D01*
X132001597Y-119443799D01*
X132088960Y-119502173D01*
X132186033Y-119542382D01*
X132289085Y-119562880D01*
X132394155Y-119562880D01*
X132497207Y-119542382D01*
X132594280Y-119502173D01*
X132681643Y-119443799D01*
X132755939Y-119369503D01*
X132814313Y-119282140D01*
X132854522Y-119185067D01*
X132875020Y-119082015D01*
X132875020Y-118976945D01*
X132854522Y-118873893D01*
X132814313Y-118776820D01*
X132755939Y-118689457D01*
X132681643Y-118615161D01*
X132594280Y-118556787D01*
X132497207Y-118516578D01*
X132394155Y-118496080D01*
X132289085Y-118496080D01*
X132186033Y-118516578D01*
X132088960Y-118556787D01*
X132001597Y-118615161D01*
X131927301Y-118689457D01*
X131868927Y-118776820D01*
X131828718Y-118873893D01*
X131808220Y-118976945D01*
X130696220Y-118976945D01*
X130677742Y-118884053D01*
X130637533Y-118786980D01*
X130579159Y-118699617D01*
X130504863Y-118625321D01*
X130417500Y-118566947D01*
X130320427Y-118526738D01*
X130217375Y-118506240D01*
X130112305Y-118506240D01*
X130009253Y-118526738D01*
X129912180Y-118566947D01*
X129824817Y-118625321D01*
X129782570Y-118667568D01*
X129753023Y-118638021D01*
X129665660Y-118579647D01*
X129568587Y-118539438D01*
X129465535Y-118518940D01*
X129360465Y-118518940D01*
X129257413Y-118539438D01*
X129160340Y-118579647D01*
X129072977Y-118638021D01*
X128998681Y-118712317D01*
X128940307Y-118799680D01*
X128900098Y-118896753D01*
X128879600Y-118999805D01*
X126123063Y-118999805D01*
X126212660Y-118962693D01*
X126300023Y-118904319D01*
X126374319Y-118830023D01*
X126432693Y-118742660D01*
X126472902Y-118645587D01*
X126493400Y-118542535D01*
X126493400Y-118437465D01*
X126472902Y-118334413D01*
X126432693Y-118237340D01*
X126374319Y-118149977D01*
X126300023Y-118075681D01*
X126212660Y-118017307D01*
X126115587Y-117977098D01*
X126012535Y-117956600D01*
X125907465Y-117956600D01*
X125804413Y-117977098D01*
X125707340Y-118017307D01*
X125619977Y-118075681D01*
X125545681Y-118149977D01*
X125487307Y-118237340D01*
X125447098Y-118334413D01*
X125426600Y-118437465D01*
X125383400Y-118437465D01*
X125362902Y-118334413D01*
X125322693Y-118237340D01*
X125264319Y-118149977D01*
X125190023Y-118075681D01*
X125102660Y-118017307D01*
X125005587Y-117977098D01*
X124902535Y-117956600D01*
X124797465Y-117956600D01*
X124694413Y-117977098D01*
X124597340Y-118017307D01*
X124509977Y-118075681D01*
X124435681Y-118149977D01*
X124377307Y-118237340D01*
X124337098Y-118334413D01*
X124316600Y-118437465D01*
X124273400Y-118437465D01*
X124252902Y-118334413D01*
X124212693Y-118237340D01*
X124154319Y-118149977D01*
X124080023Y-118075681D01*
X123992660Y-118017307D01*
X123895587Y-117977098D01*
X123792535Y-117956600D01*
X123687465Y-117956600D01*
X123584413Y-117977098D01*
X123487340Y-118017307D01*
X123399977Y-118075681D01*
X123325681Y-118149977D01*
X123267307Y-118237340D01*
X123227098Y-118334413D01*
X123206600Y-118437465D01*
X123153400Y-118437465D01*
X123132902Y-118334413D01*
X123092693Y-118237340D01*
X123034319Y-118149977D01*
X122960023Y-118075681D01*
X122872660Y-118017307D01*
X122775587Y-117977098D01*
X122672535Y-117956600D01*
X122567465Y-117956600D01*
X122464413Y-117977098D01*
X122367340Y-118017307D01*
X122279977Y-118075681D01*
X122205681Y-118149977D01*
X122147307Y-118237340D01*
X122107098Y-118334413D01*
X122086600Y-118437465D01*
X115153597Y-118437465D01*
X115196919Y-118394143D01*
X115255293Y-118306780D01*
X115295502Y-118209707D01*
X115316000Y-118106655D01*
X115316000Y-118001585D01*
X115295502Y-117898533D01*
X115255293Y-117801460D01*
X115196919Y-117714097D01*
X115159287Y-117676465D01*
X119921020Y-117676465D01*
X119921020Y-117781535D01*
X119941518Y-117884587D01*
X119981727Y-117981660D01*
X120040101Y-118069023D01*
X120114397Y-118143319D01*
X120201760Y-118201693D01*
X120298833Y-118241902D01*
X120401885Y-118262400D01*
X120506955Y-118262400D01*
X120610007Y-118241902D01*
X120707080Y-118201693D01*
X120794443Y-118143319D01*
X120868739Y-118069023D01*
X120927113Y-117981660D01*
X120967322Y-117884587D01*
X120987820Y-117781535D01*
X120987820Y-117676465D01*
X120967322Y-117573413D01*
X120927113Y-117476340D01*
X120868739Y-117388977D01*
X120797227Y-117317465D01*
X122096600Y-117317465D01*
X122096600Y-117422535D01*
X122117098Y-117525587D01*
X122157307Y-117622660D01*
X122215681Y-117710023D01*
X122289977Y-117784319D01*
X122377340Y-117842693D01*
X122474413Y-117882902D01*
X122577465Y-117903400D01*
X122682535Y-117903400D01*
X122785587Y-117882902D01*
X122882660Y-117842693D01*
X122970023Y-117784319D01*
X123044319Y-117710023D01*
X123102693Y-117622660D01*
X123142902Y-117525587D01*
X123163400Y-117422535D01*
X123163400Y-117317465D01*
X123206600Y-117317465D01*
X123206600Y-117422535D01*
X123227098Y-117525587D01*
X123267307Y-117622660D01*
X123325681Y-117710023D01*
X123399977Y-117784319D01*
X123487340Y-117842693D01*
X123584413Y-117882902D01*
X123687465Y-117903400D01*
X123792535Y-117903400D01*
X123895587Y-117882902D01*
X123992660Y-117842693D01*
X124080023Y-117784319D01*
X124154319Y-117710023D01*
X124212693Y-117622660D01*
X124252902Y-117525587D01*
X124273400Y-117422535D01*
X124273400Y-117317465D01*
X124316600Y-117317465D01*
X124316600Y-117422535D01*
X124337098Y-117525587D01*
X124377307Y-117622660D01*
X124435681Y-117710023D01*
X124509977Y-117784319D01*
X124597340Y-117842693D01*
X124694413Y-117882902D01*
X124797465Y-117903400D01*
X124902535Y-117903400D01*
X125005587Y-117882902D01*
X125102660Y-117842693D01*
X125190023Y-117784319D01*
X125264319Y-117710023D01*
X125322693Y-117622660D01*
X125362902Y-117525587D01*
X125383400Y-117422535D01*
X125383400Y-117327465D01*
X125426600Y-117327465D01*
X125426600Y-117432535D01*
X125447098Y-117535587D01*
X125487307Y-117632660D01*
X125545681Y-117720023D01*
X125619977Y-117794319D01*
X125707340Y-117852693D01*
X125804413Y-117892902D01*
X125907465Y-117913400D01*
X126012535Y-117913400D01*
X126115587Y-117892902D01*
X126212660Y-117852693D01*
X126300023Y-117794319D01*
X126374319Y-117720023D01*
X126432693Y-117632660D01*
X126472902Y-117535587D01*
X126493400Y-117432535D01*
X126493400Y-117327465D01*
X126472902Y-117224413D01*
X126432693Y-117127340D01*
X126374319Y-117039977D01*
X126300023Y-116965681D01*
X126212660Y-116907307D01*
X126115587Y-116867098D01*
X126012535Y-116846600D01*
X125907465Y-116846600D01*
X125804413Y-116867098D01*
X125707340Y-116907307D01*
X125619977Y-116965681D01*
X125545681Y-117039977D01*
X125487307Y-117127340D01*
X125447098Y-117224413D01*
X125426600Y-117327465D01*
X125383400Y-117327465D01*
X125383400Y-117317465D01*
X125362902Y-117214413D01*
X125322693Y-117117340D01*
X125264319Y-117029977D01*
X125190023Y-116955681D01*
X125102660Y-116897307D01*
X125005587Y-116857098D01*
X124902535Y-116836600D01*
X124797465Y-116836600D01*
X124694413Y-116857098D01*
X124597340Y-116897307D01*
X124509977Y-116955681D01*
X124435681Y-117029977D01*
X124377307Y-117117340D01*
X124337098Y-117214413D01*
X124316600Y-117317465D01*
X124273400Y-117317465D01*
X124252902Y-117214413D01*
X124212693Y-117117340D01*
X124154319Y-117029977D01*
X124080023Y-116955681D01*
X123992660Y-116897307D01*
X123895587Y-116857098D01*
X123792535Y-116836600D01*
X123687465Y-116836600D01*
X123584413Y-116857098D01*
X123487340Y-116897307D01*
X123399977Y-116955681D01*
X123325681Y-117029977D01*
X123267307Y-117117340D01*
X123227098Y-117214413D01*
X123206600Y-117317465D01*
X123163400Y-117317465D01*
X123142902Y-117214413D01*
X123102693Y-117117340D01*
X123044319Y-117029977D01*
X122970023Y-116955681D01*
X122882660Y-116897307D01*
X122785587Y-116857098D01*
X122682535Y-116836600D01*
X122577465Y-116836600D01*
X122474413Y-116857098D01*
X122377340Y-116897307D01*
X122289977Y-116955681D01*
X122215681Y-117029977D01*
X122157307Y-117117340D01*
X122117098Y-117214413D01*
X122096600Y-117317465D01*
X120797227Y-117317465D01*
X120794443Y-117314681D01*
X120707080Y-117256307D01*
X120610007Y-117216098D01*
X120506955Y-117195600D01*
X120401885Y-117195600D01*
X120298833Y-117216098D01*
X120201760Y-117256307D01*
X120114397Y-117314681D01*
X120040101Y-117388977D01*
X119981727Y-117476340D01*
X119941518Y-117573413D01*
X119921020Y-117676465D01*
X115159287Y-117676465D01*
X115122623Y-117639801D01*
X115035260Y-117581427D01*
X114938187Y-117541218D01*
X114835135Y-117520720D01*
X114730065Y-117520720D01*
X114661900Y-117534279D01*
X114671533Y-117527842D01*
X114745829Y-117453546D01*
X114804203Y-117366183D01*
X114844412Y-117269110D01*
X114864910Y-117166058D01*
X114864910Y-117060988D01*
X114844412Y-116957936D01*
X114804203Y-116860863D01*
X114745829Y-116773500D01*
X114671533Y-116699204D01*
X114584170Y-116640830D01*
X114487097Y-116600621D01*
X114384045Y-116580123D01*
X114278975Y-116580123D01*
X114175923Y-116600621D01*
X114078850Y-116640830D01*
X113991487Y-116699204D01*
X113917191Y-116773500D01*
X113858817Y-116860863D01*
X113818608Y-116957936D01*
X113798110Y-117060988D01*
X107331663Y-117060988D01*
X107342940Y-117004295D01*
X107342940Y-116899225D01*
X107322442Y-116796173D01*
X107282233Y-116699100D01*
X107223859Y-116611737D01*
X107149563Y-116537441D01*
X107062200Y-116479067D01*
X106965127Y-116438858D01*
X106862075Y-116418360D01*
X106757005Y-116418360D01*
X106653953Y-116438858D01*
X106556880Y-116479067D01*
X106469517Y-116537441D01*
X106395221Y-116611737D01*
X106336847Y-116699100D01*
X106296638Y-116796173D01*
X106276140Y-116899225D01*
X101954400Y-116899225D01*
X101954400Y-115669865D01*
X103436420Y-115669865D01*
X103436420Y-115774935D01*
X103456918Y-115877987D01*
X103497127Y-115975060D01*
X103555501Y-116062423D01*
X103629797Y-116136719D01*
X103717160Y-116195093D01*
X103814233Y-116235302D01*
X103917285Y-116255800D01*
X104022355Y-116255800D01*
X104125407Y-116235302D01*
X104168469Y-116217465D01*
X122096600Y-116217465D01*
X122096600Y-116322535D01*
X122117098Y-116425587D01*
X122157307Y-116522660D01*
X122215681Y-116610023D01*
X122289977Y-116684319D01*
X122377340Y-116742693D01*
X122474413Y-116782902D01*
X122577465Y-116803400D01*
X122682535Y-116803400D01*
X122785587Y-116782902D01*
X122882660Y-116742693D01*
X122970023Y-116684319D01*
X123044319Y-116610023D01*
X123102693Y-116522660D01*
X123142902Y-116425587D01*
X123163400Y-116322535D01*
X123163400Y-116217465D01*
X123206600Y-116217465D01*
X123206600Y-116322535D01*
X123227098Y-116425587D01*
X123267307Y-116522660D01*
X123325681Y-116610023D01*
X123399977Y-116684319D01*
X123487340Y-116742693D01*
X123584413Y-116782902D01*
X123687465Y-116803400D01*
X123792535Y-116803400D01*
X123895587Y-116782902D01*
X123992660Y-116742693D01*
X124080023Y-116684319D01*
X124154319Y-116610023D01*
X124212693Y-116522660D01*
X124252902Y-116425587D01*
X124273400Y-116322535D01*
X124273400Y-116217465D01*
X124271411Y-116207465D01*
X124316600Y-116207465D01*
X124316600Y-116312535D01*
X124337098Y-116415587D01*
X124377307Y-116512660D01*
X124435681Y-116600023D01*
X124509977Y-116674319D01*
X124597340Y-116732693D01*
X124694413Y-116772902D01*
X124797465Y-116793400D01*
X124902535Y-116793400D01*
X125005587Y-116772902D01*
X125102660Y-116732693D01*
X125190023Y-116674319D01*
X125264319Y-116600023D01*
X125322693Y-116512660D01*
X125362902Y-116415587D01*
X125383400Y-116312535D01*
X125383400Y-116207465D01*
X125426600Y-116207465D01*
X125426600Y-116312535D01*
X125447098Y-116415587D01*
X125487307Y-116512660D01*
X125545681Y-116600023D01*
X125619977Y-116674319D01*
X125707340Y-116732693D01*
X125804413Y-116772902D01*
X125907465Y-116793400D01*
X126012535Y-116793400D01*
X126115587Y-116772902D01*
X126212660Y-116732693D01*
X126300023Y-116674319D01*
X126374319Y-116600023D01*
X126432693Y-116512660D01*
X126472902Y-116415587D01*
X126490378Y-116327725D01*
X129631442Y-116327725D01*
X129631442Y-116432795D01*
X129651940Y-116535847D01*
X129692149Y-116632920D01*
X129750523Y-116720283D01*
X129824819Y-116794579D01*
X129912182Y-116852953D01*
X130009255Y-116893162D01*
X130112307Y-116913660D01*
X130217377Y-116913660D01*
X130320429Y-116893162D01*
X130417502Y-116852953D01*
X130504865Y-116794579D01*
X130579161Y-116720283D01*
X130637535Y-116632920D01*
X130677744Y-116535847D01*
X130698242Y-116432795D01*
X130698242Y-116327725D01*
X130686117Y-116266765D01*
X130738880Y-116266765D01*
X130738880Y-116371835D01*
X130759378Y-116474887D01*
X130799587Y-116571960D01*
X130857961Y-116659323D01*
X130932257Y-116733619D01*
X131019620Y-116791993D01*
X131116693Y-116832202D01*
X131219745Y-116852700D01*
X131324815Y-116852700D01*
X131427867Y-116832202D01*
X131524940Y-116791993D01*
X131612303Y-116733619D01*
X131686599Y-116659323D01*
X131744973Y-116571960D01*
X131785182Y-116474887D01*
X131805680Y-116371835D01*
X131805680Y-116266765D01*
X131785182Y-116163713D01*
X131744973Y-116066640D01*
X131686599Y-115979277D01*
X131612303Y-115904981D01*
X131524940Y-115846607D01*
X131427867Y-115806398D01*
X131324815Y-115785900D01*
X131219745Y-115785900D01*
X131116693Y-115806398D01*
X131019620Y-115846607D01*
X130932257Y-115904981D01*
X130857961Y-115979277D01*
X130799587Y-116066640D01*
X130759378Y-116163713D01*
X130738880Y-116266765D01*
X130686117Y-116266765D01*
X130677744Y-116224673D01*
X130637535Y-116127600D01*
X130579161Y-116040237D01*
X130504865Y-115965941D01*
X130417502Y-115907567D01*
X130320429Y-115867358D01*
X130217377Y-115846860D01*
X130112307Y-115846860D01*
X130009255Y-115867358D01*
X129912182Y-115907567D01*
X129824819Y-115965941D01*
X129750523Y-116040237D01*
X129692149Y-116127600D01*
X129651940Y-116224673D01*
X129631442Y-116327725D01*
X126490378Y-116327725D01*
X126493400Y-116312535D01*
X126493400Y-116207465D01*
X126472902Y-116104413D01*
X126432693Y-116007340D01*
X126374319Y-115919977D01*
X126300023Y-115845681D01*
X126212660Y-115787307D01*
X126115587Y-115747098D01*
X126012535Y-115726600D01*
X125907465Y-115726600D01*
X125804413Y-115747098D01*
X125707340Y-115787307D01*
X125619977Y-115845681D01*
X125545681Y-115919977D01*
X125487307Y-116007340D01*
X125447098Y-116104413D01*
X125426600Y-116207465D01*
X125383400Y-116207465D01*
X125362902Y-116104413D01*
X125322693Y-116007340D01*
X125264319Y-115919977D01*
X125190023Y-115845681D01*
X125102660Y-115787307D01*
X125005587Y-115747098D01*
X124902535Y-115726600D01*
X124797465Y-115726600D01*
X124694413Y-115747098D01*
X124597340Y-115787307D01*
X124509977Y-115845681D01*
X124435681Y-115919977D01*
X124377307Y-116007340D01*
X124337098Y-116104413D01*
X124316600Y-116207465D01*
X124271411Y-116207465D01*
X124252902Y-116114413D01*
X124212693Y-116017340D01*
X124154319Y-115929977D01*
X124080023Y-115855681D01*
X123992660Y-115797307D01*
X123895587Y-115757098D01*
X123792535Y-115736600D01*
X123687465Y-115736600D01*
X123584413Y-115757098D01*
X123487340Y-115797307D01*
X123399977Y-115855681D01*
X123325681Y-115929977D01*
X123267307Y-116017340D01*
X123227098Y-116114413D01*
X123206600Y-116217465D01*
X123163400Y-116217465D01*
X123142902Y-116114413D01*
X123102693Y-116017340D01*
X123044319Y-115929977D01*
X122970023Y-115855681D01*
X122882660Y-115797307D01*
X122785587Y-115757098D01*
X122682535Y-115736600D01*
X122577465Y-115736600D01*
X122474413Y-115757098D01*
X122377340Y-115797307D01*
X122289977Y-115855681D01*
X122215681Y-115929977D01*
X122157307Y-116017340D01*
X122117098Y-116114413D01*
X122096600Y-116217465D01*
X104168469Y-116217465D01*
X104222480Y-116195093D01*
X104309843Y-116136719D01*
X104384139Y-116062423D01*
X104442513Y-115975060D01*
X104482722Y-115877987D01*
X104503220Y-115774935D01*
X104503220Y-115669865D01*
X104482722Y-115566813D01*
X104442513Y-115469740D01*
X104384139Y-115382377D01*
X104309843Y-115308081D01*
X104222480Y-115249707D01*
X104125407Y-115209498D01*
X104022355Y-115189000D01*
X103917285Y-115189000D01*
X103814233Y-115209498D01*
X103717160Y-115249707D01*
X103629797Y-115308081D01*
X103555501Y-115382377D01*
X103497127Y-115469740D01*
X103456918Y-115566813D01*
X103436420Y-115669865D01*
X101954400Y-115669865D01*
X101954400Y-114821505D01*
X117048280Y-114821505D01*
X117048280Y-114926575D01*
X117068778Y-115029627D01*
X117108987Y-115126700D01*
X117167361Y-115214063D01*
X117241657Y-115288359D01*
X117329020Y-115346733D01*
X117426093Y-115386942D01*
X117529145Y-115407440D01*
X117634215Y-115407440D01*
X117737267Y-115386942D01*
X117834340Y-115346733D01*
X117873383Y-115320645D01*
X117876657Y-115323919D01*
X117964020Y-115382293D01*
X118061093Y-115422502D01*
X118164145Y-115443000D01*
X118269215Y-115443000D01*
X118372267Y-115422502D01*
X118469340Y-115382293D01*
X118556703Y-115323919D01*
X118630999Y-115249623D01*
X118689373Y-115162260D01*
X118729582Y-115065187D01*
X118750080Y-114962135D01*
X118750080Y-114857065D01*
X118729582Y-114754013D01*
X118689373Y-114656940D01*
X118630999Y-114569577D01*
X118556703Y-114495281D01*
X118469340Y-114436907D01*
X118372267Y-114396698D01*
X118269215Y-114376200D01*
X118164145Y-114376200D01*
X118061093Y-114396698D01*
X117964020Y-114436907D01*
X117924977Y-114462995D01*
X117921703Y-114459721D01*
X117834340Y-114401347D01*
X117737267Y-114361138D01*
X117634215Y-114340640D01*
X117529145Y-114340640D01*
X117426093Y-114361138D01*
X117329020Y-114401347D01*
X117241657Y-114459721D01*
X117167361Y-114534017D01*
X117108987Y-114621380D01*
X117068778Y-114718453D01*
X117048280Y-114821505D01*
X101954400Y-114821505D01*
X101954400Y-113851225D01*
X112224820Y-113851225D01*
X112224820Y-113956295D01*
X112245318Y-114059347D01*
X112285527Y-114156420D01*
X112343901Y-114243783D01*
X112418197Y-114318079D01*
X112505560Y-114376453D01*
X112602633Y-114416662D01*
X112705685Y-114437160D01*
X112810755Y-114437160D01*
X112913807Y-114416662D01*
X113010880Y-114376453D01*
X113098243Y-114318079D01*
X113172539Y-114243783D01*
X113230913Y-114156420D01*
X113271122Y-114059347D01*
X113291620Y-113956295D01*
X113291620Y-113851225D01*
X113273937Y-113762325D01*
X117680740Y-113762325D01*
X117680740Y-113867395D01*
X117701238Y-113970447D01*
X117741447Y-114067520D01*
X117799821Y-114154883D01*
X117874117Y-114229179D01*
X117961480Y-114287553D01*
X118058553Y-114327762D01*
X118161605Y-114348260D01*
X118266675Y-114348260D01*
X118369727Y-114327762D01*
X118466800Y-114287553D01*
X118554163Y-114229179D01*
X118628459Y-114154883D01*
X118686833Y-114067520D01*
X118727042Y-113970447D01*
X118747540Y-113867395D01*
X118747540Y-113777565D01*
X120172480Y-113777565D01*
X120172480Y-113882635D01*
X120192978Y-113985687D01*
X120233187Y-114082760D01*
X120291561Y-114170123D01*
X120365857Y-114244419D01*
X120453220Y-114302793D01*
X120550293Y-114343002D01*
X120653345Y-114363500D01*
X120758415Y-114363500D01*
X120861467Y-114343002D01*
X120958540Y-114302793D01*
X121045903Y-114244419D01*
X121120199Y-114170123D01*
X121178573Y-114082760D01*
X121218782Y-113985687D01*
X121239280Y-113882635D01*
X121239280Y-113777565D01*
X121218782Y-113674513D01*
X121178573Y-113577440D01*
X121120199Y-113490077D01*
X121045903Y-113415781D01*
X120958540Y-113357407D01*
X120861467Y-113317198D01*
X120758415Y-113296700D01*
X120653345Y-113296700D01*
X120550293Y-113317198D01*
X120453220Y-113357407D01*
X120365857Y-113415781D01*
X120291561Y-113490077D01*
X120233187Y-113577440D01*
X120192978Y-113674513D01*
X120172480Y-113777565D01*
X118747540Y-113777565D01*
X118747540Y-113762325D01*
X118727042Y-113659273D01*
X118686833Y-113562200D01*
X118628459Y-113474837D01*
X118554163Y-113400541D01*
X118466800Y-113342167D01*
X118369727Y-113301958D01*
X118266675Y-113281460D01*
X118161605Y-113281460D01*
X118058553Y-113301958D01*
X117961480Y-113342167D01*
X117874117Y-113400541D01*
X117799821Y-113474837D01*
X117741447Y-113562200D01*
X117701238Y-113659273D01*
X117680740Y-113762325D01*
X113273937Y-113762325D01*
X113271122Y-113748173D01*
X113230913Y-113651100D01*
X113172539Y-113563737D01*
X113098243Y-113489441D01*
X113010880Y-113431067D01*
X112913807Y-113390858D01*
X112810755Y-113370360D01*
X112705685Y-113370360D01*
X112602633Y-113390858D01*
X112505560Y-113431067D01*
X112418197Y-113489441D01*
X112343901Y-113563737D01*
X112285527Y-113651100D01*
X112245318Y-113748173D01*
X112224820Y-113851225D01*
X101954400Y-113851225D01*
X101954400Y-113043505D01*
X110667800Y-113043505D01*
X110667800Y-113148575D01*
X110688298Y-113251627D01*
X110728507Y-113348700D01*
X110786881Y-113436063D01*
X110861177Y-113510359D01*
X110948540Y-113568733D01*
X111045613Y-113608942D01*
X111148665Y-113629440D01*
X111253735Y-113629440D01*
X111356787Y-113608942D01*
X111453860Y-113568733D01*
X111541223Y-113510359D01*
X111615519Y-113436063D01*
X111673893Y-113348700D01*
X111714102Y-113251627D01*
X111734600Y-113148575D01*
X111734600Y-113043505D01*
X111714102Y-112940453D01*
X111677880Y-112853005D01*
X132298440Y-112853005D01*
X132298440Y-112958075D01*
X132318938Y-113061127D01*
X132359147Y-113158200D01*
X132417521Y-113245563D01*
X132491817Y-113319859D01*
X132579180Y-113378233D01*
X132676253Y-113418442D01*
X132779305Y-113438940D01*
X132884375Y-113438940D01*
X132987427Y-113418442D01*
X133084500Y-113378233D01*
X133171863Y-113319859D01*
X133246159Y-113245563D01*
X133304533Y-113158200D01*
X133344742Y-113061127D01*
X133365240Y-112958075D01*
X133365240Y-112853005D01*
X133344742Y-112749953D01*
X133304533Y-112652880D01*
X133246159Y-112565517D01*
X133171863Y-112491221D01*
X133084500Y-112432847D01*
X132987427Y-112392638D01*
X132884375Y-112372140D01*
X132779305Y-112372140D01*
X132676253Y-112392638D01*
X132579180Y-112432847D01*
X132491817Y-112491221D01*
X132417521Y-112565517D01*
X132359147Y-112652880D01*
X132318938Y-112749953D01*
X132298440Y-112853005D01*
X111677880Y-112853005D01*
X111673893Y-112843380D01*
X111615519Y-112756017D01*
X111541223Y-112681721D01*
X111453860Y-112623347D01*
X111356787Y-112583138D01*
X111253735Y-112562640D01*
X111148665Y-112562640D01*
X111045613Y-112583138D01*
X110948540Y-112623347D01*
X110861177Y-112681721D01*
X110786881Y-112756017D01*
X110728507Y-112843380D01*
X110688298Y-112940453D01*
X110667800Y-113043505D01*
X101954400Y-113043505D01*
X101954400Y-111612071D01*
X101965228Y-111615356D01*
X102020000Y-111620751D01*
X103720000Y-111620751D01*
X103774772Y-111615356D01*
X103827439Y-111599380D01*
X103875977Y-111573436D01*
X103918521Y-111538521D01*
X103953436Y-111495977D01*
X103979380Y-111447439D01*
X103995356Y-111394772D01*
X104000751Y-111340000D01*
X104000751Y-109574400D01*
X104279249Y-109574400D01*
X104279249Y-109645000D01*
X104279249Y-109645000D01*
G37*
X104279249Y-109645000D02*
X104292810Y-109782685D01*
X104332971Y-109915079D01*
X104384830Y-110012100D01*
X104361522Y-110055706D01*
X104296942Y-110268599D01*
X104275136Y-110490000D01*
X104296942Y-110711401D01*
X104361522Y-110924294D01*
X104466395Y-111120497D01*
X104607530Y-111292470D01*
X104779503Y-111433605D01*
X104975706Y-111538478D01*
X105188599Y-111603058D01*
X105354523Y-111619400D01*
X105465477Y-111619400D01*
X105631401Y-111603058D01*
X105844294Y-111538478D01*
X106040497Y-111433605D01*
X106212470Y-111292470D01*
X106353605Y-111120497D01*
X106458478Y-110924294D01*
X106523058Y-110711401D01*
X106544864Y-110490000D01*
X106533007Y-110369611D01*
X106627465Y-110388400D01*
X106732535Y-110388400D01*
X106826993Y-110369611D01*
X106815136Y-110490000D01*
X106836942Y-110711401D01*
X106901522Y-110924294D01*
X107006395Y-111120497D01*
X107147530Y-111292470D01*
X107319503Y-111433605D01*
X107515706Y-111538478D01*
X107728599Y-111603058D01*
X107894523Y-111619400D01*
X108005477Y-111619400D01*
X108171401Y-111603058D01*
X108384294Y-111538478D01*
X108580497Y-111433605D01*
X108752470Y-111292470D01*
X108893605Y-111120497D01*
X108998478Y-110924294D01*
X109063058Y-110711401D01*
X109084864Y-110490000D01*
X109073007Y-110369611D01*
X109167465Y-110388400D01*
X109272535Y-110388400D01*
X109366993Y-110369611D01*
X109355136Y-110490000D01*
X109376942Y-110711401D01*
X109441522Y-110924294D01*
X109546395Y-111120497D01*
X109687530Y-111292470D01*
X109859503Y-111433605D01*
X110055706Y-111538478D01*
X110268599Y-111603058D01*
X110434523Y-111619400D01*
X110545477Y-111619400D01*
X110711401Y-111603058D01*
X110924294Y-111538478D01*
X111120497Y-111433605D01*
X111292470Y-111292470D01*
X111433605Y-111120497D01*
X111538478Y-110924294D01*
X111603058Y-110711401D01*
X111624864Y-110490000D01*
X111613007Y-110369611D01*
X111707465Y-110388400D01*
X111812535Y-110388400D01*
X111906993Y-110369611D01*
X111895136Y-110490000D01*
X111916942Y-110711401D01*
X111981522Y-110924294D01*
X112086395Y-111120497D01*
X112227530Y-111292470D01*
X112399503Y-111433605D01*
X112595706Y-111538478D01*
X112808599Y-111603058D01*
X112974523Y-111619400D01*
X113085477Y-111619400D01*
X113251401Y-111603058D01*
X113464294Y-111538478D01*
X113660497Y-111433605D01*
X113832470Y-111292470D01*
X113973605Y-111120497D01*
X114078478Y-110924294D01*
X114143058Y-110711401D01*
X114164864Y-110490000D01*
X114153007Y-110369611D01*
X114247465Y-110388400D01*
X114352535Y-110388400D01*
X114446993Y-110369611D01*
X114435136Y-110490000D01*
X114456942Y-110711401D01*
X114521522Y-110924294D01*
X114626395Y-111120497D01*
X114767530Y-111292470D01*
X114939503Y-111433605D01*
X115135706Y-111538478D01*
X115348599Y-111603058D01*
X115514523Y-111619400D01*
X115625477Y-111619400D01*
X115791401Y-111603058D01*
X116004294Y-111538478D01*
X116200497Y-111433605D01*
X116372470Y-111292470D01*
X116513605Y-111120497D01*
X116618478Y-110924294D01*
X116683058Y-110711401D01*
X116704864Y-110490000D01*
X116693007Y-110369611D01*
X116787465Y-110388400D01*
X116892535Y-110388400D01*
X116986993Y-110369611D01*
X116975136Y-110490000D01*
X116996942Y-110711401D01*
X117061522Y-110924294D01*
X117166395Y-111120497D01*
X117307530Y-111292470D01*
X117479503Y-111433605D01*
X117675706Y-111538478D01*
X117888599Y-111603058D01*
X118054523Y-111619400D01*
X118165477Y-111619400D01*
X118331401Y-111603058D01*
X118544294Y-111538478D01*
X118740497Y-111433605D01*
X118912470Y-111292470D01*
X119053605Y-111120497D01*
X119158478Y-110924294D01*
X119223058Y-110711401D01*
X119244864Y-110490000D01*
X119233007Y-110369611D01*
X119327465Y-110388400D01*
X119432535Y-110388400D01*
X119526993Y-110369611D01*
X119515136Y-110490000D01*
X119536942Y-110711401D01*
X119601522Y-110924294D01*
X119706395Y-111120497D01*
X119847530Y-111292470D01*
X120019503Y-111433605D01*
X120215706Y-111538478D01*
X120428599Y-111603058D01*
X120594523Y-111619400D01*
X120705477Y-111619400D01*
X120871401Y-111603058D01*
X121084294Y-111538478D01*
X121280497Y-111433605D01*
X121452470Y-111292470D01*
X121593605Y-111120497D01*
X121698478Y-110924294D01*
X121763058Y-110711401D01*
X121784864Y-110490000D01*
X121773007Y-110369611D01*
X121867465Y-110388400D01*
X121972535Y-110388400D01*
X122066993Y-110369611D01*
X122055136Y-110490000D01*
X122076942Y-110711401D01*
X122141522Y-110924294D01*
X122246395Y-111120497D01*
X122387530Y-111292470D01*
X122559503Y-111433605D01*
X122755706Y-111538478D01*
X122968599Y-111603058D01*
X123134523Y-111619400D01*
X123245477Y-111619400D01*
X123411401Y-111603058D01*
X123624294Y-111538478D01*
X123820497Y-111433605D01*
X123992470Y-111292470D01*
X124133605Y-111120497D01*
X124238478Y-110924294D01*
X124303058Y-110711401D01*
X124324864Y-110490000D01*
X124313007Y-110369611D01*
X124407465Y-110388400D01*
X124512535Y-110388400D01*
X124606993Y-110369611D01*
X124595136Y-110490000D01*
X124616942Y-110711401D01*
X124681522Y-110924294D01*
X124786395Y-111120497D01*
X124927530Y-111292470D01*
X125099503Y-111433605D01*
X125295706Y-111538478D01*
X125508599Y-111603058D01*
X125674523Y-111619400D01*
X125785477Y-111619400D01*
X125951401Y-111603058D01*
X126164294Y-111538478D01*
X126360497Y-111433605D01*
X126532470Y-111292470D01*
X126673605Y-111120497D01*
X126778478Y-110924294D01*
X126843058Y-110711401D01*
X126864864Y-110490000D01*
X126853007Y-110369611D01*
X126947465Y-110388400D01*
X127052535Y-110388400D01*
X127146993Y-110369611D01*
X127135136Y-110490000D01*
X127156942Y-110711401D01*
X127221522Y-110924294D01*
X127326395Y-111120497D01*
X127467530Y-111292470D01*
X127639503Y-111433605D01*
X127835706Y-111538478D01*
X128048599Y-111603058D01*
X128214523Y-111619400D01*
X128325477Y-111619400D01*
X128491401Y-111603058D01*
X128704294Y-111538478D01*
X128900497Y-111433605D01*
X129072470Y-111292470D01*
X129213605Y-111120497D01*
X129318478Y-110924294D01*
X129383058Y-110711401D01*
X129404864Y-110490000D01*
X129393007Y-110369611D01*
X129487465Y-110388400D01*
X129592535Y-110388400D01*
X129686993Y-110369611D01*
X129675136Y-110490000D01*
X129696942Y-110711401D01*
X129761522Y-110924294D01*
X129866395Y-111120497D01*
X130007530Y-111292470D01*
X130179503Y-111433605D01*
X130375706Y-111538478D01*
X130588599Y-111603058D01*
X130754523Y-111619400D01*
X130865477Y-111619400D01*
X131031401Y-111603058D01*
X131244294Y-111538478D01*
X131440497Y-111433605D01*
X131612470Y-111292470D01*
X131753605Y-111120497D01*
X131858478Y-110924294D01*
X131923058Y-110711401D01*
X131944864Y-110490000D01*
X131933007Y-110369611D01*
X132027465Y-110388400D01*
X132132535Y-110388400D01*
X132226993Y-110369611D01*
X132215136Y-110490000D01*
X132236942Y-110711401D01*
X132301522Y-110924294D01*
X132406395Y-111120497D01*
X132547530Y-111292470D01*
X132719503Y-111433605D01*
X132915706Y-111538478D01*
X133128599Y-111603058D01*
X133294523Y-111619400D01*
X133405477Y-111619400D01*
X133571401Y-111603058D01*
X133784294Y-111538478D01*
X133980497Y-111433605D01*
X134152470Y-111292470D01*
X134293605Y-111120497D01*
X134398478Y-110924294D01*
X134463058Y-110711401D01*
X134484864Y-110490000D01*
X134473007Y-110369611D01*
X134567465Y-110388400D01*
X134672535Y-110388400D01*
X134766993Y-110369611D01*
X134755136Y-110490000D01*
X134776942Y-110711401D01*
X134841522Y-110924294D01*
X134946395Y-111120497D01*
X135087530Y-111292470D01*
X135259503Y-111433605D01*
X135455706Y-111538478D01*
X135668599Y-111603058D01*
X135834523Y-111619400D01*
X135945477Y-111619400D01*
X136111401Y-111603058D01*
X136324294Y-111538478D01*
X136520497Y-111433605D01*
X136692470Y-111292470D01*
X136805601Y-111154620D01*
X136805600Y-125065379D01*
X136692470Y-124927530D01*
X136520497Y-124786395D01*
X136324294Y-124681522D01*
X136111401Y-124616942D01*
X135945477Y-124600600D01*
X135834523Y-124600600D01*
X135668599Y-124616942D01*
X135455706Y-124681522D01*
X135259503Y-124786395D01*
X135087530Y-124927530D01*
X134946395Y-125099503D01*
X134841522Y-125295706D01*
X134776942Y-125508599D01*
X134755136Y-125730000D01*
X134766993Y-125850389D01*
X134672535Y-125831600D01*
X134567465Y-125831600D01*
X134473007Y-125850389D01*
X134484864Y-125730000D01*
X134463058Y-125508599D01*
X134398478Y-125295706D01*
X134293605Y-125099503D01*
X134152470Y-124927530D01*
X133980497Y-124786395D01*
X133784294Y-124681522D01*
X133571401Y-124616942D01*
X133405477Y-124600600D01*
X133294523Y-124600600D01*
X133128599Y-124616942D01*
X132915706Y-124681522D01*
X132719503Y-124786395D01*
X132547530Y-124927530D01*
X132406395Y-125099503D01*
X132301522Y-125295706D01*
X132236942Y-125508599D01*
X132215136Y-125730000D01*
X132226993Y-125850389D01*
X132132535Y-125831600D01*
X132027465Y-125831600D01*
X131933007Y-125850389D01*
X131944864Y-125730000D01*
X131923058Y-125508599D01*
X131858478Y-125295706D01*
X131753605Y-125099503D01*
X131612470Y-124927530D01*
X131440497Y-124786395D01*
X131244294Y-124681522D01*
X131031401Y-124616942D01*
X130865477Y-124600600D01*
X130754523Y-124600600D01*
X130588599Y-124616942D01*
X130375706Y-124681522D01*
X130179503Y-124786395D01*
X130007530Y-124927530D01*
X129866395Y-125099503D01*
X129761522Y-125295706D01*
X129696942Y-125508599D01*
X129675136Y-125730000D01*
X129686993Y-125850389D01*
X129592535Y-125831600D01*
X129487465Y-125831600D01*
X129393007Y-125850389D01*
X129404864Y-125730000D01*
X129383058Y-125508599D01*
X129318478Y-125295706D01*
X129213605Y-125099503D01*
X129072470Y-124927530D01*
X128900497Y-124786395D01*
X128704294Y-124681522D01*
X128491401Y-124616942D01*
X128325477Y-124600600D01*
X128214523Y-124600600D01*
X128048599Y-124616942D01*
X127835706Y-124681522D01*
X127639503Y-124786395D01*
X127467530Y-124927530D01*
X127326395Y-125099503D01*
X127221522Y-125295706D01*
X127156942Y-125508599D01*
X127135136Y-125730000D01*
X127146993Y-125850389D01*
X127052535Y-125831600D01*
X126947465Y-125831600D01*
X126853007Y-125850389D01*
X126864864Y-125730000D01*
X126843058Y-125508599D01*
X126778478Y-125295706D01*
X126673605Y-125099503D01*
X126532470Y-124927530D01*
X126360497Y-124786395D01*
X126164294Y-124681522D01*
X125951401Y-124616942D01*
X125785477Y-124600600D01*
X125674523Y-124600600D01*
X125508599Y-124616942D01*
X125295706Y-124681522D01*
X125099503Y-124786395D01*
X124927530Y-124927530D01*
X124786395Y-125099503D01*
X124681522Y-125295706D01*
X124616942Y-125508599D01*
X124595136Y-125730000D01*
X124606993Y-125850389D01*
X124512535Y-125831600D01*
X124407465Y-125831600D01*
X124313007Y-125850389D01*
X124324864Y-125730000D01*
X124303058Y-125508599D01*
X124238478Y-125295706D01*
X124133605Y-125099503D01*
X123992470Y-124927530D01*
X123820497Y-124786395D01*
X123624294Y-124681522D01*
X123411401Y-124616942D01*
X123245477Y-124600600D01*
X123134523Y-124600600D01*
X122968599Y-124616942D01*
X122755706Y-124681522D01*
X122559503Y-124786395D01*
X122387530Y-124927530D01*
X122246395Y-125099503D01*
X122141522Y-125295706D01*
X122076942Y-125508599D01*
X122055136Y-125730000D01*
X122066993Y-125850389D01*
X121972535Y-125831600D01*
X121867465Y-125831600D01*
X121773007Y-125850389D01*
X121784864Y-125730000D01*
X121763058Y-125508599D01*
X121698478Y-125295706D01*
X121593605Y-125099503D01*
X121452470Y-124927530D01*
X121280497Y-124786395D01*
X121084294Y-124681522D01*
X120871401Y-124616942D01*
X120705477Y-124600600D01*
X120594523Y-124600600D01*
X120428599Y-124616942D01*
X120215706Y-124681522D01*
X120019503Y-124786395D01*
X119847530Y-124927530D01*
X119706395Y-125099503D01*
X119601522Y-125295706D01*
X119536942Y-125508599D01*
X119515136Y-125730000D01*
X119526993Y-125850389D01*
X119432535Y-125831600D01*
X119327465Y-125831600D01*
X119233007Y-125850389D01*
X119244864Y-125730000D01*
X119223058Y-125508599D01*
X119158478Y-125295706D01*
X119053605Y-125099503D01*
X118912470Y-124927530D01*
X118740497Y-124786395D01*
X118544294Y-124681522D01*
X118331401Y-124616942D01*
X118165477Y-124600600D01*
X118054523Y-124600600D01*
X117888599Y-124616942D01*
X117675706Y-124681522D01*
X117479503Y-124786395D01*
X117307530Y-124927530D01*
X117166395Y-125099503D01*
X117061522Y-125295706D01*
X116996942Y-125508599D01*
X116975136Y-125730000D01*
X116986993Y-125850389D01*
X116892535Y-125831600D01*
X116787465Y-125831600D01*
X116693007Y-125850389D01*
X116704864Y-125730000D01*
X116683058Y-125508599D01*
X116618478Y-125295706D01*
X116513605Y-125099503D01*
X116372470Y-124927530D01*
X116200497Y-124786395D01*
X116004294Y-124681522D01*
X115791401Y-124616942D01*
X115625477Y-124600600D01*
X115514523Y-124600600D01*
X115348599Y-124616942D01*
X115135706Y-124681522D01*
X114939503Y-124786395D01*
X114767530Y-124927530D01*
X114626395Y-125099503D01*
X114521522Y-125295706D01*
X114456942Y-125508599D01*
X114435136Y-125730000D01*
X114446993Y-125850389D01*
X114352535Y-125831600D01*
X114247465Y-125831600D01*
X114153007Y-125850389D01*
X114164864Y-125730000D01*
X114143058Y-125508599D01*
X114078478Y-125295706D01*
X113973605Y-125099503D01*
X113832470Y-124927530D01*
X113660497Y-124786395D01*
X113464294Y-124681522D01*
X113251401Y-124616942D01*
X113085477Y-124600600D01*
X112974523Y-124600600D01*
X112808599Y-124616942D01*
X112595706Y-124681522D01*
X112399503Y-124786395D01*
X112227530Y-124927530D01*
X112086395Y-125099503D01*
X111981522Y-125295706D01*
X111916942Y-125508599D01*
X111895136Y-125730000D01*
X111906993Y-125850389D01*
X111812535Y-125831600D01*
X111707465Y-125831600D01*
X111613007Y-125850389D01*
X111624864Y-125730000D01*
X111603058Y-125508599D01*
X111538478Y-125295706D01*
X111433605Y-125099503D01*
X111292470Y-124927530D01*
X111120497Y-124786395D01*
X110924294Y-124681522D01*
X110711401Y-124616942D01*
X110545477Y-124600600D01*
X110434523Y-124600600D01*
X110268599Y-124616942D01*
X110055706Y-124681522D01*
X109859503Y-124786395D01*
X109687530Y-124927530D01*
X109546395Y-125099503D01*
X109441522Y-125295706D01*
X109376942Y-125508599D01*
X109355136Y-125730000D01*
X109366993Y-125850389D01*
X109272535Y-125831600D01*
X109167465Y-125831600D01*
X109064413Y-125852098D01*
X109006371Y-125876140D01*
X109002393Y-125857000D01*
X108077000Y-125857000D01*
X108077000Y-125877000D01*
X107823000Y-125877000D01*
X107823000Y-125857000D01*
X106897607Y-125857000D01*
X106893629Y-125876140D01*
X106835587Y-125852098D01*
X106732535Y-125831600D01*
X106627465Y-125831600D01*
X106533007Y-125850389D01*
X106544864Y-125730000D01*
X106523058Y-125508599D01*
X106498914Y-125429006D01*
X106861441Y-125429006D01*
X106897607Y-125603000D01*
X107823000Y-125603000D01*
X107823000Y-124678089D01*
X108077000Y-124678089D01*
X108077000Y-125603000D01*
X109002393Y-125603000D01*
X109038559Y-125429006D01*
X108958922Y-125222422D01*
X108840512Y-125035344D01*
X108687880Y-124874961D01*
X108506892Y-124747437D01*
X108304503Y-124657672D01*
X108250993Y-124641447D01*
X108077000Y-124678089D01*
X107823000Y-124678089D01*
X107649007Y-124641447D01*
X107595497Y-124657672D01*
X107393108Y-124747437D01*
X107212120Y-124874961D01*
X107059488Y-125035344D01*
X106941078Y-125222422D01*
X106861441Y-125429006D01*
X106498914Y-125429006D01*
X106458478Y-125295706D01*
X106353605Y-125099503D01*
X106212470Y-124927530D01*
X106040497Y-124786395D01*
X105844294Y-124681522D01*
X105631401Y-124616942D01*
X105465477Y-124600600D01*
X105354523Y-124600600D01*
X105188599Y-124616942D01*
X104975706Y-124681522D01*
X104779503Y-124786395D01*
X104607530Y-124927530D01*
X104466395Y-125099503D01*
X104361522Y-125295706D01*
X104296942Y-125508599D01*
X104275136Y-125730000D01*
X104296942Y-125951401D01*
X104361522Y-126164294D01*
X104384830Y-126207900D01*
X104332971Y-126304921D01*
X104292810Y-126437315D01*
X104279249Y-126575000D01*
X104279249Y-126645600D01*
X104000751Y-126645600D01*
X104000751Y-124880000D01*
X103995356Y-124825228D01*
X103979380Y-124772561D01*
X103953436Y-124724023D01*
X103918521Y-124681479D01*
X103875977Y-124646564D01*
X103827439Y-124620620D01*
X103774772Y-124604644D01*
X103720000Y-124599249D01*
X102020000Y-124599249D01*
X101965228Y-124604644D01*
X101954400Y-124607929D01*
X101954400Y-123297485D01*
X104559100Y-123297485D01*
X104559100Y-123402555D01*
X104579598Y-123505607D01*
X104619807Y-123602680D01*
X104678181Y-123690043D01*
X104752477Y-123764339D01*
X104839840Y-123822713D01*
X104936913Y-123862922D01*
X105039965Y-123883420D01*
X105145035Y-123883420D01*
X105248087Y-123862922D01*
X105345160Y-123822713D01*
X105432523Y-123764339D01*
X105506819Y-123690043D01*
X105565193Y-123602680D01*
X105605402Y-123505607D01*
X105625900Y-123402555D01*
X105625900Y-123297485D01*
X105605402Y-123194433D01*
X105565193Y-123097360D01*
X105506819Y-123009997D01*
X105476807Y-122979985D01*
X120032780Y-122979985D01*
X120032780Y-123085055D01*
X120053278Y-123188107D01*
X120093487Y-123285180D01*
X120151861Y-123372543D01*
X120226157Y-123446839D01*
X120313520Y-123505213D01*
X120410593Y-123545422D01*
X120513645Y-123565920D01*
X120618715Y-123565920D01*
X120721767Y-123545422D01*
X120818840Y-123505213D01*
X120906203Y-123446839D01*
X120980499Y-123372543D01*
X121038873Y-123285180D01*
X121079082Y-123188107D01*
X121099580Y-123085055D01*
X121099580Y-123033325D01*
X126768860Y-123033325D01*
X126768860Y-123138395D01*
X126789358Y-123241447D01*
X126829567Y-123338520D01*
X126887941Y-123425883D01*
X126962237Y-123500179D01*
X127049600Y-123558553D01*
X127146673Y-123598762D01*
X127249725Y-123619260D01*
X127354795Y-123619260D01*
X127457847Y-123598762D01*
X127554920Y-123558553D01*
X127642283Y-123500179D01*
X127716579Y-123425883D01*
X127774953Y-123338520D01*
X127815162Y-123241447D01*
X127835660Y-123138395D01*
X127835660Y-123033325D01*
X127815162Y-122930273D01*
X127774953Y-122833200D01*
X127716579Y-122745837D01*
X127642283Y-122671541D01*
X127554920Y-122613167D01*
X127457847Y-122572958D01*
X127354795Y-122552460D01*
X127249725Y-122552460D01*
X127146673Y-122572958D01*
X127049600Y-122613167D01*
X126962237Y-122671541D01*
X126887941Y-122745837D01*
X126829567Y-122833200D01*
X126789358Y-122930273D01*
X126768860Y-123033325D01*
X121099580Y-123033325D01*
X121099580Y-122979985D01*
X121079082Y-122876933D01*
X121038873Y-122779860D01*
X120980499Y-122692497D01*
X120906203Y-122618201D01*
X120818840Y-122559827D01*
X120721767Y-122519618D01*
X120618715Y-122499120D01*
X120513645Y-122499120D01*
X120410593Y-122519618D01*
X120313520Y-122559827D01*
X120226157Y-122618201D01*
X120151861Y-122692497D01*
X120093487Y-122779860D01*
X120053278Y-122876933D01*
X120032780Y-122979985D01*
X105476807Y-122979985D01*
X105432523Y-122935701D01*
X105345160Y-122877327D01*
X105248087Y-122837118D01*
X105145035Y-122816620D01*
X105039965Y-122816620D01*
X104936913Y-122837118D01*
X104839840Y-122877327D01*
X104752477Y-122935701D01*
X104678181Y-123009997D01*
X104619807Y-123097360D01*
X104579598Y-123194433D01*
X104559100Y-123297485D01*
X101954400Y-123297485D01*
X101954400Y-121265485D01*
X106258360Y-121265485D01*
X106258360Y-121370555D01*
X106278858Y-121473607D01*
X106319067Y-121570680D01*
X106377441Y-121658043D01*
X106451737Y-121732339D01*
X106539100Y-121790713D01*
X106636173Y-121830922D01*
X106739225Y-121851420D01*
X106844295Y-121851420D01*
X106947347Y-121830922D01*
X107044420Y-121790713D01*
X107131783Y-121732339D01*
X107164297Y-121699825D01*
X114289840Y-121699825D01*
X114289840Y-121804895D01*
X114310338Y-121907947D01*
X114350547Y-122005020D01*
X114408921Y-122092383D01*
X114483217Y-122166679D01*
X114570580Y-122225053D01*
X114667653Y-122265262D01*
X114770705Y-122285760D01*
X114875775Y-122285760D01*
X114978827Y-122265262D01*
X115075900Y-122225053D01*
X115163263Y-122166679D01*
X115237559Y-122092383D01*
X115295933Y-122005020D01*
X115336142Y-121907947D01*
X115356640Y-121804895D01*
X115356640Y-121699825D01*
X115336142Y-121596773D01*
X115295933Y-121499700D01*
X115249752Y-121430585D01*
X118244620Y-121430585D01*
X118244620Y-121535655D01*
X118265118Y-121638707D01*
X118305327Y-121735780D01*
X118363701Y-121823143D01*
X118437997Y-121897439D01*
X118525360Y-121955813D01*
X118622433Y-121996022D01*
X118725485Y-122016520D01*
X118830555Y-122016520D01*
X118933607Y-121996022D01*
X119030680Y-121955813D01*
X119071669Y-121928425D01*
X125161040Y-121928425D01*
X125161040Y-122033495D01*
X125181538Y-122136547D01*
X125221747Y-122233620D01*
X125280121Y-122320983D01*
X125354417Y-122395279D01*
X125441780Y-122453653D01*
X125538853Y-122493862D01*
X125641905Y-122514360D01*
X125746975Y-122514360D01*
X125850027Y-122493862D01*
X125915106Y-122466905D01*
X130797300Y-122466905D01*
X130797300Y-122571975D01*
X130817798Y-122675027D01*
X130858007Y-122772100D01*
X130916381Y-122859463D01*
X130990677Y-122933759D01*
X131078040Y-122992133D01*
X131175113Y-123032342D01*
X131278165Y-123052840D01*
X131383235Y-123052840D01*
X131486287Y-123032342D01*
X131583360Y-122992133D01*
X131670723Y-122933759D01*
X131745019Y-122859463D01*
X131803393Y-122772100D01*
X131843602Y-122675027D01*
X131864100Y-122571975D01*
X131864100Y-122466905D01*
X131843602Y-122363853D01*
X131803393Y-122266780D01*
X131745019Y-122179417D01*
X131670723Y-122105121D01*
X131583360Y-122046747D01*
X131486287Y-122006538D01*
X131383235Y-121986040D01*
X131278165Y-121986040D01*
X131175113Y-122006538D01*
X131078040Y-122046747D01*
X130990677Y-122105121D01*
X130916381Y-122179417D01*
X130858007Y-122266780D01*
X130817798Y-122363853D01*
X130797300Y-122466905D01*
X125915106Y-122466905D01*
X125947100Y-122453653D01*
X126034463Y-122395279D01*
X126108759Y-122320983D01*
X126167133Y-122233620D01*
X126207342Y-122136547D01*
X126227840Y-122033495D01*
X126227840Y-121976685D01*
X131818380Y-121976685D01*
X131818380Y-122081755D01*
X131838878Y-122184807D01*
X131879087Y-122281880D01*
X131937461Y-122369243D01*
X132011757Y-122443539D01*
X132099120Y-122501913D01*
X132196193Y-122542122D01*
X132299245Y-122562620D01*
X132404315Y-122562620D01*
X132507367Y-122542122D01*
X132604440Y-122501913D01*
X132691803Y-122443539D01*
X132766099Y-122369243D01*
X132824473Y-122281880D01*
X132864682Y-122184807D01*
X132885180Y-122081755D01*
X132885180Y-121994465D01*
X133816600Y-121994465D01*
X133816600Y-122099535D01*
X133837098Y-122202587D01*
X133877307Y-122299660D01*
X133935681Y-122387023D01*
X134009977Y-122461319D01*
X134097340Y-122519693D01*
X134194413Y-122559902D01*
X134297465Y-122580400D01*
X134402535Y-122580400D01*
X134505587Y-122559902D01*
X134602660Y-122519693D01*
X134690023Y-122461319D01*
X134764319Y-122387023D01*
X134822693Y-122299660D01*
X134862902Y-122202587D01*
X134883400Y-122099535D01*
X134883400Y-121994465D01*
X134862902Y-121891413D01*
X134822693Y-121794340D01*
X134764319Y-121706977D01*
X134690023Y-121632681D01*
X134602660Y-121574307D01*
X134505587Y-121534098D01*
X134402535Y-121513600D01*
X134297465Y-121513600D01*
X134194413Y-121534098D01*
X134097340Y-121574307D01*
X134009977Y-121632681D01*
X133935681Y-121706977D01*
X133877307Y-121794340D01*
X133837098Y-121891413D01*
X133816600Y-121994465D01*
X132885180Y-121994465D01*
X132885180Y-121976685D01*
X132864682Y-121873633D01*
X132824473Y-121776560D01*
X132766099Y-121689197D01*
X132691803Y-121614901D01*
X132604440Y-121556527D01*
X132507367Y-121516318D01*
X132404315Y-121495820D01*
X132299245Y-121495820D01*
X132196193Y-121516318D01*
X132099120Y-121556527D01*
X132011757Y-121614901D01*
X131937461Y-121689197D01*
X131879087Y-121776560D01*
X131838878Y-121873633D01*
X131818380Y-121976685D01*
X126227840Y-121976685D01*
X126227840Y-121928425D01*
X126207342Y-121825373D01*
X126167133Y-121728300D01*
X126108759Y-121640937D01*
X126034463Y-121566641D01*
X125947100Y-121508267D01*
X125850027Y-121468058D01*
X125746975Y-121447560D01*
X125641905Y-121447560D01*
X125538853Y-121468058D01*
X125441780Y-121508267D01*
X125354417Y-121566641D01*
X125280121Y-121640937D01*
X125221747Y-121728300D01*
X125181538Y-121825373D01*
X125161040Y-121928425D01*
X119071669Y-121928425D01*
X119118043Y-121897439D01*
X119192339Y-121823143D01*
X119250713Y-121735780D01*
X119290922Y-121638707D01*
X119311420Y-121535655D01*
X119311420Y-121430585D01*
X119290922Y-121327533D01*
X119275742Y-121290885D01*
X127167640Y-121290885D01*
X127167640Y-121395955D01*
X127188138Y-121499007D01*
X127228347Y-121596080D01*
X127286721Y-121683443D01*
X127361017Y-121757739D01*
X127448380Y-121816113D01*
X127545453Y-121856322D01*
X127648505Y-121876820D01*
X127753575Y-121876820D01*
X127856627Y-121856322D01*
X127953700Y-121816113D01*
X128041063Y-121757739D01*
X128115359Y-121683443D01*
X128173733Y-121596080D01*
X128213942Y-121499007D01*
X128234440Y-121395955D01*
X128234440Y-121290885D01*
X128213942Y-121187833D01*
X128173733Y-121090760D01*
X128115359Y-121003397D01*
X128041063Y-120929101D01*
X127953700Y-120870727D01*
X127856627Y-120830518D01*
X127753575Y-120810020D01*
X127648505Y-120810020D01*
X127545453Y-120830518D01*
X127448380Y-120870727D01*
X127361017Y-120929101D01*
X127286721Y-121003397D01*
X127228347Y-121090760D01*
X127188138Y-121187833D01*
X127167640Y-121290885D01*
X119275742Y-121290885D01*
X119250713Y-121230460D01*
X119192339Y-121143097D01*
X119118043Y-121068801D01*
X119030680Y-121010427D01*
X118933607Y-120970218D01*
X118830555Y-120949720D01*
X118725485Y-120949720D01*
X118622433Y-120970218D01*
X118525360Y-121010427D01*
X118437997Y-121068801D01*
X118363701Y-121143097D01*
X118305327Y-121230460D01*
X118265118Y-121327533D01*
X118244620Y-121430585D01*
X115249752Y-121430585D01*
X115237559Y-121412337D01*
X115163263Y-121338041D01*
X115075900Y-121279667D01*
X114978827Y-121239458D01*
X114875775Y-121218960D01*
X114770705Y-121218960D01*
X114667653Y-121239458D01*
X114570580Y-121279667D01*
X114483217Y-121338041D01*
X114408921Y-121412337D01*
X114350547Y-121499700D01*
X114310338Y-121596773D01*
X114289840Y-121699825D01*
X107164297Y-121699825D01*
X107206079Y-121658043D01*
X107264453Y-121570680D01*
X107304662Y-121473607D01*
X107325160Y-121370555D01*
X107325160Y-121265485D01*
X107304662Y-121162433D01*
X107271597Y-121082605D01*
X112242600Y-121082605D01*
X112242600Y-121187675D01*
X112263098Y-121290727D01*
X112303307Y-121387800D01*
X112361681Y-121475163D01*
X112435977Y-121549459D01*
X112523340Y-121607833D01*
X112620413Y-121648042D01*
X112723465Y-121668540D01*
X112828535Y-121668540D01*
X112931587Y-121648042D01*
X113028660Y-121607833D01*
X113116023Y-121549459D01*
X113190319Y-121475163D01*
X113248693Y-121387800D01*
X113288902Y-121290727D01*
X113309400Y-121187675D01*
X113309400Y-121082605D01*
X113288902Y-120979553D01*
X113248693Y-120882480D01*
X113190319Y-120795117D01*
X113116023Y-120720821D01*
X113028660Y-120662447D01*
X112931587Y-120622238D01*
X112828535Y-120601740D01*
X112723465Y-120601740D01*
X112620413Y-120622238D01*
X112523340Y-120662447D01*
X112435977Y-120720821D01*
X112361681Y-120795117D01*
X112303307Y-120882480D01*
X112263098Y-120979553D01*
X112242600Y-121082605D01*
X107271597Y-121082605D01*
X107264453Y-121065360D01*
X107206079Y-120977997D01*
X107131783Y-120903701D01*
X107044420Y-120845327D01*
X106947347Y-120805118D01*
X106844295Y-120784620D01*
X106739225Y-120784620D01*
X106636173Y-120805118D01*
X106539100Y-120845327D01*
X106451737Y-120903701D01*
X106377441Y-120977997D01*
X106319067Y-121065360D01*
X106278858Y-121162433D01*
X106258360Y-121265485D01*
X101954400Y-121265485D01*
X101954400Y-120051365D01*
X103398320Y-120051365D01*
X103398320Y-120156435D01*
X103418818Y-120259487D01*
X103459027Y-120356560D01*
X103517401Y-120443923D01*
X103591697Y-120518219D01*
X103679060Y-120576593D01*
X103776133Y-120616802D01*
X103879185Y-120637300D01*
X103984255Y-120637300D01*
X104087307Y-120616802D01*
X104184380Y-120576593D01*
X104271743Y-120518219D01*
X104346039Y-120443923D01*
X104404413Y-120356560D01*
X104444622Y-120259487D01*
X104465120Y-120156435D01*
X104465120Y-120051365D01*
X104444622Y-119948313D01*
X104404413Y-119851240D01*
X104346039Y-119763877D01*
X104271743Y-119689581D01*
X104184380Y-119631207D01*
X104087307Y-119590998D01*
X103984255Y-119570500D01*
X103879185Y-119570500D01*
X103776133Y-119590998D01*
X103679060Y-119631207D01*
X103591697Y-119689581D01*
X103517401Y-119763877D01*
X103459027Y-119851240D01*
X103418818Y-119948313D01*
X103398320Y-120051365D01*
X101954400Y-120051365D01*
X101954400Y-119078545D01*
X105592880Y-119078545D01*
X105592880Y-119183615D01*
X105613378Y-119286667D01*
X105653587Y-119383740D01*
X105711961Y-119471103D01*
X105786257Y-119545399D01*
X105873620Y-119603773D01*
X105970693Y-119643982D01*
X106073745Y-119664480D01*
X106178815Y-119664480D01*
X106281867Y-119643982D01*
X106378940Y-119603773D01*
X106466303Y-119545399D01*
X106540599Y-119471103D01*
X106598973Y-119383740D01*
X106639182Y-119286667D01*
X106659680Y-119183615D01*
X106659680Y-119078545D01*
X106653618Y-119048065D01*
X117066060Y-119048065D01*
X117066060Y-119153135D01*
X117086558Y-119256187D01*
X117126767Y-119353260D01*
X117185141Y-119440623D01*
X117259437Y-119514919D01*
X117346800Y-119573293D01*
X117443873Y-119613502D01*
X117546925Y-119634000D01*
X117651995Y-119634000D01*
X117755047Y-119613502D01*
X117852120Y-119573293D01*
X117890774Y-119547465D01*
X122096600Y-119547465D01*
X122096600Y-119652535D01*
X122117098Y-119755587D01*
X122157307Y-119852660D01*
X122215681Y-119940023D01*
X122289977Y-120014319D01*
X122377340Y-120072693D01*
X122474413Y-120112902D01*
X122577465Y-120133400D01*
X122682535Y-120133400D01*
X122785587Y-120112902D01*
X122882660Y-120072693D01*
X122970023Y-120014319D01*
X123044319Y-119940023D01*
X123102693Y-119852660D01*
X123142902Y-119755587D01*
X123163400Y-119652535D01*
X123163400Y-119547465D01*
X123206600Y-119547465D01*
X123206600Y-119652535D01*
X123227098Y-119755587D01*
X123267307Y-119852660D01*
X123325681Y-119940023D01*
X123399977Y-120014319D01*
X123487340Y-120072693D01*
X123584413Y-120112902D01*
X123687465Y-120133400D01*
X123792535Y-120133400D01*
X123895587Y-120112902D01*
X123992660Y-120072693D01*
X124080023Y-120014319D01*
X124154319Y-119940023D01*
X124212693Y-119852660D01*
X124252902Y-119755587D01*
X124273400Y-119652535D01*
X124273400Y-119547465D01*
X124326600Y-119547465D01*
X124326600Y-119652535D01*
X124347098Y-119755587D01*
X124387307Y-119852660D01*
X124445681Y-119940023D01*
X124519977Y-120014319D01*
X124607340Y-120072693D01*
X124704413Y-120112902D01*
X124807465Y-120133400D01*
X124912535Y-120133400D01*
X125015587Y-120112902D01*
X125112660Y-120072693D01*
X125200023Y-120014319D01*
X125274319Y-119940023D01*
X125332693Y-119852660D01*
X125372902Y-119755587D01*
X125393400Y-119652535D01*
X125393400Y-119547465D01*
X125436600Y-119547465D01*
X125436600Y-119652535D01*
X125457098Y-119755587D01*
X125497307Y-119852660D01*
X125555681Y-119940023D01*
X125629977Y-120014319D01*
X125717340Y-120072693D01*
X125814413Y-120112902D01*
X125917465Y-120133400D01*
X126022535Y-120133400D01*
X126125587Y-120112902D01*
X126222660Y-120072693D01*
X126235572Y-120064065D01*
X134835900Y-120064065D01*
X134835900Y-120169135D01*
X134856398Y-120272187D01*
X134896607Y-120369260D01*
X134954981Y-120456623D01*
X135029277Y-120530919D01*
X135116640Y-120589293D01*
X135213713Y-120629502D01*
X135316765Y-120650000D01*
X135421835Y-120650000D01*
X135524887Y-120629502D01*
X135621960Y-120589293D01*
X135709323Y-120530919D01*
X135783619Y-120456623D01*
X135841993Y-120369260D01*
X135882202Y-120272187D01*
X135902700Y-120169135D01*
X135902700Y-120064065D01*
X135882202Y-119961013D01*
X135841993Y-119863940D01*
X135783619Y-119776577D01*
X135709323Y-119702281D01*
X135621960Y-119643907D01*
X135524887Y-119603698D01*
X135421835Y-119583200D01*
X135316765Y-119583200D01*
X135213713Y-119603698D01*
X135116640Y-119643907D01*
X135029277Y-119702281D01*
X134954981Y-119776577D01*
X134896607Y-119863940D01*
X134856398Y-119961013D01*
X134835900Y-120064065D01*
X126235572Y-120064065D01*
X126310023Y-120014319D01*
X126384319Y-119940023D01*
X126442693Y-119852660D01*
X126482902Y-119755587D01*
X126503400Y-119652535D01*
X126503400Y-119547465D01*
X126482902Y-119444413D01*
X126442693Y-119347340D01*
X126384319Y-119259977D01*
X126310023Y-119185681D01*
X126222660Y-119127307D01*
X126125587Y-119087098D01*
X126022535Y-119066600D01*
X125917465Y-119066600D01*
X125814413Y-119087098D01*
X125717340Y-119127307D01*
X125629977Y-119185681D01*
X125555681Y-119259977D01*
X125497307Y-119347340D01*
X125457098Y-119444413D01*
X125436600Y-119547465D01*
X125393400Y-119547465D01*
X125372902Y-119444413D01*
X125332693Y-119347340D01*
X125274319Y-119259977D01*
X125200023Y-119185681D01*
X125112660Y-119127307D01*
X125015587Y-119087098D01*
X124912535Y-119066600D01*
X124807465Y-119066600D01*
X124704413Y-119087098D01*
X124607340Y-119127307D01*
X124519977Y-119185681D01*
X124445681Y-119259977D01*
X124387307Y-119347340D01*
X124347098Y-119444413D01*
X124326600Y-119547465D01*
X124273400Y-119547465D01*
X124252902Y-119444413D01*
X124212693Y-119347340D01*
X124154319Y-119259977D01*
X124080023Y-119185681D01*
X123992660Y-119127307D01*
X123895587Y-119087098D01*
X123792535Y-119066600D01*
X123687465Y-119066600D01*
X123584413Y-119087098D01*
X123487340Y-119127307D01*
X123399977Y-119185681D01*
X123325681Y-119259977D01*
X123267307Y-119347340D01*
X123227098Y-119444413D01*
X123206600Y-119547465D01*
X123163400Y-119547465D01*
X123142902Y-119444413D01*
X123102693Y-119347340D01*
X123044319Y-119259977D01*
X122970023Y-119185681D01*
X122882660Y-119127307D01*
X122785587Y-119087098D01*
X122682535Y-119066600D01*
X122577465Y-119066600D01*
X122474413Y-119087098D01*
X122377340Y-119127307D01*
X122289977Y-119185681D01*
X122215681Y-119259977D01*
X122157307Y-119347340D01*
X122117098Y-119444413D01*
X122096600Y-119547465D01*
X117890774Y-119547465D01*
X117939483Y-119514919D01*
X118013779Y-119440623D01*
X118072153Y-119353260D01*
X118112362Y-119256187D01*
X118132860Y-119153135D01*
X118132860Y-119048065D01*
X118112362Y-118945013D01*
X118072153Y-118847940D01*
X118013779Y-118760577D01*
X117939483Y-118686281D01*
X117852120Y-118627907D01*
X117755047Y-118587698D01*
X117651995Y-118567200D01*
X117546925Y-118567200D01*
X117443873Y-118587698D01*
X117346800Y-118627907D01*
X117259437Y-118686281D01*
X117185141Y-118760577D01*
X117126767Y-118847940D01*
X117086558Y-118945013D01*
X117066060Y-119048065D01*
X106653618Y-119048065D01*
X106639182Y-118975493D01*
X106598973Y-118878420D01*
X106540599Y-118791057D01*
X106466303Y-118716761D01*
X106378940Y-118658387D01*
X106281867Y-118618178D01*
X106178815Y-118597680D01*
X106073745Y-118597680D01*
X105970693Y-118618178D01*
X105873620Y-118658387D01*
X105786257Y-118716761D01*
X105711961Y-118791057D01*
X105653587Y-118878420D01*
X105613378Y-118975493D01*
X105592880Y-119078545D01*
X101954400Y-119078545D01*
X101954400Y-116899225D01*
X106276140Y-116899225D01*
X106276140Y-117004295D01*
X106296638Y-117107347D01*
X106336847Y-117204420D01*
X106395221Y-117291783D01*
X106469517Y-117366079D01*
X106556880Y-117424453D01*
X106653953Y-117464662D01*
X106757005Y-117485160D01*
X106862075Y-117485160D01*
X106965127Y-117464662D01*
X107062200Y-117424453D01*
X107149563Y-117366079D01*
X107223859Y-117291783D01*
X107282233Y-117204420D01*
X107322442Y-117107347D01*
X107331663Y-117060988D01*
X113798110Y-117060988D01*
X113798110Y-117166058D01*
X113818608Y-117269110D01*
X113858817Y-117366183D01*
X113917191Y-117453546D01*
X113991487Y-117527842D01*
X114078850Y-117586216D01*
X114175923Y-117626425D01*
X114278975Y-117646923D01*
X114384045Y-117646923D01*
X114452210Y-117633364D01*
X114442577Y-117639801D01*
X114368281Y-117714097D01*
X114309907Y-117801460D01*
X114269698Y-117898533D01*
X114249200Y-118001585D01*
X114249200Y-118106655D01*
X114269698Y-118209707D01*
X114309907Y-118306780D01*
X114368281Y-118394143D01*
X114442577Y-118468439D01*
X114529940Y-118526813D01*
X114627013Y-118567022D01*
X114730065Y-118587520D01*
X114835135Y-118587520D01*
X114938187Y-118567022D01*
X115035260Y-118526813D01*
X115122623Y-118468439D01*
X115153597Y-118437465D01*
X122086600Y-118437465D01*
X122086600Y-118542535D01*
X122107098Y-118645587D01*
X122147307Y-118742660D01*
X122205681Y-118830023D01*
X122279977Y-118904319D01*
X122367340Y-118962693D01*
X122464413Y-119002902D01*
X122567465Y-119023400D01*
X122672535Y-119023400D01*
X122775587Y-119002902D01*
X122872660Y-118962693D01*
X122960023Y-118904319D01*
X123034319Y-118830023D01*
X123092693Y-118742660D01*
X123132902Y-118645587D01*
X123153400Y-118542535D01*
X123153400Y-118437465D01*
X123206600Y-118437465D01*
X123206600Y-118542535D01*
X123227098Y-118645587D01*
X123267307Y-118742660D01*
X123325681Y-118830023D01*
X123399977Y-118904319D01*
X123487340Y-118962693D01*
X123584413Y-119002902D01*
X123687465Y-119023400D01*
X123792535Y-119023400D01*
X123895587Y-119002902D01*
X123992660Y-118962693D01*
X124080023Y-118904319D01*
X124154319Y-118830023D01*
X124212693Y-118742660D01*
X124252902Y-118645587D01*
X124273400Y-118542535D01*
X124273400Y-118437465D01*
X124316600Y-118437465D01*
X124316600Y-118542535D01*
X124337098Y-118645587D01*
X124377307Y-118742660D01*
X124435681Y-118830023D01*
X124509977Y-118904319D01*
X124597340Y-118962693D01*
X124694413Y-119002902D01*
X124797465Y-119023400D01*
X124902535Y-119023400D01*
X125005587Y-119002902D01*
X125102660Y-118962693D01*
X125190023Y-118904319D01*
X125264319Y-118830023D01*
X125322693Y-118742660D01*
X125362902Y-118645587D01*
X125383400Y-118542535D01*
X125383400Y-118437465D01*
X125426600Y-118437465D01*
X125426600Y-118542535D01*
X125447098Y-118645587D01*
X125487307Y-118742660D01*
X125545681Y-118830023D01*
X125619977Y-118904319D01*
X125707340Y-118962693D01*
X125804413Y-119002902D01*
X125907465Y-119023400D01*
X126012535Y-119023400D01*
X126115587Y-119002902D01*
X126123063Y-118999805D01*
X128879600Y-118999805D01*
X128879600Y-119104875D01*
X128900098Y-119207927D01*
X128940307Y-119305000D01*
X128998681Y-119392363D01*
X129072977Y-119466659D01*
X129160340Y-119525033D01*
X129257413Y-119565242D01*
X129360465Y-119585740D01*
X129465535Y-119585740D01*
X129568587Y-119565242D01*
X129665660Y-119525033D01*
X129753023Y-119466659D01*
X129795270Y-119424412D01*
X129824817Y-119453959D01*
X129912180Y-119512333D01*
X130009253Y-119552542D01*
X130112305Y-119573040D01*
X130217375Y-119573040D01*
X130320427Y-119552542D01*
X130417500Y-119512333D01*
X130504863Y-119453959D01*
X130579159Y-119379663D01*
X130637533Y-119292300D01*
X130677742Y-119195227D01*
X130698240Y-119092175D01*
X130698240Y-118987105D01*
X130696220Y-118976945D01*
X131808220Y-118976945D01*
X131808220Y-119082015D01*
X131828718Y-119185067D01*
X131868927Y-119282140D01*
X131927301Y-119369503D01*
X132001597Y-119443799D01*
X132088960Y-119502173D01*
X132186033Y-119542382D01*
X132289085Y-119562880D01*
X132394155Y-119562880D01*
X132497207Y-119542382D01*
X132594280Y-119502173D01*
X132681643Y-119443799D01*
X132755939Y-119369503D01*
X132814313Y-119282140D01*
X132854522Y-119185067D01*
X132875020Y-119082015D01*
X132875020Y-118976945D01*
X132854522Y-118873893D01*
X132814313Y-118776820D01*
X132755939Y-118689457D01*
X132681643Y-118615161D01*
X132594280Y-118556787D01*
X132497207Y-118516578D01*
X132394155Y-118496080D01*
X132289085Y-118496080D01*
X132186033Y-118516578D01*
X132088960Y-118556787D01*
X132001597Y-118615161D01*
X131927301Y-118689457D01*
X131868927Y-118776820D01*
X131828718Y-118873893D01*
X131808220Y-118976945D01*
X130696220Y-118976945D01*
X130677742Y-118884053D01*
X130637533Y-118786980D01*
X130579159Y-118699617D01*
X130504863Y-118625321D01*
X130417500Y-118566947D01*
X130320427Y-118526738D01*
X130217375Y-118506240D01*
X130112305Y-118506240D01*
X130009253Y-118526738D01*
X129912180Y-118566947D01*
X129824817Y-118625321D01*
X129782570Y-118667568D01*
X129753023Y-118638021D01*
X129665660Y-118579647D01*
X129568587Y-118539438D01*
X129465535Y-118518940D01*
X129360465Y-118518940D01*
X129257413Y-118539438D01*
X129160340Y-118579647D01*
X129072977Y-118638021D01*
X128998681Y-118712317D01*
X128940307Y-118799680D01*
X128900098Y-118896753D01*
X128879600Y-118999805D01*
X126123063Y-118999805D01*
X126212660Y-118962693D01*
X126300023Y-118904319D01*
X126374319Y-118830023D01*
X126432693Y-118742660D01*
X126472902Y-118645587D01*
X126493400Y-118542535D01*
X126493400Y-118437465D01*
X126472902Y-118334413D01*
X126432693Y-118237340D01*
X126374319Y-118149977D01*
X126300023Y-118075681D01*
X126212660Y-118017307D01*
X126115587Y-117977098D01*
X126012535Y-117956600D01*
X125907465Y-117956600D01*
X125804413Y-117977098D01*
X125707340Y-118017307D01*
X125619977Y-118075681D01*
X125545681Y-118149977D01*
X125487307Y-118237340D01*
X125447098Y-118334413D01*
X125426600Y-118437465D01*
X125383400Y-118437465D01*
X125362902Y-118334413D01*
X125322693Y-118237340D01*
X125264319Y-118149977D01*
X125190023Y-118075681D01*
X125102660Y-118017307D01*
X125005587Y-117977098D01*
X124902535Y-117956600D01*
X124797465Y-117956600D01*
X124694413Y-117977098D01*
X124597340Y-118017307D01*
X124509977Y-118075681D01*
X124435681Y-118149977D01*
X124377307Y-118237340D01*
X124337098Y-118334413D01*
X124316600Y-118437465D01*
X124273400Y-118437465D01*
X124252902Y-118334413D01*
X124212693Y-118237340D01*
X124154319Y-118149977D01*
X124080023Y-118075681D01*
X123992660Y-118017307D01*
X123895587Y-117977098D01*
X123792535Y-117956600D01*
X123687465Y-117956600D01*
X123584413Y-117977098D01*
X123487340Y-118017307D01*
X123399977Y-118075681D01*
X123325681Y-118149977D01*
X123267307Y-118237340D01*
X123227098Y-118334413D01*
X123206600Y-118437465D01*
X123153400Y-118437465D01*
X123132902Y-118334413D01*
X123092693Y-118237340D01*
X123034319Y-118149977D01*
X122960023Y-118075681D01*
X122872660Y-118017307D01*
X122775587Y-117977098D01*
X122672535Y-117956600D01*
X122567465Y-117956600D01*
X122464413Y-117977098D01*
X122367340Y-118017307D01*
X122279977Y-118075681D01*
X122205681Y-118149977D01*
X122147307Y-118237340D01*
X122107098Y-118334413D01*
X122086600Y-118437465D01*
X115153597Y-118437465D01*
X115196919Y-118394143D01*
X115255293Y-118306780D01*
X115295502Y-118209707D01*
X115316000Y-118106655D01*
X115316000Y-118001585D01*
X115295502Y-117898533D01*
X115255293Y-117801460D01*
X115196919Y-117714097D01*
X115159287Y-117676465D01*
X119921020Y-117676465D01*
X119921020Y-117781535D01*
X119941518Y-117884587D01*
X119981727Y-117981660D01*
X120040101Y-118069023D01*
X120114397Y-118143319D01*
X120201760Y-118201693D01*
X120298833Y-118241902D01*
X120401885Y-118262400D01*
X120506955Y-118262400D01*
X120610007Y-118241902D01*
X120707080Y-118201693D01*
X120794443Y-118143319D01*
X120868739Y-118069023D01*
X120927113Y-117981660D01*
X120967322Y-117884587D01*
X120987820Y-117781535D01*
X120987820Y-117676465D01*
X120967322Y-117573413D01*
X120927113Y-117476340D01*
X120868739Y-117388977D01*
X120797227Y-117317465D01*
X122096600Y-117317465D01*
X122096600Y-117422535D01*
X122117098Y-117525587D01*
X122157307Y-117622660D01*
X122215681Y-117710023D01*
X122289977Y-117784319D01*
X122377340Y-117842693D01*
X122474413Y-117882902D01*
X122577465Y-117903400D01*
X122682535Y-117903400D01*
X122785587Y-117882902D01*
X122882660Y-117842693D01*
X122970023Y-117784319D01*
X123044319Y-117710023D01*
X123102693Y-117622660D01*
X123142902Y-117525587D01*
X123163400Y-117422535D01*
X123163400Y-117317465D01*
X123206600Y-117317465D01*
X123206600Y-117422535D01*
X123227098Y-117525587D01*
X123267307Y-117622660D01*
X123325681Y-117710023D01*
X123399977Y-117784319D01*
X123487340Y-117842693D01*
X123584413Y-117882902D01*
X123687465Y-117903400D01*
X123792535Y-117903400D01*
X123895587Y-117882902D01*
X123992660Y-117842693D01*
X124080023Y-117784319D01*
X124154319Y-117710023D01*
X124212693Y-117622660D01*
X124252902Y-117525587D01*
X124273400Y-117422535D01*
X124273400Y-117317465D01*
X124316600Y-117317465D01*
X124316600Y-117422535D01*
X124337098Y-117525587D01*
X124377307Y-117622660D01*
X124435681Y-117710023D01*
X124509977Y-117784319D01*
X124597340Y-117842693D01*
X124694413Y-117882902D01*
X124797465Y-117903400D01*
X124902535Y-117903400D01*
X125005587Y-117882902D01*
X125102660Y-117842693D01*
X125190023Y-117784319D01*
X125264319Y-117710023D01*
X125322693Y-117622660D01*
X125362902Y-117525587D01*
X125383400Y-117422535D01*
X125383400Y-117327465D01*
X125426600Y-117327465D01*
X125426600Y-117432535D01*
X125447098Y-117535587D01*
X125487307Y-117632660D01*
X125545681Y-117720023D01*
X125619977Y-117794319D01*
X125707340Y-117852693D01*
X125804413Y-117892902D01*
X125907465Y-117913400D01*
X126012535Y-117913400D01*
X126115587Y-117892902D01*
X126212660Y-117852693D01*
X126300023Y-117794319D01*
X126374319Y-117720023D01*
X126432693Y-117632660D01*
X126472902Y-117535587D01*
X126493400Y-117432535D01*
X126493400Y-117327465D01*
X126472902Y-117224413D01*
X126432693Y-117127340D01*
X126374319Y-117039977D01*
X126300023Y-116965681D01*
X126212660Y-116907307D01*
X126115587Y-116867098D01*
X126012535Y-116846600D01*
X125907465Y-116846600D01*
X125804413Y-116867098D01*
X125707340Y-116907307D01*
X125619977Y-116965681D01*
X125545681Y-117039977D01*
X125487307Y-117127340D01*
X125447098Y-117224413D01*
X125426600Y-117327465D01*
X125383400Y-117327465D01*
X125383400Y-117317465D01*
X125362902Y-117214413D01*
X125322693Y-117117340D01*
X125264319Y-117029977D01*
X125190023Y-116955681D01*
X125102660Y-116897307D01*
X125005587Y-116857098D01*
X124902535Y-116836600D01*
X124797465Y-116836600D01*
X124694413Y-116857098D01*
X124597340Y-116897307D01*
X124509977Y-116955681D01*
X124435681Y-117029977D01*
X124377307Y-117117340D01*
X124337098Y-117214413D01*
X124316600Y-117317465D01*
X124273400Y-117317465D01*
X124252902Y-117214413D01*
X124212693Y-117117340D01*
X124154319Y-117029977D01*
X124080023Y-116955681D01*
X123992660Y-116897307D01*
X123895587Y-116857098D01*
X123792535Y-116836600D01*
X123687465Y-116836600D01*
X123584413Y-116857098D01*
X123487340Y-116897307D01*
X123399977Y-116955681D01*
X123325681Y-117029977D01*
X123267307Y-117117340D01*
X123227098Y-117214413D01*
X123206600Y-117317465D01*
X123163400Y-117317465D01*
X123142902Y-117214413D01*
X123102693Y-117117340D01*
X123044319Y-117029977D01*
X122970023Y-116955681D01*
X122882660Y-116897307D01*
X122785587Y-116857098D01*
X122682535Y-116836600D01*
X122577465Y-116836600D01*
X122474413Y-116857098D01*
X122377340Y-116897307D01*
X122289977Y-116955681D01*
X122215681Y-117029977D01*
X122157307Y-117117340D01*
X122117098Y-117214413D01*
X122096600Y-117317465D01*
X120797227Y-117317465D01*
X120794443Y-117314681D01*
X120707080Y-117256307D01*
X120610007Y-117216098D01*
X120506955Y-117195600D01*
X120401885Y-117195600D01*
X120298833Y-117216098D01*
X120201760Y-117256307D01*
X120114397Y-117314681D01*
X120040101Y-117388977D01*
X119981727Y-117476340D01*
X119941518Y-117573413D01*
X119921020Y-117676465D01*
X115159287Y-117676465D01*
X115122623Y-117639801D01*
X115035260Y-117581427D01*
X114938187Y-117541218D01*
X114835135Y-117520720D01*
X114730065Y-117520720D01*
X114661900Y-117534279D01*
X114671533Y-117527842D01*
X114745829Y-117453546D01*
X114804203Y-117366183D01*
X114844412Y-117269110D01*
X114864910Y-117166058D01*
X114864910Y-117060988D01*
X114844412Y-116957936D01*
X114804203Y-116860863D01*
X114745829Y-116773500D01*
X114671533Y-116699204D01*
X114584170Y-116640830D01*
X114487097Y-116600621D01*
X114384045Y-116580123D01*
X114278975Y-116580123D01*
X114175923Y-116600621D01*
X114078850Y-116640830D01*
X113991487Y-116699204D01*
X113917191Y-116773500D01*
X113858817Y-116860863D01*
X113818608Y-116957936D01*
X113798110Y-117060988D01*
X107331663Y-117060988D01*
X107342940Y-117004295D01*
X107342940Y-116899225D01*
X107322442Y-116796173D01*
X107282233Y-116699100D01*
X107223859Y-116611737D01*
X107149563Y-116537441D01*
X107062200Y-116479067D01*
X106965127Y-116438858D01*
X106862075Y-116418360D01*
X106757005Y-116418360D01*
X106653953Y-116438858D01*
X106556880Y-116479067D01*
X106469517Y-116537441D01*
X106395221Y-116611737D01*
X106336847Y-116699100D01*
X106296638Y-116796173D01*
X106276140Y-116899225D01*
X101954400Y-116899225D01*
X101954400Y-115669865D01*
X103436420Y-115669865D01*
X103436420Y-115774935D01*
X103456918Y-115877987D01*
X103497127Y-115975060D01*
X103555501Y-116062423D01*
X103629797Y-116136719D01*
X103717160Y-116195093D01*
X103814233Y-116235302D01*
X103917285Y-116255800D01*
X104022355Y-116255800D01*
X104125407Y-116235302D01*
X104168469Y-116217465D01*
X122096600Y-116217465D01*
X122096600Y-116322535D01*
X122117098Y-116425587D01*
X122157307Y-116522660D01*
X122215681Y-116610023D01*
X122289977Y-116684319D01*
X122377340Y-116742693D01*
X122474413Y-116782902D01*
X122577465Y-116803400D01*
X122682535Y-116803400D01*
X122785587Y-116782902D01*
X122882660Y-116742693D01*
X122970023Y-116684319D01*
X123044319Y-116610023D01*
X123102693Y-116522660D01*
X123142902Y-116425587D01*
X123163400Y-116322535D01*
X123163400Y-116217465D01*
X123206600Y-116217465D01*
X123206600Y-116322535D01*
X123227098Y-116425587D01*
X123267307Y-116522660D01*
X123325681Y-116610023D01*
X123399977Y-116684319D01*
X123487340Y-116742693D01*
X123584413Y-116782902D01*
X123687465Y-116803400D01*
X123792535Y-116803400D01*
X123895587Y-116782902D01*
X123992660Y-116742693D01*
X124080023Y-116684319D01*
X124154319Y-116610023D01*
X124212693Y-116522660D01*
X124252902Y-116425587D01*
X124273400Y-116322535D01*
X124273400Y-116217465D01*
X124271411Y-116207465D01*
X124316600Y-116207465D01*
X124316600Y-116312535D01*
X124337098Y-116415587D01*
X124377307Y-116512660D01*
X124435681Y-116600023D01*
X124509977Y-116674319D01*
X124597340Y-116732693D01*
X124694413Y-116772902D01*
X124797465Y-116793400D01*
X124902535Y-116793400D01*
X125005587Y-116772902D01*
X125102660Y-116732693D01*
X125190023Y-116674319D01*
X125264319Y-116600023D01*
X125322693Y-116512660D01*
X125362902Y-116415587D01*
X125383400Y-116312535D01*
X125383400Y-116207465D01*
X125426600Y-116207465D01*
X125426600Y-116312535D01*
X125447098Y-116415587D01*
X125487307Y-116512660D01*
X125545681Y-116600023D01*
X125619977Y-116674319D01*
X125707340Y-116732693D01*
X125804413Y-116772902D01*
X125907465Y-116793400D01*
X126012535Y-116793400D01*
X126115587Y-116772902D01*
X126212660Y-116732693D01*
X126300023Y-116674319D01*
X126374319Y-116600023D01*
X126432693Y-116512660D01*
X126472902Y-116415587D01*
X126490378Y-116327725D01*
X129631442Y-116327725D01*
X129631442Y-116432795D01*
X129651940Y-116535847D01*
X129692149Y-116632920D01*
X129750523Y-116720283D01*
X129824819Y-116794579D01*
X129912182Y-116852953D01*
X130009255Y-116893162D01*
X130112307Y-116913660D01*
X130217377Y-116913660D01*
X130320429Y-116893162D01*
X130417502Y-116852953D01*
X130504865Y-116794579D01*
X130579161Y-116720283D01*
X130637535Y-116632920D01*
X130677744Y-116535847D01*
X130698242Y-116432795D01*
X130698242Y-116327725D01*
X130686117Y-116266765D01*
X130738880Y-116266765D01*
X130738880Y-116371835D01*
X130759378Y-116474887D01*
X130799587Y-116571960D01*
X130857961Y-116659323D01*
X130932257Y-116733619D01*
X131019620Y-116791993D01*
X131116693Y-116832202D01*
X131219745Y-116852700D01*
X131324815Y-116852700D01*
X131427867Y-116832202D01*
X131524940Y-116791993D01*
X131612303Y-116733619D01*
X131686599Y-116659323D01*
X131744973Y-116571960D01*
X131785182Y-116474887D01*
X131805680Y-116371835D01*
X131805680Y-116266765D01*
X131785182Y-116163713D01*
X131744973Y-116066640D01*
X131686599Y-115979277D01*
X131612303Y-115904981D01*
X131524940Y-115846607D01*
X131427867Y-115806398D01*
X131324815Y-115785900D01*
X131219745Y-115785900D01*
X131116693Y-115806398D01*
X131019620Y-115846607D01*
X130932257Y-115904981D01*
X130857961Y-115979277D01*
X130799587Y-116066640D01*
X130759378Y-116163713D01*
X130738880Y-116266765D01*
X130686117Y-116266765D01*
X130677744Y-116224673D01*
X130637535Y-116127600D01*
X130579161Y-116040237D01*
X130504865Y-115965941D01*
X130417502Y-115907567D01*
X130320429Y-115867358D01*
X130217377Y-115846860D01*
X130112307Y-115846860D01*
X130009255Y-115867358D01*
X129912182Y-115907567D01*
X129824819Y-115965941D01*
X129750523Y-116040237D01*
X129692149Y-116127600D01*
X129651940Y-116224673D01*
X129631442Y-116327725D01*
X126490378Y-116327725D01*
X126493400Y-116312535D01*
X126493400Y-116207465D01*
X126472902Y-116104413D01*
X126432693Y-116007340D01*
X126374319Y-115919977D01*
X126300023Y-115845681D01*
X126212660Y-115787307D01*
X126115587Y-115747098D01*
X126012535Y-115726600D01*
X125907465Y-115726600D01*
X125804413Y-115747098D01*
X125707340Y-115787307D01*
X125619977Y-115845681D01*
X125545681Y-115919977D01*
X125487307Y-116007340D01*
X125447098Y-116104413D01*
X125426600Y-116207465D01*
X125383400Y-116207465D01*
X125362902Y-116104413D01*
X125322693Y-116007340D01*
X125264319Y-115919977D01*
X125190023Y-115845681D01*
X125102660Y-115787307D01*
X125005587Y-115747098D01*
X124902535Y-115726600D01*
X124797465Y-115726600D01*
X124694413Y-115747098D01*
X124597340Y-115787307D01*
X124509977Y-115845681D01*
X124435681Y-115919977D01*
X124377307Y-116007340D01*
X124337098Y-116104413D01*
X124316600Y-116207465D01*
X124271411Y-116207465D01*
X124252902Y-116114413D01*
X124212693Y-116017340D01*
X124154319Y-115929977D01*
X124080023Y-115855681D01*
X123992660Y-115797307D01*
X123895587Y-115757098D01*
X123792535Y-115736600D01*
X123687465Y-115736600D01*
X123584413Y-115757098D01*
X123487340Y-115797307D01*
X123399977Y-115855681D01*
X123325681Y-115929977D01*
X123267307Y-116017340D01*
X123227098Y-116114413D01*
X123206600Y-116217465D01*
X123163400Y-116217465D01*
X123142902Y-116114413D01*
X123102693Y-116017340D01*
X123044319Y-115929977D01*
X122970023Y-115855681D01*
X122882660Y-115797307D01*
X122785587Y-115757098D01*
X122682535Y-115736600D01*
X122577465Y-115736600D01*
X122474413Y-115757098D01*
X122377340Y-115797307D01*
X122289977Y-115855681D01*
X122215681Y-115929977D01*
X122157307Y-116017340D01*
X122117098Y-116114413D01*
X122096600Y-116217465D01*
X104168469Y-116217465D01*
X104222480Y-116195093D01*
X104309843Y-116136719D01*
X104384139Y-116062423D01*
X104442513Y-115975060D01*
X104482722Y-115877987D01*
X104503220Y-115774935D01*
X104503220Y-115669865D01*
X104482722Y-115566813D01*
X104442513Y-115469740D01*
X104384139Y-115382377D01*
X104309843Y-115308081D01*
X104222480Y-115249707D01*
X104125407Y-115209498D01*
X104022355Y-115189000D01*
X103917285Y-115189000D01*
X103814233Y-115209498D01*
X103717160Y-115249707D01*
X103629797Y-115308081D01*
X103555501Y-115382377D01*
X103497127Y-115469740D01*
X103456918Y-115566813D01*
X103436420Y-115669865D01*
X101954400Y-115669865D01*
X101954400Y-114821505D01*
X117048280Y-114821505D01*
X117048280Y-114926575D01*
X117068778Y-115029627D01*
X117108987Y-115126700D01*
X117167361Y-115214063D01*
X117241657Y-115288359D01*
X117329020Y-115346733D01*
X117426093Y-115386942D01*
X117529145Y-115407440D01*
X117634215Y-115407440D01*
X117737267Y-115386942D01*
X117834340Y-115346733D01*
X117873383Y-115320645D01*
X117876657Y-115323919D01*
X117964020Y-115382293D01*
X118061093Y-115422502D01*
X118164145Y-115443000D01*
X118269215Y-115443000D01*
X118372267Y-115422502D01*
X118469340Y-115382293D01*
X118556703Y-115323919D01*
X118630999Y-115249623D01*
X118689373Y-115162260D01*
X118729582Y-115065187D01*
X118750080Y-114962135D01*
X118750080Y-114857065D01*
X118729582Y-114754013D01*
X118689373Y-114656940D01*
X118630999Y-114569577D01*
X118556703Y-114495281D01*
X118469340Y-114436907D01*
X118372267Y-114396698D01*
X118269215Y-114376200D01*
X118164145Y-114376200D01*
X118061093Y-114396698D01*
X117964020Y-114436907D01*
X117924977Y-114462995D01*
X117921703Y-114459721D01*
X117834340Y-114401347D01*
X117737267Y-114361138D01*
X117634215Y-114340640D01*
X117529145Y-114340640D01*
X117426093Y-114361138D01*
X117329020Y-114401347D01*
X117241657Y-114459721D01*
X117167361Y-114534017D01*
X117108987Y-114621380D01*
X117068778Y-114718453D01*
X117048280Y-114821505D01*
X101954400Y-114821505D01*
X101954400Y-113851225D01*
X112224820Y-113851225D01*
X112224820Y-113956295D01*
X112245318Y-114059347D01*
X112285527Y-114156420D01*
X112343901Y-114243783D01*
X112418197Y-114318079D01*
X112505560Y-114376453D01*
X112602633Y-114416662D01*
X112705685Y-114437160D01*
X112810755Y-114437160D01*
X112913807Y-114416662D01*
X113010880Y-114376453D01*
X113098243Y-114318079D01*
X113172539Y-114243783D01*
X113230913Y-114156420D01*
X113271122Y-114059347D01*
X113291620Y-113956295D01*
X113291620Y-113851225D01*
X113273937Y-113762325D01*
X117680740Y-113762325D01*
X117680740Y-113867395D01*
X117701238Y-113970447D01*
X117741447Y-114067520D01*
X117799821Y-114154883D01*
X117874117Y-114229179D01*
X117961480Y-114287553D01*
X118058553Y-114327762D01*
X118161605Y-114348260D01*
X118266675Y-114348260D01*
X118369727Y-114327762D01*
X118466800Y-114287553D01*
X118554163Y-114229179D01*
X118628459Y-114154883D01*
X118686833Y-114067520D01*
X118727042Y-113970447D01*
X118747540Y-113867395D01*
X118747540Y-113777565D01*
X120172480Y-113777565D01*
X120172480Y-113882635D01*
X120192978Y-113985687D01*
X120233187Y-114082760D01*
X120291561Y-114170123D01*
X120365857Y-114244419D01*
X120453220Y-114302793D01*
X120550293Y-114343002D01*
X120653345Y-114363500D01*
X120758415Y-114363500D01*
X120861467Y-114343002D01*
X120958540Y-114302793D01*
X121045903Y-114244419D01*
X121120199Y-114170123D01*
X121178573Y-114082760D01*
X121218782Y-113985687D01*
X121239280Y-113882635D01*
X121239280Y-113777565D01*
X121218782Y-113674513D01*
X121178573Y-113577440D01*
X121120199Y-113490077D01*
X121045903Y-113415781D01*
X120958540Y-113357407D01*
X120861467Y-113317198D01*
X120758415Y-113296700D01*
X120653345Y-113296700D01*
X120550293Y-113317198D01*
X120453220Y-113357407D01*
X120365857Y-113415781D01*
X120291561Y-113490077D01*
X120233187Y-113577440D01*
X120192978Y-113674513D01*
X120172480Y-113777565D01*
X118747540Y-113777565D01*
X118747540Y-113762325D01*
X118727042Y-113659273D01*
X118686833Y-113562200D01*
X118628459Y-113474837D01*
X118554163Y-113400541D01*
X118466800Y-113342167D01*
X118369727Y-113301958D01*
X118266675Y-113281460D01*
X118161605Y-113281460D01*
X118058553Y-113301958D01*
X117961480Y-113342167D01*
X117874117Y-113400541D01*
X117799821Y-113474837D01*
X117741447Y-113562200D01*
X117701238Y-113659273D01*
X117680740Y-113762325D01*
X113273937Y-113762325D01*
X113271122Y-113748173D01*
X113230913Y-113651100D01*
X113172539Y-113563737D01*
X113098243Y-113489441D01*
X113010880Y-113431067D01*
X112913807Y-113390858D01*
X112810755Y-113370360D01*
X112705685Y-113370360D01*
X112602633Y-113390858D01*
X112505560Y-113431067D01*
X112418197Y-113489441D01*
X112343901Y-113563737D01*
X112285527Y-113651100D01*
X112245318Y-113748173D01*
X112224820Y-113851225D01*
X101954400Y-113851225D01*
X101954400Y-113043505D01*
X110667800Y-113043505D01*
X110667800Y-113148575D01*
X110688298Y-113251627D01*
X110728507Y-113348700D01*
X110786881Y-113436063D01*
X110861177Y-113510359D01*
X110948540Y-113568733D01*
X111045613Y-113608942D01*
X111148665Y-113629440D01*
X111253735Y-113629440D01*
X111356787Y-113608942D01*
X111453860Y-113568733D01*
X111541223Y-113510359D01*
X111615519Y-113436063D01*
X111673893Y-113348700D01*
X111714102Y-113251627D01*
X111734600Y-113148575D01*
X111734600Y-113043505D01*
X111714102Y-112940453D01*
X111677880Y-112853005D01*
X132298440Y-112853005D01*
X132298440Y-112958075D01*
X132318938Y-113061127D01*
X132359147Y-113158200D01*
X132417521Y-113245563D01*
X132491817Y-113319859D01*
X132579180Y-113378233D01*
X132676253Y-113418442D01*
X132779305Y-113438940D01*
X132884375Y-113438940D01*
X132987427Y-113418442D01*
X133084500Y-113378233D01*
X133171863Y-113319859D01*
X133246159Y-113245563D01*
X133304533Y-113158200D01*
X133344742Y-113061127D01*
X133365240Y-112958075D01*
X133365240Y-112853005D01*
X133344742Y-112749953D01*
X133304533Y-112652880D01*
X133246159Y-112565517D01*
X133171863Y-112491221D01*
X133084500Y-112432847D01*
X132987427Y-112392638D01*
X132884375Y-112372140D01*
X132779305Y-112372140D01*
X132676253Y-112392638D01*
X132579180Y-112432847D01*
X132491817Y-112491221D01*
X132417521Y-112565517D01*
X132359147Y-112652880D01*
X132318938Y-112749953D01*
X132298440Y-112853005D01*
X111677880Y-112853005D01*
X111673893Y-112843380D01*
X111615519Y-112756017D01*
X111541223Y-112681721D01*
X111453860Y-112623347D01*
X111356787Y-112583138D01*
X111253735Y-112562640D01*
X111148665Y-112562640D01*
X111045613Y-112583138D01*
X110948540Y-112623347D01*
X110861177Y-112681721D01*
X110786881Y-112756017D01*
X110728507Y-112843380D01*
X110688298Y-112940453D01*
X110667800Y-113043505D01*
X101954400Y-113043505D01*
X101954400Y-111612071D01*
X101965228Y-111615356D01*
X102020000Y-111620751D01*
X103720000Y-111620751D01*
X103774772Y-111615356D01*
X103827439Y-111599380D01*
X103875977Y-111573436D01*
X103918521Y-111538521D01*
X103953436Y-111495977D01*
X103979380Y-111447439D01*
X103995356Y-111394772D01*
X104000751Y-111340000D01*
X104000751Y-109574400D01*
X104279249Y-109574400D01*
X104279249Y-109645000D01*
M02*
