G04 #@! TF.GenerationSoftware,KiCad,Pcbnew,(5.1.0-218-ge90452d)*
G04 #@! TF.CreationDate,2019-04-20T11:49:25-07:00*
G04 #@! TF.ProjectId,lofive,6c6f6669-7665-42e6-9b69-6361645f7063,0*
G04 #@! TF.SameCoordinates,Original*
G04 #@! TF.FileFunction,Legend,Top*
G04 #@! TF.FilePolarity,Positive*
%FSLAX46Y46*%
G04 Gerber Fmt 4.6, Leading zero omitted, Abs format (unit mm)*
G04 Created by KiCad (PCBNEW (5.1.0-218-ge90452d)) date 2019-04-20 11:49:25*
%MOMM*%
%LPD*%
G04 APERTURE LIST*
%ADD10C,0.300000*%
%ADD11C,0.150000*%
%ADD12C,0.120000*%
%ADD13C,0.125000*%
G04 APERTURE END LIST*
D10*
X119727524Y-113069696D02*
X119132286Y-113069696D01*
X119132286Y-111819696D01*
X120322762Y-113069696D02*
X120203715Y-113010172D01*
X120144191Y-112950648D01*
X120084667Y-112831600D01*
X120084667Y-112474458D01*
X120144191Y-112355410D01*
X120203715Y-112295886D01*
X120322762Y-112236362D01*
X120501334Y-112236362D01*
X120620381Y-112295886D01*
X120679905Y-112355410D01*
X120739429Y-112474458D01*
X120739429Y-112831600D01*
X120679905Y-112950648D01*
X120620381Y-113010172D01*
X120501334Y-113069696D01*
X120322762Y-113069696D01*
X121691810Y-112414934D02*
X121275143Y-112414934D01*
X121275143Y-113069696D02*
X121275143Y-111819696D01*
X121870381Y-111819696D01*
X122346572Y-113069696D02*
X122346572Y-112236362D01*
X122346572Y-111819696D02*
X122287048Y-111879220D01*
X122346572Y-111938743D01*
X122406096Y-111879220D01*
X122346572Y-111819696D01*
X122346572Y-111938743D01*
X122822762Y-112236362D02*
X123120381Y-113069696D01*
X123418000Y-112236362D01*
X124370381Y-113010172D02*
X124251334Y-113069696D01*
X124013239Y-113069696D01*
X123894191Y-113010172D01*
X123834667Y-112891124D01*
X123834667Y-112414934D01*
X123894191Y-112295886D01*
X124013239Y-112236362D01*
X124251334Y-112236362D01*
X124370381Y-112295886D01*
X124429905Y-112414934D01*
X124429905Y-112533981D01*
X123834667Y-112653029D01*
X126632286Y-113069696D02*
X126215619Y-112474458D01*
X125918000Y-113069696D02*
X125918000Y-111819696D01*
X126394191Y-111819696D01*
X126513239Y-111879220D01*
X126572762Y-111938743D01*
X126632286Y-112057791D01*
X126632286Y-112236362D01*
X126572762Y-112355410D01*
X126513239Y-112414934D01*
X126394191Y-112474458D01*
X125918000Y-112474458D01*
X127822762Y-113069696D02*
X127108477Y-113069696D01*
X127465620Y-113069696D02*
X127465620Y-111819696D01*
X127346572Y-111998267D01*
X127227524Y-112117315D01*
X127108477Y-112176839D01*
X128358477Y-112950648D02*
X128418000Y-113010172D01*
X128358477Y-113069696D01*
X128298953Y-113010172D01*
X128358477Y-112950648D01*
X128358477Y-113069696D01*
X129608477Y-113069696D02*
X128894191Y-113069696D01*
X129251334Y-113069696D02*
X129251334Y-111819696D01*
X129132286Y-111998267D01*
X129013239Y-112117315D01*
X128894191Y-112176839D01*
D11*
X108321000Y-121522660D02*
X108321000Y-123272660D01*
X113626000Y-121522660D02*
X113626000Y-116022660D01*
X108116000Y-121522660D02*
X108116000Y-116022660D01*
X113626000Y-121522660D02*
X113326000Y-121522660D01*
X113626000Y-116022660D02*
X113326000Y-116022660D01*
X108116000Y-116022660D02*
X108416000Y-116022660D01*
X108116000Y-121522660D02*
X108321000Y-121522660D01*
D12*
X135100000Y-122973000D02*
X135100000Y-118073000D01*
X131600000Y-118073000D02*
X131600000Y-122973000D01*
X133000000Y-118073000D02*
X133700000Y-118073000D01*
X133000000Y-122973000D02*
X133700000Y-122973000D01*
X131600000Y-122973000D02*
X131700000Y-122973000D01*
X135000000Y-122973000D02*
X135100000Y-122973000D01*
X135100000Y-118073000D02*
X135000000Y-118073000D01*
X131600000Y-118073000D02*
X131700000Y-118073000D01*
X134216800Y-113746600D02*
X131766800Y-113746600D01*
X132416800Y-116966600D02*
X134216800Y-116966600D01*
X105022220Y-118481200D02*
X102572220Y-118481200D01*
X103222220Y-121701200D02*
X105022220Y-121701200D01*
X105040000Y-114087000D02*
X102590000Y-114087000D01*
X103240000Y-117307000D02*
X105040000Y-117307000D01*
X126859980Y-114824740D02*
X127409980Y-114824740D01*
X127409980Y-114824740D02*
X127409980Y-115374740D01*
X121739980Y-121044740D02*
X121189980Y-121044740D01*
X121189980Y-121044740D02*
X121189980Y-120494740D01*
X126859980Y-121044740D02*
X127409980Y-121044740D01*
X127409980Y-121044740D02*
X127409980Y-120494740D01*
X121739980Y-114824740D02*
X121189980Y-114824740D01*
D11*
X117687880Y-120170140D02*
X117687880Y-123370140D01*
X117687880Y-123370140D02*
X115087880Y-123370140D01*
X115087880Y-123370140D02*
X115087880Y-120170140D01*
X115087880Y-120170140D02*
X117687880Y-120170140D01*
D13*
X130181545Y-114379280D02*
X129824402Y-114629280D01*
X130181545Y-114807851D02*
X129431545Y-114807851D01*
X129431545Y-114522137D01*
X129467260Y-114450708D01*
X129502974Y-114414994D01*
X129574402Y-114379280D01*
X129681545Y-114379280D01*
X129752974Y-114414994D01*
X129788688Y-114450708D01*
X129824402Y-114522137D01*
X129824402Y-114807851D01*
X129431545Y-114129280D02*
X129431545Y-113629280D01*
X130181545Y-113950708D01*
X107758425Y-121570020D02*
X107401282Y-121820020D01*
X107758425Y-121998591D02*
X107008425Y-121998591D01*
X107008425Y-121712877D01*
X107044140Y-121641448D01*
X107079854Y-121605734D01*
X107151282Y-121570020D01*
X107258425Y-121570020D01*
X107329854Y-121605734D01*
X107365568Y-121641448D01*
X107401282Y-121712877D01*
X107401282Y-121998591D01*
X107008425Y-120927162D02*
X107008425Y-121070020D01*
X107044140Y-121141448D01*
X107079854Y-121177162D01*
X107186997Y-121248591D01*
X107329854Y-121284305D01*
X107615568Y-121284305D01*
X107686997Y-121248591D01*
X107722711Y-121212877D01*
X107758425Y-121141448D01*
X107758425Y-120998591D01*
X107722711Y-120927162D01*
X107686997Y-120891448D01*
X107615568Y-120855734D01*
X107436997Y-120855734D01*
X107365568Y-120891448D01*
X107329854Y-120927162D01*
X107294140Y-120998591D01*
X107294140Y-121141448D01*
X107329854Y-121212877D01*
X107365568Y-121248591D01*
X107436997Y-121284305D01*
X110357380Y-112462505D02*
X110107380Y-112105362D01*
X109928808Y-112462505D02*
X109928808Y-111712505D01*
X110214522Y-111712505D01*
X110285951Y-111748220D01*
X110321665Y-111783934D01*
X110357380Y-111855362D01*
X110357380Y-111962505D01*
X110321665Y-112033934D01*
X110285951Y-112069648D01*
X110214522Y-112105362D01*
X109928808Y-112105362D01*
X111035951Y-111712505D02*
X110678808Y-111712505D01*
X110643094Y-112069648D01*
X110678808Y-112033934D01*
X110750237Y-111998220D01*
X110928808Y-111998220D01*
X111000237Y-112033934D01*
X111035951Y-112069648D01*
X111071665Y-112141077D01*
X111071665Y-112319648D01*
X111035951Y-112391077D01*
X111000237Y-112426791D01*
X110928808Y-112462505D01*
X110750237Y-112462505D01*
X110678808Y-112426791D01*
X110643094Y-112391077D01*
X110578971Y-123686065D02*
X110578971Y-124293208D01*
X110614685Y-124364637D01*
X110650400Y-124400351D01*
X110721828Y-124436065D01*
X110864685Y-124436065D01*
X110936114Y-124400351D01*
X110971828Y-124364637D01*
X111007542Y-124293208D01*
X111007542Y-123686065D01*
X111328971Y-123757494D02*
X111364685Y-123721780D01*
X111436114Y-123686065D01*
X111614685Y-123686065D01*
X111686114Y-123721780D01*
X111721828Y-123757494D01*
X111757542Y-123828922D01*
X111757542Y-123900351D01*
X111721828Y-124007494D01*
X111293257Y-124436065D01*
X111757542Y-124436065D01*
X128936240Y-121857811D02*
X129043382Y-121893525D01*
X129221954Y-121893525D01*
X129293382Y-121857811D01*
X129329097Y-121822097D01*
X129364811Y-121750668D01*
X129364811Y-121679240D01*
X129329097Y-121607811D01*
X129293382Y-121572097D01*
X129221954Y-121536382D01*
X129079097Y-121500668D01*
X129007668Y-121464954D01*
X128971954Y-121429240D01*
X128936240Y-121357811D01*
X128936240Y-121286382D01*
X128971954Y-121214954D01*
X129007668Y-121179240D01*
X129079097Y-121143525D01*
X129257668Y-121143525D01*
X129364811Y-121179240D01*
X129614811Y-121143525D02*
X129793382Y-121893525D01*
X129936240Y-121357811D01*
X130079097Y-121893525D01*
X130257668Y-121143525D01*
X130936240Y-121893525D02*
X130507668Y-121893525D01*
X130721954Y-121893525D02*
X130721954Y-121143525D01*
X130650525Y-121250668D01*
X130579097Y-121322097D01*
X130507668Y-121357811D01*
X131272351Y-112830105D02*
X131272351Y-113437248D01*
X131308065Y-113508677D01*
X131343780Y-113544391D01*
X131415208Y-113580105D01*
X131558065Y-113580105D01*
X131629494Y-113544391D01*
X131665208Y-113508677D01*
X131700922Y-113437248D01*
X131700922Y-112830105D01*
X132415208Y-112830105D02*
X132058065Y-112830105D01*
X132022351Y-113187248D01*
X132058065Y-113151534D01*
X132129494Y-113115820D01*
X132308065Y-113115820D01*
X132379494Y-113151534D01*
X132415208Y-113187248D01*
X132450922Y-113258677D01*
X132450922Y-113437248D01*
X132415208Y-113508677D01*
X132379494Y-113544391D01*
X132308065Y-113580105D01*
X132129494Y-113580105D01*
X132058065Y-113544391D01*
X132022351Y-113508677D01*
X104122291Y-117577365D02*
X104122291Y-118184508D01*
X104158005Y-118255937D01*
X104193720Y-118291651D01*
X104265148Y-118327365D01*
X104408005Y-118327365D01*
X104479434Y-118291651D01*
X104515148Y-118255937D01*
X104550862Y-118184508D01*
X104550862Y-117577365D01*
X105229434Y-117827365D02*
X105229434Y-118327365D01*
X105050862Y-117541651D02*
X104872291Y-118077365D01*
X105336577Y-118077365D01*
X104081651Y-113114585D02*
X104081651Y-113721728D01*
X104117365Y-113793157D01*
X104153080Y-113828871D01*
X104224508Y-113864585D01*
X104367365Y-113864585D01*
X104438794Y-113828871D01*
X104474508Y-113793157D01*
X104510222Y-113721728D01*
X104510222Y-113114585D01*
X104795937Y-113114585D02*
X105260222Y-113114585D01*
X105010222Y-113400300D01*
X105117365Y-113400300D01*
X105188794Y-113436014D01*
X105224508Y-113471728D01*
X105260222Y-113543157D01*
X105260222Y-113721728D01*
X105224508Y-113793157D01*
X105188794Y-113828871D01*
X105117365Y-113864585D01*
X104903080Y-113864585D01*
X104831651Y-113828871D01*
X104795937Y-113793157D01*
X123127965Y-122702860D02*
X122770822Y-122952860D01*
X123127965Y-123131431D02*
X122377965Y-123131431D01*
X122377965Y-122845717D01*
X122413680Y-122774288D01*
X122449394Y-122738574D01*
X122520822Y-122702860D01*
X122627965Y-122702860D01*
X122699394Y-122738574D01*
X122735108Y-122774288D01*
X122770822Y-122845717D01*
X122770822Y-123131431D01*
X122377965Y-122452860D02*
X122377965Y-121988574D01*
X122663680Y-122238574D01*
X122663680Y-122131431D01*
X122699394Y-122060002D01*
X122735108Y-122024288D01*
X122806537Y-121988574D01*
X122985108Y-121988574D01*
X123056537Y-122024288D01*
X123092251Y-122060002D01*
X123127965Y-122131431D01*
X123127965Y-122345717D01*
X123092251Y-122417145D01*
X123056537Y-122452860D01*
X136379145Y-115529900D02*
X136022002Y-115779900D01*
X136379145Y-115958471D02*
X135629145Y-115958471D01*
X135629145Y-115672757D01*
X135664860Y-115601328D01*
X135700574Y-115565614D01*
X135772002Y-115529900D01*
X135879145Y-115529900D01*
X135950574Y-115565614D01*
X135986288Y-115601328D01*
X136022002Y-115672757D01*
X136022002Y-115958471D01*
X135700574Y-115244185D02*
X135664860Y-115208471D01*
X135629145Y-115137042D01*
X135629145Y-114958471D01*
X135664860Y-114887042D01*
X135700574Y-114851328D01*
X135772002Y-114815614D01*
X135843431Y-114815614D01*
X135950574Y-114851328D01*
X136379145Y-115279900D01*
X136379145Y-114815614D01*
X117242785Y-117102160D02*
X116885642Y-117352160D01*
X117242785Y-117530731D02*
X116492785Y-117530731D01*
X116492785Y-117245017D01*
X116528500Y-117173588D01*
X116564214Y-117137874D01*
X116635642Y-117102160D01*
X116742785Y-117102160D01*
X116814214Y-117137874D01*
X116849928Y-117173588D01*
X116885642Y-117245017D01*
X116885642Y-117530731D01*
X117242785Y-116387874D02*
X117242785Y-116816445D01*
X117242785Y-116602160D02*
X116492785Y-116602160D01*
X116599928Y-116673588D01*
X116671357Y-116745017D01*
X116707071Y-116816445D01*
X136287397Y-122033842D02*
X136323111Y-122069557D01*
X136358825Y-122176700D01*
X136358825Y-122248128D01*
X136323111Y-122355271D01*
X136251682Y-122426700D01*
X136180254Y-122462414D01*
X136037397Y-122498128D01*
X135930254Y-122498128D01*
X135787397Y-122462414D01*
X135715968Y-122426700D01*
X135644540Y-122355271D01*
X135608825Y-122248128D01*
X135608825Y-122176700D01*
X135644540Y-122069557D01*
X135680254Y-122033842D01*
X136358825Y-121319557D02*
X136358825Y-121748128D01*
X136358825Y-121533842D02*
X135608825Y-121533842D01*
X135715968Y-121605271D01*
X135787397Y-121676700D01*
X135823111Y-121748128D01*
X135608825Y-120676700D02*
X135608825Y-120819557D01*
X135644540Y-120890985D01*
X135680254Y-120926700D01*
X135787397Y-120998128D01*
X135930254Y-121033842D01*
X136215968Y-121033842D01*
X136287397Y-120998128D01*
X136323111Y-120962414D01*
X136358825Y-120890985D01*
X136358825Y-120748128D01*
X136323111Y-120676700D01*
X136287397Y-120640985D01*
X136215968Y-120605271D01*
X136037397Y-120605271D01*
X135965968Y-120640985D01*
X135930254Y-120676700D01*
X135894540Y-120748128D01*
X135894540Y-120890985D01*
X135930254Y-120962414D01*
X135965968Y-120998128D01*
X136037397Y-121033842D01*
X133561277Y-112337737D02*
X133525562Y-112373451D01*
X133418420Y-112409165D01*
X133346991Y-112409165D01*
X133239848Y-112373451D01*
X133168420Y-112302022D01*
X133132705Y-112230594D01*
X133096991Y-112087737D01*
X133096991Y-111980594D01*
X133132705Y-111837737D01*
X133168420Y-111766308D01*
X133239848Y-111694880D01*
X133346991Y-111659165D01*
X133418420Y-111659165D01*
X133525562Y-111694880D01*
X133561277Y-111730594D01*
X134275562Y-112409165D02*
X133846991Y-112409165D01*
X134061277Y-112409165D02*
X134061277Y-111659165D01*
X133989848Y-111766308D01*
X133918420Y-111837737D01*
X133846991Y-111873451D01*
X134954134Y-111659165D02*
X134596991Y-111659165D01*
X134561277Y-112016308D01*
X134596991Y-111980594D01*
X134668420Y-111944880D01*
X134846991Y-111944880D01*
X134918420Y-111980594D01*
X134954134Y-112016308D01*
X134989848Y-112087737D01*
X134989848Y-112266308D01*
X134954134Y-112337737D01*
X134918420Y-112373451D01*
X134846991Y-112409165D01*
X134668420Y-112409165D01*
X134596991Y-112373451D01*
X134561277Y-112337737D01*
X107059617Y-118521022D02*
X107095331Y-118556737D01*
X107131045Y-118663880D01*
X107131045Y-118735308D01*
X107095331Y-118842451D01*
X107023902Y-118913880D01*
X106952474Y-118949594D01*
X106809617Y-118985308D01*
X106702474Y-118985308D01*
X106559617Y-118949594D01*
X106488188Y-118913880D01*
X106416760Y-118842451D01*
X106381045Y-118735308D01*
X106381045Y-118663880D01*
X106416760Y-118556737D01*
X106452474Y-118521022D01*
X107131045Y-117806737D02*
X107131045Y-118235308D01*
X107131045Y-118021022D02*
X106381045Y-118021022D01*
X106488188Y-118092451D01*
X106559617Y-118163880D01*
X106595331Y-118235308D01*
X106631045Y-117163880D02*
X107131045Y-117163880D01*
X106345331Y-117342451D02*
X106881045Y-117521022D01*
X106881045Y-117056737D01*
X107100257Y-114223342D02*
X107135971Y-114259057D01*
X107171685Y-114366200D01*
X107171685Y-114437628D01*
X107135971Y-114544771D01*
X107064542Y-114616200D01*
X106993114Y-114651914D01*
X106850257Y-114687628D01*
X106743114Y-114687628D01*
X106600257Y-114651914D01*
X106528828Y-114616200D01*
X106457400Y-114544771D01*
X106421685Y-114437628D01*
X106421685Y-114366200D01*
X106457400Y-114259057D01*
X106493114Y-114223342D01*
X107171685Y-113509057D02*
X107171685Y-113937628D01*
X107171685Y-113723342D02*
X106421685Y-113723342D01*
X106528828Y-113794771D01*
X106600257Y-113866200D01*
X106635971Y-113937628D01*
X106421685Y-113259057D02*
X106421685Y-112794771D01*
X106707400Y-113044771D01*
X106707400Y-112937628D01*
X106743114Y-112866200D01*
X106778828Y-112830485D01*
X106850257Y-112794771D01*
X107028828Y-112794771D01*
X107100257Y-112830485D01*
X107135971Y-112866200D01*
X107171685Y-112937628D01*
X107171685Y-113151914D01*
X107135971Y-113223342D01*
X107100257Y-113259057D01*
X107899657Y-112383457D02*
X107863942Y-112419171D01*
X107756800Y-112454885D01*
X107685371Y-112454885D01*
X107578228Y-112419171D01*
X107506800Y-112347742D01*
X107471085Y-112276314D01*
X107435371Y-112133457D01*
X107435371Y-112026314D01*
X107471085Y-111883457D01*
X107506800Y-111812028D01*
X107578228Y-111740600D01*
X107685371Y-111704885D01*
X107756800Y-111704885D01*
X107863942Y-111740600D01*
X107899657Y-111776314D01*
X108613942Y-112454885D02*
X108185371Y-112454885D01*
X108399657Y-112454885D02*
X108399657Y-111704885D01*
X108328228Y-111812028D01*
X108256800Y-111883457D01*
X108185371Y-111919171D01*
X108899657Y-111776314D02*
X108935371Y-111740600D01*
X109006800Y-111704885D01*
X109185371Y-111704885D01*
X109256800Y-111740600D01*
X109292514Y-111776314D01*
X109328228Y-111847742D01*
X109328228Y-111919171D01*
X109292514Y-112026314D01*
X108863942Y-112454885D01*
X109328228Y-112454885D01*
X118530257Y-117042742D02*
X118565971Y-117078457D01*
X118601685Y-117185600D01*
X118601685Y-117257028D01*
X118565971Y-117364171D01*
X118494542Y-117435600D01*
X118423114Y-117471314D01*
X118280257Y-117507028D01*
X118173114Y-117507028D01*
X118030257Y-117471314D01*
X117958828Y-117435600D01*
X117887400Y-117364171D01*
X117851685Y-117257028D01*
X117851685Y-117185600D01*
X117887400Y-117078457D01*
X117923114Y-117042742D01*
X118601685Y-116328457D02*
X118601685Y-116757028D01*
X118601685Y-116542742D02*
X117851685Y-116542742D01*
X117958828Y-116614171D01*
X118030257Y-116685600D01*
X118065971Y-116757028D01*
X118601685Y-115614171D02*
X118601685Y-116042742D01*
X118601685Y-115828457D02*
X117851685Y-115828457D01*
X117958828Y-115899885D01*
X118030257Y-115971314D01*
X118065971Y-116042742D01*
X125974997Y-123199702D02*
X126010711Y-123235417D01*
X126046425Y-123342560D01*
X126046425Y-123413988D01*
X126010711Y-123521131D01*
X125939282Y-123592560D01*
X125867854Y-123628274D01*
X125724997Y-123663988D01*
X125617854Y-123663988D01*
X125474997Y-123628274D01*
X125403568Y-123592560D01*
X125332140Y-123521131D01*
X125296425Y-123413988D01*
X125296425Y-123342560D01*
X125332140Y-123235417D01*
X125367854Y-123199702D01*
X126046425Y-122485417D02*
X126046425Y-122913988D01*
X126046425Y-122699702D02*
X125296425Y-122699702D01*
X125403568Y-122771131D01*
X125474997Y-122842560D01*
X125510711Y-122913988D01*
X125296425Y-122021131D02*
X125296425Y-121949702D01*
X125332140Y-121878274D01*
X125367854Y-121842560D01*
X125439282Y-121806845D01*
X125582140Y-121771131D01*
X125760711Y-121771131D01*
X125903568Y-121806845D01*
X125974997Y-121842560D01*
X126010711Y-121878274D01*
X126046425Y-121949702D01*
X126046425Y-122021131D01*
X126010711Y-122092560D01*
X125974997Y-122128274D01*
X125903568Y-122163988D01*
X125760711Y-122199702D01*
X125582140Y-122199702D01*
X125439282Y-122163988D01*
X125367854Y-122128274D01*
X125332140Y-122092560D01*
X125296425Y-122021131D01*
X129478500Y-115919137D02*
X129442785Y-115954851D01*
X129335642Y-115990565D01*
X129264214Y-115990565D01*
X129157071Y-115954851D01*
X129085642Y-115883422D01*
X129049928Y-115811994D01*
X129014214Y-115669137D01*
X129014214Y-115561994D01*
X129049928Y-115419137D01*
X129085642Y-115347708D01*
X129157071Y-115276280D01*
X129264214Y-115240565D01*
X129335642Y-115240565D01*
X129442785Y-115276280D01*
X129478500Y-115311994D01*
X129835642Y-115990565D02*
X129978500Y-115990565D01*
X130049928Y-115954851D01*
X130085642Y-115919137D01*
X130157071Y-115811994D01*
X130192785Y-115669137D01*
X130192785Y-115383422D01*
X130157071Y-115311994D01*
X130121357Y-115276280D01*
X130049928Y-115240565D01*
X129907071Y-115240565D01*
X129835642Y-115276280D01*
X129799928Y-115311994D01*
X129764214Y-115383422D01*
X129764214Y-115561994D01*
X129799928Y-115633422D01*
X129835642Y-115669137D01*
X129907071Y-115704851D01*
X130049928Y-115704851D01*
X130121357Y-115669137D01*
X130157071Y-115633422D01*
X130192785Y-115561994D01*
X119795177Y-117086920D02*
X119830891Y-117122634D01*
X119866605Y-117229777D01*
X119866605Y-117301205D01*
X119830891Y-117408348D01*
X119759462Y-117479777D01*
X119688034Y-117515491D01*
X119545177Y-117551205D01*
X119438034Y-117551205D01*
X119295177Y-117515491D01*
X119223748Y-117479777D01*
X119152320Y-117408348D01*
X119116605Y-117301205D01*
X119116605Y-117229777D01*
X119152320Y-117122634D01*
X119188034Y-117086920D01*
X119438034Y-116658348D02*
X119402320Y-116729777D01*
X119366605Y-116765491D01*
X119295177Y-116801205D01*
X119259462Y-116801205D01*
X119188034Y-116765491D01*
X119152320Y-116729777D01*
X119116605Y-116658348D01*
X119116605Y-116515491D01*
X119152320Y-116444062D01*
X119188034Y-116408348D01*
X119259462Y-116372634D01*
X119295177Y-116372634D01*
X119366605Y-116408348D01*
X119402320Y-116444062D01*
X119438034Y-116515491D01*
X119438034Y-116658348D01*
X119473748Y-116729777D01*
X119509462Y-116765491D01*
X119580891Y-116801205D01*
X119723748Y-116801205D01*
X119795177Y-116765491D01*
X119830891Y-116729777D01*
X119866605Y-116658348D01*
X119866605Y-116515491D01*
X119830891Y-116444062D01*
X119795177Y-116408348D01*
X119723748Y-116372634D01*
X119580891Y-116372634D01*
X119509462Y-116408348D01*
X119473748Y-116444062D01*
X119438034Y-116515491D01*
X129501360Y-120005997D02*
X129465645Y-120041711D01*
X129358502Y-120077425D01*
X129287074Y-120077425D01*
X129179931Y-120041711D01*
X129108502Y-119970282D01*
X129072788Y-119898854D01*
X129037074Y-119755997D01*
X129037074Y-119648854D01*
X129072788Y-119505997D01*
X129108502Y-119434568D01*
X129179931Y-119363140D01*
X129287074Y-119327425D01*
X129358502Y-119327425D01*
X129465645Y-119363140D01*
X129501360Y-119398854D01*
X129751360Y-119327425D02*
X130251360Y-119327425D01*
X129929931Y-120077425D01*
X117710680Y-115075857D02*
X117674965Y-115111571D01*
X117567822Y-115147285D01*
X117496394Y-115147285D01*
X117389251Y-115111571D01*
X117317822Y-115040142D01*
X117282108Y-114968714D01*
X117246394Y-114825857D01*
X117246394Y-114718714D01*
X117282108Y-114575857D01*
X117317822Y-114504428D01*
X117389251Y-114433000D01*
X117496394Y-114397285D01*
X117567822Y-114397285D01*
X117674965Y-114433000D01*
X117710680Y-114468714D01*
X118353537Y-114397285D02*
X118210680Y-114397285D01*
X118139251Y-114433000D01*
X118103537Y-114468714D01*
X118032108Y-114575857D01*
X117996394Y-114718714D01*
X117996394Y-115004428D01*
X118032108Y-115075857D01*
X118067822Y-115111571D01*
X118139251Y-115147285D01*
X118282108Y-115147285D01*
X118353537Y-115111571D01*
X118389251Y-115075857D01*
X118424965Y-115004428D01*
X118424965Y-114825857D01*
X118389251Y-114754428D01*
X118353537Y-114718714D01*
X118282108Y-114683000D01*
X118139251Y-114683000D01*
X118067822Y-114718714D01*
X118032108Y-114754428D01*
X117996394Y-114825857D01*
X117690360Y-113963337D02*
X117654645Y-113999051D01*
X117547502Y-114034765D01*
X117476074Y-114034765D01*
X117368931Y-113999051D01*
X117297502Y-113927622D01*
X117261788Y-113856194D01*
X117226074Y-113713337D01*
X117226074Y-113606194D01*
X117261788Y-113463337D01*
X117297502Y-113391908D01*
X117368931Y-113320480D01*
X117476074Y-113284765D01*
X117547502Y-113284765D01*
X117654645Y-113320480D01*
X117690360Y-113356194D01*
X118368931Y-113284765D02*
X118011788Y-113284765D01*
X117976074Y-113641908D01*
X118011788Y-113606194D01*
X118083217Y-113570480D01*
X118261788Y-113570480D01*
X118333217Y-113606194D01*
X118368931Y-113641908D01*
X118404645Y-113713337D01*
X118404645Y-113891908D01*
X118368931Y-113963337D01*
X118333217Y-113999051D01*
X118261788Y-114034765D01*
X118083217Y-114034765D01*
X118011788Y-113999051D01*
X117976074Y-113963337D01*
X119117840Y-120308257D02*
X119082125Y-120343971D01*
X118974982Y-120379685D01*
X118903554Y-120379685D01*
X118796411Y-120343971D01*
X118724982Y-120272542D01*
X118689268Y-120201114D01*
X118653554Y-120058257D01*
X118653554Y-119951114D01*
X118689268Y-119808257D01*
X118724982Y-119736828D01*
X118796411Y-119665400D01*
X118903554Y-119629685D01*
X118974982Y-119629685D01*
X119082125Y-119665400D01*
X119117840Y-119701114D01*
X119760697Y-119879685D02*
X119760697Y-120379685D01*
X119582125Y-119593971D02*
X119403554Y-120129685D01*
X119867840Y-120129685D01*
X115891197Y-114450400D02*
X115926911Y-114486114D01*
X115962625Y-114593257D01*
X115962625Y-114664685D01*
X115926911Y-114771828D01*
X115855482Y-114843257D01*
X115784054Y-114878971D01*
X115641197Y-114914685D01*
X115534054Y-114914685D01*
X115391197Y-114878971D01*
X115319768Y-114843257D01*
X115248340Y-114771828D01*
X115212625Y-114664685D01*
X115212625Y-114593257D01*
X115248340Y-114486114D01*
X115284054Y-114450400D01*
X115212625Y-114200400D02*
X115212625Y-113736114D01*
X115498340Y-113986114D01*
X115498340Y-113878971D01*
X115534054Y-113807542D01*
X115569768Y-113771828D01*
X115641197Y-113736114D01*
X115819768Y-113736114D01*
X115891197Y-113771828D01*
X115926911Y-113807542D01*
X115962625Y-113878971D01*
X115962625Y-114093257D01*
X115926911Y-114164685D01*
X115891197Y-114200400D01*
X119143240Y-122482497D02*
X119107525Y-122518211D01*
X119000382Y-122553925D01*
X118928954Y-122553925D01*
X118821811Y-122518211D01*
X118750382Y-122446782D01*
X118714668Y-122375354D01*
X118678954Y-122232497D01*
X118678954Y-122125354D01*
X118714668Y-121982497D01*
X118750382Y-121911068D01*
X118821811Y-121839640D01*
X118928954Y-121803925D01*
X119000382Y-121803925D01*
X119107525Y-121839640D01*
X119143240Y-121875354D01*
X119428954Y-121875354D02*
X119464668Y-121839640D01*
X119536097Y-121803925D01*
X119714668Y-121803925D01*
X119786097Y-121839640D01*
X119821811Y-121875354D01*
X119857525Y-121946782D01*
X119857525Y-122018211D01*
X119821811Y-122125354D01*
X119393240Y-122553925D01*
X119857525Y-122553925D01*
X115830237Y-117125020D02*
X115865951Y-117160734D01*
X115901665Y-117267877D01*
X115901665Y-117339305D01*
X115865951Y-117446448D01*
X115794522Y-117517877D01*
X115723094Y-117553591D01*
X115580237Y-117589305D01*
X115473094Y-117589305D01*
X115330237Y-117553591D01*
X115258808Y-117517877D01*
X115187380Y-117446448D01*
X115151665Y-117339305D01*
X115151665Y-117267877D01*
X115187380Y-117160734D01*
X115223094Y-117125020D01*
X115901665Y-116410734D02*
X115901665Y-116839305D01*
X115901665Y-116625020D02*
X115151665Y-116625020D01*
X115258808Y-116696448D01*
X115330237Y-116767877D01*
X115365951Y-116839305D01*
X105724420Y-123851865D02*
X105474420Y-123494722D01*
X105295848Y-123851865D02*
X105295848Y-123101865D01*
X105581562Y-123101865D01*
X105652991Y-123137580D01*
X105688705Y-123173294D01*
X105724420Y-123244722D01*
X105724420Y-123351865D01*
X105688705Y-123423294D01*
X105652991Y-123459008D01*
X105581562Y-123494722D01*
X105295848Y-123494722D01*
X106367277Y-123351865D02*
X106367277Y-123851865D01*
X106188705Y-123066151D02*
X106010134Y-123601865D01*
X106474420Y-123601865D01*
X105222497Y-122698397D02*
X105186782Y-122734111D01*
X105079640Y-122769825D01*
X105008211Y-122769825D01*
X104901068Y-122734111D01*
X104829640Y-122662682D01*
X104793925Y-122591254D01*
X104758211Y-122448397D01*
X104758211Y-122341254D01*
X104793925Y-122198397D01*
X104829640Y-122126968D01*
X104901068Y-122055540D01*
X105008211Y-122019825D01*
X105079640Y-122019825D01*
X105186782Y-122055540D01*
X105222497Y-122091254D01*
X105936782Y-122769825D02*
X105508211Y-122769825D01*
X105722497Y-122769825D02*
X105722497Y-122019825D01*
X105651068Y-122126968D01*
X105579640Y-122198397D01*
X105508211Y-122234111D01*
X106186782Y-122019825D02*
X106686782Y-122019825D01*
X106365354Y-122769825D01*
X123708231Y-113533685D02*
X123708231Y-114140828D01*
X123743945Y-114212257D01*
X123779660Y-114247971D01*
X123851088Y-114283685D01*
X123993945Y-114283685D01*
X124065374Y-114247971D01*
X124101088Y-114212257D01*
X124136802Y-114140828D01*
X124136802Y-113533685D01*
X124886802Y-114283685D02*
X124458231Y-114283685D01*
X124672517Y-114283685D02*
X124672517Y-113533685D01*
X124601088Y-113640828D01*
X124529660Y-113712257D01*
X124458231Y-113747971D01*
X116117097Y-124157662D02*
X116117097Y-124514805D01*
X115867097Y-123764805D02*
X116117097Y-124157662D01*
X116367097Y-123764805D01*
X117009954Y-124514805D02*
X116581382Y-124514805D01*
X116795668Y-124514805D02*
X116795668Y-123764805D01*
X116724240Y-123871948D01*
X116652811Y-123943377D01*
X116581382Y-123979091D01*
M02*
