G04 #@! TF.GenerationSoftware,KiCad,Pcbnew,(5.1.0-218-ge90452d)*
G04 #@! TF.CreationDate,2019-04-20T11:49:25-07:00*
G04 #@! TF.ProjectId,lofive,6c6f6669-7665-42e6-9b69-6361645f7063,0*
G04 #@! TF.SameCoordinates,Original*
G04 #@! TF.FileFunction,Paste,Top*
G04 #@! TF.FilePolarity,Positive*
%FSLAX46Y46*%
G04 Gerber Fmt 4.6, Leading zero omitted, Abs format (unit mm)*
G04 Created by KiCad (PCBNEW (5.1.0-218-ge90452d)) date 2019-04-20 11:49:25*
%MOMM*%
%LPD*%
G04 APERTURE LIST*
%ADD10C,0.100000*%
%ADD11C,0.590000*%
%ADD12R,0.650000X1.700000*%
%ADD13R,0.700000X1.450000*%
%ADD14R,1.060000X0.650000*%
%ADD15C,1.200000*%
%ADD16C,0.200000*%
%ADD17R,1.200000X1.400000*%
G04 APERTURE END LIST*
D10*
G36*
X131032518Y-115125710D02*
G01*
X131046836Y-115127834D01*
X131060877Y-115131351D01*
X131074506Y-115136228D01*
X131087591Y-115142417D01*
X131100007Y-115149858D01*
X131111633Y-115158481D01*
X131122358Y-115168202D01*
X131132079Y-115178927D01*
X131140702Y-115190553D01*
X131148143Y-115202969D01*
X131154332Y-115216054D01*
X131159209Y-115229683D01*
X131162726Y-115243724D01*
X131164850Y-115258042D01*
X131165560Y-115272500D01*
X131165560Y-115567500D01*
X131164850Y-115581958D01*
X131162726Y-115596276D01*
X131159209Y-115610317D01*
X131154332Y-115623946D01*
X131148143Y-115637031D01*
X131140702Y-115649447D01*
X131132079Y-115661073D01*
X131122358Y-115671798D01*
X131111633Y-115681519D01*
X131100007Y-115690142D01*
X131087591Y-115697583D01*
X131074506Y-115703772D01*
X131060877Y-115708649D01*
X131046836Y-115712166D01*
X131032518Y-115714290D01*
X131018060Y-115715000D01*
X130673060Y-115715000D01*
X130658602Y-115714290D01*
X130644284Y-115712166D01*
X130630243Y-115708649D01*
X130616614Y-115703772D01*
X130603529Y-115697583D01*
X130591113Y-115690142D01*
X130579487Y-115681519D01*
X130568762Y-115671798D01*
X130559041Y-115661073D01*
X130550418Y-115649447D01*
X130542977Y-115637031D01*
X130536788Y-115623946D01*
X130531911Y-115610317D01*
X130528394Y-115596276D01*
X130526270Y-115581958D01*
X130525560Y-115567500D01*
X130525560Y-115272500D01*
X130526270Y-115258042D01*
X130528394Y-115243724D01*
X130531911Y-115229683D01*
X130536788Y-115216054D01*
X130542977Y-115202969D01*
X130550418Y-115190553D01*
X130559041Y-115178927D01*
X130568762Y-115168202D01*
X130579487Y-115158481D01*
X130591113Y-115149858D01*
X130603529Y-115142417D01*
X130616614Y-115136228D01*
X130630243Y-115131351D01*
X130644284Y-115127834D01*
X130658602Y-115125710D01*
X130673060Y-115125000D01*
X131018060Y-115125000D01*
X131032518Y-115125710D01*
X131032518Y-115125710D01*
G37*
D11*
X130845560Y-115420000D03*
D10*
G36*
X131032518Y-114155710D02*
G01*
X131046836Y-114157834D01*
X131060877Y-114161351D01*
X131074506Y-114166228D01*
X131087591Y-114172417D01*
X131100007Y-114179858D01*
X131111633Y-114188481D01*
X131122358Y-114198202D01*
X131132079Y-114208927D01*
X131140702Y-114220553D01*
X131148143Y-114232969D01*
X131154332Y-114246054D01*
X131159209Y-114259683D01*
X131162726Y-114273724D01*
X131164850Y-114288042D01*
X131165560Y-114302500D01*
X131165560Y-114597500D01*
X131164850Y-114611958D01*
X131162726Y-114626276D01*
X131159209Y-114640317D01*
X131154332Y-114653946D01*
X131148143Y-114667031D01*
X131140702Y-114679447D01*
X131132079Y-114691073D01*
X131122358Y-114701798D01*
X131111633Y-114711519D01*
X131100007Y-114720142D01*
X131087591Y-114727583D01*
X131074506Y-114733772D01*
X131060877Y-114738649D01*
X131046836Y-114742166D01*
X131032518Y-114744290D01*
X131018060Y-114745000D01*
X130673060Y-114745000D01*
X130658602Y-114744290D01*
X130644284Y-114742166D01*
X130630243Y-114738649D01*
X130616614Y-114733772D01*
X130603529Y-114727583D01*
X130591113Y-114720142D01*
X130579487Y-114711519D01*
X130568762Y-114701798D01*
X130559041Y-114691073D01*
X130550418Y-114679447D01*
X130542977Y-114667031D01*
X130536788Y-114653946D01*
X130531911Y-114640317D01*
X130528394Y-114626276D01*
X130526270Y-114611958D01*
X130525560Y-114597500D01*
X130525560Y-114302500D01*
X130526270Y-114288042D01*
X130528394Y-114273724D01*
X130531911Y-114259683D01*
X130536788Y-114246054D01*
X130542977Y-114232969D01*
X130550418Y-114220553D01*
X130559041Y-114208927D01*
X130568762Y-114198202D01*
X130579487Y-114188481D01*
X130591113Y-114179858D01*
X130603529Y-114172417D01*
X130616614Y-114166228D01*
X130630243Y-114161351D01*
X130644284Y-114157834D01*
X130658602Y-114155710D01*
X130673060Y-114155000D01*
X131018060Y-114155000D01*
X131032518Y-114155710D01*
X131032518Y-114155710D01*
G37*
D11*
X130845560Y-114450000D03*
D10*
G36*
X107555298Y-123152110D02*
G01*
X107569616Y-123154234D01*
X107583657Y-123157751D01*
X107597286Y-123162628D01*
X107610371Y-123168817D01*
X107622787Y-123176258D01*
X107634413Y-123184881D01*
X107645138Y-123194602D01*
X107654859Y-123205327D01*
X107663482Y-123216953D01*
X107670923Y-123229369D01*
X107677112Y-123242454D01*
X107681989Y-123256083D01*
X107685506Y-123270124D01*
X107687630Y-123284442D01*
X107688340Y-123298900D01*
X107688340Y-123593900D01*
X107687630Y-123608358D01*
X107685506Y-123622676D01*
X107681989Y-123636717D01*
X107677112Y-123650346D01*
X107670923Y-123663431D01*
X107663482Y-123675847D01*
X107654859Y-123687473D01*
X107645138Y-123698198D01*
X107634413Y-123707919D01*
X107622787Y-123716542D01*
X107610371Y-123723983D01*
X107597286Y-123730172D01*
X107583657Y-123735049D01*
X107569616Y-123738566D01*
X107555298Y-123740690D01*
X107540840Y-123741400D01*
X107195840Y-123741400D01*
X107181382Y-123740690D01*
X107167064Y-123738566D01*
X107153023Y-123735049D01*
X107139394Y-123730172D01*
X107126309Y-123723983D01*
X107113893Y-123716542D01*
X107102267Y-123707919D01*
X107091542Y-123698198D01*
X107081821Y-123687473D01*
X107073198Y-123675847D01*
X107065757Y-123663431D01*
X107059568Y-123650346D01*
X107054691Y-123636717D01*
X107051174Y-123622676D01*
X107049050Y-123608358D01*
X107048340Y-123593900D01*
X107048340Y-123298900D01*
X107049050Y-123284442D01*
X107051174Y-123270124D01*
X107054691Y-123256083D01*
X107059568Y-123242454D01*
X107065757Y-123229369D01*
X107073198Y-123216953D01*
X107081821Y-123205327D01*
X107091542Y-123194602D01*
X107102267Y-123184881D01*
X107113893Y-123176258D01*
X107126309Y-123168817D01*
X107139394Y-123162628D01*
X107153023Y-123157751D01*
X107167064Y-123154234D01*
X107181382Y-123152110D01*
X107195840Y-123151400D01*
X107540840Y-123151400D01*
X107555298Y-123152110D01*
X107555298Y-123152110D01*
G37*
D11*
X107368340Y-123446400D03*
D10*
G36*
X107555298Y-122182110D02*
G01*
X107569616Y-122184234D01*
X107583657Y-122187751D01*
X107597286Y-122192628D01*
X107610371Y-122198817D01*
X107622787Y-122206258D01*
X107634413Y-122214881D01*
X107645138Y-122224602D01*
X107654859Y-122235327D01*
X107663482Y-122246953D01*
X107670923Y-122259369D01*
X107677112Y-122272454D01*
X107681989Y-122286083D01*
X107685506Y-122300124D01*
X107687630Y-122314442D01*
X107688340Y-122328900D01*
X107688340Y-122623900D01*
X107687630Y-122638358D01*
X107685506Y-122652676D01*
X107681989Y-122666717D01*
X107677112Y-122680346D01*
X107670923Y-122693431D01*
X107663482Y-122705847D01*
X107654859Y-122717473D01*
X107645138Y-122728198D01*
X107634413Y-122737919D01*
X107622787Y-122746542D01*
X107610371Y-122753983D01*
X107597286Y-122760172D01*
X107583657Y-122765049D01*
X107569616Y-122768566D01*
X107555298Y-122770690D01*
X107540840Y-122771400D01*
X107195840Y-122771400D01*
X107181382Y-122770690D01*
X107167064Y-122768566D01*
X107153023Y-122765049D01*
X107139394Y-122760172D01*
X107126309Y-122753983D01*
X107113893Y-122746542D01*
X107102267Y-122737919D01*
X107091542Y-122728198D01*
X107081821Y-122717473D01*
X107073198Y-122705847D01*
X107065757Y-122693431D01*
X107059568Y-122680346D01*
X107054691Y-122666717D01*
X107051174Y-122652676D01*
X107049050Y-122638358D01*
X107048340Y-122623900D01*
X107048340Y-122328900D01*
X107049050Y-122314442D01*
X107051174Y-122300124D01*
X107054691Y-122286083D01*
X107059568Y-122272454D01*
X107065757Y-122259369D01*
X107073198Y-122246953D01*
X107081821Y-122235327D01*
X107091542Y-122224602D01*
X107102267Y-122214881D01*
X107113893Y-122206258D01*
X107126309Y-122198817D01*
X107139394Y-122192628D01*
X107153023Y-122187751D01*
X107167064Y-122184234D01*
X107181382Y-122182110D01*
X107195840Y-122181400D01*
X107540840Y-122181400D01*
X107555298Y-122182110D01*
X107555298Y-122182110D01*
G37*
D11*
X107368340Y-122476400D03*
D10*
G36*
X110164418Y-112781830D02*
G01*
X110178736Y-112783954D01*
X110192777Y-112787471D01*
X110206406Y-112792348D01*
X110219491Y-112798537D01*
X110231907Y-112805978D01*
X110243533Y-112814601D01*
X110254258Y-112824322D01*
X110263979Y-112835047D01*
X110272602Y-112846673D01*
X110280043Y-112859089D01*
X110286232Y-112872174D01*
X110291109Y-112885803D01*
X110294626Y-112899844D01*
X110296750Y-112914162D01*
X110297460Y-112928620D01*
X110297460Y-113273620D01*
X110296750Y-113288078D01*
X110294626Y-113302396D01*
X110291109Y-113316437D01*
X110286232Y-113330066D01*
X110280043Y-113343151D01*
X110272602Y-113355567D01*
X110263979Y-113367193D01*
X110254258Y-113377918D01*
X110243533Y-113387639D01*
X110231907Y-113396262D01*
X110219491Y-113403703D01*
X110206406Y-113409892D01*
X110192777Y-113414769D01*
X110178736Y-113418286D01*
X110164418Y-113420410D01*
X110149960Y-113421120D01*
X109854960Y-113421120D01*
X109840502Y-113420410D01*
X109826184Y-113418286D01*
X109812143Y-113414769D01*
X109798514Y-113409892D01*
X109785429Y-113403703D01*
X109773013Y-113396262D01*
X109761387Y-113387639D01*
X109750662Y-113377918D01*
X109740941Y-113367193D01*
X109732318Y-113355567D01*
X109724877Y-113343151D01*
X109718688Y-113330066D01*
X109713811Y-113316437D01*
X109710294Y-113302396D01*
X109708170Y-113288078D01*
X109707460Y-113273620D01*
X109707460Y-112928620D01*
X109708170Y-112914162D01*
X109710294Y-112899844D01*
X109713811Y-112885803D01*
X109718688Y-112872174D01*
X109724877Y-112859089D01*
X109732318Y-112846673D01*
X109740941Y-112835047D01*
X109750662Y-112824322D01*
X109761387Y-112814601D01*
X109773013Y-112805978D01*
X109785429Y-112798537D01*
X109798514Y-112792348D01*
X109812143Y-112787471D01*
X109826184Y-112783954D01*
X109840502Y-112781830D01*
X109854960Y-112781120D01*
X110149960Y-112781120D01*
X110164418Y-112781830D01*
X110164418Y-112781830D01*
G37*
D11*
X110002460Y-113101120D03*
D10*
G36*
X111134418Y-112781830D02*
G01*
X111148736Y-112783954D01*
X111162777Y-112787471D01*
X111176406Y-112792348D01*
X111189491Y-112798537D01*
X111201907Y-112805978D01*
X111213533Y-112814601D01*
X111224258Y-112824322D01*
X111233979Y-112835047D01*
X111242602Y-112846673D01*
X111250043Y-112859089D01*
X111256232Y-112872174D01*
X111261109Y-112885803D01*
X111264626Y-112899844D01*
X111266750Y-112914162D01*
X111267460Y-112928620D01*
X111267460Y-113273620D01*
X111266750Y-113288078D01*
X111264626Y-113302396D01*
X111261109Y-113316437D01*
X111256232Y-113330066D01*
X111250043Y-113343151D01*
X111242602Y-113355567D01*
X111233979Y-113367193D01*
X111224258Y-113377918D01*
X111213533Y-113387639D01*
X111201907Y-113396262D01*
X111189491Y-113403703D01*
X111176406Y-113409892D01*
X111162777Y-113414769D01*
X111148736Y-113418286D01*
X111134418Y-113420410D01*
X111119960Y-113421120D01*
X110824960Y-113421120D01*
X110810502Y-113420410D01*
X110796184Y-113418286D01*
X110782143Y-113414769D01*
X110768514Y-113409892D01*
X110755429Y-113403703D01*
X110743013Y-113396262D01*
X110731387Y-113387639D01*
X110720662Y-113377918D01*
X110710941Y-113367193D01*
X110702318Y-113355567D01*
X110694877Y-113343151D01*
X110688688Y-113330066D01*
X110683811Y-113316437D01*
X110680294Y-113302396D01*
X110678170Y-113288078D01*
X110677460Y-113273620D01*
X110677460Y-112928620D01*
X110678170Y-112914162D01*
X110680294Y-112899844D01*
X110683811Y-112885803D01*
X110688688Y-112872174D01*
X110694877Y-112859089D01*
X110702318Y-112846673D01*
X110710941Y-112835047D01*
X110720662Y-112824322D01*
X110731387Y-112814601D01*
X110743013Y-112805978D01*
X110755429Y-112798537D01*
X110768514Y-112792348D01*
X110782143Y-112787471D01*
X110796184Y-112783954D01*
X110810502Y-112781830D01*
X110824960Y-112781120D01*
X111119960Y-112781120D01*
X111134418Y-112781830D01*
X111134418Y-112781830D01*
G37*
D11*
X110972460Y-113101120D03*
D12*
X108966000Y-115122660D03*
X110236000Y-115122660D03*
X111506000Y-115122660D03*
X112776000Y-115122660D03*
X112776000Y-122422660D03*
X111506000Y-122422660D03*
X110236000Y-122422660D03*
X108966000Y-122422660D03*
D13*
X134350000Y-117943000D03*
X134350000Y-123103000D03*
X132350000Y-123103000D03*
X132350000Y-117943000D03*
D14*
X134416800Y-114406600D03*
X134416800Y-116306600D03*
X132216800Y-116306600D03*
X132216800Y-115356600D03*
X132216800Y-114406600D03*
X105222220Y-119141200D03*
X105222220Y-121041200D03*
X103022220Y-121041200D03*
X103022220Y-120091200D03*
X103022220Y-119141200D03*
X105240000Y-114747000D03*
X105240000Y-116647000D03*
X103040000Y-116647000D03*
X103040000Y-115697000D03*
X103040000Y-114747000D03*
D10*
G36*
X123882418Y-122743170D02*
G01*
X123896736Y-122745294D01*
X123910777Y-122748811D01*
X123924406Y-122753688D01*
X123937491Y-122759877D01*
X123949907Y-122767318D01*
X123961533Y-122775941D01*
X123972258Y-122785662D01*
X123981979Y-122796387D01*
X123990602Y-122808013D01*
X123998043Y-122820429D01*
X124004232Y-122833514D01*
X124009109Y-122847143D01*
X124012626Y-122861184D01*
X124014750Y-122875502D01*
X124015460Y-122889960D01*
X124015460Y-123184960D01*
X124014750Y-123199418D01*
X124012626Y-123213736D01*
X124009109Y-123227777D01*
X124004232Y-123241406D01*
X123998043Y-123254491D01*
X123990602Y-123266907D01*
X123981979Y-123278533D01*
X123972258Y-123289258D01*
X123961533Y-123298979D01*
X123949907Y-123307602D01*
X123937491Y-123315043D01*
X123924406Y-123321232D01*
X123910777Y-123326109D01*
X123896736Y-123329626D01*
X123882418Y-123331750D01*
X123867960Y-123332460D01*
X123522960Y-123332460D01*
X123508502Y-123331750D01*
X123494184Y-123329626D01*
X123480143Y-123326109D01*
X123466514Y-123321232D01*
X123453429Y-123315043D01*
X123441013Y-123307602D01*
X123429387Y-123298979D01*
X123418662Y-123289258D01*
X123408941Y-123278533D01*
X123400318Y-123266907D01*
X123392877Y-123254491D01*
X123386688Y-123241406D01*
X123381811Y-123227777D01*
X123378294Y-123213736D01*
X123376170Y-123199418D01*
X123375460Y-123184960D01*
X123375460Y-122889960D01*
X123376170Y-122875502D01*
X123378294Y-122861184D01*
X123381811Y-122847143D01*
X123386688Y-122833514D01*
X123392877Y-122820429D01*
X123400318Y-122808013D01*
X123408941Y-122796387D01*
X123418662Y-122785662D01*
X123429387Y-122775941D01*
X123441013Y-122767318D01*
X123453429Y-122759877D01*
X123466514Y-122753688D01*
X123480143Y-122748811D01*
X123494184Y-122745294D01*
X123508502Y-122743170D01*
X123522960Y-122742460D01*
X123867960Y-122742460D01*
X123882418Y-122743170D01*
X123882418Y-122743170D01*
G37*
D11*
X123695460Y-123037460D03*
D10*
G36*
X123882418Y-121773170D02*
G01*
X123896736Y-121775294D01*
X123910777Y-121778811D01*
X123924406Y-121783688D01*
X123937491Y-121789877D01*
X123949907Y-121797318D01*
X123961533Y-121805941D01*
X123972258Y-121815662D01*
X123981979Y-121826387D01*
X123990602Y-121838013D01*
X123998043Y-121850429D01*
X124004232Y-121863514D01*
X124009109Y-121877143D01*
X124012626Y-121891184D01*
X124014750Y-121905502D01*
X124015460Y-121919960D01*
X124015460Y-122214960D01*
X124014750Y-122229418D01*
X124012626Y-122243736D01*
X124009109Y-122257777D01*
X124004232Y-122271406D01*
X123998043Y-122284491D01*
X123990602Y-122296907D01*
X123981979Y-122308533D01*
X123972258Y-122319258D01*
X123961533Y-122328979D01*
X123949907Y-122337602D01*
X123937491Y-122345043D01*
X123924406Y-122351232D01*
X123910777Y-122356109D01*
X123896736Y-122359626D01*
X123882418Y-122361750D01*
X123867960Y-122362460D01*
X123522960Y-122362460D01*
X123508502Y-122361750D01*
X123494184Y-122359626D01*
X123480143Y-122356109D01*
X123466514Y-122351232D01*
X123453429Y-122345043D01*
X123441013Y-122337602D01*
X123429387Y-122328979D01*
X123418662Y-122319258D01*
X123408941Y-122308533D01*
X123400318Y-122296907D01*
X123392877Y-122284491D01*
X123386688Y-122271406D01*
X123381811Y-122257777D01*
X123378294Y-122243736D01*
X123376170Y-122229418D01*
X123375460Y-122214960D01*
X123375460Y-121919960D01*
X123376170Y-121905502D01*
X123378294Y-121891184D01*
X123381811Y-121877143D01*
X123386688Y-121863514D01*
X123392877Y-121850429D01*
X123400318Y-121838013D01*
X123408941Y-121826387D01*
X123418662Y-121815662D01*
X123429387Y-121805941D01*
X123441013Y-121797318D01*
X123453429Y-121789877D01*
X123466514Y-121783688D01*
X123480143Y-121778811D01*
X123494184Y-121775294D01*
X123508502Y-121773170D01*
X123522960Y-121772460D01*
X123867960Y-121772460D01*
X123882418Y-121773170D01*
X123882418Y-121773170D01*
G37*
D11*
X123695460Y-122067460D03*
D10*
G36*
X136203958Y-116695710D02*
G01*
X136218276Y-116697834D01*
X136232317Y-116701351D01*
X136245946Y-116706228D01*
X136259031Y-116712417D01*
X136271447Y-116719858D01*
X136283073Y-116728481D01*
X136293798Y-116738202D01*
X136303519Y-116748927D01*
X136312142Y-116760553D01*
X136319583Y-116772969D01*
X136325772Y-116786054D01*
X136330649Y-116799683D01*
X136334166Y-116813724D01*
X136336290Y-116828042D01*
X136337000Y-116842500D01*
X136337000Y-117137500D01*
X136336290Y-117151958D01*
X136334166Y-117166276D01*
X136330649Y-117180317D01*
X136325772Y-117193946D01*
X136319583Y-117207031D01*
X136312142Y-117219447D01*
X136303519Y-117231073D01*
X136293798Y-117241798D01*
X136283073Y-117251519D01*
X136271447Y-117260142D01*
X136259031Y-117267583D01*
X136245946Y-117273772D01*
X136232317Y-117278649D01*
X136218276Y-117282166D01*
X136203958Y-117284290D01*
X136189500Y-117285000D01*
X135844500Y-117285000D01*
X135830042Y-117284290D01*
X135815724Y-117282166D01*
X135801683Y-117278649D01*
X135788054Y-117273772D01*
X135774969Y-117267583D01*
X135762553Y-117260142D01*
X135750927Y-117251519D01*
X135740202Y-117241798D01*
X135730481Y-117231073D01*
X135721858Y-117219447D01*
X135714417Y-117207031D01*
X135708228Y-117193946D01*
X135703351Y-117180317D01*
X135699834Y-117166276D01*
X135697710Y-117151958D01*
X135697000Y-117137500D01*
X135697000Y-116842500D01*
X135697710Y-116828042D01*
X135699834Y-116813724D01*
X135703351Y-116799683D01*
X135708228Y-116786054D01*
X135714417Y-116772969D01*
X135721858Y-116760553D01*
X135730481Y-116748927D01*
X135740202Y-116738202D01*
X135750927Y-116728481D01*
X135762553Y-116719858D01*
X135774969Y-116712417D01*
X135788054Y-116706228D01*
X135801683Y-116701351D01*
X135815724Y-116697834D01*
X135830042Y-116695710D01*
X135844500Y-116695000D01*
X136189500Y-116695000D01*
X136203958Y-116695710D01*
X136203958Y-116695710D01*
G37*
D11*
X136017000Y-116990000D03*
D10*
G36*
X136203958Y-117665710D02*
G01*
X136218276Y-117667834D01*
X136232317Y-117671351D01*
X136245946Y-117676228D01*
X136259031Y-117682417D01*
X136271447Y-117689858D01*
X136283073Y-117698481D01*
X136293798Y-117708202D01*
X136303519Y-117718927D01*
X136312142Y-117730553D01*
X136319583Y-117742969D01*
X136325772Y-117756054D01*
X136330649Y-117769683D01*
X136334166Y-117783724D01*
X136336290Y-117798042D01*
X136337000Y-117812500D01*
X136337000Y-118107500D01*
X136336290Y-118121958D01*
X136334166Y-118136276D01*
X136330649Y-118150317D01*
X136325772Y-118163946D01*
X136319583Y-118177031D01*
X136312142Y-118189447D01*
X136303519Y-118201073D01*
X136293798Y-118211798D01*
X136283073Y-118221519D01*
X136271447Y-118230142D01*
X136259031Y-118237583D01*
X136245946Y-118243772D01*
X136232317Y-118248649D01*
X136218276Y-118252166D01*
X136203958Y-118254290D01*
X136189500Y-118255000D01*
X135844500Y-118255000D01*
X135830042Y-118254290D01*
X135815724Y-118252166D01*
X135801683Y-118248649D01*
X135788054Y-118243772D01*
X135774969Y-118237583D01*
X135762553Y-118230142D01*
X135750927Y-118221519D01*
X135740202Y-118211798D01*
X135730481Y-118201073D01*
X135721858Y-118189447D01*
X135714417Y-118177031D01*
X135708228Y-118163946D01*
X135703351Y-118150317D01*
X135699834Y-118136276D01*
X135697710Y-118121958D01*
X135697000Y-118107500D01*
X135697000Y-117812500D01*
X135697710Y-117798042D01*
X135699834Y-117783724D01*
X135703351Y-117769683D01*
X135708228Y-117756054D01*
X135714417Y-117742969D01*
X135721858Y-117730553D01*
X135730481Y-117718927D01*
X135740202Y-117708202D01*
X135750927Y-117698481D01*
X135762553Y-117689858D01*
X135774969Y-117682417D01*
X135788054Y-117676228D01*
X135801683Y-117671351D01*
X135815724Y-117667834D01*
X135830042Y-117665710D01*
X135844500Y-117665000D01*
X136189500Y-117665000D01*
X136203958Y-117665710D01*
X136203958Y-117665710D01*
G37*
D11*
X136017000Y-117960000D03*
D10*
G36*
X117077758Y-118808710D02*
G01*
X117092076Y-118810834D01*
X117106117Y-118814351D01*
X117119746Y-118819228D01*
X117132831Y-118825417D01*
X117145247Y-118832858D01*
X117156873Y-118841481D01*
X117167598Y-118851202D01*
X117177319Y-118861927D01*
X117185942Y-118873553D01*
X117193383Y-118885969D01*
X117199572Y-118899054D01*
X117204449Y-118912683D01*
X117207966Y-118926724D01*
X117210090Y-118941042D01*
X117210800Y-118955500D01*
X117210800Y-119250500D01*
X117210090Y-119264958D01*
X117207966Y-119279276D01*
X117204449Y-119293317D01*
X117199572Y-119306946D01*
X117193383Y-119320031D01*
X117185942Y-119332447D01*
X117177319Y-119344073D01*
X117167598Y-119354798D01*
X117156873Y-119364519D01*
X117145247Y-119373142D01*
X117132831Y-119380583D01*
X117119746Y-119386772D01*
X117106117Y-119391649D01*
X117092076Y-119395166D01*
X117077758Y-119397290D01*
X117063300Y-119398000D01*
X116718300Y-119398000D01*
X116703842Y-119397290D01*
X116689524Y-119395166D01*
X116675483Y-119391649D01*
X116661854Y-119386772D01*
X116648769Y-119380583D01*
X116636353Y-119373142D01*
X116624727Y-119364519D01*
X116614002Y-119354798D01*
X116604281Y-119344073D01*
X116595658Y-119332447D01*
X116588217Y-119320031D01*
X116582028Y-119306946D01*
X116577151Y-119293317D01*
X116573634Y-119279276D01*
X116571510Y-119264958D01*
X116570800Y-119250500D01*
X116570800Y-118955500D01*
X116571510Y-118941042D01*
X116573634Y-118926724D01*
X116577151Y-118912683D01*
X116582028Y-118899054D01*
X116588217Y-118885969D01*
X116595658Y-118873553D01*
X116604281Y-118861927D01*
X116614002Y-118851202D01*
X116624727Y-118841481D01*
X116636353Y-118832858D01*
X116648769Y-118825417D01*
X116661854Y-118819228D01*
X116675483Y-118814351D01*
X116689524Y-118810834D01*
X116703842Y-118808710D01*
X116718300Y-118808000D01*
X117063300Y-118808000D01*
X117077758Y-118808710D01*
X117077758Y-118808710D01*
G37*
D11*
X116890800Y-119103000D03*
D10*
G36*
X117077758Y-117838710D02*
G01*
X117092076Y-117840834D01*
X117106117Y-117844351D01*
X117119746Y-117849228D01*
X117132831Y-117855417D01*
X117145247Y-117862858D01*
X117156873Y-117871481D01*
X117167598Y-117881202D01*
X117177319Y-117891927D01*
X117185942Y-117903553D01*
X117193383Y-117915969D01*
X117199572Y-117929054D01*
X117204449Y-117942683D01*
X117207966Y-117956724D01*
X117210090Y-117971042D01*
X117210800Y-117985500D01*
X117210800Y-118280500D01*
X117210090Y-118294958D01*
X117207966Y-118309276D01*
X117204449Y-118323317D01*
X117199572Y-118336946D01*
X117193383Y-118350031D01*
X117185942Y-118362447D01*
X117177319Y-118374073D01*
X117167598Y-118384798D01*
X117156873Y-118394519D01*
X117145247Y-118403142D01*
X117132831Y-118410583D01*
X117119746Y-118416772D01*
X117106117Y-118421649D01*
X117092076Y-118425166D01*
X117077758Y-118427290D01*
X117063300Y-118428000D01*
X116718300Y-118428000D01*
X116703842Y-118427290D01*
X116689524Y-118425166D01*
X116675483Y-118421649D01*
X116661854Y-118416772D01*
X116648769Y-118410583D01*
X116636353Y-118403142D01*
X116624727Y-118394519D01*
X116614002Y-118384798D01*
X116604281Y-118374073D01*
X116595658Y-118362447D01*
X116588217Y-118350031D01*
X116582028Y-118336946D01*
X116577151Y-118323317D01*
X116573634Y-118309276D01*
X116571510Y-118294958D01*
X116570800Y-118280500D01*
X116570800Y-117985500D01*
X116571510Y-117971042D01*
X116573634Y-117956724D01*
X116577151Y-117942683D01*
X116582028Y-117929054D01*
X116588217Y-117915969D01*
X116595658Y-117903553D01*
X116604281Y-117891927D01*
X116614002Y-117881202D01*
X116624727Y-117871481D01*
X116636353Y-117862858D01*
X116648769Y-117855417D01*
X116661854Y-117849228D01*
X116675483Y-117844351D01*
X116689524Y-117840834D01*
X116703842Y-117838710D01*
X116718300Y-117838000D01*
X117063300Y-117838000D01*
X117077758Y-117838710D01*
X117077758Y-117838710D01*
G37*
D11*
X116890800Y-118133000D03*
D10*
G36*
X136216658Y-119757310D02*
G01*
X136230976Y-119759434D01*
X136245017Y-119762951D01*
X136258646Y-119767828D01*
X136271731Y-119774017D01*
X136284147Y-119781458D01*
X136295773Y-119790081D01*
X136306498Y-119799802D01*
X136316219Y-119810527D01*
X136324842Y-119822153D01*
X136332283Y-119834569D01*
X136338472Y-119847654D01*
X136343349Y-119861283D01*
X136346866Y-119875324D01*
X136348990Y-119889642D01*
X136349700Y-119904100D01*
X136349700Y-120199100D01*
X136348990Y-120213558D01*
X136346866Y-120227876D01*
X136343349Y-120241917D01*
X136338472Y-120255546D01*
X136332283Y-120268631D01*
X136324842Y-120281047D01*
X136316219Y-120292673D01*
X136306498Y-120303398D01*
X136295773Y-120313119D01*
X136284147Y-120321742D01*
X136271731Y-120329183D01*
X136258646Y-120335372D01*
X136245017Y-120340249D01*
X136230976Y-120343766D01*
X136216658Y-120345890D01*
X136202200Y-120346600D01*
X135857200Y-120346600D01*
X135842742Y-120345890D01*
X135828424Y-120343766D01*
X135814383Y-120340249D01*
X135800754Y-120335372D01*
X135787669Y-120329183D01*
X135775253Y-120321742D01*
X135763627Y-120313119D01*
X135752902Y-120303398D01*
X135743181Y-120292673D01*
X135734558Y-120281047D01*
X135727117Y-120268631D01*
X135720928Y-120255546D01*
X135716051Y-120241917D01*
X135712534Y-120227876D01*
X135710410Y-120213558D01*
X135709700Y-120199100D01*
X135709700Y-119904100D01*
X135710410Y-119889642D01*
X135712534Y-119875324D01*
X135716051Y-119861283D01*
X135720928Y-119847654D01*
X135727117Y-119834569D01*
X135734558Y-119822153D01*
X135743181Y-119810527D01*
X135752902Y-119799802D01*
X135763627Y-119790081D01*
X135775253Y-119781458D01*
X135787669Y-119774017D01*
X135800754Y-119767828D01*
X135814383Y-119762951D01*
X135828424Y-119759434D01*
X135842742Y-119757310D01*
X135857200Y-119756600D01*
X136202200Y-119756600D01*
X136216658Y-119757310D01*
X136216658Y-119757310D01*
G37*
D11*
X136029700Y-120051600D03*
D10*
G36*
X136216658Y-118787310D02*
G01*
X136230976Y-118789434D01*
X136245017Y-118792951D01*
X136258646Y-118797828D01*
X136271731Y-118804017D01*
X136284147Y-118811458D01*
X136295773Y-118820081D01*
X136306498Y-118829802D01*
X136316219Y-118840527D01*
X136324842Y-118852153D01*
X136332283Y-118864569D01*
X136338472Y-118877654D01*
X136343349Y-118891283D01*
X136346866Y-118905324D01*
X136348990Y-118919642D01*
X136349700Y-118934100D01*
X136349700Y-119229100D01*
X136348990Y-119243558D01*
X136346866Y-119257876D01*
X136343349Y-119271917D01*
X136338472Y-119285546D01*
X136332283Y-119298631D01*
X136324842Y-119311047D01*
X136316219Y-119322673D01*
X136306498Y-119333398D01*
X136295773Y-119343119D01*
X136284147Y-119351742D01*
X136271731Y-119359183D01*
X136258646Y-119365372D01*
X136245017Y-119370249D01*
X136230976Y-119373766D01*
X136216658Y-119375890D01*
X136202200Y-119376600D01*
X135857200Y-119376600D01*
X135842742Y-119375890D01*
X135828424Y-119373766D01*
X135814383Y-119370249D01*
X135800754Y-119365372D01*
X135787669Y-119359183D01*
X135775253Y-119351742D01*
X135763627Y-119343119D01*
X135752902Y-119333398D01*
X135743181Y-119322673D01*
X135734558Y-119311047D01*
X135727117Y-119298631D01*
X135720928Y-119285546D01*
X135716051Y-119271917D01*
X135712534Y-119257876D01*
X135710410Y-119243558D01*
X135709700Y-119229100D01*
X135709700Y-118934100D01*
X135710410Y-118919642D01*
X135712534Y-118905324D01*
X135716051Y-118891283D01*
X135720928Y-118877654D01*
X135727117Y-118864569D01*
X135734558Y-118852153D01*
X135743181Y-118840527D01*
X135752902Y-118829802D01*
X135763627Y-118820081D01*
X135775253Y-118811458D01*
X135787669Y-118804017D01*
X135800754Y-118797828D01*
X135814383Y-118792951D01*
X135828424Y-118789434D01*
X135842742Y-118787310D01*
X135857200Y-118786600D01*
X136202200Y-118786600D01*
X136216658Y-118787310D01*
X136216658Y-118787310D01*
G37*
D11*
X136029700Y-119081600D03*
D10*
G36*
X133788958Y-112583710D02*
G01*
X133803276Y-112585834D01*
X133817317Y-112589351D01*
X133830946Y-112594228D01*
X133844031Y-112600417D01*
X133856447Y-112607858D01*
X133868073Y-112616481D01*
X133878798Y-112626202D01*
X133888519Y-112636927D01*
X133897142Y-112648553D01*
X133904583Y-112660969D01*
X133910772Y-112674054D01*
X133915649Y-112687683D01*
X133919166Y-112701724D01*
X133921290Y-112716042D01*
X133922000Y-112730500D01*
X133922000Y-113075500D01*
X133921290Y-113089958D01*
X133919166Y-113104276D01*
X133915649Y-113118317D01*
X133910772Y-113131946D01*
X133904583Y-113145031D01*
X133897142Y-113157447D01*
X133888519Y-113169073D01*
X133878798Y-113179798D01*
X133868073Y-113189519D01*
X133856447Y-113198142D01*
X133844031Y-113205583D01*
X133830946Y-113211772D01*
X133817317Y-113216649D01*
X133803276Y-113220166D01*
X133788958Y-113222290D01*
X133774500Y-113223000D01*
X133479500Y-113223000D01*
X133465042Y-113222290D01*
X133450724Y-113220166D01*
X133436683Y-113216649D01*
X133423054Y-113211772D01*
X133409969Y-113205583D01*
X133397553Y-113198142D01*
X133385927Y-113189519D01*
X133375202Y-113179798D01*
X133365481Y-113169073D01*
X133356858Y-113157447D01*
X133349417Y-113145031D01*
X133343228Y-113131946D01*
X133338351Y-113118317D01*
X133334834Y-113104276D01*
X133332710Y-113089958D01*
X133332000Y-113075500D01*
X133332000Y-112730500D01*
X133332710Y-112716042D01*
X133334834Y-112701724D01*
X133338351Y-112687683D01*
X133343228Y-112674054D01*
X133349417Y-112660969D01*
X133356858Y-112648553D01*
X133365481Y-112636927D01*
X133375202Y-112626202D01*
X133385927Y-112616481D01*
X133397553Y-112607858D01*
X133409969Y-112600417D01*
X133423054Y-112594228D01*
X133436683Y-112589351D01*
X133450724Y-112585834D01*
X133465042Y-112583710D01*
X133479500Y-112583000D01*
X133774500Y-112583000D01*
X133788958Y-112583710D01*
X133788958Y-112583710D01*
G37*
D11*
X133627000Y-112903000D03*
D10*
G36*
X134758958Y-112583710D02*
G01*
X134773276Y-112585834D01*
X134787317Y-112589351D01*
X134800946Y-112594228D01*
X134814031Y-112600417D01*
X134826447Y-112607858D01*
X134838073Y-112616481D01*
X134848798Y-112626202D01*
X134858519Y-112636927D01*
X134867142Y-112648553D01*
X134874583Y-112660969D01*
X134880772Y-112674054D01*
X134885649Y-112687683D01*
X134889166Y-112701724D01*
X134891290Y-112716042D01*
X134892000Y-112730500D01*
X134892000Y-113075500D01*
X134891290Y-113089958D01*
X134889166Y-113104276D01*
X134885649Y-113118317D01*
X134880772Y-113131946D01*
X134874583Y-113145031D01*
X134867142Y-113157447D01*
X134858519Y-113169073D01*
X134848798Y-113179798D01*
X134838073Y-113189519D01*
X134826447Y-113198142D01*
X134814031Y-113205583D01*
X134800946Y-113211772D01*
X134787317Y-113216649D01*
X134773276Y-113220166D01*
X134758958Y-113222290D01*
X134744500Y-113223000D01*
X134449500Y-113223000D01*
X134435042Y-113222290D01*
X134420724Y-113220166D01*
X134406683Y-113216649D01*
X134393054Y-113211772D01*
X134379969Y-113205583D01*
X134367553Y-113198142D01*
X134355927Y-113189519D01*
X134345202Y-113179798D01*
X134335481Y-113169073D01*
X134326858Y-113157447D01*
X134319417Y-113145031D01*
X134313228Y-113131946D01*
X134308351Y-113118317D01*
X134304834Y-113104276D01*
X134302710Y-113089958D01*
X134302000Y-113075500D01*
X134302000Y-112730500D01*
X134302710Y-112716042D01*
X134304834Y-112701724D01*
X134308351Y-112687683D01*
X134313228Y-112674054D01*
X134319417Y-112660969D01*
X134326858Y-112648553D01*
X134335481Y-112636927D01*
X134345202Y-112626202D01*
X134355927Y-112616481D01*
X134367553Y-112607858D01*
X134379969Y-112600417D01*
X134393054Y-112594228D01*
X134406683Y-112589351D01*
X134420724Y-112585834D01*
X134435042Y-112583710D01*
X134449500Y-112583000D01*
X134744500Y-112583000D01*
X134758958Y-112583710D01*
X134758958Y-112583710D01*
G37*
D11*
X134597000Y-112903000D03*
D10*
G36*
X106976178Y-120154910D02*
G01*
X106990496Y-120157034D01*
X107004537Y-120160551D01*
X107018166Y-120165428D01*
X107031251Y-120171617D01*
X107043667Y-120179058D01*
X107055293Y-120187681D01*
X107066018Y-120197402D01*
X107075739Y-120208127D01*
X107084362Y-120219753D01*
X107091803Y-120232169D01*
X107097992Y-120245254D01*
X107102869Y-120258883D01*
X107106386Y-120272924D01*
X107108510Y-120287242D01*
X107109220Y-120301700D01*
X107109220Y-120596700D01*
X107108510Y-120611158D01*
X107106386Y-120625476D01*
X107102869Y-120639517D01*
X107097992Y-120653146D01*
X107091803Y-120666231D01*
X107084362Y-120678647D01*
X107075739Y-120690273D01*
X107066018Y-120700998D01*
X107055293Y-120710719D01*
X107043667Y-120719342D01*
X107031251Y-120726783D01*
X107018166Y-120732972D01*
X107004537Y-120737849D01*
X106990496Y-120741366D01*
X106976178Y-120743490D01*
X106961720Y-120744200D01*
X106616720Y-120744200D01*
X106602262Y-120743490D01*
X106587944Y-120741366D01*
X106573903Y-120737849D01*
X106560274Y-120732972D01*
X106547189Y-120726783D01*
X106534773Y-120719342D01*
X106523147Y-120710719D01*
X106512422Y-120700998D01*
X106502701Y-120690273D01*
X106494078Y-120678647D01*
X106486637Y-120666231D01*
X106480448Y-120653146D01*
X106475571Y-120639517D01*
X106472054Y-120625476D01*
X106469930Y-120611158D01*
X106469220Y-120596700D01*
X106469220Y-120301700D01*
X106469930Y-120287242D01*
X106472054Y-120272924D01*
X106475571Y-120258883D01*
X106480448Y-120245254D01*
X106486637Y-120232169D01*
X106494078Y-120219753D01*
X106502701Y-120208127D01*
X106512422Y-120197402D01*
X106523147Y-120187681D01*
X106534773Y-120179058D01*
X106547189Y-120171617D01*
X106560274Y-120165428D01*
X106573903Y-120160551D01*
X106587944Y-120157034D01*
X106602262Y-120154910D01*
X106616720Y-120154200D01*
X106961720Y-120154200D01*
X106976178Y-120154910D01*
X106976178Y-120154910D01*
G37*
D11*
X106789220Y-120449200D03*
D10*
G36*
X106976178Y-119184910D02*
G01*
X106990496Y-119187034D01*
X107004537Y-119190551D01*
X107018166Y-119195428D01*
X107031251Y-119201617D01*
X107043667Y-119209058D01*
X107055293Y-119217681D01*
X107066018Y-119227402D01*
X107075739Y-119238127D01*
X107084362Y-119249753D01*
X107091803Y-119262169D01*
X107097992Y-119275254D01*
X107102869Y-119288883D01*
X107106386Y-119302924D01*
X107108510Y-119317242D01*
X107109220Y-119331700D01*
X107109220Y-119626700D01*
X107108510Y-119641158D01*
X107106386Y-119655476D01*
X107102869Y-119669517D01*
X107097992Y-119683146D01*
X107091803Y-119696231D01*
X107084362Y-119708647D01*
X107075739Y-119720273D01*
X107066018Y-119730998D01*
X107055293Y-119740719D01*
X107043667Y-119749342D01*
X107031251Y-119756783D01*
X107018166Y-119762972D01*
X107004537Y-119767849D01*
X106990496Y-119771366D01*
X106976178Y-119773490D01*
X106961720Y-119774200D01*
X106616720Y-119774200D01*
X106602262Y-119773490D01*
X106587944Y-119771366D01*
X106573903Y-119767849D01*
X106560274Y-119762972D01*
X106547189Y-119756783D01*
X106534773Y-119749342D01*
X106523147Y-119740719D01*
X106512422Y-119730998D01*
X106502701Y-119720273D01*
X106494078Y-119708647D01*
X106486637Y-119696231D01*
X106480448Y-119683146D01*
X106475571Y-119669517D01*
X106472054Y-119655476D01*
X106469930Y-119641158D01*
X106469220Y-119626700D01*
X106469220Y-119331700D01*
X106469930Y-119317242D01*
X106472054Y-119302924D01*
X106475571Y-119288883D01*
X106480448Y-119275254D01*
X106486637Y-119262169D01*
X106494078Y-119249753D01*
X106502701Y-119238127D01*
X106512422Y-119227402D01*
X106523147Y-119217681D01*
X106534773Y-119209058D01*
X106547189Y-119201617D01*
X106560274Y-119195428D01*
X106573903Y-119190551D01*
X106587944Y-119187034D01*
X106602262Y-119184910D01*
X106616720Y-119184200D01*
X106961720Y-119184200D01*
X106976178Y-119184910D01*
X106976178Y-119184910D01*
G37*
D11*
X106789220Y-119479200D03*
D10*
G36*
X106993958Y-115887710D02*
G01*
X107008276Y-115889834D01*
X107022317Y-115893351D01*
X107035946Y-115898228D01*
X107049031Y-115904417D01*
X107061447Y-115911858D01*
X107073073Y-115920481D01*
X107083798Y-115930202D01*
X107093519Y-115940927D01*
X107102142Y-115952553D01*
X107109583Y-115964969D01*
X107115772Y-115978054D01*
X107120649Y-115991683D01*
X107124166Y-116005724D01*
X107126290Y-116020042D01*
X107127000Y-116034500D01*
X107127000Y-116329500D01*
X107126290Y-116343958D01*
X107124166Y-116358276D01*
X107120649Y-116372317D01*
X107115772Y-116385946D01*
X107109583Y-116399031D01*
X107102142Y-116411447D01*
X107093519Y-116423073D01*
X107083798Y-116433798D01*
X107073073Y-116443519D01*
X107061447Y-116452142D01*
X107049031Y-116459583D01*
X107035946Y-116465772D01*
X107022317Y-116470649D01*
X107008276Y-116474166D01*
X106993958Y-116476290D01*
X106979500Y-116477000D01*
X106634500Y-116477000D01*
X106620042Y-116476290D01*
X106605724Y-116474166D01*
X106591683Y-116470649D01*
X106578054Y-116465772D01*
X106564969Y-116459583D01*
X106552553Y-116452142D01*
X106540927Y-116443519D01*
X106530202Y-116433798D01*
X106520481Y-116423073D01*
X106511858Y-116411447D01*
X106504417Y-116399031D01*
X106498228Y-116385946D01*
X106493351Y-116372317D01*
X106489834Y-116358276D01*
X106487710Y-116343958D01*
X106487000Y-116329500D01*
X106487000Y-116034500D01*
X106487710Y-116020042D01*
X106489834Y-116005724D01*
X106493351Y-115991683D01*
X106498228Y-115978054D01*
X106504417Y-115964969D01*
X106511858Y-115952553D01*
X106520481Y-115940927D01*
X106530202Y-115930202D01*
X106540927Y-115920481D01*
X106552553Y-115911858D01*
X106564969Y-115904417D01*
X106578054Y-115898228D01*
X106591683Y-115893351D01*
X106605724Y-115889834D01*
X106620042Y-115887710D01*
X106634500Y-115887000D01*
X106979500Y-115887000D01*
X106993958Y-115887710D01*
X106993958Y-115887710D01*
G37*
D11*
X106807000Y-116182000D03*
D10*
G36*
X106993958Y-114917710D02*
G01*
X107008276Y-114919834D01*
X107022317Y-114923351D01*
X107035946Y-114928228D01*
X107049031Y-114934417D01*
X107061447Y-114941858D01*
X107073073Y-114950481D01*
X107083798Y-114960202D01*
X107093519Y-114970927D01*
X107102142Y-114982553D01*
X107109583Y-114994969D01*
X107115772Y-115008054D01*
X107120649Y-115021683D01*
X107124166Y-115035724D01*
X107126290Y-115050042D01*
X107127000Y-115064500D01*
X107127000Y-115359500D01*
X107126290Y-115373958D01*
X107124166Y-115388276D01*
X107120649Y-115402317D01*
X107115772Y-115415946D01*
X107109583Y-115429031D01*
X107102142Y-115441447D01*
X107093519Y-115453073D01*
X107083798Y-115463798D01*
X107073073Y-115473519D01*
X107061447Y-115482142D01*
X107049031Y-115489583D01*
X107035946Y-115495772D01*
X107022317Y-115500649D01*
X107008276Y-115504166D01*
X106993958Y-115506290D01*
X106979500Y-115507000D01*
X106634500Y-115507000D01*
X106620042Y-115506290D01*
X106605724Y-115504166D01*
X106591683Y-115500649D01*
X106578054Y-115495772D01*
X106564969Y-115489583D01*
X106552553Y-115482142D01*
X106540927Y-115473519D01*
X106530202Y-115463798D01*
X106520481Y-115453073D01*
X106511858Y-115441447D01*
X106504417Y-115429031D01*
X106498228Y-115415946D01*
X106493351Y-115402317D01*
X106489834Y-115388276D01*
X106487710Y-115373958D01*
X106487000Y-115359500D01*
X106487000Y-115064500D01*
X106487710Y-115050042D01*
X106489834Y-115035724D01*
X106493351Y-115021683D01*
X106498228Y-115008054D01*
X106504417Y-114994969D01*
X106511858Y-114982553D01*
X106520481Y-114970927D01*
X106530202Y-114960202D01*
X106540927Y-114950481D01*
X106552553Y-114941858D01*
X106564969Y-114934417D01*
X106578054Y-114928228D01*
X106591683Y-114923351D01*
X106605724Y-114919834D01*
X106620042Y-114917710D01*
X106634500Y-114917000D01*
X106979500Y-114917000D01*
X106993958Y-114917710D01*
X106993958Y-114917710D01*
G37*
D11*
X106807000Y-115212000D03*
D10*
G36*
X108085098Y-112782130D02*
G01*
X108099416Y-112784254D01*
X108113457Y-112787771D01*
X108127086Y-112792648D01*
X108140171Y-112798837D01*
X108152587Y-112806278D01*
X108164213Y-112814901D01*
X108174938Y-112824622D01*
X108184659Y-112835347D01*
X108193282Y-112846973D01*
X108200723Y-112859389D01*
X108206912Y-112872474D01*
X108211789Y-112886103D01*
X108215306Y-112900144D01*
X108217430Y-112914462D01*
X108218140Y-112928920D01*
X108218140Y-113273920D01*
X108217430Y-113288378D01*
X108215306Y-113302696D01*
X108211789Y-113316737D01*
X108206912Y-113330366D01*
X108200723Y-113343451D01*
X108193282Y-113355867D01*
X108184659Y-113367493D01*
X108174938Y-113378218D01*
X108164213Y-113387939D01*
X108152587Y-113396562D01*
X108140171Y-113404003D01*
X108127086Y-113410192D01*
X108113457Y-113415069D01*
X108099416Y-113418586D01*
X108085098Y-113420710D01*
X108070640Y-113421420D01*
X107775640Y-113421420D01*
X107761182Y-113420710D01*
X107746864Y-113418586D01*
X107732823Y-113415069D01*
X107719194Y-113410192D01*
X107706109Y-113404003D01*
X107693693Y-113396562D01*
X107682067Y-113387939D01*
X107671342Y-113378218D01*
X107661621Y-113367493D01*
X107652998Y-113355867D01*
X107645557Y-113343451D01*
X107639368Y-113330366D01*
X107634491Y-113316737D01*
X107630974Y-113302696D01*
X107628850Y-113288378D01*
X107628140Y-113273920D01*
X107628140Y-112928920D01*
X107628850Y-112914462D01*
X107630974Y-112900144D01*
X107634491Y-112886103D01*
X107639368Y-112872474D01*
X107645557Y-112859389D01*
X107652998Y-112846973D01*
X107661621Y-112835347D01*
X107671342Y-112824622D01*
X107682067Y-112814901D01*
X107693693Y-112806278D01*
X107706109Y-112798837D01*
X107719194Y-112792648D01*
X107732823Y-112787771D01*
X107746864Y-112784254D01*
X107761182Y-112782130D01*
X107775640Y-112781420D01*
X108070640Y-112781420D01*
X108085098Y-112782130D01*
X108085098Y-112782130D01*
G37*
D11*
X107923140Y-113101420D03*
D10*
G36*
X109055098Y-112782130D02*
G01*
X109069416Y-112784254D01*
X109083457Y-112787771D01*
X109097086Y-112792648D01*
X109110171Y-112798837D01*
X109122587Y-112806278D01*
X109134213Y-112814901D01*
X109144938Y-112824622D01*
X109154659Y-112835347D01*
X109163282Y-112846973D01*
X109170723Y-112859389D01*
X109176912Y-112872474D01*
X109181789Y-112886103D01*
X109185306Y-112900144D01*
X109187430Y-112914462D01*
X109188140Y-112928920D01*
X109188140Y-113273920D01*
X109187430Y-113288378D01*
X109185306Y-113302696D01*
X109181789Y-113316737D01*
X109176912Y-113330366D01*
X109170723Y-113343451D01*
X109163282Y-113355867D01*
X109154659Y-113367493D01*
X109144938Y-113378218D01*
X109134213Y-113387939D01*
X109122587Y-113396562D01*
X109110171Y-113404003D01*
X109097086Y-113410192D01*
X109083457Y-113415069D01*
X109069416Y-113418586D01*
X109055098Y-113420710D01*
X109040640Y-113421420D01*
X108745640Y-113421420D01*
X108731182Y-113420710D01*
X108716864Y-113418586D01*
X108702823Y-113415069D01*
X108689194Y-113410192D01*
X108676109Y-113404003D01*
X108663693Y-113396562D01*
X108652067Y-113387939D01*
X108641342Y-113378218D01*
X108631621Y-113367493D01*
X108622998Y-113355867D01*
X108615557Y-113343451D01*
X108609368Y-113330366D01*
X108604491Y-113316737D01*
X108600974Y-113302696D01*
X108598850Y-113288378D01*
X108598140Y-113273920D01*
X108598140Y-112928920D01*
X108598850Y-112914462D01*
X108600974Y-112900144D01*
X108604491Y-112886103D01*
X108609368Y-112872474D01*
X108615557Y-112859389D01*
X108622998Y-112846973D01*
X108631621Y-112835347D01*
X108641342Y-112824622D01*
X108652067Y-112814901D01*
X108663693Y-112806278D01*
X108676109Y-112798837D01*
X108689194Y-112792648D01*
X108702823Y-112787771D01*
X108716864Y-112784254D01*
X108731182Y-112782130D01*
X108745640Y-112781420D01*
X109040640Y-112781420D01*
X109055098Y-112782130D01*
X109055098Y-112782130D01*
G37*
D11*
X108893140Y-113101420D03*
D10*
G36*
X118462058Y-118785850D02*
G01*
X118476376Y-118787974D01*
X118490417Y-118791491D01*
X118504046Y-118796368D01*
X118517131Y-118802557D01*
X118529547Y-118809998D01*
X118541173Y-118818621D01*
X118551898Y-118828342D01*
X118561619Y-118839067D01*
X118570242Y-118850693D01*
X118577683Y-118863109D01*
X118583872Y-118876194D01*
X118588749Y-118889823D01*
X118592266Y-118903864D01*
X118594390Y-118918182D01*
X118595100Y-118932640D01*
X118595100Y-119227640D01*
X118594390Y-119242098D01*
X118592266Y-119256416D01*
X118588749Y-119270457D01*
X118583872Y-119284086D01*
X118577683Y-119297171D01*
X118570242Y-119309587D01*
X118561619Y-119321213D01*
X118551898Y-119331938D01*
X118541173Y-119341659D01*
X118529547Y-119350282D01*
X118517131Y-119357723D01*
X118504046Y-119363912D01*
X118490417Y-119368789D01*
X118476376Y-119372306D01*
X118462058Y-119374430D01*
X118447600Y-119375140D01*
X118102600Y-119375140D01*
X118088142Y-119374430D01*
X118073824Y-119372306D01*
X118059783Y-119368789D01*
X118046154Y-119363912D01*
X118033069Y-119357723D01*
X118020653Y-119350282D01*
X118009027Y-119341659D01*
X117998302Y-119331938D01*
X117988581Y-119321213D01*
X117979958Y-119309587D01*
X117972517Y-119297171D01*
X117966328Y-119284086D01*
X117961451Y-119270457D01*
X117957934Y-119256416D01*
X117955810Y-119242098D01*
X117955100Y-119227640D01*
X117955100Y-118932640D01*
X117955810Y-118918182D01*
X117957934Y-118903864D01*
X117961451Y-118889823D01*
X117966328Y-118876194D01*
X117972517Y-118863109D01*
X117979958Y-118850693D01*
X117988581Y-118839067D01*
X117998302Y-118828342D01*
X118009027Y-118818621D01*
X118020653Y-118809998D01*
X118033069Y-118802557D01*
X118046154Y-118796368D01*
X118059783Y-118791491D01*
X118073824Y-118787974D01*
X118088142Y-118785850D01*
X118102600Y-118785140D01*
X118447600Y-118785140D01*
X118462058Y-118785850D01*
X118462058Y-118785850D01*
G37*
D11*
X118275100Y-119080140D03*
D10*
G36*
X118462058Y-117815850D02*
G01*
X118476376Y-117817974D01*
X118490417Y-117821491D01*
X118504046Y-117826368D01*
X118517131Y-117832557D01*
X118529547Y-117839998D01*
X118541173Y-117848621D01*
X118551898Y-117858342D01*
X118561619Y-117869067D01*
X118570242Y-117880693D01*
X118577683Y-117893109D01*
X118583872Y-117906194D01*
X118588749Y-117919823D01*
X118592266Y-117933864D01*
X118594390Y-117948182D01*
X118595100Y-117962640D01*
X118595100Y-118257640D01*
X118594390Y-118272098D01*
X118592266Y-118286416D01*
X118588749Y-118300457D01*
X118583872Y-118314086D01*
X118577683Y-118327171D01*
X118570242Y-118339587D01*
X118561619Y-118351213D01*
X118551898Y-118361938D01*
X118541173Y-118371659D01*
X118529547Y-118380282D01*
X118517131Y-118387723D01*
X118504046Y-118393912D01*
X118490417Y-118398789D01*
X118476376Y-118402306D01*
X118462058Y-118404430D01*
X118447600Y-118405140D01*
X118102600Y-118405140D01*
X118088142Y-118404430D01*
X118073824Y-118402306D01*
X118059783Y-118398789D01*
X118046154Y-118393912D01*
X118033069Y-118387723D01*
X118020653Y-118380282D01*
X118009027Y-118371659D01*
X117998302Y-118361938D01*
X117988581Y-118351213D01*
X117979958Y-118339587D01*
X117972517Y-118327171D01*
X117966328Y-118314086D01*
X117961451Y-118300457D01*
X117957934Y-118286416D01*
X117955810Y-118272098D01*
X117955100Y-118257640D01*
X117955100Y-117962640D01*
X117955810Y-117948182D01*
X117957934Y-117933864D01*
X117961451Y-117919823D01*
X117966328Y-117906194D01*
X117972517Y-117893109D01*
X117979958Y-117880693D01*
X117988581Y-117869067D01*
X117998302Y-117858342D01*
X118009027Y-117848621D01*
X118020653Y-117839998D01*
X118033069Y-117832557D01*
X118046154Y-117826368D01*
X118059783Y-117821491D01*
X118073824Y-117817974D01*
X118088142Y-117815850D01*
X118102600Y-117815140D01*
X118447600Y-117815140D01*
X118462058Y-117815850D01*
X118462058Y-117815850D01*
G37*
D11*
X118275100Y-118110140D03*
D10*
G36*
X126805958Y-122725390D02*
G01*
X126820276Y-122727514D01*
X126834317Y-122731031D01*
X126847946Y-122735908D01*
X126861031Y-122742097D01*
X126873447Y-122749538D01*
X126885073Y-122758161D01*
X126895798Y-122767882D01*
X126905519Y-122778607D01*
X126914142Y-122790233D01*
X126921583Y-122802649D01*
X126927772Y-122815734D01*
X126932649Y-122829363D01*
X126936166Y-122843404D01*
X126938290Y-122857722D01*
X126939000Y-122872180D01*
X126939000Y-123167180D01*
X126938290Y-123181638D01*
X126936166Y-123195956D01*
X126932649Y-123209997D01*
X126927772Y-123223626D01*
X126921583Y-123236711D01*
X126914142Y-123249127D01*
X126905519Y-123260753D01*
X126895798Y-123271478D01*
X126885073Y-123281199D01*
X126873447Y-123289822D01*
X126861031Y-123297263D01*
X126847946Y-123303452D01*
X126834317Y-123308329D01*
X126820276Y-123311846D01*
X126805958Y-123313970D01*
X126791500Y-123314680D01*
X126446500Y-123314680D01*
X126432042Y-123313970D01*
X126417724Y-123311846D01*
X126403683Y-123308329D01*
X126390054Y-123303452D01*
X126376969Y-123297263D01*
X126364553Y-123289822D01*
X126352927Y-123281199D01*
X126342202Y-123271478D01*
X126332481Y-123260753D01*
X126323858Y-123249127D01*
X126316417Y-123236711D01*
X126310228Y-123223626D01*
X126305351Y-123209997D01*
X126301834Y-123195956D01*
X126299710Y-123181638D01*
X126299000Y-123167180D01*
X126299000Y-122872180D01*
X126299710Y-122857722D01*
X126301834Y-122843404D01*
X126305351Y-122829363D01*
X126310228Y-122815734D01*
X126316417Y-122802649D01*
X126323858Y-122790233D01*
X126332481Y-122778607D01*
X126342202Y-122767882D01*
X126352927Y-122758161D01*
X126364553Y-122749538D01*
X126376969Y-122742097D01*
X126390054Y-122735908D01*
X126403683Y-122731031D01*
X126417724Y-122727514D01*
X126432042Y-122725390D01*
X126446500Y-122724680D01*
X126791500Y-122724680D01*
X126805958Y-122725390D01*
X126805958Y-122725390D01*
G37*
D11*
X126619000Y-123019680D03*
D10*
G36*
X126805958Y-121755390D02*
G01*
X126820276Y-121757514D01*
X126834317Y-121761031D01*
X126847946Y-121765908D01*
X126861031Y-121772097D01*
X126873447Y-121779538D01*
X126885073Y-121788161D01*
X126895798Y-121797882D01*
X126905519Y-121808607D01*
X126914142Y-121820233D01*
X126921583Y-121832649D01*
X126927772Y-121845734D01*
X126932649Y-121859363D01*
X126936166Y-121873404D01*
X126938290Y-121887722D01*
X126939000Y-121902180D01*
X126939000Y-122197180D01*
X126938290Y-122211638D01*
X126936166Y-122225956D01*
X126932649Y-122239997D01*
X126927772Y-122253626D01*
X126921583Y-122266711D01*
X126914142Y-122279127D01*
X126905519Y-122290753D01*
X126895798Y-122301478D01*
X126885073Y-122311199D01*
X126873447Y-122319822D01*
X126861031Y-122327263D01*
X126847946Y-122333452D01*
X126834317Y-122338329D01*
X126820276Y-122341846D01*
X126805958Y-122343970D01*
X126791500Y-122344680D01*
X126446500Y-122344680D01*
X126432042Y-122343970D01*
X126417724Y-122341846D01*
X126403683Y-122338329D01*
X126390054Y-122333452D01*
X126376969Y-122327263D01*
X126364553Y-122319822D01*
X126352927Y-122311199D01*
X126342202Y-122301478D01*
X126332481Y-122290753D01*
X126323858Y-122279127D01*
X126316417Y-122266711D01*
X126310228Y-122253626D01*
X126305351Y-122239997D01*
X126301834Y-122225956D01*
X126299710Y-122211638D01*
X126299000Y-122197180D01*
X126299000Y-121902180D01*
X126299710Y-121887722D01*
X126301834Y-121873404D01*
X126305351Y-121859363D01*
X126310228Y-121845734D01*
X126316417Y-121832649D01*
X126323858Y-121820233D01*
X126332481Y-121808607D01*
X126342202Y-121797882D01*
X126352927Y-121788161D01*
X126364553Y-121779538D01*
X126376969Y-121772097D01*
X126390054Y-121765908D01*
X126403683Y-121761031D01*
X126417724Y-121757514D01*
X126432042Y-121755390D01*
X126446500Y-121754680D01*
X126791500Y-121754680D01*
X126805958Y-121755390D01*
X126805958Y-121755390D01*
G37*
D11*
X126619000Y-122049680D03*
D10*
G36*
X130260718Y-116760270D02*
G01*
X130275036Y-116762394D01*
X130289077Y-116765911D01*
X130302706Y-116770788D01*
X130315791Y-116776977D01*
X130328207Y-116784418D01*
X130339833Y-116793041D01*
X130350558Y-116802762D01*
X130360279Y-116813487D01*
X130368902Y-116825113D01*
X130376343Y-116837529D01*
X130382532Y-116850614D01*
X130387409Y-116864243D01*
X130390926Y-116878284D01*
X130393050Y-116892602D01*
X130393760Y-116907060D01*
X130393760Y-117252060D01*
X130393050Y-117266518D01*
X130390926Y-117280836D01*
X130387409Y-117294877D01*
X130382532Y-117308506D01*
X130376343Y-117321591D01*
X130368902Y-117334007D01*
X130360279Y-117345633D01*
X130350558Y-117356358D01*
X130339833Y-117366079D01*
X130328207Y-117374702D01*
X130315791Y-117382143D01*
X130302706Y-117388332D01*
X130289077Y-117393209D01*
X130275036Y-117396726D01*
X130260718Y-117398850D01*
X130246260Y-117399560D01*
X129951260Y-117399560D01*
X129936802Y-117398850D01*
X129922484Y-117396726D01*
X129908443Y-117393209D01*
X129894814Y-117388332D01*
X129881729Y-117382143D01*
X129869313Y-117374702D01*
X129857687Y-117366079D01*
X129846962Y-117356358D01*
X129837241Y-117345633D01*
X129828618Y-117334007D01*
X129821177Y-117321591D01*
X129814988Y-117308506D01*
X129810111Y-117294877D01*
X129806594Y-117280836D01*
X129804470Y-117266518D01*
X129803760Y-117252060D01*
X129803760Y-116907060D01*
X129804470Y-116892602D01*
X129806594Y-116878284D01*
X129810111Y-116864243D01*
X129814988Y-116850614D01*
X129821177Y-116837529D01*
X129828618Y-116825113D01*
X129837241Y-116813487D01*
X129846962Y-116802762D01*
X129857687Y-116793041D01*
X129869313Y-116784418D01*
X129881729Y-116776977D01*
X129894814Y-116770788D01*
X129908443Y-116765911D01*
X129922484Y-116762394D01*
X129936802Y-116760270D01*
X129951260Y-116759560D01*
X130246260Y-116759560D01*
X130260718Y-116760270D01*
X130260718Y-116760270D01*
G37*
D11*
X130098760Y-117079560D03*
D10*
G36*
X129290718Y-116760270D02*
G01*
X129305036Y-116762394D01*
X129319077Y-116765911D01*
X129332706Y-116770788D01*
X129345791Y-116776977D01*
X129358207Y-116784418D01*
X129369833Y-116793041D01*
X129380558Y-116802762D01*
X129390279Y-116813487D01*
X129398902Y-116825113D01*
X129406343Y-116837529D01*
X129412532Y-116850614D01*
X129417409Y-116864243D01*
X129420926Y-116878284D01*
X129423050Y-116892602D01*
X129423760Y-116907060D01*
X129423760Y-117252060D01*
X129423050Y-117266518D01*
X129420926Y-117280836D01*
X129417409Y-117294877D01*
X129412532Y-117308506D01*
X129406343Y-117321591D01*
X129398902Y-117334007D01*
X129390279Y-117345633D01*
X129380558Y-117356358D01*
X129369833Y-117366079D01*
X129358207Y-117374702D01*
X129345791Y-117382143D01*
X129332706Y-117388332D01*
X129319077Y-117393209D01*
X129305036Y-117396726D01*
X129290718Y-117398850D01*
X129276260Y-117399560D01*
X128981260Y-117399560D01*
X128966802Y-117398850D01*
X128952484Y-117396726D01*
X128938443Y-117393209D01*
X128924814Y-117388332D01*
X128911729Y-117382143D01*
X128899313Y-117374702D01*
X128887687Y-117366079D01*
X128876962Y-117356358D01*
X128867241Y-117345633D01*
X128858618Y-117334007D01*
X128851177Y-117321591D01*
X128844988Y-117308506D01*
X128840111Y-117294877D01*
X128836594Y-117280836D01*
X128834470Y-117266518D01*
X128833760Y-117252060D01*
X128833760Y-116907060D01*
X128834470Y-116892602D01*
X128836594Y-116878284D01*
X128840111Y-116864243D01*
X128844988Y-116850614D01*
X128851177Y-116837529D01*
X128858618Y-116825113D01*
X128867241Y-116813487D01*
X128876962Y-116802762D01*
X128887687Y-116793041D01*
X128899313Y-116784418D01*
X128911729Y-116776977D01*
X128924814Y-116770788D01*
X128938443Y-116765911D01*
X128952484Y-116762394D01*
X128966802Y-116760270D01*
X128981260Y-116759560D01*
X129276260Y-116759560D01*
X129290718Y-116760270D01*
X129290718Y-116760270D01*
G37*
D11*
X129128760Y-117079560D03*
D10*
G36*
X119726978Y-118785850D02*
G01*
X119741296Y-118787974D01*
X119755337Y-118791491D01*
X119768966Y-118796368D01*
X119782051Y-118802557D01*
X119794467Y-118809998D01*
X119806093Y-118818621D01*
X119816818Y-118828342D01*
X119826539Y-118839067D01*
X119835162Y-118850693D01*
X119842603Y-118863109D01*
X119848792Y-118876194D01*
X119853669Y-118889823D01*
X119857186Y-118903864D01*
X119859310Y-118918182D01*
X119860020Y-118932640D01*
X119860020Y-119227640D01*
X119859310Y-119242098D01*
X119857186Y-119256416D01*
X119853669Y-119270457D01*
X119848792Y-119284086D01*
X119842603Y-119297171D01*
X119835162Y-119309587D01*
X119826539Y-119321213D01*
X119816818Y-119331938D01*
X119806093Y-119341659D01*
X119794467Y-119350282D01*
X119782051Y-119357723D01*
X119768966Y-119363912D01*
X119755337Y-119368789D01*
X119741296Y-119372306D01*
X119726978Y-119374430D01*
X119712520Y-119375140D01*
X119367520Y-119375140D01*
X119353062Y-119374430D01*
X119338744Y-119372306D01*
X119324703Y-119368789D01*
X119311074Y-119363912D01*
X119297989Y-119357723D01*
X119285573Y-119350282D01*
X119273947Y-119341659D01*
X119263222Y-119331938D01*
X119253501Y-119321213D01*
X119244878Y-119309587D01*
X119237437Y-119297171D01*
X119231248Y-119284086D01*
X119226371Y-119270457D01*
X119222854Y-119256416D01*
X119220730Y-119242098D01*
X119220020Y-119227640D01*
X119220020Y-118932640D01*
X119220730Y-118918182D01*
X119222854Y-118903864D01*
X119226371Y-118889823D01*
X119231248Y-118876194D01*
X119237437Y-118863109D01*
X119244878Y-118850693D01*
X119253501Y-118839067D01*
X119263222Y-118828342D01*
X119273947Y-118818621D01*
X119285573Y-118809998D01*
X119297989Y-118802557D01*
X119311074Y-118796368D01*
X119324703Y-118791491D01*
X119338744Y-118787974D01*
X119353062Y-118785850D01*
X119367520Y-118785140D01*
X119712520Y-118785140D01*
X119726978Y-118785850D01*
X119726978Y-118785850D01*
G37*
D11*
X119540020Y-119080140D03*
D10*
G36*
X119726978Y-117815850D02*
G01*
X119741296Y-117817974D01*
X119755337Y-117821491D01*
X119768966Y-117826368D01*
X119782051Y-117832557D01*
X119794467Y-117839998D01*
X119806093Y-117848621D01*
X119816818Y-117858342D01*
X119826539Y-117869067D01*
X119835162Y-117880693D01*
X119842603Y-117893109D01*
X119848792Y-117906194D01*
X119853669Y-117919823D01*
X119857186Y-117933864D01*
X119859310Y-117948182D01*
X119860020Y-117962640D01*
X119860020Y-118257640D01*
X119859310Y-118272098D01*
X119857186Y-118286416D01*
X119853669Y-118300457D01*
X119848792Y-118314086D01*
X119842603Y-118327171D01*
X119835162Y-118339587D01*
X119826539Y-118351213D01*
X119816818Y-118361938D01*
X119806093Y-118371659D01*
X119794467Y-118380282D01*
X119782051Y-118387723D01*
X119768966Y-118393912D01*
X119755337Y-118398789D01*
X119741296Y-118402306D01*
X119726978Y-118404430D01*
X119712520Y-118405140D01*
X119367520Y-118405140D01*
X119353062Y-118404430D01*
X119338744Y-118402306D01*
X119324703Y-118398789D01*
X119311074Y-118393912D01*
X119297989Y-118387723D01*
X119285573Y-118380282D01*
X119273947Y-118371659D01*
X119263222Y-118361938D01*
X119253501Y-118351213D01*
X119244878Y-118339587D01*
X119237437Y-118327171D01*
X119231248Y-118314086D01*
X119226371Y-118300457D01*
X119222854Y-118286416D01*
X119220730Y-118272098D01*
X119220020Y-118257640D01*
X119220020Y-117962640D01*
X119220730Y-117948182D01*
X119222854Y-117933864D01*
X119226371Y-117919823D01*
X119231248Y-117906194D01*
X119237437Y-117893109D01*
X119244878Y-117880693D01*
X119253501Y-117869067D01*
X119263222Y-117858342D01*
X119273947Y-117848621D01*
X119285573Y-117839998D01*
X119297989Y-117832557D01*
X119311074Y-117826368D01*
X119324703Y-117821491D01*
X119338744Y-117817974D01*
X119353062Y-117815850D01*
X119367520Y-117815140D01*
X119712520Y-117815140D01*
X119726978Y-117815850D01*
X119726978Y-117815850D01*
G37*
D11*
X119540020Y-118110140D03*
D10*
G36*
X130260718Y-118020270D02*
G01*
X130275036Y-118022394D01*
X130289077Y-118025911D01*
X130302706Y-118030788D01*
X130315791Y-118036977D01*
X130328207Y-118044418D01*
X130339833Y-118053041D01*
X130350558Y-118062762D01*
X130360279Y-118073487D01*
X130368902Y-118085113D01*
X130376343Y-118097529D01*
X130382532Y-118110614D01*
X130387409Y-118124243D01*
X130390926Y-118138284D01*
X130393050Y-118152602D01*
X130393760Y-118167060D01*
X130393760Y-118512060D01*
X130393050Y-118526518D01*
X130390926Y-118540836D01*
X130387409Y-118554877D01*
X130382532Y-118568506D01*
X130376343Y-118581591D01*
X130368902Y-118594007D01*
X130360279Y-118605633D01*
X130350558Y-118616358D01*
X130339833Y-118626079D01*
X130328207Y-118634702D01*
X130315791Y-118642143D01*
X130302706Y-118648332D01*
X130289077Y-118653209D01*
X130275036Y-118656726D01*
X130260718Y-118658850D01*
X130246260Y-118659560D01*
X129951260Y-118659560D01*
X129936802Y-118658850D01*
X129922484Y-118656726D01*
X129908443Y-118653209D01*
X129894814Y-118648332D01*
X129881729Y-118642143D01*
X129869313Y-118634702D01*
X129857687Y-118626079D01*
X129846962Y-118616358D01*
X129837241Y-118605633D01*
X129828618Y-118594007D01*
X129821177Y-118581591D01*
X129814988Y-118568506D01*
X129810111Y-118554877D01*
X129806594Y-118540836D01*
X129804470Y-118526518D01*
X129803760Y-118512060D01*
X129803760Y-118167060D01*
X129804470Y-118152602D01*
X129806594Y-118138284D01*
X129810111Y-118124243D01*
X129814988Y-118110614D01*
X129821177Y-118097529D01*
X129828618Y-118085113D01*
X129837241Y-118073487D01*
X129846962Y-118062762D01*
X129857687Y-118053041D01*
X129869313Y-118044418D01*
X129881729Y-118036977D01*
X129894814Y-118030788D01*
X129908443Y-118025911D01*
X129922484Y-118022394D01*
X129936802Y-118020270D01*
X129951260Y-118019560D01*
X130246260Y-118019560D01*
X130260718Y-118020270D01*
X130260718Y-118020270D01*
G37*
D11*
X130098760Y-118339560D03*
D10*
G36*
X129290718Y-118020270D02*
G01*
X129305036Y-118022394D01*
X129319077Y-118025911D01*
X129332706Y-118030788D01*
X129345791Y-118036977D01*
X129358207Y-118044418D01*
X129369833Y-118053041D01*
X129380558Y-118062762D01*
X129390279Y-118073487D01*
X129398902Y-118085113D01*
X129406343Y-118097529D01*
X129412532Y-118110614D01*
X129417409Y-118124243D01*
X129420926Y-118138284D01*
X129423050Y-118152602D01*
X129423760Y-118167060D01*
X129423760Y-118512060D01*
X129423050Y-118526518D01*
X129420926Y-118540836D01*
X129417409Y-118554877D01*
X129412532Y-118568506D01*
X129406343Y-118581591D01*
X129398902Y-118594007D01*
X129390279Y-118605633D01*
X129380558Y-118616358D01*
X129369833Y-118626079D01*
X129358207Y-118634702D01*
X129345791Y-118642143D01*
X129332706Y-118648332D01*
X129319077Y-118653209D01*
X129305036Y-118656726D01*
X129290718Y-118658850D01*
X129276260Y-118659560D01*
X128981260Y-118659560D01*
X128966802Y-118658850D01*
X128952484Y-118656726D01*
X128938443Y-118653209D01*
X128924814Y-118648332D01*
X128911729Y-118642143D01*
X128899313Y-118634702D01*
X128887687Y-118626079D01*
X128876962Y-118616358D01*
X128867241Y-118605633D01*
X128858618Y-118594007D01*
X128851177Y-118581591D01*
X128844988Y-118568506D01*
X128840111Y-118554877D01*
X128836594Y-118540836D01*
X128834470Y-118526518D01*
X128833760Y-118512060D01*
X128833760Y-118167060D01*
X128834470Y-118152602D01*
X128836594Y-118138284D01*
X128840111Y-118124243D01*
X128844988Y-118110614D01*
X128851177Y-118097529D01*
X128858618Y-118085113D01*
X128867241Y-118073487D01*
X128876962Y-118062762D01*
X128887687Y-118053041D01*
X128899313Y-118044418D01*
X128911729Y-118036977D01*
X128924814Y-118030788D01*
X128938443Y-118025911D01*
X128952484Y-118022394D01*
X128966802Y-118020270D01*
X128981260Y-118019560D01*
X129276260Y-118019560D01*
X129290718Y-118020270D01*
X129290718Y-118020270D01*
G37*
D11*
X129128760Y-118339560D03*
D10*
G36*
X119135698Y-114597930D02*
G01*
X119150016Y-114600054D01*
X119164057Y-114603571D01*
X119177686Y-114608448D01*
X119190771Y-114614637D01*
X119203187Y-114622078D01*
X119214813Y-114630701D01*
X119225538Y-114640422D01*
X119235259Y-114651147D01*
X119243882Y-114662773D01*
X119251323Y-114675189D01*
X119257512Y-114688274D01*
X119262389Y-114701903D01*
X119265906Y-114715944D01*
X119268030Y-114730262D01*
X119268740Y-114744720D01*
X119268740Y-115089720D01*
X119268030Y-115104178D01*
X119265906Y-115118496D01*
X119262389Y-115132537D01*
X119257512Y-115146166D01*
X119251323Y-115159251D01*
X119243882Y-115171667D01*
X119235259Y-115183293D01*
X119225538Y-115194018D01*
X119214813Y-115203739D01*
X119203187Y-115212362D01*
X119190771Y-115219803D01*
X119177686Y-115225992D01*
X119164057Y-115230869D01*
X119150016Y-115234386D01*
X119135698Y-115236510D01*
X119121240Y-115237220D01*
X118826240Y-115237220D01*
X118811782Y-115236510D01*
X118797464Y-115234386D01*
X118783423Y-115230869D01*
X118769794Y-115225992D01*
X118756709Y-115219803D01*
X118744293Y-115212362D01*
X118732667Y-115203739D01*
X118721942Y-115194018D01*
X118712221Y-115183293D01*
X118703598Y-115171667D01*
X118696157Y-115159251D01*
X118689968Y-115146166D01*
X118685091Y-115132537D01*
X118681574Y-115118496D01*
X118679450Y-115104178D01*
X118678740Y-115089720D01*
X118678740Y-114744720D01*
X118679450Y-114730262D01*
X118681574Y-114715944D01*
X118685091Y-114701903D01*
X118689968Y-114688274D01*
X118696157Y-114675189D01*
X118703598Y-114662773D01*
X118712221Y-114651147D01*
X118721942Y-114640422D01*
X118732667Y-114630701D01*
X118744293Y-114622078D01*
X118756709Y-114614637D01*
X118769794Y-114608448D01*
X118783423Y-114603571D01*
X118797464Y-114600054D01*
X118811782Y-114597930D01*
X118826240Y-114597220D01*
X119121240Y-114597220D01*
X119135698Y-114597930D01*
X119135698Y-114597930D01*
G37*
D11*
X118973740Y-114917220D03*
D10*
G36*
X120105698Y-114597930D02*
G01*
X120120016Y-114600054D01*
X120134057Y-114603571D01*
X120147686Y-114608448D01*
X120160771Y-114614637D01*
X120173187Y-114622078D01*
X120184813Y-114630701D01*
X120195538Y-114640422D01*
X120205259Y-114651147D01*
X120213882Y-114662773D01*
X120221323Y-114675189D01*
X120227512Y-114688274D01*
X120232389Y-114701903D01*
X120235906Y-114715944D01*
X120238030Y-114730262D01*
X120238740Y-114744720D01*
X120238740Y-115089720D01*
X120238030Y-115104178D01*
X120235906Y-115118496D01*
X120232389Y-115132537D01*
X120227512Y-115146166D01*
X120221323Y-115159251D01*
X120213882Y-115171667D01*
X120205259Y-115183293D01*
X120195538Y-115194018D01*
X120184813Y-115203739D01*
X120173187Y-115212362D01*
X120160771Y-115219803D01*
X120147686Y-115225992D01*
X120134057Y-115230869D01*
X120120016Y-115234386D01*
X120105698Y-115236510D01*
X120091240Y-115237220D01*
X119796240Y-115237220D01*
X119781782Y-115236510D01*
X119767464Y-115234386D01*
X119753423Y-115230869D01*
X119739794Y-115225992D01*
X119726709Y-115219803D01*
X119714293Y-115212362D01*
X119702667Y-115203739D01*
X119691942Y-115194018D01*
X119682221Y-115183293D01*
X119673598Y-115171667D01*
X119666157Y-115159251D01*
X119659968Y-115146166D01*
X119655091Y-115132537D01*
X119651574Y-115118496D01*
X119649450Y-115104178D01*
X119648740Y-115089720D01*
X119648740Y-114744720D01*
X119649450Y-114730262D01*
X119651574Y-114715944D01*
X119655091Y-114701903D01*
X119659968Y-114688274D01*
X119666157Y-114675189D01*
X119673598Y-114662773D01*
X119682221Y-114651147D01*
X119691942Y-114640422D01*
X119702667Y-114630701D01*
X119714293Y-114622078D01*
X119726709Y-114614637D01*
X119739794Y-114608448D01*
X119753423Y-114603571D01*
X119767464Y-114600054D01*
X119781782Y-114597930D01*
X119796240Y-114597220D01*
X120091240Y-114597220D01*
X120105698Y-114597930D01*
X120105698Y-114597930D01*
G37*
D11*
X119943740Y-114917220D03*
D10*
G36*
X119140778Y-113510810D02*
G01*
X119155096Y-113512934D01*
X119169137Y-113516451D01*
X119182766Y-113521328D01*
X119195851Y-113527517D01*
X119208267Y-113534958D01*
X119219893Y-113543581D01*
X119230618Y-113553302D01*
X119240339Y-113564027D01*
X119248962Y-113575653D01*
X119256403Y-113588069D01*
X119262592Y-113601154D01*
X119267469Y-113614783D01*
X119270986Y-113628824D01*
X119273110Y-113643142D01*
X119273820Y-113657600D01*
X119273820Y-114002600D01*
X119273110Y-114017058D01*
X119270986Y-114031376D01*
X119267469Y-114045417D01*
X119262592Y-114059046D01*
X119256403Y-114072131D01*
X119248962Y-114084547D01*
X119240339Y-114096173D01*
X119230618Y-114106898D01*
X119219893Y-114116619D01*
X119208267Y-114125242D01*
X119195851Y-114132683D01*
X119182766Y-114138872D01*
X119169137Y-114143749D01*
X119155096Y-114147266D01*
X119140778Y-114149390D01*
X119126320Y-114150100D01*
X118831320Y-114150100D01*
X118816862Y-114149390D01*
X118802544Y-114147266D01*
X118788503Y-114143749D01*
X118774874Y-114138872D01*
X118761789Y-114132683D01*
X118749373Y-114125242D01*
X118737747Y-114116619D01*
X118727022Y-114106898D01*
X118717301Y-114096173D01*
X118708678Y-114084547D01*
X118701237Y-114072131D01*
X118695048Y-114059046D01*
X118690171Y-114045417D01*
X118686654Y-114031376D01*
X118684530Y-114017058D01*
X118683820Y-114002600D01*
X118683820Y-113657600D01*
X118684530Y-113643142D01*
X118686654Y-113628824D01*
X118690171Y-113614783D01*
X118695048Y-113601154D01*
X118701237Y-113588069D01*
X118708678Y-113575653D01*
X118717301Y-113564027D01*
X118727022Y-113553302D01*
X118737747Y-113543581D01*
X118749373Y-113534958D01*
X118761789Y-113527517D01*
X118774874Y-113521328D01*
X118788503Y-113516451D01*
X118802544Y-113512934D01*
X118816862Y-113510810D01*
X118831320Y-113510100D01*
X119126320Y-113510100D01*
X119140778Y-113510810D01*
X119140778Y-113510810D01*
G37*
D11*
X118978820Y-113830100D03*
D10*
G36*
X120110778Y-113510810D02*
G01*
X120125096Y-113512934D01*
X120139137Y-113516451D01*
X120152766Y-113521328D01*
X120165851Y-113527517D01*
X120178267Y-113534958D01*
X120189893Y-113543581D01*
X120200618Y-113553302D01*
X120210339Y-113564027D01*
X120218962Y-113575653D01*
X120226403Y-113588069D01*
X120232592Y-113601154D01*
X120237469Y-113614783D01*
X120240986Y-113628824D01*
X120243110Y-113643142D01*
X120243820Y-113657600D01*
X120243820Y-114002600D01*
X120243110Y-114017058D01*
X120240986Y-114031376D01*
X120237469Y-114045417D01*
X120232592Y-114059046D01*
X120226403Y-114072131D01*
X120218962Y-114084547D01*
X120210339Y-114096173D01*
X120200618Y-114106898D01*
X120189893Y-114116619D01*
X120178267Y-114125242D01*
X120165851Y-114132683D01*
X120152766Y-114138872D01*
X120139137Y-114143749D01*
X120125096Y-114147266D01*
X120110778Y-114149390D01*
X120096320Y-114150100D01*
X119801320Y-114150100D01*
X119786862Y-114149390D01*
X119772544Y-114147266D01*
X119758503Y-114143749D01*
X119744874Y-114138872D01*
X119731789Y-114132683D01*
X119719373Y-114125242D01*
X119707747Y-114116619D01*
X119697022Y-114106898D01*
X119687301Y-114096173D01*
X119678678Y-114084547D01*
X119671237Y-114072131D01*
X119665048Y-114059046D01*
X119660171Y-114045417D01*
X119656654Y-114031376D01*
X119654530Y-114017058D01*
X119653820Y-114002600D01*
X119653820Y-113657600D01*
X119654530Y-113643142D01*
X119656654Y-113628824D01*
X119660171Y-113614783D01*
X119665048Y-113601154D01*
X119671237Y-113588069D01*
X119678678Y-113575653D01*
X119687301Y-113564027D01*
X119697022Y-113553302D01*
X119707747Y-113543581D01*
X119719373Y-113534958D01*
X119731789Y-113527517D01*
X119744874Y-113521328D01*
X119758503Y-113516451D01*
X119772544Y-113512934D01*
X119786862Y-113510810D01*
X119801320Y-113510100D01*
X120096320Y-113510100D01*
X120110778Y-113510810D01*
X120110778Y-113510810D01*
G37*
D11*
X119948820Y-113830100D03*
D10*
G36*
X119003618Y-120528830D02*
G01*
X119017936Y-120530954D01*
X119031977Y-120534471D01*
X119045606Y-120539348D01*
X119058691Y-120545537D01*
X119071107Y-120552978D01*
X119082733Y-120561601D01*
X119093458Y-120571322D01*
X119103179Y-120582047D01*
X119111802Y-120593673D01*
X119119243Y-120606089D01*
X119125432Y-120619174D01*
X119130309Y-120632803D01*
X119133826Y-120646844D01*
X119135950Y-120661162D01*
X119136660Y-120675620D01*
X119136660Y-121020620D01*
X119135950Y-121035078D01*
X119133826Y-121049396D01*
X119130309Y-121063437D01*
X119125432Y-121077066D01*
X119119243Y-121090151D01*
X119111802Y-121102567D01*
X119103179Y-121114193D01*
X119093458Y-121124918D01*
X119082733Y-121134639D01*
X119071107Y-121143262D01*
X119058691Y-121150703D01*
X119045606Y-121156892D01*
X119031977Y-121161769D01*
X119017936Y-121165286D01*
X119003618Y-121167410D01*
X118989160Y-121168120D01*
X118694160Y-121168120D01*
X118679702Y-121167410D01*
X118665384Y-121165286D01*
X118651343Y-121161769D01*
X118637714Y-121156892D01*
X118624629Y-121150703D01*
X118612213Y-121143262D01*
X118600587Y-121134639D01*
X118589862Y-121124918D01*
X118580141Y-121114193D01*
X118571518Y-121102567D01*
X118564077Y-121090151D01*
X118557888Y-121077066D01*
X118553011Y-121063437D01*
X118549494Y-121049396D01*
X118547370Y-121035078D01*
X118546660Y-121020620D01*
X118546660Y-120675620D01*
X118547370Y-120661162D01*
X118549494Y-120646844D01*
X118553011Y-120632803D01*
X118557888Y-120619174D01*
X118564077Y-120606089D01*
X118571518Y-120593673D01*
X118580141Y-120582047D01*
X118589862Y-120571322D01*
X118600587Y-120561601D01*
X118612213Y-120552978D01*
X118624629Y-120545537D01*
X118637714Y-120539348D01*
X118651343Y-120534471D01*
X118665384Y-120530954D01*
X118679702Y-120528830D01*
X118694160Y-120528120D01*
X118989160Y-120528120D01*
X119003618Y-120528830D01*
X119003618Y-120528830D01*
G37*
D11*
X118841660Y-120848120D03*
D10*
G36*
X119973618Y-120528830D02*
G01*
X119987936Y-120530954D01*
X120001977Y-120534471D01*
X120015606Y-120539348D01*
X120028691Y-120545537D01*
X120041107Y-120552978D01*
X120052733Y-120561601D01*
X120063458Y-120571322D01*
X120073179Y-120582047D01*
X120081802Y-120593673D01*
X120089243Y-120606089D01*
X120095432Y-120619174D01*
X120100309Y-120632803D01*
X120103826Y-120646844D01*
X120105950Y-120661162D01*
X120106660Y-120675620D01*
X120106660Y-121020620D01*
X120105950Y-121035078D01*
X120103826Y-121049396D01*
X120100309Y-121063437D01*
X120095432Y-121077066D01*
X120089243Y-121090151D01*
X120081802Y-121102567D01*
X120073179Y-121114193D01*
X120063458Y-121124918D01*
X120052733Y-121134639D01*
X120041107Y-121143262D01*
X120028691Y-121150703D01*
X120015606Y-121156892D01*
X120001977Y-121161769D01*
X119987936Y-121165286D01*
X119973618Y-121167410D01*
X119959160Y-121168120D01*
X119664160Y-121168120D01*
X119649702Y-121167410D01*
X119635384Y-121165286D01*
X119621343Y-121161769D01*
X119607714Y-121156892D01*
X119594629Y-121150703D01*
X119582213Y-121143262D01*
X119570587Y-121134639D01*
X119559862Y-121124918D01*
X119550141Y-121114193D01*
X119541518Y-121102567D01*
X119534077Y-121090151D01*
X119527888Y-121077066D01*
X119523011Y-121063437D01*
X119519494Y-121049396D01*
X119517370Y-121035078D01*
X119516660Y-121020620D01*
X119516660Y-120675620D01*
X119517370Y-120661162D01*
X119519494Y-120646844D01*
X119523011Y-120632803D01*
X119527888Y-120619174D01*
X119534077Y-120606089D01*
X119541518Y-120593673D01*
X119550141Y-120582047D01*
X119559862Y-120571322D01*
X119570587Y-120561601D01*
X119582213Y-120552978D01*
X119594629Y-120545537D01*
X119607714Y-120539348D01*
X119621343Y-120534471D01*
X119635384Y-120530954D01*
X119649702Y-120528830D01*
X119664160Y-120528120D01*
X119959160Y-120528120D01*
X119973618Y-120528830D01*
X119973618Y-120528830D01*
G37*
D11*
X119811660Y-120848120D03*
D10*
G36*
X116828838Y-113543570D02*
G01*
X116843156Y-113545694D01*
X116857197Y-113549211D01*
X116870826Y-113554088D01*
X116883911Y-113560277D01*
X116896327Y-113567718D01*
X116907953Y-113576341D01*
X116918678Y-113586062D01*
X116928399Y-113596787D01*
X116937022Y-113608413D01*
X116944463Y-113620829D01*
X116950652Y-113633914D01*
X116955529Y-113647543D01*
X116959046Y-113661584D01*
X116961170Y-113675902D01*
X116961880Y-113690360D01*
X116961880Y-113985360D01*
X116961170Y-113999818D01*
X116959046Y-114014136D01*
X116955529Y-114028177D01*
X116950652Y-114041806D01*
X116944463Y-114054891D01*
X116937022Y-114067307D01*
X116928399Y-114078933D01*
X116918678Y-114089658D01*
X116907953Y-114099379D01*
X116896327Y-114108002D01*
X116883911Y-114115443D01*
X116870826Y-114121632D01*
X116857197Y-114126509D01*
X116843156Y-114130026D01*
X116828838Y-114132150D01*
X116814380Y-114132860D01*
X116469380Y-114132860D01*
X116454922Y-114132150D01*
X116440604Y-114130026D01*
X116426563Y-114126509D01*
X116412934Y-114121632D01*
X116399849Y-114115443D01*
X116387433Y-114108002D01*
X116375807Y-114099379D01*
X116365082Y-114089658D01*
X116355361Y-114078933D01*
X116346738Y-114067307D01*
X116339297Y-114054891D01*
X116333108Y-114041806D01*
X116328231Y-114028177D01*
X116324714Y-114014136D01*
X116322590Y-113999818D01*
X116321880Y-113985360D01*
X116321880Y-113690360D01*
X116322590Y-113675902D01*
X116324714Y-113661584D01*
X116328231Y-113647543D01*
X116333108Y-113633914D01*
X116339297Y-113620829D01*
X116346738Y-113608413D01*
X116355361Y-113596787D01*
X116365082Y-113586062D01*
X116375807Y-113576341D01*
X116387433Y-113567718D01*
X116399849Y-113560277D01*
X116412934Y-113554088D01*
X116426563Y-113549211D01*
X116440604Y-113545694D01*
X116454922Y-113543570D01*
X116469380Y-113542860D01*
X116814380Y-113542860D01*
X116828838Y-113543570D01*
X116828838Y-113543570D01*
G37*
D11*
X116641880Y-113837860D03*
D10*
G36*
X116828838Y-114513570D02*
G01*
X116843156Y-114515694D01*
X116857197Y-114519211D01*
X116870826Y-114524088D01*
X116883911Y-114530277D01*
X116896327Y-114537718D01*
X116907953Y-114546341D01*
X116918678Y-114556062D01*
X116928399Y-114566787D01*
X116937022Y-114578413D01*
X116944463Y-114590829D01*
X116950652Y-114603914D01*
X116955529Y-114617543D01*
X116959046Y-114631584D01*
X116961170Y-114645902D01*
X116961880Y-114660360D01*
X116961880Y-114955360D01*
X116961170Y-114969818D01*
X116959046Y-114984136D01*
X116955529Y-114998177D01*
X116950652Y-115011806D01*
X116944463Y-115024891D01*
X116937022Y-115037307D01*
X116928399Y-115048933D01*
X116918678Y-115059658D01*
X116907953Y-115069379D01*
X116896327Y-115078002D01*
X116883911Y-115085443D01*
X116870826Y-115091632D01*
X116857197Y-115096509D01*
X116843156Y-115100026D01*
X116828838Y-115102150D01*
X116814380Y-115102860D01*
X116469380Y-115102860D01*
X116454922Y-115102150D01*
X116440604Y-115100026D01*
X116426563Y-115096509D01*
X116412934Y-115091632D01*
X116399849Y-115085443D01*
X116387433Y-115078002D01*
X116375807Y-115069379D01*
X116365082Y-115059658D01*
X116355361Y-115048933D01*
X116346738Y-115037307D01*
X116339297Y-115024891D01*
X116333108Y-115011806D01*
X116328231Y-114998177D01*
X116324714Y-114984136D01*
X116322590Y-114969818D01*
X116321880Y-114955360D01*
X116321880Y-114660360D01*
X116322590Y-114645902D01*
X116324714Y-114631584D01*
X116328231Y-114617543D01*
X116333108Y-114603914D01*
X116339297Y-114590829D01*
X116346738Y-114578413D01*
X116355361Y-114566787D01*
X116365082Y-114556062D01*
X116375807Y-114546341D01*
X116387433Y-114537718D01*
X116399849Y-114530277D01*
X116412934Y-114524088D01*
X116426563Y-114519211D01*
X116440604Y-114515694D01*
X116454922Y-114513570D01*
X116469380Y-114512860D01*
X116814380Y-114512860D01*
X116828838Y-114513570D01*
X116828838Y-114513570D01*
G37*
D11*
X116641880Y-114807860D03*
D10*
G36*
X119985638Y-122712630D02*
G01*
X119999956Y-122714754D01*
X120013997Y-122718271D01*
X120027626Y-122723148D01*
X120040711Y-122729337D01*
X120053127Y-122736778D01*
X120064753Y-122745401D01*
X120075478Y-122755122D01*
X120085199Y-122765847D01*
X120093822Y-122777473D01*
X120101263Y-122789889D01*
X120107452Y-122802974D01*
X120112329Y-122816603D01*
X120115846Y-122830644D01*
X120117970Y-122844962D01*
X120118680Y-122859420D01*
X120118680Y-123204420D01*
X120117970Y-123218878D01*
X120115846Y-123233196D01*
X120112329Y-123247237D01*
X120107452Y-123260866D01*
X120101263Y-123273951D01*
X120093822Y-123286367D01*
X120085199Y-123297993D01*
X120075478Y-123308718D01*
X120064753Y-123318439D01*
X120053127Y-123327062D01*
X120040711Y-123334503D01*
X120027626Y-123340692D01*
X120013997Y-123345569D01*
X119999956Y-123349086D01*
X119985638Y-123351210D01*
X119971180Y-123351920D01*
X119676180Y-123351920D01*
X119661722Y-123351210D01*
X119647404Y-123349086D01*
X119633363Y-123345569D01*
X119619734Y-123340692D01*
X119606649Y-123334503D01*
X119594233Y-123327062D01*
X119582607Y-123318439D01*
X119571882Y-123308718D01*
X119562161Y-123297993D01*
X119553538Y-123286367D01*
X119546097Y-123273951D01*
X119539908Y-123260866D01*
X119535031Y-123247237D01*
X119531514Y-123233196D01*
X119529390Y-123218878D01*
X119528680Y-123204420D01*
X119528680Y-122859420D01*
X119529390Y-122844962D01*
X119531514Y-122830644D01*
X119535031Y-122816603D01*
X119539908Y-122802974D01*
X119546097Y-122789889D01*
X119553538Y-122777473D01*
X119562161Y-122765847D01*
X119571882Y-122755122D01*
X119582607Y-122745401D01*
X119594233Y-122736778D01*
X119606649Y-122729337D01*
X119619734Y-122723148D01*
X119633363Y-122718271D01*
X119647404Y-122714754D01*
X119661722Y-122712630D01*
X119676180Y-122711920D01*
X119971180Y-122711920D01*
X119985638Y-122712630D01*
X119985638Y-122712630D01*
G37*
D11*
X119823680Y-123031920D03*
D10*
G36*
X119015638Y-122712630D02*
G01*
X119029956Y-122714754D01*
X119043997Y-122718271D01*
X119057626Y-122723148D01*
X119070711Y-122729337D01*
X119083127Y-122736778D01*
X119094753Y-122745401D01*
X119105478Y-122755122D01*
X119115199Y-122765847D01*
X119123822Y-122777473D01*
X119131263Y-122789889D01*
X119137452Y-122802974D01*
X119142329Y-122816603D01*
X119145846Y-122830644D01*
X119147970Y-122844962D01*
X119148680Y-122859420D01*
X119148680Y-123204420D01*
X119147970Y-123218878D01*
X119145846Y-123233196D01*
X119142329Y-123247237D01*
X119137452Y-123260866D01*
X119131263Y-123273951D01*
X119123822Y-123286367D01*
X119115199Y-123297993D01*
X119105478Y-123308718D01*
X119094753Y-123318439D01*
X119083127Y-123327062D01*
X119070711Y-123334503D01*
X119057626Y-123340692D01*
X119043997Y-123345569D01*
X119029956Y-123349086D01*
X119015638Y-123351210D01*
X119001180Y-123351920D01*
X118706180Y-123351920D01*
X118691722Y-123351210D01*
X118677404Y-123349086D01*
X118663363Y-123345569D01*
X118649734Y-123340692D01*
X118636649Y-123334503D01*
X118624233Y-123327062D01*
X118612607Y-123318439D01*
X118601882Y-123308718D01*
X118592161Y-123297993D01*
X118583538Y-123286367D01*
X118576097Y-123273951D01*
X118569908Y-123260866D01*
X118565031Y-123247237D01*
X118561514Y-123233196D01*
X118559390Y-123218878D01*
X118558680Y-123204420D01*
X118558680Y-122859420D01*
X118559390Y-122844962D01*
X118561514Y-122830644D01*
X118565031Y-122816603D01*
X118569908Y-122802974D01*
X118576097Y-122789889D01*
X118583538Y-122777473D01*
X118592161Y-122765847D01*
X118601882Y-122755122D01*
X118612607Y-122745401D01*
X118624233Y-122736778D01*
X118636649Y-122729337D01*
X118649734Y-122723148D01*
X118663363Y-122718271D01*
X118677404Y-122714754D01*
X118691722Y-122712630D01*
X118706180Y-122711920D01*
X119001180Y-122711920D01*
X119015638Y-122712630D01*
X119015638Y-122712630D01*
G37*
D11*
X118853680Y-123031920D03*
D10*
G36*
X115734098Y-117820930D02*
G01*
X115748416Y-117823054D01*
X115762457Y-117826571D01*
X115776086Y-117831448D01*
X115789171Y-117837637D01*
X115801587Y-117845078D01*
X115813213Y-117853701D01*
X115823938Y-117863422D01*
X115833659Y-117874147D01*
X115842282Y-117885773D01*
X115849723Y-117898189D01*
X115855912Y-117911274D01*
X115860789Y-117924903D01*
X115864306Y-117938944D01*
X115866430Y-117953262D01*
X115867140Y-117967720D01*
X115867140Y-118262720D01*
X115866430Y-118277178D01*
X115864306Y-118291496D01*
X115860789Y-118305537D01*
X115855912Y-118319166D01*
X115849723Y-118332251D01*
X115842282Y-118344667D01*
X115833659Y-118356293D01*
X115823938Y-118367018D01*
X115813213Y-118376739D01*
X115801587Y-118385362D01*
X115789171Y-118392803D01*
X115776086Y-118398992D01*
X115762457Y-118403869D01*
X115748416Y-118407386D01*
X115734098Y-118409510D01*
X115719640Y-118410220D01*
X115374640Y-118410220D01*
X115360182Y-118409510D01*
X115345864Y-118407386D01*
X115331823Y-118403869D01*
X115318194Y-118398992D01*
X115305109Y-118392803D01*
X115292693Y-118385362D01*
X115281067Y-118376739D01*
X115270342Y-118367018D01*
X115260621Y-118356293D01*
X115251998Y-118344667D01*
X115244557Y-118332251D01*
X115238368Y-118319166D01*
X115233491Y-118305537D01*
X115229974Y-118291496D01*
X115227850Y-118277178D01*
X115227140Y-118262720D01*
X115227140Y-117967720D01*
X115227850Y-117953262D01*
X115229974Y-117938944D01*
X115233491Y-117924903D01*
X115238368Y-117911274D01*
X115244557Y-117898189D01*
X115251998Y-117885773D01*
X115260621Y-117874147D01*
X115270342Y-117863422D01*
X115281067Y-117853701D01*
X115292693Y-117845078D01*
X115305109Y-117837637D01*
X115318194Y-117831448D01*
X115331823Y-117826571D01*
X115345864Y-117823054D01*
X115360182Y-117820930D01*
X115374640Y-117820220D01*
X115719640Y-117820220D01*
X115734098Y-117820930D01*
X115734098Y-117820930D01*
G37*
D11*
X115547140Y-118115220D03*
D10*
G36*
X115734098Y-118790930D02*
G01*
X115748416Y-118793054D01*
X115762457Y-118796571D01*
X115776086Y-118801448D01*
X115789171Y-118807637D01*
X115801587Y-118815078D01*
X115813213Y-118823701D01*
X115823938Y-118833422D01*
X115833659Y-118844147D01*
X115842282Y-118855773D01*
X115849723Y-118868189D01*
X115855912Y-118881274D01*
X115860789Y-118894903D01*
X115864306Y-118908944D01*
X115866430Y-118923262D01*
X115867140Y-118937720D01*
X115867140Y-119232720D01*
X115866430Y-119247178D01*
X115864306Y-119261496D01*
X115860789Y-119275537D01*
X115855912Y-119289166D01*
X115849723Y-119302251D01*
X115842282Y-119314667D01*
X115833659Y-119326293D01*
X115823938Y-119337018D01*
X115813213Y-119346739D01*
X115801587Y-119355362D01*
X115789171Y-119362803D01*
X115776086Y-119368992D01*
X115762457Y-119373869D01*
X115748416Y-119377386D01*
X115734098Y-119379510D01*
X115719640Y-119380220D01*
X115374640Y-119380220D01*
X115360182Y-119379510D01*
X115345864Y-119377386D01*
X115331823Y-119373869D01*
X115318194Y-119368992D01*
X115305109Y-119362803D01*
X115292693Y-119355362D01*
X115281067Y-119346739D01*
X115270342Y-119337018D01*
X115260621Y-119326293D01*
X115251998Y-119314667D01*
X115244557Y-119302251D01*
X115238368Y-119289166D01*
X115233491Y-119275537D01*
X115229974Y-119261496D01*
X115227850Y-119247178D01*
X115227140Y-119232720D01*
X115227140Y-118937720D01*
X115227850Y-118923262D01*
X115229974Y-118908944D01*
X115233491Y-118894903D01*
X115238368Y-118881274D01*
X115244557Y-118868189D01*
X115251998Y-118855773D01*
X115260621Y-118844147D01*
X115270342Y-118833422D01*
X115281067Y-118823701D01*
X115292693Y-118815078D01*
X115305109Y-118807637D01*
X115318194Y-118801448D01*
X115331823Y-118796571D01*
X115345864Y-118793054D01*
X115360182Y-118790930D01*
X115374640Y-118790220D01*
X115719640Y-118790220D01*
X115734098Y-118790930D01*
X115734098Y-118790930D01*
G37*
D11*
X115547140Y-119085220D03*
D10*
G36*
X104355158Y-123122170D02*
G01*
X104369476Y-123124294D01*
X104383517Y-123127811D01*
X104397146Y-123132688D01*
X104410231Y-123138877D01*
X104422647Y-123146318D01*
X104434273Y-123154941D01*
X104444998Y-123164662D01*
X104454719Y-123175387D01*
X104463342Y-123187013D01*
X104470783Y-123199429D01*
X104476972Y-123212514D01*
X104481849Y-123226143D01*
X104485366Y-123240184D01*
X104487490Y-123254502D01*
X104488200Y-123268960D01*
X104488200Y-123613960D01*
X104487490Y-123628418D01*
X104485366Y-123642736D01*
X104481849Y-123656777D01*
X104476972Y-123670406D01*
X104470783Y-123683491D01*
X104463342Y-123695907D01*
X104454719Y-123707533D01*
X104444998Y-123718258D01*
X104434273Y-123727979D01*
X104422647Y-123736602D01*
X104410231Y-123744043D01*
X104397146Y-123750232D01*
X104383517Y-123755109D01*
X104369476Y-123758626D01*
X104355158Y-123760750D01*
X104340700Y-123761460D01*
X104045700Y-123761460D01*
X104031242Y-123760750D01*
X104016924Y-123758626D01*
X104002883Y-123755109D01*
X103989254Y-123750232D01*
X103976169Y-123744043D01*
X103963753Y-123736602D01*
X103952127Y-123727979D01*
X103941402Y-123718258D01*
X103931681Y-123707533D01*
X103923058Y-123695907D01*
X103915617Y-123683491D01*
X103909428Y-123670406D01*
X103904551Y-123656777D01*
X103901034Y-123642736D01*
X103898910Y-123628418D01*
X103898200Y-123613960D01*
X103898200Y-123268960D01*
X103898910Y-123254502D01*
X103901034Y-123240184D01*
X103904551Y-123226143D01*
X103909428Y-123212514D01*
X103915617Y-123199429D01*
X103923058Y-123187013D01*
X103931681Y-123175387D01*
X103941402Y-123164662D01*
X103952127Y-123154941D01*
X103963753Y-123146318D01*
X103976169Y-123138877D01*
X103989254Y-123132688D01*
X104002883Y-123127811D01*
X104016924Y-123124294D01*
X104031242Y-123122170D01*
X104045700Y-123121460D01*
X104340700Y-123121460D01*
X104355158Y-123122170D01*
X104355158Y-123122170D01*
G37*
D11*
X104193200Y-123441460D03*
D10*
G36*
X103385158Y-123122170D02*
G01*
X103399476Y-123124294D01*
X103413517Y-123127811D01*
X103427146Y-123132688D01*
X103440231Y-123138877D01*
X103452647Y-123146318D01*
X103464273Y-123154941D01*
X103474998Y-123164662D01*
X103484719Y-123175387D01*
X103493342Y-123187013D01*
X103500783Y-123199429D01*
X103506972Y-123212514D01*
X103511849Y-123226143D01*
X103515366Y-123240184D01*
X103517490Y-123254502D01*
X103518200Y-123268960D01*
X103518200Y-123613960D01*
X103517490Y-123628418D01*
X103515366Y-123642736D01*
X103511849Y-123656777D01*
X103506972Y-123670406D01*
X103500783Y-123683491D01*
X103493342Y-123695907D01*
X103484719Y-123707533D01*
X103474998Y-123718258D01*
X103464273Y-123727979D01*
X103452647Y-123736602D01*
X103440231Y-123744043D01*
X103427146Y-123750232D01*
X103413517Y-123755109D01*
X103399476Y-123758626D01*
X103385158Y-123760750D01*
X103370700Y-123761460D01*
X103075700Y-123761460D01*
X103061242Y-123760750D01*
X103046924Y-123758626D01*
X103032883Y-123755109D01*
X103019254Y-123750232D01*
X103006169Y-123744043D01*
X102993753Y-123736602D01*
X102982127Y-123727979D01*
X102971402Y-123718258D01*
X102961681Y-123707533D01*
X102953058Y-123695907D01*
X102945617Y-123683491D01*
X102939428Y-123670406D01*
X102934551Y-123656777D01*
X102931034Y-123642736D01*
X102928910Y-123628418D01*
X102928200Y-123613960D01*
X102928200Y-123268960D01*
X102928910Y-123254502D01*
X102931034Y-123240184D01*
X102934551Y-123226143D01*
X102939428Y-123212514D01*
X102945617Y-123199429D01*
X102953058Y-123187013D01*
X102961681Y-123175387D01*
X102971402Y-123164662D01*
X102982127Y-123154941D01*
X102993753Y-123146318D01*
X103006169Y-123138877D01*
X103019254Y-123132688D01*
X103032883Y-123127811D01*
X103046924Y-123124294D01*
X103061242Y-123122170D01*
X103075700Y-123121460D01*
X103370700Y-123121460D01*
X103385158Y-123122170D01*
X103385158Y-123122170D01*
G37*
D11*
X103223200Y-123441460D03*
D10*
G36*
X104355158Y-122108710D02*
G01*
X104369476Y-122110834D01*
X104383517Y-122114351D01*
X104397146Y-122119228D01*
X104410231Y-122125417D01*
X104422647Y-122132858D01*
X104434273Y-122141481D01*
X104444998Y-122151202D01*
X104454719Y-122161927D01*
X104463342Y-122173553D01*
X104470783Y-122185969D01*
X104476972Y-122199054D01*
X104481849Y-122212683D01*
X104485366Y-122226724D01*
X104487490Y-122241042D01*
X104488200Y-122255500D01*
X104488200Y-122600500D01*
X104487490Y-122614958D01*
X104485366Y-122629276D01*
X104481849Y-122643317D01*
X104476972Y-122656946D01*
X104470783Y-122670031D01*
X104463342Y-122682447D01*
X104454719Y-122694073D01*
X104444998Y-122704798D01*
X104434273Y-122714519D01*
X104422647Y-122723142D01*
X104410231Y-122730583D01*
X104397146Y-122736772D01*
X104383517Y-122741649D01*
X104369476Y-122745166D01*
X104355158Y-122747290D01*
X104340700Y-122748000D01*
X104045700Y-122748000D01*
X104031242Y-122747290D01*
X104016924Y-122745166D01*
X104002883Y-122741649D01*
X103989254Y-122736772D01*
X103976169Y-122730583D01*
X103963753Y-122723142D01*
X103952127Y-122714519D01*
X103941402Y-122704798D01*
X103931681Y-122694073D01*
X103923058Y-122682447D01*
X103915617Y-122670031D01*
X103909428Y-122656946D01*
X103904551Y-122643317D01*
X103901034Y-122629276D01*
X103898910Y-122614958D01*
X103898200Y-122600500D01*
X103898200Y-122255500D01*
X103898910Y-122241042D01*
X103901034Y-122226724D01*
X103904551Y-122212683D01*
X103909428Y-122199054D01*
X103915617Y-122185969D01*
X103923058Y-122173553D01*
X103931681Y-122161927D01*
X103941402Y-122151202D01*
X103952127Y-122141481D01*
X103963753Y-122132858D01*
X103976169Y-122125417D01*
X103989254Y-122119228D01*
X104002883Y-122114351D01*
X104016924Y-122110834D01*
X104031242Y-122108710D01*
X104045700Y-122108000D01*
X104340700Y-122108000D01*
X104355158Y-122108710D01*
X104355158Y-122108710D01*
G37*
D11*
X104193200Y-122428000D03*
D10*
G36*
X103385158Y-122108710D02*
G01*
X103399476Y-122110834D01*
X103413517Y-122114351D01*
X103427146Y-122119228D01*
X103440231Y-122125417D01*
X103452647Y-122132858D01*
X103464273Y-122141481D01*
X103474998Y-122151202D01*
X103484719Y-122161927D01*
X103493342Y-122173553D01*
X103500783Y-122185969D01*
X103506972Y-122199054D01*
X103511849Y-122212683D01*
X103515366Y-122226724D01*
X103517490Y-122241042D01*
X103518200Y-122255500D01*
X103518200Y-122600500D01*
X103517490Y-122614958D01*
X103515366Y-122629276D01*
X103511849Y-122643317D01*
X103506972Y-122656946D01*
X103500783Y-122670031D01*
X103493342Y-122682447D01*
X103484719Y-122694073D01*
X103474998Y-122704798D01*
X103464273Y-122714519D01*
X103452647Y-122723142D01*
X103440231Y-122730583D01*
X103427146Y-122736772D01*
X103413517Y-122741649D01*
X103399476Y-122745166D01*
X103385158Y-122747290D01*
X103370700Y-122748000D01*
X103075700Y-122748000D01*
X103061242Y-122747290D01*
X103046924Y-122745166D01*
X103032883Y-122741649D01*
X103019254Y-122736772D01*
X103006169Y-122730583D01*
X102993753Y-122723142D01*
X102982127Y-122714519D01*
X102971402Y-122704798D01*
X102961681Y-122694073D01*
X102953058Y-122682447D01*
X102945617Y-122670031D01*
X102939428Y-122656946D01*
X102934551Y-122643317D01*
X102931034Y-122629276D01*
X102928910Y-122614958D01*
X102928200Y-122600500D01*
X102928200Y-122255500D01*
X102928910Y-122241042D01*
X102931034Y-122226724D01*
X102934551Y-122212683D01*
X102939428Y-122199054D01*
X102945617Y-122185969D01*
X102953058Y-122173553D01*
X102961681Y-122161927D01*
X102971402Y-122151202D01*
X102982127Y-122141481D01*
X102993753Y-122132858D01*
X103006169Y-122125417D01*
X103019254Y-122119228D01*
X103032883Y-122114351D01*
X103046924Y-122110834D01*
X103061242Y-122108710D01*
X103075700Y-122108000D01*
X103370700Y-122108000D01*
X103385158Y-122108710D01*
X103385158Y-122108710D01*
G37*
D11*
X103223200Y-122428000D03*
D10*
G36*
X123194485Y-115855944D02*
G01*
X123218753Y-115859544D01*
X123242552Y-115865505D01*
X123265651Y-115873770D01*
X123287830Y-115884260D01*
X123308873Y-115896872D01*
X123328579Y-115911487D01*
X123346757Y-115927963D01*
X123363233Y-115946141D01*
X123377848Y-115965847D01*
X123390460Y-115986890D01*
X123400950Y-116009069D01*
X123409215Y-116032168D01*
X123415176Y-116055967D01*
X123418776Y-116080235D01*
X123419980Y-116104739D01*
X123419980Y-116804741D01*
X123418776Y-116829245D01*
X123415176Y-116853513D01*
X123409215Y-116877312D01*
X123400950Y-116900411D01*
X123390460Y-116922590D01*
X123377848Y-116943633D01*
X123363233Y-116963339D01*
X123346757Y-116981517D01*
X123328579Y-116997993D01*
X123308873Y-117012608D01*
X123287830Y-117025220D01*
X123265651Y-117035710D01*
X123242552Y-117043975D01*
X123218753Y-117049936D01*
X123194485Y-117053536D01*
X123169981Y-117054740D01*
X122469979Y-117054740D01*
X122445475Y-117053536D01*
X122421207Y-117049936D01*
X122397408Y-117043975D01*
X122374309Y-117035710D01*
X122352130Y-117025220D01*
X122331087Y-117012608D01*
X122311381Y-116997993D01*
X122293203Y-116981517D01*
X122276727Y-116963339D01*
X122262112Y-116943633D01*
X122249500Y-116922590D01*
X122239010Y-116900411D01*
X122230745Y-116877312D01*
X122224784Y-116853513D01*
X122221184Y-116829245D01*
X122219980Y-116804741D01*
X122219980Y-116104739D01*
X122221184Y-116080235D01*
X122224784Y-116055967D01*
X122230745Y-116032168D01*
X122239010Y-116009069D01*
X122249500Y-115986890D01*
X122262112Y-115965847D01*
X122276727Y-115946141D01*
X122293203Y-115927963D01*
X122311381Y-115911487D01*
X122331087Y-115896872D01*
X122352130Y-115884260D01*
X122374309Y-115873770D01*
X122397408Y-115865505D01*
X122421207Y-115859544D01*
X122445475Y-115855944D01*
X122469979Y-115854740D01*
X123169981Y-115854740D01*
X123194485Y-115855944D01*
X123194485Y-115855944D01*
G37*
D15*
X122819980Y-116454740D03*
D10*
G36*
X123194485Y-117335944D02*
G01*
X123218753Y-117339544D01*
X123242552Y-117345505D01*
X123265651Y-117353770D01*
X123287830Y-117364260D01*
X123308873Y-117376872D01*
X123328579Y-117391487D01*
X123346757Y-117407963D01*
X123363233Y-117426141D01*
X123377848Y-117445847D01*
X123390460Y-117466890D01*
X123400950Y-117489069D01*
X123409215Y-117512168D01*
X123415176Y-117535967D01*
X123418776Y-117560235D01*
X123419980Y-117584739D01*
X123419980Y-118284741D01*
X123418776Y-118309245D01*
X123415176Y-118333513D01*
X123409215Y-118357312D01*
X123400950Y-118380411D01*
X123390460Y-118402590D01*
X123377848Y-118423633D01*
X123363233Y-118443339D01*
X123346757Y-118461517D01*
X123328579Y-118477993D01*
X123308873Y-118492608D01*
X123287830Y-118505220D01*
X123265651Y-118515710D01*
X123242552Y-118523975D01*
X123218753Y-118529936D01*
X123194485Y-118533536D01*
X123169981Y-118534740D01*
X122469979Y-118534740D01*
X122445475Y-118533536D01*
X122421207Y-118529936D01*
X122397408Y-118523975D01*
X122374309Y-118515710D01*
X122352130Y-118505220D01*
X122331087Y-118492608D01*
X122311381Y-118477993D01*
X122293203Y-118461517D01*
X122276727Y-118443339D01*
X122262112Y-118423633D01*
X122249500Y-118402590D01*
X122239010Y-118380411D01*
X122230745Y-118357312D01*
X122224784Y-118333513D01*
X122221184Y-118309245D01*
X122219980Y-118284741D01*
X122219980Y-117584739D01*
X122221184Y-117560235D01*
X122224784Y-117535967D01*
X122230745Y-117512168D01*
X122239010Y-117489069D01*
X122249500Y-117466890D01*
X122262112Y-117445847D01*
X122276727Y-117426141D01*
X122293203Y-117407963D01*
X122311381Y-117391487D01*
X122331087Y-117376872D01*
X122352130Y-117364260D01*
X122374309Y-117353770D01*
X122397408Y-117345505D01*
X122421207Y-117339544D01*
X122445475Y-117335944D01*
X122469979Y-117334740D01*
X123169981Y-117334740D01*
X123194485Y-117335944D01*
X123194485Y-117335944D01*
G37*
D15*
X122819980Y-117934740D03*
D10*
G36*
X123194485Y-118815944D02*
G01*
X123218753Y-118819544D01*
X123242552Y-118825505D01*
X123265651Y-118833770D01*
X123287830Y-118844260D01*
X123308873Y-118856872D01*
X123328579Y-118871487D01*
X123346757Y-118887963D01*
X123363233Y-118906141D01*
X123377848Y-118925847D01*
X123390460Y-118946890D01*
X123400950Y-118969069D01*
X123409215Y-118992168D01*
X123415176Y-119015967D01*
X123418776Y-119040235D01*
X123419980Y-119064739D01*
X123419980Y-119764741D01*
X123418776Y-119789245D01*
X123415176Y-119813513D01*
X123409215Y-119837312D01*
X123400950Y-119860411D01*
X123390460Y-119882590D01*
X123377848Y-119903633D01*
X123363233Y-119923339D01*
X123346757Y-119941517D01*
X123328579Y-119957993D01*
X123308873Y-119972608D01*
X123287830Y-119985220D01*
X123265651Y-119995710D01*
X123242552Y-120003975D01*
X123218753Y-120009936D01*
X123194485Y-120013536D01*
X123169981Y-120014740D01*
X122469979Y-120014740D01*
X122445475Y-120013536D01*
X122421207Y-120009936D01*
X122397408Y-120003975D01*
X122374309Y-119995710D01*
X122352130Y-119985220D01*
X122331087Y-119972608D01*
X122311381Y-119957993D01*
X122293203Y-119941517D01*
X122276727Y-119923339D01*
X122262112Y-119903633D01*
X122249500Y-119882590D01*
X122239010Y-119860411D01*
X122230745Y-119837312D01*
X122224784Y-119813513D01*
X122221184Y-119789245D01*
X122219980Y-119764741D01*
X122219980Y-119064739D01*
X122221184Y-119040235D01*
X122224784Y-119015967D01*
X122230745Y-118992168D01*
X122239010Y-118969069D01*
X122249500Y-118946890D01*
X122262112Y-118925847D01*
X122276727Y-118906141D01*
X122293203Y-118887963D01*
X122311381Y-118871487D01*
X122331087Y-118856872D01*
X122352130Y-118844260D01*
X122374309Y-118833770D01*
X122397408Y-118825505D01*
X122421207Y-118819544D01*
X122445475Y-118815944D01*
X122469979Y-118814740D01*
X123169981Y-118814740D01*
X123194485Y-118815944D01*
X123194485Y-118815944D01*
G37*
D15*
X122819980Y-119414740D03*
D10*
G36*
X124674485Y-115855944D02*
G01*
X124698753Y-115859544D01*
X124722552Y-115865505D01*
X124745651Y-115873770D01*
X124767830Y-115884260D01*
X124788873Y-115896872D01*
X124808579Y-115911487D01*
X124826757Y-115927963D01*
X124843233Y-115946141D01*
X124857848Y-115965847D01*
X124870460Y-115986890D01*
X124880950Y-116009069D01*
X124889215Y-116032168D01*
X124895176Y-116055967D01*
X124898776Y-116080235D01*
X124899980Y-116104739D01*
X124899980Y-116804741D01*
X124898776Y-116829245D01*
X124895176Y-116853513D01*
X124889215Y-116877312D01*
X124880950Y-116900411D01*
X124870460Y-116922590D01*
X124857848Y-116943633D01*
X124843233Y-116963339D01*
X124826757Y-116981517D01*
X124808579Y-116997993D01*
X124788873Y-117012608D01*
X124767830Y-117025220D01*
X124745651Y-117035710D01*
X124722552Y-117043975D01*
X124698753Y-117049936D01*
X124674485Y-117053536D01*
X124649981Y-117054740D01*
X123949979Y-117054740D01*
X123925475Y-117053536D01*
X123901207Y-117049936D01*
X123877408Y-117043975D01*
X123854309Y-117035710D01*
X123832130Y-117025220D01*
X123811087Y-117012608D01*
X123791381Y-116997993D01*
X123773203Y-116981517D01*
X123756727Y-116963339D01*
X123742112Y-116943633D01*
X123729500Y-116922590D01*
X123719010Y-116900411D01*
X123710745Y-116877312D01*
X123704784Y-116853513D01*
X123701184Y-116829245D01*
X123699980Y-116804741D01*
X123699980Y-116104739D01*
X123701184Y-116080235D01*
X123704784Y-116055967D01*
X123710745Y-116032168D01*
X123719010Y-116009069D01*
X123729500Y-115986890D01*
X123742112Y-115965847D01*
X123756727Y-115946141D01*
X123773203Y-115927963D01*
X123791381Y-115911487D01*
X123811087Y-115896872D01*
X123832130Y-115884260D01*
X123854309Y-115873770D01*
X123877408Y-115865505D01*
X123901207Y-115859544D01*
X123925475Y-115855944D01*
X123949979Y-115854740D01*
X124649981Y-115854740D01*
X124674485Y-115855944D01*
X124674485Y-115855944D01*
G37*
D15*
X124299980Y-116454740D03*
D10*
G36*
X124674485Y-117335944D02*
G01*
X124698753Y-117339544D01*
X124722552Y-117345505D01*
X124745651Y-117353770D01*
X124767830Y-117364260D01*
X124788873Y-117376872D01*
X124808579Y-117391487D01*
X124826757Y-117407963D01*
X124843233Y-117426141D01*
X124857848Y-117445847D01*
X124870460Y-117466890D01*
X124880950Y-117489069D01*
X124889215Y-117512168D01*
X124895176Y-117535967D01*
X124898776Y-117560235D01*
X124899980Y-117584739D01*
X124899980Y-118284741D01*
X124898776Y-118309245D01*
X124895176Y-118333513D01*
X124889215Y-118357312D01*
X124880950Y-118380411D01*
X124870460Y-118402590D01*
X124857848Y-118423633D01*
X124843233Y-118443339D01*
X124826757Y-118461517D01*
X124808579Y-118477993D01*
X124788873Y-118492608D01*
X124767830Y-118505220D01*
X124745651Y-118515710D01*
X124722552Y-118523975D01*
X124698753Y-118529936D01*
X124674485Y-118533536D01*
X124649981Y-118534740D01*
X123949979Y-118534740D01*
X123925475Y-118533536D01*
X123901207Y-118529936D01*
X123877408Y-118523975D01*
X123854309Y-118515710D01*
X123832130Y-118505220D01*
X123811087Y-118492608D01*
X123791381Y-118477993D01*
X123773203Y-118461517D01*
X123756727Y-118443339D01*
X123742112Y-118423633D01*
X123729500Y-118402590D01*
X123719010Y-118380411D01*
X123710745Y-118357312D01*
X123704784Y-118333513D01*
X123701184Y-118309245D01*
X123699980Y-118284741D01*
X123699980Y-117584739D01*
X123701184Y-117560235D01*
X123704784Y-117535967D01*
X123710745Y-117512168D01*
X123719010Y-117489069D01*
X123729500Y-117466890D01*
X123742112Y-117445847D01*
X123756727Y-117426141D01*
X123773203Y-117407963D01*
X123791381Y-117391487D01*
X123811087Y-117376872D01*
X123832130Y-117364260D01*
X123854309Y-117353770D01*
X123877408Y-117345505D01*
X123901207Y-117339544D01*
X123925475Y-117335944D01*
X123949979Y-117334740D01*
X124649981Y-117334740D01*
X124674485Y-117335944D01*
X124674485Y-117335944D01*
G37*
D15*
X124299980Y-117934740D03*
D10*
G36*
X124674485Y-118815944D02*
G01*
X124698753Y-118819544D01*
X124722552Y-118825505D01*
X124745651Y-118833770D01*
X124767830Y-118844260D01*
X124788873Y-118856872D01*
X124808579Y-118871487D01*
X124826757Y-118887963D01*
X124843233Y-118906141D01*
X124857848Y-118925847D01*
X124870460Y-118946890D01*
X124880950Y-118969069D01*
X124889215Y-118992168D01*
X124895176Y-119015967D01*
X124898776Y-119040235D01*
X124899980Y-119064739D01*
X124899980Y-119764741D01*
X124898776Y-119789245D01*
X124895176Y-119813513D01*
X124889215Y-119837312D01*
X124880950Y-119860411D01*
X124870460Y-119882590D01*
X124857848Y-119903633D01*
X124843233Y-119923339D01*
X124826757Y-119941517D01*
X124808579Y-119957993D01*
X124788873Y-119972608D01*
X124767830Y-119985220D01*
X124745651Y-119995710D01*
X124722552Y-120003975D01*
X124698753Y-120009936D01*
X124674485Y-120013536D01*
X124649981Y-120014740D01*
X123949979Y-120014740D01*
X123925475Y-120013536D01*
X123901207Y-120009936D01*
X123877408Y-120003975D01*
X123854309Y-119995710D01*
X123832130Y-119985220D01*
X123811087Y-119972608D01*
X123791381Y-119957993D01*
X123773203Y-119941517D01*
X123756727Y-119923339D01*
X123742112Y-119903633D01*
X123729500Y-119882590D01*
X123719010Y-119860411D01*
X123710745Y-119837312D01*
X123704784Y-119813513D01*
X123701184Y-119789245D01*
X123699980Y-119764741D01*
X123699980Y-119064739D01*
X123701184Y-119040235D01*
X123704784Y-119015967D01*
X123710745Y-118992168D01*
X123719010Y-118969069D01*
X123729500Y-118946890D01*
X123742112Y-118925847D01*
X123756727Y-118906141D01*
X123773203Y-118887963D01*
X123791381Y-118871487D01*
X123811087Y-118856872D01*
X123832130Y-118844260D01*
X123854309Y-118833770D01*
X123877408Y-118825505D01*
X123901207Y-118819544D01*
X123925475Y-118815944D01*
X123949979Y-118814740D01*
X124649981Y-118814740D01*
X124674485Y-118815944D01*
X124674485Y-118815944D01*
G37*
D15*
X124299980Y-119414740D03*
D10*
G36*
X126154485Y-115855944D02*
G01*
X126178753Y-115859544D01*
X126202552Y-115865505D01*
X126225651Y-115873770D01*
X126247830Y-115884260D01*
X126268873Y-115896872D01*
X126288579Y-115911487D01*
X126306757Y-115927963D01*
X126323233Y-115946141D01*
X126337848Y-115965847D01*
X126350460Y-115986890D01*
X126360950Y-116009069D01*
X126369215Y-116032168D01*
X126375176Y-116055967D01*
X126378776Y-116080235D01*
X126379980Y-116104739D01*
X126379980Y-116804741D01*
X126378776Y-116829245D01*
X126375176Y-116853513D01*
X126369215Y-116877312D01*
X126360950Y-116900411D01*
X126350460Y-116922590D01*
X126337848Y-116943633D01*
X126323233Y-116963339D01*
X126306757Y-116981517D01*
X126288579Y-116997993D01*
X126268873Y-117012608D01*
X126247830Y-117025220D01*
X126225651Y-117035710D01*
X126202552Y-117043975D01*
X126178753Y-117049936D01*
X126154485Y-117053536D01*
X126129981Y-117054740D01*
X125429979Y-117054740D01*
X125405475Y-117053536D01*
X125381207Y-117049936D01*
X125357408Y-117043975D01*
X125334309Y-117035710D01*
X125312130Y-117025220D01*
X125291087Y-117012608D01*
X125271381Y-116997993D01*
X125253203Y-116981517D01*
X125236727Y-116963339D01*
X125222112Y-116943633D01*
X125209500Y-116922590D01*
X125199010Y-116900411D01*
X125190745Y-116877312D01*
X125184784Y-116853513D01*
X125181184Y-116829245D01*
X125179980Y-116804741D01*
X125179980Y-116104739D01*
X125181184Y-116080235D01*
X125184784Y-116055967D01*
X125190745Y-116032168D01*
X125199010Y-116009069D01*
X125209500Y-115986890D01*
X125222112Y-115965847D01*
X125236727Y-115946141D01*
X125253203Y-115927963D01*
X125271381Y-115911487D01*
X125291087Y-115896872D01*
X125312130Y-115884260D01*
X125334309Y-115873770D01*
X125357408Y-115865505D01*
X125381207Y-115859544D01*
X125405475Y-115855944D01*
X125429979Y-115854740D01*
X126129981Y-115854740D01*
X126154485Y-115855944D01*
X126154485Y-115855944D01*
G37*
D15*
X125779980Y-116454740D03*
D10*
G36*
X126154485Y-117335944D02*
G01*
X126178753Y-117339544D01*
X126202552Y-117345505D01*
X126225651Y-117353770D01*
X126247830Y-117364260D01*
X126268873Y-117376872D01*
X126288579Y-117391487D01*
X126306757Y-117407963D01*
X126323233Y-117426141D01*
X126337848Y-117445847D01*
X126350460Y-117466890D01*
X126360950Y-117489069D01*
X126369215Y-117512168D01*
X126375176Y-117535967D01*
X126378776Y-117560235D01*
X126379980Y-117584739D01*
X126379980Y-118284741D01*
X126378776Y-118309245D01*
X126375176Y-118333513D01*
X126369215Y-118357312D01*
X126360950Y-118380411D01*
X126350460Y-118402590D01*
X126337848Y-118423633D01*
X126323233Y-118443339D01*
X126306757Y-118461517D01*
X126288579Y-118477993D01*
X126268873Y-118492608D01*
X126247830Y-118505220D01*
X126225651Y-118515710D01*
X126202552Y-118523975D01*
X126178753Y-118529936D01*
X126154485Y-118533536D01*
X126129981Y-118534740D01*
X125429979Y-118534740D01*
X125405475Y-118533536D01*
X125381207Y-118529936D01*
X125357408Y-118523975D01*
X125334309Y-118515710D01*
X125312130Y-118505220D01*
X125291087Y-118492608D01*
X125271381Y-118477993D01*
X125253203Y-118461517D01*
X125236727Y-118443339D01*
X125222112Y-118423633D01*
X125209500Y-118402590D01*
X125199010Y-118380411D01*
X125190745Y-118357312D01*
X125184784Y-118333513D01*
X125181184Y-118309245D01*
X125179980Y-118284741D01*
X125179980Y-117584739D01*
X125181184Y-117560235D01*
X125184784Y-117535967D01*
X125190745Y-117512168D01*
X125199010Y-117489069D01*
X125209500Y-117466890D01*
X125222112Y-117445847D01*
X125236727Y-117426141D01*
X125253203Y-117407963D01*
X125271381Y-117391487D01*
X125291087Y-117376872D01*
X125312130Y-117364260D01*
X125334309Y-117353770D01*
X125357408Y-117345505D01*
X125381207Y-117339544D01*
X125405475Y-117335944D01*
X125429979Y-117334740D01*
X126129981Y-117334740D01*
X126154485Y-117335944D01*
X126154485Y-117335944D01*
G37*
D15*
X125779980Y-117934740D03*
D10*
G36*
X126154485Y-118815944D02*
G01*
X126178753Y-118819544D01*
X126202552Y-118825505D01*
X126225651Y-118833770D01*
X126247830Y-118844260D01*
X126268873Y-118856872D01*
X126288579Y-118871487D01*
X126306757Y-118887963D01*
X126323233Y-118906141D01*
X126337848Y-118925847D01*
X126350460Y-118946890D01*
X126360950Y-118969069D01*
X126369215Y-118992168D01*
X126375176Y-119015967D01*
X126378776Y-119040235D01*
X126379980Y-119064739D01*
X126379980Y-119764741D01*
X126378776Y-119789245D01*
X126375176Y-119813513D01*
X126369215Y-119837312D01*
X126360950Y-119860411D01*
X126350460Y-119882590D01*
X126337848Y-119903633D01*
X126323233Y-119923339D01*
X126306757Y-119941517D01*
X126288579Y-119957993D01*
X126268873Y-119972608D01*
X126247830Y-119985220D01*
X126225651Y-119995710D01*
X126202552Y-120003975D01*
X126178753Y-120009936D01*
X126154485Y-120013536D01*
X126129981Y-120014740D01*
X125429979Y-120014740D01*
X125405475Y-120013536D01*
X125381207Y-120009936D01*
X125357408Y-120003975D01*
X125334309Y-119995710D01*
X125312130Y-119985220D01*
X125291087Y-119972608D01*
X125271381Y-119957993D01*
X125253203Y-119941517D01*
X125236727Y-119923339D01*
X125222112Y-119903633D01*
X125209500Y-119882590D01*
X125199010Y-119860411D01*
X125190745Y-119837312D01*
X125184784Y-119813513D01*
X125181184Y-119789245D01*
X125179980Y-119764741D01*
X125179980Y-119064739D01*
X125181184Y-119040235D01*
X125184784Y-119015967D01*
X125190745Y-118992168D01*
X125199010Y-118969069D01*
X125209500Y-118946890D01*
X125222112Y-118925847D01*
X125236727Y-118906141D01*
X125253203Y-118887963D01*
X125271381Y-118871487D01*
X125291087Y-118856872D01*
X125312130Y-118844260D01*
X125334309Y-118833770D01*
X125357408Y-118825505D01*
X125381207Y-118819544D01*
X125405475Y-118815944D01*
X125429979Y-118814740D01*
X126129981Y-118814740D01*
X126154485Y-118815944D01*
X126154485Y-118815944D01*
G37*
D15*
X125779980Y-119414740D03*
D10*
G36*
X121729881Y-115634981D02*
G01*
X121734735Y-115635701D01*
X121739494Y-115636893D01*
X121744114Y-115638546D01*
X121748550Y-115640644D01*
X121752759Y-115643167D01*
X121756700Y-115646089D01*
X121760335Y-115649385D01*
X121763631Y-115653020D01*
X121766553Y-115656961D01*
X121769076Y-115661170D01*
X121771174Y-115665606D01*
X121772827Y-115670226D01*
X121774019Y-115674985D01*
X121774739Y-115679839D01*
X121774980Y-115684740D01*
X121774980Y-115784740D01*
X121774739Y-115789641D01*
X121774019Y-115794495D01*
X121772827Y-115799254D01*
X121771174Y-115803874D01*
X121769076Y-115808310D01*
X121766553Y-115812519D01*
X121763631Y-115816460D01*
X121760335Y-115820095D01*
X121756700Y-115823391D01*
X121752759Y-115826313D01*
X121748550Y-115828836D01*
X121744114Y-115830934D01*
X121739494Y-115832587D01*
X121734735Y-115833779D01*
X121729881Y-115834499D01*
X121724980Y-115834740D01*
X120999980Y-115834740D01*
X120995079Y-115834499D01*
X120990225Y-115833779D01*
X120985466Y-115832587D01*
X120980846Y-115830934D01*
X120976410Y-115828836D01*
X120972201Y-115826313D01*
X120968260Y-115823391D01*
X120964625Y-115820095D01*
X120961329Y-115816460D01*
X120958407Y-115812519D01*
X120955884Y-115808310D01*
X120953786Y-115803874D01*
X120952133Y-115799254D01*
X120950941Y-115794495D01*
X120950221Y-115789641D01*
X120949980Y-115784740D01*
X120949980Y-115684740D01*
X120950221Y-115679839D01*
X120950941Y-115674985D01*
X120952133Y-115670226D01*
X120953786Y-115665606D01*
X120955884Y-115661170D01*
X120958407Y-115656961D01*
X120961329Y-115653020D01*
X120964625Y-115649385D01*
X120968260Y-115646089D01*
X120972201Y-115643167D01*
X120976410Y-115640644D01*
X120980846Y-115638546D01*
X120985466Y-115636893D01*
X120990225Y-115635701D01*
X120995079Y-115634981D01*
X120999980Y-115634740D01*
X121724980Y-115634740D01*
X121729881Y-115634981D01*
X121729881Y-115634981D01*
G37*
D16*
X121362480Y-115734740D03*
D10*
G36*
X121729881Y-116034981D02*
G01*
X121734735Y-116035701D01*
X121739494Y-116036893D01*
X121744114Y-116038546D01*
X121748550Y-116040644D01*
X121752759Y-116043167D01*
X121756700Y-116046089D01*
X121760335Y-116049385D01*
X121763631Y-116053020D01*
X121766553Y-116056961D01*
X121769076Y-116061170D01*
X121771174Y-116065606D01*
X121772827Y-116070226D01*
X121774019Y-116074985D01*
X121774739Y-116079839D01*
X121774980Y-116084740D01*
X121774980Y-116184740D01*
X121774739Y-116189641D01*
X121774019Y-116194495D01*
X121772827Y-116199254D01*
X121771174Y-116203874D01*
X121769076Y-116208310D01*
X121766553Y-116212519D01*
X121763631Y-116216460D01*
X121760335Y-116220095D01*
X121756700Y-116223391D01*
X121752759Y-116226313D01*
X121748550Y-116228836D01*
X121744114Y-116230934D01*
X121739494Y-116232587D01*
X121734735Y-116233779D01*
X121729881Y-116234499D01*
X121724980Y-116234740D01*
X120999980Y-116234740D01*
X120995079Y-116234499D01*
X120990225Y-116233779D01*
X120985466Y-116232587D01*
X120980846Y-116230934D01*
X120976410Y-116228836D01*
X120972201Y-116226313D01*
X120968260Y-116223391D01*
X120964625Y-116220095D01*
X120961329Y-116216460D01*
X120958407Y-116212519D01*
X120955884Y-116208310D01*
X120953786Y-116203874D01*
X120952133Y-116199254D01*
X120950941Y-116194495D01*
X120950221Y-116189641D01*
X120949980Y-116184740D01*
X120949980Y-116084740D01*
X120950221Y-116079839D01*
X120950941Y-116074985D01*
X120952133Y-116070226D01*
X120953786Y-116065606D01*
X120955884Y-116061170D01*
X120958407Y-116056961D01*
X120961329Y-116053020D01*
X120964625Y-116049385D01*
X120968260Y-116046089D01*
X120972201Y-116043167D01*
X120976410Y-116040644D01*
X120980846Y-116038546D01*
X120985466Y-116036893D01*
X120990225Y-116035701D01*
X120995079Y-116034981D01*
X120999980Y-116034740D01*
X121724980Y-116034740D01*
X121729881Y-116034981D01*
X121729881Y-116034981D01*
G37*
D16*
X121362480Y-116134740D03*
D10*
G36*
X121729881Y-116434981D02*
G01*
X121734735Y-116435701D01*
X121739494Y-116436893D01*
X121744114Y-116438546D01*
X121748550Y-116440644D01*
X121752759Y-116443167D01*
X121756700Y-116446089D01*
X121760335Y-116449385D01*
X121763631Y-116453020D01*
X121766553Y-116456961D01*
X121769076Y-116461170D01*
X121771174Y-116465606D01*
X121772827Y-116470226D01*
X121774019Y-116474985D01*
X121774739Y-116479839D01*
X121774980Y-116484740D01*
X121774980Y-116584740D01*
X121774739Y-116589641D01*
X121774019Y-116594495D01*
X121772827Y-116599254D01*
X121771174Y-116603874D01*
X121769076Y-116608310D01*
X121766553Y-116612519D01*
X121763631Y-116616460D01*
X121760335Y-116620095D01*
X121756700Y-116623391D01*
X121752759Y-116626313D01*
X121748550Y-116628836D01*
X121744114Y-116630934D01*
X121739494Y-116632587D01*
X121734735Y-116633779D01*
X121729881Y-116634499D01*
X121724980Y-116634740D01*
X120999980Y-116634740D01*
X120995079Y-116634499D01*
X120990225Y-116633779D01*
X120985466Y-116632587D01*
X120980846Y-116630934D01*
X120976410Y-116628836D01*
X120972201Y-116626313D01*
X120968260Y-116623391D01*
X120964625Y-116620095D01*
X120961329Y-116616460D01*
X120958407Y-116612519D01*
X120955884Y-116608310D01*
X120953786Y-116603874D01*
X120952133Y-116599254D01*
X120950941Y-116594495D01*
X120950221Y-116589641D01*
X120949980Y-116584740D01*
X120949980Y-116484740D01*
X120950221Y-116479839D01*
X120950941Y-116474985D01*
X120952133Y-116470226D01*
X120953786Y-116465606D01*
X120955884Y-116461170D01*
X120958407Y-116456961D01*
X120961329Y-116453020D01*
X120964625Y-116449385D01*
X120968260Y-116446089D01*
X120972201Y-116443167D01*
X120976410Y-116440644D01*
X120980846Y-116438546D01*
X120985466Y-116436893D01*
X120990225Y-116435701D01*
X120995079Y-116434981D01*
X120999980Y-116434740D01*
X121724980Y-116434740D01*
X121729881Y-116434981D01*
X121729881Y-116434981D01*
G37*
D16*
X121362480Y-116534740D03*
D10*
G36*
X121729881Y-116834981D02*
G01*
X121734735Y-116835701D01*
X121739494Y-116836893D01*
X121744114Y-116838546D01*
X121748550Y-116840644D01*
X121752759Y-116843167D01*
X121756700Y-116846089D01*
X121760335Y-116849385D01*
X121763631Y-116853020D01*
X121766553Y-116856961D01*
X121769076Y-116861170D01*
X121771174Y-116865606D01*
X121772827Y-116870226D01*
X121774019Y-116874985D01*
X121774739Y-116879839D01*
X121774980Y-116884740D01*
X121774980Y-116984740D01*
X121774739Y-116989641D01*
X121774019Y-116994495D01*
X121772827Y-116999254D01*
X121771174Y-117003874D01*
X121769076Y-117008310D01*
X121766553Y-117012519D01*
X121763631Y-117016460D01*
X121760335Y-117020095D01*
X121756700Y-117023391D01*
X121752759Y-117026313D01*
X121748550Y-117028836D01*
X121744114Y-117030934D01*
X121739494Y-117032587D01*
X121734735Y-117033779D01*
X121729881Y-117034499D01*
X121724980Y-117034740D01*
X120999980Y-117034740D01*
X120995079Y-117034499D01*
X120990225Y-117033779D01*
X120985466Y-117032587D01*
X120980846Y-117030934D01*
X120976410Y-117028836D01*
X120972201Y-117026313D01*
X120968260Y-117023391D01*
X120964625Y-117020095D01*
X120961329Y-117016460D01*
X120958407Y-117012519D01*
X120955884Y-117008310D01*
X120953786Y-117003874D01*
X120952133Y-116999254D01*
X120950941Y-116994495D01*
X120950221Y-116989641D01*
X120949980Y-116984740D01*
X120949980Y-116884740D01*
X120950221Y-116879839D01*
X120950941Y-116874985D01*
X120952133Y-116870226D01*
X120953786Y-116865606D01*
X120955884Y-116861170D01*
X120958407Y-116856961D01*
X120961329Y-116853020D01*
X120964625Y-116849385D01*
X120968260Y-116846089D01*
X120972201Y-116843167D01*
X120976410Y-116840644D01*
X120980846Y-116838546D01*
X120985466Y-116836893D01*
X120990225Y-116835701D01*
X120995079Y-116834981D01*
X120999980Y-116834740D01*
X121724980Y-116834740D01*
X121729881Y-116834981D01*
X121729881Y-116834981D01*
G37*
D16*
X121362480Y-116934740D03*
D10*
G36*
X121729881Y-117234981D02*
G01*
X121734735Y-117235701D01*
X121739494Y-117236893D01*
X121744114Y-117238546D01*
X121748550Y-117240644D01*
X121752759Y-117243167D01*
X121756700Y-117246089D01*
X121760335Y-117249385D01*
X121763631Y-117253020D01*
X121766553Y-117256961D01*
X121769076Y-117261170D01*
X121771174Y-117265606D01*
X121772827Y-117270226D01*
X121774019Y-117274985D01*
X121774739Y-117279839D01*
X121774980Y-117284740D01*
X121774980Y-117384740D01*
X121774739Y-117389641D01*
X121774019Y-117394495D01*
X121772827Y-117399254D01*
X121771174Y-117403874D01*
X121769076Y-117408310D01*
X121766553Y-117412519D01*
X121763631Y-117416460D01*
X121760335Y-117420095D01*
X121756700Y-117423391D01*
X121752759Y-117426313D01*
X121748550Y-117428836D01*
X121744114Y-117430934D01*
X121739494Y-117432587D01*
X121734735Y-117433779D01*
X121729881Y-117434499D01*
X121724980Y-117434740D01*
X120999980Y-117434740D01*
X120995079Y-117434499D01*
X120990225Y-117433779D01*
X120985466Y-117432587D01*
X120980846Y-117430934D01*
X120976410Y-117428836D01*
X120972201Y-117426313D01*
X120968260Y-117423391D01*
X120964625Y-117420095D01*
X120961329Y-117416460D01*
X120958407Y-117412519D01*
X120955884Y-117408310D01*
X120953786Y-117403874D01*
X120952133Y-117399254D01*
X120950941Y-117394495D01*
X120950221Y-117389641D01*
X120949980Y-117384740D01*
X120949980Y-117284740D01*
X120950221Y-117279839D01*
X120950941Y-117274985D01*
X120952133Y-117270226D01*
X120953786Y-117265606D01*
X120955884Y-117261170D01*
X120958407Y-117256961D01*
X120961329Y-117253020D01*
X120964625Y-117249385D01*
X120968260Y-117246089D01*
X120972201Y-117243167D01*
X120976410Y-117240644D01*
X120980846Y-117238546D01*
X120985466Y-117236893D01*
X120990225Y-117235701D01*
X120995079Y-117234981D01*
X120999980Y-117234740D01*
X121724980Y-117234740D01*
X121729881Y-117234981D01*
X121729881Y-117234981D01*
G37*
D16*
X121362480Y-117334740D03*
D10*
G36*
X121729881Y-117634981D02*
G01*
X121734735Y-117635701D01*
X121739494Y-117636893D01*
X121744114Y-117638546D01*
X121748550Y-117640644D01*
X121752759Y-117643167D01*
X121756700Y-117646089D01*
X121760335Y-117649385D01*
X121763631Y-117653020D01*
X121766553Y-117656961D01*
X121769076Y-117661170D01*
X121771174Y-117665606D01*
X121772827Y-117670226D01*
X121774019Y-117674985D01*
X121774739Y-117679839D01*
X121774980Y-117684740D01*
X121774980Y-117784740D01*
X121774739Y-117789641D01*
X121774019Y-117794495D01*
X121772827Y-117799254D01*
X121771174Y-117803874D01*
X121769076Y-117808310D01*
X121766553Y-117812519D01*
X121763631Y-117816460D01*
X121760335Y-117820095D01*
X121756700Y-117823391D01*
X121752759Y-117826313D01*
X121748550Y-117828836D01*
X121744114Y-117830934D01*
X121739494Y-117832587D01*
X121734735Y-117833779D01*
X121729881Y-117834499D01*
X121724980Y-117834740D01*
X120999980Y-117834740D01*
X120995079Y-117834499D01*
X120990225Y-117833779D01*
X120985466Y-117832587D01*
X120980846Y-117830934D01*
X120976410Y-117828836D01*
X120972201Y-117826313D01*
X120968260Y-117823391D01*
X120964625Y-117820095D01*
X120961329Y-117816460D01*
X120958407Y-117812519D01*
X120955884Y-117808310D01*
X120953786Y-117803874D01*
X120952133Y-117799254D01*
X120950941Y-117794495D01*
X120950221Y-117789641D01*
X120949980Y-117784740D01*
X120949980Y-117684740D01*
X120950221Y-117679839D01*
X120950941Y-117674985D01*
X120952133Y-117670226D01*
X120953786Y-117665606D01*
X120955884Y-117661170D01*
X120958407Y-117656961D01*
X120961329Y-117653020D01*
X120964625Y-117649385D01*
X120968260Y-117646089D01*
X120972201Y-117643167D01*
X120976410Y-117640644D01*
X120980846Y-117638546D01*
X120985466Y-117636893D01*
X120990225Y-117635701D01*
X120995079Y-117634981D01*
X120999980Y-117634740D01*
X121724980Y-117634740D01*
X121729881Y-117634981D01*
X121729881Y-117634981D01*
G37*
D16*
X121362480Y-117734740D03*
D10*
G36*
X121729881Y-118034981D02*
G01*
X121734735Y-118035701D01*
X121739494Y-118036893D01*
X121744114Y-118038546D01*
X121748550Y-118040644D01*
X121752759Y-118043167D01*
X121756700Y-118046089D01*
X121760335Y-118049385D01*
X121763631Y-118053020D01*
X121766553Y-118056961D01*
X121769076Y-118061170D01*
X121771174Y-118065606D01*
X121772827Y-118070226D01*
X121774019Y-118074985D01*
X121774739Y-118079839D01*
X121774980Y-118084740D01*
X121774980Y-118184740D01*
X121774739Y-118189641D01*
X121774019Y-118194495D01*
X121772827Y-118199254D01*
X121771174Y-118203874D01*
X121769076Y-118208310D01*
X121766553Y-118212519D01*
X121763631Y-118216460D01*
X121760335Y-118220095D01*
X121756700Y-118223391D01*
X121752759Y-118226313D01*
X121748550Y-118228836D01*
X121744114Y-118230934D01*
X121739494Y-118232587D01*
X121734735Y-118233779D01*
X121729881Y-118234499D01*
X121724980Y-118234740D01*
X120999980Y-118234740D01*
X120995079Y-118234499D01*
X120990225Y-118233779D01*
X120985466Y-118232587D01*
X120980846Y-118230934D01*
X120976410Y-118228836D01*
X120972201Y-118226313D01*
X120968260Y-118223391D01*
X120964625Y-118220095D01*
X120961329Y-118216460D01*
X120958407Y-118212519D01*
X120955884Y-118208310D01*
X120953786Y-118203874D01*
X120952133Y-118199254D01*
X120950941Y-118194495D01*
X120950221Y-118189641D01*
X120949980Y-118184740D01*
X120949980Y-118084740D01*
X120950221Y-118079839D01*
X120950941Y-118074985D01*
X120952133Y-118070226D01*
X120953786Y-118065606D01*
X120955884Y-118061170D01*
X120958407Y-118056961D01*
X120961329Y-118053020D01*
X120964625Y-118049385D01*
X120968260Y-118046089D01*
X120972201Y-118043167D01*
X120976410Y-118040644D01*
X120980846Y-118038546D01*
X120985466Y-118036893D01*
X120990225Y-118035701D01*
X120995079Y-118034981D01*
X120999980Y-118034740D01*
X121724980Y-118034740D01*
X121729881Y-118034981D01*
X121729881Y-118034981D01*
G37*
D16*
X121362480Y-118134740D03*
D10*
G36*
X121729881Y-118434981D02*
G01*
X121734735Y-118435701D01*
X121739494Y-118436893D01*
X121744114Y-118438546D01*
X121748550Y-118440644D01*
X121752759Y-118443167D01*
X121756700Y-118446089D01*
X121760335Y-118449385D01*
X121763631Y-118453020D01*
X121766553Y-118456961D01*
X121769076Y-118461170D01*
X121771174Y-118465606D01*
X121772827Y-118470226D01*
X121774019Y-118474985D01*
X121774739Y-118479839D01*
X121774980Y-118484740D01*
X121774980Y-118584740D01*
X121774739Y-118589641D01*
X121774019Y-118594495D01*
X121772827Y-118599254D01*
X121771174Y-118603874D01*
X121769076Y-118608310D01*
X121766553Y-118612519D01*
X121763631Y-118616460D01*
X121760335Y-118620095D01*
X121756700Y-118623391D01*
X121752759Y-118626313D01*
X121748550Y-118628836D01*
X121744114Y-118630934D01*
X121739494Y-118632587D01*
X121734735Y-118633779D01*
X121729881Y-118634499D01*
X121724980Y-118634740D01*
X120999980Y-118634740D01*
X120995079Y-118634499D01*
X120990225Y-118633779D01*
X120985466Y-118632587D01*
X120980846Y-118630934D01*
X120976410Y-118628836D01*
X120972201Y-118626313D01*
X120968260Y-118623391D01*
X120964625Y-118620095D01*
X120961329Y-118616460D01*
X120958407Y-118612519D01*
X120955884Y-118608310D01*
X120953786Y-118603874D01*
X120952133Y-118599254D01*
X120950941Y-118594495D01*
X120950221Y-118589641D01*
X120949980Y-118584740D01*
X120949980Y-118484740D01*
X120950221Y-118479839D01*
X120950941Y-118474985D01*
X120952133Y-118470226D01*
X120953786Y-118465606D01*
X120955884Y-118461170D01*
X120958407Y-118456961D01*
X120961329Y-118453020D01*
X120964625Y-118449385D01*
X120968260Y-118446089D01*
X120972201Y-118443167D01*
X120976410Y-118440644D01*
X120980846Y-118438546D01*
X120985466Y-118436893D01*
X120990225Y-118435701D01*
X120995079Y-118434981D01*
X120999980Y-118434740D01*
X121724980Y-118434740D01*
X121729881Y-118434981D01*
X121729881Y-118434981D01*
G37*
D16*
X121362480Y-118534740D03*
D10*
G36*
X121729881Y-118834981D02*
G01*
X121734735Y-118835701D01*
X121739494Y-118836893D01*
X121744114Y-118838546D01*
X121748550Y-118840644D01*
X121752759Y-118843167D01*
X121756700Y-118846089D01*
X121760335Y-118849385D01*
X121763631Y-118853020D01*
X121766553Y-118856961D01*
X121769076Y-118861170D01*
X121771174Y-118865606D01*
X121772827Y-118870226D01*
X121774019Y-118874985D01*
X121774739Y-118879839D01*
X121774980Y-118884740D01*
X121774980Y-118984740D01*
X121774739Y-118989641D01*
X121774019Y-118994495D01*
X121772827Y-118999254D01*
X121771174Y-119003874D01*
X121769076Y-119008310D01*
X121766553Y-119012519D01*
X121763631Y-119016460D01*
X121760335Y-119020095D01*
X121756700Y-119023391D01*
X121752759Y-119026313D01*
X121748550Y-119028836D01*
X121744114Y-119030934D01*
X121739494Y-119032587D01*
X121734735Y-119033779D01*
X121729881Y-119034499D01*
X121724980Y-119034740D01*
X120999980Y-119034740D01*
X120995079Y-119034499D01*
X120990225Y-119033779D01*
X120985466Y-119032587D01*
X120980846Y-119030934D01*
X120976410Y-119028836D01*
X120972201Y-119026313D01*
X120968260Y-119023391D01*
X120964625Y-119020095D01*
X120961329Y-119016460D01*
X120958407Y-119012519D01*
X120955884Y-119008310D01*
X120953786Y-119003874D01*
X120952133Y-118999254D01*
X120950941Y-118994495D01*
X120950221Y-118989641D01*
X120949980Y-118984740D01*
X120949980Y-118884740D01*
X120950221Y-118879839D01*
X120950941Y-118874985D01*
X120952133Y-118870226D01*
X120953786Y-118865606D01*
X120955884Y-118861170D01*
X120958407Y-118856961D01*
X120961329Y-118853020D01*
X120964625Y-118849385D01*
X120968260Y-118846089D01*
X120972201Y-118843167D01*
X120976410Y-118840644D01*
X120980846Y-118838546D01*
X120985466Y-118836893D01*
X120990225Y-118835701D01*
X120995079Y-118834981D01*
X120999980Y-118834740D01*
X121724980Y-118834740D01*
X121729881Y-118834981D01*
X121729881Y-118834981D01*
G37*
D16*
X121362480Y-118934740D03*
D10*
G36*
X121729881Y-119234981D02*
G01*
X121734735Y-119235701D01*
X121739494Y-119236893D01*
X121744114Y-119238546D01*
X121748550Y-119240644D01*
X121752759Y-119243167D01*
X121756700Y-119246089D01*
X121760335Y-119249385D01*
X121763631Y-119253020D01*
X121766553Y-119256961D01*
X121769076Y-119261170D01*
X121771174Y-119265606D01*
X121772827Y-119270226D01*
X121774019Y-119274985D01*
X121774739Y-119279839D01*
X121774980Y-119284740D01*
X121774980Y-119384740D01*
X121774739Y-119389641D01*
X121774019Y-119394495D01*
X121772827Y-119399254D01*
X121771174Y-119403874D01*
X121769076Y-119408310D01*
X121766553Y-119412519D01*
X121763631Y-119416460D01*
X121760335Y-119420095D01*
X121756700Y-119423391D01*
X121752759Y-119426313D01*
X121748550Y-119428836D01*
X121744114Y-119430934D01*
X121739494Y-119432587D01*
X121734735Y-119433779D01*
X121729881Y-119434499D01*
X121724980Y-119434740D01*
X120999980Y-119434740D01*
X120995079Y-119434499D01*
X120990225Y-119433779D01*
X120985466Y-119432587D01*
X120980846Y-119430934D01*
X120976410Y-119428836D01*
X120972201Y-119426313D01*
X120968260Y-119423391D01*
X120964625Y-119420095D01*
X120961329Y-119416460D01*
X120958407Y-119412519D01*
X120955884Y-119408310D01*
X120953786Y-119403874D01*
X120952133Y-119399254D01*
X120950941Y-119394495D01*
X120950221Y-119389641D01*
X120949980Y-119384740D01*
X120949980Y-119284740D01*
X120950221Y-119279839D01*
X120950941Y-119274985D01*
X120952133Y-119270226D01*
X120953786Y-119265606D01*
X120955884Y-119261170D01*
X120958407Y-119256961D01*
X120961329Y-119253020D01*
X120964625Y-119249385D01*
X120968260Y-119246089D01*
X120972201Y-119243167D01*
X120976410Y-119240644D01*
X120980846Y-119238546D01*
X120985466Y-119236893D01*
X120990225Y-119235701D01*
X120995079Y-119234981D01*
X120999980Y-119234740D01*
X121724980Y-119234740D01*
X121729881Y-119234981D01*
X121729881Y-119234981D01*
G37*
D16*
X121362480Y-119334740D03*
D10*
G36*
X121729881Y-119634981D02*
G01*
X121734735Y-119635701D01*
X121739494Y-119636893D01*
X121744114Y-119638546D01*
X121748550Y-119640644D01*
X121752759Y-119643167D01*
X121756700Y-119646089D01*
X121760335Y-119649385D01*
X121763631Y-119653020D01*
X121766553Y-119656961D01*
X121769076Y-119661170D01*
X121771174Y-119665606D01*
X121772827Y-119670226D01*
X121774019Y-119674985D01*
X121774739Y-119679839D01*
X121774980Y-119684740D01*
X121774980Y-119784740D01*
X121774739Y-119789641D01*
X121774019Y-119794495D01*
X121772827Y-119799254D01*
X121771174Y-119803874D01*
X121769076Y-119808310D01*
X121766553Y-119812519D01*
X121763631Y-119816460D01*
X121760335Y-119820095D01*
X121756700Y-119823391D01*
X121752759Y-119826313D01*
X121748550Y-119828836D01*
X121744114Y-119830934D01*
X121739494Y-119832587D01*
X121734735Y-119833779D01*
X121729881Y-119834499D01*
X121724980Y-119834740D01*
X120999980Y-119834740D01*
X120995079Y-119834499D01*
X120990225Y-119833779D01*
X120985466Y-119832587D01*
X120980846Y-119830934D01*
X120976410Y-119828836D01*
X120972201Y-119826313D01*
X120968260Y-119823391D01*
X120964625Y-119820095D01*
X120961329Y-119816460D01*
X120958407Y-119812519D01*
X120955884Y-119808310D01*
X120953786Y-119803874D01*
X120952133Y-119799254D01*
X120950941Y-119794495D01*
X120950221Y-119789641D01*
X120949980Y-119784740D01*
X120949980Y-119684740D01*
X120950221Y-119679839D01*
X120950941Y-119674985D01*
X120952133Y-119670226D01*
X120953786Y-119665606D01*
X120955884Y-119661170D01*
X120958407Y-119656961D01*
X120961329Y-119653020D01*
X120964625Y-119649385D01*
X120968260Y-119646089D01*
X120972201Y-119643167D01*
X120976410Y-119640644D01*
X120980846Y-119638546D01*
X120985466Y-119636893D01*
X120990225Y-119635701D01*
X120995079Y-119634981D01*
X120999980Y-119634740D01*
X121724980Y-119634740D01*
X121729881Y-119634981D01*
X121729881Y-119634981D01*
G37*
D16*
X121362480Y-119734740D03*
D10*
G36*
X121729881Y-120034981D02*
G01*
X121734735Y-120035701D01*
X121739494Y-120036893D01*
X121744114Y-120038546D01*
X121748550Y-120040644D01*
X121752759Y-120043167D01*
X121756700Y-120046089D01*
X121760335Y-120049385D01*
X121763631Y-120053020D01*
X121766553Y-120056961D01*
X121769076Y-120061170D01*
X121771174Y-120065606D01*
X121772827Y-120070226D01*
X121774019Y-120074985D01*
X121774739Y-120079839D01*
X121774980Y-120084740D01*
X121774980Y-120184740D01*
X121774739Y-120189641D01*
X121774019Y-120194495D01*
X121772827Y-120199254D01*
X121771174Y-120203874D01*
X121769076Y-120208310D01*
X121766553Y-120212519D01*
X121763631Y-120216460D01*
X121760335Y-120220095D01*
X121756700Y-120223391D01*
X121752759Y-120226313D01*
X121748550Y-120228836D01*
X121744114Y-120230934D01*
X121739494Y-120232587D01*
X121734735Y-120233779D01*
X121729881Y-120234499D01*
X121724980Y-120234740D01*
X120999980Y-120234740D01*
X120995079Y-120234499D01*
X120990225Y-120233779D01*
X120985466Y-120232587D01*
X120980846Y-120230934D01*
X120976410Y-120228836D01*
X120972201Y-120226313D01*
X120968260Y-120223391D01*
X120964625Y-120220095D01*
X120961329Y-120216460D01*
X120958407Y-120212519D01*
X120955884Y-120208310D01*
X120953786Y-120203874D01*
X120952133Y-120199254D01*
X120950941Y-120194495D01*
X120950221Y-120189641D01*
X120949980Y-120184740D01*
X120949980Y-120084740D01*
X120950221Y-120079839D01*
X120950941Y-120074985D01*
X120952133Y-120070226D01*
X120953786Y-120065606D01*
X120955884Y-120061170D01*
X120958407Y-120056961D01*
X120961329Y-120053020D01*
X120964625Y-120049385D01*
X120968260Y-120046089D01*
X120972201Y-120043167D01*
X120976410Y-120040644D01*
X120980846Y-120038546D01*
X120985466Y-120036893D01*
X120990225Y-120035701D01*
X120995079Y-120034981D01*
X120999980Y-120034740D01*
X121724980Y-120034740D01*
X121729881Y-120034981D01*
X121729881Y-120034981D01*
G37*
D16*
X121362480Y-120134740D03*
D10*
G36*
X122154881Y-120459981D02*
G01*
X122159735Y-120460701D01*
X122164494Y-120461893D01*
X122169114Y-120463546D01*
X122173550Y-120465644D01*
X122177759Y-120468167D01*
X122181700Y-120471089D01*
X122185335Y-120474385D01*
X122188631Y-120478020D01*
X122191553Y-120481961D01*
X122194076Y-120486170D01*
X122196174Y-120490606D01*
X122197827Y-120495226D01*
X122199019Y-120499985D01*
X122199739Y-120504839D01*
X122199980Y-120509740D01*
X122199980Y-121234740D01*
X122199739Y-121239641D01*
X122199019Y-121244495D01*
X122197827Y-121249254D01*
X122196174Y-121253874D01*
X122194076Y-121258310D01*
X122191553Y-121262519D01*
X122188631Y-121266460D01*
X122185335Y-121270095D01*
X122181700Y-121273391D01*
X122177759Y-121276313D01*
X122173550Y-121278836D01*
X122169114Y-121280934D01*
X122164494Y-121282587D01*
X122159735Y-121283779D01*
X122154881Y-121284499D01*
X122149980Y-121284740D01*
X122049980Y-121284740D01*
X122045079Y-121284499D01*
X122040225Y-121283779D01*
X122035466Y-121282587D01*
X122030846Y-121280934D01*
X122026410Y-121278836D01*
X122022201Y-121276313D01*
X122018260Y-121273391D01*
X122014625Y-121270095D01*
X122011329Y-121266460D01*
X122008407Y-121262519D01*
X122005884Y-121258310D01*
X122003786Y-121253874D01*
X122002133Y-121249254D01*
X122000941Y-121244495D01*
X122000221Y-121239641D01*
X121999980Y-121234740D01*
X121999980Y-120509740D01*
X122000221Y-120504839D01*
X122000941Y-120499985D01*
X122002133Y-120495226D01*
X122003786Y-120490606D01*
X122005884Y-120486170D01*
X122008407Y-120481961D01*
X122011329Y-120478020D01*
X122014625Y-120474385D01*
X122018260Y-120471089D01*
X122022201Y-120468167D01*
X122026410Y-120465644D01*
X122030846Y-120463546D01*
X122035466Y-120461893D01*
X122040225Y-120460701D01*
X122045079Y-120459981D01*
X122049980Y-120459740D01*
X122149980Y-120459740D01*
X122154881Y-120459981D01*
X122154881Y-120459981D01*
G37*
D16*
X122099980Y-120872240D03*
D10*
G36*
X122554881Y-120459981D02*
G01*
X122559735Y-120460701D01*
X122564494Y-120461893D01*
X122569114Y-120463546D01*
X122573550Y-120465644D01*
X122577759Y-120468167D01*
X122581700Y-120471089D01*
X122585335Y-120474385D01*
X122588631Y-120478020D01*
X122591553Y-120481961D01*
X122594076Y-120486170D01*
X122596174Y-120490606D01*
X122597827Y-120495226D01*
X122599019Y-120499985D01*
X122599739Y-120504839D01*
X122599980Y-120509740D01*
X122599980Y-121234740D01*
X122599739Y-121239641D01*
X122599019Y-121244495D01*
X122597827Y-121249254D01*
X122596174Y-121253874D01*
X122594076Y-121258310D01*
X122591553Y-121262519D01*
X122588631Y-121266460D01*
X122585335Y-121270095D01*
X122581700Y-121273391D01*
X122577759Y-121276313D01*
X122573550Y-121278836D01*
X122569114Y-121280934D01*
X122564494Y-121282587D01*
X122559735Y-121283779D01*
X122554881Y-121284499D01*
X122549980Y-121284740D01*
X122449980Y-121284740D01*
X122445079Y-121284499D01*
X122440225Y-121283779D01*
X122435466Y-121282587D01*
X122430846Y-121280934D01*
X122426410Y-121278836D01*
X122422201Y-121276313D01*
X122418260Y-121273391D01*
X122414625Y-121270095D01*
X122411329Y-121266460D01*
X122408407Y-121262519D01*
X122405884Y-121258310D01*
X122403786Y-121253874D01*
X122402133Y-121249254D01*
X122400941Y-121244495D01*
X122400221Y-121239641D01*
X122399980Y-121234740D01*
X122399980Y-120509740D01*
X122400221Y-120504839D01*
X122400941Y-120499985D01*
X122402133Y-120495226D01*
X122403786Y-120490606D01*
X122405884Y-120486170D01*
X122408407Y-120481961D01*
X122411329Y-120478020D01*
X122414625Y-120474385D01*
X122418260Y-120471089D01*
X122422201Y-120468167D01*
X122426410Y-120465644D01*
X122430846Y-120463546D01*
X122435466Y-120461893D01*
X122440225Y-120460701D01*
X122445079Y-120459981D01*
X122449980Y-120459740D01*
X122549980Y-120459740D01*
X122554881Y-120459981D01*
X122554881Y-120459981D01*
G37*
D16*
X122499980Y-120872240D03*
D10*
G36*
X122954881Y-120459981D02*
G01*
X122959735Y-120460701D01*
X122964494Y-120461893D01*
X122969114Y-120463546D01*
X122973550Y-120465644D01*
X122977759Y-120468167D01*
X122981700Y-120471089D01*
X122985335Y-120474385D01*
X122988631Y-120478020D01*
X122991553Y-120481961D01*
X122994076Y-120486170D01*
X122996174Y-120490606D01*
X122997827Y-120495226D01*
X122999019Y-120499985D01*
X122999739Y-120504839D01*
X122999980Y-120509740D01*
X122999980Y-121234740D01*
X122999739Y-121239641D01*
X122999019Y-121244495D01*
X122997827Y-121249254D01*
X122996174Y-121253874D01*
X122994076Y-121258310D01*
X122991553Y-121262519D01*
X122988631Y-121266460D01*
X122985335Y-121270095D01*
X122981700Y-121273391D01*
X122977759Y-121276313D01*
X122973550Y-121278836D01*
X122969114Y-121280934D01*
X122964494Y-121282587D01*
X122959735Y-121283779D01*
X122954881Y-121284499D01*
X122949980Y-121284740D01*
X122849980Y-121284740D01*
X122845079Y-121284499D01*
X122840225Y-121283779D01*
X122835466Y-121282587D01*
X122830846Y-121280934D01*
X122826410Y-121278836D01*
X122822201Y-121276313D01*
X122818260Y-121273391D01*
X122814625Y-121270095D01*
X122811329Y-121266460D01*
X122808407Y-121262519D01*
X122805884Y-121258310D01*
X122803786Y-121253874D01*
X122802133Y-121249254D01*
X122800941Y-121244495D01*
X122800221Y-121239641D01*
X122799980Y-121234740D01*
X122799980Y-120509740D01*
X122800221Y-120504839D01*
X122800941Y-120499985D01*
X122802133Y-120495226D01*
X122803786Y-120490606D01*
X122805884Y-120486170D01*
X122808407Y-120481961D01*
X122811329Y-120478020D01*
X122814625Y-120474385D01*
X122818260Y-120471089D01*
X122822201Y-120468167D01*
X122826410Y-120465644D01*
X122830846Y-120463546D01*
X122835466Y-120461893D01*
X122840225Y-120460701D01*
X122845079Y-120459981D01*
X122849980Y-120459740D01*
X122949980Y-120459740D01*
X122954881Y-120459981D01*
X122954881Y-120459981D01*
G37*
D16*
X122899980Y-120872240D03*
D10*
G36*
X123354881Y-120459981D02*
G01*
X123359735Y-120460701D01*
X123364494Y-120461893D01*
X123369114Y-120463546D01*
X123373550Y-120465644D01*
X123377759Y-120468167D01*
X123381700Y-120471089D01*
X123385335Y-120474385D01*
X123388631Y-120478020D01*
X123391553Y-120481961D01*
X123394076Y-120486170D01*
X123396174Y-120490606D01*
X123397827Y-120495226D01*
X123399019Y-120499985D01*
X123399739Y-120504839D01*
X123399980Y-120509740D01*
X123399980Y-121234740D01*
X123399739Y-121239641D01*
X123399019Y-121244495D01*
X123397827Y-121249254D01*
X123396174Y-121253874D01*
X123394076Y-121258310D01*
X123391553Y-121262519D01*
X123388631Y-121266460D01*
X123385335Y-121270095D01*
X123381700Y-121273391D01*
X123377759Y-121276313D01*
X123373550Y-121278836D01*
X123369114Y-121280934D01*
X123364494Y-121282587D01*
X123359735Y-121283779D01*
X123354881Y-121284499D01*
X123349980Y-121284740D01*
X123249980Y-121284740D01*
X123245079Y-121284499D01*
X123240225Y-121283779D01*
X123235466Y-121282587D01*
X123230846Y-121280934D01*
X123226410Y-121278836D01*
X123222201Y-121276313D01*
X123218260Y-121273391D01*
X123214625Y-121270095D01*
X123211329Y-121266460D01*
X123208407Y-121262519D01*
X123205884Y-121258310D01*
X123203786Y-121253874D01*
X123202133Y-121249254D01*
X123200941Y-121244495D01*
X123200221Y-121239641D01*
X123199980Y-121234740D01*
X123199980Y-120509740D01*
X123200221Y-120504839D01*
X123200941Y-120499985D01*
X123202133Y-120495226D01*
X123203786Y-120490606D01*
X123205884Y-120486170D01*
X123208407Y-120481961D01*
X123211329Y-120478020D01*
X123214625Y-120474385D01*
X123218260Y-120471089D01*
X123222201Y-120468167D01*
X123226410Y-120465644D01*
X123230846Y-120463546D01*
X123235466Y-120461893D01*
X123240225Y-120460701D01*
X123245079Y-120459981D01*
X123249980Y-120459740D01*
X123349980Y-120459740D01*
X123354881Y-120459981D01*
X123354881Y-120459981D01*
G37*
D16*
X123299980Y-120872240D03*
D10*
G36*
X123754881Y-120459981D02*
G01*
X123759735Y-120460701D01*
X123764494Y-120461893D01*
X123769114Y-120463546D01*
X123773550Y-120465644D01*
X123777759Y-120468167D01*
X123781700Y-120471089D01*
X123785335Y-120474385D01*
X123788631Y-120478020D01*
X123791553Y-120481961D01*
X123794076Y-120486170D01*
X123796174Y-120490606D01*
X123797827Y-120495226D01*
X123799019Y-120499985D01*
X123799739Y-120504839D01*
X123799980Y-120509740D01*
X123799980Y-121234740D01*
X123799739Y-121239641D01*
X123799019Y-121244495D01*
X123797827Y-121249254D01*
X123796174Y-121253874D01*
X123794076Y-121258310D01*
X123791553Y-121262519D01*
X123788631Y-121266460D01*
X123785335Y-121270095D01*
X123781700Y-121273391D01*
X123777759Y-121276313D01*
X123773550Y-121278836D01*
X123769114Y-121280934D01*
X123764494Y-121282587D01*
X123759735Y-121283779D01*
X123754881Y-121284499D01*
X123749980Y-121284740D01*
X123649980Y-121284740D01*
X123645079Y-121284499D01*
X123640225Y-121283779D01*
X123635466Y-121282587D01*
X123630846Y-121280934D01*
X123626410Y-121278836D01*
X123622201Y-121276313D01*
X123618260Y-121273391D01*
X123614625Y-121270095D01*
X123611329Y-121266460D01*
X123608407Y-121262519D01*
X123605884Y-121258310D01*
X123603786Y-121253874D01*
X123602133Y-121249254D01*
X123600941Y-121244495D01*
X123600221Y-121239641D01*
X123599980Y-121234740D01*
X123599980Y-120509740D01*
X123600221Y-120504839D01*
X123600941Y-120499985D01*
X123602133Y-120495226D01*
X123603786Y-120490606D01*
X123605884Y-120486170D01*
X123608407Y-120481961D01*
X123611329Y-120478020D01*
X123614625Y-120474385D01*
X123618260Y-120471089D01*
X123622201Y-120468167D01*
X123626410Y-120465644D01*
X123630846Y-120463546D01*
X123635466Y-120461893D01*
X123640225Y-120460701D01*
X123645079Y-120459981D01*
X123649980Y-120459740D01*
X123749980Y-120459740D01*
X123754881Y-120459981D01*
X123754881Y-120459981D01*
G37*
D16*
X123699980Y-120872240D03*
D10*
G36*
X124154881Y-120459981D02*
G01*
X124159735Y-120460701D01*
X124164494Y-120461893D01*
X124169114Y-120463546D01*
X124173550Y-120465644D01*
X124177759Y-120468167D01*
X124181700Y-120471089D01*
X124185335Y-120474385D01*
X124188631Y-120478020D01*
X124191553Y-120481961D01*
X124194076Y-120486170D01*
X124196174Y-120490606D01*
X124197827Y-120495226D01*
X124199019Y-120499985D01*
X124199739Y-120504839D01*
X124199980Y-120509740D01*
X124199980Y-121234740D01*
X124199739Y-121239641D01*
X124199019Y-121244495D01*
X124197827Y-121249254D01*
X124196174Y-121253874D01*
X124194076Y-121258310D01*
X124191553Y-121262519D01*
X124188631Y-121266460D01*
X124185335Y-121270095D01*
X124181700Y-121273391D01*
X124177759Y-121276313D01*
X124173550Y-121278836D01*
X124169114Y-121280934D01*
X124164494Y-121282587D01*
X124159735Y-121283779D01*
X124154881Y-121284499D01*
X124149980Y-121284740D01*
X124049980Y-121284740D01*
X124045079Y-121284499D01*
X124040225Y-121283779D01*
X124035466Y-121282587D01*
X124030846Y-121280934D01*
X124026410Y-121278836D01*
X124022201Y-121276313D01*
X124018260Y-121273391D01*
X124014625Y-121270095D01*
X124011329Y-121266460D01*
X124008407Y-121262519D01*
X124005884Y-121258310D01*
X124003786Y-121253874D01*
X124002133Y-121249254D01*
X124000941Y-121244495D01*
X124000221Y-121239641D01*
X123999980Y-121234740D01*
X123999980Y-120509740D01*
X124000221Y-120504839D01*
X124000941Y-120499985D01*
X124002133Y-120495226D01*
X124003786Y-120490606D01*
X124005884Y-120486170D01*
X124008407Y-120481961D01*
X124011329Y-120478020D01*
X124014625Y-120474385D01*
X124018260Y-120471089D01*
X124022201Y-120468167D01*
X124026410Y-120465644D01*
X124030846Y-120463546D01*
X124035466Y-120461893D01*
X124040225Y-120460701D01*
X124045079Y-120459981D01*
X124049980Y-120459740D01*
X124149980Y-120459740D01*
X124154881Y-120459981D01*
X124154881Y-120459981D01*
G37*
D16*
X124099980Y-120872240D03*
D10*
G36*
X124554881Y-120459981D02*
G01*
X124559735Y-120460701D01*
X124564494Y-120461893D01*
X124569114Y-120463546D01*
X124573550Y-120465644D01*
X124577759Y-120468167D01*
X124581700Y-120471089D01*
X124585335Y-120474385D01*
X124588631Y-120478020D01*
X124591553Y-120481961D01*
X124594076Y-120486170D01*
X124596174Y-120490606D01*
X124597827Y-120495226D01*
X124599019Y-120499985D01*
X124599739Y-120504839D01*
X124599980Y-120509740D01*
X124599980Y-121234740D01*
X124599739Y-121239641D01*
X124599019Y-121244495D01*
X124597827Y-121249254D01*
X124596174Y-121253874D01*
X124594076Y-121258310D01*
X124591553Y-121262519D01*
X124588631Y-121266460D01*
X124585335Y-121270095D01*
X124581700Y-121273391D01*
X124577759Y-121276313D01*
X124573550Y-121278836D01*
X124569114Y-121280934D01*
X124564494Y-121282587D01*
X124559735Y-121283779D01*
X124554881Y-121284499D01*
X124549980Y-121284740D01*
X124449980Y-121284740D01*
X124445079Y-121284499D01*
X124440225Y-121283779D01*
X124435466Y-121282587D01*
X124430846Y-121280934D01*
X124426410Y-121278836D01*
X124422201Y-121276313D01*
X124418260Y-121273391D01*
X124414625Y-121270095D01*
X124411329Y-121266460D01*
X124408407Y-121262519D01*
X124405884Y-121258310D01*
X124403786Y-121253874D01*
X124402133Y-121249254D01*
X124400941Y-121244495D01*
X124400221Y-121239641D01*
X124399980Y-121234740D01*
X124399980Y-120509740D01*
X124400221Y-120504839D01*
X124400941Y-120499985D01*
X124402133Y-120495226D01*
X124403786Y-120490606D01*
X124405884Y-120486170D01*
X124408407Y-120481961D01*
X124411329Y-120478020D01*
X124414625Y-120474385D01*
X124418260Y-120471089D01*
X124422201Y-120468167D01*
X124426410Y-120465644D01*
X124430846Y-120463546D01*
X124435466Y-120461893D01*
X124440225Y-120460701D01*
X124445079Y-120459981D01*
X124449980Y-120459740D01*
X124549980Y-120459740D01*
X124554881Y-120459981D01*
X124554881Y-120459981D01*
G37*
D16*
X124499980Y-120872240D03*
D10*
G36*
X124954881Y-120459981D02*
G01*
X124959735Y-120460701D01*
X124964494Y-120461893D01*
X124969114Y-120463546D01*
X124973550Y-120465644D01*
X124977759Y-120468167D01*
X124981700Y-120471089D01*
X124985335Y-120474385D01*
X124988631Y-120478020D01*
X124991553Y-120481961D01*
X124994076Y-120486170D01*
X124996174Y-120490606D01*
X124997827Y-120495226D01*
X124999019Y-120499985D01*
X124999739Y-120504839D01*
X124999980Y-120509740D01*
X124999980Y-121234740D01*
X124999739Y-121239641D01*
X124999019Y-121244495D01*
X124997827Y-121249254D01*
X124996174Y-121253874D01*
X124994076Y-121258310D01*
X124991553Y-121262519D01*
X124988631Y-121266460D01*
X124985335Y-121270095D01*
X124981700Y-121273391D01*
X124977759Y-121276313D01*
X124973550Y-121278836D01*
X124969114Y-121280934D01*
X124964494Y-121282587D01*
X124959735Y-121283779D01*
X124954881Y-121284499D01*
X124949980Y-121284740D01*
X124849980Y-121284740D01*
X124845079Y-121284499D01*
X124840225Y-121283779D01*
X124835466Y-121282587D01*
X124830846Y-121280934D01*
X124826410Y-121278836D01*
X124822201Y-121276313D01*
X124818260Y-121273391D01*
X124814625Y-121270095D01*
X124811329Y-121266460D01*
X124808407Y-121262519D01*
X124805884Y-121258310D01*
X124803786Y-121253874D01*
X124802133Y-121249254D01*
X124800941Y-121244495D01*
X124800221Y-121239641D01*
X124799980Y-121234740D01*
X124799980Y-120509740D01*
X124800221Y-120504839D01*
X124800941Y-120499985D01*
X124802133Y-120495226D01*
X124803786Y-120490606D01*
X124805884Y-120486170D01*
X124808407Y-120481961D01*
X124811329Y-120478020D01*
X124814625Y-120474385D01*
X124818260Y-120471089D01*
X124822201Y-120468167D01*
X124826410Y-120465644D01*
X124830846Y-120463546D01*
X124835466Y-120461893D01*
X124840225Y-120460701D01*
X124845079Y-120459981D01*
X124849980Y-120459740D01*
X124949980Y-120459740D01*
X124954881Y-120459981D01*
X124954881Y-120459981D01*
G37*
D16*
X124899980Y-120872240D03*
D10*
G36*
X125354881Y-120459981D02*
G01*
X125359735Y-120460701D01*
X125364494Y-120461893D01*
X125369114Y-120463546D01*
X125373550Y-120465644D01*
X125377759Y-120468167D01*
X125381700Y-120471089D01*
X125385335Y-120474385D01*
X125388631Y-120478020D01*
X125391553Y-120481961D01*
X125394076Y-120486170D01*
X125396174Y-120490606D01*
X125397827Y-120495226D01*
X125399019Y-120499985D01*
X125399739Y-120504839D01*
X125399980Y-120509740D01*
X125399980Y-121234740D01*
X125399739Y-121239641D01*
X125399019Y-121244495D01*
X125397827Y-121249254D01*
X125396174Y-121253874D01*
X125394076Y-121258310D01*
X125391553Y-121262519D01*
X125388631Y-121266460D01*
X125385335Y-121270095D01*
X125381700Y-121273391D01*
X125377759Y-121276313D01*
X125373550Y-121278836D01*
X125369114Y-121280934D01*
X125364494Y-121282587D01*
X125359735Y-121283779D01*
X125354881Y-121284499D01*
X125349980Y-121284740D01*
X125249980Y-121284740D01*
X125245079Y-121284499D01*
X125240225Y-121283779D01*
X125235466Y-121282587D01*
X125230846Y-121280934D01*
X125226410Y-121278836D01*
X125222201Y-121276313D01*
X125218260Y-121273391D01*
X125214625Y-121270095D01*
X125211329Y-121266460D01*
X125208407Y-121262519D01*
X125205884Y-121258310D01*
X125203786Y-121253874D01*
X125202133Y-121249254D01*
X125200941Y-121244495D01*
X125200221Y-121239641D01*
X125199980Y-121234740D01*
X125199980Y-120509740D01*
X125200221Y-120504839D01*
X125200941Y-120499985D01*
X125202133Y-120495226D01*
X125203786Y-120490606D01*
X125205884Y-120486170D01*
X125208407Y-120481961D01*
X125211329Y-120478020D01*
X125214625Y-120474385D01*
X125218260Y-120471089D01*
X125222201Y-120468167D01*
X125226410Y-120465644D01*
X125230846Y-120463546D01*
X125235466Y-120461893D01*
X125240225Y-120460701D01*
X125245079Y-120459981D01*
X125249980Y-120459740D01*
X125349980Y-120459740D01*
X125354881Y-120459981D01*
X125354881Y-120459981D01*
G37*
D16*
X125299980Y-120872240D03*
D10*
G36*
X125754881Y-120459981D02*
G01*
X125759735Y-120460701D01*
X125764494Y-120461893D01*
X125769114Y-120463546D01*
X125773550Y-120465644D01*
X125777759Y-120468167D01*
X125781700Y-120471089D01*
X125785335Y-120474385D01*
X125788631Y-120478020D01*
X125791553Y-120481961D01*
X125794076Y-120486170D01*
X125796174Y-120490606D01*
X125797827Y-120495226D01*
X125799019Y-120499985D01*
X125799739Y-120504839D01*
X125799980Y-120509740D01*
X125799980Y-121234740D01*
X125799739Y-121239641D01*
X125799019Y-121244495D01*
X125797827Y-121249254D01*
X125796174Y-121253874D01*
X125794076Y-121258310D01*
X125791553Y-121262519D01*
X125788631Y-121266460D01*
X125785335Y-121270095D01*
X125781700Y-121273391D01*
X125777759Y-121276313D01*
X125773550Y-121278836D01*
X125769114Y-121280934D01*
X125764494Y-121282587D01*
X125759735Y-121283779D01*
X125754881Y-121284499D01*
X125749980Y-121284740D01*
X125649980Y-121284740D01*
X125645079Y-121284499D01*
X125640225Y-121283779D01*
X125635466Y-121282587D01*
X125630846Y-121280934D01*
X125626410Y-121278836D01*
X125622201Y-121276313D01*
X125618260Y-121273391D01*
X125614625Y-121270095D01*
X125611329Y-121266460D01*
X125608407Y-121262519D01*
X125605884Y-121258310D01*
X125603786Y-121253874D01*
X125602133Y-121249254D01*
X125600941Y-121244495D01*
X125600221Y-121239641D01*
X125599980Y-121234740D01*
X125599980Y-120509740D01*
X125600221Y-120504839D01*
X125600941Y-120499985D01*
X125602133Y-120495226D01*
X125603786Y-120490606D01*
X125605884Y-120486170D01*
X125608407Y-120481961D01*
X125611329Y-120478020D01*
X125614625Y-120474385D01*
X125618260Y-120471089D01*
X125622201Y-120468167D01*
X125626410Y-120465644D01*
X125630846Y-120463546D01*
X125635466Y-120461893D01*
X125640225Y-120460701D01*
X125645079Y-120459981D01*
X125649980Y-120459740D01*
X125749980Y-120459740D01*
X125754881Y-120459981D01*
X125754881Y-120459981D01*
G37*
D16*
X125699980Y-120872240D03*
D10*
G36*
X126154881Y-120459981D02*
G01*
X126159735Y-120460701D01*
X126164494Y-120461893D01*
X126169114Y-120463546D01*
X126173550Y-120465644D01*
X126177759Y-120468167D01*
X126181700Y-120471089D01*
X126185335Y-120474385D01*
X126188631Y-120478020D01*
X126191553Y-120481961D01*
X126194076Y-120486170D01*
X126196174Y-120490606D01*
X126197827Y-120495226D01*
X126199019Y-120499985D01*
X126199739Y-120504839D01*
X126199980Y-120509740D01*
X126199980Y-121234740D01*
X126199739Y-121239641D01*
X126199019Y-121244495D01*
X126197827Y-121249254D01*
X126196174Y-121253874D01*
X126194076Y-121258310D01*
X126191553Y-121262519D01*
X126188631Y-121266460D01*
X126185335Y-121270095D01*
X126181700Y-121273391D01*
X126177759Y-121276313D01*
X126173550Y-121278836D01*
X126169114Y-121280934D01*
X126164494Y-121282587D01*
X126159735Y-121283779D01*
X126154881Y-121284499D01*
X126149980Y-121284740D01*
X126049980Y-121284740D01*
X126045079Y-121284499D01*
X126040225Y-121283779D01*
X126035466Y-121282587D01*
X126030846Y-121280934D01*
X126026410Y-121278836D01*
X126022201Y-121276313D01*
X126018260Y-121273391D01*
X126014625Y-121270095D01*
X126011329Y-121266460D01*
X126008407Y-121262519D01*
X126005884Y-121258310D01*
X126003786Y-121253874D01*
X126002133Y-121249254D01*
X126000941Y-121244495D01*
X126000221Y-121239641D01*
X125999980Y-121234740D01*
X125999980Y-120509740D01*
X126000221Y-120504839D01*
X126000941Y-120499985D01*
X126002133Y-120495226D01*
X126003786Y-120490606D01*
X126005884Y-120486170D01*
X126008407Y-120481961D01*
X126011329Y-120478020D01*
X126014625Y-120474385D01*
X126018260Y-120471089D01*
X126022201Y-120468167D01*
X126026410Y-120465644D01*
X126030846Y-120463546D01*
X126035466Y-120461893D01*
X126040225Y-120460701D01*
X126045079Y-120459981D01*
X126049980Y-120459740D01*
X126149980Y-120459740D01*
X126154881Y-120459981D01*
X126154881Y-120459981D01*
G37*
D16*
X126099980Y-120872240D03*
D10*
G36*
X126554881Y-120459981D02*
G01*
X126559735Y-120460701D01*
X126564494Y-120461893D01*
X126569114Y-120463546D01*
X126573550Y-120465644D01*
X126577759Y-120468167D01*
X126581700Y-120471089D01*
X126585335Y-120474385D01*
X126588631Y-120478020D01*
X126591553Y-120481961D01*
X126594076Y-120486170D01*
X126596174Y-120490606D01*
X126597827Y-120495226D01*
X126599019Y-120499985D01*
X126599739Y-120504839D01*
X126599980Y-120509740D01*
X126599980Y-121234740D01*
X126599739Y-121239641D01*
X126599019Y-121244495D01*
X126597827Y-121249254D01*
X126596174Y-121253874D01*
X126594076Y-121258310D01*
X126591553Y-121262519D01*
X126588631Y-121266460D01*
X126585335Y-121270095D01*
X126581700Y-121273391D01*
X126577759Y-121276313D01*
X126573550Y-121278836D01*
X126569114Y-121280934D01*
X126564494Y-121282587D01*
X126559735Y-121283779D01*
X126554881Y-121284499D01*
X126549980Y-121284740D01*
X126449980Y-121284740D01*
X126445079Y-121284499D01*
X126440225Y-121283779D01*
X126435466Y-121282587D01*
X126430846Y-121280934D01*
X126426410Y-121278836D01*
X126422201Y-121276313D01*
X126418260Y-121273391D01*
X126414625Y-121270095D01*
X126411329Y-121266460D01*
X126408407Y-121262519D01*
X126405884Y-121258310D01*
X126403786Y-121253874D01*
X126402133Y-121249254D01*
X126400941Y-121244495D01*
X126400221Y-121239641D01*
X126399980Y-121234740D01*
X126399980Y-120509740D01*
X126400221Y-120504839D01*
X126400941Y-120499985D01*
X126402133Y-120495226D01*
X126403786Y-120490606D01*
X126405884Y-120486170D01*
X126408407Y-120481961D01*
X126411329Y-120478020D01*
X126414625Y-120474385D01*
X126418260Y-120471089D01*
X126422201Y-120468167D01*
X126426410Y-120465644D01*
X126430846Y-120463546D01*
X126435466Y-120461893D01*
X126440225Y-120460701D01*
X126445079Y-120459981D01*
X126449980Y-120459740D01*
X126549980Y-120459740D01*
X126554881Y-120459981D01*
X126554881Y-120459981D01*
G37*
D16*
X126499980Y-120872240D03*
D10*
G36*
X127604881Y-120034981D02*
G01*
X127609735Y-120035701D01*
X127614494Y-120036893D01*
X127619114Y-120038546D01*
X127623550Y-120040644D01*
X127627759Y-120043167D01*
X127631700Y-120046089D01*
X127635335Y-120049385D01*
X127638631Y-120053020D01*
X127641553Y-120056961D01*
X127644076Y-120061170D01*
X127646174Y-120065606D01*
X127647827Y-120070226D01*
X127649019Y-120074985D01*
X127649739Y-120079839D01*
X127649980Y-120084740D01*
X127649980Y-120184740D01*
X127649739Y-120189641D01*
X127649019Y-120194495D01*
X127647827Y-120199254D01*
X127646174Y-120203874D01*
X127644076Y-120208310D01*
X127641553Y-120212519D01*
X127638631Y-120216460D01*
X127635335Y-120220095D01*
X127631700Y-120223391D01*
X127627759Y-120226313D01*
X127623550Y-120228836D01*
X127619114Y-120230934D01*
X127614494Y-120232587D01*
X127609735Y-120233779D01*
X127604881Y-120234499D01*
X127599980Y-120234740D01*
X126874980Y-120234740D01*
X126870079Y-120234499D01*
X126865225Y-120233779D01*
X126860466Y-120232587D01*
X126855846Y-120230934D01*
X126851410Y-120228836D01*
X126847201Y-120226313D01*
X126843260Y-120223391D01*
X126839625Y-120220095D01*
X126836329Y-120216460D01*
X126833407Y-120212519D01*
X126830884Y-120208310D01*
X126828786Y-120203874D01*
X126827133Y-120199254D01*
X126825941Y-120194495D01*
X126825221Y-120189641D01*
X126824980Y-120184740D01*
X126824980Y-120084740D01*
X126825221Y-120079839D01*
X126825941Y-120074985D01*
X126827133Y-120070226D01*
X126828786Y-120065606D01*
X126830884Y-120061170D01*
X126833407Y-120056961D01*
X126836329Y-120053020D01*
X126839625Y-120049385D01*
X126843260Y-120046089D01*
X126847201Y-120043167D01*
X126851410Y-120040644D01*
X126855846Y-120038546D01*
X126860466Y-120036893D01*
X126865225Y-120035701D01*
X126870079Y-120034981D01*
X126874980Y-120034740D01*
X127599980Y-120034740D01*
X127604881Y-120034981D01*
X127604881Y-120034981D01*
G37*
D16*
X127237480Y-120134740D03*
D10*
G36*
X127604881Y-119634981D02*
G01*
X127609735Y-119635701D01*
X127614494Y-119636893D01*
X127619114Y-119638546D01*
X127623550Y-119640644D01*
X127627759Y-119643167D01*
X127631700Y-119646089D01*
X127635335Y-119649385D01*
X127638631Y-119653020D01*
X127641553Y-119656961D01*
X127644076Y-119661170D01*
X127646174Y-119665606D01*
X127647827Y-119670226D01*
X127649019Y-119674985D01*
X127649739Y-119679839D01*
X127649980Y-119684740D01*
X127649980Y-119784740D01*
X127649739Y-119789641D01*
X127649019Y-119794495D01*
X127647827Y-119799254D01*
X127646174Y-119803874D01*
X127644076Y-119808310D01*
X127641553Y-119812519D01*
X127638631Y-119816460D01*
X127635335Y-119820095D01*
X127631700Y-119823391D01*
X127627759Y-119826313D01*
X127623550Y-119828836D01*
X127619114Y-119830934D01*
X127614494Y-119832587D01*
X127609735Y-119833779D01*
X127604881Y-119834499D01*
X127599980Y-119834740D01*
X126874980Y-119834740D01*
X126870079Y-119834499D01*
X126865225Y-119833779D01*
X126860466Y-119832587D01*
X126855846Y-119830934D01*
X126851410Y-119828836D01*
X126847201Y-119826313D01*
X126843260Y-119823391D01*
X126839625Y-119820095D01*
X126836329Y-119816460D01*
X126833407Y-119812519D01*
X126830884Y-119808310D01*
X126828786Y-119803874D01*
X126827133Y-119799254D01*
X126825941Y-119794495D01*
X126825221Y-119789641D01*
X126824980Y-119784740D01*
X126824980Y-119684740D01*
X126825221Y-119679839D01*
X126825941Y-119674985D01*
X126827133Y-119670226D01*
X126828786Y-119665606D01*
X126830884Y-119661170D01*
X126833407Y-119656961D01*
X126836329Y-119653020D01*
X126839625Y-119649385D01*
X126843260Y-119646089D01*
X126847201Y-119643167D01*
X126851410Y-119640644D01*
X126855846Y-119638546D01*
X126860466Y-119636893D01*
X126865225Y-119635701D01*
X126870079Y-119634981D01*
X126874980Y-119634740D01*
X127599980Y-119634740D01*
X127604881Y-119634981D01*
X127604881Y-119634981D01*
G37*
D16*
X127237480Y-119734740D03*
D10*
G36*
X127604881Y-119234981D02*
G01*
X127609735Y-119235701D01*
X127614494Y-119236893D01*
X127619114Y-119238546D01*
X127623550Y-119240644D01*
X127627759Y-119243167D01*
X127631700Y-119246089D01*
X127635335Y-119249385D01*
X127638631Y-119253020D01*
X127641553Y-119256961D01*
X127644076Y-119261170D01*
X127646174Y-119265606D01*
X127647827Y-119270226D01*
X127649019Y-119274985D01*
X127649739Y-119279839D01*
X127649980Y-119284740D01*
X127649980Y-119384740D01*
X127649739Y-119389641D01*
X127649019Y-119394495D01*
X127647827Y-119399254D01*
X127646174Y-119403874D01*
X127644076Y-119408310D01*
X127641553Y-119412519D01*
X127638631Y-119416460D01*
X127635335Y-119420095D01*
X127631700Y-119423391D01*
X127627759Y-119426313D01*
X127623550Y-119428836D01*
X127619114Y-119430934D01*
X127614494Y-119432587D01*
X127609735Y-119433779D01*
X127604881Y-119434499D01*
X127599980Y-119434740D01*
X126874980Y-119434740D01*
X126870079Y-119434499D01*
X126865225Y-119433779D01*
X126860466Y-119432587D01*
X126855846Y-119430934D01*
X126851410Y-119428836D01*
X126847201Y-119426313D01*
X126843260Y-119423391D01*
X126839625Y-119420095D01*
X126836329Y-119416460D01*
X126833407Y-119412519D01*
X126830884Y-119408310D01*
X126828786Y-119403874D01*
X126827133Y-119399254D01*
X126825941Y-119394495D01*
X126825221Y-119389641D01*
X126824980Y-119384740D01*
X126824980Y-119284740D01*
X126825221Y-119279839D01*
X126825941Y-119274985D01*
X126827133Y-119270226D01*
X126828786Y-119265606D01*
X126830884Y-119261170D01*
X126833407Y-119256961D01*
X126836329Y-119253020D01*
X126839625Y-119249385D01*
X126843260Y-119246089D01*
X126847201Y-119243167D01*
X126851410Y-119240644D01*
X126855846Y-119238546D01*
X126860466Y-119236893D01*
X126865225Y-119235701D01*
X126870079Y-119234981D01*
X126874980Y-119234740D01*
X127599980Y-119234740D01*
X127604881Y-119234981D01*
X127604881Y-119234981D01*
G37*
D16*
X127237480Y-119334740D03*
D10*
G36*
X127604881Y-118834981D02*
G01*
X127609735Y-118835701D01*
X127614494Y-118836893D01*
X127619114Y-118838546D01*
X127623550Y-118840644D01*
X127627759Y-118843167D01*
X127631700Y-118846089D01*
X127635335Y-118849385D01*
X127638631Y-118853020D01*
X127641553Y-118856961D01*
X127644076Y-118861170D01*
X127646174Y-118865606D01*
X127647827Y-118870226D01*
X127649019Y-118874985D01*
X127649739Y-118879839D01*
X127649980Y-118884740D01*
X127649980Y-118984740D01*
X127649739Y-118989641D01*
X127649019Y-118994495D01*
X127647827Y-118999254D01*
X127646174Y-119003874D01*
X127644076Y-119008310D01*
X127641553Y-119012519D01*
X127638631Y-119016460D01*
X127635335Y-119020095D01*
X127631700Y-119023391D01*
X127627759Y-119026313D01*
X127623550Y-119028836D01*
X127619114Y-119030934D01*
X127614494Y-119032587D01*
X127609735Y-119033779D01*
X127604881Y-119034499D01*
X127599980Y-119034740D01*
X126874980Y-119034740D01*
X126870079Y-119034499D01*
X126865225Y-119033779D01*
X126860466Y-119032587D01*
X126855846Y-119030934D01*
X126851410Y-119028836D01*
X126847201Y-119026313D01*
X126843260Y-119023391D01*
X126839625Y-119020095D01*
X126836329Y-119016460D01*
X126833407Y-119012519D01*
X126830884Y-119008310D01*
X126828786Y-119003874D01*
X126827133Y-118999254D01*
X126825941Y-118994495D01*
X126825221Y-118989641D01*
X126824980Y-118984740D01*
X126824980Y-118884740D01*
X126825221Y-118879839D01*
X126825941Y-118874985D01*
X126827133Y-118870226D01*
X126828786Y-118865606D01*
X126830884Y-118861170D01*
X126833407Y-118856961D01*
X126836329Y-118853020D01*
X126839625Y-118849385D01*
X126843260Y-118846089D01*
X126847201Y-118843167D01*
X126851410Y-118840644D01*
X126855846Y-118838546D01*
X126860466Y-118836893D01*
X126865225Y-118835701D01*
X126870079Y-118834981D01*
X126874980Y-118834740D01*
X127599980Y-118834740D01*
X127604881Y-118834981D01*
X127604881Y-118834981D01*
G37*
D16*
X127237480Y-118934740D03*
D10*
G36*
X127604881Y-118434981D02*
G01*
X127609735Y-118435701D01*
X127614494Y-118436893D01*
X127619114Y-118438546D01*
X127623550Y-118440644D01*
X127627759Y-118443167D01*
X127631700Y-118446089D01*
X127635335Y-118449385D01*
X127638631Y-118453020D01*
X127641553Y-118456961D01*
X127644076Y-118461170D01*
X127646174Y-118465606D01*
X127647827Y-118470226D01*
X127649019Y-118474985D01*
X127649739Y-118479839D01*
X127649980Y-118484740D01*
X127649980Y-118584740D01*
X127649739Y-118589641D01*
X127649019Y-118594495D01*
X127647827Y-118599254D01*
X127646174Y-118603874D01*
X127644076Y-118608310D01*
X127641553Y-118612519D01*
X127638631Y-118616460D01*
X127635335Y-118620095D01*
X127631700Y-118623391D01*
X127627759Y-118626313D01*
X127623550Y-118628836D01*
X127619114Y-118630934D01*
X127614494Y-118632587D01*
X127609735Y-118633779D01*
X127604881Y-118634499D01*
X127599980Y-118634740D01*
X126874980Y-118634740D01*
X126870079Y-118634499D01*
X126865225Y-118633779D01*
X126860466Y-118632587D01*
X126855846Y-118630934D01*
X126851410Y-118628836D01*
X126847201Y-118626313D01*
X126843260Y-118623391D01*
X126839625Y-118620095D01*
X126836329Y-118616460D01*
X126833407Y-118612519D01*
X126830884Y-118608310D01*
X126828786Y-118603874D01*
X126827133Y-118599254D01*
X126825941Y-118594495D01*
X126825221Y-118589641D01*
X126824980Y-118584740D01*
X126824980Y-118484740D01*
X126825221Y-118479839D01*
X126825941Y-118474985D01*
X126827133Y-118470226D01*
X126828786Y-118465606D01*
X126830884Y-118461170D01*
X126833407Y-118456961D01*
X126836329Y-118453020D01*
X126839625Y-118449385D01*
X126843260Y-118446089D01*
X126847201Y-118443167D01*
X126851410Y-118440644D01*
X126855846Y-118438546D01*
X126860466Y-118436893D01*
X126865225Y-118435701D01*
X126870079Y-118434981D01*
X126874980Y-118434740D01*
X127599980Y-118434740D01*
X127604881Y-118434981D01*
X127604881Y-118434981D01*
G37*
D16*
X127237480Y-118534740D03*
D10*
G36*
X127604881Y-118034981D02*
G01*
X127609735Y-118035701D01*
X127614494Y-118036893D01*
X127619114Y-118038546D01*
X127623550Y-118040644D01*
X127627759Y-118043167D01*
X127631700Y-118046089D01*
X127635335Y-118049385D01*
X127638631Y-118053020D01*
X127641553Y-118056961D01*
X127644076Y-118061170D01*
X127646174Y-118065606D01*
X127647827Y-118070226D01*
X127649019Y-118074985D01*
X127649739Y-118079839D01*
X127649980Y-118084740D01*
X127649980Y-118184740D01*
X127649739Y-118189641D01*
X127649019Y-118194495D01*
X127647827Y-118199254D01*
X127646174Y-118203874D01*
X127644076Y-118208310D01*
X127641553Y-118212519D01*
X127638631Y-118216460D01*
X127635335Y-118220095D01*
X127631700Y-118223391D01*
X127627759Y-118226313D01*
X127623550Y-118228836D01*
X127619114Y-118230934D01*
X127614494Y-118232587D01*
X127609735Y-118233779D01*
X127604881Y-118234499D01*
X127599980Y-118234740D01*
X126874980Y-118234740D01*
X126870079Y-118234499D01*
X126865225Y-118233779D01*
X126860466Y-118232587D01*
X126855846Y-118230934D01*
X126851410Y-118228836D01*
X126847201Y-118226313D01*
X126843260Y-118223391D01*
X126839625Y-118220095D01*
X126836329Y-118216460D01*
X126833407Y-118212519D01*
X126830884Y-118208310D01*
X126828786Y-118203874D01*
X126827133Y-118199254D01*
X126825941Y-118194495D01*
X126825221Y-118189641D01*
X126824980Y-118184740D01*
X126824980Y-118084740D01*
X126825221Y-118079839D01*
X126825941Y-118074985D01*
X126827133Y-118070226D01*
X126828786Y-118065606D01*
X126830884Y-118061170D01*
X126833407Y-118056961D01*
X126836329Y-118053020D01*
X126839625Y-118049385D01*
X126843260Y-118046089D01*
X126847201Y-118043167D01*
X126851410Y-118040644D01*
X126855846Y-118038546D01*
X126860466Y-118036893D01*
X126865225Y-118035701D01*
X126870079Y-118034981D01*
X126874980Y-118034740D01*
X127599980Y-118034740D01*
X127604881Y-118034981D01*
X127604881Y-118034981D01*
G37*
D16*
X127237480Y-118134740D03*
D10*
G36*
X127604881Y-117634981D02*
G01*
X127609735Y-117635701D01*
X127614494Y-117636893D01*
X127619114Y-117638546D01*
X127623550Y-117640644D01*
X127627759Y-117643167D01*
X127631700Y-117646089D01*
X127635335Y-117649385D01*
X127638631Y-117653020D01*
X127641553Y-117656961D01*
X127644076Y-117661170D01*
X127646174Y-117665606D01*
X127647827Y-117670226D01*
X127649019Y-117674985D01*
X127649739Y-117679839D01*
X127649980Y-117684740D01*
X127649980Y-117784740D01*
X127649739Y-117789641D01*
X127649019Y-117794495D01*
X127647827Y-117799254D01*
X127646174Y-117803874D01*
X127644076Y-117808310D01*
X127641553Y-117812519D01*
X127638631Y-117816460D01*
X127635335Y-117820095D01*
X127631700Y-117823391D01*
X127627759Y-117826313D01*
X127623550Y-117828836D01*
X127619114Y-117830934D01*
X127614494Y-117832587D01*
X127609735Y-117833779D01*
X127604881Y-117834499D01*
X127599980Y-117834740D01*
X126874980Y-117834740D01*
X126870079Y-117834499D01*
X126865225Y-117833779D01*
X126860466Y-117832587D01*
X126855846Y-117830934D01*
X126851410Y-117828836D01*
X126847201Y-117826313D01*
X126843260Y-117823391D01*
X126839625Y-117820095D01*
X126836329Y-117816460D01*
X126833407Y-117812519D01*
X126830884Y-117808310D01*
X126828786Y-117803874D01*
X126827133Y-117799254D01*
X126825941Y-117794495D01*
X126825221Y-117789641D01*
X126824980Y-117784740D01*
X126824980Y-117684740D01*
X126825221Y-117679839D01*
X126825941Y-117674985D01*
X126827133Y-117670226D01*
X126828786Y-117665606D01*
X126830884Y-117661170D01*
X126833407Y-117656961D01*
X126836329Y-117653020D01*
X126839625Y-117649385D01*
X126843260Y-117646089D01*
X126847201Y-117643167D01*
X126851410Y-117640644D01*
X126855846Y-117638546D01*
X126860466Y-117636893D01*
X126865225Y-117635701D01*
X126870079Y-117634981D01*
X126874980Y-117634740D01*
X127599980Y-117634740D01*
X127604881Y-117634981D01*
X127604881Y-117634981D01*
G37*
D16*
X127237480Y-117734740D03*
D10*
G36*
X127604881Y-117234981D02*
G01*
X127609735Y-117235701D01*
X127614494Y-117236893D01*
X127619114Y-117238546D01*
X127623550Y-117240644D01*
X127627759Y-117243167D01*
X127631700Y-117246089D01*
X127635335Y-117249385D01*
X127638631Y-117253020D01*
X127641553Y-117256961D01*
X127644076Y-117261170D01*
X127646174Y-117265606D01*
X127647827Y-117270226D01*
X127649019Y-117274985D01*
X127649739Y-117279839D01*
X127649980Y-117284740D01*
X127649980Y-117384740D01*
X127649739Y-117389641D01*
X127649019Y-117394495D01*
X127647827Y-117399254D01*
X127646174Y-117403874D01*
X127644076Y-117408310D01*
X127641553Y-117412519D01*
X127638631Y-117416460D01*
X127635335Y-117420095D01*
X127631700Y-117423391D01*
X127627759Y-117426313D01*
X127623550Y-117428836D01*
X127619114Y-117430934D01*
X127614494Y-117432587D01*
X127609735Y-117433779D01*
X127604881Y-117434499D01*
X127599980Y-117434740D01*
X126874980Y-117434740D01*
X126870079Y-117434499D01*
X126865225Y-117433779D01*
X126860466Y-117432587D01*
X126855846Y-117430934D01*
X126851410Y-117428836D01*
X126847201Y-117426313D01*
X126843260Y-117423391D01*
X126839625Y-117420095D01*
X126836329Y-117416460D01*
X126833407Y-117412519D01*
X126830884Y-117408310D01*
X126828786Y-117403874D01*
X126827133Y-117399254D01*
X126825941Y-117394495D01*
X126825221Y-117389641D01*
X126824980Y-117384740D01*
X126824980Y-117284740D01*
X126825221Y-117279839D01*
X126825941Y-117274985D01*
X126827133Y-117270226D01*
X126828786Y-117265606D01*
X126830884Y-117261170D01*
X126833407Y-117256961D01*
X126836329Y-117253020D01*
X126839625Y-117249385D01*
X126843260Y-117246089D01*
X126847201Y-117243167D01*
X126851410Y-117240644D01*
X126855846Y-117238546D01*
X126860466Y-117236893D01*
X126865225Y-117235701D01*
X126870079Y-117234981D01*
X126874980Y-117234740D01*
X127599980Y-117234740D01*
X127604881Y-117234981D01*
X127604881Y-117234981D01*
G37*
D16*
X127237480Y-117334740D03*
D10*
G36*
X127604881Y-116834981D02*
G01*
X127609735Y-116835701D01*
X127614494Y-116836893D01*
X127619114Y-116838546D01*
X127623550Y-116840644D01*
X127627759Y-116843167D01*
X127631700Y-116846089D01*
X127635335Y-116849385D01*
X127638631Y-116853020D01*
X127641553Y-116856961D01*
X127644076Y-116861170D01*
X127646174Y-116865606D01*
X127647827Y-116870226D01*
X127649019Y-116874985D01*
X127649739Y-116879839D01*
X127649980Y-116884740D01*
X127649980Y-116984740D01*
X127649739Y-116989641D01*
X127649019Y-116994495D01*
X127647827Y-116999254D01*
X127646174Y-117003874D01*
X127644076Y-117008310D01*
X127641553Y-117012519D01*
X127638631Y-117016460D01*
X127635335Y-117020095D01*
X127631700Y-117023391D01*
X127627759Y-117026313D01*
X127623550Y-117028836D01*
X127619114Y-117030934D01*
X127614494Y-117032587D01*
X127609735Y-117033779D01*
X127604881Y-117034499D01*
X127599980Y-117034740D01*
X126874980Y-117034740D01*
X126870079Y-117034499D01*
X126865225Y-117033779D01*
X126860466Y-117032587D01*
X126855846Y-117030934D01*
X126851410Y-117028836D01*
X126847201Y-117026313D01*
X126843260Y-117023391D01*
X126839625Y-117020095D01*
X126836329Y-117016460D01*
X126833407Y-117012519D01*
X126830884Y-117008310D01*
X126828786Y-117003874D01*
X126827133Y-116999254D01*
X126825941Y-116994495D01*
X126825221Y-116989641D01*
X126824980Y-116984740D01*
X126824980Y-116884740D01*
X126825221Y-116879839D01*
X126825941Y-116874985D01*
X126827133Y-116870226D01*
X126828786Y-116865606D01*
X126830884Y-116861170D01*
X126833407Y-116856961D01*
X126836329Y-116853020D01*
X126839625Y-116849385D01*
X126843260Y-116846089D01*
X126847201Y-116843167D01*
X126851410Y-116840644D01*
X126855846Y-116838546D01*
X126860466Y-116836893D01*
X126865225Y-116835701D01*
X126870079Y-116834981D01*
X126874980Y-116834740D01*
X127599980Y-116834740D01*
X127604881Y-116834981D01*
X127604881Y-116834981D01*
G37*
D16*
X127237480Y-116934740D03*
D10*
G36*
X127604881Y-116434981D02*
G01*
X127609735Y-116435701D01*
X127614494Y-116436893D01*
X127619114Y-116438546D01*
X127623550Y-116440644D01*
X127627759Y-116443167D01*
X127631700Y-116446089D01*
X127635335Y-116449385D01*
X127638631Y-116453020D01*
X127641553Y-116456961D01*
X127644076Y-116461170D01*
X127646174Y-116465606D01*
X127647827Y-116470226D01*
X127649019Y-116474985D01*
X127649739Y-116479839D01*
X127649980Y-116484740D01*
X127649980Y-116584740D01*
X127649739Y-116589641D01*
X127649019Y-116594495D01*
X127647827Y-116599254D01*
X127646174Y-116603874D01*
X127644076Y-116608310D01*
X127641553Y-116612519D01*
X127638631Y-116616460D01*
X127635335Y-116620095D01*
X127631700Y-116623391D01*
X127627759Y-116626313D01*
X127623550Y-116628836D01*
X127619114Y-116630934D01*
X127614494Y-116632587D01*
X127609735Y-116633779D01*
X127604881Y-116634499D01*
X127599980Y-116634740D01*
X126874980Y-116634740D01*
X126870079Y-116634499D01*
X126865225Y-116633779D01*
X126860466Y-116632587D01*
X126855846Y-116630934D01*
X126851410Y-116628836D01*
X126847201Y-116626313D01*
X126843260Y-116623391D01*
X126839625Y-116620095D01*
X126836329Y-116616460D01*
X126833407Y-116612519D01*
X126830884Y-116608310D01*
X126828786Y-116603874D01*
X126827133Y-116599254D01*
X126825941Y-116594495D01*
X126825221Y-116589641D01*
X126824980Y-116584740D01*
X126824980Y-116484740D01*
X126825221Y-116479839D01*
X126825941Y-116474985D01*
X126827133Y-116470226D01*
X126828786Y-116465606D01*
X126830884Y-116461170D01*
X126833407Y-116456961D01*
X126836329Y-116453020D01*
X126839625Y-116449385D01*
X126843260Y-116446089D01*
X126847201Y-116443167D01*
X126851410Y-116440644D01*
X126855846Y-116438546D01*
X126860466Y-116436893D01*
X126865225Y-116435701D01*
X126870079Y-116434981D01*
X126874980Y-116434740D01*
X127599980Y-116434740D01*
X127604881Y-116434981D01*
X127604881Y-116434981D01*
G37*
D16*
X127237480Y-116534740D03*
D10*
G36*
X127604881Y-116034981D02*
G01*
X127609735Y-116035701D01*
X127614494Y-116036893D01*
X127619114Y-116038546D01*
X127623550Y-116040644D01*
X127627759Y-116043167D01*
X127631700Y-116046089D01*
X127635335Y-116049385D01*
X127638631Y-116053020D01*
X127641553Y-116056961D01*
X127644076Y-116061170D01*
X127646174Y-116065606D01*
X127647827Y-116070226D01*
X127649019Y-116074985D01*
X127649739Y-116079839D01*
X127649980Y-116084740D01*
X127649980Y-116184740D01*
X127649739Y-116189641D01*
X127649019Y-116194495D01*
X127647827Y-116199254D01*
X127646174Y-116203874D01*
X127644076Y-116208310D01*
X127641553Y-116212519D01*
X127638631Y-116216460D01*
X127635335Y-116220095D01*
X127631700Y-116223391D01*
X127627759Y-116226313D01*
X127623550Y-116228836D01*
X127619114Y-116230934D01*
X127614494Y-116232587D01*
X127609735Y-116233779D01*
X127604881Y-116234499D01*
X127599980Y-116234740D01*
X126874980Y-116234740D01*
X126870079Y-116234499D01*
X126865225Y-116233779D01*
X126860466Y-116232587D01*
X126855846Y-116230934D01*
X126851410Y-116228836D01*
X126847201Y-116226313D01*
X126843260Y-116223391D01*
X126839625Y-116220095D01*
X126836329Y-116216460D01*
X126833407Y-116212519D01*
X126830884Y-116208310D01*
X126828786Y-116203874D01*
X126827133Y-116199254D01*
X126825941Y-116194495D01*
X126825221Y-116189641D01*
X126824980Y-116184740D01*
X126824980Y-116084740D01*
X126825221Y-116079839D01*
X126825941Y-116074985D01*
X126827133Y-116070226D01*
X126828786Y-116065606D01*
X126830884Y-116061170D01*
X126833407Y-116056961D01*
X126836329Y-116053020D01*
X126839625Y-116049385D01*
X126843260Y-116046089D01*
X126847201Y-116043167D01*
X126851410Y-116040644D01*
X126855846Y-116038546D01*
X126860466Y-116036893D01*
X126865225Y-116035701D01*
X126870079Y-116034981D01*
X126874980Y-116034740D01*
X127599980Y-116034740D01*
X127604881Y-116034981D01*
X127604881Y-116034981D01*
G37*
D16*
X127237480Y-116134740D03*
D10*
G36*
X127604881Y-115634981D02*
G01*
X127609735Y-115635701D01*
X127614494Y-115636893D01*
X127619114Y-115638546D01*
X127623550Y-115640644D01*
X127627759Y-115643167D01*
X127631700Y-115646089D01*
X127635335Y-115649385D01*
X127638631Y-115653020D01*
X127641553Y-115656961D01*
X127644076Y-115661170D01*
X127646174Y-115665606D01*
X127647827Y-115670226D01*
X127649019Y-115674985D01*
X127649739Y-115679839D01*
X127649980Y-115684740D01*
X127649980Y-115784740D01*
X127649739Y-115789641D01*
X127649019Y-115794495D01*
X127647827Y-115799254D01*
X127646174Y-115803874D01*
X127644076Y-115808310D01*
X127641553Y-115812519D01*
X127638631Y-115816460D01*
X127635335Y-115820095D01*
X127631700Y-115823391D01*
X127627759Y-115826313D01*
X127623550Y-115828836D01*
X127619114Y-115830934D01*
X127614494Y-115832587D01*
X127609735Y-115833779D01*
X127604881Y-115834499D01*
X127599980Y-115834740D01*
X126874980Y-115834740D01*
X126870079Y-115834499D01*
X126865225Y-115833779D01*
X126860466Y-115832587D01*
X126855846Y-115830934D01*
X126851410Y-115828836D01*
X126847201Y-115826313D01*
X126843260Y-115823391D01*
X126839625Y-115820095D01*
X126836329Y-115816460D01*
X126833407Y-115812519D01*
X126830884Y-115808310D01*
X126828786Y-115803874D01*
X126827133Y-115799254D01*
X126825941Y-115794495D01*
X126825221Y-115789641D01*
X126824980Y-115784740D01*
X126824980Y-115684740D01*
X126825221Y-115679839D01*
X126825941Y-115674985D01*
X126827133Y-115670226D01*
X126828786Y-115665606D01*
X126830884Y-115661170D01*
X126833407Y-115656961D01*
X126836329Y-115653020D01*
X126839625Y-115649385D01*
X126843260Y-115646089D01*
X126847201Y-115643167D01*
X126851410Y-115640644D01*
X126855846Y-115638546D01*
X126860466Y-115636893D01*
X126865225Y-115635701D01*
X126870079Y-115634981D01*
X126874980Y-115634740D01*
X127599980Y-115634740D01*
X127604881Y-115634981D01*
X127604881Y-115634981D01*
G37*
D16*
X127237480Y-115734740D03*
D10*
G36*
X126554881Y-114584981D02*
G01*
X126559735Y-114585701D01*
X126564494Y-114586893D01*
X126569114Y-114588546D01*
X126573550Y-114590644D01*
X126577759Y-114593167D01*
X126581700Y-114596089D01*
X126585335Y-114599385D01*
X126588631Y-114603020D01*
X126591553Y-114606961D01*
X126594076Y-114611170D01*
X126596174Y-114615606D01*
X126597827Y-114620226D01*
X126599019Y-114624985D01*
X126599739Y-114629839D01*
X126599980Y-114634740D01*
X126599980Y-115359740D01*
X126599739Y-115364641D01*
X126599019Y-115369495D01*
X126597827Y-115374254D01*
X126596174Y-115378874D01*
X126594076Y-115383310D01*
X126591553Y-115387519D01*
X126588631Y-115391460D01*
X126585335Y-115395095D01*
X126581700Y-115398391D01*
X126577759Y-115401313D01*
X126573550Y-115403836D01*
X126569114Y-115405934D01*
X126564494Y-115407587D01*
X126559735Y-115408779D01*
X126554881Y-115409499D01*
X126549980Y-115409740D01*
X126449980Y-115409740D01*
X126445079Y-115409499D01*
X126440225Y-115408779D01*
X126435466Y-115407587D01*
X126430846Y-115405934D01*
X126426410Y-115403836D01*
X126422201Y-115401313D01*
X126418260Y-115398391D01*
X126414625Y-115395095D01*
X126411329Y-115391460D01*
X126408407Y-115387519D01*
X126405884Y-115383310D01*
X126403786Y-115378874D01*
X126402133Y-115374254D01*
X126400941Y-115369495D01*
X126400221Y-115364641D01*
X126399980Y-115359740D01*
X126399980Y-114634740D01*
X126400221Y-114629839D01*
X126400941Y-114624985D01*
X126402133Y-114620226D01*
X126403786Y-114615606D01*
X126405884Y-114611170D01*
X126408407Y-114606961D01*
X126411329Y-114603020D01*
X126414625Y-114599385D01*
X126418260Y-114596089D01*
X126422201Y-114593167D01*
X126426410Y-114590644D01*
X126430846Y-114588546D01*
X126435466Y-114586893D01*
X126440225Y-114585701D01*
X126445079Y-114584981D01*
X126449980Y-114584740D01*
X126549980Y-114584740D01*
X126554881Y-114584981D01*
X126554881Y-114584981D01*
G37*
D16*
X126499980Y-114997240D03*
D10*
G36*
X126154881Y-114584981D02*
G01*
X126159735Y-114585701D01*
X126164494Y-114586893D01*
X126169114Y-114588546D01*
X126173550Y-114590644D01*
X126177759Y-114593167D01*
X126181700Y-114596089D01*
X126185335Y-114599385D01*
X126188631Y-114603020D01*
X126191553Y-114606961D01*
X126194076Y-114611170D01*
X126196174Y-114615606D01*
X126197827Y-114620226D01*
X126199019Y-114624985D01*
X126199739Y-114629839D01*
X126199980Y-114634740D01*
X126199980Y-115359740D01*
X126199739Y-115364641D01*
X126199019Y-115369495D01*
X126197827Y-115374254D01*
X126196174Y-115378874D01*
X126194076Y-115383310D01*
X126191553Y-115387519D01*
X126188631Y-115391460D01*
X126185335Y-115395095D01*
X126181700Y-115398391D01*
X126177759Y-115401313D01*
X126173550Y-115403836D01*
X126169114Y-115405934D01*
X126164494Y-115407587D01*
X126159735Y-115408779D01*
X126154881Y-115409499D01*
X126149980Y-115409740D01*
X126049980Y-115409740D01*
X126045079Y-115409499D01*
X126040225Y-115408779D01*
X126035466Y-115407587D01*
X126030846Y-115405934D01*
X126026410Y-115403836D01*
X126022201Y-115401313D01*
X126018260Y-115398391D01*
X126014625Y-115395095D01*
X126011329Y-115391460D01*
X126008407Y-115387519D01*
X126005884Y-115383310D01*
X126003786Y-115378874D01*
X126002133Y-115374254D01*
X126000941Y-115369495D01*
X126000221Y-115364641D01*
X125999980Y-115359740D01*
X125999980Y-114634740D01*
X126000221Y-114629839D01*
X126000941Y-114624985D01*
X126002133Y-114620226D01*
X126003786Y-114615606D01*
X126005884Y-114611170D01*
X126008407Y-114606961D01*
X126011329Y-114603020D01*
X126014625Y-114599385D01*
X126018260Y-114596089D01*
X126022201Y-114593167D01*
X126026410Y-114590644D01*
X126030846Y-114588546D01*
X126035466Y-114586893D01*
X126040225Y-114585701D01*
X126045079Y-114584981D01*
X126049980Y-114584740D01*
X126149980Y-114584740D01*
X126154881Y-114584981D01*
X126154881Y-114584981D01*
G37*
D16*
X126099980Y-114997240D03*
D10*
G36*
X125754881Y-114584981D02*
G01*
X125759735Y-114585701D01*
X125764494Y-114586893D01*
X125769114Y-114588546D01*
X125773550Y-114590644D01*
X125777759Y-114593167D01*
X125781700Y-114596089D01*
X125785335Y-114599385D01*
X125788631Y-114603020D01*
X125791553Y-114606961D01*
X125794076Y-114611170D01*
X125796174Y-114615606D01*
X125797827Y-114620226D01*
X125799019Y-114624985D01*
X125799739Y-114629839D01*
X125799980Y-114634740D01*
X125799980Y-115359740D01*
X125799739Y-115364641D01*
X125799019Y-115369495D01*
X125797827Y-115374254D01*
X125796174Y-115378874D01*
X125794076Y-115383310D01*
X125791553Y-115387519D01*
X125788631Y-115391460D01*
X125785335Y-115395095D01*
X125781700Y-115398391D01*
X125777759Y-115401313D01*
X125773550Y-115403836D01*
X125769114Y-115405934D01*
X125764494Y-115407587D01*
X125759735Y-115408779D01*
X125754881Y-115409499D01*
X125749980Y-115409740D01*
X125649980Y-115409740D01*
X125645079Y-115409499D01*
X125640225Y-115408779D01*
X125635466Y-115407587D01*
X125630846Y-115405934D01*
X125626410Y-115403836D01*
X125622201Y-115401313D01*
X125618260Y-115398391D01*
X125614625Y-115395095D01*
X125611329Y-115391460D01*
X125608407Y-115387519D01*
X125605884Y-115383310D01*
X125603786Y-115378874D01*
X125602133Y-115374254D01*
X125600941Y-115369495D01*
X125600221Y-115364641D01*
X125599980Y-115359740D01*
X125599980Y-114634740D01*
X125600221Y-114629839D01*
X125600941Y-114624985D01*
X125602133Y-114620226D01*
X125603786Y-114615606D01*
X125605884Y-114611170D01*
X125608407Y-114606961D01*
X125611329Y-114603020D01*
X125614625Y-114599385D01*
X125618260Y-114596089D01*
X125622201Y-114593167D01*
X125626410Y-114590644D01*
X125630846Y-114588546D01*
X125635466Y-114586893D01*
X125640225Y-114585701D01*
X125645079Y-114584981D01*
X125649980Y-114584740D01*
X125749980Y-114584740D01*
X125754881Y-114584981D01*
X125754881Y-114584981D01*
G37*
D16*
X125699980Y-114997240D03*
D10*
G36*
X125354881Y-114584981D02*
G01*
X125359735Y-114585701D01*
X125364494Y-114586893D01*
X125369114Y-114588546D01*
X125373550Y-114590644D01*
X125377759Y-114593167D01*
X125381700Y-114596089D01*
X125385335Y-114599385D01*
X125388631Y-114603020D01*
X125391553Y-114606961D01*
X125394076Y-114611170D01*
X125396174Y-114615606D01*
X125397827Y-114620226D01*
X125399019Y-114624985D01*
X125399739Y-114629839D01*
X125399980Y-114634740D01*
X125399980Y-115359740D01*
X125399739Y-115364641D01*
X125399019Y-115369495D01*
X125397827Y-115374254D01*
X125396174Y-115378874D01*
X125394076Y-115383310D01*
X125391553Y-115387519D01*
X125388631Y-115391460D01*
X125385335Y-115395095D01*
X125381700Y-115398391D01*
X125377759Y-115401313D01*
X125373550Y-115403836D01*
X125369114Y-115405934D01*
X125364494Y-115407587D01*
X125359735Y-115408779D01*
X125354881Y-115409499D01*
X125349980Y-115409740D01*
X125249980Y-115409740D01*
X125245079Y-115409499D01*
X125240225Y-115408779D01*
X125235466Y-115407587D01*
X125230846Y-115405934D01*
X125226410Y-115403836D01*
X125222201Y-115401313D01*
X125218260Y-115398391D01*
X125214625Y-115395095D01*
X125211329Y-115391460D01*
X125208407Y-115387519D01*
X125205884Y-115383310D01*
X125203786Y-115378874D01*
X125202133Y-115374254D01*
X125200941Y-115369495D01*
X125200221Y-115364641D01*
X125199980Y-115359740D01*
X125199980Y-114634740D01*
X125200221Y-114629839D01*
X125200941Y-114624985D01*
X125202133Y-114620226D01*
X125203786Y-114615606D01*
X125205884Y-114611170D01*
X125208407Y-114606961D01*
X125211329Y-114603020D01*
X125214625Y-114599385D01*
X125218260Y-114596089D01*
X125222201Y-114593167D01*
X125226410Y-114590644D01*
X125230846Y-114588546D01*
X125235466Y-114586893D01*
X125240225Y-114585701D01*
X125245079Y-114584981D01*
X125249980Y-114584740D01*
X125349980Y-114584740D01*
X125354881Y-114584981D01*
X125354881Y-114584981D01*
G37*
D16*
X125299980Y-114997240D03*
D10*
G36*
X124954881Y-114584981D02*
G01*
X124959735Y-114585701D01*
X124964494Y-114586893D01*
X124969114Y-114588546D01*
X124973550Y-114590644D01*
X124977759Y-114593167D01*
X124981700Y-114596089D01*
X124985335Y-114599385D01*
X124988631Y-114603020D01*
X124991553Y-114606961D01*
X124994076Y-114611170D01*
X124996174Y-114615606D01*
X124997827Y-114620226D01*
X124999019Y-114624985D01*
X124999739Y-114629839D01*
X124999980Y-114634740D01*
X124999980Y-115359740D01*
X124999739Y-115364641D01*
X124999019Y-115369495D01*
X124997827Y-115374254D01*
X124996174Y-115378874D01*
X124994076Y-115383310D01*
X124991553Y-115387519D01*
X124988631Y-115391460D01*
X124985335Y-115395095D01*
X124981700Y-115398391D01*
X124977759Y-115401313D01*
X124973550Y-115403836D01*
X124969114Y-115405934D01*
X124964494Y-115407587D01*
X124959735Y-115408779D01*
X124954881Y-115409499D01*
X124949980Y-115409740D01*
X124849980Y-115409740D01*
X124845079Y-115409499D01*
X124840225Y-115408779D01*
X124835466Y-115407587D01*
X124830846Y-115405934D01*
X124826410Y-115403836D01*
X124822201Y-115401313D01*
X124818260Y-115398391D01*
X124814625Y-115395095D01*
X124811329Y-115391460D01*
X124808407Y-115387519D01*
X124805884Y-115383310D01*
X124803786Y-115378874D01*
X124802133Y-115374254D01*
X124800941Y-115369495D01*
X124800221Y-115364641D01*
X124799980Y-115359740D01*
X124799980Y-114634740D01*
X124800221Y-114629839D01*
X124800941Y-114624985D01*
X124802133Y-114620226D01*
X124803786Y-114615606D01*
X124805884Y-114611170D01*
X124808407Y-114606961D01*
X124811329Y-114603020D01*
X124814625Y-114599385D01*
X124818260Y-114596089D01*
X124822201Y-114593167D01*
X124826410Y-114590644D01*
X124830846Y-114588546D01*
X124835466Y-114586893D01*
X124840225Y-114585701D01*
X124845079Y-114584981D01*
X124849980Y-114584740D01*
X124949980Y-114584740D01*
X124954881Y-114584981D01*
X124954881Y-114584981D01*
G37*
D16*
X124899980Y-114997240D03*
D10*
G36*
X124554881Y-114584981D02*
G01*
X124559735Y-114585701D01*
X124564494Y-114586893D01*
X124569114Y-114588546D01*
X124573550Y-114590644D01*
X124577759Y-114593167D01*
X124581700Y-114596089D01*
X124585335Y-114599385D01*
X124588631Y-114603020D01*
X124591553Y-114606961D01*
X124594076Y-114611170D01*
X124596174Y-114615606D01*
X124597827Y-114620226D01*
X124599019Y-114624985D01*
X124599739Y-114629839D01*
X124599980Y-114634740D01*
X124599980Y-115359740D01*
X124599739Y-115364641D01*
X124599019Y-115369495D01*
X124597827Y-115374254D01*
X124596174Y-115378874D01*
X124594076Y-115383310D01*
X124591553Y-115387519D01*
X124588631Y-115391460D01*
X124585335Y-115395095D01*
X124581700Y-115398391D01*
X124577759Y-115401313D01*
X124573550Y-115403836D01*
X124569114Y-115405934D01*
X124564494Y-115407587D01*
X124559735Y-115408779D01*
X124554881Y-115409499D01*
X124549980Y-115409740D01*
X124449980Y-115409740D01*
X124445079Y-115409499D01*
X124440225Y-115408779D01*
X124435466Y-115407587D01*
X124430846Y-115405934D01*
X124426410Y-115403836D01*
X124422201Y-115401313D01*
X124418260Y-115398391D01*
X124414625Y-115395095D01*
X124411329Y-115391460D01*
X124408407Y-115387519D01*
X124405884Y-115383310D01*
X124403786Y-115378874D01*
X124402133Y-115374254D01*
X124400941Y-115369495D01*
X124400221Y-115364641D01*
X124399980Y-115359740D01*
X124399980Y-114634740D01*
X124400221Y-114629839D01*
X124400941Y-114624985D01*
X124402133Y-114620226D01*
X124403786Y-114615606D01*
X124405884Y-114611170D01*
X124408407Y-114606961D01*
X124411329Y-114603020D01*
X124414625Y-114599385D01*
X124418260Y-114596089D01*
X124422201Y-114593167D01*
X124426410Y-114590644D01*
X124430846Y-114588546D01*
X124435466Y-114586893D01*
X124440225Y-114585701D01*
X124445079Y-114584981D01*
X124449980Y-114584740D01*
X124549980Y-114584740D01*
X124554881Y-114584981D01*
X124554881Y-114584981D01*
G37*
D16*
X124499980Y-114997240D03*
D10*
G36*
X124154881Y-114584981D02*
G01*
X124159735Y-114585701D01*
X124164494Y-114586893D01*
X124169114Y-114588546D01*
X124173550Y-114590644D01*
X124177759Y-114593167D01*
X124181700Y-114596089D01*
X124185335Y-114599385D01*
X124188631Y-114603020D01*
X124191553Y-114606961D01*
X124194076Y-114611170D01*
X124196174Y-114615606D01*
X124197827Y-114620226D01*
X124199019Y-114624985D01*
X124199739Y-114629839D01*
X124199980Y-114634740D01*
X124199980Y-115359740D01*
X124199739Y-115364641D01*
X124199019Y-115369495D01*
X124197827Y-115374254D01*
X124196174Y-115378874D01*
X124194076Y-115383310D01*
X124191553Y-115387519D01*
X124188631Y-115391460D01*
X124185335Y-115395095D01*
X124181700Y-115398391D01*
X124177759Y-115401313D01*
X124173550Y-115403836D01*
X124169114Y-115405934D01*
X124164494Y-115407587D01*
X124159735Y-115408779D01*
X124154881Y-115409499D01*
X124149980Y-115409740D01*
X124049980Y-115409740D01*
X124045079Y-115409499D01*
X124040225Y-115408779D01*
X124035466Y-115407587D01*
X124030846Y-115405934D01*
X124026410Y-115403836D01*
X124022201Y-115401313D01*
X124018260Y-115398391D01*
X124014625Y-115395095D01*
X124011329Y-115391460D01*
X124008407Y-115387519D01*
X124005884Y-115383310D01*
X124003786Y-115378874D01*
X124002133Y-115374254D01*
X124000941Y-115369495D01*
X124000221Y-115364641D01*
X123999980Y-115359740D01*
X123999980Y-114634740D01*
X124000221Y-114629839D01*
X124000941Y-114624985D01*
X124002133Y-114620226D01*
X124003786Y-114615606D01*
X124005884Y-114611170D01*
X124008407Y-114606961D01*
X124011329Y-114603020D01*
X124014625Y-114599385D01*
X124018260Y-114596089D01*
X124022201Y-114593167D01*
X124026410Y-114590644D01*
X124030846Y-114588546D01*
X124035466Y-114586893D01*
X124040225Y-114585701D01*
X124045079Y-114584981D01*
X124049980Y-114584740D01*
X124149980Y-114584740D01*
X124154881Y-114584981D01*
X124154881Y-114584981D01*
G37*
D16*
X124099980Y-114997240D03*
D10*
G36*
X123754881Y-114584981D02*
G01*
X123759735Y-114585701D01*
X123764494Y-114586893D01*
X123769114Y-114588546D01*
X123773550Y-114590644D01*
X123777759Y-114593167D01*
X123781700Y-114596089D01*
X123785335Y-114599385D01*
X123788631Y-114603020D01*
X123791553Y-114606961D01*
X123794076Y-114611170D01*
X123796174Y-114615606D01*
X123797827Y-114620226D01*
X123799019Y-114624985D01*
X123799739Y-114629839D01*
X123799980Y-114634740D01*
X123799980Y-115359740D01*
X123799739Y-115364641D01*
X123799019Y-115369495D01*
X123797827Y-115374254D01*
X123796174Y-115378874D01*
X123794076Y-115383310D01*
X123791553Y-115387519D01*
X123788631Y-115391460D01*
X123785335Y-115395095D01*
X123781700Y-115398391D01*
X123777759Y-115401313D01*
X123773550Y-115403836D01*
X123769114Y-115405934D01*
X123764494Y-115407587D01*
X123759735Y-115408779D01*
X123754881Y-115409499D01*
X123749980Y-115409740D01*
X123649980Y-115409740D01*
X123645079Y-115409499D01*
X123640225Y-115408779D01*
X123635466Y-115407587D01*
X123630846Y-115405934D01*
X123626410Y-115403836D01*
X123622201Y-115401313D01*
X123618260Y-115398391D01*
X123614625Y-115395095D01*
X123611329Y-115391460D01*
X123608407Y-115387519D01*
X123605884Y-115383310D01*
X123603786Y-115378874D01*
X123602133Y-115374254D01*
X123600941Y-115369495D01*
X123600221Y-115364641D01*
X123599980Y-115359740D01*
X123599980Y-114634740D01*
X123600221Y-114629839D01*
X123600941Y-114624985D01*
X123602133Y-114620226D01*
X123603786Y-114615606D01*
X123605884Y-114611170D01*
X123608407Y-114606961D01*
X123611329Y-114603020D01*
X123614625Y-114599385D01*
X123618260Y-114596089D01*
X123622201Y-114593167D01*
X123626410Y-114590644D01*
X123630846Y-114588546D01*
X123635466Y-114586893D01*
X123640225Y-114585701D01*
X123645079Y-114584981D01*
X123649980Y-114584740D01*
X123749980Y-114584740D01*
X123754881Y-114584981D01*
X123754881Y-114584981D01*
G37*
D16*
X123699980Y-114997240D03*
D10*
G36*
X123354881Y-114584981D02*
G01*
X123359735Y-114585701D01*
X123364494Y-114586893D01*
X123369114Y-114588546D01*
X123373550Y-114590644D01*
X123377759Y-114593167D01*
X123381700Y-114596089D01*
X123385335Y-114599385D01*
X123388631Y-114603020D01*
X123391553Y-114606961D01*
X123394076Y-114611170D01*
X123396174Y-114615606D01*
X123397827Y-114620226D01*
X123399019Y-114624985D01*
X123399739Y-114629839D01*
X123399980Y-114634740D01*
X123399980Y-115359740D01*
X123399739Y-115364641D01*
X123399019Y-115369495D01*
X123397827Y-115374254D01*
X123396174Y-115378874D01*
X123394076Y-115383310D01*
X123391553Y-115387519D01*
X123388631Y-115391460D01*
X123385335Y-115395095D01*
X123381700Y-115398391D01*
X123377759Y-115401313D01*
X123373550Y-115403836D01*
X123369114Y-115405934D01*
X123364494Y-115407587D01*
X123359735Y-115408779D01*
X123354881Y-115409499D01*
X123349980Y-115409740D01*
X123249980Y-115409740D01*
X123245079Y-115409499D01*
X123240225Y-115408779D01*
X123235466Y-115407587D01*
X123230846Y-115405934D01*
X123226410Y-115403836D01*
X123222201Y-115401313D01*
X123218260Y-115398391D01*
X123214625Y-115395095D01*
X123211329Y-115391460D01*
X123208407Y-115387519D01*
X123205884Y-115383310D01*
X123203786Y-115378874D01*
X123202133Y-115374254D01*
X123200941Y-115369495D01*
X123200221Y-115364641D01*
X123199980Y-115359740D01*
X123199980Y-114634740D01*
X123200221Y-114629839D01*
X123200941Y-114624985D01*
X123202133Y-114620226D01*
X123203786Y-114615606D01*
X123205884Y-114611170D01*
X123208407Y-114606961D01*
X123211329Y-114603020D01*
X123214625Y-114599385D01*
X123218260Y-114596089D01*
X123222201Y-114593167D01*
X123226410Y-114590644D01*
X123230846Y-114588546D01*
X123235466Y-114586893D01*
X123240225Y-114585701D01*
X123245079Y-114584981D01*
X123249980Y-114584740D01*
X123349980Y-114584740D01*
X123354881Y-114584981D01*
X123354881Y-114584981D01*
G37*
D16*
X123299980Y-114997240D03*
D10*
G36*
X122954881Y-114584981D02*
G01*
X122959735Y-114585701D01*
X122964494Y-114586893D01*
X122969114Y-114588546D01*
X122973550Y-114590644D01*
X122977759Y-114593167D01*
X122981700Y-114596089D01*
X122985335Y-114599385D01*
X122988631Y-114603020D01*
X122991553Y-114606961D01*
X122994076Y-114611170D01*
X122996174Y-114615606D01*
X122997827Y-114620226D01*
X122999019Y-114624985D01*
X122999739Y-114629839D01*
X122999980Y-114634740D01*
X122999980Y-115359740D01*
X122999739Y-115364641D01*
X122999019Y-115369495D01*
X122997827Y-115374254D01*
X122996174Y-115378874D01*
X122994076Y-115383310D01*
X122991553Y-115387519D01*
X122988631Y-115391460D01*
X122985335Y-115395095D01*
X122981700Y-115398391D01*
X122977759Y-115401313D01*
X122973550Y-115403836D01*
X122969114Y-115405934D01*
X122964494Y-115407587D01*
X122959735Y-115408779D01*
X122954881Y-115409499D01*
X122949980Y-115409740D01*
X122849980Y-115409740D01*
X122845079Y-115409499D01*
X122840225Y-115408779D01*
X122835466Y-115407587D01*
X122830846Y-115405934D01*
X122826410Y-115403836D01*
X122822201Y-115401313D01*
X122818260Y-115398391D01*
X122814625Y-115395095D01*
X122811329Y-115391460D01*
X122808407Y-115387519D01*
X122805884Y-115383310D01*
X122803786Y-115378874D01*
X122802133Y-115374254D01*
X122800941Y-115369495D01*
X122800221Y-115364641D01*
X122799980Y-115359740D01*
X122799980Y-114634740D01*
X122800221Y-114629839D01*
X122800941Y-114624985D01*
X122802133Y-114620226D01*
X122803786Y-114615606D01*
X122805884Y-114611170D01*
X122808407Y-114606961D01*
X122811329Y-114603020D01*
X122814625Y-114599385D01*
X122818260Y-114596089D01*
X122822201Y-114593167D01*
X122826410Y-114590644D01*
X122830846Y-114588546D01*
X122835466Y-114586893D01*
X122840225Y-114585701D01*
X122845079Y-114584981D01*
X122849980Y-114584740D01*
X122949980Y-114584740D01*
X122954881Y-114584981D01*
X122954881Y-114584981D01*
G37*
D16*
X122899980Y-114997240D03*
D10*
G36*
X122554881Y-114584981D02*
G01*
X122559735Y-114585701D01*
X122564494Y-114586893D01*
X122569114Y-114588546D01*
X122573550Y-114590644D01*
X122577759Y-114593167D01*
X122581700Y-114596089D01*
X122585335Y-114599385D01*
X122588631Y-114603020D01*
X122591553Y-114606961D01*
X122594076Y-114611170D01*
X122596174Y-114615606D01*
X122597827Y-114620226D01*
X122599019Y-114624985D01*
X122599739Y-114629839D01*
X122599980Y-114634740D01*
X122599980Y-115359740D01*
X122599739Y-115364641D01*
X122599019Y-115369495D01*
X122597827Y-115374254D01*
X122596174Y-115378874D01*
X122594076Y-115383310D01*
X122591553Y-115387519D01*
X122588631Y-115391460D01*
X122585335Y-115395095D01*
X122581700Y-115398391D01*
X122577759Y-115401313D01*
X122573550Y-115403836D01*
X122569114Y-115405934D01*
X122564494Y-115407587D01*
X122559735Y-115408779D01*
X122554881Y-115409499D01*
X122549980Y-115409740D01*
X122449980Y-115409740D01*
X122445079Y-115409499D01*
X122440225Y-115408779D01*
X122435466Y-115407587D01*
X122430846Y-115405934D01*
X122426410Y-115403836D01*
X122422201Y-115401313D01*
X122418260Y-115398391D01*
X122414625Y-115395095D01*
X122411329Y-115391460D01*
X122408407Y-115387519D01*
X122405884Y-115383310D01*
X122403786Y-115378874D01*
X122402133Y-115374254D01*
X122400941Y-115369495D01*
X122400221Y-115364641D01*
X122399980Y-115359740D01*
X122399980Y-114634740D01*
X122400221Y-114629839D01*
X122400941Y-114624985D01*
X122402133Y-114620226D01*
X122403786Y-114615606D01*
X122405884Y-114611170D01*
X122408407Y-114606961D01*
X122411329Y-114603020D01*
X122414625Y-114599385D01*
X122418260Y-114596089D01*
X122422201Y-114593167D01*
X122426410Y-114590644D01*
X122430846Y-114588546D01*
X122435466Y-114586893D01*
X122440225Y-114585701D01*
X122445079Y-114584981D01*
X122449980Y-114584740D01*
X122549980Y-114584740D01*
X122554881Y-114584981D01*
X122554881Y-114584981D01*
G37*
D16*
X122499980Y-114997240D03*
D10*
G36*
X122154881Y-114584981D02*
G01*
X122159735Y-114585701D01*
X122164494Y-114586893D01*
X122169114Y-114588546D01*
X122173550Y-114590644D01*
X122177759Y-114593167D01*
X122181700Y-114596089D01*
X122185335Y-114599385D01*
X122188631Y-114603020D01*
X122191553Y-114606961D01*
X122194076Y-114611170D01*
X122196174Y-114615606D01*
X122197827Y-114620226D01*
X122199019Y-114624985D01*
X122199739Y-114629839D01*
X122199980Y-114634740D01*
X122199980Y-115359740D01*
X122199739Y-115364641D01*
X122199019Y-115369495D01*
X122197827Y-115374254D01*
X122196174Y-115378874D01*
X122194076Y-115383310D01*
X122191553Y-115387519D01*
X122188631Y-115391460D01*
X122185335Y-115395095D01*
X122181700Y-115398391D01*
X122177759Y-115401313D01*
X122173550Y-115403836D01*
X122169114Y-115405934D01*
X122164494Y-115407587D01*
X122159735Y-115408779D01*
X122154881Y-115409499D01*
X122149980Y-115409740D01*
X122049980Y-115409740D01*
X122045079Y-115409499D01*
X122040225Y-115408779D01*
X122035466Y-115407587D01*
X122030846Y-115405934D01*
X122026410Y-115403836D01*
X122022201Y-115401313D01*
X122018260Y-115398391D01*
X122014625Y-115395095D01*
X122011329Y-115391460D01*
X122008407Y-115387519D01*
X122005884Y-115383310D01*
X122003786Y-115378874D01*
X122002133Y-115374254D01*
X122000941Y-115369495D01*
X122000221Y-115364641D01*
X121999980Y-115359740D01*
X121999980Y-114634740D01*
X122000221Y-114629839D01*
X122000941Y-114624985D01*
X122002133Y-114620226D01*
X122003786Y-114615606D01*
X122005884Y-114611170D01*
X122008407Y-114606961D01*
X122011329Y-114603020D01*
X122014625Y-114599385D01*
X122018260Y-114596089D01*
X122022201Y-114593167D01*
X122026410Y-114590644D01*
X122030846Y-114588546D01*
X122035466Y-114586893D01*
X122040225Y-114585701D01*
X122045079Y-114584981D01*
X122049980Y-114584740D01*
X122149980Y-114584740D01*
X122154881Y-114584981D01*
X122154881Y-114584981D01*
G37*
D16*
X122099980Y-114997240D03*
D17*
X115587880Y-120670140D03*
X115587880Y-122870140D03*
X117187880Y-120670140D03*
X117187880Y-122870140D03*
M02*
