M48
; DRILL file {KiCad (5.1.0-218-ge90452d)} date Sat 20 Apr 2019 11:49:21 AM PDT
; FORMAT={-:-/ absolute / inch / decimal}
; #@! TF.CreationDate,2019-04-20T11:49:21-07:00
; #@! TF.GenerationSoftware,Kicad,Pcbnew,(5.1.0-218-ge90452d)
; #@! TF.FileFunction,Plated,1,4,PTH
FMAT,2
INCH
T1C0.0130
T2C0.0394
%
G90
G05
T1
X4.0918Y-4.7285
X4.0933Y-4.556
X4.1296Y-4.8606
X4.1782Y-4.6902
X4.1794Y-4.5181
X4.2Y-4.325
X4.2Y-4.975
X4.2035Y-4.8827
X4.2044Y-4.7763
X4.2051Y-4.6044
X4.25Y-4.482
X4.2898Y-4.4821
X4.3Y-4.325
X4.3Y-4.975
X4.4Y-4.325
X4.4Y-4.975
X4.4393Y-4.4844
X4.44Y-4.7691
X4.5Y-4.325
X4.5Y-4.975
X4.5012Y-4.6108
X4.519Y-4.6478
X4.5206Y-4.7934
X4.6Y-4.325
X4.6Y-4.975
X4.6292Y-4.5226
X4.6299Y-4.689
X4.6541Y-4.4809
X4.6542Y-4.524
X4.6763Y-4.7828
X4.7Y-4.325
X4.7Y-4.975
X4.7423Y-4.635
X4.7467Y-4.8438
X4.7475Y-4.7477
X4.7522Y-4.4815
X4.7679Y-4.5046
X4.8Y-4.325
X4.8Y-4.975
X4.8276Y-4.665
X4.828Y-4.5776
X4.828Y-4.6209
X4.828Y-4.7087
X4.8717Y-4.5776
X4.8717Y-4.6209
X4.8717Y-4.665
X4.8717Y-4.7087
X4.9Y-4.325
X4.9Y-4.975
X4.9021Y-4.8022
X4.9154Y-4.5772
X4.9154Y-4.6209
X4.9154Y-4.665
X4.9157Y-4.7087
X4.9486Y-4.8024
X4.9591Y-4.5772
X4.9591Y-4.6213
X4.9591Y-4.665
X4.9594Y-4.7087
X5.0Y-4.325
X5.0Y-4.975
X5.0119Y-4.8459
X5.0121Y-4.8026
X5.0276Y-4.7773
X5.0936Y-4.5819
X5.095Y-4.6871
X5.1Y-4.325
X5.1Y-4.975
X5.1246Y-4.6866
X5.1246Y-4.5819
X5.1682Y-4.5795
X5.1705Y-4.8236
X5.2Y-4.325
X5.2Y-4.975
X5.2103Y-4.6862
X5.2107Y-4.8043
X5.2296Y-4.4451
X5.2894Y-4.805
X5.292Y-4.4759
X5.3Y-4.325
X5.3Y-4.975
X5.3295Y-4.729
X5.3551Y-4.5811
T2
X4.05Y-4.3
X4.05Y-4.35
X4.15Y-4.3
X4.15Y-4.35
X4.25Y-4.3
X4.25Y-4.35
X4.35Y-4.3
X4.35Y-4.35
X4.45Y-4.3
X4.45Y-4.35
X4.55Y-4.3
X4.55Y-4.35
X4.65Y-4.3
X4.65Y-4.35
X4.75Y-4.3
X4.75Y-4.35
X4.85Y-4.3
X4.85Y-4.35
X4.95Y-4.3
X4.95Y-4.35
X5.05Y-4.3
X5.05Y-4.35
X5.15Y-4.3
X5.15Y-4.35
X5.25Y-4.3
X5.25Y-4.35
X5.35Y-4.3
X5.35Y-4.35
X4.05Y-4.95
X4.05Y-5.0
X4.15Y-4.95
X4.15Y-5.0
X4.25Y-4.95
X4.25Y-5.0
X4.35Y-4.95
X4.35Y-5.0
X4.45Y-4.95
X4.45Y-5.0
X4.55Y-4.95
X4.55Y-5.0
X4.65Y-4.95
X4.65Y-5.0
X4.75Y-4.95
X4.75Y-5.0
X4.85Y-4.95
X4.85Y-5.0
X4.95Y-4.95
X4.95Y-5.0
X5.05Y-4.95
X5.05Y-5.0
X5.15Y-4.95
X5.15Y-5.0
X5.25Y-4.95
X5.25Y-5.0
X5.35Y-4.95
X5.35Y-5.0
T0
M30
