G04 #@! TF.GenerationSoftware,KiCad,Pcbnew,(2017-08-02 revision 9760937)-master*
G04 #@! TF.CreationDate,2017-09-04T14:54:41-05:00*
G04 #@! TF.ProjectId,lofive,6C6F666976652E6B696361645F706362,0*
G04 #@! TF.SameCoordinates,Original*
G04 #@! TF.FileFunction,Paste,Top*
G04 #@! TF.FilePolarity,Positive*
%FSLAX46Y46*%
G04 Gerber Fmt 4.6, Leading zero omitted, Abs format (unit mm)*
G04 Created by KiCad (PCBNEW (2017-08-02 revision 9760937)-master) date Mon Sep  4 14:54:41 2017*
%MOMM*%
%LPD*%
G01*
G04 APERTURE LIST*
%ADD10R,0.500000X0.600000*%
%ADD11R,0.700000X1.450000*%
%ADD12R,0.600000X0.500000*%
%ADD13R,1.060000X0.650000*%
%ADD14R,0.600000X0.400000*%
%ADD15R,0.650000X1.700000*%
%ADD16R,1.200000X1.400000*%
%ADD17R,0.800000X0.200000*%
%ADD18R,0.200000X0.800000*%
%ADD19R,0.667500X0.667500*%
G04 APERTURE END LIST*
D10*
X125232160Y-121984680D03*
X125232160Y-123084680D03*
D11*
X132350000Y-117948000D03*
X132350000Y-123098000D03*
X134350000Y-123098000D03*
X134350000Y-117948000D03*
D12*
X133562000Y-112903000D03*
X134662000Y-112903000D03*
D10*
X136017000Y-119296000D03*
X136017000Y-120396000D03*
D13*
X132216800Y-114406600D03*
X132216800Y-115356600D03*
X132216800Y-116306600D03*
X134416800Y-116306600D03*
X134416800Y-114406600D03*
D14*
X123695460Y-122102460D03*
X123695460Y-123002460D03*
X136017000Y-117925000D03*
X136017000Y-117025000D03*
D10*
X106807000Y-120946000D03*
X106807000Y-119846000D03*
X106807000Y-115147000D03*
X106807000Y-116247000D03*
D13*
X105240000Y-114747000D03*
X105240000Y-116647000D03*
X103040000Y-116647000D03*
X103040000Y-115697000D03*
X103040000Y-114747000D03*
X103040000Y-119573000D03*
X103040000Y-120523000D03*
X103040000Y-121473000D03*
X105240000Y-121473000D03*
X105240000Y-119573000D03*
D12*
X109304060Y-113085580D03*
X110404060Y-113085580D03*
D15*
X108966000Y-122422660D03*
X110236000Y-122422660D03*
X111506000Y-122422660D03*
X112776000Y-122422660D03*
X112776000Y-115122660D03*
X111506000Y-115122660D03*
X110236000Y-115122660D03*
X108966000Y-115122660D03*
D10*
X118275100Y-118045140D03*
X118275100Y-119145140D03*
X126619000Y-123084680D03*
X126619000Y-121984680D03*
D12*
X129063760Y-117079560D03*
X130163760Y-117079560D03*
D10*
X119540020Y-119145140D03*
X119540020Y-118045140D03*
D12*
X129063760Y-118339560D03*
X130163760Y-118339560D03*
X118913820Y-115077240D03*
X120013820Y-115077240D03*
X120013820Y-113830100D03*
X118913820Y-113830100D03*
X118776660Y-120848120D03*
X119876660Y-120848120D03*
D14*
X116890800Y-118168000D03*
X116890800Y-119068000D03*
D16*
X115587880Y-120670140D03*
X115587880Y-122870140D03*
X117187880Y-120670140D03*
X117187880Y-122870140D03*
D12*
X119888680Y-123031920D03*
X118788680Y-123031920D03*
D10*
X115547140Y-119150220D03*
X115547140Y-118050220D03*
D17*
X121299980Y-115734740D03*
X121299980Y-116134740D03*
X121299980Y-116534740D03*
X121299980Y-116934740D03*
X121299980Y-117334740D03*
X121299980Y-117734740D03*
X121299980Y-118134740D03*
X121299980Y-118534740D03*
X121299980Y-118934740D03*
X121299980Y-119334740D03*
X121299980Y-119734740D03*
X121299980Y-120134740D03*
D18*
X122099980Y-120934740D03*
X122499980Y-120934740D03*
X122899980Y-120934740D03*
X123299980Y-120934740D03*
X123699980Y-120934740D03*
X124099980Y-120934740D03*
X124499980Y-120934740D03*
X124899980Y-120934740D03*
X125299980Y-120934740D03*
X125699980Y-120934740D03*
X126099980Y-120934740D03*
X126499980Y-120934740D03*
D17*
X127299980Y-120134740D03*
X127299980Y-119734740D03*
X127299980Y-119334740D03*
X127299980Y-118934740D03*
X127299980Y-118534740D03*
X127299980Y-118134740D03*
X127299980Y-117734740D03*
X127299980Y-117334740D03*
X127299980Y-116934740D03*
X127299980Y-116534740D03*
X127299980Y-116134740D03*
X127299980Y-115734740D03*
D18*
X126499980Y-114934740D03*
X126099980Y-114934740D03*
X125699980Y-114934740D03*
X125299980Y-114934740D03*
X124899980Y-114934740D03*
X124499980Y-114934740D03*
X124099980Y-114934740D03*
X123699980Y-114934740D03*
X123299980Y-114934740D03*
X122899980Y-114934740D03*
X122499980Y-114934740D03*
X122099980Y-114934740D03*
D19*
X125968730Y-119603490D03*
X125968730Y-118490990D03*
X125968730Y-117378490D03*
X125968730Y-116265990D03*
X124856230Y-119603490D03*
X124856230Y-118490990D03*
X124856230Y-117378490D03*
X124856230Y-116265990D03*
X123743730Y-119603490D03*
X123743730Y-118490990D03*
X123743730Y-117378490D03*
X123743730Y-116265990D03*
X122631230Y-119603490D03*
X122631230Y-118490990D03*
X122631230Y-117378490D03*
X122631230Y-116265990D03*
M02*
