M48
;DRILL file {KiCad (2017-08-02 revision 9760937)-master} date Mon Sep  4 14:54:54 2017
;FORMAT={-:-/ absolute / inch / decimal}
FMAT,2
INCH,TZ
T1C0.013
T2C0.040
%
G90
G05
M72
T1
X4.0925Y-4.7455
X4.0933Y-4.556
X4.1789Y-4.7072
X4.1794Y-4.5181
X4.2Y-4.325
X4.2Y-4.975
X4.2051Y-4.6044
X4.2051Y-4.7933
X4.2898Y-4.4821
X4.3Y-4.325
X4.3Y-4.975
X4.378Y-4.4526
X4.4Y-4.325
X4.4Y-4.975
X4.4393Y-4.4844
X4.44Y-4.7691
X4.5Y-4.325
X4.5Y-4.975
X4.5012Y-4.6108
X4.519Y-4.6478
X4.5206Y-4.7934
X4.6Y-4.325
X4.6Y-4.975
X4.6299Y-4.689
X4.6541Y-4.4809
X4.6544Y-4.5303
X4.6763Y-4.7828
X4.7Y-4.325
X4.7Y-4.975
X4.7423Y-4.635
X4.7467Y-4.8438
X4.7475Y-4.7477
X4.7522Y-4.4815
X4.7679Y-4.5046
X4.8Y-4.325
X4.8Y-4.975
X4.8276Y-4.665
X4.828Y-4.5776
X4.828Y-4.6209
X4.828Y-4.7087
X4.8717Y-4.5776
X4.8717Y-4.6209
X4.8717Y-4.665
X4.8717Y-4.7087
X4.9Y-4.325
X4.9Y-4.975
X4.9019Y-4.8024
X4.9154Y-4.5772
X4.9154Y-4.6209
X4.9154Y-4.665
X4.9157Y-4.7087
X4.9574Y-4.8459
X4.958Y-4.8021
X4.9591Y-4.5772
X4.9591Y-4.6213
X4.9591Y-4.665
X4.9594Y-4.7087
X5.Y-4.325
X5.Y-4.975
X5.0119Y-4.8459
X5.0276Y-4.7773
X5.0936Y-4.5819
X5.095Y-4.6871
X5.1Y-4.325
X5.1Y-4.975
X5.1246Y-4.6866
X5.1246Y-4.5819
X5.1682Y-4.5795
X5.1705Y-4.8236
X5.2Y-4.325
X5.2Y-4.975
X5.2103Y-4.6862
X5.2107Y-4.8043
X5.2296Y-4.4451
X5.2894Y-4.805
X5.292Y-4.4759
X5.3Y-4.325
X5.3Y-4.975
X5.329Y-4.74
X5.3551Y-4.5811
T2
X4.05Y-4.95
X4.15Y-4.95
X4.25Y-4.95
X4.35Y-4.95
X4.45Y-4.95
X4.55Y-4.95
X4.65Y-4.95
X4.75Y-4.95
X4.85Y-4.95
X4.95Y-4.95
X5.05Y-4.95
X5.15Y-4.95
X5.25Y-4.95
X5.35Y-4.95
X4.05Y-4.35
X4.15Y-4.35
X4.25Y-4.35
X4.35Y-4.35
X4.45Y-4.35
X4.55Y-4.35
X4.65Y-4.35
X4.75Y-4.35
X4.85Y-4.35
X4.95Y-4.35
X5.05Y-4.35
X5.15Y-4.35
X5.25Y-4.35
X5.35Y-4.35
T0
M30
